<?xml version="1.0" encoding="UTF-8"?>
<svg fill="currentColor" fill-rule="evenodd" aria-hidden="true" viewBox="0 0 379 555" xmlns="http://www.w3.org/2000/svg"><path d="m15 540-6.2-.31.42-3.3c.57-4.4.59-5.5.63-35 .01-14 .16-32 .31-41 .16-8.5.39-32 .51-51 .14-22 .59-36 1.2-35 .54.34.91 9 .87 20-.11 28-.18 27 1.4 27 .78 0 1.7-.56 2-1.2.46-1 .7-1 1.2.01.32.69.99 1 1.5.69.86-.54 1.1-.08 1.3 2.8.06.69.55 1.6 1.1 2 .63.45.54 1.2-.25 2-2.1 2.1-1.4 3 1.8 2.5 1.9-.3 2.8-.1 2.4.54-.94 1.5 3.9-.2 5.1-1.8.68-.9 1.5-1 2.5-.39 1.2.75 1.2 1.2.25 2.2-.68.68-1.2 1.7-1.2 2.3s.75-.04 1.7-1.3c1.6-2.2 1.6-2.5-.08-3.6-2-1.4-3-6.7-1.2-6.2.62.19 1.6 1.3 2.1 2.5.8 1.8 1.8 2.1 6.5 2.1 3.1 0 5.7.48 5.9 1.1.2.6.82.8 1.4.45 1.4-.88 2.9 1.7 2.2 3.9-.5 1.6-.13 1.7 3 1.1 2.8-.53 3.6-.36 3.6.85 0 1.2-1.1 1.5-4.6 1.4-3.8-.13-4.7.18-4.9 1.6-.19 1.2.61 2.1 2.2 2.8l2.5.95-2.6 3.1c-1.4 1.7-2.3 3.5-2 4 .31.51-.3.92-1.4.92-1.1 0-2.7 1-3.6 2.2-.92 1.2-1.4 1.7-1.1 1 .34-.69.08-1.2-.56-1.2-.65 0-.9.7-.56 1.6.34.87.62 2.1.64 2.8s.66.35 1.4-.65c1-1.4 1.5-1.5 1.8-.5.24.73.32.53.18-.43s.37-1.8 1.1-1.8c.78 0 1.4.45 1.4 1s1.1 1 2.5 1c2.7 0 3.2.94 1.3 2.8-.66.66-.78 1.2-.28 1.2.51 0-.06.69-1.3 1.5-1.2.84-2 2.1-1.7 2.8.26.68-.5 1.7-1.7 2.2-1.2.54-2 1.4-1.9 1.9s-.28 1.2-.89 1.6 1.3 1.2 4.2 1.9c2.9.67 5.4.86 5.5.43.14-.44 4.6-.75 10-.71s10-.13 11-.39c.48-.25 3-.58 5.5-.73 2.5-.14 7.1-.55 10-.92 3-.36 7.1-.79 9-.96 4.1-.37 15 1 11 1.4-1.9.21-1.5.45 1.5.99 3.6.65 3.4.73-2.6.86-3.6.08-7-.2-7.5-.63-.52-.42-3.4-.49-6.4-.16-4.4.49-4.8.66-2 .88 1.9.16 4.3.2 5.3.09.99-.1 2.5.39 3.3 1.1.84.7 3.4 1.2 5.7 1 5.2-.32 11 1.9 9.7 3.8-.58.93-1 .99-1.5.22-.4-.64-3.6-1.1-7.7-1.1-3.8 0-6.8-.4-6.4-.89.73-1.2-2.9-2.1-4.5-1.1-.91.56-.74.91.63 1.3 1.3.33.98.52-.97.6-2.6.11-2.7.3-1.5 1.8 1.2 1.5 1 1.6-2.6.91-2.2-.42-4.3-1.3-4.8-1.9-.54-.84-1-.74-1.8.34-.78 1.2-1.2 1.2-1.8.25-.56-.86-4.3-1.3-12-1.4-6.2-.07-11-.43-11-.81s1.8-.8 4-.93c2.2-.13 5-.61 6.2-1.1 1.4-.52-1.2-.69-6.7-.46-8 .34-15 1.9-15 3.4 0 1.4 5.4.8 6.5-.71 1.1-1.5 1.3-1.5 2.4.46.63 1.2 1.8 1.9 2.5 1.6.74-.29 1.6.18 2 1 .44 1.2-.05 1.6-1.9 1.6-1.4 0-2.5-.34-2.5-.75s-2.2-.59-5-.4-6.4-.13-8-.7c-1.8-.64-3-.67-3-.1 0 .52-1.4.95-3 .95s-3 .44-3 .98c0 .62-.89.63-2.5.02s-2.5-.6-2.5.02c0 .56-3.6.98-8.5.98-10 0-12-1.9-1.2-2.2l7.2-.17-5.5-.67c-4.6-.57-3.7-.72 6-.99 6.3-.17 10-.48 8.5-.68-5.5-.69-7.6-1.4-7-2.3.84-1.4-3.9-2.3-6.7-1.4-2.7.97-3.2 1-7.8 1.4l-3.5.24 7 1.5-3.5.23c-3.3.21-3.3.28-1 1l2.5.8-2.8.1c-2.7.1-2.8.26-2.5 4.8l.3 4.8 5.7.04c3.1.02 6 .36 6.4.75s-.51.71-2 .71-2.5.39-2.2.88c.8 1.3 5.6 1.1 5.6-.27 0-.77 3-1.2 9.2-1.3 5.1-.06 16-.41 24-.77 10-.46 15-.34 14 .38-.36.57-.17 1 .41 1s1.1-.45 1.1-1 .7-1 1.6-1 1.3.45.94 1-.14 1 .44 1 1.1-.87 1.1-1.9.79-2.1 1.8-2.4.04-.51-2.1-.57c-2.6-.08-3.6.24-3.1 1 .42.67.16.95-.63.69-.73-.25-1.5-.94-1.7-1.5-.57-1.7 11-2.1 12-.4.57 1 .96 1.1 1.5.2.45-.73 1.2-.83 1.9-.27 1.7 1.3 5.7 2.2 5.7 1.2 0-1.3 6.4-1.9 7.2-.64.55.82.95.81 1.5-.05 1-1.6 6.2-2.8 6.2-1.5 0 .56-.56 1.2-1.2 1.5-.8.32-.66.53.38.58.89.04 2.3-.93 3.2-2.2 1.5-2.2 1.6-2.2 3.1-.4 1.6 2 8.3 2.6 9.5.9.86-1.3 6-2.2 6.7-1.1.3.48 1.3.86 2.2.85 1.2-.01 1.3-.24.45-.8-.74-.47.21-.83 2.4-.89 2-.05 3.9-.48 4.2-.94.34-.47 2-.91 3.6-.99 1.6-.07 5.2-.46 8-.86s6.4-.83 8-.96c1.6-.12 4.5-.56 6.2-.96 2.2-.5 3.2-.37 3.2.39 0 .74 1.2.9 3.5.46 3.4-.63 5 .75 2.2 1.9-.69.3 1.2.27 4.2-.06 3.9-.44 5.2-.3 4.7.54-.39.63-2.8 1.2-5.3 1.2-2.5 0-4.3.31-3.9.69.37.38 4.3.58 8.7.45 5-.15 8 .15 8 .81 0 .58.9 1 2 1s2-.5 2-1.1c0-1.2 6.2-.67 13 1 3.4.85 3.4.88-1.6.98-9.6.19-15 2.4-8.6 3.4 2.6.4 2.6.43-.39.57-2 .09-3.4-.41-3.7-1.4-.32-.82-1.2-1.5-2-1.5-.79 0-1.7-.56-2-1.2-.4-1-.52-1-.58 0-.04.69-.95 1.2-2 1.2-2 0-3.6-1.5-2.3-2.2.42-.23.16-.27-.57-.09-.73.19-3.5.34-6.2.34-4.7 0-4.8.05-3.7 2.4.96 2 1.6 2.3 4.9 1.9 3.1-.42 3.8-.2 3.8 1.3 0 1.4.61 1.7 3.4 1.2 2-.31 3.9-.05 4.6.62.96.91 1.1.83.76-.33-.32-.99-1.6-1.4-3.6-1.2-1.7.14-3.1-.19-3.1-.75 0-1.6 7-1.2 8.6.5 2 2 6 1.9 7.2-.14.76-1.4 1.4-1.5 3.9-.6 2.3.81 4.5.63 9.5-.76 3.6-1 7.4-2.3 8.6-2.9 1.1-.6 3.3-1 4.8-1l2.8.08-2.6 1.2c-2.3 1-2.4 1.4-1.2 2.5.79.74 1.1 1.6.74 2s-.9.09-1.2-.6c-.55-1.5-6.9-1.6-11-.17-2.1.74-2.9 1.5-2.5 2.6.39 1 .8 1.2 1.3.39 1.1-1.8 7.8-2.5 9.6-.98 1.5 1.2 1.4 1.4-.24 2.1-1.1.43.8.76 4.6.8 3.5.04 6.1-.25 5.7-.63-.38-.39-2.3-.6-4.2-.47-1.9.13-3.5-.23-3.5-.8 0-.91 6.8-1.6 9.5-1 1.4.32 5.6.11 8-.41 1.1-.24 2.4-.47 2.9-.51.48-.05.31-.76-.37-1.6-1.1-1.3-.69-1.5 2.6-1.6 2.7-.09 3.1-.26 1.4-.58-6.4-1.1-2.7-1.8 11-2 8.9-.14 15 .12 14 .63-.76.48-1 1.4-.66 2 .49.8 5.4 1.1 16 1 8.5-.08 16 .13 16 .45.94.94 5.8.7 6.8-.34 1.4-1.4 9.1-3.2 15-3.7 3.8-.29 5-.11 4 .55-.83.54-2.8.94-4.5.91-1.7-.03-6.5 1.1-11 2.5s-8.6 2.6-9.7 2.6-2.2.39-2.4.86c-.68 1.1-7.8 3-14 3.6-2.5.26-5.3.77-6.2 1.1-.96.37-1.7.18-1.7-.46 0-.78-2.6-.93-8.4-.5-11 .76-10 .75-15 .53-3.3-.18-3.4-.28-1.6-1.7 1.8-1.4 1.7-1.5-1.9-1.5-3 0-3.7.33-3.2 1.5.63 1.6-1.8 2-5 .83-1.6-.63-1.6-.73.17-1.4 1.3-.5.05-.78-3.5-.83-5.4-.07-6.7.74-1.8 1.1 2 .17 2.4.52 1.6 1.5-.58.7-1.6.96-2.2.57-1.1-.69-13-.92-49-.97-39-.06-50 .69-51 3.4-.6 1.6-7.3 1.9-7.3.33 0-.56-1-.8-2.2-.53-3.2.69-24 1.8-35 1.9-8.7.09-10 .32-9 1.6.95 1.2.83 1.3-.68.75-3.6-1.4-10-2-9.2-.89.55.59 3.7 1.4 7 1.7 3.3.38 6.4.89 6.8 1.2.42.25 9.2.48 20 .51 16 .04 18 .2 16 1.4-2.7 1.2-2.8 1.3-.69 1.4 1.3.03 2 .49 1.7 1.1-.34.57-.26.97.2.89.45-.08 2.2-.09 3.8-.01 2.3.1 2.7.35 1.5 1.1-1.1.73-.69.97 1.8.98 1.8.01 4-.64 4.8-1.4 1.3-1.3 1.1-1.5-1.3-2.1-5.8-1.3-8-2.5-3.3-1.8 2.5.36 6.4.69 8.8.73s4.2.45 4.2.91.42.58.94.26c.51-.32 1.4.16 1.9 1.1.56 1 1.2 1.2 1.6.61.81-1.3 4.8-.41 6.3 1.4.82 1 1.8 1.1 3.5.44 1.3-.52 2-.98 1.5-1-.48-.03-.31-.74.37-1.6 1-1.2.95-1.5-.38-1.5-.89 0-1.6.68-1.6 1.5 0 2-1.6 1.9-2.4-.08-.87-2.3-.79-2.4.89-1.8.82.31 1.5.11 1.5-.46 0-1.5 6.9-.91 7.5.67.29.75 1.2 1.1 2 .79.82-.32 1.5-.03 1.5.64 0 .84 1.8 1.2 5.8 1.1 5.5-.15 5.5-.13 1.2.5-3.2.46-4 .86-2.8 1.4 5.1 2.1-.18 2.6-26 2.4-24-.13-28-.34-27-1.6.33-.98.02-.88-.9.31-.78 1-1.7 1.4-2 .85-.33-.53-2.1-.85-3.8-.73-1.8.13-4.4-.05-5.8-.42l-2.5-.65 6-5.6-4.8.63c-2.6.35-6.7.21-9-.31-2.3-.52-8.7-1.5-14-2.1-5.5-.66-11-1.6-13-2-1.6-.44-2.5-.4-2.2.1.3.48-1.1.6-3.1.27-2.3-.37-3.4-.22-3.1.38.36.58-.58.8-2.3.55-1.6-.24-3-.73-3-1.1 0-.36-3-.39-6.8-.06-5 .44-7 .25-7.6-.73-.44-.73-2.5-1.3-4.5-1.4l-3.7-.04 3.2-1.4c3.7-1.6 4.2-2.5 1.2-2.5-1.1 0-2.9.9-4 2s-2.9 2-3.9 2-2.3.52-2.6 1.2c-.51.82.55 1 3.8.64 2.7-.31 5.1-.03 6.2.71 2.3 1.7 2.1 2.4-.58 2.3-5.5-.3-9.8.3-9.2 1.3.42.68-.76.8-3.4.38-2.8-.45-4.6-.22-5.8.72-1.1.93-1.4.97-.94.13.54-.91-.23-1.2-2.8-1.2-2 0-3.6.45-3.6 1s-1.1 1-2.4 1c-2.4 0-2.4.12-2.4 10-.04 10 .75 13 3.1 11 .61-.61 1.8-1.1 2.7-1 .95.04.68.42-.7.97-1.2.5-2.2 1.3-2.2 1.8 0 .5-.73.86-1.6.78s-1.8.65-1.9 1.6c-.16.96.18 1.8.75 1.8.66 0 .62.49-.1 1.4-.92 1.1-.52 1.5 2 2 1.7.35 4.9.63 7 .63 2.1 0 3.9.35 3.9.79 0 .86-.62.89-9.7.43zm11-.25c0-.53 2.1-.97 4.7-.97 2.6 0 4.4.28 4 .63-1.1 1.1-8.7 1.4-8.7.34zm18 .04c-1.4-.58 233-1.7 251-1.2 8.6.24 14 .26 19 .05l6-.25-6-.64c-4.7-.51-3.6-.65 5.2-.62 7.5.02 12-.37 12-1.2.67-.67 1.7-1.2 2.3-1.2.58 0 .39.43-.42.94-1.2.75-.95 1.1 1.2 1.9 3.1 1.2 23 1.8 24 .79 1-1 .32-33-.79-35-1.1-2.1-3.8-2-5.6.25-1 1.3-1.2 1.2-1.3-.5-.06-1.9-.15-1.9-1.4-.25-1.5 2-4.6 2.4-4.6.6 0-.66-.87-.38-2 .65-1.2 1.1-2 1.4-2 .6 0-.7-.52-.9-1.2-.47-1.9 1.2-41 2.5-45 1.6-2.6-.67-1.6-2.4 1.7-2.8 1.5-.16 3.6-1 4.6-1.9 1.4-1.3 1.9-1.3 2.2-.31.36 1.1.75 1.1 2.1-.06 1.4-1.2 1.7-1.1 1.7.4 0 1.7.1 1.7 2-.03 1.5-1.4 2-1.5 2-.4.02.97.48.81 1.5-.54.81-1.1 1.5-1.4 1.5-.69s.46.97 1 .62.8-.97.54-1.4.18-.77.98-.77 1.5.38 1.5.84c0 .45.9.83 2 .83s2-.45 2-1c0-1.2 2.2-.91 3.1.35.86 1.2 4.9-1.1 4.9-2.8 0-.75.67-1.6 1.5-1.9 3.6-1.4.92-2.1-6.8-2-8 .17-8 .14 3.2-1 6.3-.66 12-.96 12-.67.55.3-.57.77-2.5 1-2.2.32-3 .8-2.3 1.3 1.6 1 12 .01 14-1.3 1.4-1.4 4.9-1.3 6.4.2.93.93 1.2.81 1.2-.56 0-.97.42-1.5.93-1.2.51.31 1.2.12 1.6-.44s.12-1-.49-1-.83-.46-.49-1c.35-.56.63-3.5.63-6.5s.4-5.5.88-5.5c1.3 0 1.5 7.9.98 38l-.5 27-158 .18c-87 .1-158-.2-160-.67zm-27-4c.7-.43.99-1.2.65-1.8-.34-.55.39-1.3 1.6-1.6 1.9-.51 2-.77.74-1.6-1-.66-1.1-.99-.25-1 .69-.01 1.2-.64 1.2-1.4s.86-1.6 1.9-1.9c1.5-.38 1.8-.05 1.6 1.4-.39 2 .97 2.6 2 .87.35-.56 1.1-.74 1.6-.41.61.38.54 1.1-.19 2-.95 1.1-.76 1.4 1 1.4 1.2 0 1.9.45 1.6 1-.97 1.6.65 1.2 2.7-.65 2-1.8 2.4-.84.86 1.6-1.1 1.7-4.2 2-5.2.57-.41-.57-1.2-.52-2 .12-.73.58-3.5 1.3-6.2 1.6-2.7.29-4.3.17-3.6-.26zm284 .62c0-.21.9-.62 2-.91s2-.11 2 .38c0 .5-.9.91-2 .91s-2-.17-2-.38zm-258-3.2c0-.88.7-1.4 1.6-1.2.89.16 2.3-.72 3.1-2 1.4-2.1 1.4-2.2-.54-2.2-1.1 0-3.3.47-4.8 1-1.9.71-3 .71-3.8 0-.57-.57-2.4-1.1-4.1-1.1s-2.5-.3-1.8-.58 1.2-1.1 1.2-1.9.45-1.4 1-1.4 1 .56 1 1.2c.01.97.19.97.83-.03.89-1.4 4.2-.62 4.2 1 0 .58.64.49 1.5-.23.83-.68 1.5-.87 1.5-.42s.5.32 1.1-.3 1.8-.86 2.7-.53c1.2.45 1.4.08.97-1.6-.31-1.2-.15-2.2.34-2.2.5 0 .91.85.91 1.9s.71 2.2 1.6 2.5c2.2.86 2.4.79 2.4-.89 0-1.8 1.4-1.9 4.2-.4 1.1.61 2.3.72 2.7.25.75-1 3.2-1.1 4.8-.06 1.4.85 2.7-.81 1.9-2.2-.31-.51-.12-1.2.44-1.6s1-.2 1 .32c0 .53.67 1.2 1.5 1.5 2 .77 1.9-.82-.21-2.9-1.1-1.1-1.8-1.3-2.1-.57-.21.63-.8.88-1.3.57-1.4-.84-.07-2.4 2-2.4.96 0 2.7-.92 3.9-2 1.2-1.1 2.2-1.6 2.2-1 0 .58 2.2 1 5 1 3.3 0 5.2.47 5.5 1.3.29.74 1.9 1.3 3.6 1.3 1.7 0 3.4.61 3.9 1.4.7 1.1 1.1 1.1 2.5-.02 1.2-1 1.8-1.1 2.4-.21.52.84 1.9.59 4.9-.92 4-2 5.9-3.7 2.7-2.5-.83.32-1.5.14-1.5-.39 0-1.3 2.3-1.2 3.7.12.78.78 1.7.79 3.1.02 1.5-.81 2.3-.73 3.1.31 1.2 1.4 4.6 1.1 6.8-.69.86-.67 1.2-.58 1.2.29 0 .97 2.6 1.1 12 .75 6.4-.28 11-.14 11 .3-.45.45-2.9.96-5.4 1.1-3 .19-4.6.76-4.6 1.6 0 .79.74 1.1 1.8.85 1-.27 1.6-.08 1.3.42s-1.5.92-2.8.93c-1.2.01-5.4.86-9.4 1.9-6.9 1.8-9.4 1.4-5.5-.84 1.1-.64 1.3-1 .43-1-.73-.02-2 .69-2.9 1.6-1.1 1.1-2.6 1.4-5 1.1-2.3-.37-3.1-.19-2.7.56.47.75-.32.89-2.5.45-2-.4-3-.27-2.6.35.33.54-.43.99-1.7.99-1.3.01-3.3.29-4.6.62-1.6.44-2.2.18-2.2-1 0-1-.82-1.6-2.2-1.6-2.2.07-2.2.11-.25.93 2.3.97.52 1.3-1.9.4-.87-.34-1.3-1.1-.94-1.6.41-.66-.22-.83-1.8-.47-1.3.32-4.4.86-6.9 1.2-2.5.35-5.8.84-7.5 1.1-5.3.78-12 1.6-14 1.8-1.4.1-2.9.73-3.3 1.4-1 1.6-2.8 1.6-2.4.13.55-2.5-2.2-1.8-4.2 1.1-1.4 2-1.7 3-.9 3 1 0 1 .25.03 1.2-.79.79-1.5.88-2 .25-.95-1.3-3.5-1.8-2.7-.51.35.56.16 1-.42 1s-1.1-.69-1.1-1.5zm8.7-.48c.65-2.5 1.9-3.4 2.8-2 .68 1.1-1.2 4-2.6 4-.43 0-.55-.91-.26-2zm3.9 1.2c-.34-.54.31-2 1.4-3.3l2-2.4-.67 2.5c-.83 3.1-2 4.5-2.8 3.2zm3.4-.13c0-.52.45-1.2 1-1.6s1 .08 1 .94-.45 1.6-1 1.6-1-.42-1-.94zm-30-8.6c.68-.82 1.7-1.2 2.2-.87.6.37.46.95-.36 1.5-2.2 1.4-3.2 1-1.9-.6zm57 .49-2.5-.8 2.7-.1c1.5-.06 3 .35 3.3.9.7 1.1.05 1.1-3.5 0zm-51-3.5c-1.3-1.5-.41-3.9 1.1-2.9.52.32.68 1 .35 1.6-.35.57.63.74 2.4.42 1.7-.3 3.3-.04 3.7.61.43.69.16.94-.69.64-.76-.26-2.4-.12-3.6.32-1.5.54-2.6.34-3.3-.6zm68 .51c1.3 0 1.8-.35 1.2-.94-.52-.52-3-.67-5.4-.34-3.5.47-4 .77-2.5 1.4 1.1.42 2.6.58 3.3.34s2.3-.43 3.4-.43zm-26-1.4c.96-.73 1.8-1.7 1.8-2.1 0-.43-.79-.1-1.8.73-.96.84-2.4 1.8-3.2 2.1-1.3.49-1.3.56 0 .6.83.03 2.3-.55 3.2-1.3zm63-1.9c.45-.45 2.8-.67 5.2-.49l4.4.34-5.2.48c-2.9.26-4.8.11-4.4-.33zm-63-3.5c-.65-.21-1.6.22-2.1.98-1.6 2.5-.93 3.2 1.2 1.3 1.3-1.2 1.6-2 .88-2.3zm75 2.2c.97-.26 2.3-.24 3 .03.68.28-.12.49-1.8.47-1.6-.03-2.2-.25-1.2-.5zm66-1c.96-.25 2.5-.25 3.5 0s.18.46-1.8.46-2.7-.21-1.8-.46zm-17-2.1c-1.7-1.7-11-2.2-17-.89-2.9.6-3.6.53-2.5-.26 1.3-.95 1.3-1.2 0-2.1-1.1-.8-.7-.9 1.7-.43 3.5.69 6.3-.24 4.4-1.4-.61-.38 4.7-.66 12-.63s13 .4 13 .81-1.3.75-2.8.75c-1.6 0-3.1.28-3.5.62-1.2 1.2 2.2 3.4 5.2 3.4 1.7 0 3.1.47 3.1 1 0 1.6-12 .9-14-.83zm21-.95c2.3-.21 6.2-.21 8.5 0s.43.38-4.2.38-6.6-.17-4.2-.38zm14-.57c.46-.46 2.4-.69 4.2-.5 3.3.34 3.3.36-.84.85-2.3.27-3.8.12-3.4-.35zm-131-2.4c.97-.26 2.3-.24 3 .03.68.28-.12.49-1.8.47-1.6-.03-2.2-.25-1.2-.5zm117-1.3c0-.55.7-1 1.6-1s1.3.45.94 1-1 1-1.6 1-.94-.45-.94-1zm6.3-.69c.97-.26 2.3-.24 3 .03.68.28-.12.49-1.8.47-1.6-.03-2.2-.25-1.2-.5zm44-.21c.82-.59 2.2-1.1 3.1-1.1.86-.01 2.6-1.1 3.7-2.5 1.2-1.4 1.8-2.5 1.4-2.5-.43 0-1.6.9-2.5 2-2 2.4-4.9 2.7-4.1.45.48-1.2.08-1.4-2-.89-1.5.38-2.6.24-2.6-.34 0-1.2 2.4-1.8 9.9-2.8 5.2-.67 5.3-.62 4.7 1.4-.79 2.5.15 2.7 2.9.61 2.7-2 4.5-1.8 4.3.53-.17 2.2-1.3 2.7-2 .75-.32-.86-1.2-.5-2.8 1.1l-2.4 2.4 2.8-.48c1.5-.27 2.8-.1 2.8.38 0 .47-2 .86-4.4.86s-6.6.26-9.2.58c-3.6.43-4.5.31-3.4-.48zm-11-1.1c0-.55 1-1 2.2-1 1.2-.01 3.4-.29 4.8-.63 2.4-.59 2.4-.57.5.98-2.2 1.8-7.5 2.2-7.5.66zm-234-5.2c0-.56-1-.75-2.2-.41-1.2.33-3.5.61-5.1.62-1.5 0-2.6.35-2.3.77.7 1.1 9.6.22 9.6-.98zm-12-5.3c0-.82-.53-1.5-1.2-1.5s-1.2.68-1.2 1.5.53 1.5 1.2 1.5 1.2-.68 1.2-1.5zm17 .73c.85.85 2.2.59 5.5-1 2.6-1.3 6.2-2.2 9-2.2 2.6 0 4.6-.46 4.6-1.1 0-.68-1.2-.85-3.2-.46l-3.2.62 2.5-1.5c2.5-1.5 2.5-1.5.25-1.5-1.2-.02-2.2.41-2.2.96s-.93 1-2.1 1-1.8-.45-1.4-1-.13-1-1-1c-1.1 0-1.5.54-1.1 1.5.32.82.13 1.5-.42 1.5s-1.3-.71-1.6-1.6-.88-1.2-1.2-.73c-.34.48-1.7 1.4-3.1 2.1-2.5 1.2-2.4 1.2.79.89 1.8-.19 3.5-.03 3.7.36.59.97-5.1 2-7 1.3-2-.78-4.8.35-4 1.6.4.65 1.2.67 2.4.05 1.2-.64 2.2-.58 2.9.18zm43-.17c-1.2-.75-1.2-1.2-.12-2.5 1.1-1.4 1-1.6-.81-1.6-1.6 0-2.1.56-1.9 2.5.15 1.8.79 2.5 2.2 2.5 1.6-.01 1.7-.2.59-.92zm261-2.7c-.85-.85-3.6 1-3.6 2.4 0 1.3.31 1.3 2-.27 1.1-.99 1.8-2 1.6-2.2zm-248 1.4c3-1.4 3.6-2.8 1.2-2.8-.83 0-1.5.45-1.5 1s-.93 1-2.1 1-1.8-.45-1.4-1c.35-.56-.45-1-1.8-1-1.4 0-2.7.68-3 1.5-.34.89-.01 1.5.81 1.5.76 0 1.6-.56 1.8-1.2.32-.85.7-.69 1.2.5.86 2.1 1.3 2.1 4.8.5zm-65-1.2c-.43-1.1.29-1.3 3.5-.87 2.7.36 4.1.16 4.1-.59 0-.62-.93-1.1-2.1-1.1s-1.8-.45-1.4-1 .14-1-.44-1-1.1.45-1.1 1-.84 1-1.9 1c-2.5 0-4.7 2.6-2.9 3.3 2.2.9 2.7.72 2.2-.73zm320-.15c0-.86-.45-1.3-1-.94s-1 1-1 1.6.45.94 1 .94 1-.7 1-1.6zm-239-1.2c.22-.69-.33-1.2-1.2-1.2-.9 0-1.4.42-1.1.93.31.51-.45 1.1-1.7 1.4-1.6.34-1.4.43.66.32 1.6-.09 3.1-.72 3.3-1.4zm13 .33c.97-1.2.82-1.3-.87-.88-1.1.29-2.1.93-2.1 1.4 0 1.4 1.6 1 2.9-.54zm-54-.5c-2.4-.66-2.4-.72-.5-1.8 2-1.1 1.9-1.2-.25-1.2-1.2-.02-2.2.42-2.2.97s-.67 1-1.5 1-1.5-.89-1.5-2c0-1.1-.48-2-1.1-2s-.78.45-.44 1-.2 1-1.2 1c-4 .05 2.8 3.6 7 3.6 3.2.06 3.6-.08 1.7-.59zm101-2.4c1-1-5.9-.82-7.6.23-.95.6-.05.83 2.7.69 2.3-.12 4.4-.53 4.8-.92zm16 .3c-.34-.55-1-1-1.6-1s-.94.45-.94 1 .7 1 1.6 1 1.3-.45.94-1zm30-.03c-1-.61-2.5-.62-4-.03-2 .82-1.8.94 1.7.97 3 .02 3.6-.2 2.3-.94zm11 .03c.34-.55-.28-1-1.4-1s-2.3.45-2.6 1 .28 1 1.4 1 2.3-.45 2.6-1zm-92-2c0-.55-.87-1-1.9-1s-2.2.45-2.6 1c-.35.57.49 1 1.9 1 1.4 0 2.6-.45 2.6-1zm156 0c0-.55-1-.97-2.2-.93-2.2.07-2.2.11-.25.93 1.1.47 2.1.89 2.2.93s.25-.38.25-.93zm-142-.98c0-.54 1.3-.71 3-.37 1.9.38 3 .19 3-.53 0-.61.48-1.1 1.1-1.1s.81.41.5.91c-.69 1.1 3.5.17 5.2-1.2.68-.53 1-1.4.71-1.8-.29-.48.66-1.2 2.1-1.5 1.7-.43 2.9-.2 3.5.66.66 1.1 1.1 1.1 2.4.05.97-.81 2.8-1 4.8-.63 2.2.44 2.8.34 1.9-.3-.76-.52-1.1-1.4-.69-2.1.42-.68-.11-1.1-1.4-1.1-1.1 0-2.1-.48-2.1-1.1 0-.68-2.6-.98-7.1-.83-8.8.28-12 .86-11 2 .3.49-.84.89-2.5.89-2 0-3.3.6-3.7 1.8-.35.96-1.1 2.1-1.7 2.5-2.1 1.4 1.3.78 5.1-.98 2.8-1.3 3.8-1.4 4.1-.5.24.69 1.6 1.2 3 1.2 5.1 0 1.1 1.4-4.5 1.6-3.2.09-6.1.23-6.5.31-1.1.21-.9 3.1.25 3.1.55 0 1-.44 1-.98zm25-.02c1.3-.86 1.3-.98 0-1-.91-.03-.51-.62 1-1.5 1.8-1 2-1.4.83-1.5-2.7-.06-4.9 1.1-4.2 2.2.35.55.01 1.4-.75 1.9-1.1.72-1.1.87.12.87.82 0 2.2-.44 3-.97zm7 0c-.82-.53-2.2-.94-3-.91-.99.03-.82.34.5.91 2.8 1.2 4.3 1.2 2.5 0zm82-.1c-.39-.63-1.9-.85-3.6-.53-1.6.32-2.9.15-2.9-.39s-.79-.94-1.8-.9c-1.1.05-1.2.28-.49.58.69.28 1 .92.69 1.4-.31.5 1.5.91 4 .91 3.1 0 4.4-.36 3.9-1.1zm17 .1c1.7-.72 1.5-.87-1.2-.93-1.8-.04-3.5.38-3.8.93-.74 1.2 2.2 1.2 5 0zm-184-1.8c.35-1.1.01-1.1-1.7-.2-1.2.63-2.6.83-3.3.44-.71-.44-.85-.25-.38.51.96 1.6 4.8 1 5.4-.75zm28-.24c1.2-.68 1.1-.85-.5-.85-1.1 0-2.9.71-4 1.6-1.9 1.5-1.9 1.6.5.84 1.4-.4 3.2-1.1 4-1.6zm-20 .18c0-.49-.9-.67-2-.38s-2 .7-2 .91.9.38 2 .38 2-.41 2-.91zm7.5-.09c.34-.55-.06-1-.88-1-.83 0-1.8.45-2.1 1s.06 1 .88 1c.83 0 1.8-.45 2.1-1zm20 0c1.3-.86 1.3-.97 0-.97-.83 0-2.2.44-3 .97-1.3.86-1.3.97 0 .97.83 0 2.2-.44 3-.97zm101 .12c0-.61 1.3-1.1 2.8-1.1s3.3-.5 3.9-1.1c1.4-1.4 9.1-2 9.8-.81.31.51-1.2.98-3.2 1l-3.8.13 3.5.74c3.3.69 3.2.74-1.6.87-2.8.07-6.5.41-8.3.75-2 .41-3.1.23-3.1-.5zm70-2.2c0-.5.9-.91 2-.91s2 .17 2 .38-.9.62-2 .91-2 .11-2-.38zm41-2.1c-.27-.45 1.3-.81 3.6-.81s4.1.18 4.1.39c0 .8-7.1 1.2-7.6.42zm-186-2c-.64-.41.28-.75 2-.75 1.8-.01 3.4.38 3.7.87.65 1-4.1.95-5.8-.12zm174-.3c1.1-1.4.94-1.4-1.5-.46-2 .73-3.1.74-3.8.03-.72-.72-.28-1.1 1.4-1.2 1.7-.08 1.9-.25.7-.57-2.6-.68-2.1-2.1 1.4-3.9 1.7-.88 2.8-1.1 2.4-.52-.42.67.39 1.1 2.1 1.2 1.6.04 3.7.46 4.8.93 1.9.82 1.9.86-.25.93-1.2.04-2.1.54-2 1.1s-1.3 1.7-3.1 2.5c-3 1.3-3.2 1.3-2.1-.08zm-117-.19c1.5-.23 4-.23 5.5 0s.28.42-2.8.42-4.3-.19-2.8-.42zm-142-.97c.97-.26 2.3-.24 3 .03.68.28-.12.49-1.8.47-1.6-.03-2.2-.25-1.2-.5zm232-2.5c-1.8-1.8-1.5-2.8.8-2.8 2.2 0 2.6-2 .8-3.8-.92-.92-.78-1.5.66-2.6 1.2-.89 1.7-2.1 1.3-3.5-.31-1.2-.15-2.2.34-2.2.5 0 .91 1.1.91 2.4 0 2.8 2 3.5 6.5 2.4 8.6-2.1 14-2.9 20-2.8 8.2.13 3.8 1.7-5.1 1.8-3.5.06-7.6.76-9.1 1.6-1.6.8-3.1 1.2-3.4.88s-1.8-.25-3.4.15c-2.5.67-2.6.81-.8 1.5 1.1.42 2.5.36 3.1-.14.72-.57 1.3-.38 1.7.53.3.79 2 1.8 3.8 2.2 3 .65 3.1.83 1.5 2-1 .74-1.5 1.8-1 2.5.47.77.23 1-.65.71-.76-.27-1.3-1.2-1.3-2 .08-1-.51-1.4-1.8-1-1 .28-1.9-.03-1.9-.69 0-.7-1.1-1-2.8-.87-1.7.2-2.6.84-2.4 1.7.6 2.8-5.2 4.2-7.6 1.9zm-196-.52c1.5-.23 3.8-.22 5 .02 1.2.23-.01.42-2.8.41-2.8 0-3.8-.2-2.2-.43zm13-1.4c1.2-2 3.7-2.5 3.7-.78 0 .65 1.3.79 3.5.38 3-.56 3.4-.42 2.9 1-.5 1.3-1.8 1.6-5.9 1.4-4.8-.2-5.2-.36-4.1-2zm70 1.2c-.73-1.2.25-1.2 3 0 1.9.83 1.9.86-.19.93-1.2.04-2.5-.38-2.8-.93zm164-.87c0-.55.99-1.3 2.2-1.7 3.3-1.1 4.8-3 4.8-6.2 0-2.6-.34-2.9-2.9-2.8-2.6.1-2.8.36-2 2.4.85 2.2-.39 3.2-1.6 1.2-.34-.55-1.7-1-3-1-1.3 0-3-.6-3.7-1.3s-2-1.2-2.8-.92c-1.2.31-1.2.2-.18-.52.94-.66.11-1.4-3-2.6-2.4-.91-4.9-1.7-5.6-1.7-1.6 0-1.6-2 .03-2 .69-.02.41-.52-.62-1.1-1.4-.79-1.5-1.3-.64-1.8 2.1-1.3 5.1.04 4.5 2-.45 1.4.48 2.3 4.2 4 7.5 3.4 9 3.5 9.5.09.46-3.1.96-2.9-9-3.3-4.1-.14-4.2-.22-2.6-2 .92-1 2-1.7 2.4-1.4 1.5.92 3.5-3.2 3.6-7.1.05-3.4-.36-4.4-2.2-5.2-1.8-.8-2.4-.68-2.8.56-.33.87-.48 1.7-.33 1.8.15.11 1.2.71 2.3 1.3 1.7.98 1.8 1.1.25 1.2-2 .03-2.4 1.6-.5 2.4.75.3.55.53-.5.58-.96.04-1.8-.6-1.8-1.4 0-1-1-1.5-3.2-1.5-3.1 0-3.1-.05-1.4-2 1.6-1.8 1.6-2.1.23-3.5-.85-.85-2.2-1.5-3.1-1.5-2.2 0-5.2 3.2-4.8 5.3.24 1.2-.12 1.6-1.2 1.1-.86-.33-2.4-.27-3.3.15-.96.41-3 .75-4.5.74s-2.8.41-2.8.92c0 .52.9.65 2 .3 1.4-.45 2-.18 2 .9 0 .96.57 1.3 1.5.96.82-.31 1.5-.12 1.5.42 0 .55-2.1 1.4-4.8 1.9-3.7.69-5.4.55-7.6-.64-2.6-1.4-2.9-1.4-3.8.22-1 1.8-6.3 2.5-7.3.96-.58-.93-5.3-.85-6.3.12-1.3 1.3-6.3.71-6.3-.71 0-2.4-7.8-.95-11 2.1-.73.72-1.6 1.3-2 1.3-1.2-.01-3.1-5.1-2.5-6.6.64-1.7 5.3-2 5.3-.32 0 .61-.66.85-1.5.54-1.7-.65-3 .91-1.6 1.8 1.1.69 4.8-1.2 6.9-3.5.74-.82 1.1-.94.72-.25-.93 1.8-.06 1.6 4.1-1.3 2-1.4 4-2.3 4.3-2s.13.88-.41 1.3c-1.2.9-1.5 4.2-.36 4.2.49 0 .89-.61.89-1.4 0-.93 1.3-1.4 4-1.4 2.2 0 4 .41 4 .9 0 .53.72.53 1.8.01.96-.48 4.6-.69 8-.45 4.3.3 6.2.08 6.2-.7 0-.63-.45-.87-1-.53-1 .63-1.4-.62-1-3.8.1-.96-.3-1.8-.89-1.8-.58 0-1.1.4-1.1.88 0 .49-.9 1.1-2 1.4s-2 .07-2-.49-.64-.77-1.4-.47c-.78.3-2-.1-2.6-.89-1.4-1.6-4-1.9-4-.43 0 .61-.77.53-1.9-.2-1.1-.67-1.7-1.6-1.4-2 .27-.44-.32-.65-1.3-.45-3.5.68-5.4 1.9-4.9 3.2.32.84-.18 1.1-1.5.73-1.5-.4-1.7-.73-.67-1.4 1.1-.68 1-.85-.18-.86-.83-.01-2.1.93-2.8 2.1-.93 1.5-.96 1.9-.11 1.4.75-.47 1-.25.76.58-.49 1.5-3 2.6-2.7 1.3.43-2.4-.22-5.3-1.2-5.3-.61 0-.86.64-.56 1.4s-.1 1.7-.89 2c-.79.3-1.4.15-1.4-.33s-1-.61-2.2-.29c-2 .52-2.1.41-.81-1.2 1.2-1.5 1.2-1.9.05-2.6-.76-.47-2.1-.48-2.9-.02-.85.45-4 .84-7 .86-8.2.04-8.8.17-6.5 1.2 1.5.69 1.1.85-2 .68-2.6-.14-4.4.32-5.2 1.3-1.1 1.3-1.2 1.2-.57-.5.64-1.8.54-1.9-1.2-.5-1.3 1.1-2 1.2-2.2.31-.22-.66-1.1-.92-2-.58-1.1.4-1.4.22-.88-.56 1.4-2.2-1.8-1.2-4.8 1.6-1.7 1.5-2.3 1.8-1.3.67.95-1.1 1.7-2.3 1.7-2.6 0-.81-5.4-.26-7 .7-.83.52-1.8.15-2.6-1-1.3-1.8-1.4-1.8-3.5.1-2.2 1.9-2.2 1.9-1.5-.02.7-1.9.67-1.9-1.3-.1-2.5 2.2-2.6 3-.43 2.1 1.2-.45 1.4-.19 1 .89-.6 1.6 1 1.9 8.2 1.7 1.8-.06 3.1.26 2.8.7-.28.45 1.6.5 4.2.11s5.3-.49 6-.23c.7.27 1.9-.03 2.7-.66 1.1-.88 1.5-.85 1.8.14.35 1 .76 1 2.1-.08 1.3-1 1.7-1.1 1.7-.13s.41.91 1.7-.13c1.5-1.2 1.6-1.2 1 .31-.46 1.2-.11 1.6 1.3 1.5 1.1-.08 2-.61 2-1.2s.49-.25 1 .71 1.7 1.8 2.6 1.8c1.4 0 1.3.3-.3 2.1-1.9 2.1-1.9 2.1.35.76 1.2-.76 2.2-1.7 2.2-2.1s1.4-.76 3-.76c3.9 0 3.9 1.6.04 2.3-2.2.45-3.5 1.6-5 4.7l-2 4.1 2.5-.63c1.5-.37 2.3-.25 2 .3-.32.51.09 1.2.92 1.5.82.32 1.5.14 1.5-.39 0-1.6 2.2-1.1 3.6.78 1.1 1.5 1.6 1.6 3.4.5 2.6-1.6 3.1-1.6 2.8-.04-.16.78 2 1.5 6 2.1 3.5.49 6 1.3 5.7 1.8-.32.52-1.4.69-2.4.37-3.4-1.1-6.4-1.6-14-2.2-3.8-.33-7.3-1.1-7.8-1.7-.52-.76-1-.64-1.7.37-.81 1.3-1 1.2-1.6-.23-.51-1.3-1.1-1.5-2.6-.69-1.3.7-1.9.69-1.9-.01 0-.57-1.4-1-3.1-1-1.8 0-2.8.42-2.4 1 .34.55-.31 1-1.4 1s-2.1-.45-2.1-1-1.1-1-2.5-1h-2.5l3.3-2.9c1.9-1.7 3.4-2.5 3.7-1.8.22.62-.12 1.3-.75 1.5s-1.2.85-1.2 1.4c0 .65.52.6 1.4-.14.97-.8 1.6-.84 2.1-.12 1.1 1.8 4.5-.75 4.5-3.3 0-2.6-4.5-5.7-8.2-5.7-1.3 0-5.1 1-8.4 2.3-4.4 1.7-6 2.9-6.3 4.4-.24 1.7-1 2.1-3.8 2.1-3 0-3.4-.33-3.4-2.4 0-3.7-4.3-5.4-12-4.5-7.2.87-10 2.5-10 5.2 0 1.6-.69 2-4.1 2-2.4 0-3.8-.4-3.4-1 .34-.55.09-1-.55-1s-.91-.65-.61-1.4c1.4-3.6-12-6.2-19-3.6-1.4.52-2.8.65-3.1.29s-.33.19.07 1.2c.5 1.3.36 1.7-.45 1.2-.86-.54-.91-.06-.19 1.8l.97 2.6-6.2-.14c-3.4-.07-5.2-.33-4-.57 3.8-.72 2.6-4.3-2.2-7-2.1-1.2-8 .25-7.1 1.7.28.46.06 1.1-.5 1.5-2 1.2-1 2.4 1.8 2.3 3.4-.1 5.1.82 5.1 2.7 0 .92-.83 1.2-2.5.92-1.4-.25-2.5-.01-2.5.53 0 .53 1.7 1.2 3.8 1.6s4.6 1 5.5 1.6c.99.54 2.2.74 2.6.45.46-.28 1.4.13 2 .92 1 1.2.63 1.4-2.5.83-2.7-.43-3.5-.28-3 .55.49.79-.33 1.1-2.6 1.1-1.8-.04-2.8-.3-2.1-.58 2.8-1.1.99-2.4-3.5-2.5-4.2-.1-4.4-.2-1.8-.88 2.4-.61 1.8-.79-3.2-.88-3.4-.07-6.3-.53-6.5-1-.48-1.3-15-1.7-30-.7-9 .58-13 .51-12-.21.55-.58 3.2-1.2 6-1.4 4.1-.31 3.7-.41-2.3-.56-4.1-.1-8.1.33-9.1.97-1.5.93-2.2.75-4-1-1.6-1.6-3.4-2.2-6.9-2.2-3.3-.01-4.3-.3-3.3-.92 1.4-.9 3.7-.8 11 .48 2.5.43 3.8.26 3.8-.52 0-2.4-2.8-3.8-9.1-4.6l-6.4-.84 10-.71c15-1 35-.82 37 .37.78.64 1.2.66 1.2.05 0-.53 2.7-1 6.1-1.2 4-.12 5.9.17 5.4.85-.35.57-.16 1 .42 1s1.1-.45 1.1-1 .48-1 1.1-1 .77.56.42 1.2c-.34.69.08.38.94-.68 1.7-2.1 3.4-1.5 2 .7-.49.73-.21.61.61-.27s2.6-1.6 4-1.7c7.2-.3 15-1.2 16-1.7.6-.37 1.1-.15 1.1.5 0 .88.38.87 1.5-.06 1.8-1.5 2-4 .33-4-.65 0-2 .74-3 1.6-1 .92-1.8 1.2-1.8.63 0-1-7.6-.97-8.7.08-.31.31-1.8-.08-3.3-.86-2.3-1.2-3-1.2-4.6-.04-1.3.97-2.2 1.1-3.1.33-.85-.7-1.6-.71-2.5-.01-.69.56-2.6.8-4.2.54s-3.7-.46-4.5-.45-5.2.11-9.8.21-8.6-.11-8.9-.45c-1-1-2.5-.72-1.8.37.35.56-.47 1-1.9 1-2.1 0-2.5-.54-2.8-3.2-.3-3.2-.44-3.3-5.6-3.6l-5.2-.3v3.5c0 3.6-1.3 5.5-2.5 3.6-.36-.59-1.6-.93-2.8-.77-1.7.23-2.2-.26-2.4-2.2-.13-1.4.02-1.9.33-1.2.66 1.5 3.4 1.7 3.4.25 0-.55-.45-1-1-1-1.6 0-1.2-4.7.5-5.4.82-.32 1.5-.19 1.5.29 0 1.4 7.3-.65 8.6-2.4 1.4-2 2.4-2 2.4-.05 0 1.7 3.5 2.1 4.5.5.34-.55 2.6-1 5-1 4.8 0 4.2 1.1 6.2-12 .35-2.3.98-4.2 1.4-4.2 1.8 0 2.8 3.1 3.5 11 .52 6 1 8 1.8 7.2.68-.68 6.2-1.1 15-1.1 9.2 0 14-.38 15-1.2.93-.93 1.2-.93 1.2 0 0 1.5 4.6 1.6 5.5.13 1.1-1.8 4.9-2.8 5.7-1.6.53.79 1 .69 1.7-.35.82-1.3 1-1.3 1.6.1.33.86.52 2 .43 2.5-.39 2.1.16 2.4 1.5 1.1 1-1 3.6-1.5 8.4-1.5 3.8 0 7.4-.26 7.9-.58s1.2-2.8 1.6-5.6c.37-2.8.93-5.7 1.2-6.5.36-.92-.01-1.5-.97-1.5-.86 0-1.9-.53-2.3-1.2-.48-.78-.18-.96.88-.56.88.34 1.8.11 2-.51.2-.61 1.1-.83 2-.47 1.4.54 1.5 1 .52 3.2-.88 1.9-.88 2.8-.01 3.7 1.5 1.5 1.9.99 2.4-2.7.55-3.8 3.5-10 4.6-10 1.1 0 2.6-5 2.9-9.9.24-3.8 3.2-.63 3.2 3.4 0 4.3.88 6.5 2.6 6.5 1.7 0 4.4 6.2 4.4 10 0 2.5.25 2.8 1.2 1.8.69-.69 1.2-2.1 1.2-3.2s.34-2 .75-2h1.8c.55 0 1 1.3 1 2.9s.27 4.8.6 7.2c.59 4.3.71 4.4 4.5 4.7 2.2.16 3.9-.18 3.9-.75 0-.56.5-1 1.1-1s.84.68.52 1.5c-.45 1.2-.05 1.4 1.8.92 1.3-.33 3.3-.1 4.5.52 1.2.65 2.1.72 2.1.17 0-.53-.56-1.2-1.2-1.5s-.31-.54.83-.58c1.2-.04 2.4.26 2.8.67.41.41 3 .79 5.8.85 4.7.09 5.1-.11 6.1-2.8 1.5-3.9 4-3.2 4.7 1.2l.57 3.5 1.2-2.8c.64-1.5 1.2-3.3 1.2-3.8 0-1.8 2.5-.26 2.8 1.7.42 2.6 2.4 6.4 3.3 6.4.43 0 1.4-1.2 2.1-2.7l1.3-2.7 11 .21c10 .19 12 .47 13 2.2 1.5 1.7 1.9 1.8 3 .5.94-1.1 1.7-1.2 3.2-.42 2.6 1.4 3.9.12 4.8-4.8l.69-3.8.76 4.7c.93 5.6 3.8 7.2 5.5 3 1.8-4.6 2.2-9.3.94-11-1.1-1.5-1-1.5.6.03 1 .92 1.9 2.5 2 3.5.09 1 .79 3.1 1.6 4.6 1 2.1 2 2.7 3.9 2.5 2.6-.31 2.8-.75 3.4-10 .11-1.8.77-3.8 1.4-4.4.69-.69 1.2-2.8 1.2-4.6 0-5.5 1.7-2.8 2.4 4 .39 3.4.87 7.4 1.1 8.8.18 1.4.37 3.6.42 5 .07 2.4.37 2.5 4.6 2.2 4.4-.35 4.5-.45 4.5-3.8 0-2.4.46-3.4 1.5-3.4s1.5-1 1.5-3.4c0-1.9.49-3.8 1.1-4.1.61-.37.88-1.8.62-3.2s-.05-4.1.47-6c.78-2.8 1.2-3.2 2.4-2.3.78.66 1.4 2 1.4 3.1 0 1 .68 1.9 1.5 1.9 1.2 0 1.5-1.8 1.5-10 0-5.8.37-9.7.84-8.9.46.72.91 20 1 43l.16 41-2.3-.09c-1.2-.06-3.3.25-4.5.67-1.3.46-2.2.36-2.2-.24zm-182-1c.31-.51 0-1.2-.69-1.4-.69-.27.65-.54 3-.58s4.2-.53 4.2-1.1-.75-1-1.7-1c-.91 0-1.4-.26-1.1-.57.31-.32 2.2-.13 4.2.41 2 .55 3.8.63 4.1.19.28-.45-1.1-1.1-3-1.5s-3.5-1.1-3.5-1.6c0-.52-.79-.99-1.8-1-1.2-.05-1.3-.25-.4-.62.74-.29 2.3-.06 3.5.52s3.8 1.2 5.8 1.4c3.6.34 3.7.25 4.3-3.6.44-2.7.24-4.2-.65-4.8-.94-.6-.79-.82.55-.83 1.6-.02 1.8.66 1.5 4.7-.3 4.3-.11 4.8 1.9 5.1 1.9.28 2.1.6 1.1 2.7-.98 2.2-1.6 2.4-6.2 2-2.8-.22-7 .24-9.4 1-5 1.7-6.6 1.8-5.8.52zm-86-4.1c0-.55-.42-1-.94-1s-1.2.45-1.6 1 .08 1 .94 1 1.6-.45 1.6-1zm48 0-3.5-.74 3.2-.13c1.8-.07 3.5.32 3.8.87s.48.94.31.87-1.9-.46-3.8-.87zm-98-2c-.34-.55-1.3-1-2.1-1s-1.4.45-1.4 1 .93 1 2.1 1 1.8-.45 1.4-1zm86 .28c1.5-.23 3.8-.22 5 .02 1.2.23-.01.42-2.8.41-2.8 0-3.8-.2-2.2-.43zm-105-1.2c0-.52-.45-1.2-1-1.6s-1 .08-1 .94.45 1.6 1 1.6 1-.42 1-.94zm11 .52c0-.23.27-1.1.61-2 .45-1.2-.04-1.6-2-1.6-1.9 0-2.6.51-2.6 2 0 1.3.67 2 2 2 1.1 0 2-.19 2-.42zm270-.35c-1.2-.2-2.2-.79-2.2-1.3 0-1.1 1.7-1.1 4.4-.03 2.4.93.89 1.8-2.2 1.3zm-178-1.2-7.5-.64 9.8-.18c6-.11 9.8.21 9.8.82 0 .55-1 .92-2.2.82s-5.6-.47-9.8-.82zm-84-.94c0-1.2-2-2.4-2.7-1.7-.71.72.55 2.7 1.7 2.7.52 0 .94-.42.94-.94zm-12-6.6c3.8-4.9 2.8-5.2-1.3-.36-1.8 2.2-2.9 3.9-2.4 3.9.52 0 2.2-1.6 3.7-3.6zm67 2.5c-3.7-1.1-5.3-2.8-2.3-2.6 1.1.09 2 .56 2 1.1s1.1.7 2.4.44c1.7-.33 2.3-.08 1.9.89-.28.74-.58 1.3-.66 1.2s-1.6-.51-3.3-1zm219-2.2c0-1.1 2-1.5 8.6-1.9 4.7-.26 8.8-.2 9.1.13s1.1.6 1.9.6 1.6.49 1.8 1.1c.26.77-1.6.82-6.4.18-6.6-.89-10-.72-13 .64-1 .44-1.6.18-1.6-.74zm-47-1.5c1.7-1.7-.42-1.5-2.8.25-1.7 1.3-1.7 1.4-.18 1.2.97-.14 2.3-.79 3-1.4zm99-1.9c.09-2.1.27-5.4.4-7.4.23-3.5.09-3.7-3.6-4.2-2.1-.33-4.1-1.2-4.4-1.9s-.41.09-.18 1.7c.29 2.1-.3 3.8-2 5.8-3.1 3.7-3 4.5.26 3.9 2-.39 2.5-.17 2.1.94-.41 1.1.18 1.4 2.3 1.2 2.6-.18 3.4.56 3 2.8-.07.41.33.75.88.75s1.1-1.7 1.2-3.8zm-228 1.8c0-1.2-1.1-1.2-3 0-1.2.78-1.1.97.75.98 1.2.01 2.2-.43 2.2-.98zm108-.01c0-.55.93-.99 2.1-.99 1.1 0 2.9-.47 4-1 1.5-.81 1.9-.7 1.9.5 0 .85-.34 1.6-.75 1.6-4.9.74-7.2.7-7.2-.12zm50 .01-3-.76 3.5-.11c1.9-.05 4.2.34 5 .87 1.2.8 1.2.95-.5.87-1.1-.06-3.4-.45-5-.87zm-165-2.6c.22-1.5-.36-2.3-2-2.7-4.1-1.1-7.8-.73-7.8.8 0 .79-.45 1.7-1 2.1-1.6.97-5-.48-5-2.1 0-1.1-1-1.4-3.9-1.2-2.8.16-3.7.61-3.4 1.6.28.73.01 1.9-.6 2.7-.91 1.1 1 1.3 11 1.2 12-.09 12-.19 13-2.2zm19 .12c0-3.9-12-4.6-13-.83-.57 1.7 3.6 2.7 5.3 1.3.81-.67 1.8-.94 2.1-.58.35.35.01.65-.77.66-1.2.01-1.2.19.08 1 2.5 1.7 6.5.75 6.5-1.5zm-64 .5c0-.55-.97-1-2.2-1-1.2 0-1.8-.34-1.4-.75.42-.41 1.7-.75 2.8-.75s2.2-.5 2.4-1.1c.26-.75-1.1-.99-4.3-.73-3.8.32-4.6.12-4.1-1.1.77-2-.24-1.9-2.6.17-1.4 1.3-1.7 1.3-1.3.24.42-1.1-.3-1.5-2.9-1.5-1.9-.03-3.2.35-2.9.86.32.51-.32.44-1.4-.15-1.1-.58-2.3-.78-2.6-.43s-.63.13-.63-.47c0-1.7 1.8-2.4 2.3-.99.27.73 1 .11 1.8-1.5 1.2-2.5 2.1-3.2 3.4-2.5.53.29 3.5-3.4 3.5-4.4.02-.38-1.1-.48-2.5-.23-1.9.34-2.5.02-2.5-1.3 0-1-.33-1.3-.75-.77-.89 1.2-5.2 1.5-5.2.33 0-.46.5-.83 1.1-.83s.84-.68.53-1.5c-.63-1.6.88-2.1 1.8-.55.32.53 2.8.69 5.6.36 4.2-.49 5-.33 5 1 0 .9.5 1.6 1.1 1.6s.88-.88.59-2c-.39-1.5-.03-2 1.4-2 1.1 0 1.9.69 1.9 1.6 0 .86.41 1.3.92.99.5-.31 2.1-.12 3.5.42 1.9.72 2.6.66 2.6-.24.01-.79.36-.69.98.27.65 1 .97 1.1.98.25.01-.69.47-1.2 1-1.2 1.8 0 1 2.8-1.1 4.4-1.9 1.3-2.3 1.3-3.7-.08-1-1-1.7-1.2-2-.43-.21.63-.87.84-1.5.47-.69-.43-.84-.05-.42 1 .39 1 .26 1.5-.33 1.1-.55-.33-.99-1.3-.99-2.1 0-1.8-3.2-1.4-3.6.4-.14.71-.03.82.25.25.28-.56.86-1 1.3-1 1.3 0 3.3 5.7 2.6 7.2-.37.72.04.44.91-.63.91-1.1 1.6-1.4 1.6-.68 0 .69.69 2 1.5 2.8.88.88 1.3 2.3.94 3.4-.43 1.3-.12 1.9 1 1.9 1.5 0 1.5.17.14 1.5-1.7 1.7-4.6 2-4.6.5zm248-5.7c1.5-.23 4-.23 5.5 0s.27.42-2.8.42-4.3-.19-2.8-.42zm-114-5.7 2.4-2-.66 2.2c-.68 2.2-.32 2.3 7.1 1.2.87-.13.87-.63.03-2-1.5-2.4-3.6-3.1-5.3-1.7-1 .86-1.4.83-1.4-.11 0-.85-.4-.93-1.2-.27-.69.53-3.9.86-7.1.72-4.2-.18-6 .13-6.4 1.1-.3.77-1 1.1-1.6.72-1.6-.96-5.7-1-5.7-.09 0 .43-.68.78-1.5.78s-1.5.43-1.5.95c0 1.3 13 .17 15-1.3 1.1-.91 1.3-.86.63.21-.63 1-.32 1.2 1.3.68 2.4-.75 2.8.34.88 2.5-1.1 1.2-.96 1.2.75 0 1.1-.77 3.1-2.3 4.4-3.4zm-182-.19c-.29-1.4-.54-1.1-.97.97-.37 1.8-.23 2.5.4 1.8.53-.53.79-1.8.57-2.8zm156 2c.91-.26 1.9-1.2 2.2-2 .5-1.3-.32-1.4-5.6-.96-3.4.31-6.9 1.2-7.6 2-1.2 1.2-.73 1.4 4 1.4 3 0 6.2-.22 7.1-.49zm-139-1.4c0-.55-.67-1-1.5-1s-1.5.45-1.5 1 .67 1 1.5 1 1.5-.45 1.5-1zm274-.09c.46-.73 1-.75 1.7-.08.56.56 1.6.77 2.4.47 1.2-.47 1.2-.78-.07-2.2-2.3-2.5-9.6-2-11 .73-1.4 2.1-1.3 2.2 2.6 2.2 2.2 0 4.4-.49 4.7-1.1zm-190-2c0-.58-.53-.73-1.2-.33-.78.48-.96.18-.54-.91.34-.9.24-1.9-.22-2.2-.46-.28-1.1.36-1.4 1.4-.46 1.8.39 2.7 2.5 3 .41.04.75-.4.75-.98zm-108-2c0-1.1-.45-1.8-1-1.4s-1 1.3-1 2.1.45 1.4 1 1.4 1-.93 1-2.1zm21-1.1c-1.5-1.5-2.7-.4-1.8 1.8.5 1.3.93 1.4 1.8.55s.89-1.4-.01-2.4zm77 2.2c.45-.72-5.3-4-7-4-.14 0-.03 1.1.24 2.5.37 2 1.1 2.5 3.3 2.5 1.6 0 3.1-.44 3.4-.97zm-34-1.8c-.23-.41-.11-1.6.28-2.7.65-1.8.76-1.8 1.4.5.55 2 .84 2.2 1.6.95.85-1.3.99-1.2 1 .25.02 1.7-3.4 2.5-4.3 1zm121-1.2c0-.55-.9-1-2-1s-2 .45-2 1 .9 1 2 1 2-.45 2-1zm-181-3.5c-.65-1.7-2.6-2-2.6-.41 0 .58.53.73 1.2.33.77-.47.97-.19.57.85-.33.86-.31 1.9.06 2.2.92.92 1.5-1.2.83-3zm194 1.6c.25-.75-.12-1.1-.87-.87-.72.24-1.5 1-1.8 1.8-.25.75.12 1.1.87.87.72-.24 1.5-1 1.8-1.8zm-199-3.4c0-.52-.68-.37-1.5.31-1 .86-1.5.9-1.5.12 0-.61-.45-1.1-1-1.1-1.4 0-1.2 1.8.25 3.5 1.1 1.2 1.4 1.2 2.5-.23.69-.9 1.2-2 1.2-2.6zm100 1.8c0-2.2-1.6-1.7-1.7.58-.08 1.1.27 1.8.79 1.4s.94-1.2.94-2zm-109-3.7c-.01-1.8-.21-1.9-.93-.8-.5.8-.7 1.8-.43 2.2.87 1.4 1.4.86 1.4-1.4zm27 .75c.69-.84.8-1.5.24-1.5-.55 0-1.6.68-2.2 1.5-.69.84-.8 1.5-.24 1.5.55 0 1.6-.68 2.2-1.5zm175-2.5c0-.55.69-1 1.5-1 1.2 0 1.3-.4.43-2.1s-1.4-1.8-2.5-.88c-1.6 1.4-1.9 4.9-.43 4.9.55 0 1-.45 1-1zm-192-2c1.3-.86 1.3-1.1.03-1.9-1.2-.79-1.2-1 .5-1.6 4.1-1.4 4.5-1.4 4.5-.08 0 1.7-3.2 4.6-5.1 4.6-1.2-.01-1.2-.18.08-1zm34-.67c.96-.25 2.5-.25 3.5 0s.17.46-1.8.46-2.7-.21-1.8-.46zm17-.31c0-.55.79-1 1.8-1s3.6-.23 5.8-.5c3.8-.46 3.8-.41-1 .99-6 1.8-6.5 1.8-6.5.52zm14-.93c.31-.49 0-1.1-.69-1.4-.78-.31-.62-.53.43-.58 2.3-.11 3.2 1.6 1.2 2.3-.85.33-1.3.19-.99-.31zm17-.02c-.93-.58-.82-.93.42-1.4 2.3-.89 3.5-.8 3.5.25 0 1.3-2.5 2-3.9 1.2zm6.4-.05c1.1-.47 2.9-.86 4-.86h2l-2 .86c-1.1.47-2.9.86-4 .86h-2l2-.86zm242-2.5c-.54-2.8-2.2-2.4-2.2.55 0 1.1.61 1.9 1.4 1.9.91 0 1.2-.82.89-2.5zm-260 .49c2.8-1.2 4.5-1.2 4.5 0 0 .55-1.5.97-3.2.93-2.7-.06-2.9-.21-1.2-.93zm83 0c.34-.55 1.4-.99 2.3-.98 1.5.01 1.5.14.19.98-2 1.3-3.3 1.3-2.5 0zm182-4.9c0-6.3-1.4-8.7-3-4.9-.73 1.8-.94 1.9-.99.5-.03-.99-.43-1.6-.89-1.3-.46.28-.6 2-.31 3.8.31 1.9.68 2.6.91 1.5.63-2.9 2.2-.88 2.2 2.8 0 1.9.45 3.4 1 3.4s1-2.6 1-5.9zm-222 2.9c1.6-.42 4.1-.77 5.5-.78l2.5-.02-2.5.8c-1.4.44-3.8.79-5.5.78l-3-.02 3-.76zm36 .61c0-.95 3-1.4 3.5-.57.32.53-.34.96-1.5.96s-2.1-.18-2.1-.39zm-.02-2.7c2-1.2 5.6-2.4 8.3-2.6 4.9-.34 5.8.97 1.3 1.8-1.4.26-2.2.09-2-.38.75-1.2-.29-1.1-3.4.51-1.5.76-3.8 1.7-5.2 2.1-2 .56-1.8.25.98-1.5zm92 0c0-.8-1-1-3-.59-1.9.38-2.8.24-2.4-.38.33-.54.13-.98-.45-.98s-1.1.45-1.1 1-1 1-2.2 1c-2.2 0-2.2-.03-.25-1.4 2.4-1.7 14-1 13 .74-.52 1.6-3.7 2-3.7.57zm7-1.1c0-1.1 3.1-1.1 5 .1 1.1.67.58.9-1.8.84-1.8-.05-3.2-.48-3.2-.94zm87-43c-.08-8.2-.03-16 .11-16 .84-4.7.62-14-.35-14-.8-.54-.78-.96.05-1.5.63-.41 1.4-1.9 1.7-3.2.29-1.4.41 9.1.28 23-.25 28-1.5 36-1.8 12zm-198 10c0-1.2-.83-1.6-3.2-1.4-1.8.12-4.8.16-6.7.08l-3.4-.15 2.9-2.5c1.6-1.4 3.1-2.2 3.4-2 .28.29-.09.89-.82 1.3-2.2 1.4.02 1.8 7.4 1.6 8.2-.26 9.1.02 7 2.1-.86.86-1.8 1.3-2.1.97-.32-.32-1.4-.13-2.4.42-1.5.78-1.9.65-1.9-.61zm-25-.27c0-.58.79-1.3 1.8-1.5 5.1-1.4 7.2-1.6 7.7-.75.63 1-5.2 2.6-6.2 1.7-.32-.32-1.2-.08-1.9.53-.9.75-1.3.77-1.3.06zm35-1c-.87-1-.55-1.2 1.6-.64 1.7.42 2.7.26 2.7-.44 0-.61.68-1.1 1.5-1.1s1.5.45 1.5 1c0 1.9 6.9 1.1 9-1 2.3-2.3 4.8-1.7 2.9.63-.96 1.2-.7 1.4 1.4 1.4 1.4 0 2.6.34 2.6.75 0 1.4-22 .87-23-.56zm-49-1.3c-1.1-1.7 1.3-3.4 4.8-3.4 1.8-.03 4.3-.35 5.7-.72 2.3-.61 2.3-.58-.18.47-1.5.62-2.9 2-3.2 3-.54 2-6.1 2.6-7.2.74zm25-1.8c-.43-.69-.51-1.5-.18-1.9.89-.9 1.9.42 1.4 1.9-.34 1-.58 1-1.2-.01zm-9.5-2.5c-.89-1.1-.81-1.5.3-1.9 1.6-.61 4 1.6 2.9 2.7-1 1-2 .79-3.2-.72zm25 .38c.34-.55 1.4-.99 2.3-.98 1.5.01 1.5.14.19.98-2 1.3-3.3 1.3-2.5 0zm11-.1c.79-.79 1.6-.8 3-.03 1.6.94 1.5 1.1-1.1 1.1-2.2.02-2.6-.27-1.8-1.1zm-163-9c0-2.4.4-3.8 1-3.4.55.34 1 2.2 1 4.1s-.45 3.4-1 3.4-1-1.8-1-4.1zm105 2.6c0-.26 1-1 2.2-1.7 2-1.1 2.1-1 .88.47-1.3 1.6-3.1 2.2-3.1 1.2zm60-1.3c-.73-.47-.86-1.3-.34-2.2.47-.76.62-2 .34-2.7-.3-.78.16-1.3 1.1-1.3 1.8 0 2.2 1.6.52 2.6-.6.37-.86 1.5-.59 2.6.56 2.2.59 2.1-1 1.1zm98 .07c1.5-.23 4-.23 5.5 0s.27.42-2.8.42-4.3-.19-2.8-.42zm-237-3.1c-1.1-1.1.87-2.2 4.1-2.2 1.9 0 3.2.4 3 .88-.61.99-6.3 2-7 1.3zm172-.72c0-1.4-3.6-1.4-5.8-.1-2.1 1.3-1.3-.2 1.8-3.4 3.2-3.2 5.5-3.2 4.5.1-.78 2.5-.26 2.4 5.2-.6 4.9-2.7 6.3-2.6 6.1.6-.15 2-.22 2-1.5.23-1.3-1.7-1.4-1.7-2.3-.06-.54.96-1.6 1.8-2.4 1.8s-1.4.4-1.4.88c0 .49-.9 1.1-2 1.4-1.3.33-2 .03-2-.82zm33 .5c0-1.5 3.3-2.6 3.8-1.2.21.62 1 .88 1.8.58.79-.31 1.4-.06 1.4.55s-1.6 1.1-3.5 1.1-3.5-.46-3.5-1zm-103-1c0-1.4 2-2 3.6-1.1 1.4.76 1.2.99-1 1.4-1.4.28-2.6.14-2.6-.3zm-89-.56c-.92-.93.19-2.4 1.8-2.4.84 0 1.2.6.83 1.5-.61 1.6-1.6 1.9-2.7.86zm62-.36c0-.55.7-1 1.6-1s1.3.45.94 1-1 1-1.6 1-.94-.45-.94-1zm41-.01c0-.54 1.2-.99 2.7-.99 2.9 0 2.4 1.2-.7 1.7-1.1.16-2-.15-2-.7zm26-.74c-.02-2.4 1.5-3.1 2.3-1 .4.94.84.88 1.8-.28 1.8-2 4.2-1.9 4.6.28.18.96-.15 1.8-.74 1.8s-1.1-.48-1.1-1.1-.71-.37-1.6.5c-1.9 1.9-3.4 2-3.4.32-.01-.83-.33-.75-.98.25-.78 1.2-.97 1.1-.98-.75zm50 1.1c-.32-.32-.35-1.2-.08-1.8s-.23-1.6-1.1-1.9c-1.1-.43-1.5-.12-1.3 1 .42 2.4-1.9 2.8-2.5.47-.33-1.3.07-2.1 1.1-2.4.89-.26 2.4-.8 3.4-1.2 1.2-.52 1.8-.25 1.8.9 0 1.2.68 1.5 2.9 1.1 2.5-.45 2.8-.26 2.4 1.5-.31 1.2-1.2 1.9-2.2 1.8-.89-.15-2.1.04-2.7.43-.61.38-1.4.44-1.7.13zm23-.07c.96-.25 2.5-.25 3.5 0s.18.46-1.8.46-2.7-.21-1.8-.46zm-162-1.3c0-.55.72-1 1.6-1 1 0 1.4-.55 1-1.5-.35-.9-.01-1.5.83-1.5 2.5 0 2.6 1.8.32 3.4-2.6 1.8-3.8 2-3.8.57zm57 .09c.82-.47 2.6-1.2 4-1.6 2.2-.69 2.4-.6 1.1.88-.75.9-2.6 1.6-4 1.6-2-.02-2.2-.25-1.1-.88zm91-.49c.3-.77 1.4-1.6 2.6-1.9 1.5-.39 1.9-.14 1.4.98-.32.83-.58 1.7-.58 1.9s-.89.42-2 .42c-1.3 0-1.8-.49-1.4-1.4zm-227-1.8c-.78-16 .48-243 1.7-312l.62-34 59 .2c42 .15 59 .53 59 1.3-.21.59.49 2.4 1.6 4.1l2 3-2.8-3.2c-2.2-2.4-3.6-3.1-5.8-2.9-1.6.13-3.6-.2-4.3-.74s-1.6-.66-2-.26.17 1.4 1.3 2.2c3 2.2 13 12 13 12 0 1.2 3.9 5.8 4.6 5.3 1.2-.75 7.8 9.9 8.3 14 .05.27.51 1.2 1 2 2.3 3.5 8.7 21 8.8 24 .09 1.8.48 3.2.85 3.2.38 0 .97 1 1.3 2.2 1.4 5 2.8 7.7 3.6 7.2.48-.3.88.29.88 1.3s.36 2.3.8 2.8c.43.52 1.4 2.8 2.1 5 1.9 5.8 14 23 16 24 2.2.61 2.2.62-.33 2.1-1.7.96-2 1.4-.9 1.5 2.2.05 7.4 2.7 8.9 4.6 1.5 1.8.9 1.9-2.5.32-1.4-.64-2.6-1.6-2.6-2.1s-.42-.64-.93-.32c-.51.31-1.2.12-1.6-.44-1.3-2.1-2.6-.95-2 1.8 1.4 6.2 2.2 18 1.4 19-.85.92-1.3-1.9-.92-5.7.1-.96-.53-2.5-1.4-3.3s-1.6-3-1.6-4.7c-.01-2.4-.24-2.8-.99-1.7-.7 1.1-.81.56-.36-1.8.49-2.6.29-3.2-1-3.2-1.9 0-2 .91-.46 4.7.64 1.6 1.3 4.2 1.4 5.8.14 1.6.04 2.2-.24 1.2s-.94-1.5-1.5-1.2c-.55.34-.86-.42-.72-1.7.35-3.2-1.2-9.8-2.3-9.8-.49 0-.89-1.2-.89-2.6s-.4-2.3-.88-2c-.49.3-.86 2.8-.81 5.5.06 4.2.25 4.7 1.4 3.3 1.5-2 1.7-.8.3 1.9-.81 1.5-.7 1.9.5 1.9.97 0 1.5.91 1.5 2.4 0 1.3.46 2.7 1 3.1s.75 1 .44 1.6c-.32.51-.1.93.48.93s1.1.64 1.1 1.4.53 1.6 1.2 1.8c1.2.41.29 2.8-1.1 2.8-.45 0-1.4-1.4-2.1-3s-1.9-3-2.6-3c-.89 0-1.4-1.2-1.4-3.2-.01-2.5-.24-2.9-1-1.8-.85 1.3-1.3 1.1-3.1-1-1.2-1.4-2.8-2.4-3.7-2.2-1.3.23-1.3.1-.27-.62.85-.58 1.1-1.8.72-3.3-.36-1.3.34-.57 1.5 1.6 1.9 3.6 2.3 3.8 3 2 1-2.7 1.1-5.7.1-5.1-.45.28-1.6-2.6-2.6-6.5-.99-3.8-2.2-7.2-2.7-7.5-.53-.33-.45-1.1.2-1.9.85-1 .62-1.8-.95-3.4-2.5-2.5-2.8-2.5-3.4-.32-.31 1.2-.49.94-.55-.75-.2-5-1.4-10-2.2-9.4-.49.3-.89-.12-.89-.93s-.4-1.6-.88-1.8c-.49-.18-1.2-2.4-1.5-4.8-.43-3.1-.33-3.9.31-2.5.89 1.9.93 1.9 1-.25.04-1.4-.52-2.2-1.4-2.2-1.1 0-1.5 1.1-1.5 4.2 0 5.6-1.5 4-3.5-3.7-.97-3.8-1.4-4.6-1.1-2.2.26 2.2.05 3.5-.5 3.2-.52-.32-.96-1.3-.98-2.3-.01-.93-.67-2.8-1.4-4.2-1.3-2.3-1.4-2-1.1 4.5.19 3.8.68 8.8 1.1 11 .63 3.3.51 3.8-.83 3.3-.87-.34-1.8-.07-2.1.59-.26.65-.51-.16-.55-1.8-.04-2.3.17-2.6.91-1.5.76 1.2.95.97.89-1-.1-2.8-1.6-8.1-1.8-6.5-.24 1.7-4.3-8.8-4.2-11 .05-1.5-.14-1.7-.81-.58-.49.8-.47 2.4.05 3.8.5 1.3.91 4.1.91 6.3 0 2.1.67 4.5 1.5 5.4 1.7 1.7 2.1 7.1.5 6.1-.55-.34-1-1.5-1-2.6s-.61-1.9-1.4-1.9c-1.2 0-2.6-2.7-5.7-11-.48-1.2-1.5-2.2-2.3-2.2s-1.7-1.4-2.1-3c-1-4.7-2.3-3.5-1.4 1.2.44 2.3 1.1 5 1.4 5.9s.14 2.5-.5 3.5c-1.1 1.7-1.1 1.7-.58-.04.66-2.1-1.3-9.6-2.5-9.6-1.5 0-2.1 2.2-1 3.3 1.7 1.7 1.3 3.1-.52 1.6-1.5-1.2-1.6-1-.94 1.8.41 1.9.26 3.4-.37 3.8-.58.36-1.1.25-1.1-.25 0-1.1-3.5-5.2-4.4-5.2-1.3 0-.54 2 1.6 4 1.6 1.4 1.8 2 .75 2.1-1.1.03-1 .34.31 1.4.96.73 1.7 2.4 1.7 3.7s-.31 1.8-.58 1.1c-.56-1.4-2.3-.71-2.3.88 0 .55.45.72 1 .38s1-.18 1 .36.27 1.7.61 2.6c.39 1 .06 1.6-.94 1.6-.86 0-1.9.52-2.3 1.2-.43.71-.27.89.42.46 1.1-.7 1.3-.3 3 8.4.75 3.8.85 9.1.33 17-.06 1.1-.57 1.5-1.2 1.1-.61-.38-1.6-.07-2.1.69-.71 1-.79.84-.28-.62 2.3-6.5 2.4-7.5.73-7.5-1.5 0-1.5-.12.05-1.2 1.6-1.2 1.6-1.7.1-7.2-.87-3.3-1.9-6.4-2.2-7s-.67-1.8-.74-2.8c-.18-2.4-2.3-3.7-5.5-3.5-1.4.08-4.9.08-7.9 0-5-.14-5.3-.28-4-1.9 1.2-1.5 1.2-1.6-.13-.61-.83.62-3.5 1.4-6 1.6-3.7.39-5.6-.11-11-3-3.6-1.9-6.8-4-7.2-4.6-.55-.88-.74-.88-.75-.01-.02 1.3-5.8-1.3-12-5.3-2.1-1.3-4.4-2.4-5.1-2.4-1.8 0-5.1-3.6-3.9-4.3.48-.3 2.4-.5 4.2-.44 2.5.07 3.6.69 4.4 2.7 1.4 3.3 2.7 4.2 4.8 3.5.91-.29 2-.05 2.3.52.36.57 1.2 1 1.8 1s.42-.62-.54-1.4-1.4-1.6-1-2c.61-.62-2.2-2.9-3.8-3.1-1.3-.15-9.1-5.7-8.7-6.2.65-.66 11 4.9 11 5.9 0 .41.48.75 1.1.75s.8-.41.49-.91c-.31-.51 0-1.2.69-1.4.76-.3.55-.53-.51-.58-1.9-.09-12-5.7-13-7.2-.31-.49-1-.9-1.6-.9-.61 0-.29.9.71 2 2.1 2.3.89 2.6-1.9.47-2.3-1.7-5.6-1.9-5.6-.35 0 .76-.5.71-1.6-.16-1.2-1-1.3-1.4-.25-2.1 1.2-.77.36-1.3-1.6-.93-.48.09-1.7-.6-2.8-1.5-1-.94-1.9-1.3-1.8-.79.03 1.7 7.8 7.5 8.5 6.3.43-.7 1.3-.48 2.6.65 1.5 1.4 1.9 1.4 1.9.31.02-.98.46-.84 1.5.5 1.8 2.4.86 4.1-1.3 2.4-1.5-1.1-1.5-1.1-.38.33 1 1.4 1 1.7-.31 2.2-.86.33-1.3.23-1.1-.23.29-.46-1.9-2.1-4.9-3.7-3-1.6-5.5-3.2-5.5-3.6 0-.43-2.1-2.9-4.6-5.5-2.5-2.6-7.1-8-10-12-3.1-4-5.8-7-6-6.8-.21.22-.57 13-.79 29l-.41 29 2.4.92c3.4 1.3 4.1 2.8 1.1 2.5-2.8-.31-2.8-.41-1.5 3 .81 2.1.68 2.6-.75 2.6-1.6.03-1.6.12.08 1.1 1.4.81 1.5 1.4.68 2.4-.84 1-.8 1.9.14 3.7.7 1.3 1.4 2.8 1.5 3.5.11.63.63 1.9 1.2 2.9.78 1.4 1.1.8 1.7-2.9.77-5.1.65-5.1 5.6-3 1.9.79 2.5 1.2 1.3 1-2.8-.52-5.2 1.2-5.8 4.3-.48 2.5 1.1 6.5 2.3 5.7.4-.24.81 1.6.92 4.2.12 2.5.67 5 1.2 5.6 1.6 1.6 1.2 3-.36 1.7-.76-.63-1.9-3.3-2.6-5.9-1.3-5-3.5-8.2-5.7-8.2-.72 0-1.7-1.5-2.2-3.2-.73-2.5-.96-.77-1 8-.08 10 .09 11 2.1 13 1.2 1.1 2.7 2 3.4 2 1.6 0 3.6-2.5 2.7-3.5-.41-.43.28-.26 1.5.39l2.3 1.2-6 5.1-6-4.3-.01 40c-.01 22-.01 70-.01 106 .01 43-.33 65-.98 65-.55 0-1-1-1.1-2.2zm72 1.5c-1.1-1.1-.61-1.8 1.4-2 1.1-.08 2 .23 2 .69 0 1.1-2.6 2.1-3.4 1.3zm90-1.8c.31-.82 1.2-1.5 2-1.5 1.9 0 1.8 1.6-.19 2.4-2.3.87-2.4.79-1.8-.89zm20 .78c-1.4-.36-1.6-.68-.59-1.3 1.5-.92 4-.22 4 1.1 0 .94-.34.96-3.4.17zm-28-1.2c-.94-.58-.67-.97.99-1.4 2.8-.73 3.4-.33 1.6 1.1-.72.6-1.9.72-2.6.28zm33-.15c-.36-.58-.42-1.3-.13-1.6.72-.71 2.7.55 2.7 1.7 0 1.3-1.7 1.2-2.5-.13zm92-5.3c-3.3-1.6-2.8-3 .87-2.3 1.7.34 4.3.62 5.7.62 2.5 0 2.5.05.62 1.5-2.2 1.7-4 1.7-7.2.17zm-91-1.8c0-.45.56-.86 1.2-.91.69-.04 2-.22 3-.41.96-.18 1.8.13 1.8.69s-.68.75-1.5.44c-.82-.32-1.5-.22-1.5.22 0 .45-.68.81-1.5.81s-1.5-.38-1.5-.84zm8-5c1.1-1 2.5-1.6 3-1.3.55.33.99.13.99-.45s.68-1.1 1.5-1.1 1.5.63 1.5 1.4c0 1.3-3.2 2.6-7.3 3.1-1.6.17-1.5-.02.26-1.7zm16-1.3c2.4-.77 4.6-1.2 4.9-.96.67.67-4.7 2.5-7.2 2.4-1.3-.04-.34-.64 2.3-1.4zm15-.38c0-.5 1.4-1.4 3.2-2 3.8-1.3 3.8-1.3 3.8-.2 0 .5-1.4 1.4-3.2 2-3.8 1.3-3.8 1.3-3.8.2zm15-.6c.68-.82 2-1.5 2.9-1.5 1.4.03 1.3.27-.31 1.5-2.5 1.9-4.2 1.9-2.6-.03zm38-.86c0-.81.56-1.7 1.2-2 .75-.3.55-.53-.5-.58-2.4-.11-2.2-3.4.4-5.7l2.2-1.9-1.8 2.8c-2 3-1.7 3.2 4.6 2.8 2.6-.17 5.5 2.9 4.1 4.3-1.4 1.4-2.4.49-1.7-1.6.63-2 .53-2.1-.94-.88-.9.75-1.6 1-1.6.59s-.79-.1-1.8.72c-3 2.6-4.2 3-4.2 1.4zm16-.64c0-.55 1-.99 2.2-.98 1.8.01 2 .2.75.98-1.9 1.2-3 1.2-3 0zm-33-.88c0-.55.99-1.7 2.2-2.6 1.7-1.2 2.4-1.3 3-.31.9 1.4.15 2.3-2.9 3.2-1.3.4-2.2.26-2.2-.33zm-42-1.1c0-.42 1.9-1.5 4.3-2.4 4.8-1.8 5.7-2 5.7-.83 0 .44-2.2 1.5-5 2.4s-5 1.2-5 .82zm52-.19c.21-.64 1.4-1.5 2.6-2 2-.74 2.1-.61 1.2 1.2-1.1 2.1-4.4 2.8-3.8.83zm17-.7c-.32-.52.16-1.2 1.1-1.6 2.2-.85 2.7-.14.96 1.3-.85.71-1.7.81-2 .24zm48-.15c0-.55.7-1 1.6-1s1.3.45.94 1-1 1-1.6 1-.94-.45-.94-1zm-82-2c.34-.55 1.3-1 2.1-1 .82 0 1.2.45.88 1s-1.3 1-2.1 1c-.82 0-1.2-.45-.88-1zm-18-1.1c-.36-.58-.33-1.4.08-1.8.4-.37.95-.07 1.2.68.41 1.2.62 1.2 1.4 0 .67-1.1.86-.98.87.39.02 1.9-2.5 2.4-3.5.68zm37-1.9c.93-3.1 1.1-3.3 2.4-2.8.54.19.06 1.5-1.1 2.8l-2.1 2.5.76-2.5zm30-2c0-.55 1-.99 2.2-.98 1.8.01 2 .2.75.98-1.9 1.2-3 1.2-3 0zm44-9.2c.1-5.3-.08-10-.41-11-.64-1-.09-5.2.81-6.1.29-.29.59 1 .67 2.9.26 6.2-.3 22-.79 23-.26.26-.39-3.8-.28-9.1zm-6.7-11c1-1.2 2.3-2.2 2.8-2.2 1.4 0-.08 1.9-2.5 3.1-2.2 1.1-2.2 1.1-.29-.99zm-14-1.6c0-.81 7.3-3.6 7.9-3 .3.3-.44.81-1.6 1.1-1.2.31-2.2.97-2.2 1.5 0 .48-.9.88-2 .88s-2-.22-2-.49zm-72-1.5c.34-.55 1.4-.99 2.3-.98 1.5.01 1.5.14.19.98-2 1.3-3.3 1.3-2.5 0zm-68-1c.34-.55 1.4-.99 2.3-.98 1.5.01 1.5.14.19.98-2 1.3-3.3 1.3-2.5 0zm158-.5c0-.89-.4-1.4-.88-1.1-.48.3-2.3-.16-4-1-2.4-1.2-3.8-1.3-6.2-.53-1.8.63-2.8.66-2.4.09.67-1.1.44-1.2-4.7-1.5-2.7-.15-3.8.23-4.1 1.4-.25.93-.48.55-.56-.89-.1-1.9-.35-2.2-1-1.1-.79 1.2-1.1 1.2-2.6 0-1.3-1.1-1.8-1.2-2.2-.19-.5 1.5-5.2 1.7-5.2.21 0-.58.56-.96 1.2-.86 1.8.26 7.8-2.1 7.8-3.1 0-.45-.56-1-1.2-1.2s-.01-.66 1.5-.95c2.7-.51 3.7.48 1.8 1.7-2.5 1.5-.53 2.5 5 2.5 3.3 0 6 .44 6 1 0 .55 1.8 1 4 1s4-.45 4-1c0-1.3 3.7-1.3 4.5.04.35.57 1.5.77 2.6.43 1.1-.33 1.9-.18 1.9.35 0 .52-.96 1.2-2.1 1.5-1.4.37-1.9 1.1-1.5 2.1.32.84.15 1.8-.37 2.1-.53.32-.96-.14-.96-1zm-135-.95c1.4-.76 2.7-1.2 3-.91.67.67-2.2 2.3-4 2.3-.87-.01-.45-.6 1-1.4zm10 1.2c0-.61 7.6-5.1 10-6 1.1-.41 1.8-.13 1.8.77 0 .77-1 1.7-2.2 2.1-1.2.38-2.5 1.1-2.8 1.6-.62.96-7 2.4-7 1.6zm66-.48c0-.56 1.7-1.2 3.8-1.5 6.2-.77 6 .92-.13 1.9-2.2.36-3.6.19-3.6-.43zm9-2c0-.57-.79-1.3-1.8-1.6-.96-.29.19-.28 2.6.02 3.8.48 4.4.29 4.9-1.6.31-1.2 1.1-2.2 1.7-2.2.62-.07 2.1-.23 3.3-.36 1.2-.12 2.8-.49 3.7-.81.83-.31 1.7-.01 2 .68.26.7-.26 1.3-1.2 1.3-4.9.01-7.2.48-7.2 1.5 0 .73 1.2.93 3.5.56 1.9-.31 3.5-.2 3.5.25s-2.4 1.1-5.2 1.4c-2.9.3-6.3.86-7.5 1.2-1.3.42-2.2.28-2.2-.34zm-18-2.9c.97-.26 2.3-.24 3 .03.68.28-.12.49-1.8.47-1.6-.03-2.2-.25-1.2-.5zm-79-2c1.6-1.5 9.7-4.4 9-3.2-.66 1.1-2.7 2-7.5 3.4-1.6.48-2.1.4-1.5-.22zm147-.19c-.32-.52-1.9-.9-3.6-.85-1.7.05-3.8-.66-4.7-1.6-1.1-1-1.2-1.6-.44-1.6.66 0 1.2.47 1.2 1 0 .7.64.69 2-.04s2-.74 2-.04c0 .57.41 1 .91 1 .49 0 .67-.9.38-2s-.92-2-1.4-2c-.48 0-.88-.68-.88-1.5s.45-1.5 1-1.5 1 .56 1 1.2c.01.9.26.86.89-.14.68-1.1 1.2-.74 2.4 1.5 1.4 2.7 1.6 2.7 1.6.64.02-1.2.46-2.2.98-2.2.98 0 1.2 2.9.44 6.8-.42 2.3-2.8 3.1-3.8 1.3zm-160-1.1c-1.1-.47-1.5-.89-.83-.93s1.9-.34 2.8-.68c1-.4 1.6-.05 1.6 1 0 1.8-.55 1.9-3.5.61zm35-.25c.2-.6 1.3-1.2 2.5-1.2 2.6-.19 2.1 1-.8 1.8-1.3.33-1.9.11-1.7-.55zm47-.21c-1.7-.75-3.4-1.1-3.7-.84-.29.3-1.3-.21-2.2-1.1-.97-.98-2.4-1.4-3.6-1.1-1.2.4-1.9.12-1.9-.82 0-1.6 4.5-1.2 6.7.54.68.53 1.9.73 2.7.43.79-.31 1.7.09 2 .88.3.79 1.5 1.4 2.6 1.4s2 .45 2 1c0 1.3-.82 1.2-4.7-.46zm19 .21c.23-.69 1.3-1.4 2.3-1.6 1.6-.31 1.7-.14.55 1.2-1.6 1.9-3.4 2.2-2.8.37zm61-1.5c-1-1-1.8.51-1 1.9.63 1 .87 1 1.2.01.23-.7.15-1.5-.19-1.9zm-105 .73c2-1.3 3.3-1.3 2.5 0-.34.55-1.4.99-2.3.98-1.5-.01-1.5-.14-.19-.98zm81-.71c0-1.2.29-1.4 1.1-.57.62.62 1.7.89 2.5.59.76-.29 1.4-.12 1.4.36 0 .49-1.1.99-2.5 1.1-1.8.15-2.5-.29-2.5-1.5zm-10-.29c-.34-.55.08-1 .94-1s1.6.45 1.6 1-.42 1-.94 1-1.2-.45-1.6-1zm-214-.35c0-.33 2.5-1.8 5.5-3.2s5.5-3.1 5.5-3.8c.01-.84.24-.81.81.08.6.94 1.4.62 3.2-1.2 1.3-1.4 2.8-2.5 3.4-2.5 1.8 0-3.7 5.1-7.3 6.8-1.9.9-3.7 1.9-4 2.2-.28.3-1.2.72-2 .92-.83.21-2.3.6-3.2.87s-1.8.23-1.8-.09zm229-1.2c-1.1-.81-1.4-1.5-.83-1.5 1.9 0 4.3 1.2 4.3 2.1 0 1.3-1.2 1-3.4-.64zm-129-.36c0-1.1 2.9-2.3 4-1.6.44.27 1.1-.17 1.4-1 .32-.82 1.2-1.5 2.1-1.5.92 0 1.3-.58.92-1.5-.38-.99.03-1.5 1.2-1.5.98 0 2.6-.74 3.6-1.6 1.7-1.5 1.8-1.5 1.8 0 0 .91-.47 1.6-1 1.6-.57 0-2.2 1.2-3.7 2.6s-4.1 3.2-5.9 4c-3.9 1.6-4.4 1.7-4.4.49zm-23-2.6c6.6-2.8 6.6-2.7 6.6-1.7 0 .74-9.8 4.3-12 4.2-.5-.03 1.8-1.2 5-2.5zm58 .69c.9-1.7.77-1.9-.95-1.4-1.1.29-2.2.92-2.5 1.4-.3.48-1 .88-1.6.88-.61 0-.29-.9.71-2s2.4-2 3.2-2c.74 0 1.4-.42 1.4-.94 0-.51 3-.85 6.8-.75 4.1.12 6.6.58 6.2 1.2-.27.55-1.7.89-3.3.74-1.6-.14-4.4.82-6.8 2.3-3.6 2.2-3.9 2.3-3 .6zm33 .85c.34-.55 1-1 1.6-1s.94.45.94 1-.7 1-1.6 1-1.3-.45-.94-1zm49-.13c-.83-.53.26-.85 2.9-.85 2.3-.01 4.2.32 4.2.73-.01 1-5.6 1.1-7.2.12zm-202-.57c-1-1 2.5-4.3 4.6-4.3 1.7 0 1.8.24.67 1.6-1.7 2.1-4.5 3.5-5.3 2.8zm158-.2c.76-.48 1.1-1.4.69-2-.39-.63-.02-1.1.87-1.1 1.9 0 2.1-1.6.31-2.3-.69-.28.38-.54 2.4-.58 4-.09 7.1 2.2 4.4 3.3-.94.36-1.5.03-1.5-.85 0-2.1-2.5-.81-4 2-.72 1.4-2 2.4-2.9 2.4-1.3-.01-1.3-.17-.2-.88zm-59-1.6c0-.72 1.4-1.5 3-1.8 3.7-.54 3.4 1.3-.35 2.3-1.9.51-2.7.34-2.7-.58zm119 .38c0-.5.9-.91 2-.91s2 .17 2 .38-.9.62-2 .91-2 .11-2-.38zm-67-.79c0-.49.79-1.2 1.8-1.5s2.4-.91 3.2-1.3.3.33-1.2 1.5c-2.9 2.3-3.8 2.6-3.8 1.3zm60-.12c0-.55.7-1 1.6-1s1.3.45.94 1-1 1-1.6 1-.94-.45-.94-1zm-183-1.1c0-.58-.45-.78-1-.44-1.6.96-1.2-1.1.45-2.5.8-.66 2-1.3 2.8-1.4.72-.11 1.8-.47 2.3-.81 1.1-.71 6.4-.28 7.2.59.32.32-.5.63-1.8.69-6.2.27-9.9 1.7-9.2 3.5.29.77.26 1.4-.07 1.4-.34 0-.61-.48-.61-1.1zm205 .81c-.62-2-.59-4.3.08-6.5.72-2.4.84-2.1.91 2 .05 2.6-.14 4.8-.41 4.8s-.53-.11-.58-.25zm-95-2.2c-.44-1.1.1-1.5 2-1.5 1.4 0 2.4.13 2.2.28-.23.16-1.2.85-2 1.5-1.3 1-1.7.96-2.2-.28zm63-.05c2-1.6 3.2-1.3 2.1.45-.36.59-1.4 1.1-2.4 1-1.5-.03-1.4-.21.24-1.5zm-137-.12c.66-.27.95-1.1.65-1.9-.31-.79-.06-1.4.55-1.4s1.1.9 1.1 2c0 1.3-.64 2-1.8 1.9-.96-.04-1.2-.3-.56-.56zm37-1.4c1.9-1.2 3-1.2 3 0 0 .55-1 .99-2.2.98-1.8-.01-2-.2-.75-.98zm-52-1.9c3.3-2.3 5-2.7 3.9-.98-.43.69-.16.93.69.62.76-.27 1.3-1 1.1-1.6s.99-1.7 2.5-2.4c1.5-.66 3.1-1.7 3.5-2.2.38-.55 1-.63 1.5-.18.44.44-.21 1.6-1.4 2.6-1.2 1-2 2.4-1.7 3.2.32.83-.18 1.4-1.2 1.5-.97.06-2.8.46-4.2.87-1.9.58-2.2.46-1.6-.57.6-.97.37-1.2-.85-.66-4.4 1.8-4.9 1.7-2.2-.22zm158 .89c0-.55.68-1 1.5-1s1.5.45 1.5 1-.68 1-1.5 1-1.5-.45-1.5-1zm5.2-.19c.5-1.5 2.8-2.3 2.8-1 0 .54-.71 1.2-1.6 1.6-.98.38-1.4.15-1.2-.58zm-126-.56c.41-.41 1-.78 1.4-.81 1.7-.15 8.8-3.7 11-5.2 1.6-1.4 1.8-1.4 1.5-.21-.26.82-1.8 2.1-3.4 2.9s-3.3 2-3.7 2.8-2.2 1.4-3.9 1.4c-1.7 0-2.8-.34-2.4-.75zm-12-1.2c.05-.92 7-3.9 7-3 0 .44-.9 1.1-2 1.4s-2 .98-2 1.4-.68.77-1.5.77-1.5-.27-1.5-.59zm28-1.3c1.2-.6 2.2-1.5 2.2-1.9 0-.47.74-.85 1.6-.85 1.5 0 1.5.2-.15 2-1 1.1-2.8 2-3.9 1.9-2-.06-2-.09.15-1.2zm47-7.4c0-.51.92-1.5 2-2.2s1.8-1.7 1.4-2.2.31-.97 1.4-.97c1.4 0 1.8.47 1.4 1.5-.31.82-1 1.5-1.6 1.5-.58 0-1.9.74-2.9 1.6-1 .92-1.8 1.2-1.8.75zm6.3-.49c.98-.57 1.5-1.5 1.2-2-.32-.52-.14-.94.4-.94s1.7-.27 2.6-.61c1-.4 1.6-.05 1.6 1 0 .93-.82 1.6-1.9 1.6-1.1 0-2.2.45-2.6 1s-1.2.99-1.8.97c-.65-.02-.39-.49.58-1.1zm16 .71c0-.21.9-.62 2-.91s2-.11 2 .38c0 .5-.9.91-2 .91s-2-.17-2-.38zm36-1.2c2.5-1.9 4.2-1.9 2.6.03-.68.82-2 1.5-2.9 1.5-1.4-.03-1.3-.27.31-1.5zm11-.84c1.5-1.3 6.9-3.5 6.9-2.8 0 .94-4.4 3.2-6.2 3.2-.62 0-.94-.17-.71-.37zm15-2.1c.03-1.6.25-2.2.5-1.2.26.97.24 2.3-.03 3-.28.68-.49-.12-.47-1.8zm-270-6.5c.34-.55 2-.99 3.8-.98 2.4.01 2.8.24 1.7.98-2 1.3-6.3 1.3-5.5 0zm269-.77c-.97-1.6-1.1-18-.1-18 .82.2 1.7 19 .87 19-.16 0-.51-.35-.77-.77zm-247-5.2c.34-.55 1.4-.99 2.3-.98 1.5.01 1.5.14.19.98-2 1.3-3.3 1.3-2.5 0zm10-8.5c.68-.82 1.8-1.5 2.4-1.4.7.05.66.27-.13.58-.69.28-1 .92-.69 1.4.31.5-.19.91-1.1.91-1.4 0-1.5-.27-.44-1.5zm227-6.2c2.7-.22 5.3-.91 5.7-1.6.39-.63 1.1-.8 1.5-.38 1.4 1.4-2.1 2.6-7.2 2.5l-5-.16 5-.38zm-26-1.2c-.52-.5-1.8-1.1-3-1.4-1.1-.26-.2-.49 2-.49 2.2-.01 5.1.29 6.5.68 2.3.63 2.3.76.58 1.4-1.2.46-2.2.25-2.7-.55-.64-1-.82-1-.83-.03-.02 1.5-1.2 1.6-2.6.35zm-11-.79c.97-.26 2.3-.24 3 .03.68.28-.12.49-1.8.47-1.6-.03-2.2-.25-1.2-.5zm23-.03c1.5-.28 2.1-.94 1.8-1.9-.33-.84.07-1.4.98-1.4.84 0 1.2.45.91 1s-.14 1 .44 1 1.1.45 1.1 1-1.7.94-3.8.86c-2.5-.09-3-.28-1.4-.58zm-156-1.3c2-1.3 3.3-1.3 2.5 0-.34.55-1.4.99-2.3.98-1.5-.01-1.5-.14-.19-.98zm118-3c1.1-.47 2.7-.88 3.5-.91 1.3-.05 1.3.05 0 .91-.82.53-2.4.94-3.5.91l-2-.05 2-.86zm20 .62c0-.21 1.1-.6 2.5-.86 1.4-.27 2.5-.1 2.5.38 0 .47-1.1.86-2.5.86s-2.5-.17-2.5-.38zm9.5-.4c-3.3-.68-4.2-2.2-1.3-2.2 1.4 0 2.9.48 3.3 1.1.86 1.4.4 1.6-2 1.2zm32-18c0-11 .15-15 .33-9.8s.18 14 0 20-.33.97-.33-9.8zm-151 17c.82-.53 2.2-.97 3-.97 1.3 0 1.3.11 0 .97-.82.53-2.2.97-3 .97-1.3 0-1.3-.11 0-.97zm-172-.86c.57-.62 3-1.5 5.5-2s6-1.8 8-3c1.9-1.2 4.2-2.1 5-2.1.88.01.39.71-1.2 1.7-1.5.91-2.9 2.5-3.2 3.5-.36 1.4-1.4 1.8-4.4 1.8-2.2 0-5.5.28-7.3.63-2.5.47-3.1.33-2.3-.49zm247-.64c0-.88-.93-1.5-2.2-1.5-1.8-.03-1.6-.31 1.2-1.5 3.2-1.4 3.6-1.4 5.7.67 1.3 1.2 3 1.9 3.8 1.6.85-.33 1.6-.21 1.6.26s-1.3 1-2.9 1.3c-2.1.31-2.8.02-2.8-1.1.06-.83-.68-1.7-1.6-1.9-2-.41-2.4 2.3-.5 3.1.75.3.55.53-.5.58-.96.04-1.8-.6-1.8-1.4zm-144-1.8c1.9-1.3 3.6-2.2 3.8-2 .68.55-4.3 4.3-5.8 4.3-.77.02.13-1 2-2.3zm78 1.6c-.32-.52.42-1.4 1.6-2 2.9-1.5 19-4.5 19-3.8.32.32.17.61-.33.66-2.6.21-4.8.87-5.3 1.6-.33.45-1.7.94-3.1 1.1-1.4.16-2.7.61-3 1-.3.4-1.4.8-2.5.89s-3 .47-4.1.84c-1.2.37-2.4.25-2.7-.26zm51-1.8c-1.9-.84-4.5-1.3-5.7-1.1s-2 .04-1.7-.43c.76-1.2 6.2-1.1 7 .24.37.6 2 .91 3.5.68 1.6-.23 2.6-.08 2.4.33-.25.4.34.95 1.3 1.2 1.2.31.94.48-.74.53-1.4.05-4.1-.6-6-1.4zm26 .52c0-.48 1-1.5 2.2-2.3 2.7-1.7 7.8-1 7.8 1.1 0 .86-.59 1.3-1.4.96-.76-.29-3-.16-5 .29-2 .46-3.6.43-3.6-.05zm16 .19c-1.6-.64-1.3-1 2.3-2.4 4.7-1.9 6.2-2.1 6.2-.8 0 .48-1.4 1.2-3.1 1.5-1.7.34-2.8 1.1-2.4 1.6.72 1.2-.16 1.2-2.9.12zm11-.11c2.8-1.2 3.7-1.2 3 0-.34.55-1.6.97-2.8.93-2.1-.07-2.1-.1-.19-.93zm-185-2.6c1.5-1.4 2.9-2.4 3.1-2.2.61.6-3.6 4.7-4.8 4.7-.61 0 .13-1.2 1.6-2.6zm-5.1-.3c2-2.3 2.6-2.6 2.6-1.4 0 .42-1 1.4-2.2 2.1-2.2 1.4-2.2 1.4-.35-.76zm122-1.1c-.28-.44.21-1.1 1.1-1.4 2.2-.85 3.4-.75 3.4.28 0 1.2-3.9 2.2-4.5 1.1zm35 .24c.5-.41 1.2-1.2 1.6-1.8.43-.57.76-.25.76.75.01.97-.72 1.8-1.6 1.8-.91 0-1.3-.34-.76-.75zm-5.6-1.2c2-1.3 3.3-1.3 2.5 0-.34.55-1.4.99-2.3.98-1.5-.01-1.5-.14-.19-.98zm-23-2.1c0-.5.9-.91 2-.91s2 .17 2 .38-.9.62-2 .91-2 .11-2-.38zm20-.23c1.6-.77 3.2-1.2 3.4-1 .72.62-.32 1.2-3.4 1.8l-3 .63 3-1.4zm-145-1.6c.01-.32.63-1.7 1.4-3l1.3-2.4-.12 3c-.06 1.7-.67 3-1.4 3-.69.01-1.2-.26-1.2-.58zm1.4-12-1.9-2.2 2.5 2c1.4 1.1 2.7 2.1 2.9 2.2s-.04.26-.6.26c-.55 0-1.9-1-2.9-2.2zm3.8-.25c2.8-6.4 5.6-10 7-10 .41 0-.66 2.1-2.4 4.8-3.1 4.8-5.5 7.7-4.7 5.8zm120-.75c2.7-.56 5.2-.62 5.7-.12.49.49-1.6.92-4.8 1l-5.7.12 4.8-1zm12-.75c.34-.55 1.3-1 2.1-1s1.4.45 1.4 1-.93 1-2.1 1-1.8-.45-1.4-1zm-66-10c-1.3-.57-1.5-.88-.5-.91.82-.03 2.2.38 3 .91 1.8 1.2.25 1.2-2.5 0zm155-5c0-1.9.21-2.7.46-1.8s.25 2.5 0 3.5-.46.18-.46-1.8zm-26-5c-1.3-.84-1.3-.97.19-.98.93-.01 2 .43 2.3.98.78 1.3-.54 1.3-2.5 0zm27 .25c-.55-.98-.82-9.7-.29-9.2.54.55 1.6 9.9 1.1 9.9-.21 0-.56-.34-.79-.75zm-8.1-7.8c-.8-2.1-.77-2.4.18-2.4.43 0 .85.9.94 2 .18 2.4-.29 2.6-1.1.42zm-189-1.2c-1.4-.96-2.4-2.2-2.2-2.8.2-.59-.54-1.9-1.7-2.9-1.1-1-2-2.4-2-3.2s-2.7-3.1-6-5.2c-3.3-2.1-5.7-4.1-5.4-4.4s2.4.76 4.7 2.4 5.2 3 6.4 3.2c3.1.46 11 7 11 9.3.04 1 .41 2.7.82 3.6 1 2.4-2 2.3-5.6-.01zm7.1.66c0-.42.9-1 2-1.4s2-1 2-1.6c0-.51.48-.93 1.1-.93 1.2 0 3-1.7 4.8-4.5 1.1-1.7 1.2-1.7.68-.15-.85 2.7-4.9 7.5-6.3 7.6-.69.04-1.2.44-1.2.89 0 .46-.68.84-1.5.84s-1.5-.35-1.5-.77zm-4-2.3c0-.77-.67-1.6-1.5-2-1.2-.47-1.3-.24-.25 1.4 1.4 2.3 1.7 2.4 1.7.57zm93-.04c-1.1-.77-1.7-1.7-1.4-2 .32-.31 1.4.06 2.5.84 1.1.77 1.7 1.7 1.4 2-.32.31-1.4-.06-2.5-.84zm88 .24c.5-1.5 2.8-2.3 2.8-1 0 .54-.71 1.2-1.6 1.6-.98.38-1.4.15-1.2-.58zm7.2-.67c.46-.81.21-1.7-.6-2.2-.91-.57-.97-.87-.19-.88 1.9-.03 2.7 2 1.3 3.3-.98.9-1.1.85-.49-.2zm-271-5.1c-1.3-.86-1.3-.96 0-.89.83.05 2.6.45 4 .89l2.5.8-2.5.09c-1.4.04-3.2-.36-4-.89zm-6.7-4.7c1.5-1.1 3.4-2.8 4.2-3.9 1.2-1.6 1.6-1.7 2.4-.52.57.85 1.6 1.1 2.8.69 1.5-.56 1.4-.21-.53 1.8-1.4 1.6-3.4 2.5-5 2.4-1.4-.06-3.5.23-4.6.66-1.2.46-.87-.02.77-1.2zm95-.17c.8-1.3-1.6-2.8-4.2-2.6-1.2.1-2-.21-1.7-.68s-1-2.4-2.9-4.4c-2.4-2.4-3.3-4.2-2.9-5.5.4-1.6.81-1.7 1.9-.83.76.63 1.4.75 1.4.27s.46.03.93 1.1l.86 2 .09-2c.07-1.7.24-1.8 1-.5.65 1 .97 1.1.98.25.01-.69.58-1.1 1.3-1 1.3.26 1.4-1.3.36-6l-.62-2.8 1.6 2.9c1.2 2.1 1.4 4.1.94 7.2-.53 3.6-.37 4.4.91 4.4.86 0 1.6-.53 1.6-1.2s.23-.94.5-.66c.28.28 0 2-.61 3.7-1.3 3.8-.39 5.5 1 2 .83-2.1.96-2.1.98-.4.04 2-2 5.5-3.3 5.5-.38 0-.45-.4-.15-.89zm79-1.7c-4.1-2.1-4.5-2.8-1.4-2.1 2.1.5 3 .13 4.3-1.9 2-3 4.2-3.5 2.6-.56-.57 1.1-1 2.9-1 4 0 2.5-.58 2.5-4.5.51zm-10-1.8c-1.2-.62-2.5-2-2.9-3-.48-1.5-.77-1.6-1.5-.51-.66 1-.88.86-.89-.75-.02-2.5-3-5.6-3.1-3.2-.05.75-.62.15-1.3-1.3-.66-1.5-2.1-3.7-3.2-5-1.1-1.3-2.8-3.6-3.8-5.1s-2.3-2.7-2.9-2.5c-1.7.37-9.9-4.4-8.8-5.2 1.1-.65-4.4-7-6.1-7-.55 0-.73-.45-.39-1s-.01-1-.79-1c-.77 0-2.3-1-3.3-2.2l-1.9-2.2 2.1 1.8c1.2.99 2.5 1.7 3 1.5 1.2-.36 9.3 6.6 9.3 7.9 0 1.4 4.7 5.6 5.9 5.2.61-.22.45-1.3-.4-2.9-1.2-2.1-1.4-2.2-1.4-.63-.03 1.6-.29 1.7-1.6.62-1.2-.95-1.2-1.6-.38-2.6 1.2-1.4 1-1.7-4.2-8.9-2.9-3.9-1.2-2.3 4.2 4 4 4.8 9 7.6 9 5.2 0-1.8 1-.2 1.5 2.3.25 1.3 1.2 3 2.1 3.9 1.4 1.3 1.4 1.1-.14-1.4-1.7-2.8-1.6-2.8 1.3.5 3.4 3.8 6.7 11 6 13-.24.72-1-.37-1.7-2.4-.69-2.1-1.8-3.8-2.6-3.8-.74 0-2.7-1.9-4.4-4.2-1.7-2.3-3.1-3.6-3.1-2.9s-.44.98-.99.65c-.57-.35-.73.05-.39.94.33.85 1.2 1.6 1.9 1.6.71 0 2 1.5 2.8 3.3 1.6 3.3 6.9 8.7 8.6 8.7.5 0 1.4 1.5 2.1 3.2s1.4 2.7 1.7 2.1c.56-1.4 3.4-.53 5 1.6.89 1.2.89 1.7 0 2.3-1.4.87-1.5.86-4.4-.59zm-103-6.9c-1.9-1.2-5.2-3.6-7.4-5.4l-3.9-3.2-2.5 3c-1.7 2-3.4 2.9-5.4 2.9-1.6 0-3.8.55-4.9 1.2-1.6 1-2.2.93-3.2-.47-.7-.92-2.4-2.2-3.8-2.7-2.2-.91-2.1-.96 1-.41 1.9.34 3.6 1 3.8 1.5.19.48.78.88 1.3.88.54 0 .7-.45.36-1s.33-1 1.5-1c2.7 0 10-3.7 10-5.1 0-1.6 7.8 3.1 13 7.8 5.2 4.8 5.2 5.2.11 2zm-65-4.6c.18-3.5.79-6.8 1.4-7.4 1.1-1.1.62 5.4-.84 11-.62 2.2-.75 1.3-.51-3.3zm16 3.3c-.07-1.1-.27-3.2-.45-4.7-.19-1.6.24-2.9 1.1-3.2.94-.36 1.4-2 1.4-4.9 0-3.3.58-4.9 2.4-6.7 1.3-1.3 2.7-3.6 3.1-5.2.34-1.6 1-2.9 1.6-2.9.52 0 .25 1.6-.59 3.6s-1.3 3.9-1.1 4.1c.26.26-.52 1.3-1.7 2.3-2.6 2.2-2 2.4 1.5.64 1.4-.69 2.3-1.8 2-2.5-.51-1.6.99-1.6 2.5-.08.86.86.08 2-3.2 4.4-5.7 4.4-6.5 7.1-2.2 8.2 2.9.75 3 .87.91 1.4-1.3.33-2.2.14-2.2-.44 0-.61-.61-.52-1.5.22-.83.68-1.5 2-1.5 2.9 0 .9-.45 2.3-.98 3.1-.81 1.2-.99 1.2-1.1-.5zm66-3.4c-1.2-1.6-4.6-4.6-7.5-6.6-3-2-5.4-3.8-5.4-4 0-.55 5.4 1.6 6 2.4.29.39 2.4 2.2 4.8 4 4.4 3.4 7.2 7.1 5.3 7.1-.56 0-2-1.3-3.2-2.9zm26 1.3c-.37-.36-.61-2.7-.54-5.2l.14-4.6.72 5c.77 5.3.73 5.9-.32 4.8zm-26-8.5c-.36-2.4-1.4-6.3-2.2-8.8-.87-2.5-1.8-5.2-2-6-.39-1.3-.56-1.3-1.4 0-.8 1.3-.93 1.3-.94-.09-.01-.86-.89-2.5-2-3.6-1.1-1.2-1.7-2.3-1.4-2.6.92-.93-3.9-9.8-5.9-11-2.4-1.3-3.4-.05-4.3 5.1-.31 1.9-.96 4.8-1.5 6.5-.77 2.6-.82 2.4-.4-1.2.4-3.5.23-4.1-1.1-3.6-1.2.45-1.4.16-.87-1.2.41-1.1.28-1.5-.31-1.2-.54.34-2.2-1.8-3.7-4.9-3.1-6.3-3.6-8.8-.61-3.2 2.1 4 3.2 4.8 2.8 2-.12-.96.11-2.5.51-3.4.41-.92.23-2.6-.38-3.8-.74-1.4-.76-2.1-.08-2.1.57 0 1 .67 1 1.5s.4 1.5.88 1.5 1.4 1.4 2.1 3 1.7 3 2.2 3c.54 0 .18-1.2-.82-2.8-.99-1.5-2.4-4-3.2-5.5-.76-1.5-2.4-3.4-3.5-4.2-1.2-.83-1.6-1.5-.99-1.5s1.4.45 1.8 1c.96 1.6 2.3 1.2 2.8-.75.3-1.1.5-.82.57.88.07 1.4.85 3.2 1.8 4 1.5 1.2 1.6 1 .92-1.9-.46-2.1-.33-3.2.37-3.2 1.5 0 1.4 5.3-.17 7-1 1.1-.98 1.2.13.56.93-.53 1.2-.35.93.55-.24.74.46 2.4 1.6 3.6 1.5 1.8 2.2 2 2.9 1 .64-.89.75-.75.36.46-.31.95.01 2.3.71 3 .69.7 1.6 2.1 1.9 3 .37.96 1.2 1.8 1.8 1.8s.82.44.48.98c-.33.53.08 2.2.91 3.8.82 1.5 1.5 2.4 1.5 2 .02-.43 1-.27 2.2.36 1.7.91 1.8 1.3.75 2-1.1.67-1.1 1.1-.13 2.1s1.2.94 1.3-.21c.01-1.2.16-1.2.98.05.53.82.98 3.4.98 5.8.02 3.8.55 4.6 3 4.4 1-.07.47 7.7-.61 8.8-.82.82-1.3-.03-1.8-3.2zm-78-.5c0-.37.96-1.7 2.1-2.9 2.2-2.3 4.3-10 2.8-10-.48 0-.87-.37-.87-.83 0-1.2 7-.86 7 .33.01.55.49.32 1.1-.5.76-1.1.85-.56.32 2-.4 1.9-.69 4.2-.64 5.1.08 1.3-.7 1.6-3.3 1.4-2.3-.16-3.4.2-3.4 1.1 0 .74-.42 1.4-.93 1.4-.52 0-1.2.9-1.6 2-.59 1.9-2.5 2.9-2.5 1.3zm36-1.4c-3.4-1.6-3.6-1.8-1.1-1.4 1.6.31 3.8 1.2 5 2 2.8 2 .89 1.7-3.9-.65zm-40-2.6c-1.1-.27-2.8-1.2-3.8-2-.96-.85-1.8-1.2-1.8-.88s-2.4-.53-5.2-2c-9.1-4.6-3.4-3.7 6.4 1.1 8.6 4.2 9.7 5.1 4.4 3.8zm58-1.1c-2.1-.17-3.5-.74-3.2-1.2.32-.52-.46-.96-1.7-.98-1.3-.01-3.4-.72-4.8-1.6-1.4-.85-1.7-1.3-.66-.97 1 .32 3.6.86 5.8 1.2s3.9 1 3.9 1.5c0 .46.56.63 1.2.38 1.2-.45 4.6 1.1 3.7 1.7-.26.16-2.2.16-4.2-.01zm108-3.5c-3.1-3-4.3-4.9-3.9-6 .45-1.2.21-1.5-.85-1.1-.86.33-1.8-.15-2.1-1.1-.56-1.4-.42-1.5.92-.4 1.2 1 1.1.19-.55-4.1-1.2-3-2.8-6.4-3.6-7.6-2-3-8.4-6.2-14-6.9-7.1-.85-15-4.4-15-6.7-.04-.97 7.6 2.9 8.5 4.3.35.55 2.4 1 4.6 1 2.2 0 5.6.67 7.6 1.5 4.5 1.9 4.7 1.9 4.1-.36-.61-2.3 1-5.4 2.4-4.5.64.4.83-.07.5-1.2-.3-1-1.1-3.9-1.7-6.4-.63-2.5-1.6-5-2.1-5.6-.51-.63-1.1-2.2-1.4-3.4-.57-3-1.4-3.7-2.4-2.1-.46.74-1.3 1-2 .65s-.91-1-.65-1.5c.47-.75-5-5.6-10-9.3-1.4-.96-2-1.8-1.3-1.8.69-.01 1.2-.73 1.2-1.6 0-1.2-.61-1.4-2.5-.99-1.9.48-2.4.29-1.9-.82.32-.85 1.2-1.2 2.2-.84 1.4.54 1.4.35-.08-1.8-.92-1.3-1.7-2.8-1.7-3.4 0-1.2 5.2 4.1 6.8 6.9.62 1.1 1.1 1.4 1.2.68.02-1 .37-.98 1.5.18.82.82 1.5 2 1.5 2.6s.64 1.1 1.4 1.1c.78 0 1.6.79 1.9 1.8s.51-.39.57-3c.07-2.6-.29-4.8-.79-4.8-1.3 0-11-7.9-11-8.9 0-.45 1.9.92 4.2 3 2.3 2.1 5.2 4.1 6.5 4.5 1.9.48 2.3 1.2 2.3 4.5 0 2.2.47 4.8 1 5.9.77 1.4.71 1.9-.25 1.9-.71 0 .17 1.5 2 3.2 4.4 4.4 7.6 8.7 9.1 12 1 2.4 1.7 2.8 4.2 2.4 3.2-.47 4.1.36 11 10 1.6 2.2 3.3 4 3.7 4 2.2.15 5.9 5.3 6.3 8.7l.43 3.8-1.1-3.8c-.6-2.1-1.8-4.1-2.7-4.4s-2-1.2-2.5-2c-.6-.99-1.2-1.1-2.1-.33-2 1.6-6.3-2.4-4.7-4.3.81-.97.85-1.6.14-2.1-.58-.36-1 0-1 .79 0 1.9-6.1 3.1-7.2 1.4-.51-.81-.8-.29-.81 1.5-.02 2 .37 2.6 1.5 2.1 1.2-.46 1.5.45 1.6 4.8.09 7.6.92 15 1.7 16 1.6 1.2 5.5 6 4.9 6-.36 0-2.7-2-5.2-4.4zm-89 1.9c-.31-.8-.37-2-.13-2.8.24-.7.67-.04.96 1.5.56 3 .09 3.7-.83 1.3zm96-2.7c.48-3 .35-4-.49-3.4-.63.39-1.2.18-1.2-.47 0-.68-.84-.95-2-.65-2.8.74-3.2-.42-1.6-5.5.74-2.4 1.2-5.9 1.2-7.6-.21-3.5.84-4.2 2-1.4 1.1 2.4.56 6.6-.95 7.8-1.5 1.2-.97 3.5.74 3.5 2.3.03 3.8 1.7 4.6 5.1.57 2.6.33 3.8-1.1 5.2-1.8 1.7-1.8 1.6-1.2-2.4zm-159-2.5c-.29-1.4-.54-1.1-.97.97-.37 1.8-.23 2.5.4 1.8.53-.53.79-1.8.57-2.8zm27 .74c-1.1-.41-1.5-1-.99-1.3s2.1.04 3.4.79c2.6 1.4.86 1.8-2.4.55zm139 .24c.69-.28 1.3-2.4 1.4-4.7.06-2.3.32-3.4.57-2.4s.8 1.8 1.2 1.8.56 1.4.31 3c-.33 2.3-.94 3-2.6 2.9-1.2-.04-1.6-.3-.89-.58zm-124-2.9c-2.2-1.7-1.7-2.8.79-1.9.9.35 1.6 1.3 1.6 2 0 1.7-.02 1.7-2.4-.13zm-52-1c-.66-1.7 2.1-11 3.5-12 1.2-.77 1.1-.06-.77 4.6-1.4 3.5-1.4 4.2-.25 5 .95.6 1 .89.18.9-.67.01-.96.7-.64 1.5.31.82.12 1.5-.43 1.5s-1.3-.71-1.6-1.6zm124 .17c-1.1-.77-3.9-1.9-6.2-2.5-2.3-.62-4.7-2-5.2-3-.99-1.8-.9-1.9 2.6-.4 4 1.7 11 6.1 11 6.9 0 .75-.38.61-2.6-.91zm-111-5.6c0-1.9.21-2.7.46-1.8s.25 2.5 0 3.5-.46.18-.46-1.8zm268 2.3c-1-.27-1.7-1.3-1.6-2.6.09-1.7.21-1.8.57-.43.25.96 1.1 1.8 1.9 1.8.79 0 1.4.45 1.4 1s-.11.95-.25.88c-.14-.06-1-.32-2-.57zm-325-3.3c-.78-1.3.54-1.3 2.5 0 1.3.84 1.3.97-.19.98-.93.01-2-.43-2.3-.98zm28 .34c-.83-.27-2.2-.76-3-1.1-2.3-.91-2.8-1-6.2-1.2-2.8-.16-3-.32-1.2-1 1.2-.51 1.4-.89.58-.93-.78-.04-1.2-.33-.84-.64.31-.31 2.8.41 5.6 1.6s5.4 1.9 5.9 1.6.9.1.9.9-.04 1.4-.09 1.4c-.04-.04-.75-.3-1.6-.58zm144-1.5c-1.9-2.1-1.9-2.1.35-.76 1.2.76 2.2 1.7 2.2 2.1 0 1.2-.56.91-2.6-1.4zm-20-1.8c-1.3-1.1-1.9-2-1.3-2 .6-.02 1.9.87 2.9 2 2.3 2.6 1.4 2.6-1.6.03zm167-.03c0-.55.68-1 1.5-1s1.5.45 1.5 1-.68 1-1.5 1-1.5-.45-1.5-1zm-311-1.1c-1.8-.51-3.2-1.2-3.2-1.4 0-.74 4.7.26 6.7 1.4 2.2 1.2.93 1.2-3.5-.02zm124-2.6c-1.1-1.1-1.6.43-.89 2.4.71 1.8.76 1.8 1.1.06.2-1 .1-2.1-.22-2.4zm-8-1.8c-.38-2-.49-3.8-.24-4.1.24-.24.75 1.2 1.1 3.2.38 2 .49 3.8.24 4.1-.24.24-.75-1.2-1.1-3.2zm181 2.8c.36-.59.1-1.3-.6-1.5-.69-.24-.04-.29 1.4-.1 1.5.18 3-.1 3.3-.63s1.7-.97 3-.97c3.1 0 2.3 2.4-.79 2.6-1.2.08-3.3.49-4.6.91-1.6.53-2.2.43-1.7-.31zm-321-1.7c-.31-.8-.39-2.4-.17-3.5.21-1.1-.06-2.3-.61-2.6-.58-.36-.24-1.2.81-1.9 1.4-1 2.1-1 3.2-.16 1.1.88 1.5.88 1.8.02.24-.7 2.3.17 5.4 2.2 2.8 1.9 5.5 3.4 6 3.4s.68.45.34 1c-.95 1.5-2.2 1.2-4.7-1.2-1.6-1.5-3.5-2.2-6.1-2.2-4.1 0-5.8 1.6-5 4.6.58 2.2-.27 2.6-1.1.44zm218-.12c-.86-.87-1.6-2.1-1.6-2.7s-.26-.83-.58-.51c-.81.81 1.4 4.8 2.7 4.8.57 0 .33-.71-.54-1.6zm-70-4.2c.29-1.5-.01-1.9-1-1.5-1.6.63-1.6.63-.81 2.8.75 1.9 1.3 1.6 1.8-1.3zm176 .31c0-1.7.18-1.8 2.4-.89 2.2.85 2 2.4-.42 2.4-1.1 0-2-.67-2-1.5zm-15-3.5c2-1.3 3.3-1.3 2.5 0-.34.55-1.4.99-2.3.98-1.5-.01-1.5-.14-.19-.98zm-199-2c-.29-1.1-.17-2 .27-2 .43 0 1 .9 1.3 2s.17 2-.27 2c-.43 0-1-.9-1.3-2zm113-4.1-1.7-2.9-.32 3.1c-.18 1.7-.03 3.8.32 4.8.59 1.5.76 1.5 2-.17 1.1-1.5 1.1-2.3-.32-4.8zm-102 2.1c0-1.9.21-2.7.46-1.8s.25 2.5 0 3.5-.46.17-.46-1.8zm13 2.5c-.33-.55-.91-2.6-1.3-4.5l-.68-3.5 1.6 2.9c1.5 2.7 1.8 7.4.37 5.1zm27-1.1c-.74-.84-1.2-1.7-.91-2s1.3.46 2.2 1.6c1 1.1 1.4 2 .91 2-.49-.02-1.5-.72-2.2-1.6zm144-.35c1.6-1.1 3.3-1.7 3.8-1.4s-.32 1.2-1.8 2c-4 2.1-5.4 1.7-2-.56zm-86-4.6-.05-2-.86 2c-.47 1.1-.88 2.7-.91 3.5-.05 1.3.05 1.3.91 0 .53-.83.94-2.4.91-3.5zm-56-.06c-.64-1.4-.76-2.3-.27-2 .49.3 1.2-.46 1.5-1.7.61-2.2.69-2.2 3.6 1 1.6 1.8 3.2 3.2 3.5 3.2 1.3 0 .14-1.9-3.9-6.4-2.8-3.1-4.2-5.5-3.8-6.5.51-1.4.37-1.4-1.1-.21-2.1 1.7-2.1 1.7.36 4 1.7 1.6 1.8 2 .52 2.5-.95.36-2-.2-2.6-1.5-.6-1.1-1.3-1.8-1.6-1.5-.3.31.19 1.7 1.1 3 1.6 2.4 1.5 2.6-.34 3.6-1.6.85-1.9.77-1.4-.39.3-.79.09-2.3-.48-3.4-.8-1.5-.62-2.4.76-3.9.99-1.1 2.1-3.2 2.5-4.8l.73-2.9 3 3.4c1.6 1.9 2.8 4.1 2.6 4.9s1.9 3.7 4.5 6.4 4.6 5.1 4.3 5.4c-.29.28-1.2-.08-2.1-.81-1.3-1.1-1.8-1.1-2.4-.06-1.3 2-1.8 1.8-4.5-1.8-1.4-1.9-2.5-3-2.5-2.4s.68 1.6 1.5 2.3 1.5 1.8 1.5 2.4-.94.01-2.1-1.4c-2-2.4-2-2.4-1.4-.25.85 3 .09 2.8-1.4-.31zm179-.52c-.07-1.9-.03-5.6.09-8.2.18-3.7-.11-4.8-1.3-4.8-.87 0-1.3.58-1.1 1.3.39 1-1 1.2-6.3.89-7.4-.44-11-1.9-4.4-1.9 2.2 0 6-.61 8.6-1.4l4.6-1.4v-7.1c0-6.8-.11-7.1-2.8-8.2l-2.8-1.1 5.5-.21v-8.9c0-5.5-.43-9.2-1.1-9.6-.77-.47-.71-.93.22-1.5.73-.45 1-1.1.68-1.5-1-1-2.8.48-3.8 3.2-.5 1.3-1.4 2.4-1.9 2.4-.55 0-.71-.75-.36-1.7.41-1.1.24-1.4-.44-1-.59.37-1.8.39-2.7.04-1.5-.56-1.4-.75.16-2 2.4-1.8.84-1.8-2.9.16-1.7.87-3.3 1.4-3.5 1.1-.26-.27.45-.78 1.6-1.2 1.2-.36 2.1-1.4 2.1-2.2 0-1.1-.77-1.4-3-1.1-1.6.23-2.7.06-2.4-.39s1.3-.82 2.3-.82 2.1-.68 2.4-1.5c.88-2.3-9.6-.91-16 2.1-2.8 1.3-5.1 2.1-5.2 1.7-.14-.41-2.4-.63-5-.5-4 .2-4.3.1-2-.67 1.5-.49 4.3-.75 6.2-.57s3.3-.02 3-.43c-.59-.95 3.9-3 6.5-3 1.1 0 2-.48 2-1.1s-.56-.74-1.2-.35c-.82.46-.91.37-.25-.27.55-.53 2.9-1.6 5.3-2.3 4.1-1.3 7.3-3.6 3.5-2.5-1 .3-.82.01.45-.66 1.2-.65 2.2-1.5 2.2-1.9 0-.4.74-1 1.6-1.4 1.2-.47 1.4-.32.58.65-.75.91-.67 1.8.31 3.1 1.3 1.8 1.5 1.8 5.9-1 2.5-1.6 4.5-3.6 4.6-4.6.05-2.4-.47-2.2-5 1.4-2.2 1.7-4.2 2.9-4.5 2.6-.7-.71 7.6-6.8 9.2-6.8.74 0 1-.65.67-1.6-.36-.95-1.2-1.3-2.2-.93-.89.35-3.8.78-6.5.96-4.6.32-7.7 1.8-6.4 3.1.34.34 1.2.26 1.9-.18.71-.44 2-.88 2.8-.97.84-.1 2.3-.5 3.3-.91 1.1-.45 1.8-.29 1.8.41 0 1.3-4.1 3.1-5.3 2.4-.44-.26-1.5.13-2.4.86-1.3 1-1.7 1.1-2 .09-.68-2-3.2-1.5-10 2.3-5.5 3-6 2.3-.7-1 1.1-.71 1.3-1.4.66-2.5-.79-1.2-1.4-1-3.8 1.2-1.6 1.5-3.3 2.7-3.8 2.7-.49 0 .99-1.6 3.3-3.7 2.3-2 4.2-4.1 4.2-4.6s-.72-.18-1.6.71c-1.5 1.5-1.7 1.5-3-.18-.81-1.1-1.4-1.3-1.4-.54-.02.69-.79 1.2-1.7 1.2-1.5 0-1.4-.18.24-1.4 1.1-.78 2.3-1.2 2.7-.96.41.26 1.8-.09 3-.77 1.2-.67 3.5-1.1 5-1 1.5.1 3-.26 3.3-.82.35-.56-.19-1-1.2-1-1.7-.03-1.7-.09-.01-1.4.98-.75 2.6-1.1 3.7-.87 1 .27 2.7.04 3.7-.51 1.3-.73 2.1-.62 2.8.37.86 1.2 1.5 1 3.5-.59l2.5-2-3 .04c-1.6.03-11-.22-21-.54l-18-.59-3.9 2.7c-2.1 1.5-4.1 2.5-4.4 2.2-.26-.27.65-1.1 2-1.8 6.4-3.4 9.4-3.3-92-3.1-37 .1-67 .25-68 .34-2.2.21-2.3 1.4-.19 2.5 1.8 1 4.8 8.9 3.9 10-.32.51-.01.93.68.93.98 0 .99.27.06 1.2-1.7 1.7-1.5 2.8.42 2.1 1.4-.53 1.4-.31.45 1.6-.65 1.2-1.6 1.9-2.2 1.6-1.4-.88-.09 4.1 2.7 10 2.9 6.1 3.1 4.5.4-2.7-1.1-2.9-1.8-5.4-1.5-5.7.68-.67.68-.66 4.8 9.9 2 5.3 5.3 12 7.3 15l3.6 5.8 1.4-2.7c.77-1.5 1.4-3.3 1.4-4 0-.77.42-1.4.94-1.4.51 0 .9.79.86 1.8-.03.96.28 2.6.7 3.6.61 1.4.37 1.8-1.1 1.5-1.6-.27-1.9.39-2.2 3.9-.21 2.9-.76 4.2-1.8 4.2-2.6 0-2.6 2.6.15 9.1 4.2 9.9 4.3 10 3.4 12-.7 1.1-1.1 1.2-2.2.12s-1-1.4-.01-2.1c.74-.46.99-1.5.6-2.5-.53-1.4-.86-1.5-1.6-.42-.74 1-.84 1-.5-.17.24-.83-.61-3.5-1.9-5.9-1.3-2.5-2.1-5.4-1.8-6.5.43-1.7-4-14-5-14-.17 0-.58.7-.91 1.6-.33.86-.2 1.3.28 1 .48-.29 1.1.24 1.4 1.2.28.96.83 2.5 1.2 3.5.5 1.2.26 1.8-.8 1.8-.89 0-1.8-1.3-2.2-3-.37-1.7-1.7-4-3-5.2-1.3-1.2-2.6-3.3-3-4.7-.51-1.9-.42-2.2.38-1 1.6 2.3 1.3-2.6-.45-7.5-.79-2.2-1.4-5-1.4-6.2-.01-1.2-.47-2.5-1-2.8-1.3-.79-1.3-.84.55 7.1.85 3.7 1.4 6.9 1.1 7.1-.24.25-1.3-3.3-2.4-7.9-1.1-4.6-2.3-9.2-2.7-10-.58-1.6-.51-1.7.35-.5.8 1.1 1.1 1.2 1.1.18.03-2-2-5.3-2.9-4.7-.45.28-1.6-.39-2.6-1.5-.99-1.1-1.4-2-1-2 .42 0-.11-.79-1.2-1.8-2.3-2.1-8-11-6.4-9.8 2.2 1.4 1-1.6-1.6-4l-2.7-2.5 230 .2.98 2.2c.94 2 .61 90-.34 91-.22.23-.46-1.1-.53-3zm-196 .62c0-.81-.95-2-2.1-2.6-2.2-1.2-2.1-.39.4 2.8 1.3 1.6 1.7 1.6 1.7-.21zm32-1c-2.2-2.3-1.8-3.4.57-1.7 1 .68 2.7 4.2 2.1 4.2-.16 0-1.4-1.1-2.6-2.5zm-38-1.9c0-.76-.68-1.9-1.5-2.6-1.3-1-1.5-.84-1.5 1.4 0 1.7.55 2.6 1.5 2.6.82 0 1.5-.62 1.5-1.4zm-35-6.2c-.38-2-.49-3.8-.24-4.1.24-.24.75 1.2 1.1 3.2.38 2 .49 3.8.24 4.1-.24.24-.75-1.2-1.1-3.2zm-39 1.7c-.57-.93-4.6-2.2-4.6-1.5 0 .24 1 .84 2.2 1.3 2.9 1.2 3 1.2 2.3.15zm20-.98c-.62-.75-1.3-.94-1.4-.43-.17.52-1.8.8-3.5.64-2.9-.27-3-.21-.73.51 1.4.45 3.5.78 4.7.73 1.7-.07 1.9-.38 1-1.4zm15-.98c-.65-1.2-.75-2.9-.25-4.3.75-2 .91-1.8 1.5 1.6.73 4.5.29 5.5-1.2 2.6zm-28-.69c-1-1.2-.84-1.5.91-1.5 1.2 0 2.1.64 2.1 1.6 0 .86.46 1.3 1 .93s.76-1 .45-1.5-.04-1.9.6-3.1c1-1.9.94-2.1-.54-1.5-2.2.83-4.2-.29-2.5-1.4.87-.54.9-.95.11-1.4-.61-.38-1.1-.21-1.1.37s-.67 1.1-1.5 1.1-1.5.54-1.5 1.2c0 .93-.27.93-1.2 0-.66-.66-1.6-1.2-2-1.2-1.2 0-.48 2.4 1.2 3.7 1.3 1.1 1.3 1.2 0 1.4-.83.08-2.2.06-3-.05-1.2-.15-1.1.12.27 1.1.98.73 3.2 1.4 4.8 1.6 2.6.18 2.9-.01 1.8-1.2zm25-.03c-.33-.85-.16-2.5.37-3.7.82-1.8.95-1.6.87 1.6-.09 4.1-.34 4.5-1.2 2.2zm-39-1.7c-.38-.62.3-.74 1.8-.34 2.2.61 2.2.48-.58-1.8-3.1-2.6-4.7-2.7-2.6-.1 1.1 1.3.97 1.5-.81 1.2-1.2-.18-2.9-1.1-4-2-1-.93-2.2-1.5-2.5-1.2-.37.27-.45.2-.18-.16s-.01-1.3-.62-2c-.73-.88-.76-1.3-.07-1.3 2.3 0 4.2 1.3 3.5 2.4-.38.63.07.54 1-.21 1.8-1.5 1.3-3.6-.7-2.8-.66.26-2.3-.15-3.6-.89-3.3-1.8-5-1.7-2.5.1 1.9 1.5 1.9 1.5 0 1.5-1.8.03-1.8.12-.21 1.4.96.73 1.5 1.6 1.2 1.8-.29.28 1 1.2 2.9 2.1 1.9.9 3.7 2.3 4 3.1.33.87 1.4 1.2 2.6.89 1.1-.3 1.8-.98 1.4-1.5zm48 .72c-.14-.55-.39-2.8-.57-5-.27-3.4-.17-3.6.65-1.5.53 1.4.78 3.6.57 5-.22 1.4-.51 2.1-.65 1.5zm208-.38c0-1.1 4-2.2 5.3-1.4.51.32.32.97-.42 1.4-1.8 1.1-4.9 1.1-4.9.01zm-6-1.6c2.5-1.6 2.4-1.6-2-1.3-3.5.22-4.5-.07-4.5-1.2 0-.98 1.2-1.6 3.5-1.8 1.9-.18 3.7-.66 4-1.1.9-1.3 10-5.3 11-4.9.62.21-1.4 1.4-4.5 2.8-3.1 1.3-5.6 2.8-5.6 3.3 0 .52.79.71 1.8.42.96-.3 3.3-1 5.2-1.6l3.5-1.1-2.7 2.5c-1.5 1.4-3.3 2.5-4 2.5s-1.8.4-2.3.89-2.1 1.2-3.4 1.5l-2.5.65 2.5-1.6zm-226-.52c.34-.55-.34-1-1.5-1s-1.8.45-1.5 1 1 1 1.5 1 1.2-.45 1.5-1zm55-.55c.33-.86.18-1.3-.33-.98-.51.31-1.4-.22-2-1.2-.84-1.4-1-1.5-1.1-.22-.02 1.2 1.7 4 2.6 4 .11 0 .46-.7.79-1.6zm-76-2.4c-1.4-1.1-3.2-2-4-1.9s.08.89 2 1.9c4.5 2.5 5.1 2.5 2 0zm50-4.7c-.89-1.6-1-1.4-1.1.89-.02 1.5.31 3.5.72 4.5.63 1.5.8 1.4 1.1-.89.18-1.5-.15-3.5-.72-4.5zm-27 1.3c-.68-.82-2.4-1.4-3.9-1.4-1.5.07-3.9-.23-5.4-.66-1.6-.45-2.8-.39-2.8.17 0 1.5 4.7 3.3 8.6 3.3 2.5 0 3.3.35 2.8 1.2-.55.98-.42.99.6.04 1-.96 1.1-1.5.06-2.7zm54 .66c0-.41-.45-1.4-.98-2.2-.78-1.2-.97-1.1-.98.75-.01 1.2.43 2.2.98 2.2s.99-.34.98-.75zm-78-1.2c.58-.95-6.2-3.3-7.4-2.6-.36.22-1.3-.02-2.1-.52-1.1-.71-.87-.94 1-1 2.4-.07 2.4-.15-.74-1.7-3.2-1.6-6-.96-3.2.78 1.3.8 1.3.93.02.94-2.6.03.42 2 3.7 2.5 1.7.21 3.9.86 4.9 1.4 2.3 1.3 3 1.4 3.8.16zm9.5-.05c0-.55-1-.97-2.2-.93-2.2.07-2.2.11-.25.93 1.1.47 2.1.89 2.2.93s.25-.38.25-.93zm90 0c-1.2-2.9-2.9-13-2.3-14 .33-.32.59.15.59 1s.7 3.7 1.6 6.2c1.5 4.3 1.6 10 .15 6.5zm120-.54c-1.6-.75-4.3-1.4-5.9-1.4-1.6-.03-2.7-.31-2.3-.62.31-.31 3.8-.26 7.7.13 5 .49 7.1 1.1 7.1 2.1 0 1.7-2.6 1.6-6.5-.17zm-150-2c0-.87-.76-2.3-1.7-3.2-1.6-1.6-1.6-1.6-1 .15.38 1 .69 2.5.69 3.2s.45 1.4 1 1.4 1-.71 1-1.6zm-63-.43c-.83-.53-2.4-.97-3.5-.97-1.7 0-1.7.17-.5.97.83.53 2.4.97 3.5.97 1.7 0 1.7-.17.5-.97zm16-2.2c0-2.5-.48-3.3-2-3.6-1.6-.26-1.7-.14-.5.72 1.3.9 1.3 1-.17 1-.92.01-3-1.1-4.7-2.5s-4.7-3.2-6.8-4l-3.8-1.5 4.2.42c5.2.51 4.8-.88-.48-1.7-2.1-.33-4.9-.88-6.3-1.2-2-.48-2.6-.21-2.7 1.4-.09 1.1.55 2.3 1.4 2.6 1.3.5 1.4.35.31-.92-1-1.3-.98-1.5.39-1.5.91 0 1.9.65 2.2 1.4s2.5 2.2 4.9 3.1c2.4.92 5 2.7 5.9 4l1.5 2.3-6.2-.31c-7.6-.37-5.5 1 2.8 1.9 4.2.45 5.6.33 4.5-.38-1.3-.88-1.3-1 .13-1 .89-.01 2.2.65 2.9 1.5 1.9 2.3 2.5 1.8 2.5-1.7zm5.2-.77c-.75-2.4-2.1-4-4.4-5.1-3.8-1.8-4.6-.9-.95 1.1 1.7.9 2.2 1.9 1.9 3.4-.32 1.5-.18 1.8.45.87.68-.95 1.2-.6 2.1 1.4 1.7 3.7 2.2 2.6.89-1.6zm2.2-3.6c-.65-2-.91-3.8-.58-4.2.32-.33 1.1.8 1.7 2.5.74 2.1 1.7 3 3 3 1.1-.08 1.9-.54 1.9-1 0-.47-.56-.68-1.2-.44-.74.25-1.7-1-2.3-3.1-.55-1.9-1.6-3.7-2.4-4-.92-.31-1.1 0-.65.92.4.76-.18.26-1.3-1.1-1.1-1.4-2.3-2.2-2.6-1.9-.82.83.46 3.9 1.6 3.9.53 0 .69.86.36 1.9-.34 1-.14 2.2.45 2.6.58.36.81 1 .52 1.5s.04 2.1.73 3.6c1.8 3.8 2.3.58.75-4.2zm28 5.7c.75 1.1.88 1.1.6.03-.42-1.6-2.2-1.8-2.4-.22-.13.71-.01.7.35-.04.38-.8.82-.73 1.5.23zm5.8-3.3c0-1.6-.3-1.9-1.1-1.1-.61.61-.81 1.6-.44 2.2 1 1.7 1.6 1.3 1.6-1.1zm-65-.3c-.93-1.1-.94-1.5-.06-1.5.65 0 .9-.45.56-1s-1.1-1-1.6-1-.72.45-.38 1c.65 1-3.7 1.4-4.7.42-.32-.31-.21-1.8.24-3.4.62-2.2.45-3-.67-3.4-2.6-.99-3.9-.57-2.2.72 1.2.89 1.4 1.8.78 3.5-.83 2.2-3.1 3.2-2.6 1.1.14-.62-.32-1.3-1-1.4-.7-.17-.78-.06-.19.23.66.32.38 1-.71 1.8-1.6 1.2-1.2 1.4 3.2 2 2.7.36 5.9 1 7 1.5 3 1.3 3.9 1.2 2.5-.49zm12 .53c.33-.53-.65-1.2-2.2-1.6-1.5-.34-3.3-.78-4-.99-.67-.2-1.5.13-1.9.74s-.28.85.23.54c.5-.31 2 .06 3.4.81 3 1.7 3.7 1.7 4.5.48zm28-2.5c-.27-1.4-.93-2.5-1.5-2.5-.55 0-.72.71-.39 1.6.34.87.61 2.2.61 3.1s.39 1.2.87.94c.47-.29.64-1.7.38-3.1zm149 2.7c1.7-1.8 10-3.1 14-2.1 3.9 1.1 3.9 1.1 3.2.01-.3-.48.46-1.2 1.7-1.6l2.2-.7-5-1.6 2.7-.1c1.5-.06 3-.52 3.3-1 .35-.56-.81-.71-2.8-.39-1.9.31-4.2.03-5.3-.62-1.6-1-1.5-1.1.89-.59 1.6.33 2.8.15 2.8-.44 0-1.2-7-1.3-12-.19-1.9.44-6.2.51-9.5.17-6-.62-6-.63-3-1.9 1.6-.72 5-1.6 7.5-1.9l4.5-.6-3.5-.66c-3.4-.64-3.4-.66 1-.77 4.6-.12 9.7 1.7 5.5 1.9-1.1.06-.43.49 1.5.96 2 .49 6.4.4 10-.2 6-.89 9.9-1 16-.6.66.05.97.46.69.92-.29.45-.01.83.6.83s.86.42.54.94c-.32.51.21 1.4 1.2 2 1.5.93 1.4 1-.73.42-1.4-.38-3.2-.93-4-1.2-1.3-.48-1.3-.32-.13 1.1 1.2 1.5 1.1 1.7-1.5 1.8-1.6.08-4.2.07-5.9-.04-2.2-.14-2.6.07-1.6.75 1.1.76 1 1-.5 1.4-1 .27.35.32 3.1.12l5-.38-6 1.4c-3.3.77-6.1 1.9-6.3 2.5-.48 1.4-5.2 1.4-5.2-.03 0-1.1-4.7-.8-13 .82-2.1.39-2.8.25-2.1-.45zm27-.93c.96-.25 2.5-.25 3.5 0s.18.46-1.8.46-2.7-.21-1.8-.46zm7.8-.11c0-.97 13-2.5 23-2.7 9.8-.21 10-.38 12-3.2.87-1.9.92-2.9.17-3.4-1.4-.9 1.7-4 4-4 .99 0 2.4-.67 3-1.5.79-.95.85-1.5.18-1.5-.58 0-1.3.46-1.7 1s-1.1.72-1.7.35c-.64-.39-.1-1.2 1.3-2 2.9-1.6 4.2-1.8 3.4-.39-.9 1.5.7 1.2 2.9-.53 1.1-.81 2.4-1.5 2.9-1.5 1.5 0-1.4 3-4.6 4.6-1.6.83-2.6 1.8-2.3 2.1s.09 1.2-.51 1.9c-.89 1.1-.2 1.1 3.8-.04 7.9-2.2 9.7-2.6 8.7-1.6-.51.51-2.7 1.6-4.9 2.4l-4 1.5 9-.91-4.5 1.4c-2.5.75-6.6 1.9-9.2 2.6s-4.5 1.6-4.2 2 2 .39 3.7-.12c1.8-.51 5-.93 7.2-.92h4l-2.9 1.5c-1.6.82-4.7 1.4-7 1.4-6.3-.21-36 1.1-39 1.7-1.5.31-2.8.13-2.8-.4zm-247-3.6c-.94-1.1-.76-1.5.89-2.1 3-.96 1.5-2.5-2.1-2-4.2.54-4.5 1.1-1.8 3.4 2.8 2.3 4.7 2.7 3 .64zm43 1.1c-.23-.21-1.5-.9-2.9-1.6-2.4-1.1-2.4-1.1-.56.36 1.6 1.3 4.8 2.4 3.5 1.2zm169-1c2.3-.76 6.4-1.6 9-2 3.1-.36 3.9-.28 2.3.24-2.4.77-2.4.83 1 1.3 2.5.38 1.8.54-2.5.59-3.3.04-7.8.32-10 .63l-4 .56 4.2-1.4zm-153-3.4c-1-1-1.8.51-1 1.9.63 1 .87 1 1.2.01.23-.7.15-1.5-.19-1.9zm13-.27c-1-1.9-3-3.6-3-2.6 0 1.6 2.4 5.5 3.2 5 .47-.29.4-1.4-.15-2.4zm12-.84c0-2.5-1.1-4.1-2.8-4.1-.44-.01-.46.54-.03 1.2.8 1.3.92 1.8 1.2 5.2.22 2.8 1.6.86 1.6-2.3zm62 2.7c0-.45.68-.83 1.5-.83s1.5.38 1.5.83c0 .46-.68.84-1.5.84s-1.5-.38-1.5-.84zm-85-6.3c-.92-1.4-2-2.3-2.5-2-.47.29-1.4-.39-2.1-1.5s-2.1-2-3.2-2c-1.9 0-1.9.04 0 2.2l1.9 2.2-2.2-1.9c-1.2-1-2-2.2-1.8-2.6.25-.41-.66-2-2-3.6s-2.5-3.3-2.5-3.9c0-.55-.95-1.6-2.1-2.3-1.6-.97-1.9-.99-1.4-.09.49.79.34.97-.41.51-.65-.4-.91-1.2-.6-1.7.32-.51.07-.93-.54-.93s-.8-.52-.4-1.2c.4-.67.27-.89-.31-.53-.56.35-1.8-.26-2.8-1.3-.99-1.1-2.2-2-2.8-2-.56 0-.72.3-.36.66.37.36.15 1.3-.47 2-.96 1.2-1.4 1.2-2.7 0-2.1-1.8-5.4-3-4.6-1.7.33.55.1.99-.51.99s-.82.48-.46 1.1c.37.59 1.3.81 2.2.49.82-.31 2-.26 2.6.11.69.42.43.91-.71 1.3-1.6.55-1.4.86 1.1 2.5 1.6 1 2.3 1.2 1.6.49-1.6-1.8-1.6-2.6.3-3.3.89-.34 1.3-.18.94.39-.89 1.4.15 1.2 1.8-.41 1.2-1.2 1.6-1.1 2.7.75 1.2 2 1.2 2.1-.49.65-1.6-1.3-1.8-1.3-1.3 0 .28.83 1.2 1.4 2.2 1.4.89-.07 1.4.21 1.2.63s.71 2 2.2 3.6c1.6 1.7 2.2 3 1.5 3.2-1.3.44-.52 2.2.99 2.2.55 0 .72-.45.38-1-1.7-2.7 1.6-.49 5.2 3.5 3.8 4.3 6.3 5.7 6.3 3.5 0-1.9 3.2.27 4.2 2.9.84 2 1.2 2.2 1.5.92.22-.93-.35-2.8-1.3-4.2zm-74 .7c-1.5-1.5-2.9-2.4-3.3-2.1-.32.33.65 1.8 2.2 3.2 3.6 3.4 4.6 2.4 1.1-1.1zm80 2.2c-.61-1.6-2.4-2.1-2.4-.67 0 1.1 1.1 2.2 2.1 2.2.44 0 .54-.67.22-1.5zm53-.53c-.36-1.4-.62-3.6-.58-5 .07-1.8.35-1.4 1 1.4 1 4.3.63 7.5-.43 3.5zm140 1c0-.86 11-3 15-2.9 3.3.11 1.7.59-7.3 2.3-4.3.78-7.8 1.1-7.8.64zm-260-.76c0-.44-1.3-1.6-3-2.6-2.3-1.4-2.9-1.4-2.4-.35.3.79 1.5 1.9 2.7 2.5 2.8 1.3 2.7 1.3 2.7.41zm43-.91c1.6-1.6 1.6-1.6-.15-1-1 .38-2.3.69-2.8.69s-.7.45-.36 1c.85 1.4 1.4 1.3 3.3-.69zm203 .61c.73-1.2-3.2-1.7-8.2-1.2-3.7.41-4.3.73-2.8 1.3 2.4.95 10 .82 11-.18zm-270-1.9c-.99-1.1-2-1.8-2.3-1.5-.67.67 1.8 3.5 3.1 3.5.57 0 .21-.9-.79-2zm4 .08c-.36-.59-1.1-1.1-1.7-1.1-.66 0-.59.57.2 1.5 1.4 1.7 2.6 1.3 1.5-.45zm31 1.5c0-.22-1.5-1.4-3.2-2.6-2.8-1.9-2.9-2.1-.75-1.5 1.4.38 4.4 1.6 6.8 2.7 4.2 1.9 6 1.9 4.8-.12-.34-.54-2.1-1.3-3.8-1.7s-4.2-1.3-5.5-2.1-2.2-1.1-2.2-.75-.79 0-1.8-.82c-3.2-2.8-4.8-3.2-2.4-.58 1.7 1.9 2 2.7 1 3-.81.28.03 1.3 2.2 2.6 3.3 2 5 2.6 5 1.8zm20-1.7c-.96-.54-1.7-1.6-1.7-2.4 0-1.9-.76-1.8-2.8.23-1.6 1.6-1.7 1.6-2-.01-.17-.93-.81-1.4-1.4-1-.64.4-.79.2-.36-.49 1-1.7-3.9-3.3-6.6-2.2-1.2.49-1.7.93-1 .97.69.03 1.2.75 1.2 1.6 0 .9 1.2 1.8 3 2.1 1.6.32 2.8.91 2.6 1.3-.24.38.78.52 2.3.31 1.5-.21 3.8.04 5.2.56 3 1.1 4.2.46 1.7-.93zm6.3 1.1c0-.55-.04-1.3-.09-1.6-.04-.35.51-1 1.2-1.4.71-.45.92-1.2.44-1.6-.47-.44-1-.24-1.3.45-.65 1.8-1.6 1.6-4.9-1.2-1.6-1.4-3.4-2.5-3.9-2.5-.55.02.03.9 1.3 2 1.3 1 2.2 2.3 2.2 2.7-.05.44.94 1.1 2.2 1.4s1.7.7 1 .75c-1.4.11-.63 2.1.87 2.1.52 0 .94-.45.94-1zm38 .57c0-1.4-4.8-9.5-5.3-9-.36.36-.46-.33-.23-1.5s-.02-3.2-.55-4.4c-.89-2-.94-2-.59.56.22 1.5-.03 3-.55 3.4s.11 1.7 1.4 3.1c1.9 2.1 2 2.4.5 1.9-1.2-.45-1.7-.26-1.4.59.25.69.97 1.1 1.6.99s1.7.88 2.3 2.2c.97 2.1 2.8 3.5 2.8 2.1zm143-.57c0-1.2-5.7-1.2-8.5 0-1.5.63-.61.88 3.2.93 2.9.04 5.2-.38 5.2-.93zm-228-2c-1.4-1.1-2.9-2-3.4-2-1.2.05 3.7 4 4.9 4 .56 0-.12-.9-1.5-2zm157 1.2c0-1.2 1.9-2.6 2.6-1.9.25.25-.23 1-1.1 1.7-.95.79-1.5.86-1.5.2zm20-3.3c-4.3-3.3-8.6-5.4-12-6.3-1.4-.31-3.4-1.3-4.5-2.1-1.8-1.5-1.7-1.5 1.2-.05 1.8.85 4.4 1.6 5.8 1.6 2.7 0 14 7.4 14 9 0 1.3.04 1.3-4.5-2.1zm-100 .8c0-.46-.9-.56-2-.21-1.4.45-2 .18-2-.93 0-.86-.67-1.6-1.5-1.6-1.8 0-1.9 1.2-.33 2.8 1.3 1.3 5.8 1.3 5.8-.06zm19-4.6c-3.8-3.7-3.9-2.6-.11 1.6 1.1 1.2 1.6 2.3 1.1 2.3-.5 0-.24.44.58.96 3.2 2 2.1-1.3-1.6-4.8zm141 5.1c-.27-.44 1-.61 2.9-.39s3.4.57 3.4.79c0 .75-5.9.38-6.4-.4zm65-.75c1.9-.8 3.7-1.4 4-1.4 1.3.07-4.4 2.9-5.9 2.9-.82-.01.01-.67 1.9-1.5zm-213-.39c-.31-.51-.12-1.2.44-1.6s1-1.1 1-1.6-.4-.75-.88-.45c-.49.3-2.1-.38-3.5-1.5-2-1.6-2.5-1.7-2-.48.45 1.2.17 1.4-1.1.93-1.5-.59-1.6-.42-.37 1.5 1.1 1.7 1.4 1.9 1.9.62.47-1.4.76-1.3 2.5.08 1.9 1.5 1.9 1.6.09 1-1.6-.51-1.7-.37-.63.92 1.4 1.6 3.5 2.1 2.6.59zm128 .3c-.35-.35-3-.63-5.9-.62-5.3.01-5.3 0-1.3-.76 2.7-.52 5-.34 7 .54 1.6.72 2.5 1.3 1.9 1.4-.6.04-1.4-.2-1.7-.55zm65-.06c.97-.26 2.3-.24 3 .03.68.28-.12.49-1.8.47-1.6-.03-2.2-.25-1.2-.5zm-280-2.4c-.06-1.1-.77-2.4-1.6-2.9s-1.2-1.2-.78-1.6 1.9.11 3.4 1.1c1.8 1.2 2.9 1.4 3.1.69.2-.6.99-.86 1.8-.57 1.1.43 1.2.09.24-1.9-.63-1.3-1.6-2.4-2.2-2.5-.58-.03-1.8-.38-2.8-.77-1.2-.49-2-.19-2.4.87-.33.88-1.1 1.3-1.7.95-.61-.38-.75-.17-.34.51.4.63.16 1.2-.52 1.2s-.18 1.1 1.1 2.5c1.3 1.4 1.8 2.5 1.2 2.5-.61 0-1.4-.45-1.7-1s-1.1-1-1.7-1c-1.1 0 3.2 3.9 4.3 4 .34.02.57-.89.5-2zm25 .38c-1.2-1.5-1.2-1.6.88-.47 2.3 1.2 2.9 2.1 1.4 2.1-.48 0-1.5-.75-2.2-1.7zm24-.92c-2.2-1.6-3.6-1.8-3.6-.57 0 1 4.3 3.1 5 2.4.27-.25-.38-1.1-1.4-1.9zm-6.2.09c-.31-.83-.98-1.2-1.5-.94-1 .65-.21 2.4 1.2 2.4.5 0 .65-.67.33-1.5zm66-2.4c-.62-1.8-1.4-3-1.6-2.7-.29.28.05 1.9.75 3.6 1.6 4 2.3 3.3.89-.89zm82 3.2c1.8-.22 4.9-.23 7-.01 2.1.22.62.4-3.2.4-3.8.01-5.6-.17-3.8-.39zm85-.71c0-1.1-1-1.6-3.2-1.7l-3.2-.1 3.5-.83c1.9-.45 5.1-.46 7 0 2.2.53 2.7.86 1.3.93-1.2.05-2.9.81-3.8 1.7-1.4 1.4-1.6 1.4-1.6 0zm-185-2.1c-.63-1.4-1.3-2.3-1.6-2.1-.47.47 1.6 4.6 2.2 4.6.25 0-.07-1.1-.69-2.5zm166 1.7c-4.2-.53-5.6-2.1-2.5-3 2.4-.63 2.3-.7-1-1.4-4.1-.91-36 2-37 3.4-.33.51-1.9.57-3.5.15-2.4-.62-.98-1.1 7.6-2.5 5.8-.94 15-2 20-2.4 5.4-.4 10-1.2 10-1.7.35-.58-1.9-.73-5.8-.38-3.5.31-10 .83-15 1.2s-9.6.85-11 1.2c-1.8.41-2.2.25-1.4-.57.57-.62 5.9-1.4 12-1.8 7.1-.43 11-1.1 12-2 1.4-1.6 3.3-1.8 2.3-.22-.5.81.27.94 2.7.44 1.9-.38 4.7-.68 6.3-.66s3.6-.35 4.4-.83c.87-.49 2.7-.44 4.3.11 1.9.65 3.4.59 4.9-.2 1.2-.63 2.4-.9 2.7-.58.31.31-1.1 1.2-3.1 2.1-4.9 2.1-4.6 2.9.84 2 3.8-.57 4.4-.44 3.9.89-.35.92-1.8 1.6-3.5 1.6-3.4 0-3.8 1.6-.66 2.6l2.2.71-2.5.99c-3 1.2-5.5 1.4-9.5.95zm28-.66c2.4-.81 4.7-1.3 4.9-1 .85.86-.45 1.4-4.9 1.9l-4.5.57 4.5-1.5zm-304 .14c0-.16-1.9-2.1-4.2-4.2l-4.2-4 4 4.2c3.7 4 4.6 4.7 4.6 4zm54-.75c0-.65 1.3-.79 3.5-.38 4.6.86 4.4.11-.53-2.5-4.8-2.5-5.6-2.6-4-.58 1.9 2.2.52 2.9-2.3 1.1-1.3-.87-2.7-1.3-3.1-.91-.37.37.57 1.5 2.1 2.5 3.2 2.1 4.3 2.3 4.3.78zm167 .16c-1.7-1.1-.62-1.8 4.4-2.6 2.9-.5 3.6-.39 2.5.39-.82.58-1 1.1-.5 1.1 1.1.1-2.5 1.8-4 1.9-.55.03-1.6-.33-2.4-.8zm22 .18c1.2-.24 3-.23 4 .02.96.25-.06.45-2.3.44s-3-.22-1.7-.46zm-153-2.3c-.29-1.1-1.2-2-2.1-2-1.3 0-1.2.32.27 2 1 1.1 1.9 2 2.1 2s.02-.9-.27-2zm123 .61c-1.3-.73-1.9-1.6-1.4-1.9 1.2-.76 8.3 1.4 8.3 2.5 0 1.3-4.2.92-6.9-.56zm-178-3.1c-.31-.55-1.4-2.2-2.5-3.7-1.5-2.2-1.6-2.6-.33-2.2 2 .78 2-.48-.09-2.8-1.8-2-3.9-2.5-2.8-.77.35.58.77 2.1.91 3.4.14 1.3 1 3.1 1.9 4 1.8 1.8 2.3 4 .66 3-.56-.35-.74.04-.41.89.46 1.2.86 1.2 1.9.31.72-.67 1.1-1.7.75-2.2zm29 1.3c-.45-1.7-.22-2 1-1.6 1.1.43 1.4.19 1-.83-.3-.8-1.2-1.4-2-1.4-.79 0-1.2.42-.87.93.84 1.4-1.3 2.4-2.8 1.3-1.5-1.1-4.7-2.3-4.7-1.7 0 .57 7.3 5.5 8.1 5.5.37 0 .42-.98.11-2.2zm-42-.92c-2.2-1.8-2.2-1.9-.31-.97 1.2.59 2.5 1.5 2.8 2.1.91 1.5.3 1.2-2.5-1.1zm50-.47c-1.3-1.4-1.7-2.3-.9-2 1.3.5 4.5 4.5 3.6 4.5-.18 0-1.4-1.2-2.7-2.6zm129 1.1c-2.3-1.1-2.6-1.4-1-1.4 1.1-.02 2.9.61 3.9 1.4 2.4 1.8 1 1.8-2.9.01zm80 .46c1.2-.78 1.1-.97-.75-.98-1.2-.01-2.2.43-2.2.98 0 1.2 1.1 1.2 3 0zm-175-3.5c-2.1-2.5-3.1-1.6-1.3 1.2.95 1.4 1.9 2.1 2.1 1.5.21-.64-.16-1.8-.83-2.6zm186 2.7c-.33-.54.1-1.2.96-1.6s1.3-1 .93-1.6c-.36-.6.54-.96 2.2-.89 1.7.07 2.1.29 1.1.57-.96.25-1.8.93-1.8 1.5s.96.79 2.1.48c1.2-.32 1.8-.19 1.2.32-1.5 1.4-6.1 2.2-6.8 1.2zm13-.19c.34-.55 1.5-1 2.6-1s1.7.45 1.4 1-1.5 1-2.6 1-1.7-.45-1.4-1zm-262-2.8c-.64-.69-3.5 1.1-3 1.9.3.49 1.2.33 1.9-.35s1.2-1.4 1.1-1.5zm10 .88c.96-.61.59-.86-1.2-.86-1.4 0-2.3.39-2 .87.67 1.1 1.5 1.1 3.3-.01zm32-.61c-.31-.83-1.3-1.5-2.2-1.5-1.2-.01-1.3-.22-.38-.81s.58-1.4-1.4-3.2c-2.5-2.3-2.6-2.3-2-.31.57 1.9.33 2-2 1.6l-2.7-.51 1.9 2.6c2.2 3 3.6 3.4 3.2 1-.16-.9.38-1.8 1.2-2.1 1.2-.35 1.2-.25.14.52-1 .73-1.1 1.1-.14 1.7.93.57.9.95-.14 1.6-.92.58-.33.86 1.9.87 2.4.02 3.1-.34 2.6-1.5zm115 .39c-7.6-1.1-9.6-2.1-3-1.4 3.7.37 4.6.23 3.5-.55-1.2-.81-.92-.9 1-.36 2.6.72 7.2 3.5 5.5 3.3-.53-.07-3.7-.52-7-.99zm20 .16c0-.56 2.2-.71 5.2-.36 7.1.8 7.3 1.3.42 1.3-3.1 0-5.7-.43-5.7-.95zm57-.85c-1.3-.2-2.8.04-3.3.55-.55.55.38.7 2.4.37 2.8-.46 2.9-.6.91-.92zm-265-.2c-.34-.55-.03-1 .69-1 1.4-.04-1.3-2.4-4.7-4.1-1.1-.56-.65.13 1 1.5 2.6 2.2 2.8 2.6 1 2.6-1.7.04-1.8.22-.5 1 2 1.3 3.3 1.3 2.5 0zm197 .64c.23-.19 2-.64 3.9-.99 2.5-.46 3.1-.36 2 .34-1.4.88-6.9 1.5-5.9.65zm119-1.7c-.28-.44.06-1 .75-1.3.94-.37.95-.52.05-.58-.67-.04-1.7.81-2.3 1.9-.86 1.6-.78 1.9.46 1.4.84-.32 1.3-.94 1-1.4zm-302-.64c-.43-1.1-.26-1.4.53-.95 2 1.2 1.3-2-.83-3.9-2.2-2-2.8-.75-.75 1.4 1 1.1.99 1.4-.04 1.8-.99.36-1 .8-.13 1.9 1.6 1.9 2 1.8 1.2-.26zm203 1.4c0-.76 23-4 25-3.6 1.6.34-5.2 1.5-20 3.5-2.3.31-4.2.34-4.2.06zm75-.74c0-1.2 6.1-2.4 8.6-1.7 1.3.33 1 .51-.83.59-1.5.07-3.8.56-5.2 1.1-1.6.58-2.6.6-2.6.04zm-283-.48c0-.26-1-1-2.2-1.7-2-1.1-2.1-1-.88.47 1.3 1.6 3.1 2.2 3.1 1.2zm20-.42c0-.48-.56-1.3-1.2-1.9-1.5-1.2-4.9-1.3-4.1-.08.29.47.95.59 1.5.27.51-.32 1.2.13 1.5.99.64 1.7 2.4 2.2 2.4.68zm14 .45c0-.24-1.4-1.4-3.1-2.7-2-1.4-3-1.7-2.7-.82.52 1.6 5.8 4.8 5.8 3.5zm32 .1c0-.17-1.2-1.4-2.8-2.8l-2.8-2.4 2.4 2.8c2.3 2.6 3.1 3.2 3.1 2.4zm3-.14c0-.25-1.4-2.1-3.1-4-1.7-2-2.8-3.9-2.4-4.3.43-.4.97-.16 1.2.53s.89 1.2 1.4 1.2-.73-2.1-2.8-4.8c-2.1-2.6-2.9-4-1.7-3s2.4 1.8 2.8 1.8c1 0-1.4-4.3-3.3-5.7-2.4-1.8-3.3-1.5-2.1.64.74 1.4.69 2.1-.22 2.4-.8.33-.89.8-.24 1.3.55.46 1.7 1.7 2.5 2.8 1.5 2 1.5 2-.75.09-1.2-1-2.5-1.6-2.9-1.3-.36.35 2 3.4 5.2 6.7 5.8 5.9 6.4 6.5 6.4 5.6zm90-1.5c-.34-.55-1.5-1-2.6-1s-1.9-.47-1.9-1c0-.67 1.9-.8 5.2-.37 5.8.73 7.4 1.4 3.7 1.4-1.9.01-2.1.21-.92.98 1.2.79 1.1.97-.69.98-1.2.01-2.5-.43-2.8-.98zm11 0c-2.6-.65-2.2-.79 2.5-.98 4-.16 4.8-.41 3-.9-2.2-.61-1.9-.82 2.2-1.8 2.6-.59 4.7-.68 4.7-.21s-.44.86-.97.86-.73.61-.44 1.4c.85 2.2-5.2 3.1-11 1.6zm15-.02c.66-.66 2.9-.7 6.4-.11l5.4.9-6.4.11c-4.4.08-6.1-.21-5.4-.9zm-104-1.9c-.57-1.1-1.6-2.3-2.2-2.7-.77-.47-.88-.25-.34.7 2.2 3.7 4.4 5.5 2.5 2zm153 .82c0-.35.63-1.2 1.4-1.8 1.1-.89 1.5-.87 1.8.1.32.98 1.4.89 4.6-.38 2.3-.91 3.9-1.2 3.6-.72-.31.5.25.95 1.2.98 1.4.05 1.2.33-.69 1.1-2.7 1.2-12 1.7-12 .69zm72-.63c-.5-.41-1.2-1.1-1.5-1.6s-1.2-.1-1.9.75c-1.1 1.3-.9 1.6 1.5 1.6 1.5 0 2.4-.34 1.9-.75zm-281-2.4c-.31-1.2-1.8-2.6-3.4-3.2-1.6-.6-2.8-1.4-2.8-1.9s-.45-.78-1-.78c-1.9 0-1 2 1.2 2.9 1.2.47 3.1 1.8 4.2 3 2.4 2.6 2.6 2.6 1.8-.04zm47-.33c-.7-.83-1.7-1.5-2.3-1.5s-.21.9.79 2c2.1 2.3 3.4 1.8 1.5-.49zm198 1.5c.34-.55.16-1-.41-1-.56 0-.74-.79-.39-1.8.61-1.7.54-1.7-1.4 0-2.2 1.9-4.3 2.3-4.3.81 0-1.2 1.9-2.4 4.4-2.8 1-.16 3.1-1.2 4.6-2.3 3.4-2.4 4.1-2.5 3.3-.24-.57 1.5-.44 1.6 1 .38 2.7-2.2 1.9-.43-1 2.3-3.2 3-2.8 3.1 2.2.99 2-.86 4.2-1.3 4.9-1.1.64.26.43.51-.47.55-.89.04-2.2.75-2.9 1.6s-2.5 1.5-4.1 1.5-3.1.45-3.4 1-1.1 1-1.6 1-.72-.45-.38-1zm-105-1c-.36-.58.61-1 2.3-1 1.6 0 4.3-.72 6.1-1.6 1.8-.92 3.9-1.3 4.9-.86 1.3.56.84.96-2 1.7-2.1.53-3.8 1.4-3.8 1.9 0 1.2-6.7 1.1-7.5-.1zm18-.4c0-1.7 5.2-3.6 9.4-3.5 2.6.09 2.4.25-1.4.99-6.8 1.3-8 2-5 2.9l2.5.76-2.8.1c-1.7.06-2.8-.42-2.8-1.3zm38 .77c1.1-.29 2.6-1.3 3.2-2.2.69-.88 1.2-1.1 1.2-.46 0 .82 1.2.75 4-.26 2.2-.79 4-.99 4-.46s1.4.96 3.2.96c4.9 0 2.4 1.3-2.9 1.5-2.6.11-7 .46-9.8.79-2.8.32-4.1.34-3 .04zm90-1.9c0-2.9-1.2-3.2-3.4-.92-1.9 1.9-1.2 3.4 1.5 3.4 1.4 0 1.9-.69 1.9-2.5zm-320 .03c-1.1-.81-2.4-1.5-2.9-1.5s-.13.66.94 1.5 2.4 1.5 2.9 1.5.13-.66-.94-1.5zm26 .53c0-1.2-2-2.4-2.7-1.7-.71.72.55 2.7 1.7 2.7.52 0 .94-.42.94-.94zm13-.61c-.7-.85-2.7-2.5-4.4-3.7l-3.1-2.1 3.4 3.7c3.3 3.5 6.6 5.3 4 2.1zm8.8-.2c-.01-4.4.24-4.6 2.8-2.2 1.4 1.3 2.7 2.1 3 1.8.96-.96-4.2-4.9-5.7-4.3-1.5.57-2 2.8-1.3 5.2.56 1.8 1.2 1.5 1.2-.5zm15 .28c-1-.77-1.6-1.9-1.2-2.5.38-.6.28-.97-.2-.81-.48.15-2.4-1.4-4.2-3.5-1.8-2.1-3.7-3.5-4.1-3.3-.43.27-1.3-.18-2-1s-1.7-1.5-2.3-1.5-.02 1.1 1.2 2.4c1.3 1.3 2.9 2.2 3.7 1.9.76-.29 1.4-.04 1.4.57s-.51 1.1-1.1 1.1c-.78 0-.74.46.12 1.5.68.83 2 1.5 3 1.5s2.5 1.1 3.4 2.5 2.2 2.5 2.9 2.5c.69-.02.42-.65-.62-1.4zm147 .53c.52-.51 3.4-1.2 6.4-1.5l5.5-.56-5.5 1.4c-6.6 1.8-7.7 1.9-6.4.6zm94-.53c1.9-1.4 1.9-1.5-.06-1.5-1.1 0-2.9.66-3.9 1.5-1.9 1.4-1.9 1.5.06 1.5 1.1 0 2.9-.66 3.9-1.5zm14-2.7c2.5-1.3 3.2-5.1.75-4.2-.82.31-1.5 1.1-1.5 1.7-.01.63-1.8 2-4 3.1-2.8 1.3-3.6 2.2-2.7 2.7.72.45 2.1.15 3.3-.69 1.1-.81 3-2 4.3-2.6zm-311 .72c0-.26-1-1-2.2-1.7-2-1.1-2.1-1-.88.47 1.3 1.6 3.1 2.2 3.1 1.2zm74-1.3c-1.9-3.2-5.1-6.5-5.7-5.9-.77.77 4.4 7.7 5.8 7.7.63 0 .62-.62-.04-1.8zm2.8-.75c-.63-1.4-1.6-2.5-2-2.5s-.72.34-.49.75c.22.41.68 1.5 1 2.5.35.96 1.1 1.8 1.6 1.8.64 0 .6-.9-.13-2.5zm142 1.5c1.8-.45 4.1-1.5 5-2.4 1.5-1.5 1.4-1.6-.9-1.6-1.4 0-6.9.93-12 2.1-5.4 1.1-10 1.9-11 1.7-.65-.22 3-1.2 8.1-2.2s9.5-2.2 9.8-2.6c.28-.46 1.2-.58 2-.27.81.31 3.3-.16 5.5-1 4.6-1.9 6.1-2 4-.51-1.2.86-1 .97.81.57 1.5-.33 2.2-.1 1.9.63-.21.63-1.4 1.4-2.7 1.7s-2.5 1.1-2.8 1.8c-.52 1.6-.71 1.6 5.8-.86 14-5.2 19-7.3 20-8.6.94-.81 1.9-1 2.2-.49.32.51-2.2 2.2-5.6 3.7s-8.9 4.1-12 5.8c-4.8 2.4-7.5 3.1-14 3.3-5.5.2-6.6.06-4.1-.54zm44-.3c-.02-1.4-.57-1.6-2.7-1.1-1.9.46-2.4.32-1.9-.48.39-.63 1.4-1.2 2.3-1.2.87 0 3.2-.99 5.1-2.2 2-1.2 3.2-1.7 2.8-1-.95 1.5 1.8 1.6 4.7.06 1.8-.92 1.6-.57-.72 2-2.6 2.8-5.6 3.5-4 1 .4-.64-.14-.61-1.4.08-1.1.61-2.5 1.9-3.1 2.8-.95 1.6-1 1.6-1-.03zm-247-1.5c-.07-.99-.95-1.9-1.9-1.9-2.2-.17-2.2.16-.23 2.2s2.3 2 2.2-.23zm19-.13c-.36-.59-1.1-1.1-1.7-1.1-.66 0-.59.57.2 1.5 1.4 1.7 2.6 1.3 1.5-.45zm134 .93c-1.2-.79-1.1-.97.69-.98 1.2-.01 2.5.43 2.8.98.79 1.3-1.5 1.3-3.5 0zm69 .64c.23-.21 1.5-.9 2.9-1.6 2.4-1.1 2.4-1.1.56.36-1.6 1.3-4.8 2.4-3.5 1.2zm52-.64c2.8-1.2 4.3-1.2 2.5 0-.82.53-2.2.94-3 .91-.99-.03-.82-.34.5-.91zm-208-3c-.2-4-2.1-5.8-2.3-2.2-.14 2.2 1.1 5.2 2.2 5.2.14 0 .19-1.3.11-3zm-104-.39c-.65-1.7-2.4-2.3-2.4-.84 0 .97 2.2 3.3 2.7 2.8.18-.19.05-1.1-.29-2zm179 1.6c1.2-.23 3.3-.23 4.5 0 1.2.24.22.44-2.2.44s-3.5-.2-2.2-.44zm22-.86c2.4-.76 4.9-1.1 5.5-.7 1.4.84-2.7 2.1-6.9 2.1-2.7 0-2.5-.15 1.4-1.4zm-183-.9c-1.1-.81-2.4-1.5-2.9-1.5s-.13.66.94 1.5 2.4 1.5 2.9 1.5.13-.66-.94-1.5zm196 .47c1.1-.51 6.5-1.8 12-2.9 11-2.2 13-3 26-8.4 4.6-1.9 8.1-3 7.9-2.4-.22.64-2.4 1.7-4.8 2.4-2.4.7-6.1 2.1-8.3 3.2-3.5 1.7-3.6 2-1.6 2.3 2.2.32 2.2.43-.93 2-1.8.92-3 1.2-2.6.59.46-.75-.67-.87-3.7-.38-2.4.39-6 .92-7.9 1.2s-4.8.87-6.5 1.4c-4.6 1.4-12 2.2-10 1.1zm-154-1.9c-1.2-2.3-2.9-3.5-3.8-2.7-.69.7 2.6 4.6 3.9 4.6.48 0 .41-.87-.16-1.9zm17-.42c-.35-.9-1-1.6-1.5-1.6-.49 0-.35.88.32 2 1.4 2.3 2.1 2.1 1.2-.31zm77-.64c-2.2-2.4-2.5-3-1.2-3 .93 0 1.7.53 1.7 1.2 0 .65.74 2 1.6 3 2.8 3 .94 2-2.2-1.2zm16 2c.34-.55 1.6-.97 2.8-.93 2.1.07 2.1.1.19.93-2.8 1.2-3.7 1.2-3 0zm14 0-3.5-.74 4.5-.14c2.5-.08 5.6-.41 7-.72 1.8-.41 2.1-.29 1.1.39-1.2.82-1.2 1 0 1.5 2 .79-5 .56-9.1-.3zm93-1.5c.3-2.1 1.3-2.8 4.2-3.1 1.4-.15 3.7-1 5.1-1.9l2.5-1.6-1.7 2.6c-.92 1.4-2.3 2.6-3.1 2.6-.79 0-2.7.67-4.3 1.5-2.5 1.3-2.8 1.3-2.6.03zm-246 .02c0-.27-1.5-1.2-3.2-2l-3.2-1.6 2.4 2c2.2 1.9 4.1 2.6 4.1 1.6zm18-1.3c-4-2.7-7.2-6.2-6.5-7.1.32-.51.12-1.2-.44-1.6-1.6-.98-1.2 2.8.54 5.3.85 1.2 2.2 2.2 2.9 2.2.73 0 1.6.67 1.9 1.5.32.83 1.4 1.5 2.4 1.4 1.4-.05 1.3-.37-.72-1.8zm130 .88c.82-.58 1-1.1.5-1.2-1.5-.18 3.7-1.7 6.2-1.8 3.4-.15 2.7 1.6-1 2.4-1.8.35-4.2.87-5.2 1.1-1.6.4-1.7.3-.5-.56zm33-1c-.96-.61.36-1.2 4.3-2.1 3.2-.65 8-2 11-3 5.2-1.8 5.2-1.8 1.7-2-3.5-.18-3.5-.19 1-1.2 2.5-.54 5.2-1.5 6-2.1 1.3-1 1.3-.92.13.6-1.4 1.7-1.2 1.9 2.1 2.2.69.06 1.2-1.2 1.2-2.8.02-1.6.61-3.1 1.3-3.3.91-.31 1.1.52.71 3-.53 3.3-.43 3.4 2.2 3.1l2.8-.36-3 1c-1.6.56-4.4 1.2-6 1.4-2.6.37-17 4-22 5.8-1.1.36-2.6.26-3.4-.22zm43-.62c0-.74.27-1.3.59-1.2.32.1 3.5-1 7.1-2.5 3.6-1.4 8.8-2.9 12-3.2 2.7-.31 4.1-.32 3-.04-3.4.89-17 5.7-18 6.4-2.3 1.5-4.2 1.7-4.2.45zm-265-2.4c-1.1-1.1-2.1-1.6-2.1-.94 0 1.2 3.2 4 3.8 3.4.19-.18-.6-1.3-1.8-2.4zm111 1.5c0-.78.34-1.6.75-1.8s.24-.31-.38-.16c-.62.14-1.6-.25-2.2-.87-1.3-1.3-1.5.04-.51 2.7.75 2 2.4 2.1 2.4.16zm70 .73c.97-.26 2.3-.24 3 .03.68.28-.12.49-1.8.47-1.6-.03-2.2-.25-1.2-.5zm27-.81c.82-.82 2.3-1.5 3.3-1.5 1.3 0 1 .43-1 1.5-3.6 1.9-4.2 1.9-2.3-.01zm94-.96c.99-1.4 2.4-2.7 3.1-3s.27.82-.94 2.5c-1.2 1.6-2.6 3-3 3-.48 0-.05-1.1.93-2.5zm-237-.62c.44-.33.01-1.2-.94-2-1.5-1.2-1.7-1.2-1.1.34.36.96.19 1.8-.37 1.8-.57 0-.73.48-.37 1.1.36.58.95.7 1.3.26s1-1.1 1.4-1.4zm262 .15c.57-1.1 1.9-2.2 3-2.6s2-1.2 2-2c0-.75.52-1.7 1.2-2.1.72-.44.89-.27.45.43-.47.77-.11.94 1.1.52 1.5-.53 1.5-.39-.2.98-1.1.89-1.5 1.6-.82 1.6s1.8-.56 2.5-1.3c.73-.71 2.1-1.6 3.1-2 .96-.37 1.8-1.2 1.8-1.8 0-.71-.66-.84-1.8-.36-.96.43-3.1.71-4.7.63-3.6-.17-6.4 1.7-4.4 3 .84.53.14.82-2 .83-2.3.02-3.2.49-3.2 1.6 0 .92-.47 1.3-1.2.84-.72-.44-.89-.27-.45.45.4.63.24 1.2-.34 1.2s-1.1.45-1.1 1c0 1.8 3.9 1 5-.93zm-246 .02c0-.5-1.3-2-2.9-3.4-1.8-1.5-2.8-3.2-2.6-4.3.2-1 .39-2.3.43-2.8.12-1.4 1.4.23 1.7 2 .28 1.9 4.2 4.8 6.6 5 2.2.14 2.2-.02.06-1.7-1.2-.93-1.4-.97-.94-.12 1.2 2-.51 1.5-3-.89-1.8-1.7-2.1-2.5-1.2-4.1.7-1.3.71-1.8.03-1.3-.57.35-1.3.18-1.7-.38s-1.1-1-1.6-1-.78.36-.5.8c.93 1.5-1.2 3.6-2.6 2.6-.76-.52-.56-.19.43.72 1.3 1.2 1.4 1.8.55 2.1-.8.27.02 1.7 2.2 3.9 3.6 3.6 5 4.4 5 2.9zm50-2c-1.2-2.4-3.1-1.9-3 .75.06 1.4.22 1.3.85-.31.75-1.9.81-1.9 1.5.33.41 1.3.96 2.1 1.2 1.8s-.02-1.4-.64-2.6zm83 2.1c.55-.55 2.8-1.3 5-1.6 2.7-.4 3.3-.31 2 .27-3.6 1.6-8.1 2.4-7 1.3zm48-1.1c1.9-1 4.6-2.1 6-2.5s.08.49-2.9 1.9c-6.2 2.9-8.3 3.3-3.1.6zm-212-.72c-.5-.91-.68-2.6-.39-3.7.36-1.4.15-1.8-.65-1.3-.64.4-.88 1.2-.53 1.8.41.66-.13.79-1.5.36-1.3-.42-2.1-.24-2.1.46 0 .72-.82.88-2.2.42-2-.63-2.1-.53-.87.95 1.1 1.3 1.7 1.4 2.8.48s1.8-.82 3.1.49c2.1 2.1 3.6 2.2 2.4.02zm139 .09c1.1-.82 2.6-1.3 3.3-.97s1.9.55 2.5.59c2.1.13-2.8 1.8-5.3 1.8-2.4.04-2.4-.01-.53-1.4zm13 .55c2.8-1.2 4.3-1.2 2.5 0-.82.53-2.2.94-3 .91-.99-.03-.82-.34.5-.91zm-146-1.5c-.68-.82-1.7-1.5-2.2-1.5-.56 0-.45.66.24 1.5.68.82 1.7 1.5 2.2 1.5.56 0 .45-.66-.24-1.5zm62-1.4-1.9-2.6 2.3 2.2c1.3 1.2 2.1 2.4 1.9 2.6-.24.24-1.3-.76-2.3-2.2zm-94-.41c1.6-.22 3.1-.96 3.4-1.7.31-.94-.07-1-1.4-.31-1 .52-2.9.87-4.2.76-2.6-.22-3.7.89-2.6 2.6.46.75.88.77 1.3.06.36-.57 2-1.2 3.6-1.4zm46-.17c-1.1-.77-2.1-1.2-2.4-.98-.23.24.44 1.1 1.5 1.8 1.1.77 2.1 1.2 2.4.98.23-.24-.44-1.1-1.5-1.8zm113 1.5-4.5-.6 3.2-1.4c1.8-.75 3-1.7 2.8-2.1-.42-.68 9.6-3.2 10-2.6.15.14-1.9 1.1-4.5 2-5.4 2-7.5 3.5-5 3.5.9 0 1.9.45 2.3 1s.48.93.31.85-2.3-.42-4.8-.75zm-80-1.6c-1.2-3.2-12-11-12-8.7 0 .38-2.3.61-5 .5-4.3-.15-4.9.03-3.8 1.3.73.88 1.4 1.1 1.8.46.69-1.1 2.9-.97 5 .36.91.56 1.6.5 1.8-.18.41-1.2 4.3-.48 4.3.84 0 .48.62.88 1.4.88s1.6.93 1.9 2.1c.47 1.8.32 1.9-1.1.8-.92-.7-2.2-1.9-2.9-2.7s-1.6-1.2-2-.75c-1.1 1.1 5 5.6 6.9 5 .91-.27 2-.02 2.3.55.98 1.6 2.5 1.2 1.9-.41zm63-.16c.24-.62 1.6-1.6 3-2.3 2.3-1.1 2.5-1 1.3.36-1.1 1.3-.94 1.6 1.3 1.6 1.4 0 2.8.34 3 .75.25.41-1.7.75-4.3.75-3.1 0-4.6-.39-4.4-1.1zm178-1.5c0-2.4-2.2-2.4-4.4-.05-2 2.2-1.4 3 1.9 2.4 1.6-.3 2.5-1.2 2.5-2.4zm-132 1.7c0-.23 4.1-1.4 9.1-2.5 15-3.4 18-2.6 4.4.88-7.4 1.9-13 2.6-13 1.6zm89 .15c0-.62 3.1-3.9 5.9-6.2 1.8-1.5 2.2-1.6 1.5-.37-.91 1.6-7.4 7.4-7.4 6.6zm-177-4.5c-.59-3.7-.58-3.7.92-1.2.84 1.4 1.5 2.1 1.6 1.6.02-.52.7-.07 1.5 1s1.5 1.5 1.5.94c.03-.55.49-.32 1 .5.84 1.3.97 1.3.98-.19.01-.93-.43-2-.98-2.3s-1-.04-1 .68c0 .71-.99-.11-2.2-1.8-1.2-1.7-3.1-3.1-4.2-3.1-1.1-.01-2.7-.18-3.5-.37-.94-.23-1.4.2-1.1 1.1.22.82.43 2.2.47 3.1.03.9.61 1.4 1.3 1.2.67-.25.98-1.1.68-1.9s-.08-1.4.48-1.4c.57 0 1.3 1.4 1.7 3 .94 4.3 1.7 3.7.99-.75zm73 2.8c1.1-.43 4-1 6.5-1.4l4.5-.57-4 1.3c-4.5 1.5-11 2-7 .58zm98-.69c3.6-2.8 6.1-3.6 3-.95-1.6 1.4-3.4 2.5-4 2.5-.55-.01-.1-.72 1-1.6zm20-.12c.6-1.1 2.2-2.2 3.5-2.5 2.2-.42 2.3-.26 1.3 1.4-.63 1-1.5 1.8-1.8 1.8s-1.4.29-2.4.65c-1.4.55-1.5.35-.62-1.4zm-204-.27c-1.1-.47-1.6-.89-1.1-.93s.31-.75-.37-1.6-.85-1.5-.37-1.5 1.7 1.1 2.7 2.5c.98 1.4 1.7 2.4 1.5 2.4-.17-.04-1.2-.46-2.3-.93zm164-.5c.35-.91 1.8-1.5 3.7-1.5l3.1.04-3.4 1.5c-4.2 1.8-4.2 1.8-3.5-.04zm-228-.61c-.46-.74.01-.88 1.4-.43 1.4.46 2.1.25 2.1-.64-.01-1.4-1.9-4.9-2-3.5-.01.43-.97.27-2.1-.35-1.7-.93-2-.88-1.3.21 1.3 2.1 1.3 3.8.06 3.9-.66 0-.51.43.34.98 2 1.3 2.3 1.2 1.4-.11zm205 .4c-.34-.34 1.2-1.4 3.5-2.5 5.4-2.4 6.2-1.6 1.1 1.1-2.2 1.1-4.2 1.8-4.6 1.4zm-227-1.5c.33-.97.8-.94 2.1.14.93.77 2 1.1 2.3.75.35-.35.1-.64-.56-.64-.87 0-.92-.52-.18-1.9.77-1.4.65-2-.47-2.5-.81-.31-1.5-.17-1.5.32 0 .5-1.5.47-3.5-.08-3.6-.99-6-.44-5 1.2.31.49 2 .65 3.8.36 2.9-.49 3-.4 1.5.88-.96.78-1.4 1.7-1.1 2.1 1 1 2.1.77 2.6-.6zm40 .79c0-.26-1-1-2.2-1.7-2-1.1-2.1-1-.88.47 1.3 1.6 3.1 2.2 3.1 1.2zm247-1.1c0-.81.68-1.5 1.5-1.5s1.5.4 1.5.89-.68 1.2-1.5 1.5c-.91.35-1.5 0-1.5-.89zm-117-.5c0-.78 6.9-2.4 7.6-1.7.2.2-1.4.84-3.6 1.4-2.2.59-4 .72-4 .31zm22 .03c1.1-.47 2.9-.86 4-.86h2l-2 .86c-1.1.47-2.9.86-4 .86h-2l2-.86zm127-1.9c-.22-.63-.91-.71-1.7-.2-.76.47-1 1.4-.64 2.1.88 1.4 3-.2 2.4-1.9zm-326 1.1c-.03-1.7-1.8-3.4-2.9-2.8-.83.51-.64 1.1.64 2.1 2.1 1.6 2.3 1.7 2.3.69zm-9.1-1.1c.95-.61 1-1.1.24-1.6-1.5-.92-5.3.34-4.6 1.5.72 1.2 2.5 1.2 4.3.04zm32-1.1c-.79-.49-1.7-.67-1.9-.39-.28.27.15.9.94 1.4s1.7.67 1.9.39c.28-.27-.15-.9-.94-1.4zm59 1c0-.55-1-.99-2.2-.98-1.8.01-2 .2-.75.98 1.9 1.2 3 1.2 3 0z"/></svg>
