<?xml version="1.0" encoding="UTF-8"?>
<svg fill="currentColor" fill-rule="evenodd" aria-hidden="true" viewBox="0 0 422 573" xmlns="http://www.w3.org/2000/svg"><path d="m92 535c-.32-.83.19-2.7 1.1-4.1 2-3 3.1-2.7 1.5.36-1.3 2.4-1.3 2.4 6 2.1 6.5-.26 6.5.51 0 1.3-2.5.3-5.3.85-6.2 1.2-1.1.43-2 .13-2.3-.85zm-14-1.7c-.35-.58-.82-3.8-1-7.1-.33-5.2-.04-6.5 2.1-9.3 2.6-3.4 3.2-5.6 1.5-5.6-1.5 0-1.2-2.7.44-3.3.79-.3 1.4-1.4 1.4-2.4.02-4.5 1-12 2.1-16 2.1-8 2.4-10 1.2-9.6-.62.38-1.1 1.3-1.1 1.9 0 .75-1.5 1.3-3.8 1.3-2.1.05-5.3.37-7.2.71-1.9.34-3.7.17-4.1-.39-.38-.62-1.4-.4-2.6.57-1.9 1.5-1.8 1.6.56 1 2.4-.5 2.4-.47.5.95-1.1.81-2.8 2.2-3.8 3-2.2 1.9-3.4 1.1-1.6-1.1 1.1-1.3 1-1.5-.61-.93-1.4.47-1.6.38-.51-.36.76-.54 1.1-1.5.67-2.1-1.1-1.8 3.7-9 9.8-15 3-2.9 5.8-6.2 6.2-7.3.38-1.2 1.2-1.8 2.1-1.4.79.31 2.4-.42 3.6-1.6 1.4-1.4 2.3-1.8 2.6-.96.24.74 1.2.2 2.4-1.4 2.3-3 1.9-4.1-1-2.6-2.9 1.6-5.2 1.3-6.9-.67-.79-.96-1.2-1.2-.86-.59.32.65.02 1.4-.67 1.7-.69.27-.38.54.69.58 1.4.06.59.93-2.7 3-2.6 1.6-5.1 3.8-5.7 5s-2.2 3.2-3.5 4.6c-1.3 1.4-3.9 4.7-5.7 7.3-3.7 5.3-9.6 11-11 9.8-.36-.35-.11-1.2.54-1.8 1.9-1.9 1.4-2.9-.83-1.5-1.1.69-1.8 1.8-1.5 2.5.26.69-.21 1.2-1.1 1.2-1.1 0-1.4-.59-.88-2.1 1.1-3.5 3.3-19 2.8-20-.77-1.3 1.8-11 2.8-10 .48.3 1.1-.6 1.4-2s.79-3.8 1.1-5.3c.66-3.2 4.3-7.4 5.6-6.6.49.31.62 1.5.29 2.7-.48 1.7-.39 1.8.42.67.56-.82 1.6-1.5 2.2-1.5s1.4-.61 1.6-1.4c.34-1-.15-1.2-1.9-.64-1.8.55-2.1.44-1.2-.48.63-.66 2.2-1 3.5-.86 2.1.29 2.4.85 2.3 4.6-.03 2.3.09 4.2.27 4.2.72 0 4.8-2.6 5.4-3.4.35-.49 3.3-1.1 6.6-1.3 4.5-.29 6.4 0 7.5 1.1 1.4 1.4 1.7 1.1 3.6-2.7 1.1-2.3 2.3-5.6 2.7-7.2.91-4 7.5-19 8.6-19 1.1-.44 1.1-3.2 0-3.2-.48 0-2.1 2-3.7 4.5-1.6 2.5-3.3 4.5-3.8 4.5-.59 0-.54-.46.13-1.1.76-.76.82-1.9.19-3.6-.51-1.4-.67-2.9-.35-3.4.31-.51.7-4.4.85-8.7.34-9.5 6-31 14-52 3-8.1 6.8-22 7.4-26 .42-3.3.11-2.8-1.6 2.5-2.6 7.7-2.6 7.8-3.7 6.1-.6-.96-1.3-.57-2.9 1.5-1.1 1.6-2.4 2.5-2.8 2.1-1.4-1.4 9.7-26 12-26 .49 0 .88-.79.89-1.8.01-1.6 4.4-4.5 5.4-3.6.26.25-.35 3.4-1.4 7-1 3.6-1.6 7.1-1.4 7.7.24.61-.91 6.3-2.6 13-1.6 6.3-2.8 12-2.6 12 .2.19 1.5-2.5 2.9-6 2.5-6.3 4.1-13 5.2-22 .67-5.4 1.9-8.3 3.1-7.1.82.82-1.3 13-2.6 14-.43.55-1.3 3.5-1.8 6.5-.94 5-8.4 27-12 35-1.6 3.7-1.8 5.7-.39 4.8 1.2-.74 1.3.71.19 2-.45.52-1.4 2.3-2.1 4l-1.3 3 2.6-2.4c3.1-2.9 3.4-1.9.59 1.6-1.1 1.4-2 3.4-2 4.4 0 1.8.08 1.8 2-.09 1.1-1.1 2.4-3.4 3-5.2.9-3 .95-2.8.52 1.7-.36 3.8-.24 4.5.51 2.8.54-1.2 1.4-2.2 2-2.2 1.7 0 2.2 1.9 1.1 4.2-1 2.1-.94 2.1.93-.23 1.1-1.4 2.1-3 2.1-3.7s1.1-2.1 2.5-3.1c1.9-1.5 2.5-2.9 2.5-6 0-2.2.48-5.3 1.1-6.8.59-1.6 1.5-6.5 2-11 .52-4.5 1.8-11 2.8-14 1-2.9 1.9-6.8 2-8.6s.57-4.1 1.1-5.1c.51-.94 1.4-6.1 1.9-12 .55-5.4 1.5-10 2.1-10 .6-.38.96-1.3.79-2-.16-.7.26-1.5.95-1.7 1.6-.58 1.6 1.9.05 3.5-.93.93-.93 1.2.03 1.2 1.2 0 1.1 8.4-.3 27-.23 3-.18 4.9.11 4.2s.95-1.2 1.5-1.2.26 1.3-.58 2.9-1.6 4.6-1.8 6.5c-.14 2-.47 3.6-.75 3.6s-.57 1.2-.66 2.7l-.15 2.7 2-2.4c1.5-1.8 1.3-1.2-.59 2.4-3 5.6-3.2 6.3-1.1 4.6 1.9-1.6 2-.19.12 1.9-1.9 2.1-3.2 6.6-1.7 5.6 1.5-.94 1.4.07-.35 2.7-.8 1.2-1.6 5.2-1.9 8.7s-.24 5.7.03 4.7c.26-.97.85-1.5 1.3-1.2.45.28.19 2.6-.58 5.2-.77 2.6-1.2 4.9-.97 5.1s1.1-1.9 2-4.8c.85-2.9 2-5.8 2.5-6.4.53-.64 1.4-4 2-7.5s1.3-6.6 1.7-7 .37 1.2.02 3.4c-.36 2.4-.17 4.6.48 5.5.93 1.2 1 1.2.5-.36-.33-1-.13-3.6.45-5.8 1.3-4.8 3.5-5.4 2.5-.64-1.1 5.2-1.9 11-1.3 11 1.2-1.1 5-18 6.8-31 2-14 5.9-33 8.4-42 .83-3 1.5-6.5 1.5-7.8 0-1.2.45-2.3 1-2.3 1.1 0 1.4-4.9.42-7.4-.68-1.8-3.4-1-3.4.91 0 .73-.47 1.6-1 2-.67.42-.84-.36-.48-2.2.46-2.3.38-2.5-.39-.83-.52 1.1-1.2 3.3-1.6 4.8-.34 1.6-1.1 2.6-1.8 2.4-1.6-.57-1-7.8.77-9.2.74-.58 1.5-2 1.8-3.1.21-1.1.92-1.9 1.6-1.8.84.18 1.2-2.1 1.2-7.8 0-5.9.36-8.2 1.4-8.6.8-.3 1.2-1.4.88-2.5-.3-1.2 0-1.9.74-1.9.87 0 1.1-1.1.68-3.5-.31-1.9-.18-3.3.29-3 2 1.2 2.2-5.6.22-9.8-1.6-3.4-1.8-5.4-1.3-10 .37-3.4.99-6.5 1.4-6.9 1.5-1.5 1.9.63.94 5-1.3 6.2.28 5.8 1.8-.43.72-3 1.6-4.7 2.2-4.4.69.43.81-.34.37-2.2-.5-2.1-.41-2.5.33-1.4.82 1.2 1 .98 1-1.1.01-1.4 1.5-4.6 3.3-7 1.8-2.4 3.8-5.5 4.4-6.9l1.1-2.5.15 2.5c.14 2.4.23 2.3 1.6-.8.8-1.8 1.9-3 2.4-2.7.54.34.98-.08.98-.92 0-.9.58-1.3 1.4-.99.77.29 1.7.06 2.1-.53.36-.59 1.6-1.1 2.7-1.1 1.7 0 2-.55 1.7-3.8-.38-4.4 2.2-5.4 3.2-1.2.97 4.1 3.4 3 4.2-1.9 1.1-6.4 2-6.5 1.4-.09-.54 5.2-.5 5.3.8 2.6.92-1.9 1.5-2.4 1.9-1.5.28.78.81-1.3 1.2-4.6 1-9 1.5-10 3.1-10 .81 0 1.5-.45 1.5-1s.63-1 1.4-1c.77 0 1.7-.68 2-1.5.32-.82 1.3-1.5 2.1-1.5.84 0 1.8-1.2 2.1-2.8 1-4.5 1.3-5.2 2.4-5.2.57 0 1 .65 1 1.4s.48 1.7 1.1 2.1c.7.44.96-.49.75-2.7-.21-2.2-.79-3.2-1.7-3.1-.74.15-2-.24-2.8-.88-1.1-.89-1.4-.84-1.4.22-.01 1.2-.15 1.2-.89-.01-.68-1.1-1-.93-1.6.75-.37 1.2-1.1 2.1-1.6 2.1-.59 0-.55-.78.1-2 1.5-2.8-.15-2.6-4.9.57-2.1 1.4-4.5 4-5.2 5.8-1.6 3.9-6.7 9.7-8.5 9.7-.74 0-1.4 1-1.4 2.2-.01 1.7-.23 1.9-.89.87-.68-1.1-1-.92-1.6.76-.38 1.2-1.1 1.9-1.7 1.5-.55-.33-1.2.37-1.6 1.6-.33 1.3-.84 1.7-1.2 1.1-.37-.6-2.4-1.2-4.6-1.3-3.7-.23-4.1.06-7.3 4.8-1.8 2.8-4 5.2-4.8 5.3-.78.18-1.4.92-1.4 1.6 0 1.1-2 2.5-3.6 2.5-.27 0-.23-1 .07-2.2.31-1.2.3-1.7-.01-1-.84 1.8-2.6 1.5-2.2-.39.39-2.2-3-2.6-4.2-.52-.86 1.5-1.1 1.5-2.6-.34-1.6-2-1.6-2-.98.29.47 1.7-.53 4-3.9 9-3.6 5.3-4.8 8.2-5.7 14-1 6-1.6 7.3-3.6 8.2-1.9.88-3.2.7-6.6-.9-2.3-1.1-4.7-2-5.4-2-2.3 0-1.4-1.6 2.7-4.9 4.3-3.4 8.3-10 7.5-12-.68-1.8 3-12 5-14 2.2-2.2 1.9-3.6-.71-3.2-1.2.16-2.8-.04-3.4-.45-1.4-.84-8.9 1.9-12 4.1-1.8 1.6-3.4 1.1-2.3-.72.35-.58 2.5-1.9 4.8-3 2.3-1.1 6-3.6 8.1-5.5 5.1-4.7 7.6-4.8 7.6-.07 0 1.9.45 3.5 1 3.5s1-1.6 1-3.5.45-3.5 1-3.5 1 1.2 1 2.8c0 1.5.45 3.4.99 4.2.71 1.1.85.52.5-2-.4-2.9-.34-3.1.4-1 .84 2.4.9 2.4.99.31.06-1.2.6-2.5 1.2-2.9.76-.47.9.26.43 2.4-.56 2.6-.38 3 1.2 2.8.99-.15 2.1.15 2.4.68.34.52 1.7-.25 3.1-1.7 2-2.1 2.6-2.4 3.1-1.2.32.82-.29 2.3-1.4 3.2-1.1.96-1.9 2.2-1.9 2.7s1.2-.22 2.7-1.7c1.8-1.8 2.9-2.3 3.4-1.5.48.79.9.82 1.4.08.36-.58 1.3-.8 2.2-.49.83.32 2.3-.1 3.2-.94.94-.83 2.6-1.7 3.7-1.9 3.1-.58 2.8-6.7-.4-9.5-2.5-2.2-2.5-2.2-.63-4.3 1.6-1.7 1.6-2.3.56-3.3-.98-.91-1.2-.92-.65-.03.38.67-.16 1.6-1.2 2.2-1.5.81-2.5.5-4.8-1.5-1.6-1.4-3.9-2.8-5.1-3.1s-2.3-1.3-2.3-2.2c-.01-1.3-.18-1.4-.88-.26-.48.76-1.3 1.1-1.9.76-.55-.34-1.2.32-1.6 1.5s-.96 1.8-1.5 1.5c-.5-.31-2 .54-3.2 1.9-2.7 2.9-5 3.2-5 .72.01-1.5.15-1.5.98-.25.78 1.2.97 1 .98-.87.01-1.3-1.6-4.6-3.6-7.3-3.2-4.4-3.8-4.8-4.7-3.2-.7 1.3-.65 1.9.16 2.2.64.21 1.2.85 1.2 1.4 0 .62-.61.53-1.5-.23-.84-.69-1.3-2-.97-3 .3-.96-.04-2-.76-2.2-1.8-.71-1.5 3.7.42 6 .84.97 1.8 2.6 2.2 3.5s1 1.8 1.5 1.8 1.2.73 1.5 1.6c.44 1.1.19 1.4-.81 1.1-.84-.32-2.1.45-3 1.9-1.8 2.7-2 3.9-.63 3 .96-.59 3 2.4 3 4.4 0 1.6-3 1.3-3.6-.43-.31-.82-1.2-1.5-2-1.5-.76 0-1.4-.68-1.4-1.5s.41-1.5.91-1.5c.49 0 .69-.82.43-1.8s.2-2.4 1-3.1c1.3-1.1 1.2-1.7-.67-4.9-1.6-2.7-2.2-3.2-2.5-1.9-.19.96-.75 1.7-1.3 1.7-.99 0-1.3-1.7-1.2-6.5.05-1.6-.14-2.2-.42-1.2s-.93 1.5-1.4 1.2c-.5-.31-.96.02-1 .74-.05.72-.4.22-.78-1.1-.37-1.3-1.2-2.6-1.9-2.8-1.3-.44 1.4 5.8 3 6.9.53.35.6 1.2.17 1.9-.51.83-.38 1 .38.56.69-.43 1.2-.07 1.2.9 0 .89.45 1.3 1 1s1 .08 1 .94-.65 1.6-1.4 1.6c-.8 0-2.1.91-2.9 2-1.6 2.2-2.7 1.5-4.6-3-.58-1.4-1.6-3.2-2.2-4.1-.89-1.2-.79-2.3.45-4.8 1.6-3.1 1.5-3.3-1.4-7.8-1.6-2.6-3-5.2-3-5.8s-1.2-2.4-2.7-3.9c-2.4-2.4-2.7-3.4-2.5-8.4l.18-5.7-8.2-6.1c-4.5-3.4-8.1-6.6-8-7.1.12-.55-.67-1.8-1.8-2.8-1.1-.97-2-2.2-2-2.8s1.4.26 3 1.8c4.2 4.1 3.6 1.8-.79-3-2-2.2-3.4-3.6-3-3s.73 1.6.71 2.5c-.03.95-1.6-.16-4-2.8-4-4.5-6.9-5-3.4-.66 1.1 1.3 4.2 5.3 6.9 8.7 2.7 3.5 6.7 7.9 8.8 9.7 2.5 2.2 3.5 3.6 2.8 4.1-.77.48-.58 1.1.61 2.1 1.6 1.3 1.7 1.2 1-.47-.44-1.2.7-.52 3 1.7 3.6 3.5 3.7 3.7 1.8 5.1-3.2 2.4-4.8 1.9-2.9-.98 1.5-2.3 1.5-2.5.03-1.9-.97.37-1.6.12-1.6-.63 0-1.2-8-.94-15 .5-2.4.49-4.8-1.4-3.1-2.4 1-.64-.95-10-2.1-10-.44 0-.54-.67-.22-1.5.31-.83.97-1.2 1.5-.95.5.31.9.05.9-.57 0-.63-.79-.98-1.8-.79-1.8.37-1.8.08-.8 13 1.2 15 1.4 22 .53 22-.5 0-1.2 2.2-1.6 4.9-.62 4.7-4 12-5 11-.28-.29.21-1.9 1.1-3.6.89-1.7 2.1-5.7 2.6-8.8.56-3.2 1.3-6.4 1.6-7.2 1-2.6.25-10-1.1-12-1.1-1.2-2.1-.65-5.9 3.1-4.4 4.3-4.6 4.7-4.6 10 0 3.2-.4 5.4-.93 5.1-.51-.31-1.2.36-1.6 1.5-.53 1.6-.94 1.8-2.1.89-.78-.65-1.4-1.9-1.4-2.8.05-1.2.25-1.2.84.35.76 1.9.81 1.9 2-.21 1.6-3.1 2.7-11 1.4-11-.56 0-1.4 1.2-1.8 2.8-.58 2-.87 2.3-1.2 1-.5-2.1-2.3-2.4-2.3-.32 0 .79-.5 2.7-1.1 4.2l-1.1 2.8-.92-2.4c-.99-2.6-2.2-2-3.3 1.5-.53 1.8.2 2.5 4.5 4.8 2.8 1.5 5.7 2.6 6.4 2.6s1.5.55 1.7 1.2c.62 1.8-1.8 9.1-3.1 9.6-.66.22-3.7-1.3-6.7-3.4-4.2-2.9-5.8-4.7-6.6-7.6-.97-3.2-.89-4.1.51-5.7.91-1 1.7-2.4 1.7-3 0-.64.42-1.2.94-1.2.51 0 .9-1.9.87-4.2l-.07-4.2-1.6 3.2c-.86 1.8-2 3.2-2.5 3.2-.55 0-1.8.74-2.8 1.6-1.8 1.6-1.8 1.5-1.8-2.6 0-3-.38-4.1-1.2-3.8-1.7.58-1 7.4 1.1 11 1.2 2.1 1.3 3 .43 3.9-.9.9-1.3.73-1.9-.74-.8-2.2-3.9-5.5-4.6-4.8-.98.98.55 5.4 1.9 5.4.76 0 1.4.45 1.4 1s-.81 1-1.8 1c-.99 0-2.7.66-3.8 1.5-2.9 2.2-3.1 2-3.8-3.6-.93-7.8-2.7-8.5-2.7-1.1 0 5.7-.25 6.4-3.5 9.6-1.9 1.9-3.5 4.4-3.5 5.6s-.42 2.2-.94 2.2c-.56 0-.7-2.9-.36-7 .42-4.9.25-7-.55-7-.63 0-1.2-.66-1.2-1.5 0-.89-.59-1.2-1.5-.89-1.2.48-1.5-.68-1.5-7 0-7.4-1.2-11-2.4-6.4-.31 1.2-.83 1.9-1.1 1.6-.95-.95 1.9-10 3.5-12 1.2-.93 1.2-1.4.31-2.4-.85-.85-.91-1.8-.21-3.1.55-1 .67-2.4.25-3.1-1.3-2.2-1.1-5.2.44-7 .84-.96 1.2-1.8.84-1.8s-.23-.86.34-1.9c.74-1.4.69-2-.18-2.3-.82-.27-.49-1.3 1-3.2 2.5-3.2 3-5.4.72-3.6-2.3 1.9-3-1.2-1-4.3 1.2-1.9 1.3-2.6.38-2.9-.99-.33-.97-1.1.07-3.6.73-1.8 1.7-3.2 2.2-3.2 1.2 0 1.1 1.7-.16 4.1-.73 1.4-.71 1.9.06 1.9.61 0 .78.52.38 1.2-.43.7-.27.89.4.47.61-.38.89-1.3.61-2-.68-1.8 1.8-3.7 3.5-2.7.72.44 1.4 2 1.5 3.5.13 2.3.29 2.5 1.2.94.55-.97 2-2.8 3.3-4.1 1.2-1.3 2-2.8 1.7-3.3-.97-1.6 1.3-4.6 4.5-5.9 1.7-.7 3-1.8 3-2.5 0-1.6 5.3-3.5 9.4-3.4 3 .1 2.9.15-.9 1.1-4.9 1.3-5.3 1.6-3.5 2.8 1.1.71.86.93-1.2.94-2.4.02-7.4 3-9.1 5.5-1.4 2 .2 1.7 5.8-1.4 3.1-1.7 5.9-3 6.1-2.7.48.48-2.5 2.4-8.9 5.7-2.6 1.4-4.8 2.8-4.8 3.2 0 1 2.8-.15 8.3-3.5 2.6-1.6 5.1-2.7 5.4-2.3.33.33-.14.88-1 1.2-.9.35-1.6 1.2-1.7 1.8-.02.63-2.9 3.1-6.5 5.6-3.6 2.4-6.3 4.6-6.1 4.8.49.5 4.4-1.9 10-6.5 7.3-5.4 6.9-3.7-.85 3.6-4.4 4.2-7 7.4-6.6 8 .54.87 1.1.87 2.1-.01 2.2-1.8 1.6.54-.61 2.6-1.2 1.1-1.7 2.2-1.1 2.7s-.03 3.6-1.4 7.6c-2.6 7.6-1.6 9.7 2.6 5.6 1.4-1.4 3.4-2.5 4.5-2.5 1.5 0 1.2.59-1.6 3.1-3.2 2.8-3.2 3-.96 2.4 1.4-.38 3.9-.9 5.6-1.2 2.6-.4 3.5-1.3 5.2-5.4 3-7 2.6-8.2-.87-2.6-3.3 5.3-4 5.7-4 2.7 0-1.1.45-1.8 1-1.4s1 .14 1-.44c0-.6-2-1.1-4.7-1.1-5.7 0-5.1-1 .84-1.6 4.4-.41 7.1-2.6 6.2-4.9-.27-.72.43-3.1 1.6-5.4s2.1-4.6 2.1-5.4.96-2.4 2.1-3.8c1.4-1.7 1.9-2 1.5-.7-.35 1.1-.17 1.6.45 1.2.57-.35.77-1.5.45-2.5-.65-2-.22-2.4 3.8-3.4 2.6-.62 2.7-.51 1.7 1.3-.88 1.6-.8 1.9.41 1.4.82-.32 1.7-1.3 1.9-2.2 1.2-4.5 1.5-8.8.66-10-.78-1.2-1.4-1-3.9 1.4-3.8 3.6-13 19-13 22-.11 2-2.6 3.8-2.6 1.9 0-.56-.25-1.6-.55-2.4-.31-.79 1-3.5 2.9-6 2.1-2.8 3.3-5.3 3-6.4-.43-1.7 1.2-4.7 6.5-12 1.9-2.7 4.7-3.1 3.7-.62-.58 1.5-.45 1.5 1.3-.09 1.1-.99 2.5-1.5 3-1.1 1.4.84 1.4-1 .02-3.5-1.2-2.3-.15-2.6 1.5-.32 1 1.4 1.4 1.3 2.8-.95 1-1.6 1.3-2.8.69-3.2-1.8-1.1-1-2.6 1-2 1.1.35 2 .27 2-.18s1.2-2.2 2.5-3.8 2.2-2.2 1.9-1.2c-.5 1.4-.1 1.8 1.8 1.8 3.2 0 3.9-.82 2.5-3.1-.9-1.4-.89-2.2.06-3.1.96-.96 1.2-.86 1.2.48 0 2.4 1.6 2.1 2.3-.3.54-2.1 2.7-2.8 2.7-.94 0 .58.42.8.93.48 1.2-.74 2.4 3.1 1.5 4.6-.43.68-.28.89.35.5 1.6-.97 4.2.34 4.2 2.1 0 1.3.25 1.3 1.6.16 1.5-1.2 1.6-1 .94 1.8-.38 1.7-.26 3.4.27 3.7 1.4.89 7.2-.49 7.2-1.7 0-1.5 5.1-8.7 6.1-8.7.46 0-.58 2-2.3 4.5-3.3 4.7-3.2 7.6.07 3.4 1-1.3 2.9-3.5 4.1-4.9l2.2-2.5-1.6 2.8c-.9 1.5-2.1 4-2.7 5.5l-1 2.7 2.3-2c5.2-4.6 6-4.7 2.4-.19-2.1 2.6-4.2 4.8-4.5 4.8-.38 0-1.6 1.7-2.8 3.8-2 3.6-2 3.8-.35 5.5 1.6 1.7 1.8 1.6 3.1-.88.77-1.4 1.3-3.6 1.1-4.9-.16-1.2.18-2.6.76-2.9.91-.57 1.6 2.1 1.2 4.7-.24 1.5 1.8.71 3.8-1.4 2-2.2 2.1-2.2 3.5-.25.81 1.1 1.5 3.2 1.5 4.8.02 1.8.47 2.7 1.3 2.4.69-.25 1.1-1.1.92-1.8-.18-.75-.39-2.1-.46-3.1-.07-.96-.71-2-1.4-2.2s-1.3-1.2-1.3-2.1c0-1-.54-1.4-1.5-1.1-.82.32-1.5.37-1.5.11 0-1 4.1-4.5 5.2-4.4.89.01.85.26-.15.89-1.1.72-1 .96.42 1.2 1.1.21 2.3 2 3.1 4.4l1.3 4-.52-3.8c-.41-2.9-.19-3.8 1-3.8.85 0 1.6.67 1.6 1.5s.89 1.5 2 1.5c1.3 0 2-.67 2-2 0-2.6 4.1-9 5.8-9 .69 0 1.2.44 1.2.99s-.51 1-1.1 1c-1.5 0-3.8 3.1-3.8 5.2-.02 1.2.56 1.5 2.2 1.1 1.2-.3 2.8-.99 3.5-1.5.84-.65 1.2-.61 1.2.15 0 .61-.45 1.1-1 1.1-1.5 0-1.2 2.6.44 4 .79.65 1.7 2.5 2.1 4s1.3 3.4 2.1 4c2.1 1.8 1.7.01-1.1-4.9-2.9-5.1-3.1-5.9-.8-4 1.5 1.2 1.6 1.2.93-.63-1.8-4.7-1.8-7.2-.13-7.9 2.1-.81 3.5 0 3.5 2 0 .96.56 1.3 1.5.97 1.2-.45 1.5.22 1.5 2.9 0 1.9.4 3.5.89 3.5 1.6 0 2.4-3.4 2.2-9.1-.13-3.1.18-5.9.7-6.2s.97.64 1 2.1c.14 6.1.51 8.2 1.3 7.6.49-.29.88.11.88.91 0 .79.61 2.6 1.4 4.1.75 1.4 1.3 4.4 1.1 6.6-.24 4.2.73 5.1 2.4 2.2.84-1.4 1-1.2 1 1.6.03 2.8.34 3.3 2 2.8 1.1-.28 2.2-.09 2.4.41.26.51.34.35.17-.36-.16-.7-.74-1.2-1.3-1.1-1 .21-2.6-4.5-3.8-11-.48-2.7-.95-3.4-1.6-2.5-1.1 1.7.07-11 1.2-13 .43-.81.61 1.2.39 4.5-.38 5.8.93 11 2.7 11 .47 0 .41-1.2-.12-2.6-1.4-3.6-1.1-5.5.37-2.3.65 1.5 2.4 3.6 3.9 4.8l2.7 2.2.19-6.8.2-6.8.35 6.2c.4 7.1 2.3 8.6 2.3 1.8 0-4.8.75-7.6 2-7.6.46 0 .58 1.6.27 3.5s-.21 4.3.22 5.2c.43.98.67 2.4.54 3.2-.2 1.2.03 1.2 1.3.17.84-.7 1.3-2 1.1-2.9-.26-.93.06-.67.71.57 1.3 2.5 3.4 3.1 2.5.67-.34-.87-.61-2.2-.61-3.1s-.44-1.2-.99-.87c-.57.35-.73-.05-.39-.94.33-.85.1-1.6-.51-1.6s-1.1-1.6-1.1-3.6v-3.6l2.3 2.5c1.6 1.7 2.3 3.6 2.2 6-.07 1.9.24 3.2.67 3 .43-.27.78-.06.78.46 0 .53.7 1.2 1.6 1.6 1.2.46 1.4.13.93-1.4-.45-1.4-.18-2 .93-2 .86 0 1.6-.66 1.6-1.5 0-.94.58-1.2 1.6-.85 1.4.52 1.5.11.92-2.5-.77-3.5 1.3-4.6 2.2-1.2.29 1.1 1.3 2 2.3 2 2.4 0 3.7 5.1 1.7 6.4-1.2.72-1.2 1.4-.42 3.2.59 1.3 1.4 2.3 1.9 2.3.48 0 .36-.95-.26-2.1-.78-1.5-.81-2.4-.09-3.1s1.8.69 3.5 4.6c1.4 3.1 2.8 5.6 3.2 5.6.37 0 .4-.7.07-1.6-.33-.86-.21-1.3.27-1 .47.29.86-.58.86-2 0-1.4-.3-2.5-.68-2.5-.37 0-.72-1.6-.77-3.5-.06-1.9.3-3.2.8-2.9.49.31.9 1.4.9 2.5 0 2.1 1.5 2.6 2.5.88 1.1-1.8-1.6-6.9-3.6-6.9-1 0-2.1-.45-2.4-1-.78-1.3.65-1.3 3.9-.02 1.7.63 2.6.63 2.6 0 0-.54-.35-.98-.79-.98-.43 0-.85-.89-.93-2-.14-1.8.13-1.7 2.3.71 1.9 2.1 2.7 2.4 3.3 1.4.65-1 1-.94 1.8.49.85 1.5 1.3 1.6 2.6.52 1.3-1.1 1.8-1 3.2.35 2 2 4 1.5 3.6-.8-.37-2.1.72-2.1 2.2-.09 1 1.4 1.4 1.4 4.1.02 1.7-.89 3.5-2.9 4.1-4.8.65-1.8 1.2-2.5 1.3-1.6.06 1.2.6 1.5 1.8 1.1 1.5-.57 1.6-.44.38 1-.9 1.1-.98 1.7-.25 1.7.61 0 1.1.9 1.1 2s-.5 2-1.1 2c-.71 0-.87.99-.45 2.8.37 1.5.83 3.6 1 4.8.2 1.1.41 2.2.46 2.5.06.28.53-.17 1-1 .81-1.3 1.2-1.2 2.4.5.83 1.1 1.3 2.6 1.1 3.2-.24.67 0 1.5.52 1.8.53.32.96-.29.96-1.4 0-1.1.68-2.2 1.5-2.5 1.7-.67 2.1-2.8.37-2.4-.61.14-1.4-.38-1.6-1.1-.35-.94-.09-1.1.79-.59.95.59 1.1.33.63-.94-.37-.96-.67-2.2-.67-2.7s-.48-.68-1.1-.32c-.59.37-.82 1.3-.53 2.1.93 2.4-1.2 1.5-3.2-1.4-2.7-3.9-1.7-6.1 1.4-3.2 2.8 2.6 3.1 1.9.77-1.6-1.9-3-.43-3.3 2.1-.46 1 1.1 1.5 2 1.1 2-.4 0 .21 1.3 1.4 2.9 2.5 3.5 6.4 3.9 5.5.6-.42-1.6-.21-1.5.91.45 1.5 2.6 1.2 4.5-.59 3.4-.68-.41-.8-.2-.33.56.56.91 1.3.69 3-.86 2.1-2 2.3-2 3.7-.33.83.98 1.8 2.6 2.2 3.7.53 1.5.4 1.7-.66.79-.79-.66-2.4-.81-4.1-.37l-2.8.74 2.1 1.9c2.1 1.9 3 5.2 1.1 4.1-1.6-.98.06 2.7 2.3 5.2 1.1 1.2 1.5 2.2.95 2.2-.6 0-.89 1-.67 2.2.23 1.2-.28.38-1.1-1.9-.96-2.6-2.4-4.4-3.6-4.7-1.7-.45-2-1-1.4-3.4l.7-2.8-1.9 2.2c-1.7 2-2 2-3 .5-1.1-1.6-1.2-1.6-1.2.01-.03.93.39 2 .94 2.3s.99 1.2.97 1.8-.63.41-1.4-.56c-.73-.96-1.8-1.8-2.4-1.8s-.85-.79-.54-1.8c.42-1.3.32-1.4-.4-.41-1.3 1.8-2.5 1.6-3.4-.52-.66-1.7-.73-1.7-.79-.07-.04.96-.49 1.8-1 1.8-1.2 0-2.4-3.7-1.7-4.8.3-.48-.07-1.7-.82-2.7s-1.2-2.4-.93-3c.23-.61-.5-1.9-1.6-3-1.1-1-2-1.4-2-.74 0 .6.45 1.4 1 1.7s.99 1.4.98 2.3c-.01 1.5-.15 1.5-1.1.19-.91-1.3-.99-1.2-.52.25.31.96.13 1.8-.4 1.8s-.97.48-.97 1.1.53.73 1.2.33c.79-.48.96-.17.52.98-.4 1-.1 1.9.79 2.3.79.31 1.7 1.4 2 2.5.34 1 .98 1.7 1.4 1.4s1.5.59 2.4 1.9c.98 1.5 1.2 2.7.61 3-1.2.73-1.3 3.5-.17 3.5.46 0 1.2-1.6 1.8-3.5.74-2.8 1.2-3.3 2.4-2.5 1.3.87 1.3 1.1.03 1.9-.81.52-1.2 1.2-.81 1.6.36.36.23 1.8-.28 3.1-.52 1.4-.54 2.2-.04 1.9.49-.3 1.2.12 1.5.95 1 2.6 3.4 1.7 3.4-1.3-.01-1.5-.22-2.2-.46-1.5s-1.1 1.2-2 1.2c-1.4 0-1.4-.24.16-1.9.95-1 2.8-2.2 4.2-2.5 2.1-.53 2.3-.92 1.4-2.6-.58-1.1-.71-2-.28-2 .44 0 1.6 1.7 2.5 3.8 1.6 3.5 1.7 3.6 1.2.74l-.45-3 1.4 3.1c.8 1.7 1.8 4.4 2.2 6 .65 2.6.56 2.8-.94 1.5-2.4-2-2.2.29.44 4.6 2.3 3.7 4.2 3.9 4.7.49.44-3 2.2-2.7 2.2.33 0 1.4-.4 2.5-.89 2.5s-1.2 1.1-1.5 2.5c-.69 2.8-2.6 3.4-2.6.93 0-.87-.75-2.3-1.7-3.2-1.6-1.6-1.6-1.4-1 2.3.38 2.3.29 3.4-.21 2.6-.72-1.2-.92-1.2-1.3 0-.27.75-1-.62-1.7-3-.99-3.6-.97-4.6.11-5.3 1.1-.7.98-1.2-.45-2.2-1.5-1.1-1.5-1.5-.33-1.9.94-.36 1.2-1.3.88-2.8-.57-2.2-.59-2.2-1.9.37-.74 1.4-2.2 2.8-3.2 3.2s-2.2 1.3-2.5 2.1-.19 1.3.28.98c.8-.49 5.6 8.3 8 15 1.8 4.8-.32 3-2.4-2-1.9-4.6-3.7-7.2-5-7.2-.34 0-.3.56.09 1.2.42.73.34.9-.19.42-1.2-1.1-1.2-3 .03-3.9.55-.38.62-1 .14-1.5-.47-.44-1-.24-1.3.45-.85 2.4-2.8 1.1-8.1-5.3-2.9-3.5-5.7-6.2-6.2-5.9-.45.28-.96.06-1.1-.48-.19-.54-1.4-.71-2.6-.39-2.2.59-2.8 2.7-1.7 5.7.72 1.9 3.4 1 3.4-1.1 0-1.2.28-1.3 1.5-.27 1.2 1 1.5.98 1.6-.13.04-.75.56-.05 1.2 1.6 1.3 3.5 5.1 7.6 7.1 7.6.78 0 1.6 1.1 1.9 2.5.4 2.1.16 2.4-1.3 2-1.1-.35-2.2.11-2.8 1.2-.57.98-1 1.2-1.1.54s-.71-1.2-1.5-1.2-1.5-.7-1.5-1.6c0-2.9-1.9-.39-2.5 3.4-.5 3.1-2.2 8.9-3 10-.65.97-3.5-1.3-3.5-2.8 0-2.7-1.8-3.3-2.2-.71-.2 1.4-1 2.3-2.2 2.3-1 0-2.3 1-2.7 2.2-1.7 4.6-3.1 2.4-4.1-6.7-.2-1.8-1.1-2.7-3.6-3.3-4.6-1.2-3-3.1 1.9-2.2 4.3.72 4.3.71 2.9-3-1.1-2.8.54-3.6 2.8-1.4.74.74 1.2.8 1.2.15 0-.57-.9-1.8-2-2.8-2.4-2.1-2.6-4-.5-3.1 2 .75 2-1.7 0-3.4-.82-.68-1.5-.85-1.6-.37-.05.48-.7-.48-1.5-2.1l-1.4-3-.11 3c-.1 2.9-.14 2.9-1 .66-.51-1.3-.65-2.8-.3-3.4.34-.56.01-1.4-.75-1.9-2.3-1.5-3.4-1-1.3.57 1.3.96 1.5 1.5.58 1.5-.79.02-1.1.66-.78 1.5.32.82.18 1.5-.31 1.5s-1.4-1.7-2.1-3.7c-1.2-3.5-1.3-3.6-2.2-1.5-1.2 2.6-2.5 2.9-3.4.66-.49-1.3-.79-1.3-1.6-.25-.71.98-.81.86-.38-.47.33-1 .13-2.4-.42-3-.55-.66-1.8-2.2-2.8-3.4l-1.8-2.2-3.2 3c-3.3 3-5.1 3.7-5.1 2 0-.55.55-.89 1.2-.75.67.14 1.4-.79 1.6-2.1.2-1.3.88-2.1 1.5-1.9 1.4.49 4.7-1 4.7-2.1 0-1.8-5.5-.31-7.4 2-2.4 2.8-7.1 4.6-6.2 2.3.35-.9.02-1.2-.93-.82-1.1.41-1.3.06-.86-1.3.45-1.4.36-1.5-.36-.5-.68.95-1.2 1-1.6.25-1.1-1.8-3.6-1.2-3.6.89 0 1.1-.5 2-1.1 2-.66 0-.88-.92-.55-2.2.55-2.2.52-2.2-.88-.31-.8 1.1-1.5 2.4-1.6 3-.05.58-.46-.06-.9-1.4-.76-2.4-.81-2.3-.9.75-.06 1.8.38 3.2.96 3.2s.8.41.49.92c-.85 1.4 1.3 6.3 2.4 5.6.55-.34 1-1.8 1-3.3.02-3.5 1.4-5.7 3-4.6.94.58 1.1.28.61-1.1-.55-1.6-.3-1.5 1.3.43 1.6 1.8 1.8 2.8.95 4.3-.57 1.1-.76 2.8-.42 3.9.67 2.1-1 2.8-1.8.71-.98-2.7-2.9.96-2.2 4.2.82 3.7 3 4.2 2.3.52-.3-1.6-.13-2.2.42-1.7.5.5 1.2 2.6 1.5 4.6.89 5.5-2 4.9-4.2-.87-2-5.3-3.8-7-2.3-2.2.56 1.8 1.4 4.8 1.9 6.6.46 1.9 2.3 7.4 4.1 12 3.5 9.7 5.2 9.8 3.8.34-.84-5.3-.64-6.2 1.1-5.2.59.36 1.1 2.5 1.1 4.8 0 4.4 1.5 4.2 2.3-.26.42-2.4.46-2.4 1.8.75 1.4 3.4 2.9 4.3 2.9 1.8 0-.83-.36-1.5-.8-1.5-.73 0-1.6-3.2-4.1-14-.74-3.4-.59-4.2 1-5.3 1-.73 2-2.6 2-4 .1-2.6.13-2.6 1.2.56 1.4 4.5 2.7 4.1 1.7-.5-.48-2.1-.88-4.6-.9-5.6-.02-1.8.05-1.8 2-.1s2 1.8 2-.01c0-1 .27-1.6.61-1.2.49.5.99 4.6 1.4 11 .02.44.49.53 1 .19s1 .06 1 .88c0 .83.53 1.8 1.2 2.2.78.48.96.18.54-.91-.34-.9-.19-1.9.34-2.2.6-.37.59-1.3-.05-2.5-1.3-2.5-1.3-5.1.08-2.8.56.96 1.4 1.8 2 1.8s.96-.79.97-1.8c.01-1.5.15-1.5.98-.25.53.83.98 2.6.98 3.9.02 2.1-.17 2.2-1.7 1-1.1-.88-.94-.34.48 1.5 1.5 2 1.9 3.4 1.3 4.4-.58 1-.36 2.1.65 3.1.95.95 1.1 1.7.45 1.9-1.2.42-.86 1.8 2.6 9 2.4 5.1 2.5 7.1.35 5.8-.56-.35-.79-1.2-.5-2s.14-1.6-.33-1.9c-.48-.29-.93.37-1 1.5-.08 1.2 1.3 3.3 3.3 5 3.9 3.4 3.8 4.7-.66 4.6-1.7-.05-3.4.46-3.8 1.1-1.1 1.7-.04 6.4 1.6 7.4 1.7 1 1.8 5.7.1 5.8-.69.05-3 .01-5.2-.09-6.5-.31-3.2 1.1 3.6 1.6 3.4.24 6.5.67 6.8.96s.82 3.3 1.2 6.7c.71 6.7-.63 15-2.5 15-.62 0-2.2 1.6-3.5 3.5s-3 3.5-3.8 3.5c-.75 0-1.4.93-1.4 2.1s-.42 1.8-.93 1.5c-.51-.31-1.2.3-1.5 1.4-.33 1.1-1.3 2.2-2.1 2.5-2.1.79-1.8 2.6 1.4 12 1.6 4.8 3.1 12 3.3 15s.98 6.7 1.6 7.1 1.1 1.6.96 2.7.25 3.7.84 5.9 1.6 6.5 2.2 9.5 2.1 8.9 3.2 13c1.2 4.1 1.9 8.8 1.6 10-.28 1.8.12 3.7 1 4.7.82.92 1.5 3.4 1.5 5.5.03 2.1.83 4.7 1.8 5.8 1 1.2 1.8 3.7 1.8 6.1.02 2.2.7 5.8 1.5 8 .81 2.2 1.7 5.5 2 7.4.31 1.9.82 4.6 1.2 6 .38 1.6.02 1.3-1-1-.9-1.9-1.7-4.5-1.8-5.7-.15-1.9-1.1-2.9-1.9-2-.75.76 3.9 12 4.9 12 .7 0 1.6 1.2 1.9 2.8.34 1.5 1.6 6.8 2.9 12 2.3 8.8 3.8 17 4 20 .05.82.37 2.2.71 3 1.2 2.9 2.6 14 1.8 14-.44.16-.56 1.2-.28 2.3.35 1.3 1.2 1.9 2.6 1.7 1.5-.21 2.7.77 4.4 3.7 1.2 2.2 2.3 4.9 2.3 6s.62 4.4 1.4 7.2 1 5.7.6 6.4c-.85 1.4.83 6.9 2.1 6.9 2.2 0 8.5 26 9.5 40 .33 4.4 1.1 11 1.6 14 1.3 7.6 1.2 16-.3 17-.85.78-1 .49-.63-1.1.35-1.5-.01-2.3-1.2-2.6-1.4-.36-1.7-2.1-2-9.8-.65-18-1-21-2.1-16-.51 1.8-.61-.07-.28-5 .42-6.1.27-7.7-.62-6.9-.64.61-1.4 5.3-1.7 10-.43 7.9-.3 9.1.8 7.8 1.1-1.3 1.3.72 1.3 13 0 15-.81 18-1.8 6.7-.34-3.7-.84-8.8-1.1-11-.27-2.5-.69-10-.94-17-.63-17-2.2-26-4.8-28-.43-.3-1-3.9-1.4-8-.67-8.3-1.3-10-6.1-21-1.8-3.9-3.3-7.6-3.3-8.1s-.86-3-1.9-5.4c-1.1-2.4-3.1-10-4.6-18s-3.1-15-3.7-18c-1.5-5.5-10-32-13-40-1.4-3.7-2.5-8.2-2.6-10-.06-6.1-.34-7.3-1.9-8.5-.88-.67-2.6-1.2-3.9-1.2-1.9-.02-2.1-.35-1.4-1.7.71-1.2.27-2.5-1.7-5-1.4-1.8-3.1-3.3-3.7-3.3s-2.4-1.9-4.1-4.2c-4.7-6.6-11-18-9.4-18 1.8 0 1.2-1.7-2-5-2-2.2-2.8-3.8-2.4-5.1.33-1 .11-1.9-.47-1.9-.59 0-1.1 1.6-1.1 3.6 0 2.1-.4 3.3-1 2.9-.55-.34-1-.11-1 .5s-.45.84-1 .5-1-.18-1 .36c0 1.8 3.9 10 4.8 10 .47 0 1.6 2.4 2.5 5.3 1.9 6 2.1 8.4.44 4.7-1.1-2.4-1.1-2.4-1.5-.33-.22 1.2.48 3.9 1.5 6 1.1 2.1 2.7 6.2 3.6 9s2.9 6.9 4.4 9c4.2 5.9 7.1 11 6.4 12-.82.81-3.3-1.4-3.3-3 0-.71-1.5-3.3-3.4-5.7-3.5-4.6-9.6-17-9.6-19 0-1.2-5.8-14-8.2-18-.62-1.1-1.8-3.4-2.7-5l-1.5-3-1.2 8c-1.6 11-1.7 18-.12 19 .79.27 1.1 2.2 1 5.5-.27 6.2 2 15 6.6 27 1.2 2.9 1.7 5.2 1.2 5.2-.53 0-.68.71-.35 1.6.49 1.3.78 1.3 1.6.25.65-.92.8-.5.5 1.4-.24 1.5-.13 2.5.24 2.3.86-.53 2.7 4.7 3.5 10 .44 2.8 1.8 5.5 4.1 8 1.9 2 3.4 4.2 3.4 4.8s1.4 3.3 3 5.9c2.4 3.8 2.9 5.4 2.4 8.2-.57 3.1-.9 3.4-3.2 2.8-2-.51-2.4-.35-1.6.75 2 3.1 3.4 8.8 4.1 16 .4 4.4.89 7.2 1.1 6.2.61-2.8 1.8-2 2 1.5.35 4.6 3 16 4.3 18 .64 1.2 1.9 2.8 2.8 3.5.88.73 1 1 .34.7-1.1-.57-1.4.04-1.2 2.1.04.35-.52 1-1.2 1.5-.97.62-.75.85.8.86 2.8.02 3.2 1.4 2.3 8-1 7.3-2.2 11-5.2 18-2.6 5.7-3.9 10-5.9 20-.99 5.2-3.1 12-7.1 21-.69 1.7-1.2 2.1-1.8 1.2-.47-.75-.77-.14-.77 1.6 0 1.6-2.3 7.4-5.2 13s-5.2 9.7-5.2 9c0-.74-.62-.47-1.5.66-.81 1.1-1.4 2.6-1.4 3.4.03 1 .21 1.1.55.25.28-.69.91-1.2 1.4-1.2.49 0 .63.66.32 1.5-.31.82.15 2.2 1 3.1 1.5 1.5 1.8 1.4 4.5-.47 3-2.2 7.1-2.8 7.1-1.1 0 .55.92 1 2 1 1.1 0 3.1.7 4.4 1.6 1.7 1.1 2.6 1.2 3.1.4.54-.87.9-.88 1.4-.02.49.81 2.3.34 5.9-1.6 2.9-1.5 6.7-2.8 8.6-2.8 1.9-.07 3.7-.45 4.1-.84.4-.4 1.4-.72 2.3-.72 1.4 0 1.4.18.08 1.4-1.9 1.9-7.6 3.3-6.6 1.7.86-1.4-.37-1.5-2.4-.15-.84.54-.99.98-.34.98.66.01.93.88.63 2-.29 1.1-1.2 2-2 2s-2.1.68-3 1.5c-.83.82-2 1.5-2.7 1.5-.79-.01-.74-.29.15-.86 1.1-.68 1-.95-.18-1.4-1.1-.43-1.4-.04-1.1 1.5.27 1.4-.53 2.9-2.3 4.4-2.4 2.1-2.5 2.3-.72 2.4 1.8.03 1.9.11.25 1-.96.56-1.8 1.4-1.8 2s.79.98 1.8 1c1.4.05-6.8 2.7-8.8 2.9-.31.02-1.4.83-2.5 1.8-1.1.96-3.6 2.3-5.5 3-4.2 1.4-7.5 1.6-4.4.19l2-.92-2 .3c-1.1.16-1.9.82-1.8 1.4.13.65-.42.91-1.2.59-1-.39-1.5.07-1.5 1.5 0 1.1-.45 2.3-1 2.7s-1-.11-1-.99c0-2.9 2.9-7.3 5.8-8.7 2.5-1.2 3-1.2 4.7.42 1.8 1.7 2.9 1.6 3.2-.02.26-2 1.8-4.2 3-4.2.76 0 1.4-.51 1.4-1.1s.79-1.8 1.8-2.6c1.6-1.3 1.6-1.4.03-.91-.94.3-2 .11-2.3-.41-.32-.53.51-.96 1.9-.96 2 0 2.6-.63 3.1-3.6.84-4.5.01-5.4-6-6.5-4-.75-5.1-.59-7.2 1.1-2.4 1.9-2.4 2-.45 2 2.2 0 3.6 1.3 2.5 2.3-.33.33-1.4.15-2.5-.4-2.2-1.2-2.2-.99-.81 2.7l1.1 2.8-2.5-2.4c-1.4-1.3-2.6-3.3-2.8-4.5-.16-1.2-.75-1.9-1.3-1.6s-.88 1.5-.73 2.6c.15 1.2-.41 2.4-1.3 2.7-1.2.44-1.4.13-1.1-1.1.26-.96.76-3.4 1.1-5.5.55-3.3.41-3.7-1.1-3.1-1.4.56-1.4.15.5-2.5 1.2-1.7 3.8-6.6 5.8-11 2-4.3 4.2-8.2 5-8.6.86-.49 1.2-1.6.87-2.7-.68-2.1 3-8.9 3.7-6.8.26.73 1.3-1.4 2.2-4.7s2.4-7.6 3-9.5c.7-1.9 1.8-7.1 2.6-12 .7-4.4 1.6-8.4 2.1-9 1.2-1.3 1-2.8-.17-2-.59.37-1-.8-1-2.9 0-3.7 1.6-5.8 2.2-2.9.26 1.3.85.93 2.5-1.7 1.2-1.9 2-3.7 1.7-3.9-.27-.28-.81-.07-1.2.47-.39.53-1.7 1-3 1-2.1.07-2.3-.37-2.4-6.5-.1-3.6-.14-7.6-.07-8.8.08-1.5-.33-2-1.3-1.6-.96.36-1.4-.15-1.4-1.6 0-1.3-.64-2.1-1.6-2.1-1.1 0-1.4-.52-.9-1.8 1.8-4.4 1.7-4.6-.25-2.2l-2.1 2.5.29-3.8c.18-2.3 1.1-4.6 2.4-5.8 1.2-1.1 1.9-2.4 1.6-3-1-1.7-2.1-1-3.7 2.3l-1.6 3.2-.94-2.4c-.91-2.4-.95-2.4-1.5-.29-.31 1.2.05 3.8.79 5.9 1.6 4.5 1.8 9.3.44 9.3-.55 0-1-.87-1-1.9s-.45-2.2-1-2.6-1-1.1-1-1.6.45-.72 1-.38c1.2.77 1.3-.52.05-2.4-1.8-2.9-2.3 3.7-.65 8.6.88 2.6 1.6 5.6 1.5 6.8s-1-.59-2.1-3.8c-2-5.8-2.1-5.8-3.4-3.5-.73 1.3-1.4 3.2-1.4 4.2-.02.98-.65 2-1.4 2.3-.83.32-1.2 1.5-.89 3 .26 1.4.03 2.4-.5 2.4-.54 0-.77 1.1-.5 2.5.4 2.1.09 2.5-1.9 2.5-1.3-.01-3.7-.9-5.4-2s-3.9-2.6-5-3.2c-3.1-2-4.3-3.9-3.8-6.2.41-1.9.34-2-1-.33-1.8 2.2-2.7 2.2-2.7.18 0-.87-.68-2.2-1.5-3.1-1.3-1.3-1.5-1.3-1.5.07 0 2.2-2 2-2.1-.18-.05-1.1-.26-1.3-.6-.45-.41 1-1.1.92-3.2-.43-1.5-.94-3.1-2.3-3.6-3-1.5-1.9-3.6-1.9-8 .09-3.4 1.5-4.6 1.6-8.4.61-4.3-1.1-4.5-1.1-6.7 1.6-1.2 1.5-3.4 5.2-4.9 8.1s-2.9 5.1-3.2 4.8c-.82-.81 5.8-14 7-14 .58 0 .8-.26.48-.57-.95-.95-6.9 2.6-6.2 3.7.65 1.1-2.3 4.9-3.7 4.9-.47 0-.85-.83-.85-1.8 0-1.6-.54-1.8-4.8-1.1-2.8.44-5 .34-5.4-.25-.34-.54-.89.11-1.2 1.4-.51 2-3.3 6.2-7.5 11-1.9 2.3-4.4 8-4.6 10-.36 4.7-.5 5.1-1.6 4.4-.71-.43-.89-.27-.46.43.39.62-.06 3.3-.98 5.9-1.7 4.8-1.9 6.4-2.4 21-.17 5.2-.51 7.1-.97 5.5-.58-2.1-.94-1.4-2 4-.71 3.6-1.4 7.4-1.5 8.5-.13 1.1-.56 3.6-.95 5.5-.52 2.6-.43 3.1.33 2 1.7-2.4 1.2.21-1.4 7.6-1.8 5.1-2.4 8.6-2.2 13 .14 3.8-.3 7.6-1.1 9.2-.72 1.5-1.3 3.8-1.3 5.1 0 1.6-.69 2.6-2 3-2.2.57-2.4 2.2-1.1 8 .82 3.5 0 5-1.5 2.7zm10-.94c.34-.55 1-1 1.6-1s.94.45.94 1-.7 1-1.6 1-1.3-.45-.94-1zm83-1.2c-.68-.68-1.2-1.9-1.2-2.8 0-1.3.22-1.3 1.6.1.88.89 1.4 2.1 1.2 2.8-.27.82-.72.79-1.6-.1zm206-2.9c1.4-2.7.31-4.3-2.6-3.7-2 .37-2.4.04-2.4-1.9 0-2.5 3.7-6.7 5.4-6.1.55.18 2.1-.96 3.4-2.5 1.3-1.6 2.6-2.7 2.9-2.4.25.26-.57 1.5-1.8 2.7-1.5 1.5-1.8 2.4-1.1 2.7.66.22 2-.61 3-1.8l1.8-2.2v3.2c0 1.7-.38 3.2-.85 3.2-.46 0-2.4 2.5-4.4 5.5-3.4 5.3-5.6 7.6-3.4 3.5zm-278-1.6c2-1.6 5.2-1.8 5.2-.36 0 .55.51 1 1.1 1 .73 0 .91-1.1.52-3-.36-1.8-.22-2.8.32-2.5.52.32 2-.79 3.2-2.4 1.6-2.2 2.5-2.7 3-1.8.97 1.6 2.9-.12 3.2-2.9.36-2.7 12-8.1 12-5.6 0 .44-1.6 1.4-3.6 2.1-2.7.98-3.5 1.7-3.1 3.1.27 1-.14 2.1-.92 2.4-.77.29-1.9 1.6-2.5 2.8-.58 1.2-3 3.7-5.3 5.5-3.6 2.7-5 3.2-9.4 3.1-4.5-.1-4.9-.3-3.5-1.4zm250-1.5c3.6-.81 4.5-1.6 6.3-5.4 2.7-5.6 4.2-6.6 3.5-2.4l-.57 3.2 2.5-1.6c3-2 3.6-2 3.3-.39-.17.85.82 1.2 3.1.92 2.4-.23 3.2.01 2.6.86-.41.66-.12 1.6.64 2.2 1.1.77 1 .87-.29.45-.95-.31-1.9.11-2.2.97-.32.82-1.4 1.4-2.3 1.2-.97-.16-2.4.12-3.2.61-.9.56-1.6.51-1.8-.13-.22-.67-1.8-.75-4.6-.22-2.3.45-5.8.78-7.7.75l-3.5-.06 4.2-.94zm-248-3.3c1.6-1.3 3-2.2 3.2-2 .72.71-3.2 4.4-4.6 4.4-.81 0-.22-1 1.4-2.4zm68 .41c-.38-1.4-.7-4-.71-5.7-.01-2.6.31-3.1 1.6-2.6 1.1.43 1.4.26.95-.52-.82-1.3.62-4.4 1.9-4.2.47.08 1.6-2 2.5-4.7.91-2.6 2-5.6 2.4-6.6.58-1.4.38-1.6-.86-1.1-2 .77-2.1-.95-.11-2.6.82-.68 1.5-1.7 1.5-2.2 0-.51.87-2.8 1.9-5.2 3-6.6 5-13 5-16 0-1.4.43-3 .95-3.5s1.4-5 2-10c.61-5 1.3-11 1.5-12 1.2-9.8 4.6-23 7.1-28 .77-1.5 1.4-3.5 1.4-4.4.01-.96.51-1.8 1.1-1.8.71 0 .87.99.44 2.8-.37 1.5-.67 3.6-.67 4.6s-1.3 5-2.8 9c-3.9 9.9-4.4 12-3.1 12 .77 0 .8.57.08 1.9-.56 1-1.7 6.1-2.6 11-2.6 16-2.7 16-1.6 15 2-3 1.1 1.8-1.4 8-1.4 3.3-2.5 6.6-2.5 7.4 0 .83-.79 1.9-1.8 2.4-.96.51-2.5 3-3.5 5.6-.94 2.6-1.3 4.4-.75 4 .54-.33.97-.13.97.44 0 1.6-5 14-6 16-.52.52-.95 1.3-.95 1.7 0 1.1 8.2 2.2 8.9 1.2.66-.99 6.6-3.3 8.5-3.2.6 0 .42.45-.4.98-.92.59-1 .98-.3.98.66.01 1.6-.6 2-1.4.94-1.6 5.3-3.2 5.3-1.9 0 1.2-6.9 4.4-8 3.8-.45-.27-2.8.37-5.2 1.4-2.6 1.2-5.4 1.7-6.8 1.3-1.7-.44-2.1-.27-1.6.58.53.87.03 1-1.8.56-2.6-.66-2.8-.35-3.9 6.1-.29 1.8-.42 1.7-1-.5zm-57-.81c.24-.73-.21-.96-1.2-.58-.87.33-1.6 1-1.6 1.6 0 1.3 2.3.49 2.8-1zm-28-.19c0-.55.9-1 2-1s2 .45 2 1-.9 1-2 1-2-.45-2-1zm5.4-9.8c.47-8.3 3.5-20 7.2-29 .78-1.8 1.4-4.2 1.4-5.3s.46-2.9 1-4c.56-1.1 1.2-3.6 1.4-5.7.23-2.1.73-4.9 1.1-6.3l.72-2.5-4.4 5 2.3-4.8c1.2-2.6 2.4-4.4 2.6-3.8.31.93 3.5-4.7 12-21 1.8-3.6 3.8-7 4.3-7.7.54-.64 1.3-2.4 1.6-3.8.43-1.7 1.2-2.5 2-2.1.87.33 1.4-.16 1.4-1.3 0-1 .74-2.5 1.6-3.2 1.5-1.2 1.6-1.1.89 1-.42 1.3-1.4 4-2.2 5.9-1.2 2.8-1.7 3.2-2.4 2.1-.71-1-.8-.72-.35 1.1.51 2 .41 2.2-.53 1-.99-1.3-1.1-1.2-.59.27.36 1.1-1.1 4.3-3.8 8.6-2.4 3.7-4.6 7.7-5 8.9-.64 2-.37 2.1 6.4 1.8 3.9-.15 7.7-.81 8.5-1.5 1.1-.89 2-.92 3.5-.09 2.6 1.4 2.6 1.4-.53 6.8-1.4 2.4-2.3 4.7-2 5s2.3.06 4.4-.58c4.8-1.4 6.4-1.5 5.6-.16-.34.55-1.6 1-2.8 1s-3.2.7-4.4 1.6c-1.2.85-2.2 1.3-2.2.91 0-.35-1.8.79-4 2.5s-4 3.7-4 4.4-1.2 1.8-2.6 2.4c-3.1 1.4-3.8 1.5-3 .16.77-1.2-.97-1.3-3.3-.08-.96.5-3.1 1.4-4.8 2-2.5.91-3.4 2.2-5.2 7.3-1.2 3.4-2.6 8.9-3.2 12s-1.3 7.7-1.7 9.7c-.53 3-.32 3.9 1 4.4 1.7.64 5.2 6.2 4.8 7.6-.12.41.46.75 1.3.75 1.9 0 2 2.6.08 3.3-.79.31-2-.41-2.8-1.6-1.3-2-1.6-2-3.1-.51-2 2-2.2 3.5-.24 1.9.94-.78 1.6-.83 2-.14.66 1.1-5.4 4.1-6.7 3.4-.41-.23-.75-1.3-.75-2.4s-.46-1.9-1-1.9c-.59 0-.75 1.1-.39 2.5.4 1.6.21 2.5-.56 2.5-.86 0-1-2.4-.67-8.8zm32 3.4c0-.26 1-1 2.2-1.7 2-1.1 2.1-1 .88.47-1.3 1.6-3.1 2.2-3.1 1.2zm-28-5.8c-.45-2.3-.34-2.8.36-1.8.77 1.2.98.93.99-1.2.01-1.5-.4-3-.91-3.3-1.4-.84-2.3 3.1-1.6 6.5.89 4 1.9 3.8 1.1-.27zm3.7 1.8c-.31-.83-.98-1.2-1.5-.94-1 .65-.21 2.4 1.2 2.4.5 0 .65-.67.33-1.5zm4.6-3.6c0-1.4 7.8-2.7 12-2 7.6 1.4 6.4 2.6-2.9 2.6-4.9 0-9-.27-9-.59zm-50-18c-2-.67-1.2-1.9 1.1-1.7 1.2.13 3.1.29 4.2.36 1 .07 1.6.47 1.2.88-.8.81-4.6 1.1-6.4.46zm202-9.7c2-6 1.2-7.9-1.5-3.5-1.2 1.9-2.2 2.8-2.2 2.1 0-1-.42-.89-1.5.5-1 1.4-1.5 1.5-1.5.53-.02-.77 2-3.3 4.5-5.5 3.8-3.4 4.5-4.7 4.5-7.8 0-2 .3-4.4.67-5.4.63-1.6.73-1.6 1.4.17.63 1.6.77 1.4.83-.88.05-1.8-.32-2.6-1-2.1-.75.46-.88-.04-.39-1.6.39-1.2.24-3.2-.34-4.4-1.2-2.4-4.5-24-4.3-28 .28-5.8-5.1-24-9.5-32-1.4-2.5-2.2-4.8-1.8-5.1s.88-.08 1.1.59 1.5 2.8 2.8 4.7c2.7 3.9 8.3 23 12 40 1.4 6.9 2.4 17 2.7 26 .45 13 .34 15-1 14-1.3-1.1-1.6-.81-2.2 2-1.1 5.6-2.6 9.8-3.5 9.8-.47 0-.17-2 .67-4.5zm-179 .45c-.31-.5.3-2.6 1.4-4.7 1-2.1 2.2-4.9 2.6-6.3s-.71.37-2.4 3.9c-3.1 6.5-3.8 9.7-2 8.6.56-.35.76-1 .46-1.5zm169-1.9c1.9-1.6 3.7-2.7 4-2.4.63.63-5.1 5.3-6.5 5.3-.55-.01.57-1.3 2.5-2.9zm25 .72c0-.9.47-2.9 1-4.4.79-2.1 1.3-2.4 2.2-1.6 1.6 1.6 3.8 1.4 3.8-.34 0-.82.4-1.5.88-1.5 1.3 0 2.3 4.4 1.1 4.8-.53.19-.97.97-.97 1.8 0 2.1-2 1.7-2-.33-.02-1.3-.37-1.2-1.5.75l-1.4 2.5-.15-3c-.11-2.1-.29-2.4-.63-1-.66 2.7-2.3 4.4-2.3 2.3zm-205-5.6c2.8-4.1 2.8-4.4 1.1-6.2-1.9-2.1-.65-2.7 1.4-.71.97.97.98.52.06-2.1-.94-2.7-.9-3.5.22-4.2.94-.58 1.9-.23 2.9 1.1 1.7 2.2 3.1 1.6 4.9-1.8.98-1.9.92-2.2-.34-2.2-1.1 0-1.4-.83-1.2-2.9.25-2.1-.03-2.8-1-2.4-1.2.46-1.9-1.4-1.5-3.9.2-1.3-.48-.85-2.5 1.5-1.6 1.8-1.6 2-.15.88 1.9-1.4 2.3-.52.85 1.8-.48.76-1.3 1.1-1.9.75-1.3-.82-2.2 1.6-1.6 4.5.24 1.3.17 1.8-.15 1.1-1-2.1-2.5-.26-1.8 2.3.36 1.4.18 2.4-.42 2.4-.68 0-.74 1-.18 3 1 3.5-.2 4-1.8.75-.6-1.2-1.1-1.7-1.2-.95-.04.71.62 2.6 1.5 4.2.87 1.7 1.1 3 .5 3-.57 0-1-.52-1-1.2 0-1.9-.99-.34-2 3.1-.78 2.7-.67 3.2.75 2.9.91-.18 3-2.3 4.6-4.6zm216 .56c-.03-3.3.36-4.8 1.3-4.8.74 0 1.9-1.8 2.5-4 1.8-5.9 3-4.9 1.5 1.2-.74 2.9-1.4 6.5-1.4 8s-.44 2.8-.97 2.8-.73-.79-.43-1.8-.15-.63-1 .75c-1.5 2.5-1.5 2.4-1.6-2.2zm7.8-2.3c-1.2-4.4 4-9 11-9.5 6.8-.48 8.8.27 3 1.1-6.2.89-11 2.8-9.8 3.8.43.31-.23 1.6-1.5 2.8-1.2 1.2-2.3 2-2.4 1.8zm-182-5c-.33-.34-1.2.44-1.8 1.7-1.1 2.2-1.1 2.3.61.61 1-.95 1.5-2 1.2-2.3zm160-.58c-.39-1.8-1.5-11-2.6-20-1.5-14-2.6-19-6-29-2.3-6.7-4-13-3.8-13 .21-.61 1.6 2.4 3.1 6.8s3.6 11 4.8 14c1.2 3.3 2.5 9.8 3 14 1.8 18 2.1 21 3 24 .49 1.9.53 4.1.08 4.9-.59 1.1-1 .54-1.5-1.9zm-148-5.6 3.3-4.8-3.2 3c-3.5 3.3-5.6 6.5-4.3 6.5.47 0 2.3-2.1 4.2-4.8zm-6.1-5c1.4-1.1 1.4-1.2-.08-1.2-1.7 0-4.8 4.8-4.7 7.2.02.72.75-.05 1.6-1.7s2.3-3.6 3.2-4.2zm198 5.7c.8-1.3 8.5-5.3 9.1-4.7.24.23-.92.99-2.6 1.7-1.6.69-3.5 1.9-4.2 2.6-1.3 1.6-3.4 1.9-2.4.38zm-176-1.1c-.87-.54-.96-.9-.24-.9.64-.01 1.9-.29 2.8-.63.87-.33 1.6-.15 1.6.4 0 1.5-2.5 2.2-4.1 1.1zm148-3.6c-.36-2.6-1.2-5.2-1.8-5.8-.82-.76-.95-.36-.5 1.5.34 1.4.63 4 .64 5.8 0 1.8.52 3.2 1.2 3.2.77 0 .93-1.5.49-4.7zm13 3.8c1.5-.98 9.8-1.5 8.9-.57-.26.26-2.7.72-5.4 1-3.5.39-4.5.25-3.4-.46zm17-5c.29-1.1 1.9-1.5 5.8-1.6l5.4-.1-5 .41c-2.7.23-5.4.95-5.8 1.6-.58.83-.72.73-.44-.31zm-184-3.3c1.2-.55 2-1.5 1.6-2.3-.29-.76-.03-1.4.58-1.4s1.1-.45 1.1-1c0-1.9-2.8-.97-6.1 2.1-2.9 2.8-3.8 3-7.4 2.4-2.2-.35-4.5-1.1-5-1.6-1.4-1.4-2.6-1.1-1.9.49.3.8 1.3 1.7 2.2 1.9 2.8.79 13 .36 15-.65zm130-6c-.24-1.2-.45-.46-.46 1.7s.19 3.2.44 2.3c.25-.95.26-2.8.02-4zm-177-2.3c1-1.2.96-1.5-.27-1.5-.83 0-1.8.68-2.1 1.5-.32.82-.2 1.5.27 1.5.46 0 1.4-.68 2.1-1.5zm194-27c-.34-1.9-1.1-3.7-1.7-4-.66-.41-.87.04-.54 1.2.28 1 .85 3.7 1.3 5.9.46 2.5.91 3.3 1.2 2.2.23-1 .14-3.4-.21-5.2zm-71-3.2c.84-3.1 1.5-3.8 3.9-4 1.9-.14 2.9.27 2.9 1.2 0 .86-.6 1.2-1.5.85-1-.38-1.5.05-1.5 1.3-.01 1.4-.22 1.5-.86.51-.63-.99-1-.66-1.5 1.2-.36 1.4-1 2.6-1.5 2.6s-.39-1.7.16-3.8zm-15-.69c-.31-.79-1.2-1.2-2-.89-2.1.8-1.7 2.3.55 2.3 1.3 0 1.8-.49 1.4-1.4zm-79-7.6c.99-.01 1.2-.84.77-3-.45-2.2-.23-3 .88-3 1.6 0 2-1.6.62-2.4-.47-.29-2.4 1.3-4.2 3.6-1.9 2.3-4.6 5.5-6.2 7.2-1.5 1.7-2.8 3.4-2.8 3.7 0 2 1.8 1.4 5.4-2.1 2.3-2.2 4.8-4 5.5-4zm105 .99c-.04-3.4-.26-4-.91-2.5-1.2 2.9-1.2 10 0 8.5.53-.82.94-3.5.91-6zm2.5 1.6c.48-2.6.36-3.6-.37-3.2-.58.36-1.1 2.3-1.1 4.3 0 4.4.51 4 1.4-1.1zm55-1.3c-.95-3.8-1.9-2.1-1 1.8.41 1.8.95 2.7 1.2 2 .24-.71.15-2.4-.2-3.9zm77 1.7c2.5-2.2 4.7-2.6 5.6-1.1.53.86-.89 1.5-6 2.7-1.8.43-1.8.27.36-1.6zm-240-1.2c0-1.4-1.6-1-2.9.54-.97 1.2-.82 1.3.87.88 1.1-.29 2.1-.93 2.1-1.4zm80-4.1c.69-3.4 1.5-7.4 1.8-8.8.32-1.4.19-2.1-.3-1.7-1.1 1-3.4 8.8-2.9 9.7.23.37.02 2.1-.48 3.8-.49 1.7-.57 3.1-.17 3.1s1.3-2.8 2-6.2zm104 5.3c-1.2-2 1.6-4.7 4.4-4.3 1.8.26 4.4-.62 7.6-2.6 3.5-2.2 5.7-2.8 7.7-2.5 3.6.7 3.5 2-.17 2.1-3.3.09-10 3.5-14 7-1.6 1.5-4.9 1.6-5.7.29zm-109-1.7c-.43-1.1-.26-1.4.53-.95.64.4 1.2.29 1.2-.25s.27-1.8.59-2.8c.5-1.5.42-1.6-.48-.33-.59.82-1.1 1-1.1.5s-.47-.32-1 .5c-1.3 1.9-1.3 5-.03 5 .53 0 .68-.75.33-1.7zm195 .08c-.94-2.4-.74-2.8.89-1.4 1.7 1.4 2 3 .61 3-.49 0-1.2-.71-1.5-1.6zm6.4 1c0-.39 1.2-1.9 2.8-3.3 1.5-1.4 2.3-2.3 1.8-1.9-1.4 1.1-7.6.91-7.6-.25 0-.55 1.1-1 2.5-1 1.4 0 3.6-.71 5-1.6 1.6-1.1 3.4-1.4 5.5-.92 4 .88 3.8 2.3-.46 4.1-1.9.81-3.5 1.9-3.5 2.3s-.79 1.1-1.8 1.5-2.3.88-3 1.2-1.2.27-1.2-.11zm-204-7.3c.06-1.3-.34-2-.9-1.7-.55.34-1 1.5-1 2.6s-.54 1.8-1.2 1.7c-.66-.14-1.4.54-1.6 1.5-.28 1.2.06 1.6 1.2 1.1.94-.36 1.6-.06 1.7.75.14 1.9 1.7-3.2 1.8-6zm149 4.8c1.8-.43 4.1-1.5 5-2.3 2.8-2.5 9.2-5.8 9.2-4.7 0 .54-.39.98-.86.98s-2.9 1.6-5.4 3.5c-3.2 2.5-5.5 3.5-7.9 3.4l-3.3-.1 3.3-.78zm-7.8-2.6-3.5-1.4 3.5.54c1.9.29 3.9.97 4.4 1.5 1.3 1.3-.18 1.1-4.4-.61zm25-.88c.99-1.4 2.4-2.5 3.2-2.5.98-.02.69.76-.92 2.5-3 3.2-4.6 3.2-2.3.03zm9.9-1.6c-1.3-2.7-1.6-4.6-1.1-6.6.43-1.6.79-5.2.8-8.1.01-2.9.35-4.9.76-4.5 1.2 1.3 1.3 3.4.52 11-.89 7.8.19 9.6 4.1 7.1 1.3-.85 2.4-1.1 2.8-.5.32.52 1.4.69 2.3.38.95-.31.16.72-1.8 2.3-4.7 3.9-6.3 3.7-8.4-.72zm23-.21c-.05-2.1-1-5.6-2.1-7.7s-2-4.4-2-5-.96-2.4-2.1-4c-1.3-1.8-1.9-3.6-1.5-4.6.73-1.9-4.9-11-7.4-12-.82-.31-2.1-.82-2.8-1.1s-1.2.02-1.2.76-1.1 2.6-2.5 4c-1.4 1.5-2.5 3.6-2.5 4.7 0 1.4-.47 1.8-1.5 1.4-2.6-1-1.7-5.9 2-11 3.4-4.5 4.4-7.9 2.6-9-.51-.32-1.2-1.9-1.6-3.6-.37-1.7-1.3-3-2.1-3-.81 0-1.2-.45-.86-1 1.2-1.9 3.3-.98 4 1.8.38 1.5 1.7 4.8 3 7.4 1.3 2.6 2 5 1.7 5.3-.37.38.45.52 1.8.33 2.1-.3 3 .44 5.2 4.2 1.5 2.5 3 6.6 3.4 9.2.35 2.6 1.3 5.2 2 5.9 1 .84 1.4.84 1.4.02 0-1.6 1.6-1.4 3.4.45 2.1 2.1 2 3.1-.49 3.7l-2.1.53 2 4c1.7 3.3 1.9 4.8 1.2 7.8l-.9 3.8-.1-3.8zm-162 1c.64-1.8-.24-3.9-1.3-3.2-1.2.73-1.2 4.4-.02 4.4.49 0 1.1-.56 1.4-1.2zm61 .45c0-.44.54-1.3 1.2-2 .93-.93.7-1.2-1-1.2-1.6 0-2.2-.52-2-1.8.19-1.1-.81-2.3-2.8-3.2-2.8-1.4-3.2-2.1-4-7.5-1.4-10-.62-15 3.3-23 2.6-5 3.3-7.3 2.6-8.4-1.3-2 2.1-11 4.8-13 2.7-1.7 2.6.75-.04 3-4 3.4-3.5 9.6.63 8.1 2.1-.81 1.6.06-2.6 4.6-2.4 2.6-4.7 6.6-6 10-2.2 6.4-2.8 15-1.1 15 .55 0 1 1.4 1 3s.48 3 1.1 3 .8.84.46 1.9c-.46 1.4.13 2.2 2.4 3.2 1.7.74 3 1.9 3 2.6 0 1.9 5.2 1.4 7.8-.76 2.1-1.8 2.3-2.5 1.7-7.2-.4-3.3-.3-4.7.28-3.8.5.82 1.2 4 1.6 7 .37 3 .93 6.5 1.2 7.8.33 1.3.09 2.2-.55 2.2-.61 0-1.1-1.1-1.1-2.5 0-3.3-1.7-3.1-5.9.52-3.2 2.8-6.1 3.9-6.1 2.2zm-162-.97c1.2-.87 3.6-8.5 2.4-7.7-.45.28-1.1 1.9-1.5 3.5-.36 1.6-1.3 3-2.1 3s-1.4.45-1.4 1c0 1.2 1.1 1.3 2.5.23zm150-3c-.25-.97-.47-.42-.5 1.2-.02 1.6.19 2.4.47 1.8.27-.68.29-2 .03-3zm-146-1c0-3.1-.48-2.8-1.4 1.1-.45 1.9-.32 2.6.36 2.2.57-.35 1-1.8 1-3.2zm7 1c.26-.22-.13-.78-.87-1.2-1.1-.67-1.1-2-.22-7.3 1.4-8 1.4-11 .16-8.8-.87 1.5-1.8 7.4-2.1 13-.07 1.6-.37 2.4-.64 1.7-.72-1.8-2.3-.5-2.3 1.8 0 1.6.46 1.8 2.8 1.3 1.5-.36 3-.85 3.2-1.1zm60-4.3c.36-2 .28-2.7-.17-1.7-.43 1-1.2 1.8-1.6 1.7-.96-.18-2.5 2-2.5 3.5 0 .55.44.32.97-.5.77-1.2.98-.99 1 1 .06 3.3 1.5.85 2.4-4zm-14 1c.57 0 1-.45 1-1 0-1.1-3-1.4-3-.25-.01.41-.25 1.9-.53 3.2-.5 2.4-.48 2.4.48.25.55-1.2 1.5-2.2 2-2.2zm-72 .38c0-.82-.45-1.2-1-.88s-1 1.3-1 2.1c0 .82.45 1.2 1 .88s1-1.3 1-2.1zm29-2.2c-.8-.26-.67-1.1.42-2.8 1.4-2.1 1.4-2.4.09-2.4-3.4 0-5 8.6-1.8 9.2 2 .4 3.2-3.4 1.3-4zm19 2.9c2.2-1.3 3.5-3.3 5.2-8.2 2.1-6.3 4.4-21 4.9-32 .15-3.4 1.2-7.6 2.9-11 2.1-4.5 2.6-6.9 2.4-11l-.3-5.7-1.8 3.8c-1.5 3.2-1.6 3.6-.25 2.5 1.3-1.1 1.6-1 1.6.32 0 2.1-3.5 5.6-5.6 5.6-1 0-1.5.78-1.4 2.2.12 1.2-.04 2.9-.35 3.8-.32.82-.82 3.3-1.1 5.5l-.55 4 1.4-3.5c1.9-4.6 1.9-1.8.09 6.8-2.2 11-3.4 19-3.7 26-.22 6.6-1.8 11-2 5.8l-.11-3-.79 3.3c-1 4.3-1.4 4.6-3.3 2.8-1.4-1.4-1.6-1.4-2 .2-.32 1.2-.51.99-.64-.75l-.18-2.5-1.1 2.5c-1.1 2.4-1.2 2.2-1.8-2.5-.35-2.8-.72-3.9-.82-2.5-.22 3.2-1.6 5.4-2.9 4.6-.56-.34-1.3.12-1.6 1-.74 1.9-.87 1.8 2.9 3.1 4.3 1.5 7.6 1.3 11-.68zm12-3.5c-.03-1.9-.15-1.8-1.5.44-2 3.4-2 6.2.03 3.6.81-1.1 1.4-2.9 1.4-4zm-51 1.4c1.3-1.6 2.2-3.4 2-3.9s-1.6.84-3.1 3c-3.3 4.6-2.3 5.3 1.1.88zm200 .42c-.1-1.8-.84-3.4-1.7-3.7-1.2-.47-1.5-2.9-1.4-13 .04-7 .48-14 .98-15 .61-1.3.71 0 .3 3.9-.45 4.3-.3 5.7.52 5.2.81-.5 1.1 1.6 1 7.6-.1 6.3-.31 7.5-.87 4.8l-.74-3.5-.13 3.4c-.08 2 .49 3.8 1.4 4.5 1.1.81 1.5 2.3 1.2 5.1-.35 3.4-.43 3.5-.57.82zm36 .03c-1.8-4.8-2.3-8.4-1.1-8.4.61 0 1.1 1.1 1.1 2.4 0 1.3.46 3.7 1 5.1.56 1.5.8 2.9.53 3.2-.28.27-1-.8-1.6-2.4zm-98-.14c-2.2-8-1.7-9.8.69-2.8.84 2.5 1.1 4.5.66 4.5s-1.1-.79-1.4-1.8zm-78-3.8c0-.63.95-2 2.1-3 2.5-2.2 5.3-7.4 4.1-7.4-1.5 0-5.9 5.4-7 8.5-2.7 7.8-2.6 7.2-.82 5.1.87-1.1 1.6-2.5 1.6-3.1zm216 3.9c-.4-.41-.73-1.6-.73-2.6 0-1-.9-3.8-2-6-1.1-2.3-2-6-2-8.2 0-4.3-2.7-9.5-4.6-8.9-.61.21-1.9-.82-2.9-2.3-1.4-2.1-1.9-2.4-2.6-1.3-.69 1.1-1.1 1.1-2.1.09s-1-1.5.21-2.2c.82-.52 2.2-.95 3.2-.95.93-.01 2-.5 2.4-1.1.96-1.6 4.8 4.5 7.4 12 2.3 6.3 2.7 6.7 5.3 5.7 1.7-.65 1.1-5.2-.93-7.2-.74-.74-1.3-2.1-1.3-3.1 0-4.5-3.7-12-8.7-18-4.9-5.7-5.4-6.5-4.8-9.7.47-2.5.22-3.9-.82-5-.87-.87-1.3-2.5-.99-4 .74-3.8-1.6-3.2-3.3.98-1.3 3.2-1.3 3.8.26 6.5.97 1.6 2.1 3 2.5 3 .43 0 .76.56.74 1.2s-1.6-.47-3.4-2.6c-3.2-3.6-3.3-4-2-6.5.78-1.5 1.4-5.4 1.4-8.8.01-5 .37-6.4 2-7.5 1.1-.75 2.6-3.1 3.4-5.2.73-2.1 1.6-3.4 2-2.8.64 1-2.6 7.5-5.1 10-.7.73-1.3 2.6-1.3 4.2 0 2.9 1.3 3.9 2.6 1.8.37-.6 1.7-.81 3.1-.48 2.6.64 2.9-.17 2.5-5.7-.15-1.9.25-2.8 1.4-2.8 1.5 0 1.8.98 2 6.5.12 2.9 3.9 10 5.1 10 .55-.16 1.2-1.4 1.3-2.7.19-1.3.69-2.8 1.1-3.2.42-.45.14-2.6-.64-4.9-.77-2.2-1.2-4.7-.89-5.4 1.1-2.8-1.2-6.1-4.6-6.9-3.4-.71-6.8-3.1-6.8-4.7 0-.48 1.2-.25 2.8.51 1.5.77 4 1.7 5.5 2 3.2.78 6.2 6.7 5.3 11-.4 1.7-.29 2.1.34 1.1.69-1 1.1-.6 1.6 1.8.48 2.2 1.3 3.1 2.6 3.1 2.4 0 2.6 5 .33 8.5-.88 1.3-1.4 3-1.1 3.7.25.7-.19 2-.99 2.9-1.3 1.5-1.2 2 .09 4.5.88 1.6 1.6 2.2 1.6 1.3.13-1.8 1.8 2 2.4 5.7.59 3.3 1.5 4.2 1.7 1.7.07-1.1.49-.35.95 1.6s1.1 4.8 1.5 6.3c.53 2.2.19 3.3-1.4 4.8-1.3 1.2-2.1 3.2-2.1 5.3 0 3.4-2.7 6.8-7.2 9.1-2.4 1.2-2.5 1.7-.81 8.4 1.1 4.5 1 6.8-.25 5.5zm-226-9.1c.02-.68 1.4-4.6 3-8.8 3.3-8.4 3.8-11 1.4-7.7-.89 1.3-2.2 2-3 1.8-.77-.3-1.4-.21-1.4.18 0 .4-.9 5-2 10-2.5 12-2.5 15 .07 9.6 1-2.2 1.9-4.6 1.9-5.2zm55 4.9c-.01-1.5-.14-1.5-.98-.19-1.3 2-1.3 3.3 0 2.5.55-.34.99-1.4.98-2.3zm63-3.8c-.95-6.3-.05-6.6 1.2-.44.54 2.8.66 5 .25 5s-1-2.1-1.4-4.6zm-105-6.4c1.2-1.4 2.8-3.4 3.6-4.5 1.2-1.7 1-1.7-1.1.25-1.4 1.2-3.2 2.2-4 2.2-.94 0-2.1 2-3.2 5.3-2.2 7-2.1 8.1.48 3.2 1.1-2.2 3-5.1 4.2-6.5zm-60 5.7c0-2-.03-2-1.5-.14-1.9 2.5-1.9 3.5-.03 2.8.83-.31 1.5-1.5 1.5-2.7zm56-7.7c0-1.7-2.3 3.2-3.2 7-.35 1.4.24.7 1.3-1.5s1.9-4.7 1.9-5.5zm26 .75c.01-1.5.02-3 .02-3.2s-.33-.53-.73-.56c-.68-.05-3.2 8.3-3.2 11 0 .55.88-.12 2-1.5s2-3.7 2-5.2zm-64 1.7c0-1.9-.34-3.4-.75-3.4s-.75 1.9-.75 4.2.34 3.8.75 3.4.75-2.3.75-4.2zm83 1c-.33-.34-1.2.44-1.8 1.7-1.1 2.2-1.1 2.3.61.61 1-.95 1.5-2 1.2-2.3zm135 2c-.76-2 .13-2.9 2.1-2.1.88.34 1.3 1.2.94 2.1-.76 2-2.3 2-3 0zm-163-6.4c-.37-1.2-1.1-1.8-1.7-1.5-.67.41-.57.93.28 1.4 1.1.66 1 1.2-.24 2.6-2.9 3.4-3.2 4.8-.39 2.2 2-1.9 2.6-3.2 2.1-4.8zm54 4.9c-.59-1.1-1.3-3.9-1.6-6.2-.96-8.2-2.7-17-4.7-25-1.1-4.1-2.1-8.4-2.2-9.6s-.58-2.7-1-3.4c-.42-.67-.9-2.9-1.1-4.9-.37-4.6-7.1-24-11-32-1.7-3.4-2.7-6.2-2.1-6.2.57 0 2.7 3.5 4.8 7.8s4 8 4.4 8.3c1.4 1.1 9.4 24 12 34 .97 4 1.7 9.4 1.5 12-.29 6.3 2.1 23 3.4 25 1.3 1.3 1.4 2.7.12 2.7-.54 0-1.4-.89-2-2zm24-1.6c-.64-2.5-.79-2.6-1.5-.86-1.1 2.8-1 4.2.09 2.5.81-1.2.97-1.2.98.42.01 1 .27 1.7.57 1.4.3-.3.23-1.8-.16-3.4zm81 1.9c0-1.1-.62-3.6-1.4-5.4-.84-2.1-1.1-4.2-.57-5.4.72-1.8.82-1.7.88.63.04 1.4.78 4.3 1.6 6.4 1.1 2.7 1.3 4.1.5 4.8s-1.1.47-1.1-1zm-146-3.8c-.11-1.4-.56-2.5-.99-2.5-.94 0-1 1.3-.17 3.4.89 2.3 1.4 1.9 1.2-.92zm90 .96c-.79-2.1-.78-7.3.03-10 .48-1.8.84-2 1.6-1 .61.87.72.28.32-1.7-.33-1.7.06-5.5.87-8.5 2.1-8 5.4-17 5.5-15 .04.98-.61 3.4-1.4 5.4-2.4 5.8-4.5 15-3.6 15 .77.49-1.3 16-2.3 17-.22.22-.68-.32-1-1.2zm-106-1.4c.29-.89 0-1.1-.89-.51-.73.45-.31-.61.94-2.4 1.2-1.8 2-3.6 1.6-4.2-.36-.57-.11-1.8.55-2.8.66-.94-.33 0-2.2 2.1-2.9 3.3-4 6.8-3 9.5.3.79 2.5-.57 3-1.8zm97-2.6c.77-7.4 2.5-13 5.1-15 3.1-3.3 2.9-1.2-.22 3-1.4 1.9-2.5 4.3-2.6 5.4-.05 1.1-.7 4.3-1.4 7.1l-1.4 5 .52-5zm30-.74c-.24-1.2-.45-.46-.46 1.7s.19 3.2.44 2.3c.25-.95.26-2.8.02-4zm29 2.2c-.65-3.2-1.4-3.6-4.4-2-1.7.89-1.9.69-1.9-1.6 0-1.7-.39-2.4-1.2-1.9-.81.5-.96-.01-.51-1.7.35-1.3.66-3.1.68-3.9s.76-.04 1.6 1.8 2.1 3.3 2.7 3.3c2.4.03 3.8 1.8 4.2 5.3.54 4.4-.37 4.9-1.2.66zm-205-3.4c.11-.74.5-2.4.87-3.7l.67-2.4-4.1 5-.15-2.5c-.15-2.3-.2-2.3-.59-.3-.23 1.2.09 3.2.72 4.3 1.2 2.2 2.2 2 2.6-.44zm36-.59c.33 0 .35.68.03 1.5-.35.92 0 1.5.92 1.5.83 0 1.8-1 2.1-2.2.33-1.2 3.1-5.3 6.2-9.1 4.6-5.6 5.4-7.2 4.7-8.9-.82-1.8-1.1-1.6-3 2.5-2.2 4.6-8.2 12-8.2 10 0-.59 1.6-3 3.5-5.5 1.9-2.4 3.5-4.8 3.5-5.2.01-1.2-2 1.1-5 5.6-1.4 2.1-3 3.8-3.7 3.8-.63.01-1.9 2.2-2.7 4.8-1.2 3.5-1.2 4.3-.23 3 .74-.96 1.6-1.8 2-1.8zm93-1.1c-.61-1.1-1.3-1.9-1.6-1.6-.7.7.71 3.7 1.7 3.7.51 0 .43-.94-.19-2.1zm132-1.4c0-1.9-.48-3.5-1.1-3.5-.63 0-.79.86-.39 2.1.45 1.4.31 1.9-.43 1.4-.61-.38-1.1-1.8-1.1-3.1s-.37-2.4-.83-2.4c-1.4 0 .04 6.4 1.7 7.7 2.2 1.6 2.1 1.7 2.1-2.2zm-210-6.4c-.65-.66-2.3.89-5.6 5.1l-3.2 4.2 4.6-4.5c2.5-2.5 4.4-4.7 4.2-4.8zm9.3 5.3c0-1.8-.25-2.2-.86-1.3-1.1 1.8-1.1 5.1-.01 4.4.48-.3.87-1.7.87-3.2zm6.6-2.5c.14-.95.81-2.4 1.5-3.2.97-1.2.9-1.7-.32-2.7-.85-.7-1.7-1.1-1.9-.88-.19.21-.62 3.3-.95 6.9-.46 4.9-.36 5.9.4 4.1.55-1.3 1.1-3.2 1.3-4.2zm4.6 3.3c-.01-1.5-.14-1.5-.98-.19-1.3 2-1.3 3.3 0 2.5.55-.34.99-1.4.98-2.3zm134-3.5c.24-3-.14-4.8-1.2-5.9-.88-.87-1.6-2.4-1.6-3.4s-.9-2.9-2-4.3-2-3.3-2-4.2c-.03-2.6-2.1-6.6-3.7-7.2-1.4-.55-1.2 2 .8 7.2 1.1 2.9 1.1 3.2.01 3.2-.96 0-3.4-7.4-3.6-11-.05-1.2-1.3-3.1-2.8-4.3s-2.8-2.7-2.8-3.3 1.3.14 2.9 1.7c1.6 1.5 3.4 2.5 4 2.1.59-.37 1.1-.3 1.1.14 0 .45 1.4.91 3.2 1 1.8.12 3.6.93 4.1 1.8.48.87 1.9 2 3.1 2.4 1.2.46 3.3 2.9 4.6 5.4l2.4 4.5-2.4 6.3c-1.3 3.5-2.6 7.5-2.8 9-.76 4.4-1.8 3.2-1.4-1.6zm-173-2.4 1.8-2.8-2.2 1.9c-1.2 1-2.2 2.3-2.2 2.8 0 1.5.71.94 2.5-1.9zm4.6-.5c.66-1.2 1.5-2.5 1.9-2.8 1.7-1.2 5.6-8.6 5.2-9.8-.34-.98-.78-.85-1.7.5-.7 1-1.2 2.1-1.1 2.3.07.29-.44 1.2-1.1 2-1.6 1.9-6.2 8.9-6.2 9.5 0 1.4 2.1.15 3.1-1.8zm176-.62c0-2.1 5.3-10 6.7-10 1.3 0 1.3.25.2 1.6-1.7 2.1-3.7 5.4-4.5 7.6-.65 1.8-2.4 2.4-2.4.88zm-141-4.6c-.13-1.9-.45-3.7-.73-4-.46-.46-.51 2.8-.1 6.1.35 2.8 1 1 .83-2.2zm183 .44c-.38-1.2-.91-1.9-1.2-1.6-.28.27-.2 1.5.18 2.6s.91 1.9 1.2 1.6c.28-.27.2-1.5-.18-2.6zm-178-.4c-.5-1.3-.6-2.7-.23-3.2.38-.42.17-.46-.47-.1-.64.37-1 1.4-.83 2.4.19.96.37 2.1.41 2.5.05.41.52.75 1.1.75.61 0 .63-.88.06-2.4zm-18-.71c0-1.4-1.7-1-2.3.56-.37.97-.08 1.3.89.89.8-.3 1.4-.96 1.4-1.4zm116 .32c-.55-.94-1-1.3-1-.71-.03.55-.49.32-1-.5s-.95-3.8-.92-6.5l.05-5 1.7 5.2c1.5 4.5 1.9 5 2.9 3.5.93-1.4 1.4-1.4 2.1-.42.71 1 1.1.99 2.2-.25 1.2-1.5 4-2.2 4-1 0 .91-5.7 6.1-7.4 6.8-.95.37-2-.07-2.6-1.1zm22 .5c-.43-.99-.5-2.1-.15-2.4 1-1 1.8.41 1.4 2.4-.41 1.8-.47 1.8-1.2.04zm44-.24c0-.84-.79-1.8-1.8-2.2-.96-.35-2.1-1.1-2.5-1.7-.42-.6-.75-.05-.75 1.2-.01 1.3-.46 2-1 1.7-.55-.34-1-.03-1 .69 0 .72-.84.05-1.8-1.5-1-1.5-2.8-3.5-4-4.3-1.2-.83-2.1-2.5-2.1-3.7.03-2.1.07-2.2 1.5-.25 1.3 1.8 1.5 1.8 1.5.19 0-.96.45-1.5 1-1.1s1 .22 1-.26 1.4-.88 3-.88c2.3 0 3 .46 3.1 2.1.07 2 .08 2 .93.07.82-1.9.86-1.9.93.22.04 1.2.97 3.8 2.1 5.8 2.2 4 2.5 5.5 1 5.5-.55 0-1-.69-1-1.5zm-237-1.2c.1-.96.47-3.2.82-4.9.41-2 .19-3.4-.62-3.9-.84-.52-1-.36-.48.47.42.69-.07 2.8-1.1 4.7-1.8 3.3-1.6 4.2 1.2 5.4.02.01.11-.77.2-1.7zm31-2.2c0-.62-.45-.85-1-.51s-1 .17-1-.38c0-1.5 1.8-2.3 2.2-.95.22.65 1.4-.47 2.7-2.5 1.3-2 2.7-3.4 3.2-3.1.5.3.64-.14.31-.99-.77-2-2-1.2-4 2.6-1.1 2.1-1.8 2.7-2.4 1.8-1.1-1.8-2.2.3-2.6 4.6-.23 2.9-.07 3.1 1.2 1.9.78-.78 1.4-1.9 1.4-2.6zm28-.17c.88-4.4.18-4.6-1.1-.34-.59 1.9-.72 3.5-.29 3.5s1.1-1.4 1.4-3.2zm41 .16c-.38-1.2-.91-1.9-1.2-1.6-.28.27-.2 1.5.18 2.6s.91 1.9 1.2 1.6c.28-.27.2-1.5-.18-2.6zm-123-3.5c.29-2.3.13-3.5-.4-2.9-1.2 1.3-1.8 8.5-.58 7.3.27-.26.71-2.2.98-4.3zm58 2.2c1.1-2 1-2.1-.47-.88-.91.76-1.7 1.8-1.7 2.2 0 1.5.89.96 2.1-1.4zm7.8-.56c-.01-1.5-.14-1.5-.98-.19-1.3 2-1.3 3.3 0 2.5.55-.34.99-1.4.98-2.3zm7.6-.03c-.29-.47.38-3.2 1.5-6.2 1.1-2.9 1.9-6.2 1.7-7.4-.22-1.4-.9-.25-2 3.4-2.8 9.4-3.1 11-1.8 11 .64 0 .93-.38.65-.84zm4.3-1.9c-.06-2.4-.17-2.5-.93-.75-1.2 2.7-1.2 3.5 0 3.5.55 0 .97-1.2.93-2.8zm94 2c-.69-.24-1.2-.88-1.2-1.4 0-.54.45-.7 1-.36s1-.04 1-.85c0-1.5-2.3-1.7-3.6-.35-.38.39-1.4.68-2.3.66s-.04-.86 1.8-1.9c4.2-2.2 7.1-1.7 7.1 1.4 0 2.4-1.6 3.5-3.8 2.8zm96-2.2c-.62-1.2-1.6-2.1-2.1-2.1-.54 0-.24 1.1.67 2.5 1.9 3 3.1 2.6 1.4-.44zm-130-3.3c-.12-6.1-1.2-11-2.1-9.2-.36.59-.49 2.4-.28 4 .21 1.6.41 4.6.45 6.7s.52 3.8 1.1 3.8.96-2.4.9-5.2zm-16-1.5c-.68-2.6-1.4-5.6-1.7-6.5-.26-.96-.83-1.8-1.3-1.8-.92 0 .26 7.1 1.9 11 1.7 4.5 2.5 2.2 1.1-3.1zm108-2c-1-6.7-.95-7.7 1.3-14 3.8-10 7.1-16 8.6-13 .61.94 1 .88 1.8-.27.55-.82 1-1 1-.42.01.6-.31 1.4-.72 1.8-.91.92-1.3 6.6-.39 6.6.35-.02 1.5-1.4 2.6-3.2s3.4-3.9 5-4.8c1.6-.93 2.9-2.4 2.9-3.3s.49-1.6 1.2-1.6c.77 0 1.4-.48 1.4-1.1s.46-.77 1-.43c.63.39.26 1.7-.97 3.4-1.1 1.5-1.7 3.1-1.4 3.4s-.48.64-1.8.64c-2.8 0-6.4 2.9-7.4 6-.35 1.1-1.3 2-2.1 2s-1.8.11-2.2.25-.59-1.7-.42-4.1c.4-5.5-.82-4.8-4.2 2.3-5.4 11-5.5 17-.73 23 1.5 1.8 1.4 1.8-.58 1.2-1.6-.5-2.3-.22-2.5 1.1-.2.98-.86-1.4-1.5-5.4zm44 4.6c0-2.2-.39-2.3-3.1-.89-2.3 1.2-1.9 2.4 1 2.7 1.4.11 2.1-.44 2.1-1.8zm-201-11c.9-2.6 1.4-5.1 1.1-5.4-.64-.64-2.6 4-2.6 6.2 0 .75-.3 2.2-.67 3.1-.62 1.6-.73 1.6-1.3.08-.4-1.2-1.1-.23-2.3 3.1l-1.7 4.7 2.9-3.5c1.6-1.9 3.7-5.7 4.6-8.3zm164 10c-.05-.72-.22-3.1-.37-5.3s-.56-5.1-.91-6.5c-.44-1.7-.01-3.2 1.4-4.9 1.1-1.3 2.3-2.1 2.7-1.8.35.36-.34 1.7-1.5 3-1.2 1.3-1.9 2.6-1.6 2.9 1 1 2.1 13 1.2 13-.45.28-.87-.08-.93-.8zm-180-5.3c1.7-2.6 2-4 1.3-5.7-.85-2.1-.93-2.1-.99-.27-.03 1.1-1.2 3.7-2.6 5.7-1.4 2-2.5 3.9-2.5 4.2 0 1.4 2.8-.85 4.7-3.9zm147 2.9c.33-.88.61-2.9.61-4.5 0-1.6.43-2.9.95-2.9 1.5 0 .8 7.9-.77 8.5-.96.36-1.2.03-.79-1.1zm-12-2.5c-.07-1.4.44-3.1 1.1-3.9 1-1.1.82-1.1-1.2-.04-5.2 2.7-5.4 2.7-7.3.33-1.3-1.7-1.6-2.8-.86-4.1.62-1.1.62-2.4.02-3.5-.68-1.2-.45-2.2.84-3.6 2.4-2.5 4.1-5.2 5.4-8.4.6-1.5 1.7-2.8 2.5-2.8s1.4-.56 1.4-1.2 1.1-2.3 2.5-3.6c1.6-1.5 2.5-3.5 2.5-5.5.01-2.4.24-2.8.98-1.6.82 1.3.97 1.2.98-.31.01-1 .49-1.5 1.1-1.2.71.44.54 1.4-.5 3-.85 1.3-1.6 2.9-1.6 3.4s-1.1 2.2-2.5 3.6-2.8 3.6-3.1 5c-.41 1.6-.91 2.1-1.4 1.4-.46-.75-1.5.29-2.8 2.8-2.2 4.3-1.9 6 .61 3.5 1.4-1.4 1.7-1.4 2.5.55.53 1.2 1.8 2.1 2.7 2.1.99 0 2.1.5 2.5 1.1.45.74-.01.89-1.4.45-1.2-.38-3.4.02-5.2.92-2.5 1.3-3.2 1.4-3.6.22-.57-1.5-3.4-1.9-3.4-.5 0 .47.73 1.1 1.6 1.5 1.4.53 1.3.86-.66 2.3-2.3 1.7-2.3 1.7-.26 2.8 1.7.89 2.8.54 6.2-2 3.1-2.3 4.5-2.8 5.4-2 .84.84.78 1.1-.24 1.1-.75 0-1.1.29-.73.64s-.19 1.8-1.2 3.2c-1 1.4-2.1 3.5-2.4 4.6-.41 1.6-.52 1.5-.61-.55zm-106-3c.44-.28.44-2.1-.02-4-.91-3.9-1-3.6-1.5 3.5-.2 2.8-.11 4.1.19 3s.9-2.2 1.4-2.5zm87 .92c-.84-1.2-2-1.8-2.6-1.4-.84.51-.89.2-.18-1.2.54-1 1.6-3.8 2.2-6.2.7-2.4 1.6-4.5 2-4.7 1.2-.77.5 5-.81 6.4-1.9 2-1.5 4.9.81 6.5 1.2.83 1.6 1.7 1.1 2.1-.55.34-1.7-.33-2.5-1.5zm-146-7.9c.05-2.2-2.5 3-3.2 6.5-.52 2.6-.35 2.5 1.3-1 1-2.2 1.9-4.7 1.9-5.5zm237 5c2.2 0 5.3-3 5.3-5.2 0-2.4-1.2-2.4-3.4.04-2 2.2-5.3 1.8-5.9-.74-.3-1.1-.48-.92-.55.6-.07 1.2.33 2.2.88 2.2s1.1 1.7 1.1 3.8c.08 2.3.3 2.9.57 1.5.23-1.2 1.2-2.2 2-2.2zm-207-.58c-.99-.98-2.8.53-2.8 2.4 0 1.5.13 1.5 1.7-.03.93-.93 1.4-2 1.1-2.3zm170 .05c.6-3.2-1.5-11-3.4-13-1-.86-2-.88-3.8-.06-2.2 1-2.3 1.4-1.3 4.4.61 1.8 1.5 3.7 2 4.2 1.5 1.7.92 2.5-1.2 1.7-1.1-.42-3-2.2-4-3.9l-2-3.1 7.8-6.7-2.9-3.5c-1.6-1.9-2.4-3.6-1.9-3.8 1.4-.47 1.3-1.8-.44-3.5-1.3-1.3-1.2-2.1.89-6.3 3.6-7.4 3.8-9.7 1.4-12-1.2-1.2-2.7-2-3.5-1.7-.81.31-1.4-.08-1.4-.93 0-.81.61-1.5 1.4-1.5 1.5 0 6.6 4.7 6.6 6.1 0 2.9-2.5 12-3.7 13-1.3 1.5-1.3 2 .25 4.6.95 1.6 3 3.7 4.5 4.6 1.5.89 2.7 2.4 2.6 3.3-.08.95.66 1.9 1.6 2.1 1.3.27 2.3-.85 3.8-4.1 1.7-3.8 4.1-6.5 11-12 .66-.52 1.6-1.7 2.2-2.7.54-.96 1.3-1.5 1.6-1.1.37.36-.11 1.8-1.1 3.3-1.4 2.1-1.5 3.1-.58 5.1 1.8 3.9 1.3 4.2-.99.63l-2.1-3.3-3.4 3.3c-1.8 1.8-3.9 4.6-4.6 6.3-.66 1.6-2.3 4-3.6 5.2-1.8 1.7-2.1 2.7-1.4 4 1.7 3.1 1.9 13 .28 13-.48 0-.65-1.1-.38-2.5zm-180-3.2c.01-.69-.43-1.2-.98-1.2s-.99 1.2-.98 2.8c.01 2.1.22 2.4.98 1.2.53-.82.98-2.1.98-2.8zm21-5.2c2.6-6.4 3.4-11 1.7-9.7-.48.3-1.2-.91-1.6-2.7-.56-2.4-.87-2.8-1.2-1.4-.26 1 .08 2.9.74 4.1 1 1.9.85 3.2-.9 7.9-1.9 5-2.8 9.6-1.7 8.5.22-.23 1.6-3.3 3-6.8zm-12 1.9c-.03-.99-.34-.82-.91.5-1.2 2.8-1.2 4.3 0 2.5.53-.82.94-2.2.91-3zm147 3.2c.61-.4 1.4-1.4 1.7-2.2.38-1 .6-.75.65.75.05 1.5-.49 2.2-1.7 2.2-1.1 0-1.3-.29-.65-.75zm9.1-2.7c-.71-1.8-8.1-3.9-11-3-2.2.64-2.2.63-.21-.86 1.8-1.4 1.9-1.6.37-3.4-2.2-2.4-3-5.5-2-7.2.59-.94 1.1-.34 1.6 2l.77 3.3.76-4c.44-2.3.37-4.5-.18-5.2-.69-.85-.39-1 1.1-.64 1.6.42 1.8.9 1.1 2.4-1.4 2.6-1.2 4.6.42 4.6.78 0 1.2-.59.91-1.3-.52-1.4 4.2-6.4 6-6.4.65 0 .6.45-.15 1.2-.66.66-1.2 2.2-1.2 3.5s-.46 2.3-1 2.3c-.97 0-5 5.8-5 7.2 0 .37 1.5 1.2 3.4 1.8 3.3 1.1 7.9 5 5.9 5-.57 0-1.3-.65-1.6-1.4zm-212-4c.03-.55-.38-.32-.91.5s-.94 2.2-.91 3c.05 1.6 1.7-1.6 1.8-3.5zm84 1c.49-2.2.4-2.6-.34-1.5-.56.82-1 2.4-1 3.4-.03 2.6.55 1.8 1.4-1.9zm-17-5.7c0-.52-.63-1.6-1.4-2.4-1.2-1.2-1.5-1.1-2 .83-.86 3.2-.76 3.9.49 3.1.77-.47.91.35.47 2.7l-.64 3.4 1.5-3.4c.84-1.9 1.5-3.8 1.5-4.3zm51 5.2c-.29-1.1-1-2.3-1.6-2.7-.66-.41-.8 0-.38 1.1.37.96.67 2.2.67 2.7 0 .51.41.92.91.92.49 0 .67-.91.38-2zm62 1c0-.55.68-1 1.5-1s1.5.45 1.5 1-.68 1-1.5 1-1.5-.45-1.5-1zm-129-4c.43 0 1.1-2.6 1.4-5.8s1.3-8.4 2.2-12c1.5-5.8 1.3-8.4-.54-5.6-.51.81-.94 2.7-.94 4.2-.01 1.5-.47 3-1 3.3s-1 1.8-1.1 3.3l-.1 2.7-.69-2.5c-.44-1.6-.96-2.1-1.4-1.3-.4.65-.06 3.1.76 5.5.95 2.8 1.1 4.6.51 5.3-.53.53-.9 2.3-.82 4 .1 2.4.23 2.5.57.8.23-1.2.78-2.2 1.2-2.2zm5.5-11c.42-6 .31-7.7-.4-6.1-.55 1.3-1.2 6-1.5 10-.37 5.6-.24 7.5.4 6.1.52-1.2 1.2-5.9 1.5-10zm120 11c1.2-3.8 10-7.3 11-4.4.34.9.33 1.9-.03 2.2-.37.34-.86.05-1.1-.64-.61-1.7-5.2-.53-8.2 2.1-1.5 1.3-2.2 1.6-1.9.68zm-47-10c-1.3-5.3-2.8-10-3.3-11s-1.3-3.2-1.6-4.8c-.68-2.9-.65-2.9.95-1l1.6 2-.66-2c-.37-1.1-.83-3.2-1-4.7-.2-1.5-1-4-1.8-5.5-1.3-2.5-2.5-8.6-2.6-13-.03-1.1-.86-1.6-2.6-1.5-2.4.13-2.5.41-1.9 3.6.74 4.1 3.1 11 4.6 14 .58 1.1 1.2 4.1 1.4 6.7.19 2.6 1.9 9 3.8 14 1.9 5.2 3.8 10 4.2 12 .38 1.3.86 2.2 1.1 2 .2-.21-.7-4.7-2-10zm-45 .38c-.12-1.3-.88-3.8-1.7-5.5l-1.5-3.2.6 3.5c.32 1.9.58 5.5.57 8-.02 4.1.07 4.3 1.1 2 .61-1.4 1-3.6.88-4.8zm-23 .6c0-3.8-.5-3.4-1.3 1-.39 2.1-.26 3.1.36 2.7.54-.33.98-2 .98-3.7zm185-.55c0-.43 1.1-.88 2.5-.99s2.5.24 2.5.78c0 .55-1.1.99-2.5.99s-2.5-.35-2.5-.78zm-170-6.5c-.24-1.2-.44-.23-.44 2.2s.2 3.5.44 2.2c.23-1.2.23-3.3 0-4.5zm-2 1.5c-.25-.97-.47-.42-.5 1.2-.02 1.6.19 2.4.47 1.8.27-.68.29-2 .03-3zm-5.7-.33c0-.52-.45-.94-1-.94s-1 .7-1 1.6.45 1.3 1 .94 1-1 1-1.6zm136 .81c-.42-.96-.42-2.5 0-3.5.72-1.7.78-1.7 1.2 0 .23.96.23 2.5 0 3.5-.4 1.7-.46 1.7-1.2 0zm41-.72c0-1.3.49-1.8 1.4-1.4.79.31 1.2 1.2.89 2-.8 2.1-2.3 1.7-2.3-.55zm-181-3.9c-.35-1.7-1-3.2-1.5-3.2-.82 0-.21 4.4.88 6.3.92 1.6 1.3-.07.64-3.2zm9.3-1.9c-.25-.97-.47-.42-.5 1.2-.02 1.6.19 2.4.47 1.8.27-.68.29-2 .03-3zm181 3c-1-1-.61-2 1.2-2.6.96-.3 3.6-1.3 5.8-2.2l4-1.6-3.9.6c-3.6.57-3.8.5-2.2-1 2.1-2.1 2.1-2.2-.99-4.9-3-2.6-6.6-2.5-10 .4-2.4 1.8-2.4 1.9-.22 1.3 1.6-.42 2.2-.14 2.2 1 0 1.8-2.5 2.2-3.5.58-.35-.57-1.5-.77-2.6-.43-4.2 1.3-1.6-1.5 3.8-4 4.9-2.3 6.3-2.6 10-1.8 4.1.76 4.6 1.1 4.5 3.6-.03 2 .46 2.7 1.8 2.7.98 0 2.1.11 2.5.25.4.14.89-.59 1.1-1.6.23-1.2-.05-1.6-.73-1.2-.63.39-1.1-.03-1.1-.96 0-1.9 1.9-1.5 3.4.71 1.3 2-3.1 7.9-5.4 7.2-.87-.25-3.2.64-5.2 2s-3.8 2.2-4.2 1.8zm-188-6c-1.1-1.1-1.6.43-.89 2.4.71 1.8.76 1.8 1.1.06.2-1 .1-2.1-.22-2.4zm11-.01c-.36-1.5-1-3.2-1.5-3.6-.73-.8-.43 1.7.63 5.1.75 2.5 1.5 1.2.83-1.5zm160 1.2c.41-2 2.1-2 2.4.02.12.84-.45 1.5-1.3 1.5-.82 0-1.3-.7-1.2-1.6zm-227-2.4c0-1.7 2.8-5.6 3.5-4.9.14.17.04 1.8-.23 3.6-.53 3.5-3.3 4.6-3.3 1.3zm193-.3c.53-.7 1-2.6 1.1-4.3s.94-3.6 1.9-4.2c2.1-1.5 5.3-1.6 5.3-.19 0 .58-.43.79-.96.47-1.1-.67-5 1.5-5 2.8 0 .45.45.54 1 .2 1.3-.8 1.3-.17-.14 2.9-.62 1.4-1.8 2.8-2.6 3.1-1.1.42-1.2.23-.54-.7zm6.3-1.8c-.64-1.2-.94-2.4-.66-2.7.27-.28 1 .48 1.7 1.7s.94 2.4.66 2.7c-.27.28-1-.48-1.7-1.7zm-149-3.6c.05-2.5.62-5.2 1.3-6s.89-1.7.53-2.1c-.35-.35-.64-.12-.64.52s-.45 1.2-1 1.2-1-.84-1-1.9c0-1-.68-2.4-1.5-3.1s-1.5-1.9-1.5-2.6-.45-1.4-1-1.4c-1.3 0-1.3.41.5 4.6 1.9 4.5 1.9 5.3.03 2.8-1.6-2-1.9-1.6-.92.98.33.87 1.2 1.6 2 1.6 1.6 0 1.9 1.7.3 2.2-.71.23-.48 1.6.69 4.1.97 2 1.9 3.7 2 3.7s.23-2.1.28-4.6zm-34 1.2c-1.5-1.7.28-13 2.4-15 1.4-1.4 1.5-1.2.88 2.7-.45 2.8-.34 4.1.34 3.7.56-.34 1.1-3.4 1.2-6.8l.17-6.2 1.3 12 .33-7c.18-3.8.23-8 .13-9.3-.11-1.2.28-3 .87-4 .77-1.3.91 1.4.49 9.8-.8 16-1.1 18-3.9 18-1.3.33-2.6 1.2-2.7 2-.25 1.1-.57 1.1-1.4.19zm-11-2.3c-.43-.67-.1-2.5.73-4.1.82-1.6 1.3-3.1.98-3.4s-.03-4.1.56-8.5l1.1-7.9-7.1-18c-3.9-9.8-7.8-18-8.6-19-1.2-.96-1.2-1.4-.11-2.5 1.3-1.3 4.7-11 4.7-13 0-2.6-3 1.3-3.6 4.7-.42 2.2-1 3.1-1.6 2.5-1.1-1.1 1.3-6.4 4.3-9.8 1.8-2 4.7-13 5-19 .12-2.4.24-2.6.59-.74.24 1.2.85 2 1.4 1.7 1.5-.94 1 7.8-.58 11-.82 1.6-1.5 3.7-1.5 4.7 0 1-.37 2-.83 2.3-.46.28-1.4 2.9-2 5.8-.66 2.9-1.8 6.4-2.5 7.7-1.2 2.1-.84 3.4 2.8 12 2.4 5.6 4.8 9.5 5.8 9.8.93.24 1.9 1.5 2.1 2.8.25 1.3.57.19.73-2.6.19-3.2.44-4 .71-2.2.23 1.5.9 2.8 1.5 2.8 1 0 .59 20-.74 34-.36 3.6-.24 4.4.44 3 .91-1.9.94-1.9 1 .18.04 1.2-.43 3.5-1 5-1 2.6-1.2 2.7-1.9.82l-.75-2-.41 2c-.28 1.4-.64 1.6-1.2.78zm56-4.2c-.81-3.7-2.3-4.9-3.2-2.5-.4 1-.01 2.2 1 2.9 1.1.79 1.4 1.9 1 3.1-.52 1.5-.39 1.6.58.73.8-.74 1-2.3.57-4.2zm-44-.86c-.25-.96-.46-.18-.46 1.8s.21 2.7.46 1.8.25-2.5 0-3.5zm4.6 1.8c.29-1.1.11-2.2-.38-2.6-.5-.31-.91.59-.91 2 0 3.1.57 3.3 1.3.56zm28-18c-.63-.63-.77.03-.4 1.8.43 2.1.68 2.4.97.97.22-1-.04-2.3-.57-2.8zm2.9-6.4c-.71-7.4-.88-8-.98-3.4-.13 5.5.8 13 1.5 13 .2-.19-.03-4.4-.5-9.3zm55 3.6c0-.55-.7-1-1.6-1s-1.3.45-.94 1 1 1 1.6 1 .94-.45.94-1zm-64-6c-.38-1.2-.91-1.9-1.2-1.6-.28.27-.2 1.5.18 2.6s.91 1.9 1.2 1.6c.28-.27.2-1.5-.18-2.6zm14-11c-1.2-2.3-2.2 4.2-1.3 8.6l.78 3.8.63-5.5c.34-3 .3-6.1-.11-6.9zm-51 8.9c.29-1.1.11-2.2-.38-2.6-.5-.31-.91.59-.91 2 0 3.1.57 3.3 1.3.56zm82-10c-.63-1.4-1.3-2.4-1.4-2.2-.61.61.88 4.7 1.7 4.7.47 0 .34-1.1-.28-2.5zm5.9-2c-.96-5.9-5.8-16-9.9-20-4.2-4.4-4.3-5-2.8-9 .99-2.6 1.1-2.6 3-.91 1.6 1.5 2 1.5 2 .3 0-.82-.31-1.8-.69-2.2s-.73-2.7-.78-5.1c-.14-7.5-3.9-8.5-8.5-2.3l-2.3 3.1 3.2 7.9c1.8 4.4 3.5 9.7 3.8 12 .32 2.4.84 3.5 1.3 2.8.49-.79 1.7.9 3.4 4.7 2.6 5.7 7 12 8.2 12 .32 0 .33-1.6.02-3.5zm-66-2.5c-.04-3.2.2-4 .87-2.9.54.93.57 2.8.05 4.5-.8 2.7-.87 2.6-.92-1.6zm-1.9-.04c-.14-2.8-.61-3.6-2.3-3.7-2.7-.21-4.9-2.1-4.9-4.2 0-.93-.5-2.2-1.1-2.8-.81-.81-.56-1.4.92-2.2 1.8-.97 2.2-.64 3.6 3.2l1.6 4.2-.49-4.1c-.38-3.2-.15-4.1.98-4.1 1.9 0 2.7 4.5 2.2 12-.24 3.4-.45 4.2-.57 2zm33-5 .02-2.5-.8 2.5c-.44 1.4-.79 3.8-.78 5.5l.02 3 .76-3c.42-1.6.77-4.1.78-5.5zm-7.8.25c.03-.69-.4-1.2-.95-1.2s-1 1.1-1 2.4-.23 3.2-.52 4.2c-.28 1 .15.48.96-1.2s1.5-3.6 1.5-4.2zm-20 .77c-.57-2.7-.69-5.5-.28-6.2.44-.71.88.2 1.1 2.2.48 5 3.3 5.2 3.7.26.39-5.7 1.2-5.3 1.2.65 0 3.9-.47 5.7-1.8 6.6-2.6 2-2.8 1.8-3.9-3.6zm68-3.6c-1.6-5.4-4.2-10-3-5.4 1.1 4.1 3.7 11 4.1 11 .19-.19-.32-2.6-1.1-5.3zm-85-.49c-1.2-5.4.93-5.5 2.5-.07.69 2.4.59 3.1-.45 3.1-.74 0-1.6-1.4-2-3.1zm56 .69c-.37-.98-.65-2.5-.62-3.4.05-1.1.39-.85 1 .74.53 1.3.81 2.9.62 3.4s-.65.24-1-.74zm-64-.71c-.37-.6-.17-1.6.44-2.2.81-.81 1.1-.53 1.1 1.1 0 2.4-.52 2.8-1.6 1.1zm40-4.2c-.07-2.1-.1-2.1-.93-.19-1.2 2.8-1.2 3.7 0 3 .55-.34.97-1.6.93-2.8zm-44-2.3c-.37-1.5-.47-2.9-.24-3.1.24-.24.73.77 1.1 2.2.37 1.5.47 2.9.24 3.1-.24.24-.73-.77-1.1-2.2zm3.1.2c-.42-1.6-.52-3.1-.23-3.4.8-.81 1.8 2.4 1.4 4.4-.28 1.3-.58 1.1-1.1-1.1zm94-2.9c-1.7-12-4.2-22-5.7-22-1.7 0 .05 11 2.9 18 1.4 3.7 2.8 6.8 3 6.8s.15-1.5-.1-3.2zm-6.6-3.3-1.3-4.6-1.4 2.7c-1.1 2.2-1.2 3-.19 3.9.96.89 1.1.69.58-.86-.64-2-.62-2 .86-.06.82 1.1 1.5 2.6 1.5 3.4s.29 1.2.64.84c.35-.36.05-2.7-.66-5.3zm-26 3c0-.86-.45-1.3-1-.94s-1 1-1 1.6.45.94 1 .94 1-.7 1-1.6zm-13-8c.85-2.5 1.2-4.3.69-4s-1.6 2.6-2.4 5.1c-.85 2.5-1.2 4.3-.69 4s1.6-2.6 2.4-5.1zm-36-.15c1.9-5.7 1.9-5.3.09-5.3-.82 0-1.5.42-1.5.92 0 .51-1.1 2.2-2.5 3.8-1.9 2.2-2.2 3.2-1.3 4.1 2.2 2.2 3.6 1.2 5.2-3.5zm42 1.7c1.8-3.5 1.9-4 .36-4-.64 0-.88.28-.54.63.35.34-.04 1.9-.86 3.5-.81 1.6-1.3 2.9-.98 2.9.27 0 1.2-1.3 2-3zm28 1.5c0-.23.31-1.2.69-2.2.6-1.6.47-1.7-.96-.49-.9.73-2.1 1-2.7.69-1.1-.71-1.4.73-.37 1.8.72.73 3.3.93 3.3.25zm-28-7.8c.05-1.6-1-.59-2.5 2.5l-1.6 3.2 2-2.5c1.1-1.4 2-2.8 2.1-3.2zm31-1.8c.34-1.7.33-5-.01-7.5-.61-4.4-.63-4.5-1.9-2-.85 1.6-1.1 4.3-.72 7.5.67 5.6 1.8 6.4 2.7 2zm-41-11c.31-4.5 1.1-8.6 1.8-9.2.95-.89 1.1-.58.6 1.4-.34 1.4-.63 5.5-.64 9.2-.01 4.4-.41 6.8-1.2 6.8-.81 0-.98-2.4-.59-8.1zm23 1.8c.44-3.2.28-4.7-.49-4.7-.63 0-1.2.34-1.2.75-1.1 9.7.44 13 1.7 4zm7.4-4.5c-.01-2.1-.22-2.4-.98-1.2-1.3 2-1.3 5.3 0 4.5.55-.34.99-1.8.98-3.3zm-54-.75c0-.86-.45-1.3-1-.94s-1 1-1 1.6.45.94 1 .94 1-.7 1-1.6zm59-3.2c-.06-2.4-.17-2.5-.93-.75-1.2 2.7-1.2 3.5 0 3.5.55 0 .97-1.2.93-2.8zm-173-.75c0-.82.45-1.5 1-1.5s1 .68 1 1.5-.45 1.5-1 1.5-1-.68-1-1.5zm-4.9-4.8.08-5.2 2.8 6-.25-3.5c-.21-3-.71-3.6-3.5-4.5-4.5-1.3-4.1-3.3 1.2-5.5 2.7-1.2 4.3-2.4 4-3.2-.53-1.5 3.2-6.4 4.2-5.4.36.35 1.5-.1 2.5-1 2.9-2.6 2.1-.01-1.2 4.2l-3 3.8 3 1.3c1.7.7 3 1.7 3 2.2 0 .53-1.7.16-3.7-.83-3.4-1.7-4-1.7-7-.23-1.8.86-3.3 1.9-3.3 2.3 0 1.2 5.5 2 8.4 1.3 3.1-.77 3.7 1.1.63 2.1-1.6.5-2 1.5-2 4.6 0 2.2-.42 3.7-.93 3.4-.51-.31-1.2.34-1.6 1.4-.35 1.1-1.3 2-2.1 2-1.1 0-1.4-1.3-1.4-5.2zm178 2.4c.74 1 .83.92.38-.46-.32-1-.62-3.7-.66-6l-.06-4.2-1.4 5c-1.7 6.2-1.9 8.8-.33 6.1.89-1.5 1.3-1.6 2.1-.5zm-171-.82c0-.45.45-1.5.98-2.3.84-1.3.97-1.3.98.19.01.93-.43 2-.98 2.3s-.99.25-.98-.19zm113-2.6c.01-.44-.43-.53-.98-.19s-.99 1.4-.98 2.3c.01 1.5.14 1.5.98.19.53-.82.98-1.9.98-2.3zm-105-.26c-.86-.87-1.6-2.2-1.6-3 0-1.8 6.9-8.7 8-8 1.5.94 4.3-4.3 3.6-6.9-.62-2.4-6.6-5.6-6.6-3.5 0 .55-.45.73-1 .39s-1-1.2-1-2c0-2.3 7-.04 9.5 3 2.1 2.7 2.1 2.7.3 6.4-1.2 2.5-3.1 4.3-5.8 5.5-4 1.8-6 4.9-4.2 6.7.68.68 1.5.01 2.6-2.1 1.8-3.5 5.1-5.7 6.1-4.1.58.94-.08 1.4-1.7 1.1-.4-.06-1.8 1.7-3 3.9-2.6 4.5-3 4.7-5.2 2.4zm19-1.5c-1.8-3-1.8-3.1.79-6.8 1.4-2 2.6-4.2 2.6-4.8 0-.59 1.1-1.8 2.5-2.7s2.5-1.2 2.5-.58c0 .58-.66 1.3-1.5 1.6-.81.31-1.8 1.5-2.1 2.7-.38 1.2-1.6 3.4-2.7 4.9-1.9 2.6-1.9 2.9-.36 5.2 1.8 2.8 2 3.6.87 3.6-.44 0-1.6-1.4-2.6-3.1zm150 .81c.08-1.2.12-2.9.08-3.7-.05-.8.55-2.7 1.3-4.2.9-1.7 1.1-3 .43-3.4-.55-.34-1 .07-1 .9 0 .84-.94 2.4-2.1 3.5-1.7 1.6-1.9 2.3-1 4 .6 1.1.81 2.7.48 3.6-.33.86-.11 1.6.5 1.6s1.2-1 1.3-2.2zm-145-1.8c-.06-2.9 4.6-13 6-13 1.4 0 1.1.89-.97 3.8-1 1.5-2.6 4.7-3.5 7.2-1.2 3.5-1.6 3.9-1.6 2zm76 .64c-.65-.65-1.4-.6-2.1.16-.86.86-.62 1.1.99.99 1.4-.11 1.8-.5 1.2-1.2zm12-.84c.02-.69.64-2 1.4-3 1.3-1.7 1.4-1.7 1.8.14.28 1 .22 2.3-.12 2.8-1 1.4-3.1 1.5-3.1.11zm4-2.2c-.03-1.5 1.8-4 2.4-3.4.29.3-.12 1.4-.92 2.5s-1.5 1.5-1.5.93zm-48-5.3c-2.1-2.2-2.7-3.8-2.7-7.1 0-2.6.39-4 1-3.6.55.34 1-.06 1-.88 0-.83-.47-1.8-1-2.2-.58-.35-1.8-2.4-2.6-4.6-1.1-2.8-1.8-3.6-2.4-2.7-.46.73-.86.88-.89.33-.02-.55-.7-.13-1.5.94-1.7 2.2-2 6.6-.47 6.6.55 0 1-.87 1-1.9s.52-2.3 1.2-2.7c.81-.5.96.01.51 1.7-.35 1.3-.65 3.2-.66 4.2-.02 2.4-2.6 2.2-4.4-.34-1.3-1.8-1.3-2.6-.06-5.5.78-1.9 1.4-4.2 1.4-5.1 0-1.6-.13-1.5-1.4.15-1.3 1.8-1.5 1.6-4.1-2.4l-2.7-4.3 2.3-4.1c2.5-4.5 3.6-5.6 5.9-5.6.97-.01.71.52-.75 1.5-3.8 2.6-5.4 6.9-4 10 .66 1.5 1.3 3 1.4 3.2.44.64 3.4-2.7 3.4-3.8 0-.59.58-1.1 1.3-1.1.82 0 1.3-1.3 1.3-3.5 0-1.9.58-4.1 1.3-4.8 1-1 1.2-.21.6 4.3-.77 6.3.24 9.4 6.4 20 3 5.1 3.8 7.6 3.9 11 .01 2.6-.31 4.8-.7 4.8-.4 0-1.9-1.3-3.4-2.8zm2.3-3c0-3-2.9-8-3-5.1-.02.85.51 2.1 1.2 2.8.93.93.81 1.2-.54 1.2-1.4 0-1.5.36-.66 2 1.5 2.9 3 2.5 3-.81zm106 .75c0-1.1-.45-1.8-1-1.4s-1 1.3-1 2.1.45 1.4 1 1.4 1-.93 1-2.1zm-26 .1c.81-.51 1.2-1.2.8-1.6-.37-.38-1.4.05-2.3.94-1.8 1.8-.87 2.2 1.5.66zm-136-1.3c-.25-.4.67-1 2-1.3 2.5-.64 4.6.03 4.6 1.5 0 .98-6 .86-6.6-.14zm-12-2.3c0-1.4.17-2.5.38-2.5s.6 1.1.86 2.5c.27 1.4.1 2.5-.38 2.5-.47 0-.86-1.1-.86-2.5zm135-.84c1.6.62 2-2.2.49-3.1-1.1-.65-3.1 2.6-2.9 4.6.06.73.31.56.56-.37.26-.99 1-1.5 1.9-1.2zm168-1.7c.96-.56 1.8-2.1 1.8-3.5s.5-2.4 1.1-2.4c.71 0 .86.99.42 2.7-.69 2.7-2.1 4.2-4 4.2-.55 0-.21-.47.75-1zm-2.1-3c-.14-3.1 1.7-8.9 2.9-8.9.43 0 1-.94 1.3-2.1.4-1.5 1.1-1.9 2.5-1.5 1.3.4 2.2.08 2.5-.91 1-2.6 2.4-1.7 4 2.7 1.9 5.4 2.9 9.8 2.1 9.8-.32 0-2.4-1.4-4.6-3.2-6.7-5.4-8.1-4.8-10 4.7-.35 1.6-.47 1.4-.56-.6zm-163-1.6c-1-1-1.8.51-1 1.9.63 1 .87 1 1.2.01.23-.7.15-1.5-.19-1.9zm-111-1.9c.83-2 1.4-3.7 1.2-3.8-6.3-4.4-14-6.9-14-4.6 0 2.5 2.6 6 5.2 7.1 1.6.66 3.4 2 3.9 3.1 1.4 2.6 1.8 2.4 3.5-1.8zm217 3.4c-.95-18-.7-20 3.5-25 2.7-3.6 2.8-.65.13 3.2-2.2 3.2-2.6 4.9-2.6 11 0 6.3.13 6.7 1.5 5 .81-1.1 1.5-2.7 1.5-3.7s.45-1.8.96-1.8c.55 0 .59 1.1.1 2.8-1.4 4.5-4.9 11-5 9zm-161-6.6c-.35-1.8-1-3.2-1.5-3.2-1.2 0-1.1 2.8.21 3.6.6.37.85 1.6.55 2.7-.33 1.3-.18 1.7.43 1.1.52-.52.67-2.4.32-4.1zm26 2.9c0-.52-.45-1.2-1-1.6s-1 .08-1 .94.45 1.6 1 1.6 1-.42 1-.94zm26-3c-.92-1.6-2.1-2.8-2.7-2.7-.56.09-.89-.8-.72-2 .16-1.2-.18-2.4-.75-2.8-.58-.36-1-1.6-1-2.7s-.64-3.2-1.4-4.7c-1.2-2.3-4-11-4.1-13-.01-.36-.36-1-.77-1.4-.41-.42-.75-1.5-.75-2.5 0-2.8-4.9-11-7-11-2.3-.6-2.4-.05-.73 3.6 1.6 3.5 2.9 3.5 2.3-.04-.29-1.5-.23-2.1.12-1.2s1.1 2.3 1.6 3.4c.64 1.2.63 1.7-.02 1.3-.55-.34-1 .39-1.1 1.6-.29 7.5-2.1 12-2.2 5.2-.03-3.6-2.6-8.4-4.5-8.4-.86 0-4.4-4.2-4.5-5.3-.02-.44.47-.5 1.1-.12.74.46.88-.01.43-1.4-1.1-3.5.32-2.4 2 1.5.84 2 1.8 3.4 2.1 3.1.72-.72-2.1-7.3-3.4-8.2-.61-.38-1.3.42-1.7 1.9-.35 1.4-1.1 2.5-1.6 2.5s0 1.6 1.2 3.5c1.2 1.9 1.9 3.8 1.7 4.3-.76 1.2 2.1 4.5 3.3 3.8.65-.4 1.1.31 1.1 1.8 0 2.5 6.8 11 8.9 11 1.4 0 1.5.31-.85-6.4-1.3-3.9-1.6-5.6-.75-5.3.67.25 1.1.96.97 1.6-.14.61.16 1.1.66 1.1s1.2 1.8 1.6 4c.37 2.2 1.1 4.2 1.6 4.6.5.31.91 1.2.91 1.9 0 1.1-.56 1.1-3.1-.16-1.7-.84-3.2-1.4-3.4-1.2-.16.19-.02 2.6.32 5.4.38 3.1.92 4.5 1.4 3.7.44-.69.51-2.2.14-3.4-.45-1.4-.31-1.9.43-1.4 1.6.96 1.4 4.8-.31 7.1-1.4 1.9-1.4 1.8-2.1-.8-.37-1.5-1-2.5-1.5-2.3-1.2.72-2.7-1.6-3.5-5.2-.8-3.7.09-4.3 1.4-1 .82 2 .91 2 .97-.94.03-1.8-.39-3.5-.94-3.8s-1-.11-1 .51c0 2.3-2.8-1.7-3.3-4.6-.28-1.9-.49-1.2-.61 2.1-.16 4.4-.35 4.8-1.5 3.2-2.4-3.2-4.6-1.5-4.6 3.6.01 1.8.19 1.9 1.1.67.86-1.2.98-1.1.58.75-.49 2.2.33 3.5 8 12 2.6 3 3.4 3.4 4.7 2.3 1.3-1 2-1 3.9.17 1.3.8 4.1 2 6.3 2.7s4.4 1.6 4.9 2.1c1.9 1.7 2.4-.24.81-3zm-145-.12c1-2 .51-9.1-.86-11-.86-1.4-2 3.2-2.1 8.7-.11 5 1.1 6.1 2.9 2.7zm264 .54c-1.5-1.8-1.6-7.3-.11-8.7.64-.64.79.43.43 3.1-.43 3.2-.19 4.2 1.1 4.7.9.34 1.6 1 1.6 1.5 0 1.4-1.6 1-3-.64zm59 .13c0-1.7-6.7-5.9-7.4-4.7-.29.45 1.2 2 3.2 3.4 4.5 3.1 4.2 3 4.2 1.3zm-150-1.6c.33-1.2.03-2-.79-2s-1.1.75-.79 2c.29 1.1.64 2 .79 2s.5-.9.79-2zm100 .25c-.01-.96-.9-3.2-2-5-1.9-3.1-1.4-4.6.78-2 1.2 1.5 2.7 8.8 1.8 8.8-.33 0-.61-.79-.61-1.8zm-124-2.4c-.88-1.3-1.6-2-1.6-1.6 0 1.1 2.4 4.7 2.8 4.2.22-.22-.33-1.4-1.2-2.7zm12-5.7c-.59-3.1-1.3-7.8-1.7-11-.52-4.4-3.6-14-6.5-20-.75-1.6-.81-1.5-.35.75.44 2 .2 2.8-.94 2.8-.84 0-1.7-.56-2-1.2-.26-.69-.79-.01-1.2 1.5-.4 1.5-1.2 2.8-1.7 2.8-.68 0-.68.42-.02 1.2.55.69 1.6 3.7 2.3 6.6.74 3 1.9 5.6 2.6 5.8.69.27 1.5 2 1.9 3.9.35 1.9 1 3.1 1.5 2.8s.89 1.1.89 3.2c0 2.7.75 4.5 2.8 6.6 3.4 3.6 4 2.1 2.4-6.2zm145 7c0-1 1.1-2.6 2.5-3.5 3.8-2.5 4.4-1.9 1 .97-2.8 2.4-2.5 2.6 1.8.9.97-.39 1.8-.26 1.8.31 0 .55-1.4 1.5-3.2 2.1-4 1.4-3.8 1.4-3.8-.78zm-125-2.1c0-1.1-1.1-3.1-2.4-4.5-2-2.1-2.5-2.3-3-1-.35.91-.19 1.3.38.96.55-.33.99.17.99 1.1 0 1.5 2.6 5.4 3.6 5.4.19 0 .35-.88.35-2zm60-3c-.85-3.6-.88-5.5-.1-6.9.59-1.1 1.1-2.9 1.1-4s.68-2.5 1.5-3.2c1.9-1.6 2-3.1.07-2.4-1.1.42-.97-.37.52-3.3 1.4-2.8 1.8-5.1 1.5-8.3-.26-2.5-.22-3.6.09-2.5s.96 2.5 1.4 3.1c.81 1 .3 3.8-1.6 8.9-.62 1.6-.51 1.8.59.75.74-.69 2.7-1.2 4.4-1.2l3 .08-2.8.84c-3.6 1.1-6.6 4.8-6.7 8-.02 1.4-.54 3.1-1.2 3.7-.7.7-.86 2.5-.43 4.8l.7 3.7 2.9-2.8c1.6-1.5 2.9-2.4 2.9-1.9-.03.94-5.6 7.4-6.4 7.4-.22 0-.94-2.2-1.6-4.9zm-230-1.1c-1.2-4.7-3.3-5.4-2.4-.82.34 1.7.62 3.7.62 4.5s.62 1.1 1.4.82c1.1-.42 1.2-1.4.38-4.5zm30 3c-.37-.6-.17-1.6.44-2.2.81-.81 1.1-.53 1.1 1.1 0 2.4-.52 2.8-1.6 1.1zm131-.49c-.34-.87-.61-2-.61-2.5 0-.51-.39-.92-.86-.92-.48 0-.65 1.1-.38 2.5.26 1.4.92 2.5 1.5 2.5.55 0 .72-.71.39-1.6zm-102-.17c0-.41-.45-1.4-.98-2.2-.78-1.2-.97-1.1-.98.75-.01 1.2.43 2.2.98 2.2s.99-.34.98-.75zm32-2.5c-.81-.81-1.1-.7-1.1.42 0 .85.33 1.9.73 2.3.4.4.9.21 1.1-.43.21-.63-.12-1.6-.73-2.3zm35 2c.61-.74.82-1.6.45-2-.36-.36-.13-.66.51-.66 1.3 0 1.4.24.56 2.4-.33.87-1.1 1.6-1.6 1.6-.64 0-.6-.5.1-1.3zm-38-4.3c-1.3-1.6-4.9-2.4-4.9-1.1 0 2 3.4 4.5 4.6 3.3.73-.68.82-1.5.23-2.2zm7.1 2.7c0-.52-.45-1.2-1-1.6s-1 .08-1 .94.45 1.6 1 1.6 1-.42 1-.94zm-109-4.4c.04-.44-.38-.53-.93-.19s-.97 1.6-.93 2.8c.07 2.1.1 2.1.93.19.47-1.1.89-2.4.93-2.8zm6.3-6.9c-.46-.46-.3-3.4.35-6.6.64-3.2.9-6.2.57-6.7-.57-.94-.89.59-2.7 13-.38 2.6-1.1 4.5-1.6 4.2s-.87.16-.87 1 .44 1.6.98 1.6 1.3 1.2 1.7 2.8c.63 2.4.82 2.1 1.5-2.7.45-3 .44-5.8-.02-6.3zm299 9.2c0-.56 1.1-1.5 2.5-2.2 2.1-.96 2.8-.86 4.2.59 1.6 1.6 1.6 1.7-.93 1.1-1.5-.37-2.9-.18-3.3.44-.85 1.4-2.6 1.4-2.6.06zm-307-3.5c.64-1.4 1.2-3.6 1.2-4.8s.89-4.9 2-8.1c1.1-3.2 1.7-6.2 1.4-6.8-1-1.7-7.4 14-7.4 18 0 4.5 1.2 5.1 2.8 1.4zm175 .05c0-1.4.45-2.5 1-2.5s1 1.2 1 2.8l.02 2.8 1.3-2.5c1.1-2.1 1.1-2.8-.27-4.6-2.3-3.1-5.1-1.4-5.1 3.2 0 1.9.45 3.5 1 3.5s1-1.1 1-2.5zm-160-7.5c1.7-1.2.54-3.6-1.7-3.6-1.5 0-2.2.46-1.9 1.3.26.7.05 1.5-.47 1.9-.53.32-.95 1.4-.93 2.3.03 1.5.22 1.4 1.5-.25 1.5-2 2-.99.87 1.8-.34.87-1.1 1.3-1.7.92-.68-.42-.83-.02-.4 1.1.37.96.71 2.3.75 2.9s.78-.86 1.6-3.3c.86-2.5 1.9-4.7 2.3-5zm3.2 2.3c-1-2.8-1-2.8-1.1 1.1-.06 2.9.22 3.6 1 2.8.79-.79.81-1.9.08-4zm166 1.9c-.04-1.5-.3-2.2-.58-1.5-.74 1.8-2.3 1.5-2.3-.45 0-1.3-.28-1.4-1.2-.54s-.58 1.6 1.2 3.2c3 2.5 2.9 2.6 2.8-.68zm1.8-.98c-.25-.97-.47-.42-.5 1.2-.02 1.6.19 2.4.47 1.8.27-.68.29-2 .03-3zm6.3 1.5c-.01-1.8-.2-2-.98-.75-1.2 1.9-1.2 3 0 3 .55 0 .99-1 .98-2.2zm65-1.2c.83-5 1.4-5.8 1.4-1.9 0 1.6-.47 3.6-1 4.4-.73 1.1-.83.37-.35-2.5zm31 1.7c-1.7-5.4-14-9.5-16-5.5-.53.96-1.3 1.4-1.8.93-1.1-1.1 3.6-4.6 6.2-4.6 2.6-.01 12 5.6 13 7.5.3.78.35 2 .11 2.7-.26.75-.74.34-1.2-1zm43 .48c-1.2-.68-3.7-3.2-5.5-5.7-3.4-4.7-6.9-8.4-10-11-2.3-1.7.42 2.1 6.4 9.1 1.9 2.2 3.2 4.2 2.9 4.5-.27.27-1.1-.19-1.8-1-.7-.83-1.8-1.5-2.5-1.5s-2-1-2.9-2.2c-1-1.5-1.4-1.6-1-.5.43 1.3.04 1.8-1.5 1.8-1.4 0-2.7-1.3-4.2-4-1.1-2.2-1.8-4.4-1.5-5 .31-.5-1.5-2.8-4-5.1-4.6-4.2-6.5-7.8-2.3-4.4 1.2 1 .49 0-1.7-2.3-3.3-3.6-5.6-4.6-5.6-2.6 0 .27.39.26.87-.04.47-.29 1.6.31 2.6 1.3 1 1.1 1.3 2 .64 2.2-.58.19.72 2.4 2.9 4.8 2.2 2.5 4 5.2 4 6 .01.88-1.2.06-3-2l-3-3.5 1.3 6.8-4.4-5.1c-2.4-2.8-5.1-5.4-6-5.7-2.4-.87-3.1-3.4-1.4-5.1 1.2-1.2 1.7-1 3.6 1.3 1.5 2 1.8 2.1 1.1.56-.59-1.2-1.1-3-1.1-3.9 0-1.4.27-1.5 1.5-.44 2.5 2.1 1.7-.5-1-3-1.4-1.3-2.3-2.5-2.2-2.7s2.6 1.8 5.3 4.4c6.4 6.2 10 9.4 14 11 1.5.8 6.1 5 10 9.2s7.7 7.8 8.2 7.8c.87 0 5.3 5.4 5.3 6.5 0 .85-1.3.58-3.7-.77zm-53-.76c-1.3-.51-2.8-.65-3.4-.29-.59.36-.82.04-.53-.75.27-.76 1.1-1.2 1.9-.98.76.23 2.8.61 4.6.86s3.2.85 3.2 1.3c0 1.1-2.8 1-5.8-.18zm-239-3.8c.46-1.8 1.3-3 1.8-2.6 1.3.8 4.2-6.2 3.5-8.4-.3-.95.11-2.6.92-3.7s1.5-1.5 1.6-.95c.2 3 1.3 9.1 1.6 9.5 1 1.1 3.9-1.9 4.5-4.6.35-1.6.69-2.3.75-1.5.09 1.1.43 1.1 1.5.2 1.1-.91 1.5-.88 1.9.13.25.71.28.01.08-1.6-.2-1.6-.37-4.5-.37-6.4s-.3-3.2-.66-2.9c-.37.36-.63 2.4-.59 4.4.07 3.6.04 3.7-.92 1-1.5-4.1-2.7-3.3-3.2 2-.23 2.6-.3 1.1-.17-3.4.3-9.7 1.3-12 3.1-7.8 1.2 2.8 1.3 2.5 1.3-4.2.04-5.6-.43-8-2-11-2-3.4-2.2-3.5-4.5-1.9-2.7 1.8-3.4.76-.76-1.2 1.1-.79 1.4-1.8.95-3.1-.64-1.7-.93-1.6-3 1.1-2.2 2.8-2.5 6.2-.31 4.8.7-.43.85.77.47 3.6-.53 4-.47 4.1.91 2.2 1.3-1.9 5.4-3 5.4-1.5 0 .32-1.4 2.6-3.2 5.1-2.7 3.7-3.3 4.2-3.9 2.7-.57-1.6-.71-1.6-1.4.44-.39 1.2-1.2 2.2-1.8 2.2-.6 0-.74-.74-.32-1.8 2.4-5.7 2.7-9.3 1.1-11-.9-.99-1.6-2.4-1.6-3.1 0-2.1-1.2-.33-2.6 3.7-.69 2-1 4.1-.68 4.6 1.1 1.8 3.4 17 2.6 18-.9.66-3.3 7.1-3.3 8.9 0 2.7 1.8.89 3-3.1 1.6-5.1 3.4-7.6 2.4-3.2-.39 1.6-1.1 3.8-1.6 4.8-.52 1-.7 3-.4 4.5s.3 2.1 0 1.4c-.84-1.9-6.7 1.4-6 3.4.32.83.58 2.2.58 3 0 2.6 2.4.8 3.2-2.5zm62 1.9c-.28-1.1-1.1-2.5-1.9-3.1-1.2-.96-1.2-.64-.3 2 1.2 3.4 3 4.4 2.2 1.1zm28-.53c.03-1.6.25-2.2.5-1.2.26.97.24 2.3-.03 3-.28.68-.49-.12-.47-1.8zm-99-.56c0-.52-.45-.94-1-.94s-1 .7-1 1.6.45 1.3 1 .94 1-1 1-1.6zm80-.44c1 .64.04-3.6-1.2-5.2-.53-.68-1.8-5.5-2.8-11-2.1-10-4.5-18-7.8-24-1.8-3.3-2-3.5-1.5-1.2.46 2.1.14 3.2-1.2 4.2-1.1.77-1.5 1.7-.98 2.2.49.46 1.1.27 1.3-.42.88-2.4 2-1.2 3.2 3.5.65 2.6 1.6 6.1 2.1 7.8.49 1.6 1.2 5.2 1.5 8s.84 6 1.1 7.3c.36 1.7.15 2.1-.8 1.6-.71-.41-.5.15.46 1.2s1.8 2.5 1.8 3.2c0 .64.48 1.2 1.1 1.2s.8.41.49.91c-.31.51 0 1.1.69 1.4.69.24 1.4.05 1.6-.42.18-.47.7-.62 1.2-.34zm128 .58c0-.5.39-1.1.88-1.2 2.2-.84 7.3-13 7.5-18 .13-2.9.54-5.6.91-6 .37-.38.68-.14.68.52 0 .65 1 1.6 2.2 2.1 1.6.65 1.8.92.57.97-1.8.06-2.2 1.1-3.3 7.5-.36 2.2-1.8 5.5-3.1 7.5-2.6 3.8-3.4 7.5-1.2 5.3.66-.66 1.7-1.2 2.2-1.2s-.01.92-1.3 2c-2.4 2-6.1 2.7-6.1 1zm-211-4.3c.39-1.6.24-2.8-.36-2.8-.56 0-1 1.4-1 3.2 0 3.6.44 3.5 1.4-.42zm64 1.8c-.35-.91-.08-1.3.74-.95.87.34 1.3-.49 1.4-2.6.05-1.7-.36-3-.91-3-.54 0-.71-.45-.37-1s.19-1-.33-1c-1.4 0-2.1 2.5-1.4 5.1.48 1.8.27 2.1-1.1 1.6-1.4-.54-1.5-.33-.63 1.3 1.2 2.3 3.5 2.7 2.6.53zm83-1.8c.91-1.8 2.3-4 3.1-4.9.81-.92 1.3-2.5 1-3.5-.33-1.5-.76-1.2-2.3 1.4-2.6 4.4-3.8 4.1-1.9-.36 2-4.8 1.9-5.5-.32-2.1-1 1.5-2.1 2.4-2.5 2.1-.37-.38-.41.69-.07 2.4s.16 3.3-.4 3.7c-1.2.71-.39 4.6.9 4.6.47 0 1.6-1.5 2.5-3.2zm5.2-.33v-2.6l-2.1 2.1c-1.8 1.8-1.9 2.3-.67 3 2 1.2 2.8.52 2.8-2.6zm14 1.1c.38-2 .22-2.3-.89-1.4-.75.63-1.4.74-1.5.26-.56-3.8-.47-5.4.32-5.4.5 0 .82-3.2.71-7-.17-5.7-.44-6.8-1.6-5.9-.74.61-1.4 1.7-1.4 2.5s-.48 1.4-1.1 1.4-.78.45-.44.99c1.2 2 1.6 9 .46 9-1 0-.52 5.2.72 7.2 1.1 1.8 4.1.63 4.6-1.8zm-169-.52c1.1-2.1 2.2-8 1.4-8-.23 0-1.1 1.6-1.9 3.6-2.3 5.4-1.9 8.8.51 4.4zm96-.72c-.36-1.5-.93-3.1-1.3-3.5-1.1-1.3-3.2.82-2.5 2.5.35.92 1 1.4 1.4 1.2s1 .18 1.4 1c.98 2.5 1.7 1.6 1-1.3zm33-1c-.6-3.8-1-4.9-1.7-4.2-.68.8.58 7.9 1.4 7.9.45 0 .56-1.7.25-3.8zm8 2.2c-.33-.86-.1-2.1.53-2.7.84-.84 1.1-.44 1.1 1.6 0 3-.75 3.5-1.7 1.1zm128 .91c-2.1-.87-1.4-2.5.85-1.8 1.8.59 2 .38 1.4-1.7-1.4-4.3-3.7-7-8.4-9.3-5.4-2.7-13-4.3-13-2.6 0 .6-.68 1.1-1.5 1.1-2.7 0-1.5 3.4 2 6 4.2 3.1 4.6 4.6.51 2.5-3.5-1.8-6.5-5.9-5.7-7.9 1-2.8 6.3-4.5 11-3.5 5 1.1 11 4 13 5.9 1.7 1.9 5.2 9.1 5.2 11 .02 1.2-2.4 1.5-4.7.59zm-215-3c-.67-1.7.63-4.5 2.4-5.1.82-.27 3.3 4.5 3.3 6.4 0 1.1-3-1.1-3.3-2.4-.24-.92-.32-.66-.2.58.26 2.6-1.3 3-2.2.61zm189 .14c-.42-1.1-1.7-3.3-2.8-4.8-1.5-2.2-2.2-2.5-2.8-1.5-.59.93-.85.53-.86-1.3-.01-1.5-.32-3.4-.69-4.4-.41-1.1-.28-1.5.35-1.1 1.5.94 3.6-6.8 3.9-15 .16-3.8.32-7.4.35-8 .04-.6.39-.6.97 0 .53.56.55 4.7.05 10-.46 5-.49 9.1-.04 9.3.44.15 1.6.98 2.7 1.8 1.6 1.4 1.7 1.5.14.96-.96-.32-2.4-.83-3.1-1.1-2.8-1.1-2.6 3.7.48 9.3 1.6 3 2.8 6 2.6 6.6-.23.63-.78.24-1.2-.86zm-232-4.5c-.54-1.7-.95-1.9-1.8-.98-.87.93-.86 1.3.04 1.7.66.24.93 1.2.61 2.1-.46 1.3-.31 1.4.65.54.75-.69.97-2 .55-3.4zm118 1.4c0-2-.75-1.7-2 .59-.86 1.6-.78 1.9.47 1.4.83-.32 1.5-1.2 1.5-2zm10-.77c0-.75-.23-2.9-.51-4.7l-.52-3.4 1.4 3.5c1.7 4.2 1.9 6 .59 6-.55 0-1-.62-1-1.4zm-37-4.1c.02-.58.69-.19 1.5.88s1.4 1.5 1.4 1c-.05-1.6-2.7-5.9-3.6-5.9-.46.02-.71-.51-.55-1.2.15-.66-.09-1.4-.54-1.7-.45-.28-.86.25-.93 1.2-.06.93-.39 2.8-.73 4.2-.55 2.2-.5 2.3.41.5.81-1.6.92-1.2.5 2-.5 3.7-.43 3.9.99 2.1.83-1.1 1.5-2.4 1.6-3zm-32 .31c1.8-3 1.8-6.4-.03-5.3-.5.31-.9.08-.9-.5s.55-1.1 1.2-1.1.23-1-.99-2.2c-1.7-1.7-2.5-2-3.4-1s-.93 1.2.06 1.2c.79 0 1 .72.66 1.9-.34 1-.17 2.2.36 2.5.54.34.72 2.2.41 4.1-.7 4.3.15 4.4 2.6.35zm-19-.49c0-.21-1.1-.38-2.5-.38s-2.5.39-2.5.86c0 .48 1.1.65 2.5.38 1.4-.26 2.5-.65 2.5-.86zm82 .93c0-.45.45-1.5.98-2.3.84-1.3.97-1.3.98.19.01.93-.43 2-.98 2.3s-.99.25-.98-.19zm29-.82c0-.84.55-2.4 1.2-3.5.99-1.6.96-2.2-.14-3.2-1.1-1-1.2-1-.64.02.4.72.16 2-.55 2.8-1.5 1.8-2 5.4-.72 5.4.46 0 .83-.68.83-1.5zm-151-1.5c0-1.1-.35-2-.78-2-.44 0-.79.9-.79 2s.35 2 .79 2c.43 0 .78-.9.78-2zm69 .01c.36-1.1-.04-2.9-.94-4.2-.86-1.2-1.6-1.8-1.6-1.3-.03.53-.26 2.4-.49 4.2-.48 3.7 2 4.7 3.1 1.3zm16-.76c-.96-4-1.9-4.6-2.1-1.2-.12 1.7.2 2.7.75 2.4.53-.33.96-.12.96.46s.23 1.1.52 1.1c.28 0 .23-1.2-.13-2.8zm-77-3.2c.65-2.4.61-2.4-.88-.56-.85 1.1-1.5 2.9-1.5 4 .02 1.6.2 1.8.88.56.47-.83 1.2-2.6 1.5-4zm-3.4.69c.01-.44-.43-.53-.98-.19s-.99 1.4-.98 2.3c.01 1.5.14 1.5.98.19.53-.83.98-1.9.98-2.3zm28 .56c-.57-2.4-2.4-5.6-2.4-4.1 0 1.1 2.2 6.8 2.6 6.8.23 0 .13-1.2-.23-2.8zm6.8-2.7c-2.6-2.8-5.4-6.1-6.2-7.3-1.7-2.6-3.4-3-2.2-.46.5.96 1.6 4.2 2.5 7.2l1.6 5.5 9 .18-4.7-5.1zm82 .63c-.42-1.1-.12-1.3 1.1-.87 1.2.46 1.7.1 1.7-1.3 0-1.4.47-1.8 1.8-1.3 1.4.5 1.5.37.5-.73-.69-.74-1.2-2-1.2-2.9.01-1.4.13-1.4.98-.05.82 1.3.97 1.2.98-.32.01-1.2-.57-1.7-1.7-1.5-1.2.24-1.6 1.1-1.4 2.8.3 2.1.14 2.3-1.2 1.1-1.4-1.1-1.6-1-1.6.86 0 1.2-.42 1.9-.93 1.6-1.6-1-2.1 1.2-.91 3.9 1.3 2.8 3.2 1.6 2.1-1.3zm-34 1.3c0-.86-.45-1.3-1-.94s-1 1-1 1.6.45.94 1 .94 1-.7 1-1.6zm48-1.4c-.38-1.2-.46-2.4-.18-2.6.27-.28.8.47 1.2 1.6s.46 2.4.18 2.6c-.27.28-.8-.47-1.2-1.6zm-156-1.7c0-.79.41-1.2.92-.88 1.4.89 3.5-6.4 2.2-7.7-.77-.77-1.2-.52-1.7.84-.49 1.6-2 5.1-4.2 9.7-.19.4.34.47 1.2.14.85-.33 1.6-1.2 1.6-2zm99 1.7c.03 1.2.26 1.1 1.1-.26.57-.96.68-2.3.25-3-.43-.68-.65-2-.49-3s-.22-1.8-.84-1.8c-.61 0-.84-.45-.5-1s.11-1-.51-1c-.67 0-.87-.81-.49-2 .75-2.4-1-2.7-1.9-.42-1.4 3.6.93 15 2.5 12 .64-1 .83-.95.87.21zm98-.2c-1.7-1.7-1.5-2.8.3-2.2 1 .39 1.5-.06 1.5-1.5 0-3.3-1.5-3.3-2.9.01-1.1 2.6-1.1 3.2.04 3.9 2 1.2 2.5 1.1 1.1-.29zm-174-2.4c0-.79-.45-1.4-1-1.4s-1 .93-1 2.1.45 1.8 1 1.4 1-1.3 1-2.1zm106-4.1c-.89-1.9-1.6-4.4-1.6-5.5s-.3-1.8-.68-1.5c-.37.37-1.7-.26-2.9-1.4-3.2-3-3.9-.77-1.2 3.3 1.2 1.8 3.1 5.3 4.2 7.6 1.6 3.6 2.1 4 2.9 2.6.65-1.2.44-2.8-.68-5.1zm112 4.7c0-1.1-.41-2-.91-2-1 0-.44-3.4 1.2-6.8.68-1.4 1.4-1.8 1.8-1.2.46.74 1.2.53 2.4-.62 1.6-1.6 1.7-1.5.99 2.2-1.2 6.3-2.5 9.6-1.8 4.5.38-2.8.23-4.2-.42-3.8-1.4.85-2 8.5-.74 9 .57.24.24.47-.72.51-1.1.05-1.8-.65-1.8-1.9zm-249-5 2.7-5.5-2.5 2.5c-1.4 1.4-2.8 4.1-3.2 6-.89 4.4-.46 3.9 2.9-3zm35 1c-.62-.39-.87-1.4-.54-2.3.34-.86.1-1.9-.53-2.3-1.4-.84-1.6-.66-2.4 2.2-.52 1.7-.29 2.2.87 2.2.86 0 1.6.48 1.6 1.1s.5.75 1.1.37c.8-.49.79-.87-.04-1.4zm59-5.7-1.5-2.8-.04 2.7c-.02 1.5.5 4 1.2 5.5l1.2 2.8.36-2.7c.21-1.5-.31-4-1.2-5.5zm83 3.4c-1.4-1.4-1.5-7-.05-6.2.57.35.77 1.6.44 2.8-.48 1.7-.39 1.9.44.67 1.3-1.8 1.3-2.1.23-3.8-1.4-2.2-5.9.18-5.9 3.2 0 1.4.48 2.4 1.1 2.3.58-.12 1.7 1.1 2.6 2.8 1.3 2.5 1.6 2.7 1.9 1.1.21-1-.1-2.3-.71-3zm-12-2.3c-.68-3.3-1.2-7.3-1.1-9s.73.44 1.5 4.6c1.7 9.1 1.4 13-.37 4.4zm-119 3.1c-.02-1.1.36-2.9.83-4 1.1-2.6 1.1.08 0 3.5-.64 2-.81 2.1-.83.5zm69-.89c.32.33.35-.31.06-1.4-.65-2.5-5-2.5-5.7.04-.26.96-.05 1.5.45 1.2s1.2.2 1.6 1.1c.6 1.6.75 1.6 1.8.08.65-.9 1.4-1.4 1.8-1zm16 1.3c0-.58-.52-2-1.2-3.2-1.1-2.1-1.2-2.1-1.9-.19-.39 1.1-.49 2.5-.23 3.2.57 1.5 3.2 1.7 3.2.18zm58 .13c0-.52-.45-1.2-1-1.6s-1-1.3-1-2.1c0-.82.45-1.2 1-.88s1-.35 1-1.5c0-1.3-.5-2-1.2-1.7-.69.25-1.1 1-.96 1.7.2.88-.5 1-2.4.58-2.2-.55-2.6-.38-2 .96.35.9.63 2.2.63 3 0 .83.74 1.1 2 .8 1.1-.29 2-.03 2 .59s.45 1.1 1 1.1 1-.42 1-.94zm27-2.8c.58-3 .87-3.4 1.4-1.8.5 1.4.92 1.6 1.5.71.85-1.4-1-4.1-2.8-4.1-.64 0-1.2.79-1.2 1.8-.03.96-.4 3-.82 4.5-.46 1.7-.36 2.8.24 2.8.55 0 1.3-1.7 1.7-3.8zm-128 .2c-.27-.71.14-1.5.93-1.8 1.7-.65.32-5.3-1.4-4.9-.61.14-1.1-.42-1.1-1.2s-.45-1.5-1-1.5-1 .56-1 1.2c-.01.69-.26 2.4-.57 3.8l-.55 2.5 3.1-5 .03 2.8c.02 1.5-.41 2.8-.96 2.8s-1 .86-1 1.9c0 1.4.51 1.8 2.1 1.4 1.1-.29 1.8-1.1 1.6-1.8zm58-.56c0-1 .34-1.8.75-1.7 2.1.44 4-1.4 3.5-3.5-1.1-4.9-2.5-8.7-3.2-8.7-.43 0-1.1 2.7-1.5 6-.39 3.4-1.1 5.8-1.6 5.4-.52-.32-.95.77-.95 2.4 0 2.3.37 2.9 1.5 2.4.82-.31 1.5-1.4 1.5-2.5zm-89-4.5c-2.6-2.9-2.9-2.4-1.4 2.5 1.2 3.9 1.3 4 2.3 1.9.89-1.8.72-2.6-.9-4.4zm24 5.2c1.4-1.7 1.1-4.7-.54-5.2-.59-.2-1.6.81-2.3 2.2-1.8 3.9.25 6.1 2.8 3zm127-.48c-.36-.59-1.1-1.1-1.7-1.1-.66 0-.59.57.2 1.5 1.4 1.7 2.6 1.3 1.5-.45zm-205-4.2c1.1-1.6 1.7-2.8 1.2-2.8s-2.2 1.9-3.8 4.2c-1.6 2.3-2.2 3.6-1.2 2.8.96-.78 2.7-2.7 3.8-4.2zm74-1c-1.8-1-2.2-4.3-.63-5.3 1.3-.79.21-5.4-1.8-7.7-.81-.94-1.2-2.4-.89-3.2 1.5-3.9-4.1.94-7.6 6.6-1.6 2.6-1.6 2.7 4.6 9.1 6.1 6.4 6.2 6.5 7.1 4 .67-1.9.5-2.7-.75-3.4zm211 3.2c-.92-1.1-1.4-2.2-.97-2.4s1.5.64 2.5 2c2.2 2.9.86 3.2-1.5.43zm-278-1.4c-.22-.64.32-1.7 1.2-2.3s1.2-1.5.82-1.9c-1.2-1.2-3.2 1.4-3.3 4.1-.02 1.3.34 2.2.81 1.9.46-.29.67-1 .46-1.7zm116 1.3c0-.58.56-.73 1.2-.33s.35-.36-.74-1.7-2.1-2.6-2.2-2.8-.26 1-.26 2.8c0 1.8.45 3.2 1 3.2s1-.48 1-1.1zm86-1.8c0-2-1.8-4.1-3.6-4.1-1.6 0-2.6 4.2-1.4 5.4.63.63 1-.08 1.1-2l.1-3 1 3.2c1.1 3.3 2.8 3.6 2.8.42zm30 .67c0-1.3-2.3-.49-2.8 1-.24.73.21.96 1.2.58.87-.33 1.6-1 1.6-1.6zm-241-4.7c-.51-.51-3.3 3.1-3.4 4.3-.02.47.83-.2 1.9-1.5 1.1-1.3 1.7-2.6 1.5-2.8zm103 3.5c0-.79-.45-1.7-1-2.1s-1 .31-1 1.4.45 2.1 1 2.1 1-.65 1-1.4zm18-.31c-.35-.96-1.3-2.8-2.1-4-1.3-2-1.3-2.2.17-2.2.89 0 1.6-.41 1.6-.91 0-.49-.9-.67-2-.38s-2 1.2-2 1.9c0 1.7-1.7 1.8-2.3.13-.28-.69-.53-.8-.57-.25-.03.55.38 1.7.93 2.5.87 1.3 1.1 1.3 2 0 .79-1.2 1.2-.88 2.2 1.8.68 1.8 1.6 3.2 2 3.2s.46-.79.1-1.8zm-11-2.4c0-.58-.88-.75-2-.4-2 .64-2.8-.88-1-2 .52-.33.67-1.3.32-2.2-.55-1.4-.72-1.4-1.4.28-.7 1.8-.77 1.7-.83-.32-.04-1.2.38-2.2.93-2.2s1-.44 1-.97-.64-.72-1.4-.42c-.92.35-1.6-.27-1.8-1.8-.24-1.3-.38.71-.33 4.4.06 4.7.47 6.8 1.3 6.8.69 0 1.2.47 1.2 1 0 .7.64.69 2-.04 1.1-.59 2-1.5 2-2.1zm32 .35c-.2-1.5-.39-3.1-.43-3.5-.04-.4-.97-1.2-2.1-1.8-1.6-.86-2-.76-2 .52 0 .88.45 1.3 1 .98s1.1-.03 1.2.69c.09.72.26 1.8.39 2.3.12.55.28 1.6.34 2.2.07.69.54 1.2 1 1.2s.77-1.2.57-2.8zm86 .81c0-1.7-3.5-5.2-4.3-4.4-.28.27-.79-.44-1.2-1.6-.36-1.2-1.3-2.1-2.1-2.1-1 0-.67 1 1.3 3.5 1.5 1.9 2.8 4 2.9 4.5.2 1.6.3 1.7 1.9 1.7.82 0 1.5-.73 1.5-1.6zm-147-1.5c.82.5 1 .02 1.3-2.8.05-.69.77-1.8 1.6-2.4 1.2-.95.99-1.1-1.2-1-1.5.09-2.7.5-2.7.91s-.67.75-1.5.75-1.5.67-1.5 1.5-.67 1.5-1.5 1.5-1.5.64-1.5 1.4c0 1.1.66 1.2 3.1.53 1.7-.5 3.5-.66 4-.37zm19-14c-.52-1.3-.74-1.4-1.5-.15-.48.78-.61 1.8-.29 2.4.32.53-.17 1.5-1.1 2.2-1 .76-1.4 1.9-1 2.9.53 1.4.84 1.4 1.6.37.64-.93.83-.59.65 1.2-.15 1.4.17 3.2.7 4 1.1 1.7 2-10 .97-13zm44 10c0-2-.37-3.3-.82-3s-.62-.82-.39-2.4c.26-1.8-.01-3-.68-3-.61 0-1.1-.67-1.1-1.5s-.73-1.5-1.6-1.5c-1.3 0-1.4.27-.37 1.5.69.84 1.4 3 1.5 4.8.26 3.4 2.1 8.7 3 8.7.28 0 .52-1.6.52-3.6zm63-1.4c.27-4.6-1.4-5.5-2.1-1-.34 2.3.6 5 1.7 5 .06 0 .22-1.8.35-4zm-118 1.7c1.7.65 1.7.81-.39-5.1-.98-2.7-2.3-5.1-2.9-5.3-.79-.27-.74.75.18 3.4.83 2.4.97 4.4.39 5.5-1.2 2.3-1.1 3.4.22 2.1.62-.62 1.7-.89 2.5-.59zm114-1.7c-.55-3.7-2.9-6-3.8-3.6-.63 1.6 2 6.6 3.4 6.6.44 0 .61-1.3.37-3zm-192-2.3c-.82-1.3-2.2-.84-3.3 1.1-.93 1.7-.81 1.8 1.4.76 1.3-.62 2.2-1.5 1.9-1.9zm102 1.5c-.66-.22-1.2-1.2-1.2-2.2 0-1-.41-2.1-.91-2.4-.99-.61-.9.66.29 4.2.45 1.3 1.2 2 1.9 1.6.83-.51.81-.8-.07-1.1zm23 .71c0-.58-.45-.78-1-.44s-1 .07-1-.61c0-.67-.27-.95-.6-.62-.77.77.42 2.7 1.7 2.7.52 0 .94-.48.94-1.1zm110-.35c-1.3-2.3-.61-5.3 1.5-6 1.8-.71 3.2 1.1 3.1 4-.1 2-.11 2-.6.04-.43-1.7-.66-1.6-1.7.99-1.1 2.7-1.3 2.8-2.3 1.1zm-106-3.3c-.06-2.4-.17-2.5-.93-.75-1.2 2.7-1.2 3.5 0 3.5.55 0 .97-1.2.93-2.8zm79-.29c-1.6-3-3-3.3-3-.69 0 2.9.74 3.8 2.6 3.1 1-.39 1.1-1 .4-2.4zm-162-.87c-1.2-1.9-2.4-1.2-1.8.98.35 1.3.88 1.7 1.5 1.1.54-.54.67-1.5.3-2.1zm7.4-1.3c1.2-2.3 1.6-3.7.85-3.1-2 1.7-5.1 7.3-4 7.3.53 0 1.9-1.9 3.1-4.2zm208 1.1c-1.3-1.6-2.8-2.9-3.5-3-.64 0-2.3-1.5-3.7-3.2-1.4-1.8-3.5-4.2-4.8-5.4-1.9-1.8-2-2.3-.79-3.4 1.9-1.6 6.3.9 9.1 5 1 1.6 2.1 2.6 2.3 2.4.24-.23-.14-1.1-.84-2-.7-.83-.87-1.5-.38-1.5 1.5 0 3.4 3.8 2.8 5.7-.36 1.1-.26 1.4.27.63 1.2-1.7 3.8.46 4.7 3.8.47 1.9.22 2.8-.92 3.2-2 .75-1.5 1-4.2-2.5zm-223-1.2c-.81-.81-1.1-.7-1.1.42 0 2 1.3 3.3 1.8 1.8.21-.63-.12-1.6-.73-2.3zm150 .37c0-.45-.96-2-2.1-3.5-1.6-2.1-2.3-2.4-3-1.4-.47.73-.82 2-.79 2.8.03.99.34.82.91-.5.73-1.7.87-1.8.93-.25.04.96.52 1.8 1.1 1.8s1 .7 1 1.6.45 1.3 1 .94 1-.98 1-1.4zm16-.58c0-1.4-.45-2.5-1-2.5s-1 1.1-1 2.5.45 2.5 1 2.5 1-1.1 1-2.5zm8 .88c0-1.3-.27-1.4-1.5-.38-.82.68-1.5 1.4-1.5 1.6s.68.38 1.5.38 1.5-.73 1.5-1.6zm36-5.2c-3.9-3.7-7.2-7.1-7.2-7.5s.77-.71 1.7-.71c1.6 0 14 13 14 14 0 1.8-2.1.43-8.8-6zm-198 3.2c.26-1.6.13-1.7-.73-.42-1.6 2.3-1.3.27.53-3.2 1.2-2.4 1.8-2.8 2.5-1.7.69 1.1.88.98.89-.52.01-1.1.73-2.7 1.6-3.7.86-.96 1.7-3.2 1.8-5.1.15-1.8 1-4.8 1.9-6.5s1.6-4 1.6-5c-.06-2.4-6.1 11-6.3 13-.2 2.7-2.7 2.6-4.2-.24-1.6-3.2-4.7-3-7.3.54-2 2.7-2.1 3.3-.86 4.8.79.92 2.5 3.6 3.8 5.9 2.4 4.4 4.2 5 4.8 1.6zm37-.36c.84-2.4.77-2.8-.4-2.4-1.1.42-1.4-.43-1.4-3.6 0-2.9-.38-4-1.2-3.8-.69.25-1.2 1.1-1 1.8.35 2.3 2.6 11 2.9 11 .13 0 .7-1.3 1.3-2.9zm38 .55c.29-1.5.06-1.6-1.7-.47-1.1.69-1.8 1.6-1.5 2.1.81 1.3 2.8.29 3.2-1.6zm66-2.7c-.95-1.5-2.4.98-1.7 2.9.47 1.2.7 1.2 1.5-.17.5-.89.6-2.1.23-2.7zm-16 1.5c-.34-.87-.61-2.2-.61-3.1s-.45-1.2-1-.86-1 .03-1-.69c-.01-1-.23-.97-.91.11-.6.94-.34 2.2.76 3.7 1.9 2.6 3.7 3.1 2.8.78zm35 .59c.69-1.1-6.2-8.6-7.1-7.8-.32.33-.27 1.6.12 2.8.48 1.5.93 1.8 1.5.98.5-.82 1.1-.18 1.8 1.9 1.1 3.1 2.5 4 3.7 2.1zm-114-1.6c0-.86-.45-1.3-1-.94s-1 1-1 1.6.45.94 1 .94 1-.7 1-1.6zm106-3.2c.01-.69-.43-1.2-.98-1.2s-.99 1.2-.98 2.8c.01 2.1.22 2.4.98 1.2.53-.83.98-2.1.98-2.8zm-140-.19c.31-.52-.22-1.4-1.2-2-1.5-.91-1.6-1.2-.27-2 .91-.6 1-1 .31-1-1.8-.03-2.7 2-1.4 3.2.8.8.63 1.6-.63 3.1-1.7 1.9-1.7 1.9.45.81 1.2-.63 2.5-1.6 2.8-2.1zm64 1.4c0-.83-.45-1.5-1-1.5s-1 .67-1 1.5.45 1.5 1 1.5 1-.67 1-1.5zm113-.35c-2-3.7-3-7.2-2.2-7.2 1.1 0 4.6 7.8 3.9 8.6-.32.31-1.1-.34-1.7-1.4zm-50-2.6c-.26-1.4-.09-2.2.38-1.9.48.29.86-.14.86-.95s.15-2.1.34-2.8c.18-.73.14-.99-.09-.57-.23.41-.84.5-1.3.18-.51-.31-1.6.12-2.5.97-1.4 1.4-1.4 1.8.03 4.6 1.9 3.7 2.9 3.9 2.3.56zm-108-.05c-.7-.84-1.5-1.3-1.7-1.1-.7.69.71 2.6 1.9 2.6.66 0 .59-.57-.2-1.5zm144-.85c-.08-1.4-.63-2.2-1.4-1.9-1.4.56-1.4.59-.64 2.7.91 2.4 2.2 1.9 2-.79zm83-1c-.35-1.9-.32-4.4.07-5.6.63-2 .43-2.2-1.8-1.6-1.4.35-3.2.91-4.1 1.2-2.5.95-2-2.9.66-5.2 4.4-3.7 11-6.2 9.2-3.4-.34.55-1.3 1-2.2 1-1.9 0-7.4 3.8-7.4 5 0 .5 1.2.36 2.7-.31 2.1-.96 2.8-.96 3.1.03.22.68.79 1 1.3.72.46-.29 1.1-.07 1.5.49s.15 1-.43 1-1.1 1.1-1.1 2.5c0 1.8.42 2.3 1.5 1.9 1.8-.69 1.8-.23.34 3.1-1.6 3.5-2.6 3.2-3.4-.86zm-110-.59c0-1.6-.39-3-.86-3s-.81 1.4-.75 3c.14 3.9 1.6 3.9 1.6 0zm-73 .06c0-.52-.45-1.2-1-1.6s-1 .08-1 .94.45 1.6 1 1.6 1-.42 1-.94zm50-4.4c-3.2-6.6-3.3-8.8-.33-5.7 1.2 1.3 2.3 3.9 2.5 5.7.14 1.8.53 3.8.86 4.3s.36.97.07.97-1.7-2.4-3.1-5.4zm-8.1 2.8c.33-.87.14-2.4-.44-3.5-.83-1.6-1.4-1.7-3-.89-1.8.99-1.9 1.2-.34 3.5 1.9 2.8 2.9 3.1 3.8.89zm36-1.2c-1-1-1.8.51-1 1.9.63 1 .87 1 1.2.01.23-.7.15-1.5-.19-1.9zm-76-.27c0-1.1-.41-2-.91-2-.49 0-.67.9-.38 2s.7 2 .91 2 .38-.9.38-2zm108-1c-.34-.55-.31-1.5.07-2.1.67-1.1 2.4.58 2.4 2.4.03 1.1-1.8.92-2.5-.25zm-212-.96c-.74-1.2 5.9-9.2 6.9-8.3 1.1 1.1.59 5.2-.61 5.2-.65 0-2.2.93-3.4 2.1-1.5 1.4-2.4 1.7-2.9.96zm145-3.3c-.81-.81-1.1-.7-1.1.42 0 2 1.3 3.3 1.8 1.8.21-.63-.12-1.6-.73-2.3zm-125 1.5c0-1.3-1.2-2.2-2.2-1.6-1 .64-.14 2.4 1.2 2.4.52 0 .94-.38.94-.83zm145-2.7c0-.8-.45-1.5-1-1.5s-.89.56-.75 1.2-.24 1.2-.83 1.1c-.6-.11-1.1.43-1.1 1.2 0 1 .47 1.1 1.8.41 1-.54 1.8-1.6 1.8-2.4zm-138-.08c0-.82-.45-1.2-1-.88s-1 1.3-1 2.1c0 .82.45 1.2 1 .88s1-1.3 1-2.1zm183 1.2c-.8-.97-.84-1.6-.12-2.1.58-.36 1-.17 1 .41s.45 1.1 1 1.1c.6 0 .52-.78-.22-2-.85-1.4-1.4-1.6-2-.78-.89 1.4-2.3-2-3.3-8-.65-3.9-.54-4.2 1.3-4 2.4.36 7.2 5.8 7.2 8.2 0 1.2-.54 1.5-2.1 1-1.8-.58-2-.43-.99 1.4.6 1.1 1.5 2.3 2.1 2.7.63.38.46 1.2-.43 2-1.8 1.8-2 1.8-3.5.03zm-186-6.3c-1.2-2.7-1.3-2.7-2.7-.85-1.5 2-1.9 5.8-.72 6.9.39.38 1.6-.2 2.7-1.3 1.8-1.7 1.8-2.3.72-4.8zm92 1.7c0-3 .19-4.3.42-2.8s.23 4 0 5.5-.42.28-.42-2.8zm84 .37c-3-5-2-5.3 1.3-.39 1.5 2.2 2.2 4 1.7 4-.5 0-1.9-1.6-3-3.6zm4.1.08c-1.9-4.1-1.3-5.2.84-1.7 2.2 3.6 2.4 4.2 1.2 4.2-.46 0-1.4-1.2-2-2.6zm-168-2.8c0-1.3-.46-.7-1.9 2.4-1.1 2.4-1.1 2.4.36.56.86-1.1 1.6-2.4 1.6-2.9zm244 1c2.3-3.9.9-4.8-1.9-1.3l-2.3 2.8-.54-2.8c-.58-3 .67-6.4 2.4-6.4.58 0 .75.88.4 2-.65 2 .88 2.8 2 1 .82-1.3 3.5-1.3 3.5.06 0 .58-.44.78-.99.45-.54-.34-.78-.03-.52.69.26.71-.47 2.4-1.6 3.8l-2.1 2.5 1.7-2.8zm-131 .14c-1.8-1.8-1.5-3.6.79-4.3 2.2-.68 4 .05 4 1.6 0 .62-.72.59-1.9-.06-2.7-1.4-3.8.66-1.4 2.5 1 .78 1.4 1.4.8 1.4s-1.6-.51-2.2-1.2zm-101-1.3c.02-1.3 2.8-5 3.4-4.4.24.24-.42 1.6-1.5 2.9-1 1.4-1.9 2-1.9 1.5zm16-2.4c0-.52.46-1.2 1-1.6s.77-1 .48-1.5-.08-1.1.48-1.5 1-.12 1 .5c0 .69.86.88 2.2.47 2-.56 1.8-.31-.75 1.9-3.2 2.7-4.5 3.2-4.5 1.7zm-2.5-4c.62-1.1.36-1.3-1.1-.75-1.5.52-1.3.2.56-1.4 2.9-2.5 4.3-.68 1.5 1.9-1.2 1.1-1.5 1.2-.96.23z"/></svg>
