<?xml version="1.0" encoding="UTF-8"?>
<svg fill="currentColor" fill-rule="evenodd" aria-hidden="true" viewBox="0 0 319 452" xmlns="http://www.w3.org/2000/svg"><path d="m0 226c0-150 .34-226 1-226s1 76 1 226-.34 226-1 226-1-76-1-226zm252 210c-.1-2.5 2.2-4.4 5.4-4.5 3.7-.14 4.4.59 2.4 2.6-1.9 1.9-4.8 1.5-4.1-.55.4-1.1-.15-.84-1.5.75-1.2 1.4-2.2 2.1-2.2 1.7zm18-.41c-1.5-.22-2.5-.78-2.2-1.2.29-.47-.43-.59-1.6-.29-1.9.5-2 .34-.94-1.6.64-1.2 2.2-2.6 3.4-3 1.2-.47 2.8-1.6 3.6-2.5 1.9-2.3 5-3.9 5-2.6 0 .57-.47 1-1 1s-2 .9-3.2 2c-2.1 2-1.6 2.5 1.9 2.1 1.8-.22 2.7 2 1.3 3.2-.99.91-1.1.78-.65-.59.34-.96.16-1.8-.39-1.8s-.88 1.2-.72 2.6c.32 2.9-.3 3.2-4.5 2.6zm-37-1.5c0-.42 2.7-.76 6.1-.76 4.6 0 6.7-.5 8.6-2 1.4-1.1 2.2-2 1.8-2s.02-.9 1-2 2.2-2 2.7-2 .4.9-.19 2c-.77 1.4-.76 2 .05 2 .62 0 .26 1.2-.81 2.6-1.8 2.5-2.4 2.6-11 2.8-4.8.06-8.7-.23-8.7-.65zm-182-3.5c-14-.26-15-.36-14-2.2.39-1.5.01-2-1.6-2-3.4-.02-5.3-1.6-3.9-3.2.91-1.1.61-1.3-1.5-1.2-1.4.07-4.8-.71-7.4-1.7-2.7-1-5.7-1.8-6.8-1.8-2.1 0-3.7-1.7-2.6-2.8.36-.36 1-.08 1.4.62.43.7 1.2 1.2 1.7 1 1.6-.38 8.4 1.3 9 2.2.3.49 1.6.62 2.9.3 1.3-.32 3.7.13 5.4 1 3.4 1.8 4.2 2.9 1.4 1.9-1.4-.51-1.5-.38-.47.77.71.76 2.6 1.4 4.3 1.5s2.8-.07 2.5-.34c-.75-.76 2.4-3.7 7.1-6.7 5.4-3.4 5.6-2.5.23 1-2.2 1.5-3.8 2.9-3.5 3.2.51.51 12-6.1 19-11 2.4-1.6 4.6-2.7 4.9-2.3.32.33-.01.6-.74.6s-1.1.26-.75.58 1.5.1 2.6-.49c2-1.1 12-4.1 15-4.5.83-.11 2-.45 2.5-.77.54-.31 3.2-1.1 6-1.7 2.8-.6 7.8-1.7 11-2.5s6.2-1 6.2-.53-1 .89-2.3.89c-1.2 0-3.3.7-4.5 1.6-1.2.85-2.2 1.2-2.2.88s-1.2.1-2.6 1c-1.7 1.1-2.8 1.4-3.3.67-.42-.68-1.2-.72-2.1-.12-1.2.76-1.1.94.53.96 1.6.02 1.7.21.55.95-.88.55-2.1.54-3.2-.03-1.2-.67-2.9-.33-5.8 1.2-4.9 2.5-4.6 3.6.46 1.9 2-.66 4.3-.92 5.2-.58.87.33 2.2.06 3-.6 1.1-.94 1.6-.91 2.3.17.66 1.1 1.8.57 5.3-2.3 4.4-3.6 6.7-4.6 6.7-2.8 0 .49-.74 1.2-1.6 1.5-.91.34-1.4.86-1.1 1.2.96.96 9.8-5 9.3-6.3-.26-.69.18-1.2.99-1.2s1.5.45 1.5 1c0 1.4 2.3 1.3 3.8-.18 1.5-1.5 5.2-1.8 5.2-.5 0 .55.85.22 1.9-.73 1-.94 3.3-1.8 5-1.8 1.7-.04 3.1-.5 3.1-1s.9-.63 2-.28c1.2.36 2 .18 2-.43 0-.59.52-1.1 1.2-1.1.66 0 .38.87-.65 2-3 3.4-.63 2.2 4.6-2.2 2.7-2.3 5.2-3.9 5.5-3.6s1.7-.04 3.2-.78c2.3-1.2 2.8-1.1 3.8.24.94 1.3 1.3 1.3 2 .3.54-.87.42-1.1-.35-.6-.63.4-1.2.24-1.2-.34s1.1-1.1 2.5-1.1c3 0 10-2.8 13-4.7.88-.75 2.3-1.1 3.2-.73.91.34 2.8-.09 4.1-.98 2.9-1.9 4.5-2.1 4.5-.52 0 .61-.9 1.3-2 1.6s-2 1.1-2 1.8-1.4 1.8-3.2 2.4c-1.7.6-2.9 1.4-2.6 1.7.32.31 1.5.07 2.7-.54 1.6-.83 2.1-.83 2.1.02 0 .71.67.86 1.8.4.96-.41 2.9-.69 4.2-.63 2.2.1 2.3-.02.73-.93-.97-.57-2.8-.73-4-.37-2.2.66-2.2.64-.23-.9 1.1-.87 3-1.6 4.3-1.6 1.3-.02 3.2-.52 4.3-1.1 2.4-1.3 4-.26 1.8 1.1-1.2.73-.98.93.82.94 2 .02 2.1-.26 1.2-1.9-.85-1.6-.66-2.1 1-2.6 1.1-.37 1.9-.85 1.6-1.1-.23-.24-2.1.27-4.1 1.1s-4.1 1.3-4.6 1c-.49-.31-1.2-.1-1.5.46s-1.1 1-1.6 1c-2.4 0 .55-1.9 6.3-4 3.4-1.3 5.5-2.5 4.6-2.7-.92-.2-3.6.56-5.9 1.7-4.9 2.4-6.6 2.6-5 .72.61-.74.87-1.6.58-1.9-.29-.29.39-.77 1.5-1.1s1.8-.13 1.5.37c-1.2 2 1.4.78 3-1.3.92-1.2 1.4-1.7 1.1-1-.34.69-.13 1.2.45 1.2s1.1-.48 1.1-1.1 4.6-3.2 10-5.9c10-4.8 16-6.8 15-4.9-.32.52-.15.94.37.94s.89.79.81 1.8c-.11 1.4.69 1.8 3.8 1.8 3.1.08 3.6-.13 2.4-1-.89-.65-1.4-2.2-1.1-3.8.32-2.4-.04-2.8-2.9-3.3-1.8-.34-5.3-.11-7.8.52-4.2 1-7.4 1.7-9.3 1.9-.44.04-.48.61-.08 1.2.47.77.19.97-.82.58-.85-.33-1.9-.23-2.4.21s-2.7 1.4-4.9 2.1-5.4 2.7-7.1 4.4c-1.7 1.7-5.4 3.9-8.1 4.9-5.8 2-6.3 2.1-6.3.88 0-.48 1.8-1.2 4-1.5 4.4-.7 9.5-4.7 6.9-5.4-.79-.24-1.9-1-2.5-1.7-.84-1-1.3-.87-2.4.86-1.2 2-1.2 2 .22.88.95-.78 1.8-.92 2.2-.33.32.53.03 1.2-.66 1.5-.69.27-.36.54.74.6 1.5.07 1.7.3.65.95-.74.47-3 .49-5 .04-2-.44-4-.54-4.6-.21-.54.33-2.6.53-4.7.45-2.2-.09-4.2.45-5 1.3-.97 1.2-.98 1.5-.01 1.5.68 0 .98.65.68 1.4-.39 1-.05 1.3 1.1.92 1.4-.45 1.4-.3-.17 1-2.4 1.9-18 6.8-23 7.2-4 .36-4 .36-.85-.64 3-.96 5.4-3 3.5-3-2.3 0-7.1 3.2-6.6 4.4.49 1.3-1.8 2.2-8.1 3.2-1.1.18-7.1 1.7-13 3.4-6.2 1.7-13 3-16 2.9-2.6-.08-3.2-.29-1.6-.55 3.6-.59 5.4-1.3 4.8-1.9-.75-.75-14 2.4-15 3.7-.72.6-2 .81-2.9.48s-1.3-.19-1 .31c.53.86-5 2.7-6.8 2.2-.46-.12-.54.24-.2.81.35.56-.08 1-.95 1-.88 0-1.8.67-2.2 1.5-.31.83-1 1.2-1.6.85-.57-.35-1.5.03-2.2.86-1.4 2-4.7 3-6.4 2-.89-.57-.03-1.4 2.8-2.7 4.9-2.2 5.9-3.4 2.3-2.7-1.8.34-2.4.14-1.9-.65.39-.62 2-1.1 3.5-1.1 1.7 0 3.1-.65 3.4-1.6.35-.91 1.3-1.4 2.1-1 .88.33 1.9-.27 2.6-1.5.6-1.1 1.3-1.8 1.6-1.5.28.29 3.5-1.3 7.2-3.5s6-3.3 5.2-2.3c-1.4 1.6-1.3 1.7 1 1.1 1.4-.39 3.4-1.1 4.5-1.5s5.4-1.8 9.5-3c14-3.9 16-5.1 15-6.6-1.3-1.6-2.4-1.9-1.4-.43.99 1.6-8.1 4.8-23 8-4.9 1.1-4.8.01.34-2.1 2.2-.94 4.3-2.6 4.6-3.6.31-1.2 2.4-2.5 5.7-3.6 2.8-.97 5.4-1.7 5.7-1.5.9.4 8.6-3.9 10-5.6.74-.9 3-2.4 4.9-3.3 5.5-2.5 5.8-2.5 3.1-.34-1.9 1.6-2.1 2.1-.87 2.1.89.01 2.2-.66 2.9-1.5.9-1.1 2.4-1.4 5.4-1 3.9.47 4.4.22 7-3 1.5-1.9 3.1-3.3 3.5-3 .41.25 1.8-.65 3.1-2 1.3-1.4 1.8-2.5 1.3-2.5s-1.7.73-2.4 1.6c-1.2 1.5-1.4 1.3-2-1.7-.77-3.8-.08-5.5.82-2.1.31 1.2 1 2.2 1.5 2.2.51 0 .7-.38.41-.85-.99-1.6 3.9-4.6 7.7-4.8 2.1-.07 3.8.27 3.8.75s-1.5.89-3.2.91c-1.8.01-4.4.68-5.8 1.5-2.5 1.4-2.5 1.4.92.81 2.9-.54 3.3-.39 2.8 1-.77 2 0 2 3.3.16 3.2-1.8 6.4-2 5.4-.25-.4.69.17.46 1.3-.5 2.2-1.9 4-1.2 2.2.91-.61.74-.74 1.3-.28 1.3s-.72 1.4-2.6 3c-1.9 1.7-2.5 2.6-1.4 2 1.2-.54 2.6-1.6 3.3-2.4.66-.79 2.6-2 4.4-2.7s3.8-1.7 4.6-2.3c.74-.56 2.1-1.1 3-1.2.92-.1 2.3-.35 3.1-.56.92-.26 1.7.75 2.1 2.9.39 1.8 1.1 3.6 1.5 4 .42.39.47-.51.12-2-.51-2.1-.23-2.8 1.4-3.3 2.3-.73 2.5-1.6.8-3.3-.93-.93-.9-1.2.17-1.2.75 0 1.1-.28.74-.62-.77-.77 1.8-3.4 3.3-3.4.62 0 .85-.45.51-1-.83-1.3-2.1-1.3-3.7.25-.73.69-2.7 1.4-4.3 1.6-3.2.35-4.2.84-3.3 1.8.32.32 1.6.06 2.8-.58 2.3-1.2 3.6-.79 2.6.9-.35.57-2.7.88-5.2.7-2.5-.19-4-.02-3.4.39.85.52.74.9-.4 1.3-.87.33-1.6.19-1.6-.33s-.68-.68-1.5-.36c-.95.36-1.5-.02-1.5-1 0-.89-.68-1.6-1.5-1.6s-1.5.4-1.5.89c0 1.1-3.3.92-4.1-.23-.34-.45-2.1-.44-4 .04-1.9.48-4.4.71-5.7.51l-2.3-.35 2-2.8c1.7-2.4 1.8-2.9.46-3.4-.85-.33-1.3-.23-1 .22.28.46-.14.83-.94.83-2.4 0-1.7-1.6 2.7-5.8 2.8-2.7 4.4-3.6 4.9-2.8.53.86.91.87 1.4.05.39-.62 1.1-.88 1.6-.59.48.29 1.5-.37 2.3-1.5s3.8-3.2 6.8-4.8c5.6-2.9 18-12 18-13 0-.41.74-1 1.6-1.4 1.4-.52 1.4-.38.38.9-1 1.2-1 1.5.11 1.6.87.02.54.73-.88 1.9-2.4 2-2.8 3.1-1.3 3.1 1.7 0 5.1-4.3 4-5-1.3-.8.34-2.2 4.6-3.8 1.7-.67 3.8-2.5 4.7-4 1.9-3.2 5.1-3.9 4.2-.95-.32 1-.1 1.8.48 1.8.59 0 1.1-.62 1.1-1.4s.69-1.9 1.5-2.6c1.3-1.1 1.4-.97.92.63-.59 1.8-.57 1.8.95-.01 1.5-1.8 1.5-1.7 1.3 1.2-.12 1.7-.56 3.2-.97 3.2s-.68.34-.59.75c.71 3.4-5.3 7-16 9.6-3.4.84-9.8 3.1-14 5.1s-8.4 3.6-9 3.6c-1.2 0-7.8 7.8-7.5 8.8.08.36-.78 1.9-1.9 3.5l-2 2.9 2.4-1.3c1.3-.7 4.1-2.6 6.2-4.3s4-2.8 4.3-2.5-.97 1.4-2.8 2.5c-3.1 1.8-4.7 5.3-2.5 5.3.49 0 .64.4.35.88-.72 1.2 4.5 2.2 7.4 1.4 1.7-.44 1.9-.8.89-1.4-.89-.57-.27-.85 1.9-.86 1.8-.01 3.5-.46 3.8-1 .34-.55 1.6-.94 2.8-.87s2.9-.18 3.8-.56c1.1-.45 1.9.07 2.7 1.6l1.1 2.3.07-2.2c.05-1.5.53-2 1.5-1.7 1.1.41 1.3-.03.82-1.8-.53-2.1-.42-2.2 1.1-.96 1.5 1.2 1.7 1.1 1.7-1.4 0-1.5.28-2.5.63-2.2.81.81 4.4-1.1 4.4-2.3 0-.51 1.2-2.2 2.8-3.8 9.4-9.9 11-12 11-15 0-2.8 1.9-5.5 2.1-2.8.04.72.47.41.95-.69.49-1.1.85-6.9.82-13-.06-9.1-.43-12-2.4-16-2.8-5.8-4.7-7.5-7.9-6.9-1.4.26-2.2.09-2-.38.29-.48 1.4-.86 2.4-.86 1 0 2.1-.56 2.3-1.2.29-.81 1.4-.18 3.2 1.8 1.5 1.6 2.5 2.6 2.3 2-1.3-2.6-3.6-8.3-4.6-11-1.1-3.3-1.3-9.5-.2-9.5.77 0 1-1.7 1.1-8 .07-4.4.11-4.4 1.1-1.5.54 1.6.99 3.7 1 4.5 0 .82.6 3.5 1.3 6 .73 2.5 1.6 5.7 1.9 7.2s1 2.8 1.5 2.8c1.1 0 .39-5.5-1.6-12-.76-2.7-1.4-6.3-1.4-8s-.94-4.2-2.1-5.6l-2-2.5.67 2.4c.46 1.6.32 2.2-.43 1.7-.61-.38-1.1-1.8-1.1-3.1s-.42-2.4-.93-2.4c-.52 0-1.1-1.2-1.2-2.8-.2-1.7-.84-2.6-1.7-2.5-.88.19-1.2-.27-.78-1.2.72-1.9-1.4-2-6-.34-4.4 1.6-5.5.41-5.7-6.6-.14-4.7.04-5.4 1.1-3.9.77 1 1 3.1.63 5.5-.73 4.6.86 5.7 5.1 3.4 1.9-.97 3.4-1.2 4.5-.58 1.1.57 2.1.48 2.8-.26 1.6-1.6 1.4-2.8-.23-2.8-1.3 0-2.7-2.8-3-5.7-.06-.65-.43-1.5-.81-1.9s.34-2.1 1.6-3.8c3.3-4.5 6.2-16 4.6-18-1-1.3-.98-1.4.39-.89 2.2.84 2.1-.51-.11-2.2-2.5-1.9-3.8-1.7-2.1.25 1.2 1.5 1.1 1.6-.71.99-1.6-.51-2.3-.07-3.2 1.9-.64 1.4-1.8 2.8-2.7 3.1-.83.31-1.5 1-1.5 1.6s-1.1 1.9-2.5 3c-1.4 1.1-2.5 2.5-2.5 3.2 0 .69-1.8 3.2-4 5.6-2.2 2.4-3.9 4.7-3.8 5.3.2.94-11 11-12 11-1.2.11-5.8 4.8-5.8 5.9 0 1.5-1.7 1.4-2.4-.11-.29-.69-.44-.14-.34 1.2.14 1.9-.31 2.5-1.8 2.5-1.5.02-1.9.62-1.8 2.5.18 1.7-.02 2.1-.61 1.2-.69-1.1-.99-1-1.5.3-.37.95-.22 1.4.36 1 .55-.33.98-.24.96.2-.06 1.3-3.7 5.3-4.8 5.3-.9 0-4.7 4.5-12 14-1.6 2.1-3 3.4-3 2.8s.68-1.7 1.5-2.6c.82-.82 1.5-1.8 1.5-2.1s3.6-5.2 8-11c4.4-5.6 8-11 8-12 0-2 7.2-8.7 8.8-8.2.68.22 1.2-.28 1.2-1.1s1.4-2.5 3-3.7c2.9-2 3-2.5 2.8-8.1-.11-3.2.09-6.2.46-6.6.36-.36.66 1.9.66 5.1 0 4.1.35 5.6 1.2 5.3s1.3-4.1 1.4-14c.15-16 .59-21 2.9-31 .91-4.4 1.4-8.8 1.2-9.8-.39-1.5-.08-1.7 1.5-1.2 1.7.54 1.9.31 1.3-1.6-.46-1.4-.34-2 .35-1.6 1.6 1 3-2.5 2.9-7.6-.05-3.1.65-5.8 2.2-8.2 1.6-2.6 1.8-3.6.9-3.6-.73.01-2.9 3.2-4.8 7s-3.6 6.8-3.9 6.5c-.26-.26.73-2.8 2.2-5.7 2.3-4.5 2.7-6.3 2.5-13-.2-8.1-1.7-16-3.1-16-.43 0-.79-.48-.79-1.1s.56-.75 1.2-.37-.16-.64-1.9-2.3-3.4-3.9-3.8-5c-.4-1.2-1.3-1.9-2.4-1.7-.94.18-2.2.36-2.9.4-1.4.09-6.3 4.4-6.3 5.5 0 .4-.94 2-2.1 3.7s-1.8 3.6-1.5 4.4c.33.87-.03 1.5-.91 1.5-.9 0-1.5.96-1.5 2.5 0 1.8-.42 2.3-1.5 1.9-1.1-.44-1.5.2-1.5 2.7 0 3.7-2.2 5.9-6.2 5.9-4.6.05-5.9-.9-5.2-3.8.59-2.6.55-2.6-.93-.65-1.3 1.7-1.4 2.2-.12 3.6.78.87 1.4 2 1.4 2.4s.73 1.6 1.6 2.6c3.1 3.5-1.3 17-5.1 16-.68-.26-4.1.13-7.6.87-4.7.97-6.9 2-8.4 3.9-2.4 3-3.7 3.4-2.8.83.35-.96.3-1.4-.11-1.1-.4.36-.83 1.3-.95 2.2-.38 2.6-2.8 4.7-5.3 4.7-3.1 0-6.5 1.8-5.8 3.1.33.53 1 .7 1.5.39.51-.32.93.11.93.95 0 3-5.1-.54-8-5.5-.67-1.2-.53-1.6.51-1.6.8 0 1.4.88 1.4 1.9 0 1.4.47 1.8 1.6 1.3.87-.34 2-.61 2.6-.61.56 0 .76-.68.45-1.5-.36-.94.01-1.5 1-1.5 1.2 0 1.4-.61.98-2.2-.33-1.2-.62-3.8-.65-5.8-.03-2.9-.22-3.2-1.1-1.7-.57.98-.77 3.2-.45 5l.6 3.2-1.4-3c-.8-1.7-1-3.4-.52-4 1.2-1.3 1.1-4.6-.06-4.6-.51 0-1.9 1.2-3 2.6-1.1 1.4-2.1 2.2-2.1 1.8 0-.48-1.7.99-3.8 3.3-3.2 3.5-11 8.4-13 8.4-1.4 0 2.2-2.7 5.2-3.9 1.8-.71 5.3-4 7.9-7.3 2.6-3.3 5.8-6.5 7-7 1.9-.85 2.1-1.4 1.4-2.9-1.1-2-1.7-1.9-11 2.6-3 1.4-6.7 2.8-8.2 3.1-1.5.33.82-1 5.2-3s8.1-3.6 8.2-3.6.26-.5.26-1.1-.67-.84-1.5-.53c-2.9 1.1-1.5-2.1 1.4-3.3 3.4-1.4 7.4.06 6.5 2.4-.29.74.08 2 .82 2.7s1.4 2.4 1.5 3.7c.22 3.2.91 3.7 2.9 2 1.5-1.3 1.6-1.2.52.79-1.4 2.6-1.5 6.3-.28 6.3.48 0 1.1-1.4 1.5-3 .35-1.8 1.2-3 2.1-3 2.2 0 1.9-2.6-.66-5-2.7-2.5-3.9-2.6-3.2-.29.3.96-.14.63-.96-.75-1.3-2.2-1.3-2.6-.07-2.8.79-.18 1.4-.97 1.4-1.8 0-1.8 1.5-1.8 3.2-.04 1.1 1.2 1.5 1 2.9-1.1l1.6-2.4.6 3c.33 1.6.18 4.4-.33 6.2s-.71 3.6-.44 4c.26.44.04 1.1-.49 1.4s-.71 1.3-.38 2.1c1.1 2.9 2.4-.2 3.2-7.8 1-9 2-11 3.9-9.2.71.77.84 1.4.28 1.4-.55 0-.73.72-.39 1.6.57 1.5.69 1.5 1.5.01.5-.88.77-2.4.61-3.4-.17-.99.25-1.6.95-1.5.69.14 1.2-.38 1.2-1.1 0-.77.6-1.6 1.3-1.9.96-.37 1.3.24 1 2.1-.27 2.2-.14 2.1.82-.63 1.8-5.3-.03-6.1-6.4-2.9-7.5 3.8-8.4 3.3-1.3-.75 4.2-2.4 6.4-3.2 7.6-2.5 1.6.88 2.9.35 2.9-1.2 0-.46-.99-.83-2.2-.83-2 0-1.8-.27 1.1-2.4 1.8-1.3 4.4-4 5.7-6 1.3-2 2.7-3.6 3-3.6.77 0-3.5 7-6 9.8-1.7 1.9-1.8 2.2-.42 2.2.88 0 1.8.56 2.1 1.2.39.96.52.95.58-.06.05-.74.59-.99 1.2-.58.79.48.96.17.53-.95-.35-.91-.2-1.7.33-1.7 2.2 0 2.5-.41 3.8-4.7 1.1-3.7 1.7-4.4 3.2-4 1.1.27 1.9.09 1.9-.4 0-.5-.56-.92-1.2-.94-.83-.02-.71-.45.33-1.2.88-.67 1.9-2.6 2.4-4.2.43-1.6.99-2.4 1.2-1.7.25.69.87 1 1.4.69.5-.31.91-.13.91.4 0 .99.7.93 4.8-.36 2.4-.77 2.6-1.2 2.3-6-.18-2.8-.11-2.9 1.3-1 .81 1.1 1.2 2.5.97 3.2s.06 1.3.73 1.3c1.2 0 1-1.5-.45-5.1-.47-1.1-.02-1.8 1.5-2.2 1.8-.48 2.1-1 1.5-3.4-1.1-4.3-1.2-12-.18-13 1.3-1.9.1-2.6-1.6-.92-.85.85-1.3 3-1.2 5.6.13 2.3-.2 4.1-.71 4.1-.52 0-.95-.67-.95-1.5 0-2.5-1.7-1.7-3.9 1.8-1.2 1.8-2.1 2.7-2.1 2-.01-.66 1.3-2.8 3-4.6s3-4.6 3-6c0-1.6 1.5-4.1 4-6.7 3.7-3.8 4.4-5.2 4.1-7.3-.19-1.1 5.2-.43 6.2.79.5.59.63.31.31-.67-.33-1 .75-3 2.8-5.2 1.8-2 3.5-3.1 3.7-2.4.49 1.5 3.6-.47 6.1-3.8 2.2-2.9 1.6-4-1.2-2.4-1.5.8-2.1.76-2.5-.17-.3-.73-.53-.52-.58.51-.04.96-.58 1.8-1.2 1.8-.68 0-.87-.96-.48-2.5.51-2 .19-2.6-1.9-3.1-1.4-.35-2.2-1.1-1.9-1.6.33-.53-.13-1.8-1-2.7s-1.4-2.9-1.2-4.2c.45-3-1.7-6.5-4.5-7.2-2.3-.59-1.6-2.7.8-2.7 2.8 0 5.1 4.1 4.8 8.6-.23 3.5.07 4.4 1.6 4.9 1.1.34 1.9 1.2 1.9 2s.96 1.9 2.1 2.5c2 1.1 2.1.95 1.5-1.5-.41-1.6-.24-2.6.42-2.6.59 0 .82.42.5.93-1.3 2.1 1.5 2 3.8-.16 1.3-1.2 4.3-3.5 6.6-5.1 3-2 4.1-3.5 4.1-5.2 0-2.9-.08-3-4.9-.48-2.1 1.1-4.1 1.7-4.5 1.3-.34-.34-.62-.1-.62.54s-.39 1.2-.86 1.2c-.48 0-.65-1.1-.38-2.5.35-1.9.05-2.5-1.2-2.5-.96 0-2.3-1.5-3.1-3.5-1.7-4.1-1.9-5.9-.41-5 .58.35 1.7.1 2.5-.57.8-.66 1.5-.77 1.5-.25 0 .53 1 .87 2.2.76s2.8.25 3.5.79 1.2.71 1.2.38c0-1 7.7 3.3 9.6 5.5 1.6 1.7 1.6 2.2.37 3-1.2.79-1.1.93.54.69 1.8-.25 2 .21 1.7 3.8-.18 2.9.19 4.3 1.2 4.7 1 .4 1.5-.06 1.5-1.5 0-3.4 1.9-5.9 4.6-5.9 2.9 0 4.1 2.2 2.7 5.3-1.2 2.8-.59 4.7 1.6 4.7.95 0 2.2.41 2.7.92s2.8 1.2 5 1.5c4 .56 4 .54-1.7-2.1-3.1-1.5-5.9-3.2-6.1-3.8-.22-.58 2.5.28 6 1.9 6.1 2.8 8.3 5.5 4.6 5.6-2.3.04-6.8 2.5-5.6 3.2.49.28 2.2.81 3.7 1.2 2.4.57 2.6.93 1.6 2.1-.67.8-2.1 1.5-3.1 1.5-2.5 0-7.8-2.7-10-5.2-1-1-3.1-2.2-4.8-2.5-1.6-.32-2.9-1.1-2.9-1.8s-.67-1.8-1.5-2.5-1.2-1.6-.94-2.1c.3-.49-.15-.89-1-.89s-1.6.5-1.6 1.1c0 .75-1.4.9-4.4.47-3.4-.51-4.6-.29-5.7 1-1.2 1.4-1.1 1.9.79 3.4 1.2.97 2.5 3 2.8 4.5.39 1.6.98 2.3 1.4 1.6.43-.71 1.5-.21 2.9 1.4 1.2 1.4 2.6 2.5 3.2 2.5.56 0 1.9.9 3 2s1.5 2 .95 2 .03 1 1.4 2.2 3 3.3 3.6 4.6c.68 1.3 1.4 2.1 1.7 1.8.26-.26-.44-2.2-1.6-4.3s-1.8-4-1.6-4.2c.77-.77 2.5.91 2.5 2.4 0 .82 1.8 5.1 4.1 9.5 3.8 7.4 4 8.1 2.5 9.8-.88.99-1.6 2.6-1.7 3.7-.07 1.9-.08 1.9-.83-.01-.77-2-1.9-1.1-1.5 1.2.1.69.25 2.2.32 3.3.06 1.1.53 1.8 1 1.5 1.2-.71 1.9 3 2.6 12 .27 4 1.4 9.6 2.5 12 2.3 6.1 2.3 6.1 1 5.3-.55-.34-1-.09-1 .55s.7.9 1.6.56c1.1-.41 1.5-.06 1.3 1.2-.49 3.6 3.6 15 5.4 15 .52 0 2.2 1 3.8 2.2 1.6 1.2 4.7 3.6 6.8 5.2s4 3.5 4 4.1c.03.62.76 1.7 1.6 2.4.97.81 1.3 2.1.96 3.4-1.5 5.2-1.5 7.3-.02 11 .9 2.3 2.8 5.3 4.3 6.6 2.9 2.5 4 4.1 7.3 10 1.2 2.2 2.5 4.2 2.9 4.5.42.28 1.5 2.1 2.4 4 .91 1.9 2.8 5.8 4.3 8.5 5.2 10 10 28 8.2 29-.51.32-.93 2-.93 3.8s-.64 4.1-1.4 5.2-1.7 3.7-2.1 5.7-1.2 4-1.8 4.4c-.68.41-.81 0-.37-1.2.93-2.4-.04-5.2-1.8-5.2-.79 0-1.2.45-.83.99.33.54.14.7-.43.35-.57-.36-1.3.25-1.6 1.3-.29 1.1-.12 1.7.38 1.4s.93.03.95.75c.01.72.71.19 1.5-1.2 1.2-2 1.4-2.1 1-.5-.26 1.1-.75 4.1-1.1 6.7-.7 5.2-5 10-12 14-1.9 1-4.6 3.5-5.9 5.4-1.3 2-2.6 3.4-2.9 3.1-1.1-1.1 2.2-5.4 6.7-8.8 3.7-2.8 4.9-4.5 5.9-8.3.69-2.6 1.1-4.9.88-5.1-.36-.37-2.8 5-4.2 9.1-.62 1.9-.72 1.9-2-.5-1.8-3.2-4.6-13-4.2-14 .14-.71.71-1.6 1.3-2 .59-.44.38-.75-.5-.77s-1.1-.33-.5-.77c1.8-1.3 3.6-7.6 2.5-8.6-.65-.65-.99-.24-.99 1.2 0 2.1-1.4 3-2.3 1.4-.65-1.2 1.9-5.3 2.8-4.5.45.41.52-.08.16-1.1s-.66-2.6-.66-3.4c0-1.3-.25-1.3-1.4.33-1.4 1.9-1.4 1.9-.88-.31.31-1.2 1.1-2.3 1.7-2.3.62-.04.12-.47-1.1-.97-1.7-.68-2.2-1.7-2.3-4.2-.01-3.5-5.4-20-8.8-26-1.1-2.2-2.8-5.6-3.8-7.5-1.6-3.3-1.8-3.4-2.2-1.2-.27 1.5.35 3.1 1.7 4.3 2.4 2.2 2.2 4.1-.42 4.7-1.1.21-1.5-.08-1.1-.75.37-.61.23-1.1-.31-1.1-.55 0-1.3-.82-1.6-1.8-.68-2.2-3.2-2.4-4-.45-.3.79-.08 1.1.51.75 1.3-.79 3.9 1.3 3.9 3.1 0 .81-.77 1.1-2.1.73-1.9-.5-2-.33-.97 1.6.63 1.2.84 2.2.46 2.2s.01.79.85 1.8c5.4 6.1 9.2 25 9.5 46 .13 11 .68 18 1.6 20 1.4 4.2 1.6 30 .21 34-.38.96-.45 2.4-.15 3.2.3.78.15 2.9-.34 4.8-.92 3.4-1.4 7.3-2.6 19-.64 6.5-.57 6.9 1.2 6.2 1.5-.57 1.6-.46.71.48-.82.82-.9 1.8-.26 3 .69 1.3.51 2.2-.61 3.4-1.8 1.8-3.9 2.1-2.8.38.4-.66.7-5.9.65-12s.33-12 .84-13c.51-1.4 1.2-7.7 1.5-14 .29-6.4.76-12 1-12 .27-.44.02-.81-.56-.81s-1.1-1.5-1.1-3.4-.49-3.6-1.1-3.8c-.59-.2-1.3-3.3-1.6-6.8-.38-5-1-6.9-2.7-8.5-1.2-1.1-2.8-3.4-3.4-5-1.1-2.6-1-2.8.13-1.2 1.4 1.8 3.2 2.5 2.2.85-.3-.49.08-1.1.85-1.4 1.2-.44 3-6.8 2.7-9.4-.15-1.4-5.6-.99-8.1.62-2.3 1.5-2.4 1.5-1.2-.07.72-.92 1.2-2.5 1-3.5-.24-1.4.32-1.8 2.4-1.8 1.6.02 2.8-.5 2.8-1.2 0-.71.67-1.3 1.5-1.3.82 0 1.8-1.1 2.1-2.5 1.1-4.5-.26-19-2.5-26-2.3-7.6-3.9-10-6.2-10-2.1.05-5.1 2.7-4.4 3.9.36.59.18 1.1-.4 1.1s-1.1-.39-1.1-.87-1.6-.15-3.5.75c-1.9.9-3.3 2.2-3 2.9.24.69 0 1.2-.53 1.2-.89 0-1.4-1.4-1.1-3.2.07-.41-.61-.75-1.5-.75-1.3 0-1.4.27-.38 1.5.68.83.95 1.5.6 1.5-.36 0 .05 1.4.92 3 .86 1.7 1.3 3.5.96 4s-.06.97.6.97 1.8.79 2.5 1.8c1.2 1.5 1.5 1.6 2.4.25.72-1.1 1 .18 1 4.6.01 3.4.36 6.4.77 6.8.79.79.92 1.3 1.1 4.6.06 1.1.57 1.8 1.1 1.4s1-.14 1 .44-.42 1.1-.93 1.1c-.52 0-.73 1.1-.48 2.5.33 1.8.01 2.5-1.2 2.5-1.2 0-1.5.61-1.1 2.2 1.2 4.9 4.6 13 6.1 15 .89 1 1.6 2.4 1.6 3.1.01.81.35.72.98-.26.86-1.3.97-1.3.98.01.01.83-.86 2.1-1.9 2.7-1.6 1-2.1.94-2.9-.42-1.2-2.1-2.7 11-1.6 15 .57 1.8.39 2.1-.9 1.6-.89-.34-1.6-.15-1.6.43 0 .65 1.2.79 3 .38 1.8-.4 3.6-.2 4.5.51.78.64 1.9.88 2.5.53 1.6-1 1.2.08-1.4 4-2.3 3.4-2.4 4.2-1.9 12 .32 4.5.98 8.9 1.5 9.8 1.3 2.6 1 3.8-.68 3.2-.85-.33-1.4-1.1-1.1-1.7s-.28-2.5-1.1-4.1c-.83-1.6-1.5-4.6-1.5-6.5.01-1.9-.19-2.6-.46-1.5s-.88 2.2-1.4 2.6c-1.1.67-4.9 15-4.9 19-.02 2.5-2.9 7.6-3 5.2-.02-.66.42-1.5.97-1.8 1.2-.72 1.4-2.5.25-2.5-.9.03-5.4 10-4.8 11 .24.23 1.1-.85 2-2.4l1.6-2.8-.22 3.8c-.12 2.1-.55 3.8-.94 3.8-.4 0-1.4 1.4-2.3 3-1.8 3.5-1.3 3.7 2.5 1 1.6-1.1 3.5-1.7 4.4-1.4 1.1.42 2.1-.7 3.6-3.9 1.1-2.5 2.5-4.8 3.1-5.1 1.5-.91 1.2.84-.47 3.1-.81 1.1-1.5 2.7-1.5 3.7s-.49 1.8-1 1.8c-1.2 0-3.3 5-2.4 5.9.34.33 1.2-.17 1.9-1.1 1.9-2.6 2.4-1.2 1.8 4.9l-.52 5.5 3.9-.82c2.1-.45 5.7-.73 8-.62 3.9.18 4.2 0 4.8-2.9.88-4.4.84-4.5-1.6-5.3-2.2-.67-2.2-.7.5-1.7 1.5-.56 2.8-1.5 2.8-2 0-1 1.2-2.3 4.4-4.8 1.5-1.1 1.7-1.2 1.1-.12-.58.96-.41 1.2.56.87.76-.27 1.3-.99 1.2-1.6s.35-.86 1.1-.59c1.4.53 4.6-2.2 8.5-7.1 1.3-1.7 2.1-2.2 1.8-1.2-.32 1-.13 1.6.44 1.2.55-.33.99-.16.99.39s-.45 1.3-1 1.6-1 .11-1-.5-.43-.85-.96-.53c-.52.33-.73 1.2-.45 1.9s-.19 1.9-1 2.6c-.85.71-1.6.94-1.6.51s-.9.03-2 1-2 2.3-2 2.8.95.14 2.1-.91c1.2-1 2.3-1.8 2.5-1.6.22.15 1.8-.43 3.4-1.3 4.6-2.4 3.6-.99-2 2.6-2.7 1.8-4.7 3.6-4.4 4.1s.75.85 1 .85c.27 0 .25-.4-.06-.9-.3-.49.09-1.1.88-1.4s1.6-.01 1.9.65c.28.78 1.3.42 2.9-1.1 2.7-2.5 3.8-2.8 3.8-1.2 0 .58-2.1 2-4.8 3.1-6.2 2.7-10 5.6-10 7.1.13.7-.72 1.1-2.1.94-1.3-.14-2 .17-1.7.68.31.51.11 1.2-.46 1.6s-.8 1-.51 1.5c.91 1.5-2.6 4.1-4.6 3.5-1-.33-1.9-.32-1.9.02 0 2 3.4 11 4.6 12 .77.63 1.4 2.5 1.4 4.1v2.9l4.6-3.2c4.5-3.1 4.6-3.1 3.9-.8-.39 1.3-1.9 3.3-3.4 4.5s-4.4 3.8-6.5 5.8c-3.8 3.5-7.8 4.6-9.2 2.5-.37-.6-3.2-.93-6.5-.76-3.3.16-6.4-.19-7-.8-.59-.59-1.3-3.1-1.5-5.6-.36-3.8-.03-4.9 2-6.8 3-2.8 2.3-5.4-1.3-4.6-2.2.56-2.4.44-1.2-.93.81-.97.89-1.6.22-1.6-.59 0-1.4.57-1.9 1.3-.91 1.4-5.7 3.7-7.8 3.7-.77 0-3.1.99-5.1 2.2s-4.5 2.2-5.4 2.3c-.94.07-3.7 1.8-6.2 3.8-2.5 2-4.8 3.4-5.1 3.1-.33-.34-2.3-.3-4.3.09-2.3.43-3.3.99-2.5 1.4 1.4.88-2.9 2.9-13 6.2-3.8 1.2-7.8 2.9-8.8 3.7-.96.84-2 1.2-2.4.91-.34-.35-1.5-.17-2.6.4-1 .57-4.7 1.5-8.1 2-3.4.54-8.7 1.9-12 3.1-3 1.1-7.1 2.4-9 2.9-1.9.43-6.8 1.7-11 2.8-4 1.1-8 1.7-8.9 1.4-.93-.36-1.3-.18-.92.43.4.65-.37.82-2.1.47-2-.42-2.2-.66-.9-.95 1-.22 1.6-.96 1.3-1.7-.28-.74.02-1.5.68-1.8.65-.23.9-.74.54-1.1s-1.5.22-2.6 1.4c-1.1 1.2-4.2 2.5-7.3 3.1-7.2 1.4-7.9 2.4-1 1.6 3-.39 5.2-.45 4.9-.13-.31.31-5.3 1.2-11 2-15 2.2-24 4.8-41 13-3.6 1.7-7.2 3.3-8 3.6s-8.2.43-16 .27zm6.1-3.8c-.7-.7-3.7.71-3.7 1.7 0 .51.94.43 2.1-.19 1.1-.61 1.9-1.3 1.6-1.6zm-7.7-4c0-.72-3.8 1.6-4.6 2.8-.37.6.5.32 2-.62 1.4-.95 2.6-1.9 2.6-2.1zm26 1.5c0-.51-.9-.44-2 .15s-2 1.2-2 1.4c0 .21.9.14 2-.15s2-.94 2-1.4zm-21-1c3.2-1.6 3.8-2.3 2.4-2.6-1.8-.38-1.8-.46 0-2.4 1.7-1.9 1.6-1.9-1.9.19-4.3 2.5-4.7 3.1-1.6 2.3 1.5-.39 1.9-.2 1.4.59-.4.64-1.3 1.2-2 1.2-.72 0-1.9.68-2.6 1.5-1.7 2-.66 1.9 4.3-.7zm17 .26c.25-.75-.12-1.1-.87-.87-.72.24-1.5 1-1.8 1.8-.25.75.12 1.1.87.87.72-.24 1.5-1 1.8-1.8zm7.1-2c1.4-1.4 1.6-2 .62-2.4-.71-.28-1.8 0-2.4.61-.83.83-1.5.63-2.5-.74-.9-1.2-2-1.6-3.3-1.2-1.8.63-1.8.6.05-.84 1.7-1.3 1.8-1.5.23-1.5-.95 0-2.2 1.2-2.7 2.6-1.2 3.1-1.4 2.8 3.6 4.1 2.2.57 4.1 1.1 4.2 1.1.14.05 1.1-.77 2.2-1.8zm17-4.6c1.4-.83 1.9-1.4 1-1.4-.83 0-2.6.64-4 1.4-1.4.83-1.9 1.4-1 1.4.83 0 2.6-.64 4-1.4zm-.58-3.5c.63 0 1.2-.89 1.2-2 0-1.3-.34-1.6-.98-1-1.3 1.3-3.9 1.3-3.1-.01.34-.55.17-1-.38-1s-1.3.48-1.7 1.1c-.37.59-1.3.83-2 .55-.84-.32-1.2 0-.83.84.3.78 1.6 1.2 3.2 1.1l2.6-.29-2.2 1.8c-1.2.99-2.2 2.1-2.2 2.5 0 .37 1.2-.27 2.6-1.4 1.4-1.1 3.2-2.1 3.8-2.1zm-19-.17c-2.1-1.2-3.7-.24-3 1.7.44 1.1 1 1.2 2.6.35 1.9-.99 1.9-1.2.39-2zm-40-.61c-4.4-.31-6-1.4-3.8-2.7.51-.31 1.1-.05 1.3.59.29.85.97.83 2.7-.07 1.2-.67 3-.9 4-.5 1.8.78 3.1 1 7.6 1.3 1.6.09 2.7.42 2.4.72-.73.73-8.1 1.1-14 .67zm24-1.8c1.1-.84 3.4-2.2 5-3l3-1.5-3 2.5c-1.6 1.4-3.9 2.8-5 3l-2 .52 2-1.5zm46-.9c1.1-.81 1.5-1.5 1-1.4s-1.8.69-2.9 1.5-1.5 1.5-1 1.4 1.8-.69 2.9-1.5zm-1.3-2.1c1.2-1.5 1.2-1.6-.88-.47-2.3 1.2-2.9 2.1-1.4 2.1.48 0 1.5-.75 2.2-1.7zm39-1.5c0-1-3.6.75-4.5 2.2-.35.58.48.5 2-.16 1.4-.65 2.6-1.6 2.6-2zm-45-.33c1.1-.81 2.4-1.5 3-1.4s.19.69-.88 1.5-2.4 1.5-3 1.4-.19-.69.88-1.5zm50-1.3c-.1-1.3-.71-1.7-2-1.4-1.7.45-1.7.54-.04 1.8 2.3 1.7 2.2 1.7 2-.44zm4.8-.73c1.8-1.4 1.8-1.5.11-1-1 .32-2.2.58-2.8.58-.51 0-.92.45-.92 1 0 1.4 1.3 1.2 3.6-.58zm-91-1.4c.34-.55 1.5-1 2.6-1s1.9.45 1.9 1-1.2 1-2.6 1c-1.4 0-2.3-.43-1.9-1zm70-3c1.4-1.1 2.2-2 1.8-2s-1.9.9-3.3 2-2.2 2-1.8 2 1.9-.9 3.3-2zm-109 0c1.4-.44 3.2-.84 4-.89 1.3-.07 1.3.03 0 .89-.82.53-2.6.93-4 .89l-2.5-.09 2.5-.8zm7-.76c0-1 5.9-2.3 10-2.1 2 .08 1.7.26-1 .84-1.9.41-4.7 1.1-6.2 1.5-1.6.44-2.8.35-2.8-.23zm108-2.8c-.33-.34-1.2.44-1.8 1.7-1.1 2.2-1.1 2.3.61.61 1-.95 1.5-2 1.2-2.3zm-94 1.6c-1-1.7-.14-2.2 3.9-2.3 2-.05 3.6-.48 3.6-.96 0-.47.35-.64.78-.38.42.27 3.5-.15 6.8-.92 3.3-.78 8.8-1.4 12-1.4 6.7-.02 10-1.4 20-7.6 5.7-3.7 6.6-4 5.8-1.9-.83 2.2-20 12-23 11-2-.53-16 1.7-22 3.5-1.9.55-3.8.73-4.4.4-.54-.33-1.3-.04-1.7.64-.57.93-.94.95-1.5.06zm29-1c4.2-2.6 5.2-2.6 2 0-1.4 1.1-3.2 2-3.9 2-.74-.01.13-.91 1.9-2zm115-3.2c2.1-1.8.76-2-3.6-.72-6 1.8-7.5 4-1.9 2.8 2.3-.52 4.8-1.4 5.6-2zm-11-1.4c.9.35 1.2.02.8-.96-.32-.82-.86-1.4-1.2-1.2-.35.18-1.9.94-3.4 1.7s-2.8 1.8-2.8 2.3c0 .52 1.2.19 2.6-.74s3.2-1.5 4-1.2zm77-.37c-1.2-.76-.97-.95 1-.89 1.4.05 3.6.45 5 .89 2.3.73 2.2.81-1 .89-1.9.04-4.2-.36-5-.89zm-62-2.5c1.8-.52 3.3-2.5 1.9-2.5-1 0-7.6 3.1-7.6 3.6 0 .53.55.43 5.8-1.1zm76-.92c-.64 1.7-.56 1.7 1.1.17 2.4-2.2 3.1-13 .91-13-.82-.32-1.8-2-2.2-3.7-1.4-6.8-5.8-9.8-9.4-6.4-1.1 1-1.2.93-.73-.5.34-.96.23-1.8-.24-1.8-1.1 0-2.2 2.9-1.6 4 .29.46.07 1.1-.49 1.5-1.6.97-1.2 2.5.6 2.5 1.2 0 1.4.31.51 1.3-.61.74-.82 1.6-.45 2 .36.36.05.66-.68.66s-1 .3-.67.66c.36.36-.35 1.2-1.6 1.8-1.8.92-2.2 1.9-2.2 5.3.04 2.3-.32 4.2-.81 4.2-.5 0-.61.47-.25 1 .35.57 1.4.8 2.3.51s3.7-.16 6.2.29c3.3.6 5.3.43 7.4-.61 2.7-1.3 2.8-1.3 2.2.36zm-145-.59c1.8-1.2.25-1.2-2.5 0-1.3.57-1.5.88-.5.91.83.03 2.2-.38 3-.91zm-58-4.9c5.5-2.7 9.2-5 8.2-5s-4 1.1-6.8 2.5c-3.5 1.8-5.5 2.3-6.6 1.6-.89-.5-3.2-.54-5.2-.09-5.8 1.3-4.8.25 1.5-1.6 7.1-2.1 5.6-3.1-1.9-1.2-5.4 1.4-11 .77-7.6-.79.96-.39 2.4-.45 3.2-.14.83.32 1.5.11 1.5-.46 0-.6.89-.75 2.1-.36 1.4.43 1.9.3 1.5-.36-.35-.57.3-1.3 1.4-1.7 1.2-.36 1.9-.87 1.6-1.1-.25-.26-2.2.24-4.2 1.1-2.1.87-4 1.4-4.3 1.1-.9-.9 2.1-8.5 3.4-8.5.67 0 1.8-.68 2.5-1.5s2.4-1.6 3.9-1.6c1.6-.09.88-.42-1.9-.85-3.9-.6-3.3-.73 4-.91 4.7-.12 11-.37 15-.56 3.5-.19 7.4.03 8.5.5 1.4.54-1.5.87-8.2.91-5.7.03-10 .48-10 1 0 1.4 1.8 2.2 2.5 1.1.98-1.6 2.5-1.2 1.9.48-.64 1.7 1.2 2.1 2.1.5.34-.55 1.4-.98 2.3-.96 1.1.03.74.56-1.2 1.6-4.4 2.4-2.4 2.8 2.2.43 2.5-1.3 4.1-1.6 4.1-.96 0 .62.72.85 1.6.51 1.2-.46 1.4-.2.99 1-.48 1.2-.21 1.5 1.1.91.97-.39 4.1-1.5 6.9-2.5 2.8-.99 6-2.2 7-2.8 1-.53 4.4-1.2 7.6-1.6 4.7-.47 5.9-.28 6.6 1.1.84 1.5 1.2 1.5 3.3.12 1.3-.84 3.7-1.8 5.4-2.2 2.9-.65 2.9-.61 1 .95-1.1.89-3.5 2.3-5.2 3-3.6 1.5-4.5 2.9-1.2 1.9 1.1-.35 2-.44 2-.2 0 .93-8 5.7-11 6.3-1.6.38-4.1 1.8-5.7 3-1.6 1.3-4 2.6-5.5 2.9s-3.3.77-4.2 1-.15-.72 1.5-2.1l3-2.5-4 1.6c-2.2.9-4.2 2-4.5 2.4-.28.45-1.9 1.1-3.5 1.5-2.4.52-1.8-.02 2.4-2.5 2.9-1.7 5.1-3.4 4.9-3.6-.25-.24-3.5.91-7.2 2.6-8.1 3.6-9.7 3.8-3.6.44 2.5-1.4 3.5-2.2 2.2-1.9-1.3.34-2.2.14-2.2-.47 0-.59-.54-1.1-1.2-1.1-.87 0-.9.3-.1 1.1s-1.5 2.4-8.6 5.9c-5.3 2.6-11 5.1-13 5.4s1.5-1.6 7-4.3zm138 2.3c4-2.1-.04-1.6-4.5.59-3.5 1.7-3.6 1.9-1 1.3 1.6-.33 4.1-1.2 5.5-1.9zm-150 .6c0-.91 5.9-3.5 6.5-2.8.24.24-1.1 1.2-3 2-1.9.87-3.5 1.2-3.5.82zm15-1.9c.73-1.2 4.6-2.1 4.6-1.1 0 .83-2.4 2-4.1 2-.54 0-.73-.4-.43-.88zm155-5c.65-.82-.16-.56-1.8.59-1.6 1.1-4 2.4-5.2 2.8-1.2.38-2.2 1.1-2.2 1.7 0 1.2 7.6-2.9 9.3-5.1zm-178 3.9c2-1.3 3.3-1.3 2.5 0-.34.55-1.4.99-2.3.98-1.5-.01-1.5-.14-.19-.98zm29-.5c0-1.7 1.2-2 2.1-.54.33.52 1.4.7 2.3.4 1.5-.47 1.5-.39.22.53-2.2 1.6-4.7 1.4-4.7-.39zm58-1.1c1.3-1.2-.8-1-2.9.24l-2.5 1.5 2.5-.66c1.4-.37 2.7-.84 2.9-1zm5.6.62c.78-1.3-.54-1.3-2.5 0-1.3.84-1.3.97.19.98.93.01 2-.43 2.3-.98zm-20-2.4c-.29-.47.36-.57 1.4-.22 2.9.92 5.2-.28 4.8-2.5-.2-1.1.13-1.9.74-1.9s.83-.29.48-.64c-.35-.34-1.9.21-3.4 1.2s-4.4 2.6-6.3 3.5l-3.5 1.6 3.2-.1c1.7-.06 2.9-.49 2.6-.96zm98-1.9c1.6-.83 3.7-1.3 4.5-1.1 1.2.34 1.2.23.2-.47-.96-.68-.22-1.6 2.8-3.6 2.3-1.5 3.9-3 3.7-3.2-.25-.26-3.1 1.3-6.3 3.4s-6.9 4.4-8.2 5.1-2 1.7-1.6 2.3c.41.66.88.69 1.3.09.34-.54 2-1.6 3.6-2.5zm41 1.3-4-.66 4.2-.48c3-.34 4.2-.12 4.2.79 0 .71-.11 1.2-.25 1.1s-2-.44-4.2-.79zm-122-1.6c0-.82-.42-1.5-.94-1.5-1.3 0-2.2 1.6-1.4 2.4 1.1 1.1 2.3.69 2.3-.86zm15 .6c-.3-.49.09-1.1.88-1.4s1.6-.01 1.9.65c.23.65.82.82 1.3.36.5-.46.12-1.2-.86-1.8-.96-.54-1.7-1.7-1.7-2.7 0-1.4 1.1-1.7 5.2-1.9 2.9-.11 7-.67 9.2-1.2 4.1-1.1 9.8-1.9 15-2 1.5-.04 2.8-.47 2.8-.95 0-2.2-13-3.5-20-1.9-4.8 1-6.6 1.4-12 2.2-1.9.29-4.4 1.5-5.7 2.7-1.3 1.2-2.8 1.8-3.5 1.4-.79-.49-.97-.34-.52.4.4.63.29 1.2-.22 1.2-.52 0-1.2.87-1.4 1.9-.35 1.3-.09 1.8.88 1.4.76-.29 1.2-.9.87-1.4-.28-.45.06-1.2.75-1.6.7-.4.95-.38.57.05-.88.97 2 4 3 3.1.37-.37.01-1.1-.8-1.6-1.1-.67-1.1-.93-.18-.94.72-.01 1.2-.79 1-1.7-.16-.98.45-1.9 1.4-2.1 1.4-.28 1.6.29 1.4 3.1-.17 1.9-.63 3.9-1 4.6-.42.69-.05 1.2.91 1.2.89 0 1.4-.4 1.1-.9zm12-.57c1.1-.81 1.5-1.5.88-1.5s-1.9.63-3 1.4-1.5 1.5-.88 1.5 1.9-.63 3-1.4zm-85-.53c.34-.55.11-1-.5-1s-.84-.45-.5-1 .03-1-.69-1-.19-.92 1.2-2l2.5-2-2.5.87c-1.4.49-2.5 1.5-2.5 2.3 0 1.4-1.4 2.8-2.8 2.9-.44.01-.48-.51-.08-1.2.49-.8.16-.96-1-.5-.96.37-2.3.71-2.9.76-.64.04.18.49 1.8.98s3.8.63 4.9.31c1.2-.39 1.6-.21 1.2.51-.38.61-.24 1.1.31 1.1s1.3-.45 1.6-1zm130 .1c0-.5 2-2.1 4.5-3.6 5.2-3.1 5.6-3.8 1.6-3.2-3.6.58-5.3 1.5-4.6 2.7.79 1.3-2.5 2.8-4.7 2.2-1.5-.39-1.6-.7-.6-1.4 1.8-1.2 3.1-1.1 2.3.11-.35.56.03.74.87.42 1.8-.68 1.1-3.3-.8-3-.7.1-2.5 1-4.1 2-2.2 1.4-2.5 2-1.4 2.7.76.47 2.3.62 3.4.32 1.6-.44 1.7-.34.5.51-1.2.87-1.1 1 .75 1.1 1.2.01 2.2-.39 2.2-.88zm-193-3.4c0-1.9 3.8-4.8 5.5-4.1.83.31 2.9.1 4.5-.48 1.6-.57 3-.65 3-.17 0 .49-1 1.1-2.2 1.3-1.7.33-1.5.47.88.57 1.7.08 3.7-.53 4.4-1.4s1.7-1.2 2.3-.85c1.5.91-2.1 3.3-5 3.3-1.3 0-2.2.51-2.1 1.1.14.62-.43 1.4-1.2 1.6s-1.2.14-.73-.31c.91-.97-5.1-3.7-6.4-2.9-.5.31-.9 1.2-.9 2s-.45 1.4-1 1.4-1-.57-1-1.3zm42-.33c2.1-.91 3.2-1.8 2.4-2.1-.97-.37-.84-.84.5-1.9 2-1.5.62-1.9-1.7-.47-.81.51-1.1 1.3-.68 1.7.43.44-.93 1.6-3 2.5s-3.2 1.7-2.5 1.8c.71.04 3-.66 5-1.5zm37-.96c.81.31 3.4-.56 5.7-1.9 5.1-3 7.1-3.2 3.6-.5-1.4 1.1-2 2-1.5 2 .55-.01 1.9-.68 3-1.5s2.7-1.2 3.7-.92c.95.3 2 .07 2.4-.5.4-.64-.63-1.1-2.7-1.1-2.9-.05-3.1-.19-1.5-1.2 1-.65 2.6-1.8 3.5-2.5 1.5-1.2 1.5-1.3-.34-.64-1.1.38-2.8.75-3.8.83s-1.7.53-1.7 1c.15 1.3-5.4 4.7-6.9 4.1-.74-.27-1-.03-.65.57.36.58.04.91-.7.74-1.9-.42-9.8 2.3-9.8 3.4 0 .47 1.4.14 3.1-.74s3.8-1.3 4.6-1zm-60-1.3c2.1-2.4 2.6-2.6 2.6-1.2 0 .54-1 1.5-2.2 2.2-2.2 1.2-2.2 1.2-.35-.96zm6.1-.14c-.71-1.2 2.1-2.7 7.1-3.9 2.1-.51 4.8-1.2 5.9-1.6 2-.68 2-.67.06.89-1.1.87-2.9 1.6-4 1.6-1.1.01-3.5.89-5.3 2-1.8 1.1-3.5 1.6-3.8 1zm95-.51c.68-.82.93-1.5.55-1.5s-1.4.68-2.2 1.5c-.83.82-1.1 1.5-.55 1.5.52 0 1.5-.68 2.2-1.5zm5 .62c0-.49.82-1.1 1.8-1.4 1.5-.38 2.8-3.8 1.5-3.8-1.2 0-6.1 4.5-5.7 5.2.68 1.1 2.4 1.1 2.4-.04zm113-1.1c0-.55-.68-1-1.5-1s-1.5.45-1.5 1 .68 1 1.5 1 1.5-.45 1.5-1zm-17-5.2c.06-1.3.45-3.2.87-4.3.65-1.7.51-1.6-.93.28-.94 1.2-1.5 2.8-1.3 3.5.25.67-.28 2.1-1.2 3.1-1.5 1.8-1.5 1.8.38.82 1.1-.6 2-2.1 2.1-3.4zm16 2c0-.5-1.2-.62-2.8-.26-4.2.99-4.7 2-.75 1.6 1.9-.22 3.5-.82 3.5-1.3zm-61-3.4c0-.7.52-1.4 1.2-1.6.87-.29.86-1.1-.01-3.3-.74-1.9-1-2.1-.74-.7.22 1.2 0 2.2-.49 2.2-.5 0-.91-.68-.91-1.5s-.44-1.5-.97-1.5-.72.64-.43 1.4c.32.83-.2 1.6-1.3 1.9-1.4.35-1.2.52.68.69 2.2.19 1.9.42-1.5 1.6-3.5 1.2-3.6 1.3-.84.93 3.2-.47 3.7.39 1.9 3.4-.55.92-.05.76 1.3-.4 1.2-1 2.2-2.5 2.2-3.2zm-70 2.1c1.4-.79 3.2-1.4 4-1.4.83.01-.01.67-1.9 1.5-4.3 1.8-5.4 1.8-2.1-.04zm125-3.7c1.4-.64 2.6-1.5 2.6-1.9 0-1.2-4.8.14-6.1 1.6-1.4 1.7.01 1.8 3.5.23zm-81-3.9c-1.8-1.1-3.7 0-3.3 1.9.18.92.36 1.9.4 2.1.05.23.99-.41 2.1-1.4 1.4-1.3 1.7-2 .84-2.6zm45 .96c3.7.15 12-3.8 9.2-4.6-.99-.34-1-.77-.13-1.8.92-1.1.34-1.1-2.7.21-2.1.89-5 2.2-6.4 2.9-2.3 1.2-2.7 1.1-4-.61-1.6-2.3-3-2.5-3-.49 0 .8-.79 1.9-1.8 2.5-2.3 1.3-.68 1.4 1.8.04 1.1-.56 1.9-.63 1.9-.15 0 .49-1 1.4-2.2 2.1-2.1 1.1-2 1.1.75.52 1.6-.36 4.6-.59 6.5-.51zm26-6c0-1.2-4.5.73-4.6 2-.07.63-.22 1.2-.33 1.4s-.36 1.1-.55 2.1c-.25 1.3.51.88 2.6-1.4 1.6-1.8 2.9-3.6 2.9-4.1zm20 5.6c0-.82-.44-1.5-.97-1.5-1.8 0 .07-2.8 2.3-3.5 2.2-.68 2.1-.7-.32-1.5-2.5-.8-2.5-.81-.18-.91 1.3-.06 3.2.4 4.4 1 1.7.89 1.8 1.3.69 2-1.2.74-1.2.88.05.89.8.01-.08 1.1-1.9 2.5-4 2.9-4 2.9-4 1zm20 .41c1.1-.68 3-2.5 4.4-4.1 1.3-1.6 3.4-3.4 4.6-4 2-1.1 2-1 .64.78-.82 1-2.1 2.3-2.8 2.7-.7.45-1 1.2-.73 1.7.53.87-1.1 2.3-3 2.6-.55.1-1.9.48-3 .85-2 .66-2 .65-.05-.57zm-11-2.4c-.32-1.7-.02-2.5.89-2.5.75 0 1.4.87 1.4 1.9 0 3-1.7 3.4-2.2.55zm-20-3.9c2.5-1.8 3.8-4.7 2-4.6-1.3.06-4.2 2.6-4.2 3.7 0 .57-.68 1.3-1.5 1.6-.82.32-1.5 1.1-1.5 1.7 0 1.2.93.74 5.2-2.4zm-156 .27c2.7-1.1 16-4 20-4.3 1.4-.13 4.8-1.3 7.4-2.6 2.9-1.4 6.5-2.3 9.1-2.3 3.5.06 5-.55 8.1-3.3 3.9-3.4 6.6-4.7 4.3-1.9-1.7 2-.11 1.9 2.2-.15 1-.92 1.8-1.2 1.8-.63 0 1.7-2.9 3.5-4.5 2.9-.87-.33-1.3-.17-.98.35.33.53-.34 1.9-1.5 3s-1.9 2.4-1.6 2.8c.25.42-.74.72-2.2.68-1.5-.05-2.6-.6-2.4-1.3.39-1.9-1.2-1.4-3.4.94-1.9 2.1-1.9 2.1.35.96 2.6-1.4 2.9-.51.7 1.9-1.3 1.4-2.7 1.6-8 1.2-3.6-.29-11 .02-16 .68-17 2.2-17 2.2-14 .98zm143-1.1c1.9-.54 4.8-2.4 6.5-4.1s2.4-2.8 1.8-2.3c-1.8 1-1.6-2.3.35-7 1-2.4 1.2-4 .58-4.2-.59-.2.21-3.3 1.9-7.4 3.2-7.8 3.2-7.9 2.2-7.7-2.6.42-3.5-.16-2.3-1.6.68-.82 1.7-1.2 2.3-.84.62.38.74.15.3-.56-.41-.66-.21-1.8.43-2.6s.84-2 .43-2.6c-.45-.73-.32-.94.35-.53.59.37 1.4.15 1.8-.5.45-.73.29-.9-.44-.46-.63.4-1.2.19-1.2-.46 0-.87-.42-.84-1.6.1-1.1.92-1.2 1.5-.39 2s.85.9.05 1.4c-.61.38-1.1.18-1.1-.43s-.49-.81-1.1-.44c-.77.48-.76.05.04-1.4.62-1.2 1.6-2.1 2.1-2.1.53 0 .96-.71.96-1.6 0-1.9-5.2 3-6.3 5.8-.36.96-1.4 1.8-2.4 1.8-.93 0-1.4.3-1 .67.36.37-.12 1.6-1.1 2.7-1.7 1.9-1.7 2 .25 1.3 2.4-.87 2.3-.82-7.8 7.3-4.3 3.4-7.8 6.5-7.9 6.9-.72 4.5-.48 7.2.64 7.2.72 0 1.5-.56 1.8-1.2.31-.77.53-.61.58.43.04.93-.93 2-2.2 2.4s-2.8 1.5-3.6 2.6-1.9 1.9-2.6 1.9-2.4 1.2-3.7 2.6c-2.3 2.5-2.3 2.6-.23 1.5 1.2-.63 2.5-1.6 2.8-2.1 1.3-2.1 2.7-.95 2.1 1.6l-.65 2.6 2.8-1.9c4.9-3.4 6-3.8 4-1.5-1.8 2-1.8 2.1.11 2.7 1.1.34 2.8.3 3.8-.09 1.7-.65 1.8-.56.39 1.2-1.4 1.7-1.3 1.8.5 1.1 1.1-.44 3.6-1.2 5.5-1.8zm-219-.04c0-.41 3.7-.68 8.2-.6 8.5.15 7.5.57-2.5 1.1-3.2.15-5.8-.06-5.8-.47zm19-.87c0-.49 1.6-.88 3.6-.88 2.8 0 3.5-.34 3-1.5-.49-1.3.86-1.5 8.6-1.5 5.1-.02 11-.53 13-1.1s6.9-1.2 10-1.4c6-.3 5.8-.2-3 1.2-5.2.82-9.6 1.8-9.8 2.2-.14.39-3.9.54-8.3.34-5.1-.23-8.5.04-9.2.74-.82.82.99 1 6.8.66l8-.46-7.5.9c-14 1.6-16 1.8-16 .89zm174 .12c.34-.55-.08-1-.94-1s-1.6.45-1.6 1 .42 1 .94 1 1.2-.45 1.6-1zm76-2.9c0-2.8-1.9-3.6-3.8-1.6-1.5 1.6-1.5 1.7.59 1 1.8-.53 2.1-.34 1.6.89-.33.87-.11 1.6.5 1.6s1.1-.87 1.1-1.9zm-253-.03c2.5-.82 9.7-1.4 8.9-.67-.23.21-2.9.63-5.9.94-3.6.37-4.6.27-3-.27zm63-1.1c-.7-1.3-2.1-3-3.1-3.7-2.4-1.7-2.3-2.6.29-6.2 1.2-1.7 1.9-3.6 1.5-4.5-.34-.91.01-2.6.79-3.7 1.4-2 1.4-2 1.8.34.45 3.1-1.5 8.9-3.5 10-1.4 1-1.3 1.5 1.1 3.8l2.7 2.6 9-2.9c12-4 13-3.6 1.5.71-5.2 2-9.8 4-10 4.6-.36.56-1.2-.05-1.9-1.4zm125-.78c.72-1.2 4.6-3.5 4.6-2.8 0 .23-1.2 1.2-2.6 2.1-1.4.94-2.3 1.2-2 .62zm29-.63c1.1-.89 1.9-2.1 1.7-2.6-.16-.56.19-.72.76-.37 1.4.84.45 2.2-2.3 3.6-2.2 1-2.2 1-.19-.57zm9.8-1.9c.79-.8 1.8-4.4 2.2-8 .38-3.6 1.1-6.6 1.5-6.6.97 0 .24 8.3-1.1 13-.55 1.8-1.7 3.2-2.5 3.2-1.3 0-1.3-.18-.04-1.4zm-173-2.2c.66-1.4 1.4-2.1 1.6-1.5.53 1.6-.54 4.1-1.8 4.1-.63 0-.56-.97.18-2.6zm99 .3c1.1-.65 3.2-2.5 4.8-4 2.5-2.6 3.4-2.3 2.9.74-.09.48.87.6 2.1.26s2.7-.65 3.3-.7c.55-.04.12-.42-.95-.84-1.8-.73-1.8-.79.25-1.3 1.2-.31 2-.17 1.6.33-.71 1.2.77 1.2 3.8 0 1.8-.7 2.4-.58 2.4.5 0 .77-.49 1.4-1.1 1.5-3.3.26-7.7 1.3-13 3-6.4 2.2-9.4 2.4-6.3.63zm115-4.2c5.4-6.5 5.8-5.8.64 1.2-1.3 1.8-2.8 3.2-3.4 3.2s.69-2 2.8-4.5zm-182 2.1c0-1.1 5.6-3.2 7.4-2.8 1.6.35 1.8.02 1.2-1.9-.37-1.3-.87-3.2-1.1-4.2-.95-4.2-1.7-5.7-2.8-5.7-.8-.01-.75-.28.14-.85 1.6-.99 3.5-8.7 2.6-10-.33-.66.3-.08 1.4 1.3 1.5 1.8 1.8 2.9 1 4.2-.68 1.3-.59 1.8.33 1.8.83.02.67.51-.46 1.4-2 1.5-2.2 4.2-.72 8.2.94 2.5 1.2 2.6 2.3 1 .82-1.1 1.9-1.5 3.1-.98 1.8.69 1.8.75.03 2-1.9 1.4-.81 1.8 1.9.76.92-.36 1.3-1.2.89-2.2-.53-1.4-.38-1.5.94-.4 1.2.95 2.3 1 4.3.22 2.4-.93 2.6-.87 1.5.5-.71.85-3.2 2-5.6 2.6s-4.4 1.7-4.4 2.4c0 .81-2 1.5-5.2 2-2.9.36-6 .89-7 1.2s-1.8.25-1.8-.05zm159-3c3.8-4.5 5.2-4.6 1.8-.07-1.5 1.9-3.1 3.5-3.6 3.5s.3-1.5 1.9-3.4zm-101 .43c1-1.1 1.4-2 .9-2-.51 0-1.5.9-2.2 2-.68 1.1-1.1 2-.89 2 .19 0 1.2-.9 2.2-2zm122-2.6c.56-1 1.8-2.8 2.6-3.9 1.5-1.9 1.5-1.8.08 1.2-.85 1.8-2 3.5-2.6 3.9-.8.49-.82.15-.08-1.2zm-92-1.4c-1.8-.43-3.6-1.1-3.9-1.4-.84-.85 5.8.45 7.7 1.5 1.8.99.67.96-3.8-.1zm88 .23c0-.55.68-1.6 1.5-2.2.84-.69 1.5-.8 1.5-.24 0 .55-.68 1.6-1.5 2.2-.84.69-1.5.8-1.5.24zm-198-3c0-.44.51-1.3 1.1-1.9.63-.63 1.3-2.9 1.4-5 .28-3.5.19-3.7-1.1-1.9-.79 1.1-1.4 1.4-1.4.81s.45-1.4 1-1.8c2.9-1.8.4-2.5-6.8-2.1l-7.8.5 6.3-1c5.5-.92 6.9-1.6 11-5.9 2.9-2.8 6.3-5.1 8.2-5.5 1.8-.39 4.6-1.7 6.3-3 1.7-1.2 4.6-3 6.5-4 3.5-1.7 3.5-1.7 1.5.25-1.1 1.1-2.2 1.9-2.5 1.8s-1.4.66-2.5 1.8l-2 2 2.5-.7c2.3-.66 4.9-1.1 7.6-1.4.63-.07 1.4-1.1 1.7-2.2.42-1.6.18-2-1.1-1.5-1.3.45-1.2.23.27-.92 1.1-.89 2.3-1.1 2.8-.61 1 1 12-1.4 14-3 .67-.55 1.8-.87 2.4-.72.68.16 1.4-.27 1.7-.96s-.29-1.2-1.2-1.2c-1.5 0-1.5-.17-.15-1.5.82-.82 2-1.5 2.6-1.5s1.1-.45 1.1-1 .69-1 1.5-1 1.8-.66 2.1-1.5 2.1-2 4-2.7c1.9-.68 3.4-1.6 3.4-2 0-1.6 8.6-13 13-18 2.6-2.6 4.2-4.8 3.6-4.8-.62 0-.17-.9 1-2s2.7-2 3.4-2 .17.9-1.2 2-2 2-1.4 2 1.5-.32 2-.73c.54-.41.06.09-1 1.1s-3.1 2.7-4.3 3.7c-1.3 1-3.6 4.4-5.3 7.6-1.6 3.2-4.4 7.2-6.1 9-2.8 2.9-2.9 3.3-1.2 3.4 1.6.08 1.4.26-.55.9-2.4.76-2.4.81-.28.9 1.6.07 2 .55 1.6 1.6-.33.85-1.3 1.5-2.2 1.4-3.1-.3-4.1.08-4.1 1.6 0 .82-.65 1.5-1.4 1.5s-2.6 1.1-4 2.4c-1.4 1.3-4.6 2.9-7.1 3.6-2.5.7-4.8 1.6-5 2.1-.28.46-2.2 1.3-4.3 1.8-5.6 1.5-8.2 4.4-8.2 9.3-.04 2.3-.31 3.6-.58 3-.28-.69-.93-.99-1.4-.67-.57.35-.67-1.1-.27-3.6.62-3.9.53-4.1-1.2-3.2-1 .52-3.5.91-5.4.86-1.9-.04-3.8.29-4.1.75-.33.45-2.4 1.1-4.7 1.4-2.6.35-5 1.5-6.6 3.2-2.2 2.3-2.4 3.1-1.6 5.9.57 2 .56 3.2-.01 3.2-.51 0-.93.69-.93 1.5s-.91 3.3-2 5.5c-1.9 3.8-3 4.9-3 3.2zm26-.4c-1.4-1.4-1.6-2.8-.32-2.8.49 0 1.1.9 1.4 2 .61 2.3.51 2.4-1.1.8zm48-.78c.36-.58 2.9-2.2 5.6-3.6 2.7-1.4 7.9-4.5 11-6.9 3.5-2.4 6.4-3.9 6.4-3.2-.01.67-2.6 2.7-5.8 4.4-3.2 1.8-8.6 4.8-12 6.8-3.5 2-6 3.1-5.7 2.5zm-30-.4c0-.22 1.2-1.2 2.8-2.2 2-1.3 2.4-1.4 1.5-.27-.68.83-.95 1.8-.58 2.2.36.36-.32.66-1.5.66-1.2 0-2.2-.17-2.2-.38zm7-.47c0-.55 1.3-1.3 2.8-1.6 1.6-.35 4-1.6 5.5-2.8 2.6-2.1 8.2-3.5 7.2-1.7-.32.51-1.4.93-2.5.93s-2.2.56-2.7 1.2c-1.5 2.3-10 5.7-10 3.9zm-130-.88c.33-.32.09-1.2-.52-1.9-1.4-1.7.1-1.7 2.4.07 1.7 1.3 1.7 1.4-.35 1.9-1.2.3-1.8.29-1.5-.04zm4.6.35c0-.21 1.1-.6 2.5-.86s2.2-.09 1.9.38c-.51.83-4.4 1.2-4.4.48zm228-3.6.65-2.5-1.5 2.5c-1.7 2.8-2.1 5-.69 3.4.49-.52 1.2-2.1 1.5-3.4zm-213 1.2c0-.5 4.2-1.7 9.2-2.6 5.1-.95 10-2 12-2.2 1.5-.29 3-.04 3.3.54s.29 1.1-.15 1.1c-2.3.24-5.2.68-9.1 1.4-2.3.41-5.3.86-6.5 1-1.2.14-3.7.59-5.5.99-1.8.41-3.2.33-3.2-.18zm208-2.6c0-.83.45-1.8 1-2.1s1 .06 1 .88c0 .83-.45 1.8-1 2.1s-1-.06-1-.88zm-227-1.2c-1-2.6-.96-2.7 5.6-10 .7-.81 1.2-1.9 1-2.5-.15-.56.35-.23 1.1.73 1.7 2.2 3.6 2.3 3.6.14 0-1.1-.55-1.4-1.8-.98-1 .37-.76-.18.75-1.4 1.4-1.1 3-2 3.6-2s1.4-.73 1.8-1.6c.34-.87 1.2-1.4 1.9-1.2.69.25 2.3.04 3.6-.45 2-.73 2.2-.64 1.3.49-.63.76-.81 1.7-.4 2.1.41.4.29.65-.26.55-1.7-.34-5.5 1.2-5.5 2.2 0 .55.78.67 1.8.27.96-.39 2.6-.93 3.8-1.2 1.8-.4 1.7-.18-.5 1.7-1.4 1.2-2.4 2.9-2.2 3.7.28 1.3.08 1.3-1.3-.12-1.8-1.8-4.5-2.2-4.5-.71 0 .52.45 1.2 1 1.6 1.8 1.1 1 2.6-1.2 2.3-1.6-.22-2.2.17-2.1 1.4.16 2.1-.27 2.2-2 .55-.7-.66-1.1-2.2-.84-3.5.25-1.3 0-2.3-.55-2.3-1.4 0-3.6 5.6-2.9 7.4.46 1.2.1 1.3-1.9.54-2.7-1-3.4.63-1.2 2.8.8.8.84 1.2.11 1.2-.6 0-1.4-.71-1.7-1.6zm218-3.2c1-.72 1.6-1.7 1.3-2.2-.85-1.4-2.5-1.1-2.5.35 0 .7-.92 2.1-2 3-1.1.97-1.7 2.2-1.4 2.9.44.71 1 .43 1.7-.78.57-1 1.9-2.5 2.9-3.2zm-163 2c3.9-1.3 11-2.2 9-1.2-.83.47-3.8 1.1-6.5 1.4-3.2.38-4.1.29-2.5-.25zm87-.03c0-.61.45-1.1 1-1.1s1-.66 1-1.5c0-.89-.59-1.2-1.5-.89-.82.31-1.5 1.2-1.5 2 0 .83-1 1.4-2.6 1.4h-2.6l3-2.5c1.6-1.4 3.5-2.5 4.1-2.5s.92-.4.62-.89c-.6-.97 1.4-2.9 4.8-4.6 1.2-.58 2.3-2 2.4-3.2s2.5-4.4 5.2-7.3c2.7-2.8 4.9-5.5 4.9-6.1 0-1.2 2.2-.83 3.2.53.47.63.75.56.75-.19.01-.66-.43-1.5-.98-1.8s-.97-1.8-.93-3.3c.06-2.2.21-2.3.8-.84.63 1.6.89 1.6 1.9.37.68-.8.96-2.2.64-3s-.11-1.8.48-2.2c.59-.36 1.1-2.1 1.1-3.8.06-2.7.21-2.9.93-1.2l.86 2 .17-2c.09-1.1.26-2.9.38-4s.3-3 .41-4.2c.12-1.5.65-2 1.7-1.6.96.37 1.5-.02 1.5-1.1 0-.92-.45-1.4-1-1s-1 .17-1-.38.46-1.3 1-1.6.78-1 .49-1.5.04-1.4.73-2.2c1.4-1.5 1.6-3.7.47-5.5-.41-.65-.29-1.5.27-1.8s1-.04 1 .68c.01 1 .18 1 .86-.04 1.3-2.1 2.4 3.5 1.1 5.8-1.6 2.9-1.2 3.3 1.2 1.6 3.4-2.4 3.9-1.9 1.9 1.7-1 1.8-3.2 5.8-5 8.8-4.6 8.1-8.5 20-6.9 21 .87.54-.66 2.6-5.1 6.8-3.5 3.3-7.2 6.3-8.2 6.6-.99.32-2.5 2.1-3.4 4.1s-2.1 3.2-2.6 2.9-.94.39-.94 1.6c0 1.3-.78 2.4-1.9 2.7-1.3.34-1.7 1.1-1.3 2.2.32.91.22 1.3-.23.91s-1.4-.24-2.2.37c-.99.82-1.3.82-1.3-.01zm-120-4.1c-1-1.1-1.5-2-1.1-2s1.9.9 3.3 2c1.6 1.3 2 2 1.1 2-.81 0-2.3-.9-3.3-2zm174 .5c1.6-1.9.1-1.9-2.4.03-1.6 1.2-1.6 1.5-.37 1.5.86 0 2.1-.68 2.8-1.5zm32-.26c0-.55.68-1.6 1.5-2.2.84-.69 1.5-.8 1.5-.24 0 .55-.68 1.6-1.5 2.2-.84.69-1.5.8-1.5.24zm-132-2.2c2.5-.82 9.7-1.4 8.9-.67-.23.21-2.9.63-5.9.94-3.6.37-4.6.27-3-.27zm99-.19c1.4-.64 2.6-1.6 2.6-2 0-.47-1.4-.16-3 .69-4.5 2.3-4.1 3.4.45 1.3zm-99-3.8c.83-.53 2.4-.94 3.5-.91l2 .05-2 .86c-1.1.47-2.7.88-3.5.91-1.3.05-1.3-.05 0-.91zm90-1.8c-.29-.47.12-1.7.91-2.8.82-1.1 1.4-1.4 1.5-.65.04 1.8 2 1.6 4.5-.5 1.2-.96.56-.29-1.4 1.5-3.6 3.4-4.7 3.8-5.6 2.4zm-12-1c-.3-.48.12-1.4.94-2.1.88-.73 1.3-2.3 1-3.8-.56-3.1.38-5 1.6-3.1.66 1.1 1.1.94 2.3-.64.83-1.1 1.5-1.5 1.5-.81.02.66-.42 1.5-.97 1.8s-1 1.1-1 1.8c0 .85.29.85 1.1 0 .84-.84 1.5-.76 2.6.34 1.1 1.1 1.8 1.2 2.9.29 2.5-2.1 2.8.03.37 2.6-2.3 2.4-4.7 3.5-3.5 1.5.92-1.5-.09-1.2-3.7 1-3.7 2.2-4.4 2.4-5.2 1.1zm48-6.6c-.88-3-.89-2.9-.97.97-.06 2.6.25 3.6.88 3 .61-.61.64-2.1.09-4zm-194 2.2c1.6-1.5 7.4-3.6 9.8-3.6 2.4 0 .89.91-4.9 3-6.4 2.3-6.8 2.4-4.8.59zm165-3.3c1.4-2.1 2.1-3.9 1.5-4.3-.61-.38-.63-1.2-.04-2.1.51-.81.94-4.5.94-8.2.01-3.8.45-6.8 1-6.8.98 0 1.4 3.3 1.3 9.8-.03 1.8.06 3.2.21 3.2s1.8-2.5 3.6-5.5 3.7-5.5 4.1-5.5c1.3 0 .89 1.1-2 4.9-3.9 5-7.8 12-6.4 11 1.9-1.2 1.4.25-1.4 4-3.6 4.8-6.1 4.6-2.8-.25zm-3.6.45c0-.85.74-1.8 1.6-2.2 1.4-.54 1.5-.4.28 1.2-.74.97-1.5 2-1.6 2.2-.15.23-.28-.29-.28-1.2zm-161-.71c0-1.1 3.9-3.5 4.6-2.8.24.25-.7 1.2-2.1 2.1s-2.5 1.2-2.5.67zm198-1.2c-.61-1.1-.87-2.3-.57-2.6s.11-1.4-.42-2.4c-.53-1-1.2-5-1.5-9-.35-4.8-1.1-7.7-2.2-8.8-1.6-1.6-1.6-1.5-.91.84.41 1.4.97 5.9 1.2 10 .47 7.4 2.6 14 4.5 14 .61 0 .56-.8-.13-2.1zm-187-7.4c2.1-1.9 4.5-3.5 5.4-3.5 1.7 0 4-1.9 4-3.3 0-.51-.79-.31-1.8.45-1.6 1.2-1.6 1.2-.39-.37.75-.96 1.8-1.5 2.2-1.2 1.1.69 1.1-.65 0-2.4-.61-.96-1.1-1-1.6-.23-.39.62-1.1.88-1.6.59s-1.2-.01-1.6.64c-.47.77-.28.9.57.38.85-.53 1.1-.34.82.59-.26.76-1.1 1.4-1.9 1.4-.78.02-1.3.53-1.2 1.1.35 1.8-4.5-.94-5-2.8-.28-1.1.69-2.2 2.9-3.2 2.8-1.3 3.2-1.4 2.8-.12-.81 2.1.66 1.8 3.3-.71 2-1.8 2.3-1.9 2.3-.5 0 .92.39 1.7.86 1.7.73 0 .83 2 .27 5.2-.07.4-2.2 2.9-4.6 5.5-3.6 3.8-4.5 4.4-4.5 2.8-.05-1.8-.13-1.9-1.1-.25-.56.96-1.7 1.8-2.5 1.8-.9 0 .02-1.4 2.3-3.5zm76 3c0-.27 1.5-1.2 3.2-2.1l3.2-1.6-2.5 2c-2.4 2-4 2.6-4 1.6zm-100-2.8c1.1-.66 2.2-1.2 2.5-1.3s1.4-.58 2.6-1.2c2.2-1.2 5.6-.1 3.6 1.2-.61.38-1.1.13-1.1-.55s-1.1-.18-2.5 1.1c-1.6 1.6-2.5 1.9-2.5.97 0-1.1-.27-1.1-1.2-.17-.66.66-1.7 1.2-2.2 1.2s-.15-.57.95-1.2zm106-2.2c0-.82.58-1.5 1.3-1.5 1.5 0 12-10 14-14 1.7-2.7 6.4-6.4 7.1-5.6.22.22-1.4 2.4-3.5 4.9-3.9 4.5-5.1 6.8-2.7 5.4.81-.49.75-.14-.16.98-.78.96-2 1.5-2.7 1.3-1.5-.59-4.7 2.8-3.7 3.9.41.46.2.51-.48.13-.72-.42-2.6.73-4.7 2.8-3.8 3.9-4.6 4.3-4.6 2zm117-9.8c-.39-5.6-.9-12-1.2-14s-.66-6.6-.93-10c-.26-3.8-1.2-9.6-2-13-1.8-7.1-1.8-7-.36-6.1.73.44.89.27.44-.46-.4-.65-1.1-.92-1.6-.6-.5.31-1.9-1.5-3.1-4-1.2-2.5-2.5-4.6-2.9-4.6s-1-1.4-1.4-3-1.1-3-1.6-3-1.2-1.2-1.6-2.6c-.57-2.3-1-2.5-3.6-2-1.6.33-3.6.6-4.3.6-1.4 0-1.2 1 2.6 12 1.2 3.3 2.4 7.2 2.7 8.8.29 1.5.92 3 1.4 3.3.48.3.88 2.7.88 5.4s.41 5.1.9 5.4c.5.3.9 2.1.9 4 0 6.8 3.1 21 5.8 27 1.6 3.5 5.9 7.3 8.2 7.3 1.3 0 1.4-1.5.8-10zm-215 7.8c0-.68 10-5.7 11-5.3.21.2-2.1 1.6-5.1 3-3 1.5-5.5 2.5-5.5 2.2zm18-6.1c-.95-.96-2.9.59-2.2 1.7.42.68.98.66 1.7-.06.58-.58.79-1.3.45-1.7zm8.8-1.7c.14-1.2.29-2.6.34-3.1.04-.44.52-.53 1.1-.2.59.37.72-.08.33-1.1-.45-1.2-.28-1.5.5-1s.94.16.51-.98c-.6-1.6-.75-1.6-2 .14-.74 1-1.3 2.2-1.3 2.7s-.46.59-1 .24c-.63-.39-.29-1.6.88-3 1-1.3 2.9-5 4.2-8.2 1.3-3.2 2.8-6.6 3.5-7.6 1.1-1.6 1.2-1.5 1.6 1.2.3 2-.03 3.2-.99 3.6-1.1.43-1.2.87-.28 1.9.87 1.1.86 1.5-.04 1.8-.66.22-1.3 1.3-1.4 2.4-.15 2-5.1 13-5.8 13-.21 0-.27-1-.14-2.2zm6.2-3.7c.93-2.2 1.8-3.6 2-3.1.32.9-2.5 7-3.3 7-.22 0 .35-1.8 1.3-4zm105 .59c1.4-1.3 2.9-2.9 3.2-3.7.35-.88.59-.56.64.83.04 1.2-.4 2.2-.98 2.2s-.73.53-.33 1.2c.48.79.17.96-.95.53-.91-.35-1.7-.2-1.7.33s-.56.96-1.2.94-.08-1.1 1.4-2.3zm34-2.1c.34-2.2.63-5.2.64-6.8.01-1.8.54-2.8 1.6-2.8 1 0 1.4.6 1 1.8-.29.96-.95 3.7-1.5 6.1-1.2 5.6-2.6 6.9-1.8 1.7zm-31-6c.41-1.1.94-1.2 1.8-.49.67.56 1.5.79 1.9.52s.42-.18.13.2c-.28.38-1.4.83-2.5.99-1.4.21-1.8-.14-1.4-1.2zm2-2.1c-.35-.35.43-2.5 1.7-4.8 1.3-2.3 2.9-5.8 3.5-7.9.65-2 1.6-4 2.1-4.3.49-.31.23 1-.58 3-1.7 4.1-1.8 4.9-.46 4.1.55-.34 1 .29 1 1.4 0 1.2-.5 1.8-1.3 1.5-1.1-.43-5.6 5.5-4.8 6.4.56.65-.56 1.2-1.2.54zm105-5.1c-.72-.24-.96-1.4-.62-3.1.52-2.4.44-2.5-.86-.92-2.1 2.6-2.7 2.1-1.7-1.4 1.2-4.1.57-4.7-.98-1-.99 2.4-.89 3.6.57 7 1.7 4 1.8 4 3.2 2 1.1-1.5 1.2-2.2.3-2.5zm-212 .52c-.27-1.8-.12-3.4.33-3.6.45-.18.59-.92.31-1.6-.29-.74-.03-1.6.55-2 .68-.42.84-2.6.43-6.1-.44-3.8-.29-5.4.5-5.4.63 0 1.1-1 1.1-2.2-.07-2.1-.11-2.2-.89-.25-.76 1.9-.9 1.8-1.9-.82-1.4-3.5-1.4-5-.11-4.2.55.34 1-.08 1-.94s-.45-1.6-1-1.6-1-2.4-1-5.4c0-3-.47-6.7-1-8.2-.74-2-.72-2.9.09-3.4.73-.45.93-2.6.56-6.1-.34-3.3-.22-4.8.31-4 .7 1.1.97 1 1.3-.5.26-1 .36 1 .23 4.5-.12 3.5.36 8.9 1.1 12 .77 3.3.92 5.7.36 5.9-.51.19-.93 1-.93 1.8s.41 1.2.91.92c1.6-.99 2.2 8.6 1.2 18-.55 5.2-1.4 9.6-1.9 9.8-.47.16-.66 1.6-.42 3.3.24 1.6.21 3-.06 3-.28 0-.72-1.5-.99-3.2zm153-.35c-.36-.93-.87-1.5-1.2-1.2-.27.28-.21 1.3.15 2.2s.87 1.5 1.2 1.2c.27-.28.21-1.3-.15-2.2zm-16 1.1c-.34-.34-.24-2 .21-3.8.46-1.8 1.1-6.1 1.5-9.7s1.1-7.4 1.5-8.5c.52-1.2.63-.14.31 2.9-.28 2.7-.73 5.3-1 5.8-.27.45-.08.81.43.81.56 0 .61 1.7.13 4.2-1 5.5-2.4 9-3.1 8.2zm81-7.6c.2-3.9-.76-2.9-1.2 1.2-.2 1.8-.04 2.9.37 2.5.4-.41.8-2.1.88-3.7zm-220-1.5c0-1.1.47-2.6 1-3.4.74-1.1.83-.69.34 1.5-.82 3.7-1.4 4.5-1.4 1.9zm120-1.4c-1.3-.86-1.3-.97.02-.98 1-.02 2-1.9 2.8-5.8.73-3.2 1.8-6.4 2.5-7.1s2.4-3.9 3.8-7c2.2-4.6 2.6-5.1 2.4-2.6-.15 1.6-1.9 6.5-3.9 11-2 4.3-3.9 9.1-4.3 11-.65 3.2-1.1 3.5-3.4 2zm100-.8c.29.71.56.81.6.2.04-.6-.76-2.1-1.8-3.2-1.9-2.2-3.2-2.8-3-1.4.06.41.03.97-.08 1.2-.74 1.9-.71 3.9.05 3.4.5-.31.92.02.94.74.02.85.51.68 1.4-.49 1-1.4 1.5-1.5 1.9-.5zm3-4.2c.29-1.1.16-2-.28-2-.83 0-2 2.4-2 4.1 0 1.6 1.7.03 2.3-2.1zm-105-1c1.5-3.1 1.9-3.6 1.9-2.4 0 .54-.7 1.8-1.6 2.9-1.5 1.8-1.5 1.8-.36-.56zm97-5.5c.05-1.6-.25-1.4-1.4.85-.82 1.6-1.2 3.3-.82 3.9.76 1.2 2.1-1.7 2.2-4.8zm15-5.2c-.28-11-.5-13-1.9-13-.76.15-1.2-.8-1.1-2.5.09-1.5-.35-3.9-.97-5.3-.95-2.1-1-1.8-.6 2.5.28 2.8.94 7.2 1.5 10s1.2 7.6 1.6 11c.84 8.1 1.7 6.3 1.5-3zm-9.3 2.7c.05-1.6-.33-3-.85-3-.51 0-.93 1.4-.93 3s.38 3 .85 3c.46 0 .88-1.4.93-3zm6 .06c.22-1.4-.06-2-.75-1.6-.71.44-1.1-.82-1.2-3.6-.2-8.6-1.7-9.6-1.8-1.2-.06 4.4.21 8.4.59 8.8 1.2 1.2 2.8.06 3.1-2.3zm-12-4.7c0-.69-.46-1.5-1-1.9-.56-.34-.94-1.6-.84-2.8.36-4.3-.09-5.6-1.7-5-1.1.44-1.2.91-.41 1.9.6.73 1 2.6.91 4.1-.1 1.5-.12 4.2-.04 5.8.13 2.9.2 2.9 1.6 1.1.81-1.1 1.5-2.5 1.5-3.2zm-58-1.3c-.35-2-.89-4.5-1.2-5.5-.99-3.3-2 .42-1.6 5.6.33 3.6.76 4.6 1.9 4.1 1.1-.43 1.3-1.5.85-4.2zm64-2.6c.34-4.3-.42-5.9-1.5-3.2-.28.69-.54-.46-.58-2.6-.09-4.4-2.1-4.1-2.1.31 0 1.6.45 3.2 1 3.5s1 1.9 1 3.6c0 4.7 1.8 3.4 2.2-1.6zm-80-2.4c-.33-.54-.15-1.3.41-1.6 1.3-.83 1.3-6.1-.05-8.6-.86-1.6-1.4-1.8-2.5-.79-2.6 2.2-2.5.33.15-2.1 2.2-2 2.4-2.1 1.8-.47-.67 1.8-.47 1.7 2.4-.34 1.8-1.2 3.2-1.8 3.2-1.3s-.9 1.3-2 1.6c-2.6.82-2.5 2.1.53 7 2.7 4.4 3.4 7.1 1 3.9-1.2-1.6-1.5-1.7-1.5-.31-.04 2.1-2.6 4.3-3.5 3zm-138-3.8c-.25-.97-.47-.42-.5 1.2-.02 1.6.19 2.4.47 1.8.27-.68.29-2 .03-3zm131-2.3c-.94-2.2-1.5-2.7-2.1-1.8-.49.77-.85.86-.85.22-.02-1.3 4.9-6.8 5.5-6.2.25.25-.4 1.2-1.4 2.2-1.8 1.6-1.8 2-.4 4.7.82 1.6 1.3 3.2 1 3.5-.26.26-1-.92-1.8-2.6zm80-1.8c-.01-1.5-.14-1.5-.98-.19-1.3 2-1.3 3.3 0 2.5.55-.34.99-1.4.98-2.3zm-2.4-3.9c-.18-2-.84-3.9-1.4-4.1-.62-.21-.93.22-.7.96.23.73.68 2.6 1 4.1.86 4 1.5 3.4 1.1-.96zm-36-.07c1.3-1.2 3-2.2 3.8-2.2.83 0 2.3-.59 3.3-1.3 1.7-1.2 1.7-1.6.23-5.8-.87-2.4-3.1-7.5-5-11l-3.4-6.7-2 2.2c-1.1 1.2-2.6 4-3.3 6.2-2 6.3-3.8 9.3-6.1 10-1.5.49-1.8.97-1 1.8.6.6 1.1 2 1.1 3.2 0 6 7.4 8.3 12 3.7zm-43-3c3.6-3.9 8.2-12 8.2-15 .01-2.2 5.9-7.1 7.8-6.4 1 .4 1.3.09.84-1.1-.54-1.4-.09-1.6 3-1 4.4.71 9.4 5.1 9.4 8.3 0 1.2.49 2.6 1.1 2.9.61.37.89 1.8.64 3.1-.54 2.8.79 3.2 2.2.54 1.1-2 .37-6.2-1.1-6.2-.51 0-.68-.41-.37-.91.31-.51.07-1.1-.54-1.3-.6-.2-1.2-1.6-1.2-3.1-.11-1.9-.71-2.7-2-2.7-1.4 0-1.6-.36-.75-1.9 1.4-2.6 1.3-4.1-.11-1.7-.72 1.2-1.3 1.5-1.8.74-1.1-1.8-9.9-.24-10 1.8-.2 1-.57 1.2-1 .52-.38-.6 1.3-3.4 3.8-6.3 2.4-2.9 4.7-6.2 5-7.4.3-1.2 1.4-2.8 2.5-3.4 1.8-1.1 1.9-.96 1.3 1.9-.59 2.9-.5 3 1.5 2 2.3-1.2 2.8-2.6 1.2-3.5-1.4-.89-.68-3.4 1.7-5.6 2.6-2.4 3.2-2.5 3.2-.5 0 .82.68 1.5 1.5 1.5s1.5-.48 1.5-1.1-.41-.8-.91-.49c-1 .64-.91-1.4.2-3.1.97-1.5-2.4-2.6-5.6-1.8-1.8.45-3.1 2-4.7 5.8-1.2 2.8-2.4 4.6-2.6 4-.22-.66.07-2.1.66-3.2.58-1.1 1.1-2.8 1.1-3.8 0-2-3.5-4.8-6-4.8-.82 0-1.4-.4-1.2-.89.18-.49-.27-1.3-1-1.7-.77-.49-.87-.86-.23-.86.6-.01 3.2 1.6 5.8 3.5 2.6 2 4.6 3.2 4.6 2.7 0-.44.97-1.2 2.2-1.8 2.5-1.2 4.7-5.8 2.3-4.8-1 .4-1.5-.23-1.5-2.3l-.04-2.9-1.4 3.2c-1.8 4.2-3.1 4.1-4.5-.22-.63-1.9-2.6-4.6-4.3-6-6-4.7-6.7-5.6-6.7-8.6 0-1.6.45-3 1-3s1-.48 1-1.1-.4-.81-.89-.51c-1.3.83-2-4.5-.96-7.3.93-2.4.9-2.4-.99-.74-1.2 1-2.1 1.3-2.3.69-.19-.59-.2 3.6-.03 9.2.28 8.8.66 11 2.8 14 2.9 4.4 3.1 5.7.64 3.5-1.7-1.5-2-1.4-4.6.79-1.5 1.3-2.5 2.8-2.2 3.4.33.53-.87 2.2-2.7 3.7-1.8 1.5-2.5 2.4-1.6 2.2 1.6-.51.21 2.8-4.8 12-1.2 2.2-3.4 17-2.6 18 .24.26.85-.19 1.4-1s.94-1 .95-.47c0 .55.91-.82 2-3s3.8-6 6-8.5c3.7-4.1 4.6-4.1 4-.16-.1.74.55 1.9 1.4 2.5 1.9 1.4 1.6 6.8-.47 7.4-.73.25-1-.03-.65-.62.36-.58.13-1.4-.52-1.8-.7-.43-.9-.29-.5.36.37.6-.18 1.4-1.2 1.7s-3.9 2.8-6.4 5.5c-4 4.4-4.6 5.5-4.9 10-.22 3-.01 5.6.47 5.6s.59.45.25 1-.07 1 .6 1c.75 0 .52.76-.6 2-1 1.1-1.4 2-.98 2 .46 0 2.4-1.7 4.3-3.8zm87 2.2c-.34-.87-.61-2-.61-2.5 0-.51-.39-.92-.86-.92-.48 0-.65 1.1-.38 2.5.26 1.4.92 2.5 1.5 2.5.55 0 .72-.71.39-1.6zm-58-1.7c-.37-1.2-1.3-2.8-2.1-3.4-1.6-1.3-1.9-2.8-.29-1.8.76.47.86-.05.33-1.7-.43-1.3-.85-3.2-.94-4.3-.08-1.1-.7-2.1-1.4-2.4-1.2-.4-1 2.4.35 5.9.36.91.18 1.9-.39 2.3-.66.4-.72 1.3-.14 2.4.5.93 1.2 2.5 1.4 3.4.29.96 1.3 1.8 2.1 1.8 1.2 0 1.4-.58.93-2.2zm60-4.5c-1.2-1.2-1.6.56-.83 3.8l.76 3.4.32-3.4c.18-1.8.06-3.6-.25-3.9zm-222 2.6c-2.5-8-4.1-33-2.2-35 .5-.52 1-2.5 1.2-4.4s.51-3.9.79-4.5c.28-.55.63-3.7.77-7 .15-3.3.44-10 .66-15 .21-4.8.9-9.3 1.5-10s1.1-2.2 1.1-3.6c0-4.2 4-20 5.6-22 1.4-1.8 1.4-1.7.45.32-.59 1.2-1 3-1 4 .03 1.9 5.1-7.2 5.2-9.4.05-.69.46-1.2.92-1.2 1.1 0 1.2-.5-2.1 7.7-5.8 14-7.4 22-9.2 47-.08 1.1-.47.43-.88-1.5-.64-3-.75-2.7-.87 2.6-.07 3.3.29 6.5.81 7 .51.52 1.2 7.1 1.4 15 .29 7.6.82 15 1.2 17 .4 2.1.26 3.5-.37 3.5-.55 0-.76-.97-.45-2.2.39-1.5.2-1.9-.59-1.4-.83.52-1.2-1.1-1.2-5.8 0-3.7-.43-6.6-1-6.6-.55 0-1.1-1.5-1.1-3.2-.11-2.8-.2-2.9-.6-.75-.25 1.4-.98 2.9-1.6 3.3-.85.61-.83.95.1 1.3.69.28 1.2 1.4 1.2 2.5 0 1.1-.45 1.7-1 1.4s-1 .08-1 .94.34 1.6.75 1.6.86 3.6 1 7.9c.13 4.4.71 9.2 1.3 11 .57 1.5.84 2.9.61 3.2-.24.23-.9-1.1-1.5-2.9zm197-.35c-.47-1.9-.94-2.3-1.9-1.5-2.4 2-2.8-2.2-.4-4.4 1.2-1.1 1.9-1.5 1.5-.9-.36.64-.08 1.8.61 2.5 2.1 2.2 3.7 5.5 3 6.2-1.2 1.2-2.2.55-2.9-1.9zm-48-4.4c0-.48.75-1.5 1.7-2.2 1.5-1.2 1.6-1.2.47.88-1.2 2.3-2.1 2.9-2.1 1.4zm62-8.1c-.77-4.9-2.3-7.2-1.9-2.9.18 1.9.4 5.4.48 7.9.15 4.3.19 4.4 1.1 1.5.51-1.6.67-4.6.36-6.5zm-90 4.7c-.41-1-.7-4.4-.65-7.5l.1-5.7.94 4c1.1 4.7.8 12-.39 9.2zm93-4.7c0-1.1-.43-1.8-.96-1.5-.52.33-.7 1.2-.39 2.1.79 2.1 1.4 1.8 1.4-.59zm-86-2.9c.31-.51.16-1.2-.34-1.5s-1.2.11-1.5.94c-.63 1.6.88 2.1 1.8.56zm55-9.6c.03-.55-.38-.32-.91.5s-.94 2.2-.91 3c.05 1.6 1.7-1.6 1.8-3.5zm-63 1.9c-.07-1.2.97-5.4 2.3-9.5 1.3-4 2.6-8.3 2.9-9.4.43-1.9.46-1.9.57.12.07 1.2-.96 5.4-2.3 9.5-1.3 4.1-2.6 8.3-2.9 9.4-.46 1.9-.49 1.9-.6-.14zm19-9.1c-.84-.83-2.6.93-2.5 2.6.03 1.5.21 1.4 1.5-.24.8-1.1 1.3-2.1 1-2.4zm-139-3.5c-.24-1.2-.44-.22-.44 2.2s.2 3.5.44 2.2c.23-1.2.23-3.3 0-4.5zm11 1.4c.98-4 2.5-5 2.5-1.7 0 2.4.22 2.6 1.5 1.6 1.3-1 1.4-1 .94.27-.33.85-1.7 1.8-3.1 2-2.3.44-2.4.24-1.9-2.1zm187-1.9c-.59-1.6-.48-1.6 1.2-.25 1.8 1.4 1.8 1.4.44-.76-.77-1.2-1.6-1.8-1.7-1.2-.41 1.2-2.2.31-2.2-1.1 0-.55.51-.68 1.1-.3.69.42.95.15.67-.69-.55-1.6-3-1.9-3.5-.31-.33.97 3.3 6.4 4.2 6.4.22 0 .1-.79-.26-1.8zm-198-3.5c.8-.5.73-1.1-.27-2-.86-.8-1.1-.84-.72-.11.36.65.21 1.5-.35 1.8s-.97 1.6-.9 2.8c.1 2 .15 2 .61.19.28-1.1 1-2.3 1.6-2.7zm168 .71c.27-1.4.1-2.5-.38-2.5-.47 0-.86 1.1-.86 2.5s.17 2.5.38 2.5.6-1.1.86-2.5zm24-4.3c0-1-.54-.85-1.9.69-1.2 1.4-2.5 1.9-3.6 1.5-1.5-.58-1.6-.4-.47 1.4 1.3 2 1.3 2 3.6-.04 1.3-1.1 2.4-2.7 2.4-3.5zm-176 4.1c-.3-.49.38-2.8 1.5-5.1 2.3-4.7 5.4-7 7.2-5.2.79.79.76 1.1-.11 1.1-.66 0-1.2.63-1.2 1.4s-.79 2.2-1.8 3.3c-.96 1-1.4 1.4-1 .91.87-1.1 1-6.2.17-5.3-.31.32-.67 1.2-.79 1.9-.13.74-.84 2.5-1.6 3.8-.75 1.4-1.2 2.6-1.1 2.8.14.19.04.55-.23.82-.26.27-.73.08-1-.42zm8.1-3.6c2.3-2.7 4-5.2 3.7-5.6-.28-.45-.05-1.1.51-1.4 1.7-1.1 1.1 1.7-1.1 4.9-1.2 1.7-3.3 3.9-4.8 5-1.8 1.3-1.2.36 1.6-2.9zm3.6.57c3-3.1 4.6-4 7.3-4 1.9 0 4.1-.56 4.9-1.2.82-.69 1.8-.97 2.1-.64.34.33-.69 1.2-2.3 1.8-1.6.67-3.7 1.9-4.6 2.7-.98.82-1.8.99-1.8.4 0-1.6-3.9-.24-5 1.8-.52.96-1.7 2.1-2.7 2.4s-.05-1.1 2.1-3.3zm112 1.9c0-1.1.44-2.2.99-2.6.56-.35.73.05.39.93-.65 1.7 1.9 3.2 3.6 2.1.79-.49.77-1.1-.07-2.1-.92-1.1-.86-1.4.28-1.4 2.2 0 2.8 1.1 1.7 3.1-1.4 2.6-6.9 2.6-6.9-.07zm-87-4.2c0-.32.67-1.9 1.5-3.4.83-1.6 1.5-2.2 1.5-1.4-.01.82-.68 2.4-1.5 3.4s-1.5 1.7-1.5 1.4zm-21-4.8c0-.44 1.5-1.1 3.2-1.5s4.4-1.4 5.8-2.2c2.5-1.6 2.5-1.5.69.49-1.8 2.1-9.7 4.7-9.7 3.2zm13 .2c0-.45 1.2-1.9 2.7-3.2l2.7-2.4-2.4 3.2c-2.4 3.4-3 3.8-3 2.4zm98-.17c-1.2-.78-1.1-.97.75-.98 1.3-.01 2.2-.64 2.2-1.5 0-1.5 1.2-2 2.3-.87.91.91-1.2 4.4-2.6 4.4-.66 0-1.9-.45-2.7-.98zm31-13c1.7-1 2.1-7 .44-7-.68 0-1.2-.56-1.2-1.2.14-3.7-.33-4.7-2-4.1-1.4.5-1.5.37-.5-.73 1.8-2 1.6-4-.37-3.3-1.4.54-1.4.31-.42-1.6.66-1.2.98-2.5.71-2.7s-.11-1.8.35-3.4.53-3.1.16-3.3c-.38-.23-.64-2.3-.6-4.5.04-2.3-.3-4.1-.75-4.1-.46 0-.83-.73-.83-1.6 0-1.3-.31-1.4-1.4-.49-1.1.91-1.3.63-1.1-1.5.15-1.4.93-3.3 1.7-4.2.8-.92 1.2-2.2.98-3-.25-.71.09-2 .76-2.8 1.6-1.9.26-1.9-1.7.02-.82.82-1.3 1.8-1 2.3.27.43-.37.79-1.4.79-2.4 0-2.4-.39-.18-2.9 1.7-1.9 1.7-2-.75-1.3-1.4.34-1.9.36-1.2.05 1.5-.69 1.7-4 .25-4.9-.67-.41-.66-1.3.03-2.6.96-1.8.61-2.4-1.3-2.1-2 .31-.43-1.1 2.2-2 1.6-.56 3.2-1.6 3.4-2.4.36-.95 0-1.2-1.2-.79-1.4.48-1.4.34.16-.87 1.7-1.3 1.7-1.6.32-3-1.2-1.2-1.3-1.8-.42-2.7.85-.85.69-1.1-.62-1.1-.97 0-1.5.4-1.2.9.3.49-.12 1.2-.95 1.5-.96.37-1.5-.04-1.5-1.1-.03-.95-.98.08-2.1 2.3-2.5 4.7-2.7 5-3.4 4.3-.67-.68 1.6-5.8 2.6-5.8.4 0 .96-.9 1.2-2 1.4-5.4-3.6.21-5.2 5.8-1.2 4.3.58 10 3 9.4 1.4-.38 1.7.1 1.6 2.6-.11 1.7.11 2.8.49 2.6.38-.23.58 1.8.43 4.5-.19 3.6.07 4.8.98 4.4.89-.34 1.2.76 1.2 3.8-.31 13 2.3 31 4.4 31 .56 0 .74.45.4 1s.08 1 .94 1c1.8 0 2.1 2.5.49 3.5-.59.37-.83 1.3-.54 2s.08 1.6-.45 2c-1.4.86-.04 2.6 1.4 1.8.65-.37.39.22-.57 1.3-.97 1.1-1.4 2.3-1.1 2.7.37.37.16.67-.46.67s-1.6.9-2.2 2c-.84 1.6-.76 2 .35 2 .78 0 1.6-.9 1.9-2 .71-2.7 2.4-2.5 2.2.25-.11 1.2.08 2.7.42 3.2.33.55.88-1.9 1.2-5.4.33-3.5 1.2-6.7 1.9-7.2zm-96 7.3c-.43-2.8-.66-3-2-1.7-1.6 1.6-.99 5 .7 3.9.56-.34 1-.07 1 .61 0 .67.17 1 .38.81s.16-1.9-.11-3.6zm102-.29c0-1.3-.11-1.3-.97 0-.8 1.2-.97 1.2-.98.08-.01-.78-.23-1.2-.48-.95-.25.25-.19 1.5.14 2.8.45 1.7.81 2 1.4.95.47-.73.85-2 .85-2.8zm-146 2.3c-1.1-1.1-.76-2.1.97-2.8 1.3-.49 1.4-.34.51.74-.62.75-.84 1.7-.47 2 .36.36.43.66.15.66-.27 0-.8-.3-1.2-.67zm55-4.8c.02-.52-.63-.07-1.4 1s-1.5 2.4-1.5 2.9.63.07 1.4-1 1.5-2.4 1.5-2.9zm4 2.9c.69-.84.8-1.5.24-1.5-.55 0-1.6.68-2.2 1.5-.69.84-.8 1.5-.24 1.5.55 0 1.6-.68 2.2-1.5zm85-5.9c-2.1-1.5-3-1.4-2 .35.36.59 1.4 1.1 2.3 1.1 1.4 0 1.3-.23-.31-1.4zm.45-3.6c-1.6-.99-2.3-.47-1.4 1 .37.6 1.1.79 1.7.44.67-.41.57-.93-.29-1.5zm-121-.84c.72-1.2-1.4-1.9-3.8-1.3-1.4.37-1.5.67-.5 1.3 1.8 1.1 3.6 1.1 4.3-.03zm121-4.5c-2.2-2.2-2.7-1.9-1.4.89.68 1.4 1.5 2.1 2 1.6.51-.51.23-1.5-.68-2.4zm-118 .2c1-.76 3.2-1.2 4.8-.95 3.8.55 3.4.87-2.2 1.7-4 .58-4.3.5-2.6-.72zm-57-1.3c0-.86-.45-1.3-1-.94s-1 1-1 1.6.45.94 1 .94 1-.7 1-1.6zm152-4.7c-1-2.1-1.1-2.1-1.2 1.2-.05 2.6.21 3.2 1.1 2.3.86-.86.88-1.8.07-3.4zm25 2c-.65-2.6-3.2-6.7-3.2-5.1 0 2 2.2 7.4 3 7.4.45 0 .56-1 .25-2.2zm-78-6.4c1.8-3.6 3-7 2.6-7.5-.55-.89-3.9 5.2-6.5 12-1.9 4.8.72 1.8 3.8-4.4zm61 2.9c-1-1-1.8.51-1 1.9.63 1 .87 1 1.2.01.23-.7.15-1.5-.19-1.9zm-12-1.3c.29-1.1.11-2-.38-2-.5 0-.91.9-.91 2s.17 2 .38 2 .62-.9.91-2zm-9.4-.57c1.2.77 1.6-2.6.38-3.8-.4-.4-.84-3.5-.97-6.9-.14-3.9.1-5.7.65-4.8 1.1 1.7.66-9.6-.43-12-1.3-3-3.5-2.1-3.4 1.5.06 2.8.2 3 .98 1.2.6-1.3.77.76.5 6.1-.21 4.5.05 10 .58 12 .68 3 .65 4.5-.07 4.7-.58.2-1 1.1-1 2 .01 1.3.18 1.4.88.29.48-.76 1.4-1.1 2-.69zm23-3.9c.02-.55-.61-.15-1.4.9-.79 1-1.2 2.4-.8 2.9.61.99 2.1-1.6 2.2-3.8zm13-.87c-.13-2-.15-2-.57.12-.23 1.2-.85 2.2-1.4 2.2s-.93.51-.93 1.1c0 .78.46.74 1.5-.12.82-.68 1.4-2.2 1.4-3.4zm-9.3 1.8c-.33-.87-.13-2.3.45-3.2.84-1.3.92-1.2.39.72-.44 1.6-.3 2.2.45 1.7.61-.38 1.1-.24 1.1.31 0 1.8-1.8 2.2-2.4.53zm-16-2c0-.79-.45-1.4-1-1.4s-1 .93-1 2.1.45 1.8 1 1.4 1-1.3 1-2.1zm5.9-3.2c.04-.72-.38-1-.93-.69s-.97 1.8-.93 3.3c.06 2.4.16 2.5.93.69.47-1.1.89-2.6.93-3.3zm-21-2.1c-.37-2.3-1-3.8-1.5-3.4s-.33 2.5.3 4.6c1.5 4.8 2.1 4.2 1.2-1.2zm8.6.99c0-.52-.45-1.2-1-1.6s-1 .08-1 .94.45 1.6 1 1.6 1-.42 1-.94zm1-3.9c0-2.7-1-3.3-2.8-1.5-1.3 1.3-1.3 1.7-.13 2.4 2.1 1.4 2.9 1.1 2.9-.91zm-139-1.2c0-1.1-.17-2-.38-2s-.62.9-.91 2-.11 2 .38 2c.5 0 .91-.9.91-2zm102-4c-.82-.51-1.7-.37-2.1.35-1.4 2.2-.83 2.8 1.4 1.6 1.7-.9 1.8-1.3.77-2zm-9.9.67c0-1.2 5.9-11 7-12 1.5-.94-2 6.9-4.6 10-1.3 1.6-2.4 2.6-2.4 2.1zm46-1.2c.03-.53.47-2.1.99-3.4 1.2-3.3-.81-7.6-2.7-5.6-1.7 1.7-2 4.4-1.1 7.9.68 2.6 2.8 3.4 2.9 1.2zm28-3c-.94-1.1-.94-1.8.01-2.9.67-.8 1-2 .74-2.8-.32-.85-.75-.6-1.3.72-.44 1.1-1.2 2.3-1.7 2.6-.55.37-.47 1.5.21 2.8.63 1.2.79 2.1.36 2.2-.44 0-.11.44.71.97 1.9 1.2 2.7-1.5.96-3.5zm-40-1.5c-.34-.54-.11-.99.5-.99s.83-.47.47-1c-.44-.72-1.1-.68-2 .11-1.2.97-1.3 2.2-.47 5.9.05.28.56-.29 1.1-1.3.57-.96.75-2.2.42-2.8zm18-.99c.54 0 .71.45.37 1s-.1 1 .52 1c.63 0 .96-.56.73-1.2-.59-1.8-3.2-1.6-3.3.25-.07.86.07.97.31.25.23-.69.86-1.2 1.4-1.2zm-141-1.3c-.28-.72.19-3 1-5s1.5-4.8 1.5-6.2c0-1.8.41-2.3 1.5-1.9.94.36 1.5-.01 1.5-.97 0-.86.48-1.8 1.1-2.2 2.1-1.3 2.1.51-.04 4-1.2 2-1.7 3.6-1.1 3.6.59 0 1.1.45 1.1 1s-.34.95-.75.88c-2.1-.33-3.1.39-4.2 3.1-.67 1.6-.93 3.4-.57 4s.39 1.1.07 1.1c-.33 0-.82-.59-1.1-1.3zm133-3.6c0-.52-.45-1.2-1-1.6s-1 .08-1 .94.45 1.6 1 1.6 1-.42 1-.94zm-8-4.1c0-1.7-.62-3.3-1.4-3.6-.82-.32-1.2-1.2-.83-2.1.4-1 .21-1.3-.56-.86-1.6 1-1.4 3.3.35 4 1.1.41 1.3 1.3.9 3.1-.4 1.6-.21 2.5.47 2.5.61 0 1.1-1.4 1.1-3zm4.3.28c.91-1.8 1.3-5.7 1.2-11-.19-10-1.3-13-3.2-8.4-1.2 2.7-1.3 2.8-1.3.63-.08-3.7-2.5-1.9-2.7 1.9-.06 1.9.1 4 .36 4.7.51 1.4 2.8 1.7 3.5.5.23-.41.29-.19.12.5s.19 1.2.79 1.2c1.1 0 .81 3.5-.76 10-.35 1.5-.37 2.8-.04 2.8.32 0 1.2-1.2 2-2.8zm-122-1.6c-.01-.47 1.2-2.3 2.6-4s3.3-4.6 4.1-6.5 1.7-3.1 2-2.8c.61.6-3.4 7.6-6.6 12-1.1 1.4-2 2.1-2 1.6zm111-1.7c0-.52-.45-.94-1-.94s-1 .7-1 1.6.45 1.3 1 .94 1-1 1-1.6zm27 0c0-1.1-.43-1.8-.96-1.5-.52.33-.7 1.2-.39 2.1.79 2.1 1.4 1.8 1.4-.59zm-26-6.5c0-1.9-.36-3.5-.8-3.5s-.8.65-.8 1.4-.52 1.8-1.2 2.2c-.72.44-.89.27-.45-.45.4-.63.25-1.2-.33-1.2-1.2 0-.97 4.2.34 5.2 1.8 1.3 3.2-.29 3.2-3.7zm17 3.1c.31-.81.13-1.7-.39-2.1-.53-.32-.96.34-.96 1.5 0 2.4.56 2.7 1.4.59zm-131-.82c-.07-1.2 3.8-8.5 4.9-9.2 1.8-1.1 2.2 1.4.66 4.2-.82 1.5-1.5 2.4-1.5 2-.02-.44.45-1.7 1-2.8.6-1.1.85-2.2.57-2.5-.28-.29-1.6 1.7-3 4.3-1.4 2.7-2.6 4.5-2.6 4.1zm140-2c-.01-1.8-.21-1.9-.93-.8-.5.8-.7 1.8-.43 2.2.87 1.4 1.4.86 1.4-1.4zm20 .25c2.2-2.2 2.6-4 .94-4-.58 0-.8.41-.49.92s-.62 1.9-2.1 3c-1.4 1.1-2.1 2.1-1.5 2.1.62 0 2-.9 3.1-2zm-13-4.6c.01-.49.9-2 2-3.4 1.4-1.8 2-2.1 2-.9.01.87-.88 2.4-2 3.4s-2 1.4-2 .9zm-135-1.8c0-.8 10-15 13-18l2.7-3-1.7 3c-.96 1.6-2.7 4.1-3.9 5.5-1.2 1.4-3.7 4.9-5.5 7.8-2.9 4.7-4.1 6-4.1 4.9zm-3.4-3.1c.39-1.1.74-2.8.78-3.7.04-.99.44-1.4.94-.86s.17 2.1-.77 3.7c-.91 1.6-1.3 2-.95.86zm134-7.5c.78-1.1 1.7-1.7 2.1-1.3.39.39.43-.03.09-.93-.35-.91-1.3-1.9-2.1-2.2s-1.2-.14-.88.39c.32.52-.33 2.8-1.4 5.2-2.3 4.8-2.8 7.8-.6 3.6.78-1.5 2.1-3.6 2.8-4.7zm-14 4c-.09-1.1-.51-2-.94-2-.95 0-.98.35-.18 2.4.83 2.2 1.3 2 1.1-.42zm-118-2.9c-.3-.48.08-1.4.85-2 1.6-1.3 3.2.2 2.1 1.9-.77 1.2-2.2 1.3-2.9.11zm117-1.9c2.6-2.3 5.7-8.2 4.3-8.2-.6 0-.79-.49-.42-1.1 1.1-1.7-4.8 1.6-6.9 3.9-1.3 1.4-1.7 2.8-1.2 4.6.75 3 1.6 3.2 4.3.79zm22-.25c.78-1.3-.54-1.3-2.5 0-1.3.84-1.3.97.19.98.93.01 2-.43 2.3-.98zm-14-2.8c.27-.44.12-1.4-.32-2.1-.58-.95-1.2-.45-2.4 1.8-1.5 3-1.5 3 .31 2.1 1-.55 2.1-1.4 2.4-1.8zm-119-4.1c0-.48.75-1.5 1.7-2.2 1.5-1.2 1.6-1.2.47.88-1.2 2.3-2.1 2.9-2.1 1.4zm94-2.9c1.3-1.6 2.5-2.9 2.7-2.8.72.59-1 3.2-3 4.4-2 1.2-2 1.1.27-1.6zm-9.6-.58c2.8-1.9 5.5-2.8 5.5-1.7 0 .48-1.4 1.4-3.2 2-4.1 1.4-4.7 1.4-2.3-.23zm37 .1c0-.61-.3-.81-.66-.45-.36.37-1.3.16-2-.45-1-.84-1.3-.77-1.3.29 0 .78.9 1.5 2 1.6 1.1.08 2-.35 2-.96zm-117-3.3c1.3-1.4 2.6-2.5 2.8-2.5.27 0-.56 1.1-1.8 2.5s-2.6 2.5-2.8 2.5c-.27 0 .56-1.1 1.8-2.5zm11-2c1.5-1.9 2.9-3.3 3.2-3 .59.59-4 6.4-5.1 6.5-.44.04.41-1.5 1.9-3.5zm84 3c-.35-.56.21-2.1 1.3-3.5 1.5-2 1.9-2.1 1.9-.72.01.96-.4 1.8-.91 1.8s-1.1.79-1.3 1.8c-.2.99-.63 1.3-1 .72zm-18-3.3c1.8-1.7 3.2-3.6 3.2-4.3s.29-.94.64-.59c.94.95-2.3 5.5-4.9 6.8-1.6.83-1.3.29 1-1.9zm8.7-4.7c1.1-.81 2.9-1.5 4-1.4 2 .03 2 .06.12 1.5-1.1.81-2.9 1.5-4 1.4-2-.03-2-.06-.12-1.5zm-77-.13c-.37-.36.26-1.3 1.4-2.1 2.7-1.9 3.5-1 1.1 1.1-1 .92-2.1 1.4-2.5 1zm72-5.2c0-.44.62-1.7 1.4-2.7.76-1 1.3-2.4 1.2-2.9-.12-.57-.03-.71.19-.3.23.41 1.3.28 2.3-.28 1.3-.71 1.9-.71 1.9 0 0 .57-.66 1-1.5 1-.82 0-2.2 1.4-3 3-1.5 2.9-2.5 3.8-2.5 2.2zm8.6-.76c-1.1-.78-1.6-1.7-1.2-2.1.38-.39 1.4.05 2.4.97 2.2 2.2 1.4 3-1.1 1.1zm16-1.5c0-.58-.45-.78-1-.44s-1-.04-1-.83c0-2 2.7-2.9 3.4-1 .85 2.2.71 3.4-.42 3.4-.55 0-1-.48-1-1.1zm11-5.9c0-1.6-1.8-2-2.8-.7-.79.96-.57 1.3.89 1.4 1.1.08 2-.25 2-.73zm-29-7.6c0-1.8 5.8-4.4 9.6-4.2 3.8.14 3.8.15-.84.79-2.6.36-5.6 1.5-6.8 2.5-1.1 1-2.1 1.4-2.1.93z"/></svg>
