<?xml version="1.0" encoding="UTF-8"?>
<svg fill="currentColor" fill-rule="evenodd" aria-hidden="true" viewBox="0 0 401 533" xmlns="http://www.w3.org/2000/svg"><path d="m178 510c-3-.4-6.1-.5-6.9-.24-2.2.78-25-5.8-31-9.1-3.6-1.8-4.3-3.1-2.4-3.8.85-.33 1.3-.2 1 .28-.88 1.4 1.4 2.7 11 6 9.4 3.3 11 3.7 10 2.2-.32-.51-3.6-1.9-7.3-3.1-10-3.2-12-4.2-12-5 .26-.43-.19-1.3-1-2-1.1-.93-1.5-.94-1.5-.05 0 1.6-3.9.38-6.6-2-1.1-1-2.5-1.9-3.1-1.9s-3.2-2-5.9-4.4c-2.7-2.4-7.9-7.1-11-10-3.6-3.3-7.2-6.3-8-6.8-1.6-1-4.3-5.4-3.7-6 .23-.24 2.4 1.5 4.8 3.9s7.4 6.7 11 9.5c5.1 4 6.8 4.8 7.2 3.7.73-1.9 3.5-2 4.2-.12.3.8 1.5 1.2 2.7.99 1.2-.22 1.6-.14.99.18-2.3 1.1.8 5.3 5.3 7.1 2.4.98 3.8 2.1 3.2 2.4-1.8 1.1 2.9 3 5.8 2.3 1.4-.36 3.1-1.7 3.7-3 1.3-2.8 2-2.9 3.8-.87.68.82 2 1.5 2.9 1.5 1.1.01.72.76-1.4 2.5l-3 2.5 2.3.66c1.8.51 2 .87 1 1.6-1 .73-.92.83.36.42.92-.3 1.8-.16 2 .3.17.46 2.5 1.1 5.2 1.5 5.9.79 9.5 2.4 5.6 2.6-2.3.09-2.3.17-.5.96 3 1.3 3.5 1.2 3.5-.61 0-.96.56-1.4 1.4-1.1.96.37 1.2-.04.9-1.3-.48-1.8-2.5-2.5-14-4.5-2.1-.38-4-1-4.2-1.4-.25-.41 1.9-.21 4.8.45 2.9.65 7.7 1.1 11 1s5.8.2 6 .64c.3.45 4.4 1.1 9.2 1.5 4.8.37 8.5.96 8.3 1.3-.22.35-3.3.39-6.9.09-7.8-.65-8 .47-.16 1.4 3 .38 5.3 1.1 5 1.6-.31.51-.09.93.49.93s1.1-.5 1.1-1.1.63-.86 1.4-.57c2 .79 2.8-.4 1.3-2.2-.87-1.1-.89-1.3-.06-.83.65.39 1.4.3 1.8-.2s2-.58 3.8-.17c2.7.61 14-.14 20-1.4 2.5-.49 5-1.8 5-2.5 0-.37-10-.66-22-.64-12 .02-22-.25-22-.6 0-1.1 6.3-1.6 9.2-.79 1.5.43 2.8.4 2.8-.07 0-.48-.9-1.1-2-1.4s-3-.84-4.1-1.2c-1.4-.4-1.9-.23-1.4.5.38.61.24 1.1-.31 1.1s-1.2-.38-1.5-.84c-.28-.46-2.1-.89-4-.96-2.9-.11-3.4.18-3.1 1.7.27 1.4-.21 1.8-2 1.7-1.5-.09-2-.49-1.4-1.1 1.8-1.8.91-2.6-3.2-2.6-4 0-4.1.09-2.2 1.6 1.8 1.5 1.8 1.5-.56.31-1.4-.68-3.8-1.4-5.5-1.6s-7.2-2.1-12-4.3c-5.1-2.2-10-4.2-12-4.6s-3.5-1.7-4.8-3-2.8-2.4-3.5-2.4-1.2-.43-1.2-.93c0-.49-.79-.7-1.8-.46-1.6.42-8.6-4.5-20-14-7.7-6.5-11-10-16-20-.96-1.6-2-2.6-2.2-2.4-.58.58 8.2 15 11 18 1.1 1.2 1.8 2.5 1.5 2.8-2 2-25-38-24-42 .24-.69-.16-2.8-.89-4.8-3.8-10-7.3-25-6.7-29 .42-2.6.29-3.8-.38-3.4-.89.55-1.6-5.5-1.4-13 .02-.96-.39-1.8-.9-1.8-1.9 0-.7-18 1.7-26 .36-1.2.16-1.6-.55-1.2-.61.38-1.1.21-1.1-.37s.67-1.1 1.5-1.1 1.5-.48 1.5-1.1-.4-.81-.89-.51c-.5.31-.83-.56-.75-1.9.08-1.4.51-2.5.96-2.5s.53-.9.18-2c-.37-1.2-.18-2 .45-2 .66 0 .87-1.2.54-3.1-.4-2.2-.22-2.9.65-2.3.82.5 1 .21.56-.93-.35-.91-.15-1.7.44-1.7.61 0 .79-.76.41-1.8-.51-1.3-.39-1.5.5-.59s.88 2-.04 4.8c-1.4 4.1-.59 6.2.91 2.4.52-1.3.98-1.8 1-1.1.03.71-.64 3-1.5 5s-1.8 5.7-2.1 8.1c-.28 2.4-.97 5.6-1.5 7-2.1 5.5-1.6 31 .83 37 .35.82.74 3.1.87 5 .46 6.4 3.4 21 4.4 22 .67.67.7-.05.09-2.2-.58-2-.56-3.2.07-3.2 1.1 0 .18-6.4-1.3-9.4-.64-1.2-.6-2.2.13-3 1.2-1.2 1.5-3.1.32-2.3-.43.26-.7-2.4-.61-5.9s-.23-6.4-.73-6.4c-.49 0-.89-.51-.89-1.1 0-.78.46-.74 1.5.12.83.68 1.5 2.6 1.5 4.4.04 2.9 1.9 14 3.4 21 .51 2.3.42 2.6-.38 1.5-1.3-1.8-1.4-.11-.21 1.9.57.9 1.1 1 1.5.29.36-.58 1.2-.85 1.9-.59.67.25 3.2-2 5.6-5 3.3-4.1 5.2-5.6 7.8-6.1 1.8-.35 3.4-1 3.4-1.5 0-.46.9-.66 2-.45 1.5.29 2-.18 2.1-1.8.09-1.7.22-1.8.57-.44.46 1.8 2.3 2.5 2.3.92 0-.46.67-.84 1.5-.84s1.5.4 1.5.9c0 .49.56.54 1.2.11s2.2-.66 3.2-.52c1.1.14 2.8-.32 3.7-1 1.6-1.2 1.5-1.6-.65-6.1-1.3-2.7-2.2-5.6-2.1-6.5.14-.92-.14-1.9-.62-2.2-.9-.59-4.8-13-4.8-16 0-3.1 3.4.89 5.2 5.9 1.6 4.8 1.8 5 1.4 1.6-.25-2.2-.03-3.5.52-3.2.52.32.94 2.2.94 4.1 0 3 .29 3.5 1.9 3 1.4-.36 2.1.09 2.4 1.6.32 1.6.47 1.4.66-.86l.23-3 .84 3c.99 3.6 2.8 11 3.5 14 .96 4.7-1.2-.28-2.5-5.8-.68-2.9-1.6-5-2.1-4.7-.45.28-.36 2 .21 3.7 1.4 4.5 4 17 4.2 20 .07 1.3-.44 2.6-1.1 2.8-.83.28-1-.2-.66-1.4.5-1.5.41-1.6-.46-.33-.77 1.1-.69 1.9.27 2.8 1.1 1.1 1.8.86 4.2-1.4 1.6-1.5 2.3-2.4 1.5-1.9-.89.52-1.2.44-.77-.22.36-.57 0-1.6-.79-2.2-1.4-1.2-1.7-7.2-.29-6.4 1.3.79.81-2.8-1.8-13-1.4-5.5-2.3-10-2.1-10 .37-.38 2 4.3 2.9 8.2.32 1.4.48 1.2.56-.81.07-1.5.54-2.6 1-2.2.55.34.57 1.8.06 3.6-.53 1.8-.5 2.8.07 2.4.52-.32.97.01 1 .73s.45.41.91-.69c.45-1.1.65-3.1.42-4.5s-.15-1.9.18-1.2c.78 1.7 2.4 1.6 2.4-.08 0-1.9 2.8-1.7 3.5.22.52 1.4.72 1.4 1.5.08.51-.81.94-2.1.94-2.8.02-1.1-.27-1.1-1.5-.13-.95.79-1.5.85-1.5.18 0-.58.45-1.3 1-1.7s1.1-2.7 1.2-5.3c.15-4.4.19-4.4.56-.94.34 3.3.74 3.8 3.1 3.9 2.2.11 2.3.21.56.55-1.6.31-2.3 1.4-2.6 4.1-.29 2-.83 4.6-1.2 5.7-.6 1.8-.55 1.8.45.25.62-.96 1.6-1.8 2.1-1.8 1.4 0 .65 6.3-.86 6.8-.83.27-1-.18-.58-1.4.52-1.3.29-1.6-.93-1.1-1 .4-1.8.01-2.1-1.1-.26-1-.5-.59-.56 1-.07 1.5.4 3 1 3.4.77.47.89.27.35-.6s-.42-1.1.35-.6c.63.4 1.2 2.2 1.3 3.9l.12 3.2.76-3c.62-2.4.79-2.6.88-.75.07 1.2.58 2.2 1.1 2.2.56 0 1.9 1.4 2.9 3.1 1.1 1.8 2.2 2.6 2.6 2 .37-.59.24-1.1-.29-1.1-1.4 0-3.2-5.7-2.5-7.8.46-1.4.38-1.5-.5-.23-.84 1.2-1.3 1.2-2.3.25-.94-.94-.95-1.2-.04-1.2.67 0 1.2-1.4 1.2-3.1 0-1.7.4-2.8.88-2.5.48.3 1.2-.8 1.5-2.4.35-1.7 1.2-3 2.1-3 .83 0 1.5-.44 1.5-.97s-.64-.72-1.4-.42c-1.2.45-1.4-.57-.96-5.8.26-3.5.48-7.1.49-8.1s.47-1.8 1-1.8.77-.36.5-.81c-.27-.44-.12-2.5.34-4.5.45-2 .48-3.7.06-3.7-1.5 0-2.9 2.6-3.2 6l-.35 3.5-.54-3.1c-.45-2.6.05-3.8 2.8-6.9 4.1-4.7 4.2-5.6.06-5.2-7.8.81-12 7-13 19-.1 1.5-.35 1.7-.97.67-1.3-2.1-2.3 4.3-1.1 7.4 1.4 3.7 1.2 4.2-.59 1.6-.95-1.4-1.8-5.2-2-9.9-.26-4.2-.7-8-.98-8.5s-.52-5.7-.54-12c-.03-10-.18-11-2.4-13-2.9-2.7-3.3-5-.43-2.4 1.5 1.4 2 1.5 2 .4.02-.86.81-.43 2.1 1.1l2 2.5-.5-6c-.84-10-1.4-13-3.1-17-.89-1.7-1.4-3.4-1.1-3.7s1.5 1.5 2.8 4c3 6.1 4.7 6.7 4.1 1.4-.23-2.3-1-5.6-1.8-7.5l-1.4-3.4-2.3 2.8c-4.8 6-7.7 10-7.7 11 0 .64-2 5.1-4.4 9.8-2.4 4.8-5.5 11-6.7 14-2.4 5.6-3.4 5.4-4.3-.89-.24-1.9-.94-4.5-1.6-5.9l-1.1-2.5.46 2.5c.24 1.4.76 4.8 1.1 7.5.39 2.8 1 5.4 1.4 6 .42.55.43 1.9.02 3l-.72 2-.57-2c-.31-1.1-.85-4.2-1.2-6.8-.42-3.1-1-4.5-1.7-4.1-.62.38-.8.21-.43-.4.37-.59.17-2.4-.43-3.9-.6-1.6-1.1-4.3-1.1-6.1 0-1.8-.41-3-.91-2.7-.49.3-1.4-.57-2-1.9-.94-2-.68-3.8 1.4-9.8 1.4-4 3.1-9.9 3.8-13 1-4.8 1.7-6.1 4.1-7.3 4.1-2.1 4.5-1 .52 1.5-5.1 3.3-2.3 2.5 4.7-1.2 4.1-2.2 6.7-3.1 7.6-2.5.75.48 2.2.62 3.1.32 1.3-.41 1.6-.13 1.1 1.1-.53 1.4-.22 1.6 1.8 1l2.4-.68-2.5 2c-2.6 2.1-2.1 2.8.88 1.1 1.3-.69 2.4-.35 4.4 1.4 1.5 1.3 2.5 2.5 2.2 2.7s.87 3.1 2.5 6.4c2 4.1 2.9 5.2 3 3.7.03-1.2.55-2.2 1.2-2.2.63 0 .88.88.58 2-.29 1.1.16 3.4.99 5.1.84 1.7 1.3 3.3 1 3.5s-.97-.88-1.6-2.6c-.59-1.7-1.5-3-2.1-3-1.5 0-1.3 1.1 1.1 5 4.3 6.9 9.9 19 9.4 21-.28.75-.08 1.4.45 1.4s.98.79.99 1.8c.01 1.3.21 1.4.86.41.46-.73 1.2-1.3 1.7-1.2.49.05.94-.75 1-1.8s.42-2.4.81-3c.7-1.1-9-20-11-21-.45-.18-.58-.72-.28-1.2.29-.49.13-1.7-.38-2.7-3.8-7.4-5.9-14-6.5-21-.3-3.2-.22-4.6.17-3.1l.7 2.8 2.2-2.1c3.4-3.2 4-2.4.79.94-1.6 1.6-2.4 3-1.7 3 .64 0 .91.66.6 1.5s.03 3.2.76 5.2c.73 2.1 1.4 4.2 1.4 4.8.04.55.62 2 1.3 3.3s.98 2.7.65 3.2c-1.3 2 1.3.88 2.8-1.3.86-1.2 1.6-1.7 1.6-1.1.03.66-.4 1.5-.95 1.8-1.4.88-1.2 7.1.25 8.7.69.74 3 4.8 5.1 9 3.2 6.4 3.7 8 2.7 9.7-1.5 2.8.9 2.9 3.4.11 1-1.1 1.5-2 1.2-2-.35 0-.02-1.7.75-3.8s1.7-4.6 2.1-5.8l.7-2 .91 2c.65 1.4.75.95.35-1.8-.37-2.5-.17-3.8.59-3.8.64 0 .92-.62.63-1.4-.29-.76.6-3.8 2-6.8 1.4-3 2.7-6.5 2.9-7.9.68-4 3.7-10 6.1-13 2.1-2.1 2.7-2.1 2.4-.02-.08.45.66.67 1.6.48.99-.19 1.8-1.2 1.8-2.3 0-2.2 7.4-6.5 11-6.5 2.7 0 4.2-2.8 2.2-4.2-.77-.53-4-.74-7.2-.49l-5.8.47 2.1-2c2.1-1.9 2.1-4.6.04-7.3-.82-1.1 1.5-8.9 4.9-17 1.2-2.7 2-6 2-7.5-.07-1.5.83-4.4 2-6.6 1.2-2.2 2.1-3.4 2.1-2.7 0 .88.86.67 2.8-.66 1.5-1.1 4.6-2.5 6.8-3.2 2.2-.7 4.7-1.5 5.5-1.8 2-.66 18-.63 19 .03.29.3 1.7-.09 3.2-.86 2.6-1.4 2.8-1.2 6.5 2.8 3.3 3.6 3.7 4.7 3.2 7.5-.37 2-.2 3.3.43 3.3.58 0 1 .68 1 1.5s.37 1.5.83 1.5c1.8 0 2-1.4.63-3.4-.8-1.2-1.4-3.2-1.4-4.6.05-1.5.3-1.9.62-1 .3.82 1.5 2.3 2.7 3.2 1.4 1.1 1.6 1.7.76 1.8-1.1.02-1.1.31-.13 1.5.68.83 1 2.6.75 4.1-.37 1.9-.13 2.4.88 2 .93-.36 1.4.26 1.4 1.9 0 1.4-.47 2.5-1 2.5-.71 0-.71.6 0 1.9.8 1.5.63 2.3-.71 3.7-1.7 1.7-1.7 1.7 0 1.1 1.4-.54 1.8-.12 1.8 2.2 0 2.9 4 7.8 4 5 .02-.99.33-.89 1 .34.55.96.9 2.3.75 3-.14.69.5 4.2 1.4 7.8s1.9 8.2 2.2 10c.33 2.1.92 3.8 1.3 3.8.4 0 1.3-2 2.1-4.5.73-2.5 1.9-4.8 2.6-5.2 1.8-1 2.4-8.3.97-11-1.6-2.6-2.9-18-1.4-17 .57.57 1.3 3.4 1.6 6.2.33 2.8 1 5.2 1.5 5.2s.86.48.86 1.1-.45.78-1 .44-1 .08-1 .94c0 1 .92 1.6 2.8 1.5 2.1-.01 2.4-.22 1.2-.98-1.3-.84-1.3-.97.19-.98.93-.01 2 .45 2.3 1 .44.72 1.1.68 2.1-.12 2-1.7 1.7-.77-.84 2.7-1.3 1.7-2.9 2.8-3.7 2.6-.96-.32-1.2.04-.8 1.1.71 1.9-1.9 10-3.9 13-.75.87-1.4 2.1-1.4 2.6 0 .59-.68 1.3-1.5 1.6-.82.32-1.5 1.4-1.5 2.5s-.67 3.5-1.5 5.4c-1.4 3.3-1.6 3.5-4 2.4-1.4-.65-2.5-1.5-2.5-2-.01-.44-.46-.53-1-.19-1.5.94-1.2-.82.98-5.6 1.1-2.4 2-6.1 2-8.3.02-4.2-.58-4.5-1.3-.56-1.1 5.6-2.1 8.7-4.1 12-1.8 3.3-1.9 3.9-.6 4.7.82.53 1.1.98.54.98-.53.01 1.2 2.2 3.8 4.9 3.7 3.8 4.9 5.8 5.4 9 .3 2.3.87 4.1 1.3 4.1 1.5 0 2.9 4.7 1.8 5.9-.83.83-.72 1.1.41 1.1.83 0 2.5-1.1 3.7-2.4 1.8-2 2.1-3 1.6-6.5-.73-4.5-2-5.4-2.7-1.9-.31 1.6-.48 1.3-.57-1.1-.08-1.8.25-3.1.73-2.8s.92-1.5.97-4c.07-3.7-.21-4.5-1.6-4.2-1.2.21-1.8-.52-2-2.6-.5-4.4.66-7.9 2.4-7.2 1 .39 1.5-.13 1.5-1.7 0-2.4 2.1-7.6 3-7.7.3-.01.38 1.7.18 3.7-.27 2.8-.1 3.4.69 2.2.85-1.2 1-.99 1.1 1.2.02 2.2-.35 2.6-2 2.1-1.9-.49-2-.05-1.9 7.3.05 5.1.36 7.2.89 5.9.66-1.6.93-1.7 1.4-.5.29.82.78 2.2 1.1 3 .31.82.31-.52.02-3-.3-2.5.1-6.9.9-10 .86-3.3 1.1-6.4.63-7.6-1.6-4.2.62-17 3.4-20 .89-.89 1.6-2.1 1.6-2.7s.27-.82.6-.49c.34.33-.11 2-1 3.8-2.2 4.3-2 4.4 1.1 1.3 3.3-3.3 3.5-8.2.38-11-1.1-1.1-1.8-2.6-1.6-3.3.27-.7-.52-1.9-1.8-2.7-2.2-1.3-2.2-1.3-.76.5 1.4 1.8 1.4 1.8-.25.54-.96-.76-1.8-2-1.8-2.7 0-1.6-3.6-3.7-5.3-3.2-.7.23-.09 1.5 1.5 3.1 1.5 1.5 2.4 2.7 2.2 2.7-.74 0-8.8-6.4-9.2-7.2-.19-.41-.81-.75-1.4-.75s-1.7-.79-2.4-1.8c-1.1-1.4-1.5-1.5-2.2-.4-.66 1-1 .69-1.5-1.2-.36-1.4-1.1-2.6-1.6-2.6s-.98-.68-.98-1.5c0-2.2.78-1.9 3.5 1.2 1.3 1.5 2.6 2.5 3 2.1.93-.92-4.5-6.4-8.3-8.3-2.3-1.2-3.1-1.3-2.6-.4.44.73-1.4-.92-4.2-3.7-2.8-2.8-6.2-7-7.6-9.5s-3.8-5.8-5.2-7.4c-1.4-1.6-2.6-3.5-2.6-4.2-.07-.73-.24-1.8-.38-2.3s-.34-1.6-.45-2.2c-.1-.69-.55-.35-1 .75-.63 1.6-.96.9-1.5-3-.39-2.8-1.1-6.4-1.6-8s-1.4-6.1-2-9.9c-1.3-8.4-3.4-13-2.5-5.1.32 2.8.84 6.8 1.2 9 .43 3 .28 3.7-.56 2.9-.72-.69-1.3-8.2-1.7-21-.31-11-.71-21-.89-22s-.37-5.1-.42-8.2l-.08-5.8h-22-22l-.22 5.1c-.12 2.8-.45 7-.72 9.1-.29 2.3-.02 4.6.62 5.4.84 1 .84 3.3.01 8.9-.62 4.2-1.1 9.6-1.1 12 0 2.7-.61 5.1-1.5 6-.82.83-1.5 2.9-1.5 4.6 0 1.7-.74 3.6-1.7 4.3-1.5 1.1-1.5 1.5-.32 2.9.94 1.1 1 1.9.35 2.4-.58.37-1.3 2.9-1.6 5.7s-.87 5.8-1.3 6.8c-.48 1.2-.28 1.7.61 1.5 1.9-.43 2.3 2.7.47 4.5-1 1-1.2 1.8-.51 2.2.58.36 1.9-.4 2.9-1.7 1-1.3 3.7-4.6 6-7.3s4.1-5.4 4.1-5.8c0-.46.38-.59.85-.3s1.4-.58 2-1.9 1.6-2.5 2.2-2.5c.74 0 .74.38.02 1.2-.91 1.1-6 7.9-13 17-1.1 1.5-3.8 4.2-6 6.1-2.2 1.8-6.2 6.2-9 9.8-5.9 7.8-11 12-14 13-1.9.29-2 .13-.79-1.4 1.1-1.5 1.1-1.6-.06-.52-.76.68-1.5 1.9-1.6 2.7-.18 1.2.21 1.3 1.9.46 1.9-.91 1.9-.82-.2.77-1.3.98-3.6 3.1-5.2 4.7-1.5 1.6-3.2 2.6-3.8 2.2-.56-.35-1.3-.19-1.6.34s-1.2.74-1.9.47c-.73-.28-2.1.67-3 2.1-.94 1.4-2.3 2.4-2.9 2.2-.68-.26-1.2.35-1.2 1.4 0 1.8.11 1.8 2.1-.15 1.7-1.6 2.4-1.8 3.2-.71.81.98.25 2.1-2.3 4.5-2.6 2.5-3.5 2.9-3.9 1.7-.33-.85-.15-1.2.42-.88.55.34.47-.54-.19-2l-1.2-2.6-4 3.8c-2.2 2.1-5.2 4.9-6.6 6.3s-3.5 3.2-4.5 4c-3.3 2.5 2.4-3.7 12-12 4.7-4.5 10-10 13-12s3.9-4.2 3.2-4.2c-.71 0 .06-1.4 1.7-3.1 3-3.1 5.1-6.7 7.3-13 .87-2.4 1.5-2.9 2-2 .46.73.84.87.84.32s-.37-1.6-.82-2.3c-.66-1-1.1-.97-2.2.3-.84 1-1.6 1.2-2 .55-.35-.57-3.2 2.9-6.3 7.7-3.1 4.8-7.2 10-9.2 12-2 1.9-3.6 3.8-3.6 4.3 0 .46-2.4 3.4-5.4 6.6-8.8 9.3-12 13-13 16-.86 1.6-3.1 4.5-5 6.4s-3.4 4-3.4 4.6-1.7 3.2-3.8 5.7c-4.4 5.4-6.4 8.9-11 18-1.7 3.6-3.5 6.8-4 7.2-.55.38-.64 1-.22 1.5.43.42 1.2.11 1.7-.7 1.4-2.2 1.2-.98-.81 4.6-1.1 3-2.3 4.9-3 4.6-1.7-.56-1.6-4.2.16-4.8.78-.3 1.2-1.4.9-2.4-.27-1 .66-4 2-6.7 1.4-2.6 4.1-8.2 6.1-12 3.4-7.2 10-18 12-19 .39-.16 4.2-4.8 8.5-10s8.2-10 8.6-10c.89 0 8.1-7.7 8.7-9.3.22-.6-.15-.69-.9-.22-.85.52-1 .39-.58-.37.4-.63 1.4-1.2 2.2-1.2.82 0 1.2-.42.93-.92-.32-.51 1.9-3.8 5-7.2 7.3-8.3 17-22 20-30 1.6-3.3 3.4-6.7 4.1-7.5 1.5-1.8 4.9-17 5.6-25 .3-3.3 1.2-11 2-18 .79-6.7 1.4-14 1.4-16 0-7.8 4.4-7.2-50-7.2-43 0-49-.18-49-1.5 0-2.6-3-6.3-6.1-7.3l-2.9-1v-44c0-42 .06-44 1.9-44 2.1 0 7.1-5.3 7.1-7.6 0-1.2 20-1.4 140-1.4h140l1.4 3.2c.89 2 2.9 4 5.2 5.1l3.8 1.8-.26 43c-.25 42-.3 43-2.3 44-2.8.5-6.2 3.9-6.9 6.8l-.61 2.4h-54-54l.42 12c.5 14 2.3 26 3.7 26 .57-.35.69.8.29 2.9-.5 2.7-.22 3.9 1.2 5.4 1 1 2.9 4.6 4.2 7.8 2.6 6.6 9.7 19 14 26 7 10 14 19 29 34 5.6 5.8 9.6 11 9 11s-.8.84-.43 1.4c.4.65.18.78-.56.31-.67-.41-1-.95-.78-1.2.43-.43-1.4-2.7-8.2-11-2.5-2.9-3.6-3.6-4.2-2.6-.63 1-.82.94-.83-.28-.01-.86-1.1-2.6-2.5-3.9-1.4-1.3-2.5-2.8-2.5-3.3s-1.8-2.7-4-4.8c-4-3.8-5.8-5-4.4-2.7.44.73.27.89-.46.44-.65-.4-.91-1.2-.59-1.7.33-.52-1.8-3.8-4.8-7.2-3-3.4-6-7.1-6.8-8.2-1.4-1.8-1.3-1.9.28-.63 2.4 1.9 2.2.56-.5-3.2-1.2-1.7-5.1-8.8-8.6-16s-6-11-5.6-10c1.4 5.1 8.2 20 10 23 2.4 3 2.8 5 .91 3.8-1.4-.87.35 1.7 4.1 5.8 1.4 1.6 2.1 3.2 1.6 3.9-.46.75-.35.98.29.59 1-.62 4.6 3.8 4.8 5.8.04.55.61.89 1.3.75.66-.14 1.2.54 1.2 1.5s1.3 3.1 2.9 4.8 4.7 4.8 6.8 7c2.2 2.2 7.4 8.7 12 14 4.3 5.8 8.3 11 8.9 12 .82 1.1.79 1.3-.16.69-.69-.41-1.2-.27-1.2.31s-.11 1.4-.25 1.7.54.78 1.5.92c1 .15 1.5-.19 1.1-.81-.39-.63-.19-.78.5-.36.64.4 1.2.14 1.2-.59.01-.72.84-.25 1.8 1 1.6 2.1 1.8 2.1 1.8.5.02-1-1.1-3.3-2.4-5.2-1.4-1.8-2.2-3.6-1.8-3.9.91-.92 2.1.66 5 6.5 1.4 2.9 3 5.5 3.6 5.8 1.3.81 1.2.3-.6-3.4-1.8-3.6-1.1-6 1.1-3.8 2 2 1.8 3.1-.25 1.4-.93-.75-1.5-.92-1.2-.37 2.4 4.5 4.1 9.2 4.4 12 .19 1.8.11 2.6-.16 1.9-.28-.69-.91-1-1.4-.69-.51.31-.21 1.9.66 3.6.86 1.7 1.7 3.9 1.9 4.9.2 1 1.1 3.1 2 4.6.9 1.6 1.3 1.9.98.83-2.3-7-3.3-11-3-11 .39-.4 2.1 3.3 2.4 5.1.06.42.8 2.4 1.6 4.4s1.3 4.3 1.1 5c-.55 1.4 3.9 15 5.4 17 1.4 1.4 1.3.95-2-7.9-1.6-4.4-3-8.1-3-8.2 0-.12.79.04 1.8.35 1.4.43 1.4.33.38-.42-1.1-.8-1-1.2.5-2.2 1.6-1 1.6-1.1.12-.65-1.3.4-1.8-.01-1.8-1.5 0-1.1-.45-1.8-1-1.4s-1 .17-1-.38.45-1.3 1-1.6 1-.14 1 .44.64 1.1 1.4 1.1 2 1.7 2.6 3.8 1.6 4.2 2.1 4.7.88 2 .88 3.2.43 2.5.96 2.8c.52.33.9 1.8.83 3.3-.19 4.2 1.2 14 2.7 19 .75 2.6.97 4.8.49 4.8s-1.1-.79-1.3-1.8-.51-.29-.57 1.5c-.07 1.8.33 3.2.88 3.2s1-.56 1-1.2c.01-.83.33-.75.98.25.53.82.98 3.6.98 6.2.01 2.6.46 5 1 5.3.62.39.78-.97.42-3.7-.32-2.4-.09-5.4.51-6.8.96-2.2 1-2 .57 1.5-.28 2.2-.11 4.6.39 5.4.54.83.52 2.6-.07 4.5-.53 1.7-1.1 8.1-1.4 14s-.81 13-1.3 16c-.79 4.2-.88 3.4-.59-5l.35-10-1.6 12c-.89 6.7-2 12-2.6 12-.52 0-.7-1-.4-2.2.29-1.2.82-5.4 1.2-9.2 1-11 1.5-14 2.5-14 1.4-.49 1.2-3.2-.26-2.9-.67.14-1.4-.76-1.6-2-.36-2.4-2.1-3.1-2.3-1-.07.69-.25 2.4-.39 3.8-.15 1.4-.39 4.4-.54 6.8s-.71 4.6-1.2 4.9c-.61.38-.69-1.6-.21-5.3 1.3-11 2.1-22 1.4-22-.37 0-.99 3.6-1.4 8.1-.39 4.4-1.1 7.7-1.5 7.2-.45-.46-.39-3.1.13-6 .59-3.2.59-6-.02-7.5-.89-2.2-.96-2.2-1.1 1.1-.53 12-1 14-2 8-.43-2.5-1.4-5.8-2-7.5s-1.3-3.9-1.4-5-.73-2.1-1.4-2.3c-.64-.22-.94-.75-.67-1.2.27-.44-.24-2.2-1.1-4-1.2-2.4-1.3-3.4-.45-4 .76-.48.96-2.3.57-5.1-.52-3.8-.42-4.1.62-2.5.69 1.1 1.1 4.5 1 7.6-.13 3.3.23 6 .85 6.4.75.46.94-1.1.62-5.2-.25-3.2-.23-4.8.05-3.6 1.1 4.8 2 1.9 1.9-6.4-.03-6-.43-8.8-1.3-9.1-.69-.23-1.2-1.6-1.2-3 0-5.8-14-30-20-35-2.7-2.3-1.8.39 1.4 4 2 2.2 2.8 4.1 2.4 5.4-.38 1.4-.26 1.6.37.7 1.7-2.4 8.2 8.5 8.8 15 .68 6.4 1.4 7.7 1.5 2.9l.1-3.4.89 3.8c.49 2.1 1.8 5.9 3 8.4 1.3 2.8 1.7 4.8 1.1 5.2-.53.33-1.2 1.5-1.5 2.6-.29 1.2-.55.5-.61-1.7-.07-2-.64-4-1.3-4.4-.85-.53-.97 1.5-.45 7.9.48 5.8.36 8.6-.35 8.6-.58 0-1.1-1.2-1.2-2.8-.24-6.5-.94-12-1.9-13-.8-1.4-.99-1.1-1 1.3-.04 2.1-.31 2.6-.93 1.6-1.4-2.3-.66 9.1.8 12 .72 1.3 1.1 3.6.89 5.2s-.08 2.6.33 2.4c.41-.25 1-.01 1.4.55s.16 1-.41 1c-.7 0-.69.87.03 2.8 1.2 3.1 1.8 15 .72 15-.36 0-.89-.56-1.2-1.2-.36-.9-.52-.92-.58-.06-.04.66.37 1.5.92 1.8s1 1.1 1 1.6-.56.66-1.2.25c-.86-.52-.83-.24.11.92 1.2 1.4 1 2.3-.81 5.8-1.2 2.3-1.9 4.8-1.6 5.5.29.75.13 1.4-.35 1.4-.49 0-.73.79-.55 1.8.19.96.37 4.5.41 7.8.07 5 .52 6.6 2.6 9 1.4 1.6 2.3 2.2 1.9 1.3s-.22-1.9.25-2.2.88.23.92 1.2c.04.93.4 2.6.81 3.7.59 1.6.52 1.7-.34.5-.66-.91-1.1-1-1.1-.32-.01.65 1.9 2.8 4.3 4.7 2.4 2 4.9 4.7 5.6 6 .74 1.4 1.8 2.2 2.4 1.9.62-.38.77.03.38 1-.35.91-.24 1.7.25 1.7s1.2-1.4 1.6-3.1c.37-1.7.9-2.8 1.2-2.6 1 1-1.4 7.2-9.6 25-2.3 4.9-4.1 9.7-4.1 11 0 1-.64 1.9-1.4 1.9s-1.7.83-2 1.8c-1.9 5.9-23 31-24 28-.5-.79-1.2-.65-2.2.45-1.3 1.4-1.3 1.5.25.92.95-.36 1.7-.27 1.7.2 0 1.3-4.9 4.2-6 3.6-1-.65-7.8 3.4-9.9 5.8-.74.9-2 1.6-2.8 1.6-1.8 0-7.3 2.8-9.1 4.6-2.3 2.3.15 1.5 3.8-1.1 1.9-1.4 4.2-2.5 5.1-2.5.96 0 2-.45 2.4-1s1.2-.99 1.8-.97c1.9.06-3.4 4-5.3 4-.99 0-2 .51-2.2 1.1-.69 2-22 8.6-28 8.3-4.1-.24-4.4-.14-2.2.81l2.5 1.1-2.4.41c-1.3.23-2.8-.18-3.2-.91-.56-.91-.77-.62-.65.91.15 2 .65 2.2 4.4 2 2.4-.13 4.3-.52 4.3-.85 0-.34 1.1-.5 2.4-.36 1.3.15 3-.13 3.8-.62 1.2-.74 1.1-.9-.11-1-1.3-.1-.1-.5 7-2.3 2.3-.6 10-3.8 12-4.6.55-.38 4.6-2.6 9-5 4.4-2.4 8.2-4.6 8.5-4.9s2.4-1.8 4.8-3.4c4.5-2.9 5.4-4 2.5-3.1-1.2.36-1.1.11.37-.78 5.2-3.3 18-16 20-20 1.8-3.2 3-4.4 3.5-3.6.49.7.58.16.21-1.3-.44-1.8-.34-2.1.33-1.1.77 1.1 1.2.99 2.1-.69 1.4-2.5 1.4-3.5.19-2.8-.5.31-.4-.79.22-2.4.63-1.7 1.5-3 2-3 .45 0 .32.94-.3 2.1-.61 1.1-.88 2.3-.6 2.6.27.28 1.2-.89 2.1-2.6.92-1.8 1.2-3.1.57-3.1-.57 0 .1-2.2 1.5-4.8 1.4-2.7 2.3-5.6 1.9-6.4-.33-.87-.1-2.4.52-3.4 1-1.6 1.1-1.6.55.36-.33 1.2-.2 2.4.28 2.7s.91 0 .95-.66c.27-4.1 1.1-7.9 2.1-9 1.9-2.3 6.1-15 5.4-17-.42-1.1-.21-1.3.75-.71 1 .63 1.2.38.54-1.1-.44-1-.9-2.8-1-3.9-.18-1.5-.13-1.6.2-.19.88 3.6 2.8.89 4.4-6.4 1.2-5.1 1.7-6.4 1.8-4.2.06 1.8-.76 6-1.8 9.5-2.8 9.2-5.4 20-5.6 23-.07 1.4-.46 3.1-.88 3.8-.44.72-.21 1.2.56 1.2.89.02.76.45-.39 1.3-.94.71-2.9 4.2-4.4 7.7-8.3 19-19 35-30 44-11 9.2-11 9.5-11 11 0 1.3-6 9-8.4 11-1.9 1.4-1.9 1.4.08 2.2 2.7 1 9.3-1.2 9.3-3.1-.01-.97-.28-1.1-.75-.42-.92 1.4-7.5 3.7-6.7 2.4.33-.53 1.8-1.6 3.4-2.4 1.5-.79 4.2-2.8 5.9-4.4s4.3-3.2 5.7-3.4c2.8-.54 4.4.7 2 1.6-.82.31-1.4 1.1-1.2 1.8.14.67-.3 1.3-.99 1.4s-1.7.23-2.3.3c-.58.06-.82.51-.52.99 1.1 1.8 6.3.25 17-5.1.96-.48 1.7-.53 1.7-.1-.02.8-9.7 5.3-16 7.4-1.8.61-3 1.5-2.7 2s-.36 1.3-1.4 1.9c-2.5 1.4-3.4 1.3-2.5-.06.78-1.3-3.4-.24-5 1.2-.52.49-2 .89-3.3.89s-2.6.67-2.9 1.5c-.31.83-1.1 1.2-1.7.79-1.4-.9-5.8-.4-7.1.81-.59.57-.48.91.31.91.69 0 .95.5.57 1.1-.47.77-.93.7-1.5-.23-.65-1-.96-.96-1.5.4-.4 1-1.7 1.7-3.4 1.7-1.5 0-5.6.96-9.1 2.1-10 3.4-13 3.9-22 4.3l-9 .39 7-.91c8.6-1.1 23-5.2 30-8.5 3-1.4 6.1-2.4 6.9-2.4s1.2-.3.88-.66c-.87-.87 4.9-4.4 6.6-4 .7.17.89.11.43-.14-.46-.24.67-2 2.5-4 3.2-3.3 3.2-3.5.84-2.8-1.4.41-4.5 2.7-6.9 5.2-5.3 5.3-15 10-16 8.2-.64-1-.83-.94-.84.29-.02 1.7-11 4.7-25 7-4.1.65-8 1.8-8.8 2.5-1 1-5 1.3-17 1.1-8.4-.11-18-.53-21-.92zm5.4-1.8c-3.9-1.5-15-2.3-17-1.1-1.5.9-1.4.99 1.2.53 1.6-.3 4.1-.14 5.4.36 1.3.49 4.7.93 7.5.97 3.6.06 4.5-.16 3-.73zm21-.51c-.93-.85-14-1.4-14-.56-.31.52 1.1 1.1 3.2 1.2 3.8.31 12-.17 11-.69zm11-2c2.8-.32 6.9-1.3 9-2.1l3.8-1.5-3.5.46c-1.9.26-8 1-13 1.7-6.6.86-9.1 1.5-7.5 1.9 1.3.35 3.3.5 4.4.33 1.1-.18 4.3-.58 7.2-.9zm-30-3.2c.23-.2-.82-.36-2.3-.36s-3.6-.49-4.8-1.1c-2.7-1.4-3.9-.13-1.5 1.6 1.6 1.2 7.1 1.1 8.6-.17zm32-2c-.96-.25-2.5-.25-3.5 0s-.18.46 1.8.46 2.7-.21 1.8-.46zm15-1.8 4.5-1.5-4 .5c-9 1.1-12 1.8-12 2.5 0 1 6.8.19 12-1.5zm11 .1c2.8.53 5.8-.46 5.1-1.6-.32-.51-.1-.93.48-.93s1.1.41 1.1.91c0 1.4 4.1.01 4.7-1.6.29-.75 1-1.4 1.7-1.4.65 0 2-.9 2.9-2 1.5-1.7 1.5-2 .19-2-.84 0-3.2.71-5.2 1.6-2 .87-6.2 2.2-9.1 3-3 .79-6.2 2.4-7.2 3.6-2.4 2.8-2.3 3 .78 1.3 1.4-.75 3.6-1.2 4.8-.95zm8.1-3.6c.34-.55 1-1 1.6-1s.94.45.94 1-.7 1-1.6 1-1.3-.45-.94-1zm-36-4.9c12-2.2 27-7 27-8.4 0-.5-.79-.57-1.8-.16-5.3 2.3-9.4 2.9-10 1.6-.64-1-2-1.2-5.7-.55-8.3 1.4-14 1.3-14-.21 0-.73.6-1.3 1.3-1.3.73 0 2-1.5 2.8-3.2 1.7-3.7 3.5-6.5 5.3-8.5.69-.75 1.2-2 1.2-2.7 0-2 2.4-3.6 3.9-2.6 1.1.69 1.1.97-.03 1.7-.75.48-2 1.7-2.9 2.8-1.4 1.8-1.4 1.9.41 1.2 3.5-1.3 8.8-1.9 8.2-.83-.33.55-2.3 1.3-4.4 1.6-5.2.88-6.5 1.9-6.5 5 0 1.5-.47 2.5-1.1 2.3-.61-.22-.96-1.2-.77-2.3.18-1 .04-1.6-.33-1.2s-.76 1.3-.87 2-.58 1.9-1 2.7c-1.2 2-.46 2.2 4.1 1l4.2-1.1-2.2-1.8c-1.2-1-1.8-1.9-1.2-1.9s1.6.48 2.2 1.1c.86.86 1 .63.61-.93-.45-1.7-.18-2 1.5-1.6 1.4.37 3.2-.63 6-3.3 3.8-3.7 10-7 10-5.3 0 .46-.56 1.1-1.2 1.3-1.4.56 5.8.08 11-.75 1.9-.29 4.1-1.1 5-1.9 1.4-1.2 12-5.7 14-5.7.33 0-.27.66-1.3 1.5-2.5 1.9-1.5 1.9 2.7.07 2.5-1.1 2.8-1.5 1.4-1.6-1.2-.07.25-1.2 3.9-3 5.9-2.9 10-6.1 6.1-4.5-1.1.41-3.1 1.1-4.5 1.5s-4.2 1.8-6.4 3c-3.5 2-13 6.1-15 6.1-.27 0 .18-.45 1-.98 1.2-.81 1.2-.99-.5-1.1-1.3-.07-1.5-.29-.61-.65 2.5-.99 5-3.6 4.4-4.6-.33-.54-.13-.69.43-.34 1.3.82 15-6.1 22-11 9.9-7 7-8.3-3.6-1.6-5.5 3.5-6.9 4.1-5.9 2.4.78-1.3-.77-1.3-2-.08-.8.78-12 5.1-13 5.1-.22 0 .15-.67.83-1.5.69-.82 3.1-2 5.3-2.6 2.2-.6 5.6-2.3 7.6-3.8 1.9-1.5 3.2-2.1 2.8-1.5-.39.63-.11 1.4.62 1.6.72.27 1.9-.42 2.6-1.5 1.1-1.8 1.1-2-.57-1.4-1.6.57-1.6.47.15-.93 1.1-.86 1.9-2 1.8-2.5-.13-.5.45-.64 1.3-.32 1.3.51 1.3.74-.15 1.8-1.6 1.1-1.6 1.3.05 1.9.95.36 2.7-.02 3.9-.84 1.2-.83 1.7-1.5 1.2-1.5s.27-1.1 1.8-2.5 2.7-2.8 2.7-3.1c0-1.3-4.6 2.5-5.5 4.5-.54 1.2-1.6 2.4-2.3 2.6-.86.33-1 .07-.55-.73 1.2-1.9 1.3-3.7.18-3.7-.53 0-.66-.5-.28-1.1.49-.8.87-.8 1.4.03.47.76 1.3.42 2.6-1l1.9-2.2-2.4 1.2c-1.5.8-2.1.85-1.7.15.37-.61.17-1.1-.44-1.1s-.84-.45-.5-1 1.1-1 1.6-1 .72.44.39.99c-.36.57.06.73 1 .37.88-.34 1.4-1.2 1.1-2-.29-.77.13-1.7.95-2 .81-.32 1.5-1 1.5-1.5 0-.52-3.2 1.3-7.2 4.1s-7.4 4.8-7.7 4.5.15-.96 1-1.4c.87-.48 2.7-1.8 4-2.9l2.4-2-2.7.43c-1.5.25-3.2.72-3.8 1.1s-1 .2-1-.32c0-1.2-12-1.4-12-.21-.75 1.2-6.5 4.1-6.5 3.2.03-1.5 1.6-2.7 3.4-2.7 1.5 0 2-.74 2.1-3.2.09-1.8-.32-3.2-.92-3.2-.71 0-.67-.41.12-1.2.66-.66 1.2-1.9 1.2-2.7 0-.83-1.1.03-2.5 1.9-3 4-3 4.3-.71 3.6 1.3-.42 1.8-.03 1.8 1.4 0 2.1-1.6 2.9-1.6.75-.02-.75-.42-.59-.99.39-.52.9-2.1 1.9-3.5 2.3-1.4.34-2.5 1.1-2.5 1.7 0 .74.49.7 1.5-.14.84-.69 1.5-.8 1.5-.24 0 .55-.68 1.6-1.5 2.2s-1.5 1.6-1.5 2c0 1 8.1-.56 8.9-1.8.76-1.2 8.3-4.4 8.9-3.8.23.24-1.6 1.3-4 2.4-5 2.2-6 3.3-5.1 5.6.54 1.4.9 1.4 2.8.24 1.2-.75 3.4-1.7 4.9-2s2.8-1.1 2.8-1.6-2.1-.05-4.6 1c-6.2 2.7-6.8 1.7-.69-1.2 2.7-1.2 5.2-2.5 5.7-2.7s.6.04.24.62.13 1.2 1.1 1.4c1.1.21-1 1.8-5.5 4.2-4 2.1-8 3.6-8.8 3.3-.82-.32-1.2-.15-.9.38s-.55 1.2-1.9 1.6c-1.4.35-2.4.92-2.1 1.3.22.35-1 .74-2.7.86-3 .22-6.6 2.7-5.6 3.8.29.29 3.2-.35 6.4-1.4s6.3-1.7 6.8-1.3c.54.33-2.6 1.6-7 2.9-15 4.4-15 4.4-22 14-2.7 4-6 5.8-4.8 2.7.49-1.4.15-1.3-1.8.35l-2.4 2 2-2.3c1.9-2.2 2-2.2 3.4-.5 1.2 1.5 1.3 1.6.84.14-.31-.92.07-2.2.86-2.9.78-.65 1.2-1.6.9-2s.39-1.4 1.5-2.1 2-1.6 2-1.9c0-.5 12-19 14-21 .16-.19.8-.04 1.4.34.79.49.66 1.4-.46 3.1-.87 1.3-1.3 2.4-1 2.4.31 0 .08.9-.51 2-.85 1.6-.76 2 .46 2 .85 0 1.6-.79 1.6-1.8.01-1.2.25-1.4.79-.53.59.94 1.6.96 4.5.08 2-.62 3.7-1.5 3.7-2 0-.73-2.8-.44-6.6.68-2.6.77-3.4-1.1-1.4-3.3 1.1-1.2 1.6-2.2 1-2.2-1.6 0 .38-4.2 4.4-9.5 2-2.6 3.6-5.3 3.6-6.1 0-.78.65-1.4 1.4-1.4 2.1 0 2.9-1.8 2.7-6.1-.13-3.3 1.2-5.9 2.4-4.7 1.2 1.2.99 5.6-.3 7.5-1.1 1.6-1.1 2.2-.26 2.2.66 0 1.4-.94 1.8-2.1.36-1.4.79-1.7 1.3-.91.51.83 2.4.06 6.4-2.6 3.1-2.1 5.6-3.9 5.6-4.2 0-.88-4.6.99-8.2 3.3-2.1 1.3-3.8 2.3-3.8 2.2-.91-2.9-.69-6.3.54-8 .85-1.2 1.5-2.8 1.5-3.4 0-.68 2.6-6.8 5.8-14 7.7-16 8.2-18 7.5-19-.32-.83.14-3.3 1-5.5 1.9-4.7 2-5.3.61-4.5-.55.34-1-.08-1-.94s-.55-1.4-1.2-1.3c-.82.17-1.1-.9-.9-3.2.41-4.6 1.1-5.2 1.2-.92.03 3.1.17 3.2 1.4 1.7.73-.96 1.1-2.9.84-4.3-.36-1.9-.73-2.2-1.4-1.2-.68 1.1-.85 1.1-.86.03-.01-.72-.47-1-1-.69s-1 .03-1.1-.69-.47-.41-.96.69c-.61 1.4-.75.22-.43-3.5.26-3 .21-4.9-.12-4.2-.88 1.9-2.7 1.5-2-.38.52-1.4.12-1.5-2.4-1-4.8.95-3.5-.01 2.5-1.9 7.2-2.2 9.4-4.6 3.3-3.4-2.4.45-5.1 1.1-6 1.5-3 1.1-1.9-.23 1.8-2.4 4-2.3 4.9-2.6 3.9-1.1-.34.55.08 1 .94 1s1.6-.64 1.6-1.4c0-1.5-2.9-1.5-6.4-.04-1.2.51-1.7.42-1.3-.25.36-.57 2-1.6 3.7-2.3 1.9-.79 2.6-1.6 1.9-2-.73-.45-.36-.92 1-1.3 1.6-.43 2-.2 1.6.95-.61 1.6 2.2 7.3 3.6 7.3 1.1 0 .98-.71-.75-4-.87-1.7-1.1-3-.5-3 .57 0 1 .63 1 1.4 0 1.8 3.6 6.3 4.4 5.5 1.2-1.2-1.4-5.8-4.8-8.4-3.4-2.6-3.6-2.6-6.6-1.1-1.7.88-3.1 1.3-3.1 1 0-.32 1.8-1.4 4.1-2.4 3.7-1.7 4.2-3.9.55-2.5-1.2.46-1.4.03-1.1-1.9.25-1.4-.07-2.8-.71-3.2-.7-.44-.89-.28-.47.39.4.65-.56 1.8-2.3 2.6-3.6 1.9-4.9 3.6-2.1 2.8 1.1-.29 2.3-.93 2.6-1.4.91-1.5 2.3-.99 2 .7-.23 1.6-2.3 3.4-4 3.4-.52.01-.07-.68 1-1.5 1.9-1.5 1.8-1.5-.34-.44-1.2.6-2 1.5-1.7 2 .3.49.03 1.2-.59 1.6s-1.5.08-2-.67c-.61-.98-.8-.77-.68.77.14 1.8.51 2 2.7 1.2l2.5-.91-2.4 1.9c-1.8 1.4-2 2-1 2.4 1.2.41 1.2.87.12 2.7-.71 1.2-1 2.6-.69 3.1.32.53-.08.96-.89.96s-1.7-.34-1.9-.75-.31-.25-.17.35c.13.61-.62 1.8-1.7 2.7-1.2 1-1.9 2.9-1.9 4.9 0 1.8-.71 5.8-1.6 8.8-.87 3-1.6 6.5-1.6 7.7-.01 1.2-.38 2-.82 1.8-.43-.27-.75 1.1-.69 3.1.05 2-.33 3.9-.85 4.2-.52.37-1.1 1.4-1.3 2.2-.4 1.9-7.1 14-7.8 14-.26 0-.18-1.2.18-2.8.53-2.2.41-2.5-.67-1.5-1.3 1.2-2.2 5.5-.98 4.8 1.2-.76.33 12-.93 13-1 .97-1.1.78-.15-.98 1.4-2.6 1.4-3.6.21-2.9-.5.31-.69-.45-.43-1.7.44-2.1.39-2.1-1 .25-.84 1.4-1.3 3.4-1 4.5.43 1.7.33 1.8-.6.5-.94-1.3-1.1-1.2-.75.5.2 1.1.88 1.9 1.5 1.8.67-.14.91.42.55 1.3-.48 1.3-.77 1.3-1.5.23-.62-.89-.71-.5-.26 1.2.64 2.4.6 2.4-.82.55-1.4-1.9-1.5-1.8-1.2.81.17 1.6-1 5.6-2.7 9.2-2 4.2-2.8 7.2-2.4 8.7.43 1.6.34 1.8-.29.95-.75-1.1-1-1-1.5.25-.33.87-.37 2.2-.07 3 .29.77.06 1.7-.52 2-.65.41-.85-.03-.5-1.2.3-.99-.19-.52-1.1 1-.91 1.6-1.4 3.1-1.2 3.3.62.61-3.8 7.6-8 13-2.5 3-3.2 3.4-3.7 2.2-.34-.89-.27-1.4.16-1.1.42.27.77-.38.77-1.4 0-2.8-.87-2.4-3.1 1.3-1.5 2.5-1.9 5.2-2 12-.03 5.6-.54 9.8-1.4 11-1.2 1.9-1.3 1.9-.63-.39 1.1-3.9 1.4-12 .49-13-.45-.28-1.5 3.2-2.3 7.7-.83 4.5-1.1 8.4-.62 8.6 1.3.5 1.1 2.2-.26 1.9-.73-.16-1.2 1.8-1.4 5.2-.31 7.2-.32 7.2-1.4 6.5-.51-.31-1.2-.11-1.6.46s-.98.82-1.4.56-3.1.15-5.9.9c-4.7 1.2-5.2 1.2-5.2-.3-.05-1-.27-1.2-.58-.41-.83 2-2.2 1.4-1.6-.74.28-1.1.91-1.7 1.4-1.4.48.3.62-.12.31-.93s-1.2-1.7-2-2-1.2-.2-.96.26c.28.45.15 2.1-.28 3.7l-.79 2.9-.52-2.7c-.29-1.5-.14-2.5.33-2.2 1.5.95.32-3.3-1.4-5-1.6-1.6-1.7-1.5-1.7 1.3 0 1.7.45 3.3 1 3.6s1 1.6 1 2.7c0 1.7-.25 1.9-1.5.82-.82-.68-1.5-2-1.5-2.9-.01-1.4-.15-1.4-.93-.18-.5.8-.7 1.8-.43 2.2.28.44-.2.8-1.1.8s-1.6-.48-1.6-1.1-.5-.75-1.1-.37c-.77.47-.69.94.25 1.5 1.6 1 .72 1.2-1.6.29-.87-.34-1.4-.97-1.1-1.4.27-.44-.52-.58-1.8-.31-1.9.41-2 .3-.75-.69 1.3-1 1.3-1.1-.13-.66-3.5 1.1-18-3.8-16-5.3 1.6-1 .55-1.7-5.5-3.5-5.1-1.6-7.4-1.2-7.5 1.3-.05 1.2-.27 1.2-.89-.39-.46-1.1-1.5-2.6-2.3-3.3-.83-.69-1.3-2.1-1-3.1.29-1.1-.17-2.1-1.2-2.5-1.3-.49-1.5-.2-1 1.4.84 2.6-.45 2.5-4.8-.44-2.4-1.6-3.7-2-4.1-1.2-.27.65-.55.28-.63-.82l-.15-2-.81 2c-.44 1.1-.38 2.5.13 3.2 1 1.3-2.5 2.9-4.2 1.8-.56-.35-1-.19-1 .35s1.3 1.3 3 1.6c1.6.36 2.9 1.2 2.8 1.8-.13.63.67 1.2 1.8 1.3 1.4.09 1.5 0 .31-.28-.94-.23-1.5-1-1.2-1.8.29-.77-.28-1.6-1.3-1.8-1.5-.37-1.4-.49.43-.58 1.2-.07 2.2.28 2.2.76s1.4 1.4 3 2.1 3 1.6 3 2c0 .42.9 1 2 1.3s2 1.2 2 2.1c0 .87.48 1.6 1.1 1.6s.78-.45.44-1-.18-1 .36-1c.53 0 1.1.34 1.3.75.55 1.2 14 6.2 16 6.2 1.4 0 2.3.43 1.9 1-.37.6 1.1 1 3.7 1.1 3.5.08 3.8.24 1.8.81l-2.5.7 2.5.66c1.4.36 2.8.2 3.1-.36.35-.55 1.9-.75 3.5-.43s4.6.82 6.7 1.1 4.8.88 6 1.3 5.2.77 9 .7c3.7-.06 6.8.28 6.8.75 0 .48 1.2.61 2.8.3s5.1-1 7.9-1.5zm9.3-.09c0-.9-4.8-.09-5.5.91-.24.38.89.5 2.5.27 1.6-.24 3-.77 3-1.2zm23-3.3c2.1-.78 3.5-1.6 3-1.9-.48-.27-3.1.58-5.9 1.9-5.2 2.5-3.8 2.5 2.9.03zm24-1.3c3.7-1.4 6.9-3.1 7.2-3.9.31-.8.09-1.4-.47-1.4-.57 0-.75-.44-.42-.99.36-.58-.07-.73-1-.36-1 .4-1.2.87-.55 1.3.62.39-.7 1.6-3.1 2.9-3.3 1.8-4.4 2-5 .94-.61-.96-.82-.84-.83.44-.01 1.1-1.1 2-2.8 2.3-1.5.33-3.6 1-4.8 1.5-4 1.9 4.9-.19 12-2.7zm13 2.3c0-.74 1-1.8 2.2-2.4s1.7-1.1 1.1-1.2c-.66-.04-2.5 1-4 2.4-2.2 2-2.4 2.5-1.1 2.5.96.02 1.8-.58 1.8-1.3zm30-1.8c-.01-.38.97-2.4 2.2-4.4 2.1-3.6 2.1-3.7.25-2.9-7.9 3.3-11 4.4-11 3.7 0-.48 2-1.4 4.4-2 2.4-.61 5.1-1.8 6-2.7.85-.85 3-1.7 4.7-2l3.2-.4-2.8 3c-2.2 2.3-2.6 3.2-1.6 4.2.65.65 1.2.87 1.3.49.07-.39.24-1.2.38-1.7s.31-1.4.38-2c.06-.55.61-1 1.2-1s2-1 3-2.2c1.3-1.5 1.9-1.8 1.8-.75-.35 3.6.02 4.3 1.6 3 1.1-.93 1.5-.94 1.5-.06 0 .65.45.9 1 .56 1.3-.8 1.3-.17-.16 3-1.3 2.9-3.1 3.5-2.2.8.49-1.5.39-1.6-.78-.25-1.6 1.8-4.8 2.5-4.8.98 0-.62-1.4-.12-3.1 1.1l-3.1 2.2 1.4-4.8-2 2.5c-1.1 1.4-2 2.2-2.1 1.8zm-115-4.3c0-1.6-2.6-1.3-4.3.48-.99 1.1-.99 1.2.01.63.69-.39 1.2-.25 1.2.32 0 .56.68.77 1.5.45.82-.31 1.5-1.2 1.5-1.9zm-55-.06c0-.87-.56-1.4-1.2-1.2-.69.23-2.7-.18-4.5-.92-3.8-1.6-4.3-1.6-4.3-.39 0 1.1 6.9 3.2 8.2 2.4.46-.28.84-.04.84.54s.22 1.1.5 1.1.5-.71.5-1.6zm107-.89c2.5-1.9.71-1.9-2.6-.03-1.6.92-1.9 1.4-.94 1.5.86.02 2.4-.62 3.5-1.4zm84 .53c0-.52.46-1.2 1-1.6s.81-.96.56-1.4 1.1-2.7 3-5.1c1.9-2.4 3.4-4.8 3.4-5.3 0-1 3-3.6 4.2-3.7.41-.02.75.42.75.97s-.63 1-1.4 1c-1.9 0-5.7 6.6-5 8.8.39 1.2.29 1.4-.35.49-.65-.9-1.5-.14-3.2 2.8-2.2 4-3.1 4.9-3.1 3.1zm-9-3.3c0-.56-.66-.45-1.5.24-.82.68-1.5 1.7-1.5 2.2 0 .56.66.45 1.5-.24.82-.68 1.5-1.7 1.5-2.2zm13 2.2c0-.55.44-1 .97-1s.71-.79.4-1.8c-.43-1.4-.34-1.4.43-.36.78 1.1 1.6.5 3.7-2.8 1.5-2.3 3-3.9 3.3-3.6.3.29 0 1.1-.65 1.7-1.4 1.4-1.6 3.1-.18 2.3 1.4-.84 1.3-.34-.57 3.4-1.6 3.2-3.1 4.4-2 1.6.54-1.4.38-1.4-1.6 0-2.6 1.8-3.8 2-3.8.55zm-162-1c1.8-.79 1.8-.87-.5-.86-1.4.01-4.2-.42-6.2-.95-2-.52-4-.67-4.3-.33-.34.35 1.3 1.2 3.7 1.8 5.3 1.4 4.9 1.4 7.3.35zm25-5c.9-2.7 2.1-5.1 2.6-5.2.53-.18 1.4-2.8 1.8-5.8.47-3 1.4-5.6 2-5.8.76-.26.79-.95.12-2.2-.59-1.1-.61-2-.06-2.2.82-.29 1.4-10 1.1-17-.14-2.3-.21-2.4-1.1-.5-.74 1.6-.88 1.3-.73-1.5.23-4.3-.71-6-3.3-6-1.1 0-1.8-.54-1.7-1.2.14-.66-.7-1.3-1.9-1.4-1.2-.08-2.6-.43-3.2-.78s-1.3.07-1.6.94c-.9 2.4-.73 3.6.4 2.9.55-.34 1 .2 1 1.2.01 1.5.17 1.6.94.34 1.4-2.3 2-.86 1.1 3-.69 2.9-.85 3.1-1 .99-.1-1.4-.4-1.9-.68-1.2s-.97 1.2-1.5 1.2-.77-.66-.46-1.5.13-1.7-.4-2.1c-1.2-.74-.94-6.5.35-8.2 1.2-1.5.51-1.6-2.5-.19-2.2 1-5.5 6.5-5 8.3.13.44-.59 2-1.6 3.5-1.8 2.6-5.2 11-5.2 12 .01.4.67-.39 1.5-1.8s1.4-1.9 1.5-1.2c.05 1.6-1.8 5.2-3.5 6.9-.97.97-.99 1.8-.11 3.7l1.2 2.4 2.2-5.3.73 2.9c.39 1.6.47 3.1.17 3.4-.3.31-.59-.31-.63-1.4-.06-1.4-.22-1.5-.63-.42-.3.82-1.3 2.4-2.2 3.4s-1.1 1.6-.37 1.2c1.6-.92 1.6.61.07 2.2-.65.65-.89 1.5-.52 1.8.37.37 1.3-.86 2.2-2.7 1.2-2.9 1.5-3 1.5-1.1.02 1.3-.41 3.2-.96 4.2-1.3 2.5.47 7.4 2.4 6.7.92-.36 1.5.23 1.8 1.6.19 1.2.89 2.1 1.6 1.9.68-.14 1.2.2 1.2.75 0 1.8 1.7 1.1 2.9-1.2 1.1-2.1 1.1-2 .69.96-.27 1.8-.06 3.5.47 3.8s.99-.22 1-1.2c.01-1 .69-2.9 1.5-4.3l1.5-2.5-.98 6 1.2-2.8c.65-1.5 1.6-2.8 2-2.8s.14 1.6-.7 3.6c-1.7 4.1-1.9 5.8-.59 4.9.51-.32 1.7-2.8 2.6-5.5zm-65 2.1c-.33-.53-1.6-.7-2.8-.37-2.2.59-2.2.6.25 1.2 2.8.73 3.5.52 2.6-.87zm72 1.5c0-1 3-6.6 3.5-6.6.57 0-1.6 5.2-2.7 6.4-.45.52-.81.61-.81.2zm60-2.5c1.9-1.7 3.9-3.1 4.4-3.1 1.5-.07-1.1 2.4-4.5 4.3l-3.3 1.9 3.5-3.1zm-24-.17c1.3-1.1 1.8-2 1.1-2s-2.2.9-3.3 2-1.7 2-1.1 2 2.1-.9 3.3-2zm-75 .53c0-1.1-6.8-3.9-10-4.1-3.8-.23-8.7-2.5-10-4.6-.73-1-1-1.1-1.4-.06-.28.69-.92 1-1.4.69-.5-.31-.91-.15-.91.37 0 1.4 13 5.8 16 5.3.68-.12 2.5.45 4 1.3 2.9 1.6 4.3 1.9 4.3 1.1zm62-.44c0-.49-.9-.67-2-.38s-2 .7-2 .91.9.38 2 .38 2-.41 2-.91zm19-.59c2.4-1.4 2.4-1.4.37-1.5-1.2-.02-2.7.64-3.4 1.5-1.6 1.9-.27 1.9 3 0zm-79-1.5c0-.55-.19-1-.42-1s-1.2-.31-2.2-.69c-1.6-.62-1.6-.51-.33.96 1.7 1.9 3 2.2 3 .73zm151-.47c1.1-.81 2.4-1.5 2.9-1.5s.07.63-1 1.4-2.4 1.5-2.9 1.5-.07-.63 1-1.4zm-141-.28c-.02-.41-.69-1.6-1.5-2.7s-1.5-2.8-1.5-3.9c0-1.4-.47-1.7-1.6-1.3-1.5.56-1.6-.11-1-6.1.35-3.7 1.1-7 1.8-7.4.77-.48.54-1.1-.73-1.9-1.6-1-1.6-1.1-.12-.65 1.9.61 2 .48 1.2-1.8-.34-.87-1.1-1.3-1.7-.93-.62.39-.75.17-.32-.54.41-.65-.26-2.9-1.5-4.9-1.8-3.1-3.4-9.2-2.3-9.2.16 0 1.5 2.1 3 4.7 1.5 2.6 2.9 4.2 3.1 3.6.47-1.4-7.2-16-8.7-16-.75-.25-.58.78.48 2.8.92 1.8 1.2 3 .71 2.6-.52-.32-1.6-2.1-2.3-3.9-.73-1.8-1.6-3.5-2-3.8s-.88-1.2-1.1-2c-.18-.81-1-2-1.8-2.7-.82-.64-1.5-1.5-1.5-2-.02-1.2-2.6-7.3-3.2-7.3-1.5 0-2.9 2.8-2.5 5.2.38 2.6 2.2 4.1 2.2 1.8 0-.55.4-1 .89-1 1.1 0 4.4 8 3.7 8.8-.3.29-1.1-.97-1.7-2.8-1.2-3.3-1.2-3.3-2.1-.91-.89 2.4-.94 2.4-2.8-1.6-1-2.2-1.6-4.3-1.4-4.8s0-.77-.58-.77c-2.2 0-1.5 5.6 1.1 8.2 1.1 1.1 1.8 2.7 1.4 3.5-.32.83-.13 1.2.42.86.55-.33.99.05.99.84 0 .8-.68 1.7-1.5 2-1 .39-1.5-.04-1.5-1.3 0-1-.32-2.7-.7-3.7-.62-1.6-.79-1.5-1.4.67-.69 2.4-.7 2.4-.8.19-.06-1.3-.55-2-1.1-1.7s-1-.08-1-.94.45-1.6 1-1.6 1-.45 1-1-.41-1-.9-1c-1.2 0-3 5.4-2.6 7.7.19 1 .38 2.2.42 2.8.05.52.62.41 1.3-.25s1.7-1.2 2.3-1.2c1.1 0 3.5 5.9 3.9 9.5.12 1.1.99 3.7 1.9 5.9.94 2.1 1.7 4.4 1.6 5-.04.62-.5.05-1-1.3-3.8-9.4-7.2-16-8.2-16-.49 0-.56.79-.17 1.8 2.5 6.3 2.7 7.5 1.5 9.7-1.1 2-.92 2.9 1 6.4 1.3 2.2 2.6 3.9 3 3.6s.96.45 1.2 1.5c1.2 4.5-2 1.1-5.8-6.3-2.9-5.6-3.8-6-3.2-1.5.52 3.6 5.6 13 5.8 11 .06-.82.47-.38.91 1 1.5 4.6.98 5.5-1.2 2-1.2-1.9-2.8-4.6-3.7-6l-1.5-2.5-.76 2.8c-.42 1.6-.35 3.9.15 5.2 1.8 4.6 23 16 28 15 1.3-.33 2.4-.14 2.4.43 0 .56.68 1 1.5 1s1.5-.34 1.5-.75zm9-2.7c.46-2 1.2-4 1.6-4.4 1-.97-.42 6.1-1.5 7.2-.54.54-.57-.59-.07-2.8zm96 .78 2.4-2.7-3.2 2.2c-3.3 2.3-3.9 3.1-2.4 3.1.45 0 1.9-1.2 3.2-2.7zm-102-5.3c.32-3 .97-6.4 1.4-7.5.51-1.2.6-.05.21 3-.92 7.2-2.4 11-1.6 4.5zm144 4.7c0-.85 10-6.9 11-6.3.27.26-1 1.3-2.9 2.2-1.8.95-4.4 2.4-5.6 3.2-1.2.81-2.2 1.2-2.2.94zm-140-2.2c-.02-1.1.36-2.9.83-4 1.1-2.6 1.1.08 0 3.5-.64 2-.81 2.1-.83.5zm-30-1.4c-1.4-1-2.7-1.7-3-1.4-.64.64 3 3.4 4.4 3.3.58-.01-.06-.88-1.4-1.9zm-36-1.3c.01.69.49 1.2 1.1 1.2.71 0 .71-.6-.01-1.9-.57-1.1-1.9-1.9-3-1.8-2.3.17-2.5.82-.81 2.5.93.93 1.4.92 2-.05.63-.99.79-.99.8.01zm25-.25c0-.82-.6-1.5-1.3-1.5-.73 0-1.3-.45-1.3-1s-.45-1-1-1c-1.5 0-1.2 1.6.57 3.4 2 2 3.1 2 3.1.07zm3.1-3.2c-2.3-2.3-4.8-2.6-4.8-.47 0 .91 6.3 4.1 7 3.5.24-.23-.72-1.6-2.2-3zm17-1.5c-1.5-2.8-2.2-4.8-1.5-4.3.95.59 1.1.34.65-.91-.39-1-.26-1.5.33-1.1 1.4.88 1.2-1.6-.51-4.5-.79-1.4-1.4-3-1.4-3.5.02-1.3 5.8 9.7 5.8 11 .01.55-.64.13-1.4-.94-1.7-2.2-2-1.3-.42 1.5.58 1.1 1.5 1.7 2 1.4.57-.35.87.71.73 2.5-.13 1.7-.52 3.3-.88 3.6-.35.21-1.9-1.9-3.4-4.7zm20 4.2c.02-.82.39-2.6.83-4 .64-2 .81-2.1.83-.5.02 1.1-.36 2.9-.83 4-.53 1.2-.85 1.4-.83.5zm42-.63c-1-1.1-1-1.4.21-1.4.82 0 2-.79 2.5-1.8s1-1.2 1-.6c.02.84 1.3.77 4.7-.25 7-2.1 7.7-1.5.84.74-3.3 1.1-6.5 2.6-7 3.3-.83 1.1-1.2 1-2.3-.06zm3.5.59c.43-.38 2.1-1 3.8-1.4 2.8-.63 2.9-.58 1 .73-2 1.4-6.3 2-4.8.66zm-118-.77c0-.45-1.4-1.8-3-3-3.5-2.6-3.9-1.8-.83 1.5 2.2 2.3 3.8 3 3.8 1.5zm132 .18c.35-.34 2.1-.79 3.9-.99 2.4-.26 2.9-.1 1.8.61-1.6 1.1-6.7 1.4-5.7.38zm16-.95 2.5-1.5-2.5.66c-1.4.36-3.2 1-4 1.5-1.3.75-1.3.85 0 .84.82 0 2.6-.68 4-1.5zm-94-3.4c-.97-1.6-2-2.8-2.2-2.5-.5.5 2.6 5.5 3.4 5.5.29 0-.26-1.3-1.2-3zm76 1.4c2.5-.78 5.4-1.4 6.5-1.4s-.03.69-2.5 1.5-5.4 1.4-6.5 1.4.03-.69 2.5-1.5zm-117-4.5c-1.7-1-2.9-.23-2.8 1.9.06 1.4.23 1.3.93-.31.85-2 .86-2 .93.08.1 3 1.5 4 1.9 1.4.18-1.2-.25-2.6-.95-3zm51 1.8c1.1-4.2.57-5.3-.91-1.9-1.7 4-1.7 4.1-.58 4.1.49 0 1.2-1 1.5-2.2zm-69-3.5c-1.6-2.6-3.3-4.7-3.8-4.6-.55.12-1.5-.93-2.1-2.3-.67-1.5-.73-2.3-.14-1.9 1.4.86 1.3-.11-.52-3.6-.83-1.6-1.2-2.9-.75-2.9.43.02 2.1 2.8 3.8 6.2s3.7 6.4 4.5 6.6c1.2.39 1.1 0-.26-1.9-1.9-2.6-3.1-5.1-4.2-8.9-.72-2.4-.7-2.4.88-.5 1.6 1.9 1.6 1.9 1-1-.44-2.3-.33-2.6.46-1.4.57.88.85 3 .64 4.7-.29 2.3.22 3.7 1.9 5.3 1.3 1.2 2.1 2.7 1.9 3.3-.5 1.3 3.2 5.5 4.8 5.5.63 0 .06-1.2-1.3-2.6-2.1-2.2-2.2-2.5-.43-1.8 1.1.41 2.5 1.4 3.2 2.3 1.1 1.4 1.4 1.4 2.2.06.73-1.1 1-1.2 1-.19.01.72.52 1 1.1.62.78-.48.73-.91-.17-1.5-.69-.44-1.9-2.1-2.6-3.6l-1.3-2.8.53 3.5.52 3.5-1.6-2.8c-1.7-2.9-3.1-3.8-2.1-1.2 1 2.6-.16 1.6-1.7-1.5-.82-1.6-1.1-3-.66-3 .47 0 1.1.56 1.4 1.2s.45.35.32-.75c-.14-1.1-.92-2-1.7-2-.82 0-1.5-.68-1.5-1.5s-.78-2.9-1.7-4.6c-.94-1.7-1.5-3.4-1.2-3.6s-.13-3.3-.91-6.6c-.78-3.4-1.1-6.1-.76-6.1.35 0 1.8 3.8 3.3 8.4 2.6 8.2 6.4 18 7.2 18 .22 0-.01-1.4-.51-3.2-1.3-4.4-.42-4.8 1-.48.63 1.9 1.8 3.7 2.6 4s1.4 1.2 1.4 2.1.5 1.5 1.1 1.5c.64 0 .92-1 .64-2.5-.26-1.4-.13-2.6.29-2.8 2-.73.69-12-1.3-12-.57 0-.76-.28-.42-.63.35-.34.05-1.8-.65-3.2-.71-1.4-1.1-3.4-.89-4.4s-1.1-4.3-2.9-7.5c-5.3-9.2-5.5-9.5-8.3-15-2.8-5.5-3-5.6-8.3-5.3-1.8.09-3.2-.3-3.2-.87 0-.58-.75-.76-1.7-.4-1.5.57-1.5.72.25 1.4 1.7.61 1.5.82-1.1 1.5-1.6.42-3.5 1.1-4.1 1.6-1.4 1.1-1.9 22-.64 23 .52.65 1.2 2.5 1.5 4.2l.6 3-1.4-3c-1.1-2.3-1.4-2.6-1.4-1-.04 2.7 1.5 4.9 2.8 4.1.64-.4 1.1 0 1.1.95 0 .91 1.6 3.6 3.5 5.9 4 4.8 4.4 6.1 1.5 4.6-1.6-.86-1.9-.78-1.4.46.32.84.98 1.3 1.5.97.5-.31.9-.19.91.25 0 .45 1.2 2.6 2.6 4.8 1.4 2.2 2.3 3.2 2 2.2-.33-1-.16-1.6.42-1.2.55.33.99 1.1.99 1.7 0 .99 3.8 5.8 4.6 5.8.16 0-.99-2.1-2.6-4.8zm4.3 2.2c-.9-1.4-2.1-2.5-2.7-2.5s0 1.1 1.3 2.5 2.5 2.5 2.7 2.5-.39-1.1-1.3-2.5zm30 1.8c-.02-.41-.66-1.6-1.4-2.6-.88-1.2-1.2-3.1-.84-5.2s.14-3.4-.55-3.4c-.6 0-.84-.68-.52-1.5.65-1.7 5.4-2.1 5.4-.43 0 .61-.85.79-2 .43-1.1-.35-2-.4-2-.11 0 .72 5 5.6 5.7 5.6.33 0 .32-2.1-.03-4.8-.88-6.7-1.1-7.4-2.8-11-1.5-2.8-2.7-17-3.2-37-.17-7.1-1.6-9.4-6-9.4-2.4 0-3.5.68-4.9 3.1-.96 1.7-1.8 3.6-1.8 4.4s-1.8 3.3-3.9 5.7-4.1 5.2-4.2 6 .84 4 2.3 7 3.4 7 4.4 9c1.1 2.4 2.6 3.8 4.1 4.1 3.3.64 3-.88-.31-1.7-1.5-.39-2.2-.97-1.6-1.4.6-.37 1.3-1.8 1.6-3.2.4-2.1.49-2 .6.75.08 1.8.55 3.2 1.1 3.2 1.2 0 2.4-5.6 1.6-7-.35-.56-.16-1 .42-1s1.1.79 1.2 1.8c.04.96.23 3.2.42 5 .22 2.1-.03 3-.74 2.6-.65-.4-.79-.2-.36.5.4.65 1 .97 1.4.73 1.8-1.1 3.3 5.8 3 14-.18 4.6.01 8.2.42 8 .41-.26.68.35.59 1.3-.39 4.5.23 7.3 1.7 7.3.82 0 1.5-.34 1.5-.75zm131-7.3c3.9-2.3 7.2-3.6 7.4-3 .19.58.81.78 1.4.43.66-.41.59-.9-.2-1.4-.9-.55-.64-1.3.98-3 3.4-3.4 1.6-3.6-2.6-.2-2.1 1.7-7.9 5.1-13 7.7-5 2.6-9.6 5.3-10 6-2.5 2.3 8.8-2.2 16-6.6zm-41 4.1c1.5-3 3.4-4.8 3.4-3.3 0 .47-.53 1.4-1.2 2-2.3 2.3.03 2.2 6.8-.28 3.8-1.4 8.7-2.7 11-2.9 2.5-.21 3.3-.06 2 .41-3.6 1.3-22 7-23 7-.37-.01-.01-1.4.81-3zm-89-1.4c0-1.2-.66-3.1-1.5-4.2-1.4-1.8-1.5-1.7-1.5 2.1-.02 2.2.26 4.4.61 4.7 1.1 1.1 2.4-.33 2.4-2.7zm-7.4-1.2c-.36-.93-.87-1.5-1.2-1.2-.27.28-.21 1.3.15 2.2s.87 1.5 1.2 1.2c.27-.28.21-1.3-.15-2.2zm23 .51c-1.2-1.2-2.4-3.1-2.7-4.1s-.91-1.6-1.3-1.4c-.4.24-.78-.35-.86-1.3-.07-.97.47-1.8 1.2-1.8.77 0 1.1.63.75 1.5-.37.97-.16 1.2.6.78.68-.42 1.2-.15 1.2.64 0 .75.65 2.2 1.4 3.3 1.4 1.8 1.4 1.8.94-.56-.48-2.4-.44-2.4 1.1.36 2.2 3.8.5 5.7-2.4 2.6zm78-.64c0-.43 2.8-1.8 6.2-3.1s7.4-3 8.9-3.8c3.6-2 4.3-1.8 2.1.49-.99 1.1-4 2.5-6.8 3.2s-6.2 1.8-7.8 2.6-2.8 1-2.8.6zm24-2.5c.73-1.7 9.8-5.9 10-4.7.21.62 1 .6 2.2-.05 1.1-.57 1.9-.8 1.9-.52 0 .89-5.7 3.5-6.3 2.9-.32-.33-2.2.37-4.2 1.5-4.2 2.5-4.6 2.6-3.9.87zm-164-1.6c0-.44-.71-1.7-1.6-2.8-.87-1.1-1.4-1.5-1.2-.94s.7 1.8 1 2.8c.64 1.8 1.7 2.4 1.7.94zm63-3.7c-1.2-2.5-1.8-4.5-1.4-4.5.78.01 4.5 8.1 3.9 8.6-.17.17-1.3-1.7-2.5-4.2zm5.8 2.6c-1.3-2.4-1.3-3.4-.16-2.6.88.54 2.3 4.6 1.6 4.6-.2 0-.84-.87-1.4-1.9zm3.8 1.4c-.07-.27-.2-.84-.29-1.2s-.75-1.8-1.5-3.1c-.79-1.4-.87-2.1-.2-1.7 1.7 1 4.3 6.6 3.1 6.6-.57 0-1.1-.23-1.2-.5zm44-1.5c.62-3.2 1.6-4.4 2.5-3 .78 1.3-.87 5-2.2 5-.39 0-.53-.9-.32-2zm26-1c.78 0 1.4-.68 1.4-1.5s-.45-1.5-1-1.5-1 .48-1 1.1-.4.81-.89.51c-.48-.3-1.5.21-2.2 1.1-1.2 1.5-1.1 1.6.47.99 1-.38 2.5-.69 3.2-.69zm60-.4c0-.22 1.1-2.4 2.5-4.8 3-5.2 3.3-4.4.49 1.2-1.8 3.4-3 4.9-3 3.6zm39-.46c2-1.9 15-8.1 13-6.7-.69.84-1.6 1.5-2.1 1.5-.47 0-3 1.4-5.7 3-4.6 2.8-7.7 4-5.6 2.1zm-80-2.5c.71-.78 1.5-1.4 1.8-1.3 1.4.29 4.9-1.6 5.4-2.8.69-1.8-.16-1.8-3.4.04-1.4.79-3.8 1.4-5.5 1.4l-3-.03 2.5-1c1.4-.57 5-1.7 8-2.5 3-.8 7.3-2.7 9.5-4.2 6.6-4.5 7.2-4.8 5.7-2.9-.73.9-1 2.1-.69 2.7.37.61.02.8-.87.46-1.4-.52-7.6 3.3-10 6.2-1 1.2-8.9 5.4-10 5.4-.32 0 0-.63.71-1.4zm-106-1.2c-.38-.98-.15-1.4.58-1.2 1.5.5 2.3 2.8 1 2.8-.54 0-1.2-.71-1.6-1.6zm23 .77c0-.44-.68-1.7-1.5-2.8-1.4-1.8-1.4-1.7-.34.81 1.2 2.8 1.9 3.5 1.9 1.9zm-84-4.6c-1.1-2.2-2-3.2-2.4-2.5-.44.72-1.3-.05-2.4-2.1-.92-1.8-1.9-3-2.1-2.8-.26.26.51 2.1 1.7 4.2 1.4 2.3 2.4 3.3 2.9 2.6.44-.7 1.2.05 2 2 .7 1.7 1.5 2.9 1.7 2.7.22-.23-.37-2-1.3-4zm43 1.9c.3-.78.01-1.7-.65-2-.9-.42-.89-.7.06-1.1 1.8-.82 1.6-3.4-.25-3.4-1.1 0-1.5 1.1-1.5 4 0 4 1.3 5.4 2.3 2.6zm29-2c-1.2-2.6-1.4-3.6-.43-4.2.67-.39.9-.35.51.09-.39.43-.02 2.1.82 3.8.85 1.6 1.4 3.1 1.1 3.4-.21.22-1.1-1.2-2-3zm151 2.8c.85-1.4 4.7-2.4 4.7-1.2 0 .5-.41.91-.92.91-.5 0-1.7.3-2.7.67-1.1.42-1.5.28-1.1-.38zm-198-1.9c-.37-1-.86-2.2-1.1-2.6-.23-.41.02-.75.53-.75 1 0 2.4 4.1 1.7 4.8-.24.24-.74-.42-1.1-1.5zm106-3.4c.68-1.6 1.6-3 2.2-3s.68-.41.38-.91c-.31-.5 1-3.9 2.9-7.5 4.1-7.7 4.4-9.2 1.1-5.1-2.3 2.9-2.4 2.9-3.1.74-.39-1.2-1.1-2-1.6-1.6-.51.31-.62-.21-.26-1.2.45-1.2.28-1.5-.51-1-1.6.99-1.5.04.44-3.2l1.6-2.7-2.2 2.5c-1.2 1.4-3.2 3.3-4.4 4.3l-2.2 1.8 2.5-.71c2.2-.64 2.4-.54 1.1.96-.76.92-1.1 2-.73 2.3s1.2-.16 2-1.2c1.2-1.7 1.4-1.7 2-.13.38.99.24 1.4-.33 1.1-.56-.34-.72.07-.37.97.5 1.3.88 1.4 2.1.31 1.3-1.1 1.4-.93.8 1.2-.4 1.4-1.6 3.8-2.8 5.4s-1.5 2.6-.92 2.2c1.6-1 1.4-.4-1.6 5-1.6 3-2.1 4.4-1.1 3.6.88-.71 2.2-2.6 2.8-4.2zm-136 2.1c-.36-.59-1.1-1.1-1.7-1.1-.66 0-.59.57.2 1.5 1.4 1.7 2.6 1.3 1.5-.45zm92-.56c-.52-1.4-1.7-3.7-2.6-5.2l-1.6-2.8 2 2.3c1.1 1.2 2.2 2.8 2.5 3.5.25.68.8.91 1.2.51.42-.4.17-1.5-.57-2.5-1.1-1.5-1.1-1.6.03-.54 1.8 1.6 4-.17 4-3.4 0-1.3.51-2.4 1.1-2.4.73 0 .65-.59-.25-1.7-.91-1.1-.95-1.4-.13-.95.86.52 1.1.2.65-1.1-.47-1.5-.39-1.5.46-.33 1.5 2.1 2.5.57 1.2-1.9-.92-1.7-.83-2.1.47-2.1.88 0 1.3-.46.97-1s-1-.77-1.5-.47c-.48.3-1.4-.43-2-1.6-.92-1.7-1.3-1.9-2-.78-.69 1.1-1.2 1.2-2.8.16-1.5-.91-2.2-.93-2.7-.1-.4.65-.26.87.32.51 1.3-.81 4.7 2.9 3.9 4.2-.34.54-.16 1.3.4 1.6.61.38 1-.7 1-2.7.02-2.6.25-2.9.97-1.7 1 1.8.68 4.9-.85 7.6-.84 1.5-1.2 1.2-2.8-2-.98-2.1-2.3-3.6-2.9-3.3-.67.26-1-.7-.9-2.4.11-1.6-.43-3.4-1.2-4-.77-.64-1.4-1.7-1.4-2.3 0-.62-.69-2.4-1.5-4-1.2-2.2-1.2-3.2-.34-4 .84-.78 1-.77.56.03-.66 1.2 7.1 8 8 7 .96-.95-10-12-12-11-.97.15-1.5-.42-1.4-1.5.07-.96-.3-1.5-.82-1.2-.53.33-.71 1.3-.42 2.2.4 1.2.22 1.2-.68-.22-.67-1-2-2.8-3-4-3.8-4.7 1.4 5.8 7.4 15 3.2 4.8 5.9 9.1 5.9 9.5s-.74-.4-1.6-1.7c-1.4-2.1-1.8-2.2-2.6-.72-.62 1.1-.41 2.4.64 3.8.87 1.2 1.6 1.6 1.6.87 0-1.1.31-1.1 1.4-.15.79.66 1.2 1.7 1 2.4-.23.65.5 2.3 1.6 3.7l2 2.5-1.4-5 2 2.4c1.1 1.3 1.8 3.3 1.5 4.3-.46 1.8-.58 1.8-2.4.14-1-.95-2.8-3.2-4-5.1-1.1-1.8-2.3-3.2-2.5-2.9-.26.26.27 1.6 1.2 3 .98 1.5 1.2 2.7.67 3.1-.53.33-1.2.04-1.4-.65-.24-.69-.78-.95-1.2-.57-.66.62 6 13 7 13 .22 0-.03-1.1-.55-2.5zm38-.06c2.3-1.9 2.7-2.7 1.6-3.3-.94-.6-1-1.1-.25-1.5.61-.38 1.1-.18 1.1.43s.45.84 1 .5 1-.97 1-1.4c0-1-3.2-.99-4.5.06-6.3 5.1-6.2 5-3.8 4.3 2.7-.75 2.9.28.5 2.1-.96.73-1.3 1.3-.75 1.3s2.4-1.1 4-2.5zm-84-2.4c.21-2.2.03-3.7-.39-3.4-.77.48-1.1 7.4-.38 7.4.22 0 .57-1.8.77-3.9zm13 .56c-.35-.9-1-1.6-1.6-1.6s-.43.94.19 2.1c1.3 2.4 2.3 2 1.4-.45zm2.1-3.7c-.78-3-1.9-6.6-2.5-7.9-.98-2.3-1-2.2-.51 1 .32 1.9.66 4.5.77 5.6.1 1.2.47 2 .82 1.8.34-.21.91 1 1.3 2.8.34 1.7.84 2.9 1.1 2.7.26-.27-.16-2.9-.94-5.9zm168 5.3c0-.8 3.3-2.6 10-5.8 2.2-.97 5.1-2.6 6.4-3.6 1.3-1 2.8-1.6 3.4-1.2.6.37.74.15.33-.52-1.1-1.7-1.8-1.5-9.4 2.8-7.3 4.2-12 5.4-7.2 2 1.4-1.1 3-2 3.5-2 1.6-.04 18-11 17-11-1.6-.04-10 4.3-15 7.7-2.1 1.4-4.1 2.3-4.4 2-.56-.57 8.3-5.7 17-9.9 4.4-2.1 6.1-3.9 3.7-3.9-.58 0-.78-.45-.44-1 .9-1.5-.23-1.2-3.1.64-3.6 2.4-3.9 1.1-.36-1.5 2.6-1.9 3.3-2.1 4.7-.93 1.2.96 1.4.98.88.07-.48-.81-.11-1.3 1.1-1.4 4.1-.26 4.7-.44 5.1-1.8.29-.84.03-1.1-.66-.69-.62.38-1.1.25-1.1-.3s.45-1.3 1-1.6 1-.07 1 .6c0 .76.72.56 2-.55 1.9-1.7 1.9-1.7 1.8.27-.09 1.1-.58 1.8-1.1 1.5-.52-.33-.63-.07-.23.57.4.66.02 1.4-.87 1.8-.88.34-2.1 1.6-2.7 2.8-.86 1.7-.42 1.5 2-.81 1.7-1.6 3.1-2.5 3.1-1.9 0 1.1-6.2 7.4-7.4 7.4-.42 0-.48-.45-.14-1 .95-1.5-1.1-1.2-2.4.4-.89 1.1-.86 1.5.13 1.9.85.33-.09 1.8-2.7 4.1-3.5 3.2-3.7 3.6-1.5 3 1.4-.38 2.3-.46 2-.19-1.4 1.3-25 13-25 12zm8.5-.21c.27-.43 1.4-1 2.5-1.3s1.8-.17 1.5.26c-.27.43-1.4 1-2.5 1.3s-1.8.17-1.5-.26zm-124-4c0-1.9.21-2.7.46-1.8s.25 2.5 0 3.5-.46.18-.46-1.8zm2.3 2c-.33-.55-.15-1.8.42-2.8.87-1.5 1-1.4 1 .99.03 2.9-.43 3.4-1.5 1.8zm-130-2c-.68-1.1-.9-2-.48-2s1.3.9 2 2c.68 1.1.9 2 .48 2s-1.3-.9-2-2zm7.5-6.3c-1.7-3.4-3.3-6.4-3.5-6.7-1-1 1 5.7 2.8 9.4 3.1 6.3 1.4 5.4-1.9-1.1-1.7-3.2-3-5.3-3.1-4.6-.05 1.2 3.3 7.7 5.2 10 .73.9 1.4.96 2.3.21 1-.83.63-2.4-1.8-7.3zm7.8 1.3c-2.3-4.5-2.9-3-.81 2.2 1.1 2.7 1.9 3.7 2.1 2.7.19-.93-.39-3.1-1.3-4.8zm6.7 3.5c-1.7-3.7-1.4-4.5.46-1.1.84 1.6 1.4 3 1.1 3.2s-.94-.73-1.6-2.1zm17-.7c-.54-1.8-1.2-5.1-1.6-7.3l-.56-4 1.6 4c.88 2.2 1.6 4.9 1.5 6s.41 2.3.99 2.6c.72.45.73.86.04 1.3-.57.36-1.5-.81-2-2.6zm104 .18c2.4-1.7 4.2-3.5 3.8-4.1-.75-1.2 2.8-.74 3.7.49.35.47.94.35 1.3-.26s.01-1.4-.81-1.7c-.92-.35-1.3-1.2-.87-2.2.56-1.5.44-1.5-1.1.08-2.2 2.2-2.7 2.2-1.9.11.74-1.9.28-1.8-5.9 2.1-5.4 3.4-6.1 4.8-2 4l2.8-.56-2.2 1.7c-2.1 1.5-3 3.4-1.7 3.4.31 0 2.6-1.4 5-3.1zm-55-1.2c-.76-1.8-1.5-4-1.6-4.8s-.55-2.4-.93-3.5c-.62-1.8-.57-1.8.46-.23.62.98 1.3 2.6 1.5 3.7.2 1 .88 2.9 1.5 4 .63 1.2.99 2.6.81 3.1s-.95-.5-1.7-2.3zm28 .97c-.33-1.7-.02-3.2.82-3.9 1.5-1.3 1.7-.14.44 4.1l-.71 2.5-.55-2.7zm-74 .37c-.43-.69-.51-1.5-.18-1.9.89-.9 1.9.42 1.4 1.9-.34 1-.58 1-1.2-.01zm243-1.1c1-1.1 2.2-2 2.6-2 1.5 0 .9 2.8-.73 3.4-3 1.2-3.7.61-1.9-1.4zm-20 .54c0-.27 1.8-1.4 4-2.5s4-1.8 4-1.5c0 .27-1.8 1.4-4 2.5s-4 1.8-4 1.5zm-269-4.8c-5.4-18-9.8-38-8-37 .4.25 1 2.8 1.4 5.7.82 6.2 6 27 8.1 32 .81 2.1 1.1 3.8.63 3.8s-1.4-1.9-2.1-4.2zm48 1.5c.01-2.1.22-2.4.98-1.2 1.3 2 1.3 4 0 4-.55 0-.99-1.2-.98-2.8zm238 .72c1.3-1.1 2.9-2 3.5-2s.02.9-1.4 2c-3.3 2.6-5.2 2.5-2.1-.03zm-140 .1c-.31-.51-.05-1.3.6-1.7.78-.48.9-.28.35.61-.6.97-.36 1.1.9.66 1-.39 1.5-.26 1.1.33-.77 1.2-2.2 1.3-3 .06zm80-1.1c0-.52-.9-.94-2-.94s-2 .48-2 1.1.45.78 1 .44 1-.11 1 .5.45.84 1 .5 1-1 1-1.6zm-83-2.1c2.7-1.8 4.4-3.4 3.8-3.5-1.2-.41-10 4.9-10 6 0 1.4 1.6.78 6.5-2.4zm137-.99c1.6-1.2 3.1-2.3 3.3-2.5.23-.17.09-.63-.31-1-.39-.4-1.1-.16-1.5.52-.42.69-1.8 1.4-3 1.7-1.2.24-2.9.97-3.7 1.6-.78.65-1.7.93-2 .61-.31-.32 2.1-1.9 5.3-3.6 7.2-3.7 9.8-5.5 6.8-4.7-1.1.3-2.6.19-3.3-.25-.89-.56.08-1.8 3.2-4 2.5-1.8 4.5-2.8 4.5-2.2 0 .58-.34 1.1-.75 1.1s-2.1 1.2-3.8 2.6c-3.2 2.7-3.1 2.7 3.5.81 3.4-.96 2.2 1.4-1.8 3.5-2.1 1.1-3.1 2-2.2 2 1.6.08-4.7 5.9-6.4 6-.49.02.41-.95 2-2.2zm-266-.81c-.29-1.1-.94-2-1.4-2-.51 0-.44.9.15 2s1.2 2 1.4 2c.21 0 .14-.9-.15-2zm127-.97c2.6-1.6 5.1-2.7 5.7-2.3.58.35.7.12.29-.54-.4-.65-.03-1.4.84-1.8.86-.33 1.3-.99 1-1.5s-2.1 0-3.9 1c-1.9 1.1-5.2 2.9-7.5 4-2.3 1.2-3.8 2.5-3.5 3 .93 1.5 2.1 1.2 7.1-2zm80-.59c-.33-.34-1.2.44-1.8 1.7-1.1 2.2-1.1 2.3.61.61 1-.95 1.5-2 1.2-2.3zm-15 .96c2.8-1.5 3-1.5 2.5 0-.95 2.5 1.7 1.9 4.8-.96 3.4-3.1 2.8-4.1-1.2-2-1.6.84-3.2 1.3-3.5 1-.56-.56-6.7 2.3-6.7 3.1 0 .8.97.54 4.2-1.1zm19 .53c1.1-1.7-.15-2.1-1.5-.45-.79.95-.86 1.5-.2 1.5.58 0 1.4-.48 1.7-1.1zm28-1.8c1.9-1.7 4.8-3.8 6.5-4.7 2.9-1.5 2.9-1.5-.41 1.3-1.9 1.6-4.8 3.7-6.5 4.7-3 1.8-3 1.8.41-1.3zm-154-1.1c-2.2-1.8-3.2-3.7-1.3-2.5 1.3.82.2-2.1-2.5-6.5-4-6.6-4.1-6.6-2.3-5.2.87.71 2.1 2.6 2.8 4.2.66 1.6 2 3.1 3.1 3.4 1.8.47 1.8.33.36-2.4-.84-1.6-2.2-3.2-3-3.5-.79-.3-1.2-1-.79-1.6.38-.61.17-.75-.51-.34-.67.42-1.2.11-1.2-.75 0-2.1-3.8-.91-5.1 1.6-.81 1.5-.78 1.8.14 1.2.87-.54 1-.09.53 1.6-.47 1.7-.38 2 .29 1 .75-1.1 1.1-.89 1.7.98 1.2 3.6 5.6 9.9 6.6 9.3.49-.3 1.2.18 1.5 1.1s.9 1.3 1.2.98c.35-.35-.38-1.4-1.6-2.5zm39-1.5c4.3-2.4 8.4-4.2 9.2-3.9.8.31 1.5.04 1.5-.6s-.43-.9-.95-.58-.77-.33-.56-1.4c.39-2-.88-2.8-1.9-1.2-.42.67-3.8.83-6.9.33-1.1-.18.19-2.1 1.4-2.1.55 0 .65.56.23 1.2-.43.69.46.44 2-.54 1.5-.99 3.2-1.5 3.7-1.2.54.33.69-.1.35-.98-.47-1.2-.91-1.3-2-.41-.78.64-1.7.91-2 .6s.39-1.1 1.6-1.7 1.9-1.5 1.6-2c-.31-.5.78-1.6 2.4-2.4 4.5-2.3 4.9-1.9 1 1.4-1.9 1.6-2.9 3-2.2 3s1.1.44.75.94c-.3.49.17 1.2 1 1.5.91.35 1.4 1.3 1 2.1-1.1 2.9.94 1.4 2.8-2 1.4-2.5 2.1-3.2 2.7-2.2.53.82.7.4.48-1.2-.45-3.2-1.9-3.6-4.1-1.1-1 1.1-1.3 2-.67 2 .63 0 1.2.45 1.2 1s-.7 1-1.6 1-1.3-.45-.94-1 .03-1-.69-1c-.72-.01.04-1.1 1.7-2.4 2.4-2 2.8-2.7 1.7-3.7-1-1.1-1.9-.94-4.9.66-2 1.1-4.5 3.2-5.6 4.7-1.1 1.5-2.7 3-3.5 3.3-1.3.5-1.3.34-.1-1.1 1.2-1.5 1.2-1.6-.5-1-1.7.63-1.7.51-.5-1 1.2-1.5 1.2-1.6-.55-.98-1.9.7-1.9.65-.17-1.2 1.6-1.8 1.6-2 .08-1.7-.93.14-2.1 1-2.6 2-.53.93-1.4 1.4-1.9 1.1-.52-.32-1 .01-1.1.73-.09.72-.21 1.8-.28 2.3s-.48 1.6-.91 2.2c-1.2 2 .86 1.4 2.8-.75 1.1-1.2 1.4-2 .6-2-.67 0-.94-.45-.6-1s1.1-1 1.6-1 .72.45.38 1-.11 1 .5 1 .84.45.5 1-.11 1 .5 1 .84.45.5 1-.16 1 .41 1c.56 0 .79.61.5 1.4-.36.94.19 1.3 1.8 1.1 1.3-.13 2.3-.34 2.3-.48 0-.13 1.3-.39 3-.58 2.4-.27 1.8.27-2.9 2.6-6.4 3.2-8.2 3.7-5.1 1.4 1.1-.81 1.4-1.5.82-1.5s-1.4-.88-1.7-2c-.63-2-3.5-1.8-3.5.16 0 .55.74.72 1.6.37 1.3-.49 1.4-.34.51.74-.62.75-.87 1.6-.56 1.9.32.32-.29 1-1.4 1.6-1.7.91-1.9.73-1.7-1.5.17-1.6-.16-2.4-.89-2.1-1.5.49-1.6 4-.2 5 .65.47.53.75-.31.75-.74.01-1.6-.87-1.9-2-.28-1.1-.92-1.7-1.4-1.4s-.58 1.1-.19 1.7c.4.67-.02.59-.99-.19-.93-.76-1.7-.98-1.7-.5-.01.48-1.1-.48-2.5-2.1s-2.5-2.5-2.5-1.8c-.02.66.39 1.5.92 1.8.52.33.82 1.1.66 1.8s-.1.88.13.46c.23-.41 1.6.12 3.2 1.2 2.9 2.1 7.1 2.1 9.6.07.85-.71 1.8-1 2.1-.72.31.32-.83 1.3-2.5 2.2-3 1.5-3.9 2.6-2.3 2.5.41 0 4.2-2 8.5-4.4zm131 3c1.4-.79 2-1.4 1.5-1.4s-2.1.64-3.5 1.4-2 1.4-1.5 1.4 2.1-.64 3.5-1.4zm18-.5c3.3-2.6 5.2-2.5 2.1.03-1.3 1.1-2.9 2-3.5 2s-.02-.9 1.4-2zm-284-6.5c-1.8-4.2-2-5.7-.56-3.5.86 1.3.96 1.3.91 0-.03-.82-.65-3.1-1.4-5l-1.3-3.5.17 5.5c.18 6.2 2.9 16 3.4 12 .16-1.2-.4-3.8-1.2-5.9zm118 6.5c1.3-.86 1.3-.97 0-.97-.82 0-2.2.44-3 .97-1.3.86-1.3.97 0 .97.82 0 2.2-.44 3-.97zm86-2.7c1.8-.95 3.7-1.6 4.2-1.4s.68-.04.28-.44c-.4-.39.39-2 1.8-3.7 4-4.8 2.8-5.5-1.8-1.1-4.7 4.5-8.8 7-8.8 5.4 0-.57.39-1 .86-1 1.2 0 10-8 10-9 0-.44-.7-1.1-1.6-1.4-.95-.37-1.3-.18-.9.47.86 1.4-3.1 5.6-7.6 8-3.6 1.9-8 5.4-8 6.2 0 1.1 8.2-.39 11-2zm12 .69c1.4-1.1 2.1-2 1.7-2-.47-.01-2 .88-3.4 2s-2.1 2-1.6 2c.48-.01 2-.9 3.4-2zm-20-3.2c3.4-2.2 4.5-3.4 3.8-4.2-.7-.84-.11-1.7 2-3 1.6-.97 4.2-3 5.6-4.4 1.4-1.5 2.4-2 2.1-1.1-.29.88.02 1.6.71 1.6.68 0 1.2-.6 1.2-1.3 0-.73-.43-1.3-.96-1.3-.6 0-.6-.46.01-1.2.53-.69 1.3-2.2 1.6-3.2.43-1.3-.24-.85-1.9 1.2-2.7 3.4-14 12-19 15-1.8.93-3 1.9-2.7 2.2.3.3 2.6-.6 5.1-2 2.5-1.4 4.8-2.2 5-1.8.27.43-2.4 2-6 3.5-3.6 1.5-6.5 3.2-6.5 3.8 0 1.6 5.1-.08 10-3.4zm77 2.7c1.4-.79 3-1.4 3.5-1.4s-.12.64-1.5 1.4-3 1.4-3.5 1.4.12-.64 1.5-1.4zm-217-2c-.22-3-.23-3-1-.5l-.8 2.5-.09-2.5c-.04-1.4.33-3.2.84-4 .72-1.1 1-.89 1.6 1.2.36 1.4.44 3.4.18 4.4-.3 1.2-.54.78-.68-1.2zm99 .23c.4.39.41-.08.05-1-.48-1.2-1-1.4-1.9-.72-.67.56-1.5.69-1.9.3-.4-.39-.41.08-.05 1 .48 1.2 1 1.4 1.9.72.67-.56 1.5-.69 1.9-.3zm-65-5.7c-1.7-3.3-2.8-6-2.5-6 .28 0 1.9 2.7 3.5 6s2.8 6 2.5 6c-.28 0-1.9-2.7-3.5-6zm161 4.5c1-1.2.99-1.5-.03-1.5-.71 0-.18-1 1.2-2.2 1.3-1.2 3.1-3.1 3.9-4.2 1.3-1.8 1.3-1.9-.54-1.2-1.6.6-1.5.2.77-2.1 1.5-1.6 2.4-3.2 2.1-3.6-.38-.37.35-.68 1.6-.68 1.9 0 2.1.24 1 1.5-1.5 1.8-1 1.8 2.4.54 1.9-.74 2.9-.59 4.1.62.87.87 1.7 1.4 1.8 1.2s1.1-1.7 2.1-3.4l1.8-3-2.6 2.4c-1.4 1.3-2.6 1.9-2.6 1.2 0-.68-.56-.95-1.2-.6-1.8.9 2.4-2.5 4.5-3.6 1.2-.67 1.8-.6 1.8.23 0 .71.8.47 2-.62 1.1-1 2-1.5 2-1s.75.16 1.7-.6c1.5-1.2 1.6-1.2.34 1.1-.8 1.5-1.5 2-1.8 1.2-.47-1.4-2.2-.7-2.2.88 0 .55.45.72 1 .38s1-.17 1 .38c0 1.5-2 2.4-2 .93-.02-.72-1.1.02-2.5 1.7-1.7 2-2.1 3.2-1.3 3.7.84.52.8 1.1-.17 2.3-1.4 1.7-3.6 2.2-2.6.59.94-1.5-2.6.02-6.1 2.7-1.7 1.3-3.4 2-3.7 1.7s-2 .56-3.7 2c-3.4 2.9-6 3.6-4 1.1zm-238-4.1-1.5-2.9v3.2c-.01 1.7.55 3.4 1.2 3.6 1.9.65 2-.61.28-3.8zm149 4.1c0-.27 1.6-3.3 3.5-6.8 4.3-7.7 4.6-6.9.5 1.3-2.6 5.2-4 7.1-4 5.5zm-3.2-2.5c.26-.79-.02-1-.69-.63-.62.38-1.1.13-1.1-.56 0-.93-.3-.96-1.1-.15-1.3 1.3-.24 3.6 1.4 3 .6-.2 1.3-.96 1.5-1.7zm58-1.9c.07-1.2-.16-1.9-.5-1.6-.33.34-.62.92-.63 1.3 0 .37-.4 1.3-.88 2-.62.97-.46 1.2.51.92.76-.26 1.4-1.5 1.5-2.7zm39 1.4c1.1-.81 1.5-1.5.88-1.5s-1.9.63-3 1.4-1.5 1.5-.88 1.5 1.9-.63 3-1.4zm-152-2.5c-3.7-3.5-4.2-3.6-3.3-1.2 1 2.9 2.5 4.2 4.5 4.2 1.7 0 1.5-.42-1.2-3zm101-.55c1.4-1.4 2.6-2.8 2.6-3 0-.89-3.5 1.4-5.4 3.5-2.7 3-.17 2.6 2.9-.46zm-94-.83c0-.69-1-2.2-2.2-3.3-1.2-1.1-3.4-3.4-4.8-5.1s-2.9-3.1-3.3-3.2c-.72-.04 2.4 4.5 6.3 9.2.82.99 1.6 2.2 1.6 2.8.25 1.9.4 2.1 1.4 1.5.55-.34 1-1.2 1-1.9zm131-.15c0-.81-.61-1.2-1.4-.86-.79.31-1.2 1.2-.89 2 .65 1.7 2.3.89 2.3-1.1zm-85 .46c.4.63.72-.21.72-1.9 0-2.6-.23-2.9-1.6-1.8-.87.66-1.7 1.3-1.8 1.3-.15.08.04.97.43 2 .49 1.3.84 1.4 1.1.53.32-.96.64-1 1.2-.16zm65-.34c-.65-.65-1.4-.6-2.1.16-.86.86-.62 1.1.99.99 1.4-.11 1.8-.5 1.2-1.2zm-104-1c2.4-.27 7.8-4.6 5.7-4.6-.71 0-.08-1.5 1.5-3.6 1.6-2.2 2.2-3.4 1.3-3.2-.77.16-2.2 1.5-3.1 3-1.9 3-4.1 3.7-3.1 1 .48-1.3-.01-1.2-2 .67-2.7 2.5-2.9 4.4-.18 2.1.99-.83 1.5-.89 1.5-.17 0 .6.78.82 1.8.48 1.4-.48 1.4-.31-.24.95-1.1.85-2.3 1.3-2.7 1.1-1-.65-4.8 1.5-4.8 2.7 0 .57.48.73 1.1.37.58-.35 2.1-.76 3.4-.9zm168-.06c0-.82.45-1.5 1-1.5s1 .68 1 1.5-.45 1.5-1 1.5-1-.68-1-1.5zm-90-2.5c1.7-1.1 3.8-1.7 4.8-1.4 1.2.4 3-.48 5.2-2.7 4.9-4.8 4.2-5.8-1.1-1.4-5.2 4.2-6.1 4-1.2-.43 1.8-1.6 2.7-3 1.9-3-.75-.02-1-.56-.6-1.3.56-1 .43-1-.64 0-2.2 2-3.4 1.4-1.5-.73 1.6-1.8 1.6-2 .23-2.6-.85-.33-1.8-1.3-2.1-2.1s-.17-1.2.31-.93c.48.29 1.5-.22 2.2-1.1 1.2-1.5 1.1-1.6-.47-.99-1 .38-2.3.69-2.9.69-.56 0-.77.66-.46 1.5.64 1.7-.91 3.1-1.7 1.5-.28-.57-.39-.46-.25.25.15.7-.45 1.9-1.3 2.6-1.4 1.1-1.3 1.2.59.25 3.6-1.7 4-1.2.82.93-1.6 1.1-3 2.6-3.1 3.2-.04.69-.83 3-1.8 5.1s-1.7 4-1.7 4.2c0 .85 1.7.25 4.5-1.6zm-122-1.6c0-.79.45-1.4 1-1.4s1-1.6 1-3.5-.45-3.5-1-3.5-1 1.6-1 3.4-.45 3.7-1 4.1-1 1.3-1 2.1c0 .82.45 1.2 1 .88s1-1.3 1-2.1zm86 .56c-.34-.55-.11-1 .5-1s.82-.49.45-1.1c-.45-.72-1-.75-1.7-.08-.92.92-.32 3.2.85 3.2.27 0 .22-.45-.12-1zm106 0c0-.55-.42-1-.94-1s-1.2.45-1.6 1 .08 1 .94 1 1.6-.45 1.6-1zm12-4c1.7-2.8 3.3-4.8 3.6-4.6.45.45-5.5 9.6-6.3 9.6-.22 0 .99-2.2 2.7-5zm-162 1.4 2.4-2.6-2.8 1.8c-1.5.97-2.8 2.2-2.8 2.6 0 1.4.45 1.1 3.1-1.8zm21 1.6c1.1-1.7-.15-2.1-1.5-.45-.79.95-.86 1.5-.2 1.5.58 0 1.4-.48 1.7-1.1zm143-2c1.2-1.9 2.7-3.6 3.4-3.8.67-.23.22.99-1 2.7-3.1 4.4-5 5.3-2.4 1.1zm-127-.88c-3-3-3.9-2.6-1.1.42 1.3 1.4 2.5 2.3 2.8 2.1.23-.23-.52-1.4-1.7-2.5zm43 1.6c.76-.93.97-1.7.47-1.7-.51 0-.98-.9-1.1-2-.08-1.1.43-2 1.1-2 1.7 0 4.8-3.5 3.9-4.4-.39-.4.13-.4 1.2-.01 1.7.66 1.6.93-1 3.2-1.7 1.4-2.2 2.2-1.1 1.8 1.1-.36 1.6-.2 1.2.38-.86 1.4.84 1.2 2.5-.26.79-.69.68-.35-.23.75s-3.2 2.9-5 3.9c-2.8 1.6-3.1 1.6-2 .25zm34-2.8c.05-1.7-.18-2.9-.5-2.5-.85.84-1.1 6.6-.27 6.1.38-.23.72-1.8.77-3.6zm-143-.75c-.66-1.8-1.6-3.2-2-3.2s-.68.34-.48.75c3.2 6.7 4.7 8.2 2.5 2.4zm25 1.4c2.2-1.7 2.2-2.2.03-3.1-.95-.36-1.4-.33-1 .07.4.39-.02 1.5-.93 2.6-1.9 2.1-.68 2.4 1.9.44zm51-3.3c-.38-.39-1.4.16-2.2 1.2-2.2 3-1.8 4.1.67 1.7 1.2-1.2 1.9-2.5 1.5-2.9zm-56 2.6c-.34-.55-1-1-1.6-1s-.94.45-.94 1 .7 1 1.6 1 1.3-.45.94-1zm31-1.2c3.6-1.9 3.6-1.9.72-1.4-1.6.28-2.4.27-1.8-.03 2.2-.97 1.3-2.1-1.7-2.2-1.6-.05-3.3.38-3.6.95-.41.68.2.8 1.7.36 1.8-.53 1.6-.21-.87 1.4-1.8 1.1-3.2 2.2-3.2 2.3 0 1.1 5.8.19 8.8-1.4zm5.8.68c1.1-.81 1.4-1.5.77-1.5-1.9-.05-4.3 1.1-4.3 2.1 0 1.3 1.4 1.1 3.6-.58zm15-2.4c.6.46 5.8-3.4 5.3-4-.3-.29-1.6.48-2.9 1.7-1.4 1.4-2.6 1.8-3 1.2-.35-.57.32-1.5 1.5-2.2s1.9-1.4 1.6-1.6c-.27-.28-1.8.32-3.3 1.3-2.1 1.3-2.5 1.4-1.6.29.98-1.2.85-1.6-.77-1.7-1.1-.08-1.7.25-1.4.73s-.25 1.3-1.2 1.9c-.97.55-1.4 1.3-1 1.7.4.39 1.3.23 2-.37.73-.61 1.9-.73 2.6-.27 1 .63.84 1.2-.78 2.3-1.2.81-1.8 1.8-1.4 2.2s1.5-.22 2.4-1.4c.94-1.2 1.8-2 2-1.9zm40 3c.6-.97-2.4-2.5-3.2-1.6-.29.28.03.52.7.52.68 0 .95.45.61 1s-.17 1 .38 1 1.2-.4 1.6-.9zm42-3.9c.38-2.9.26-5.3-.26-5.7-.57-.35-.41-2.8.39-6.3 1.1-4.8 1.1-5.9-.04-6.8-1-.77-1.2-2-.52-4.6.7-2.9.87-3.1.99-1 .23 3.9 3-4.6 3.1-9.5.04-2.2.47-4.9.95-6 .54-1.2.66.43.32 4.5-.66 8-2.1 14-3.4 14-.53 0-.96.48-.96 1.1s.5.75 1.1.37c.8-.49.88.82.3 4.7-1 6.6-1 9.4-.12 14 .54 2.7.47 3-.31 1.5-.87-1.7-.94-1.6-.49.69.29 1.5.01 3-.64 3.4-.84.52-.97-.65-.47-4.4zm-226 .77c0-1.1-.41-2-.91-2-.49 0-.67.9-.38 2s.7 2 .91 2 .38-.9.38-2zm25-.44c-.96-.71-1.8-1.9-1.8-2.7-.06-1.1-.19-1.1-.6-.07-.53 1.3 2.8 5.3 3.7 4.5.27-.25-.29-1-1.2-1.7zm33-6.9c.29-4.6.11-7.5-.45-7.2-.51.32-.93-.12-.93-.98 0-2.2-2-2-2 .19-.02.96-.14 4.1-.27 7-.12 2.9.08 5.2.43 5.2.36 0 .92.99 1.2 2.2.94 3.6 1.5 1.7 2-6.5zm41 4.8c1.3-.73 1.3-.61.13.85-.81 1-.94 1.7-.31 1.7.58 0 1.4-.48 1.7-1.1.37-.59 1.3-.82 2.1-.53.82.32 1.4-.09 1.4-.99 0-.84.45-1.2 1-.91s1 .22 1-.27c0-.9 1.6-1.3 5.7-1.3 2.6 0 9.8-4.6 8.5-5.4-.47-.29-2.6.63-4.7 2.1-2.1 1.4-3.4 2-3 1.3.6-.96.31-1.1-1.1-.62-1.4.51-1.3.16.59-1.4 1.4-1.1 3.4-2.5 4.5-3.1 1.3-.68 1.2-.34-.5 1-1.4 1.1-2 2-1.5 2 1.8-.02 4.5-2.6 4.5-4.4 0-1.6-.32-1.6-3.6.36-4.4 2.6-5.2 2.7-2.9.1 1-1.1 1.3-2 .65-2-.63 0-1.2.38-1.2.84 0 .71-2.1 2-6.4 4-.49.22-.55-.14-.13-.82.59-.95.29-.98-1.3-.13-2.6 1.4-4.5 1.4-3.7.1.34-.55.17-1-.38-1s-1.3.45-1.6 1-.03 1 .69 1 .19.96-1.2 2.1c-1.6 1.3-1.9 1.9-.78 1.5.94-.31 2-.15 2.3.33.95 1.5-1.3 2.2-3.5 1-1.9-1-2-.94-1 .89.71 1.3.74 2.2.07 2.6-.55.34-1 1.1-1 1.7 0 .64.73.47 1.8-.4.96-.83 2.4-1.9 3.2-2.4zm-93 1.1c.5.31.91.06.91-.55s.45-.84 1-.5 1 .09 1-.55c0-.72-.67-.89-1.8-.44-.96.4-2.3.75-2.9.78-.64.02-.89.73-.57 1.6.39 1 .72 1.1.99.32.22-.66.81-.95 1.3-.64zm88-1.8c0-.56-.66-.45-1.5.24-.82.68-1.5 1.7-1.5 2.2 0 .56.66.45 1.5-.24.82-.68 1.5-1.7 1.5-2.2zm41 .74c-.32-.82-.14-1.5.39-1.5s.97.51.97 1.1c0 .83.35.83 1.3.01.74-.61 1.7-.78 2.1-.37.4.41.59.08.4-.72-.21-.93.52-1.5 2-1.6 1.3-.08 2.8-.72 3.5-1.4.95-1 .7-1-1.2-.02-2.1 1.1-2.3 1-1.8-.37.85-2.2-.93-2-4.4.45-1.6 1.1-2.9 1.6-2.9 1.1s1.6-2 3.5-3.2c3.5-2.2 4-4.5.71-3.3-1.6.58-1.6.47-.22-1.2 1.4-1.7 1.4-1.8-.5-1-1.1.47-3.7.76-5.8.66s-3.8.27-3.8.84c0 1.4-2.7 1.3-3.2-.07-.21-.63-1.4-.18-2.8 1.1-1.6 1.4-1.9 2-.78 1.6.92-.29 1.8-.14 2 .34.17.48 2.3-.02 4.6-1.1 5.2-2.4 6.8-1.8 2 .73-1.8.96-2.8 1.9-2.1 2.2.69.24 2.9-.51 4.8-1.7 3.9-2.3 4.4-2.5 4.4-1.3 0 .44-1.6 1.4-3.5 2.1-3.7 1.4-4.4 2.6-2 3.5.83.31 1.4.92 1.4 1.4-.25 1.6.12 3.3.72 3.3.33 0 .34-.68.03-1.5zm63-1.6c-.31-.5-.97-.65-1.5-.33-.5.31-.63-.17-.29-1.1.5-1.3.8-1.4 1.5-.3.58.91.85.95.86.14.03-2.3-1.7-2.2-4.1.32-2.2 2.4-2.3 2.5-.4 2.2 1.3-.22 1.9.15 1.7 1.1-.25 1.2-.03 1.2 1.2.14.85-.71 1.3-1.7.99-2.2zm12-1.2c.02-.44-.47-.5-1.1-.12-.75.46-.88-.04-.39-1.6.48-1.5.36-2-.38-1.6-.69.42-.87.09-.5-.88.33-.85.11-1.6-.48-1.6s-.82-.68-.5-1.5c.31-.82.12-1.5-.43-1.5s-1.3.68-1.6 1.5c-.32.82-.09 1.5.5 1.5s.83.65.52 1.4c-.3.78-.05 1.6.56 1.8s1.1 1.8 1.1 3.5c0 2.8.15 3 1.3 1.4.72-.94 1.3-2.1 1.3-2.5zm-197 2.4c0-.52-.45-1.2-1-1.6s-1 .08-1 .94.45 1.6 1 1.6 1-.42 1-.94zm6-.03c1.2-.74 1-.91-.75-.77-1.2.09-2.2.52-2.2.95 0 1 1.2.97 3-.18zm82-.44c0-.76 10-7.7 11-7.3.25.25-1.8 2.1-4.5 4.1-4.6 3.4-6.2 4.2-6.2 3.2zm132-1.6c-.39-1.2-.02-2.6.93-3.6 1.4-1.4 1.6-1.4 1.6 0 0 .86-.41 1.6-.91 1.6-.49 0-.67.9-.38 2 .68 2.6-.38 2.6-1.2 0zm-74-.68c1.4-2.8 1.5-5.5.12-3.3-.53.82-.98 1-.98.44-.01-.58.58-1.9 1.3-2.9 1.2-1.6 1.3-1.5 1.2 1.8-.07 2-.72 4.2-1.5 4.9-1.1 1-1.1.89-.21-.92zm-102-3.3c0-2.5.2-3.5.44-2.2.23 1.2.23 3.3 0 4.5-.24 1.2-.44.23-.44-2.2zm95 3c-.34-.55-.11-1 .5-1s.86-.41.55-.91c-.31-.51 0-1.1.69-1.4.69-.24.94-.79.56-1.2-.39-.42-1.4-.08-2.2.74-.83.83-1.2 1.8-.89 2.1s-.24.65-1.3.69c-1.8.07-1.8.11.08.93 2.7 1.2 2.7 1.2 2 0zm-51-.89c.37-.61 1.6-1.6 2.7-2.2 1.5-.8 1.9-.8 1.4-.02-.37.61-1.6 1.6-2.7 2.2-1.5.8-1.9.8-1.4.02zm93-1.9c-.79-.8-2.5 1-1.9 2 .41.67.93.57 1.5-.29.45-.73.65-1.5.44-1.7zm43-.16c-.36-1.6-.4-3.4-.08-3.9.79-1.3 1.7-9.4 2.5-24 .47-7.7.79-9.8.89-5.8.08 3.4.51 6.2.96 6.2.87 0-.21 11-1.6 17-.48 1.9-.71 4.6-.52 5.8.2 1.3-.07 2-.64 1.7-.62-.38-.76.54-.38 2.4.79 3.9-.27 4-1.1.07zm-193-2.3c-.01-2.5-.24-2.9-.98-1.8-1.3 2-1.3 5 0 5 .55 0 .99-1.5.98-3.2zm18 1.5c.07 1.8 2.1 2.6 2.1.81 0-.52-.45-1.2-1-1.6s-1-2-1-3.8c-.01-2.4-.24-2.8-.98-1.7-.53.82-.94 3.1-.91 5 .04 2.9.21 3.1.91 1.5.73-1.7.87-1.8.93-.25zm-91-1.8c.03-1.6.25-2.2.5-1.2.26.97.24 2.3-.03 3-.28.68-.49-.12-.47-1.8zm222 .31c.4-.66.23-1.4-.39-1.6-.61-.2-.87-1-.57-1.8s.84-1.2 1.2-1c.36.22.71-.68.79-2 .09-1.4-.28-2.1-.85-1.8-.54.34-.43-.46.25-1.8 1.7-3.3 2.4-3.7 1.7-1.1-.76 3.1-.41 2.9 2.6-1.7 3.3-5 3.3-6.4-.02-2.5-3.1 3.6-2.2 1.7 2.4-4.8 1.8-2.6 3.3-5 3.3-5.2-.04-5.1-.02-5.2 1.6-2.5.85 1.4 1.3 1.7.98.7s-.15-1.6.34-1.2c.5.31.78-.58.63-2-.16-1.4.11-2.8.6-3.1.48-.3.83-1.8.77-3.2-.05-1.5.2-3.8.56-5.2.6-2.3.55-2.3-.57-.55-1.2 1.8-1.6 3.7-2.4 9.6-.19 1.4-.39 2.7-.46 3s-1-1.2-2.1-3.2c-2.1-4-2.6-4.5-2.6-2.5-.01.69-2.6 5.9-5.7 12-6.1 11-6.7 13-3.6 9.4 1.1-1.2 2-2.7 2-3.4 0-.85.32-.92 1-.21 1.2 1.2-3.7 11-5.1 9.8-.52-.32-.88-.21-.8.25.34 1.9-.16 3.4-.98 2.9-.48-.3-1.2.46-1.5 1.7-1.1 4.1-.64 4.3 2.5.74 2.8-3.1 3-3.2 1.4-.6-1.7 2.7-1.7 2.9-.04 2.2 1.3-.49 1.6-.27 1.2.85-.68 1.8.91 2 2 .32zm40-2.8c.24-1.6.61-3 .82-3 .22 0 .39 1.4.39 3s-.37 3-.83 3c-.45 0-.63-1.4-.38-3zm-137 1c.34-.55-.08-1-.94-1s-1.6.45-1.6 1 .42 1 .94 1 1.2-.45 1.6-1zm104-3.2c1.1-2 1-2.1-.47-.88-.91.76-1.7 1.8-1.7 2.2 0 1.5.89.96 2.1-1.4zm-130-2.5c-.84-.83-2.6.93-2.5 2.6.03 1.5.21 1.4 1.5-.24.8-1.1 1.3-2.1 1-2.4zm28 1.7c2.2-1.2 4-2.3 4-2.5 0-.62-7.4 2.6-8.4 3.7-1.5 1.5.09 1.1 4.4-1.2zm54 .21c1.6-1.6-1.7-2.5-4.2-1.2-1.1.61-2.1 1.5-2.1 1.9 0 1.1 5 .5 6.3-.79zm-46-.97c.13-.66.01-.75-.26-.22s-1.1.72-1.9.42c-.79-.31-1.4-.1-1.4.46 0 1.4 3.3.8 3.6-.66zm40-.24c2-1.2 3.6-2.5 3.6-2.9 0-1.4-4.1.2-5.3 2-.6.97-1.7 1.5-2.4 1.2s-1.3-.01-1.3.6c0 1.6 1.4 1.4 5.4-.99zm15 .1c1.5-3.1 1.9-3.6 1.9-2.4 0 .54-.7 1.8-1.6 2.9-1.5 1.8-1.5 1.8-.36-.56zm-83-.38c-.3-.76-.01-1.9.64-2.6.91-.97.83-1.2-.33-.79-1.6.5-2.3 4.8-.76 4.8.54 0 .74-.62.45-1.4zm34-.22c.01.5.92.1 2-.9s2-1.5 2-1.1c0 .38 1.2.06 2.8-.71 1.5-.76 4-1.2 5.5-.99 2.3.34 2.7.05 2.7-1.9-.07-2.2-.11-2.2-.93-.28-.73 1.7-.87 1.8-.93.25-.08-2-1.2-2.2-2.9-.51-.99.99-1.4.94-2.2-.25-.77-1.2-.95-1.1-.99.51-.04 1.8-.12 1.9-1.1.25-1.1-1.9-3.9-2.4-3.9-.68 0 .58-.8.81-1.8.5-1.5-.47-1.8.11-1.9 3.6-.12 2.9.11 3.8.76 2.7.5-.8.93-1 .93-.56zm29-.42c1.6-.03 6.5-3.9 5-4-1.8-.03-6.3 2.2-6.3 3.1 0 .46-.79.85-1.8.86-1.5.01-1.5.15-.25.96.96.61 1.6.6 1.8-.01.19-.53.86-.98 1.5-.99zm81-2.1c.55-5.2 1.4-7.9 2.5-7.9.47 0 .44 1.5-.07 3.2-.51 1.8-.93 4.5-.93 6 0 1.5-.43 2.8-.96 2.8s-.76-1.8-.53-4.1zm-199-1.5c-.78-2.2-1.5-3.2-1.5-2.2-.09 2.1 1.8 7.3 2.5 6.6.26-.26-.17-2.2-.96-4.4zm43 1c-.11-1.4-.32-2.4-.45-2.4-.81 0-2.3 4.2-1.8 5 1 1.7 2.5.01 2.2-2.6zm137-.58c0-1.4-1.9-1.9-2.6-.73-.45.73-.29.9.44.46.63-.4 1.2-.27 1.2.28s-.45 1.3-1 1.6-.99 1.2-.97 1.8c.04 1.2 3-2.2 3-3.4zm-235-1.4c0-2.8.2-3.8.43-2.2s.22 3.8-.02 5c-.23 1.2-.42-.01-.41-2.8zm132 1c2.2-2.6-.46-1.7-3 1.1-2.2 2.4-2.2 2.5-.34 1.6 1.2-.59 2.7-1.8 3.4-2.6zm-38 .61c.13-.66.01-.75-.27-.18s-.92.78-1.4.47c-.5-.31-.91-.05-.91.57 0 1.5 2.3.73 2.6-.86zm25 .57c.4.39.54.05.33-.76-.22-.81-.19-1.1.05-.66.53.97 4.2-2.2 4.2-3.6 0-.55-.9-.19-2 .81s-2 1.4-2 1-.9 0-2 1c-2.2 2-2.8 4.4-.66 2.6.74-.61 1.7-.79 2-.4zm24 .38c-.3-.48.37-1.1 1.5-1.4 1.7-.44 1.8-.28.86.89-1.4 1.7-1.6 1.7-2.4.53zm28-2.1c1.7 0 .95-1.6-.82-1.7-.96-.05-3.4-.33-5.5-.64-2.9-.42-3.8-.21-3.8.93 0 1 .45 1.2 1.6.58.87-.49 2.8-.67 4.2-.39 2.4.45 2.4.57.65 1.3-1.7.66-1.7.78-.22.84.96.04 1.8.63 1.9 1.3.06.69.32.46.57-.5s.87-1.8 1.4-1.8zm-69-7.8c-.01-5.4-.3-7.2-1-6.2-.87 1.3-1.1 1.3-2 0-.55-.82-1-2.5-1-3.8-.01-1.4-.45-2-1.1-1.6-.59.37-.81 1.3-.5 2.1s.07 2.4-.53 3.5c-.8 1.5-.8 1.9 0 1.4.61-.37 1.1-.23 1.1.32s-.41 1.3-.92 1.6c-.97.6-.77 7.2.26 8.2.34.34 1.3.02 2.2-.7s1.5-.89 1.4-.39c-.44 2.3.15 4.5 1.1 3.9.55-.34.99-4.1.98-8.3zm39 3.9c0-1.1-4.4-.84-5.2.32-1.4 2-.75 2.4 2.2 1.4 1.6-.58 3-1.4 3-1.7zm97 .63c1.1-2 1-2.1-.47-.88-.91.76-1.7 1.8-1.7 2.2 0 1.5.89.96 2.1-1.4zm-61-1c.4.39.42-.07.05-1-.64-1.7-.79-1.7-2.6-.07-1 .94-1.9 2.2-1.9 2.7s.82.25 1.8-.66 2.2-1.3 2.6-.93zm36-.17c.89-1.3 1.4-3 1.1-3.8-.28-.74-.1-3.1.41-5.3.72-3 .97-3.4 1.1-1.5.18 2.5.2 2.5 1.6-.5l1.4-3-.2 4.2c-.13 2.7-.56 3.9-1.2 3.3-.68-.55-.95.51-.81 3.1.13 2.3-.18 3.7-.71 3.4-.52-.31-.67.12-.34.98.43 1.1-.03 1.6-1.6 1.6-2.1 0-2.2-.1-.62-2.4zm-119-2.9c0-.55-.9-.19-2 .81s-2 2.3-2 2.8.9.19 2-.81 2-2.3 2-2.8zm11-4.2c.34-4.9.22-7.2-.32-6-.83 1.9-1.4 15-.63 14 .21-.23.64-4 .95-8.4zm41 6.6c1.3-2.5 1.3-4.1 0-4.1-.58 0-.97.56-.89 1.2.41 3.1-.27 4.1-1.2 1.8-1.1-2.6-2.5-1.2-1.4 1.5.79 2 2.4 1.8 3.6-.46zm30-3.8c2.9-2.6 6.1-5.7 7.1-7 1.7-2.2 1.7-2.2-.25-1.9-1.1.22-2-.06-2-.61s-.51-.68-1.1-.3c-.77.48-.63.98.47 1.6 1.3.75.99 1.4-2.2 4.4-5 4.5-6.5 4.5-2.1-.02 4.4-4.6 3.5-5.4-1.2-.96-2 1.9-4.1 3.4-4.6 3.4s-1.5.68-2.2 1.5c-1.5 1.8.08 2.1 3.1.46 2.6-1.4 2.5.21-.09 1.8-1.4.9-2.6.97-3.9.24-2.4-1.3-7-1.3-7-.04 0 .54 1.4.82 3 .63s3.3.04 3.6.52c1.2 2 4.6.61 9.6-3.8zm6.5 2.9c1.4-1.6 1.4-1.6.81.23-.56 1.7-.31 1.7 2.1-.5 2-1.8 2.6-2 2.1-.73-.34.96-.19 1.8.34 1.8s.98-.56.99-1.2c.01-.99.18-.98.81.02.58.91 1.7.19 3.9-2.5 3-3.8 5.3-10 3.6-10-.51 0-.97.56-1 1.2-.27 3-.97 4.6-3.5 7.8-1.5 1.9-2.5 2.7-2.2 1.8.84-2.3-1.3-3.3-3.4-1.6-2.1 1.9-8.8 3.4-7.8 1.8.39-.62 1.2-.82 1.8-.45.6.37.81.21.46-.34-.36-.6.29-.86 1.6-.64 1.7.29 2.8-.61 5-4 2.9-4.6 3.4-6.2 1.8-5.1-.55.34-1 .09-1-.56 0-.88-.38-.87-1.5.06-.82.68-1.5 1.7-1.5 2.2 0 .56.66.45 1.5-.24s1.5-.8 1.5-.24c0 1.4-2.6 3.4-3.4 2.6-.37-.38-2.4 1-4.6 3.1-3.6 3.6-3.8 3.9-2.2 5.6 2.1 2.3 2.2 2.3 3.9.23zm-173-4.4c0-5.3-1.3-5.7-2.3-.8-.29 1.4-.36-.52-.17-4.2.18-3.7.6-7.1.93-7.7s.03-1.2-.66-1.5c-.75-.3-.81-.53-.15-.58s.9-1.2.61-2.7c-.35-1.8-.16-2.4.64-1.9.62.39 1.1.26 1.1-.29s-.41-1.2-.91-1.6c-.49-.31-.67-1.5-.38-2.6.28-1.1.89-1.8 1.3-1.5.46.28.58-1 .28-2.9-.32-2-.09-3.7.54-4.1.75-.46.95.39.63 2.6-.43 3-.34 2.9.9-.78 1.8-5.3 4.6-11 5.2-10 .28.28-.18 1.6-1 2.9-3.1 4.7-5.7 19-5.7 31 .02 6.3-.18 11-.44 11s-.48-2.3-.48-5.2zm44 2.8c0-2.4.21-2.6 2.1-1.5 1.1.61 1.9 1.2 1.8 1.3-.19.12-1.1.81-2.1 1.6-1.6 1.2-1.8 1-1.8-1.3zm80-4.1c.62-2.5.52-2.7-.86-1.5-1.3 1.1-1.6.98-1.6-.89 0-1.2-.45-1.9-1-1.6-.67.42-.67 1.2 0 2.5s.67 2.1 0 2.5c-.55.34-1 1.7-1 3.1 0 2.4.05 2.4 1.9.58 1-1 2.2-3.1 2.6-4.7zm17-.02c.14-3.8-.12-4.4-1.8-4.4-1.3 0-1.9.7-1.9 2.2 0 1.2-.27 1.9-.6 1.6-1.1-1.1.74-6.7 2.2-6.7.78 0 1.4-.56 1.4-1.2.01-.96.2-.95.83.05.99 1.6 2.6-.02 3.4-3.3.41-1.7.52-1.6.7.5.15 1.8.59 1.1 1.6-2.5.75-2.8 1.2-3.6.91-2-1.4 9.2-1.7 20-.62 20 .63 0 1.2-.36 1.2-.79 0-1 5.3-.95 6.1.09.32.44 1.1.17 1.7-.59.9-1.1.62-1.7-1.3-2.7-1.4-.73-2.5-1.9-2.5-2.7s-.68-1.6-1.5-1.9c-.82-.31-1.5-1.2-1.5-1.9 0-2.2 2.2-6.4 3.2-5.8.47.29.85.05.85-.53s-.5-1.1-1.1-1.1-.87-.62-.58-1.4c.3-.76.03-1.9-.59-2.5-1.5-1.5-4.7-1.4-4.8.13-.04.69-.44.35-.89-.75-.65-1.6-.99-.84-1.6 3.3-.4 2.9-1.2 5.6-1.7 5.9-.6.37-.7-.28-.26-1.7.4-1.2.88-5 1.1-8.4.53-9.4 1.6-17 2.4-16 .4.25.5-.77.21-2.3-.5-2.6-.59-2.5-1.9 1.5-.78 2.3-1.9 4.2-2.4 4.2s-.78-.63-.48-1.4c.29-.77-.41-2.2-1.6-3.2-1.2-1-1.8-1.4-1.5-.8s-.75 1.6-2.4 2.4c-3.7 1.6-3.2 2.6.63 1.1 1.5-.58 3-.85 3.2-.59.26.25-.28 2.7-1.2 5.4-.91 2.7-1.9 6.2-2.1 7.8-.97 6-1.5 7.3-3 7.3-.81 0-1.5.44-1.5.97s.75.68 1.7.33c1.4-.52 1.5-.21.94 1.8-1.6 5.4-1.8 8.9-.42 8.9.74 0 1.8 1 2.4 2.2s1.6 2.1 2.2 2c.66-.14 1.2.2 1.2.75s-.45 1-1 1-1 .41-1 .91c0 .49.79.7 1.8.44 1.3-.34 1.8-1.6 1.9-4.9zm75 4.8c-.37-.6 1-4.3 3-8.2 2.2-4.2 4-6.6 4.4-5.9.87 1.4-.96 7-2.1 6.4-.44-.27-.73.29-.66 1.2.08.96-.41 1.6-1.1 1.5-.67-.13-1 .33-.73 1 .66 1.7-2 5.4-2.9 3.9zm9.5-4.7.98-2-1.6 2c-.89 1.1-2.1 2.9-2.6 4l-.98 2 1.6-2c.89-1.1 2.1-2.9 2.6-4zm-116 1.9c.75-1.9.25-1.8-1.9.62-1.5 1.7-1.6 1.9-.23 1.4.89-.35 1.9-1.3 2.2-2zm35-3c.08-2.7-.07-3.9-.33-2.7-.25 1.2-.85 2-1.3 1.7s-.78 1-.68 3c.27 5.3 2.2 3.6 2.3-2.1zm101 .57c.37-3.8.19-5.1-.63-4.6-.63.39-1.1.19-1.1-.43 0-.63.56-.96 1.2-.74 1.5.51 2.2 7.1.94 9.4-.61 1.1-.75-.1-.42-3.6zm-161 3.1c0-.52.45-1.2 1-1.6s1 .08 1 .94-.45 1.6-1 1.6-1-.42-1-.94zm31 .19c0-.41-.43-1.4-.95-2.2-.74-1.2-.91-1-.77.75.15 2 1.8 3.4 1.7 1.5zm-37-2.2c0-.4-.6-.73-1.3-.73-.74 0-1.3.56-1.3 1.2s.6 1 1.3.73c.73-.28 1.3-.84 1.3-1.2zm-30-.73c-.99-.98-.81-4.1.26-4.8.52-.32.9.78.85 2.4-.09 3.3-.12 3.3-1.1 2.4zm60-2.1c-.69-.7-2.6.71-2.6 1.9 0 .66.57.59 1.5-.2.84-.7 1.3-1.5 1.1-1.7zm39-.76c.01-2.2.22-3 .46-1.7.24 1.2.23 3-.02 4-.25.96-.45-.06-.44-2.3zm34 1.7c-.23-.23.03-1.3.58-2.3 1.4-2.5.73-2.4-2 .58-2.2 2.4-2.3 2.4-.22 2.3 1.2-.09 1.9-.35 1.7-.58zm34-.41c.54-4.7.62-7.8.2-7.4-.27.27-.63 1.6-.8 2.8-.17 1.3-.63 3.1-1 4.1-.43 1-.28 1.8.38 1.8.61 0 1.2-.56 1.2-1.2zm-132-3.7c-.55-.55-2.3 2-2.3 3.4-.01.52.62.07 1.4-1 .78-1.1 1.2-2.2.94-2.4zm78 1.9c2.4-2.2 2.9-3.5.98-2.3-.66.41-2.2.85-3.5.98-1.2.14-3 .76-4 1.4-1.6 1.1-1.6 1.1-.04.61.96-.3 1.8-.11 1.8.42 0 1.6 2.5 1.1 4.8-1.1zm-71-1.4c.31-.81.11-1.8-.44-2.1-.67-.41-.65-1 .05-1.9.73-.87.75-2.5.08-5.2l-.98-3.9.27 3.8c.15 2.1-.09 3.8-.53 3.8s-.8 1.6-.8 3.5c0 3.6 1.3 4.7 2.4 2zm34-.47c0-.52-.45-1.2-1-1.6s-1 .08-1 .94.45 1.6 1 1.6 1-.42 1-.94zm9.6-.27c.41-.67.91-2.8 1.1-4.7.19-1.9.8-4.2 1.4-5 .71-1.1.78-.56.26 1.9-.4 1.9-.74 4.7-.75 6.2-.01 1.6-.56 2.8-1.4 2.8-.8 0-1-.49-.6-1.2zm-13-2.5c-.23-2-.96-2.8-2.6-3.1-1.2-.18-2.2.13-2.2.67s-.3 1.8-.67 2.7c-.52 1.4-.29 1.6.96 1.1.91-.35 1.9-.2 2.2.32 1.2 2 2.6.87 2.3-1.8zm38 .2c.53-1.4 1-4.5 1.1-7 .1-2.4.5-4.2.9-4 .86.53.46 8.8-.5 10-.4.65.2 1.1 1.5 1.1 2.1 0 2.1-.3 1.5-7.1-.43-4.8-.3-6.9.41-6.4.57.36 1 3.8 1 7.6s.27 6.9.61 6.9c1.2 0 8.4-6.2 8.4-7.2 0-.62-.6-.54-1.5.21-1.5 1.2-2.2-.01-.75-1.4.41-.4 1.3-2.2 2-3.9l1.2-3.2-.48 3.5-.47 3.5 1.6-3.4c.87-1.9 1.3-4.5.95-5.8-.44-1.7-.27-2.2.58-1.7.76.47.94.31.48-.43-1.2-1.9-2.8-.1-2.2 2.5.4 1.6.2 2.3-.59 2.1-.66-.14-2.6 2.4-4.2 5.7l-3 6-.65-5.5c-.36-3-.27-5.9.2-6.4s.84-1.6.83-2.5c-.01-1.4-.13-1.4-.98-.05-.75 1.2-.97.87-.98-1.3-.01-1.6-.45-2.6-1-2.2-.55.34-1 1.7-1 3.1 0 1.4-.44 2.2-1 1.9-.55-.34-1 .11-1 1s-.42 1.4-.93 1c-.93-.57-2.4 1.1-2.6 3-.07.55-.19 1.5-.28 2.1-.08.63-.94 1.4-1.9 1.8-1.4.54-1.5.42-.5-.59.69-.69 1.3-2 1.3-2.8.01-.85 1.8-4.2 4-7.5s3.7-6.2 3.4-6.5-.95.13-1.5.94c-.55.88-.94.99-.94.29-.01-.65.65-1.8 1.5-2.7 1.1-1.1 1.2-1.6.25-1.9-.96-.32-.92-1 .18-3.1.78-1.5 1.1-3 .75-3.3-.37-.36-.68.2-.69 1.2-.01 1.6-.17 1.7-.98.42-.82-1.3-.97-1.2-.98.31-.01 1.1-.47 1.5-1.1 1.1-.63-.39-.89-2.1-.59-3.9.86-5.3-.75-6.4-3.4-2.2-1.3 2-3.1 3.8-4 4-.91.23-2 1.9-2.4 3.6-.38 1.8-1.4 3.4-2.2 3.8-.82.31-1.1.84-.53 1.2.52.34.74 2.1.47 3.9-.35 2.3-1 3.2-2.3 3.2-1 0-2.1.4-2.4.9-.67 1.1 1.8 2.1 5.1 2.1 4.7 0 6.6 4.8 4.8 12-.64 2.6-.54 2.8 1.4 1.8 1.1-.61 2.3-2.1 2.5-3.4s.31-.56.16 1.5c-.33 4.4.19 4.8 1.6 1.2zm-76-2.2c0-.17-.9.17-2 .76s-2 1.5-2 2c0 .52.9.18 2-.76s2-1.9 2-2zm102 .86c2.5-3.5 2.5-3.7.46-4.5-1.1-.43-1.4-.19-1.1.79.3.78-.14 2.2-.97 3.3-1.5 1.8-1.5 1.8-.88-.15.59-1.9.52-1.9-1-.35-1.6 1.6-1.3 3.8.55 3.8.48 0 1.8-1.3 2.9-2.9zm-126-3.5c-1.5-3.9-2.9-14-1.9-13 .46.28.84 1.9.84 3.5 0 1.9.4 2.8 1.1 2.3.59-.37 1.3.29 1.6 1.5.62 2.4.47 2.6 5.9-7.7 2.7-5.2 3.4-5.5 4.6-2.2.61 1.6 1.2 2 1.5 1.2.27-.72-.17-2.1-.97-3-.79-.93-1.7-2.5-2.1-3.5-.39-1.1-1.2-1.6-2.1-1.3-1 .41-1.8-.63-2.7-3.6l-1.3-4.2-.31 5.5c-.19 3.3.11 5.6.75 5.8.58.19.77.82.41 1.4-.35.58-.74 2.6-.85 4.5-.36 5.8-4.5 6.3-4.5.52-.02-1.6-.61-2.2-2.1-2.2-1.5 0-1.9.49-1.6 1.8.27.96.8 5.5 1.2 10 .59 7.2.88 8.2 2.1 6.9 1.1-1.1 1.2-2 .4-4.2zm79-.85c1-7.2.98-10-.12-6.8-.76 2.3-.81 2.3-.69-.7.1-2.5.4-3 1.4-2.1.98.81 1.2 2.7.67 7.2-.36 3.4-.97 6.4-1.4 6.9-.38.43-.36-1.6.05-4.5zm38 4.1c.47-.77.95-.69 1.6.25.61.95.8.6.62-1.1-.14-1.4.22-2.4.79-2.3s1-.69 1-1.8c0-2.4-1.1-2.5-2-.21-.57 1.5-.8 1.5-1.7.25-.84-1.2-.92-1.1-.43.41.71 2.2-1.2 4.9-2.7 4-.6-.37-.74-.15-.33.52.91 1.4 2.3 1.5 3.2.04zm13-4c.71-2.7.63-3.6-.34-3.6-.7 0-1.1.57-.8 1.3.27.69.06 2.1-.46 3.1-.52 1-.7 2.5-.41 3.3s.66 1 .81.5.69-2.6 1.2-4.6zm29 2.8c1.1-2 1-2.1-.47-.88-.91.76-1.7 1.8-1.7 2.2 0 1.5.89.96 2.1-1.4zm-188-1.7c-.32-.5.32-3.1 1.4-5.8l2-4.8-.39 3.7c-.21 2 .03 4 .54 4.3.5.31.91 1.3.9 2.3-.01 1.5-.14 1.5-.98.19-.65-1-.97-1.1-.98-.25-.02 1.5-1.6 1.7-2.5.32zm82 .18c-.61-.41-.99-1.5-.84-2.5s-.19-1.8-.75-1.8-.73.73-.39 1.6c.46 1.2.15 1.5-1.2 1.1-1-.27-1.8.04-1.8.68s1.4 1.2 3.1 1.4c1.7.12 2.6-.13 2-.55zm112-3.9c0-1.4-.41-2.2-.91-1.9-.51.31-1.1.22-1.3-.19-.23-.42-.21-.08.05.74s.43 2.3.39 3.3c-.04.98.35 1.5.87 1.2s.94-1.7.94-3.1zm-235 .37c.37-1.2 1.1-2.7 1.6-3.2.55-.59.53.09-.05 1.6-.55 1.4-.73 2.9-.4 3.2s.05.6-.63.6c-.82 0-1-.76-.55-2.2zm34-.81c-3-4.3-2-4.6 1.4-.39 1.5 1.9 2.3 3.4 1.8 3.4s-2-1.4-3.2-3.1zm230 2.1c0-.55-.42-1-.93-1s-1.1-.79-1.4-1.8c-.25-.96-.41-.51-.35 1 .1 2.5 2.7 4.2 2.7 1.8zm-234-1.6c-.92-2.4-.2-2.6 1.2-.31.67 1.1.81 2 .32 2-.5 0-1.2-.74-1.5-1.6zm67 .21c1.7-1.7 1.9-6.6.32-6.6-.61 0-.82.73-.47 1.6.34.9-.07 2.7-.92 4-1.7 2.6-1.1 3.1 1.1.93zm6.4-5c-.78-.78-.88-.54-.36.83.51 1.3.38 1.7-.44 1.2-1.4-.86-1.6-4.6-.24-4.6.57 0 .57-1.2 0-3.2-1.1-3.9-1.2-7.2-.03-4.3.41 1.1 1 1.5 1.4.96 1-1.6-.79-3.5-2.7-2.8-1.7.66-1.7 1.8.05 7.8.39 1.3.19 1.6-.65 1.1-1.4-.84-.74 2.2 1.3 6.3l1.1 2.3.82-2.2c.51-1.4.41-2.6-.26-3.3zm122 3.2c-.01-1.8-.2-2-.98-.75-1.2 1.9-1.2 3 0 3 .55 0 .99-1 .98-2.2zm-118-2.8c-.88-2.2-.96-2.2-1-.32-.03 1.2.24 2.4.61 2.8 1.2 1.2 1.4.01.41-2.4zm37 1.1c0-1.1-.21-2-.46-2-.26 0-.95.9-1.5 2-.85 1.6-.76 2 .46 2 .87 0 1.5-.87 1.5-2zm75 0c0-1.1-.17-2-.38-2s-.62.9-.91 2-.11 2 .38 2c.5 0 .91-.9.91-2zm-108-3.6c0-4.6-1.6-3.6-1.8 1.1-.08 2.1.27 3.3.84 3 .53-.33.97-2.2.97-4.1zm69-2.5c-.66-5.6.25-9.2 1.7-6.8.51.81.99 2.8 1.1 4.5.09 2 .3 2.4.62 1.1.27-1 1.3-2.8 2.4-3.9 1-1.1 1.9-2.5 1.8-3.1-.04-.58-.3-.5-.58.19-.78 1.9-2.3 1.5-2.3-.69 0-1.1-.45-2.2-1-2.6s-1-1.3-1-2.1c0-.82.45-1.2 1-.88.57.35 1-.49 1-1.9 0-3-.84-3.2-3.6-.99-1.1.87-1.4 1.3-.85 1 .67-.32 1.1.81 1.2 2.9.07 1.9-.31 3.5-.84 3.5s-.97-.9-.97-2-.34-2-.76-2c-1.8 0-3.1 4-2.6 8.1.74 6.4 1.4 6.1 1.4-.61 0-3.2.28-5.6.63-5.2s.57 4.8.49 9.9c-.1 6.1.17 8.8.79 7.8.52-.79.7-3.6.39-6.2zm48 4.9c.7-1.9-.34-8.8-1.3-8.8-.77 0-.16 5.9.71 6.9.2.22-.15 1-.76 1.8-.7.84-.74 1.3-.1 1.3.56 0 1.2-.56 1.5-1.2zm-2.2-2.8c0-2.2-1-2.5-2.8-.74-1.4 1.4-1.6 3.2-.2 2.3.55-.34 1-.11 1 .5s.45.84 1 .5 1-1.5 1-2.6zm9.6-8.4c-.38-3.1-1.1-5.4-1.5-5.1-.46.29-1.1-.04-1.4-.73-.27-.69-.54.43-.58 2.5-.06 2.7.34 3.8 1.4 3.8 1.6 0 1.9 1.8.78 4.7-.6 1.5-.84 1.3-1.4-1.2-.64-2.9-.67-2.9-.78.81-.07 2.3-.53 3.6-1.1 3.2-.55-.34-1 .15-1 1.1 0 1.6.15 1.6 2-.1 2-1.8 2-1.8 2.1.6.09 2.1.23 2 1.1-.78.58-1.8.72-5.6.32-8.8zm-164 4.7c.15-3.5-.07-4.3-.8-3.2-1.2 1.8-1.4 8-.22 8 .45 0 .91-2.1 1-4.8zm41 1.6c-.93-.93-1.2-.67-1.2 1.2s.27 2.1 1.2 1.2.93-1.5 0-2.4zm28 1.9c.29-.75-.25-1.3-1.3-1.3s-1.6.53-1.3 1.3c.27.71.85 1.3 1.3 1.3s1-.58 1.3-1.3zm99-3.5c.04-.74-.49-1.2-1.2-.92-1.1.38-1.3 1.6-.8 5 .21 1.4 1.9-2 2-4.1zm-147 1.1c-.69-.7-2.6.71-2.6 1.9 0 .66.57.59 1.5-.2.84-.7 1.3-1.5 1.1-1.7zm52-.38c0-1.1-.45-1.7-1-1.4s-1 1.5-1 2.6.45 1.7 1 1.4 1-1.5 1-2.6zm5.2 1.6c-.02-1.1.36-2.9.83-4 1.1-2.6 1.1.08 0 3.5-.64 2-.81 2.1-.83.5zm73-2.7c0-.88-5.9-.09-7 .93-.27.25.37 1.1 1.4 1.9 1.7 1.2 2.2 1.2 3.8-.23 1-.91 1.8-2.1 1.8-2.6zm-25 .73c-1.1-1.3-1-1.4.26-.95 1.1.43 1.9-.45 2.8-3.2.68-2.1 1.7-4.4 2.2-5.1.71-.89.53-1.2-.63-1.2-.89 0-1.7.79-1.7 1.8-.05 1.1-.28 1.2-.58.49-.28-.69-.97-.97-1.5-.62-.56.35-1.4.08-1.8-.6-.54-.88-.96-.91-1.4-.13-.38.61-.19 1.1.43 1.1.69 0 .52.85-.44 2.2-1.8 2.6-2 4.2-.43 3.2.68-.42.95-.16.68.64-.45 1.4 2.2 5.2 3 4.4.24-.24-.13-1.1-.84-2zm62-1.5c-.46-4-1.7-6.7-1.7-3.8 0 2.4 1.2 7.8 1.7 7.8.26 0 .26-1.8 0-4zm-155 2.3c-.06-.41-.06-1.6.02-2.8.11-1.7.29-1.8 1.1-.5 1.5 2.3 1.2-1.7-.53-6l-1.4-3.5.07 4.5c.04 2.5-.26 5.5-.66 6.8-.47 1.4-.32 2.2.38 2.2.62 0 1.1-.34 1-.75zm35-16c.49.45.55.23.13-.5-.58-1-1.1-1-2.2-.13-1.1.92-1.4.87-1.4-.2 0-.75-.67-.08-1.5 1.5-.82 1.6-1.5 3.5-1.5 4.3s-.79 2.6-1.8 4.1c-1.2 1.9-1.3 2.4-.33 1.8 1.1-.66 1.3-.47.75.79-2.2 5.5-1.2 4 2.6-3.6 2.4-4.8 4.7-8.4 5.2-8zm8.7 15c0-.82.39-2.4.86-3.5.54-1.3.86-1.4.86-.5 0 .82-.39 2.4-.86 3.5-.54 1.3-.86 1.4-.86.5zm83-4.5c-.1-2.5-.61-4.5-1.1-4.5-.54 0-.69 1.4-.33 3.1.34 1.7.62 3.8.62 4.5 0 .76.23 1.4.51 1.4s.43-2 .34-4.5zm22-2.6c-.47-.47-.62 1-.35 3.4.49 4.1.51 4.1.85.84.19-1.8-.04-3.8-.5-4.2zm-142 5.2c.97 2.4.79-1.4-.24-4.9-.58-2-.58-3 0-2.7.52.32.94-.15.94-1s-.4-1.4-.89-1.1c-.48.3-1.2-.46-1.5-1.7-.86-3.2-.58-5.8.29-2.7.71 2.4.74 2.4 1.2-.69.46-3 .36-3.1-1.6-2-1.1.64-2.5 1-3 .89-.5-.15-.45.32.12 1 1.3 1.6 3.7 12 3 12-.28.27-1-1.8-1.7-4.6-.66-2.8-1.6-5-2.2-5s-.76.34-.52.75 1.2 3.4 2.1 6.7c1.1 3.8 2 5.5 2.5 4.6.64-1 .9-1 1.3.07zm78-1.2c-.35-1.3-.88-1.7-1.5-1.1-1 1-.22 3.2 1.2 3.2.46 0 .6-.93.3-2.1zm15-3.4c0-.55-.64.12-1.4 1.5s-1.4 3-1.4 3.5.64-.12 1.4-1.5 1.4-3 1.4-3.5zm-75 3c0-.82-.69-1.5-1.5-1.5-1.3 0-1.3.25-.25 1.5 1.6 1.9 1.8 1.9 1.8.04zm15 .61c1-.41 2-1.5 2.2-2.4.2-1.4-.24-1.3-2.7.51-3.9 2.9-3.7 3.5.51 1.9zm-29-13c-2-9.4-2-9.5-1.6-3 .27 4.3.13 5.7-.43 4-.97-2.9-1.3-.61-.41 2.7.33 1.2 1 2 1.5 1.7.49-.3.89.57.89 1.9s.33 3.3.74 4.3c1.6 4 1.3-2.2-.7-12zm-45 7.4c-.87-1.6-.99-1.4-.86.85.09 1.5.54 2.3 1 1.8.48-.48.4-1.7-.15-2.7zm123 2.4c-.24-.69.4-2.9 1.4-5s1.8-4.3 1.8-5c-.02-.71-1.1.82-2.5 3.4-1.3 2.6-2.2 5.4-1.8 6.2.7 1.8 1.8 2.1 1.1.31zm16-.21c-.18-.15-1.4-.84-2.8-1.5l-2.5-1.3 2 2c1.1 1.1 2.4 1.8 2.8 1.5s.67-.59.5-.73zm56-9.7c-1.5-5.6-2.6-10-2.3-11 .25-.26 1.2 2.2 2.1 5.4s2.3 8 3 11c.74 2.6 1 4.8.64 4.8-.4 0-2-4.6-3.5-10zm-162 3.8c-.33-2-.93-3.7-1.3-3.7-.7 0-.36 3.9.59 6.9.84 2.6 1.3.5.74-3.2zm109 2.9c1.1-.86 2.4-1.6 2.9-1.6 1.3 0 .7.46-2.4 1.9-2.4 1.1-2.4 1.1-.56-.36zm-94-5.8c-1.3-12-2.6-18-2.6-12-.01 3.4 2.3 18 2.8 18 .25 0 .15-2.8-.23-6.2zm-107 3.8c0-.82.45-1.5 1-1.5s1-1.3 1-2.9c0-4.3 12-29 14-28 .26.26-1.4 3.6-3.6 7.3-2.2 3.8-5.4 11-7.2 17-2.8 8.8-5 12-5 8.2zm31-1.2c-.87-1.5-1.1-1.6-1.1-.25-.03 1.7 1 3.2 1.7 2.5.23-.24-.05-1.2-.64-2.2zm78-2.1c-.36-2.6-.85-5.5-1.1-6.4-.56-2 2.6-3.4 3.8-1.6.46.7.77 2.4.68 3.8-.3 4.9.32 6.7 1.1 3.2.85-3.6-.45-11-2.2-13-.75-.68-.89-.63-.44.17.36.64-.12 2-1.1 2.9-1.6 1.6-1.8 1.6-2.3-.66-.59-2.5-2.1-1.4-1.6 1.1.15.79.61 3.7 1 6.4.9 6 1.6 8.5 2.2 8.5.27 0 .2-2.1-.15-4.8zm107 3.3c-.59-1.6-3.4-3-3.4-1.8 0 .42.54 1.3 1.2 2 1.6 1.6 2.9 1.5 2.2-.22zm3.6-1.6c0-3.2-2.5-6.8-3.8-5.4-.38.41-.14.95.55 1.2s1.2 2 1.2 3.9.45 3.4 1 3.4 1-1.4 1-3.1zm24-2.6c-.88-1.5-1-1.3-1.1 1.3-.02 1.7.31 3.4.72 3.8 1.2 1.2 1.5-3.2.35-5.2zm4.8 3c-.16-1.5.1-3.4.58-4.2.59-.95.5-1.2-.29-.69-.7.44-1.2.04-1.2-1 0-.95-.28-1.4-.62-1.1s-.31 2.7.06 5.2c.73 4.9 1.9 6.4 1.4 1.8zm-189-.65c-.66-.8-1.1-2-1-2.8.37-2.8-.09-5.8-.9-5.8-.46 0-.55 1.9-.19 4.3.68 4.5 1.9 7.2 2.8 6.3.3-.3 0-1.2-.66-2zm8-.41c-.5-.93-.95-2.1-1-2.7-.48-4.4-2.6-6-2.6-2.1 0 1.3.34 2.2.76 1.9s1 .9 1.4 2.6c.34 1.7 1 2.8 1.5 2.5.51-.31.5-1.3-.02-2.2zm87 1.1c-.01-1.9 2.2-6.3 3.2-6.3.49 0 .62.45.28 1s-1.3 2.2-2 3.8c-.79 1.5-1.4 2.2-1.4 1.6zm26-3.3c1.1 0 3.9-5.5 3.8-7.7-.01-1.5-.16-1.6-.98-.3-.77 1.2-.97 1-.98-.92-.02-3-1.3-1.9-1.8 1.6-.2 1.4-.99 3.8-1.8 5.2l-1.4 2.6-.04-2.8c-.02-1.5.45-3.7 1-4.8.6-1.1.84-2.3.54-2.6-1.4-1.4-2.8 4.9-2.1 9.4.67 4.3.85 4.6 1.8 2.6.57-1.2 1.4-2.2 1.9-2.2zm-89-5.7c-.33-1.3-1-2.1-1.6-1.8-.63.39-.62 1.3.03 2.5.55 1 1.1 3.4 1.2 5.2l.16 3.3.41-3.4c.23-1.9.15-4.5-.19-5.8zm75 4.4c-.03-2.8-.19-3-1.1-1.4-.58 1-.81 2.5-.51 3.2.93 2.4 1.6 1.6 1.6-1.8zm48 1.3c-1.8-2-3.5-1.9-3.5.15 0 .57.68.78 1.5.47.82-.32 1.5-.14 1.5.39s.52.97 1.2.97c.66 0 .39-.85-.63-2zm-177-1.7c1.2-1.5 1.2-1.6-.5-.98-1.6.58-1.8.33-1.3-1.5.4-1.5.25-1.8-.48-1.1-.57.57-.74 2-.37 3.1.8 2.5.92 2.6 2.7.41zm101-4.6c-.09-2.8-.29-3.3-.59-1.7-.25 1.4-1.1 3.2-1.9 4.2-1.2 1.3-1.2 1.7-.16 2.1 2.2.8 2.8-.22 2.7-4.6zm42 3.8c.51-1.1 1.2-2.7 1.5-3.5.48-1.3.56-1.3.63.06.04.86-.62 2.4-1.5 3.5-1.5 1.9-1.5 1.9-.63-.06zm7.2.61c0-.49-.6-1.1-1.3-1.4-.74-.28-1.3.12-1.3.9 0 .77.6 1.4 1.3 1.4.73 0 1.3-.4 1.3-.89zm-64-1.7c.34-.89 1.2-1.4 1.9-1.1 1 .38 1.4-1.1 1.5-6.1.1-3.6.64-7.1 1.2-7.6.69-.69.85.03.5 2.2-.29 1.8-.74 4.6-1 6.3-.3 1.9-.11 2.8.5 2.4.54-.33.98-2.1.98-3.9 0-4.1.92-5.1 2.6-2.8 1.6 2.2 2.4 1.4 3.1-3.1.47-2.9.27-3.6-.97-3.6-.86 0-1.8-.9-2.2-2s-1-2-1.4-2c-1.1 0-3.5 3-3.6 4.4-.21 5-2 13-3.7 15-1.1 1.8-1.5 3.2-1 3.2.54 0 1.2-.72 1.6-1.6zm-98-5.4c-.48-2.5-.93-3.5-.99-2.4-.14 2.7 1.1 9.2 1.6 7.9.17-.54-.08-3-.57-5.5zm107 1.2c.01-1.2.58-2.3 1.3-2.3.83-.01.75-.33-.25-.98-2.6-1.7-3-1.1-3 3.8.01 3.4.28 4.3.98 3.2.53-.82.98-2.5.98-3.8zm-38-1.5c-.24-1.2-.45-.46-.46 1.7s.19 3.2.44 2.3c.25-.95.26-2.8.02-4zm-70 2.2c-.29-1.1-.92-2-1.4-2-1 0-1.2 2.4-.21 3.3 1.3 1.3 2.1.64 1.6-1.3zm176-1.8c-.22-.22-1.3.24-2.5 1-1.1.79-1.8 1.7-1.5 2s1.4-.15 2.5-1c1-.89 1.7-1.8 1.5-2zm-82 1.2c0-.24-.82-1.3-1.8-2.4-1.8-1.9-1.8-1.9-1.4.97.29 2 .87 2.8 1.8 2.4.77-.29 1.4-.73 1.4-.97zm106-1.7c-1.4-3.7-2.2-3.3-.88.41.58 1.7 1.2 2.9 1.5 2.6.23-.23-.04-1.6-.59-3zm-102-1.3c-.29-1.4-.54-1.1-.97.97-.37 1.8-.23 2.5.4 1.8.53-.53.79-1.8.57-2.8zm-25-1.9c.26-1.4.09-2.8-.38-3.1-.48-.3-.9.05-.94.77-.05.72-.27 2.4-.51 3.6-.23 1.3-.03 2.1.46 1.8.48-.3 1.1-1.7 1.4-3.1zm60 1.2c.42-.67.78-.85.78-.4.02.89 3-1.8 3-2.7 0-.29-.79-.26-1.8.07-1.6.58-1.6.5.04-1.3 1.5-1.6 1.9-1.6 2.6-.5.68 1.1 1.1.96 2-.69 1.4-2.7 1.5-6.5.01-5.6-.78.48-.81.13-.12-1.2.54-1 .82-3.4.62-5.4-.3-3-.24-3.2.52-1 .52 1.5.97 1.9 1.1 1 .42-2.8-.24-12-.92-12-1.2-.87-.47-4.6 1.5-7.9 1.2-2 1.5-3.5.89-3.9-.54-.39-1.1-1.5-1.3-2.5-.24-1.4.42-1.8 3.1-1.8 4.1 0 6.5-2.3 4.7-4.5-.67-.8-.96-1.9-.65-2.4s-.26-1.7-1.3-2.6c-1.7-1.6-2-1.5-4.5 1.8-1.7 2.3-2.4 4.1-1.9 5.3.66 1.7.6 1.7-1.1.07-2.1-2-3.6-2.3-3.6-.5-.01.94-.22.91-.86-.08-.64-1-.97-.86-1.4.68-.29 1.1.12 3 .92 4.1 1.5 2.2 1.4 2.4-1.1 1.5-.87-.34-1.3-1-1-1.5.31-.5-.4-2.1-1.6-3.6-1.2-1.6-1.7-2.9-1.1-3.1.74-.24.75-.94.04-2.3-.74-1.4-.7-1.9.13-1.9.81 0 .77-.47-.15-1.6-1.1-1.3-1.1-1.7.08-2.4.76-.47 1.7-.68 2-.46.35.22 2.3-1.2 4.4-3.1 2.1-1.9 4.3-3.5 5-3.5 1.3 0 3.6-2 3.6-3.1 0-.41-.9-.57-2-.36s-2-.04-2-.56c0-3.6-2.1-5.1-4.5-3.1-1.1.9-.76.27.75-1.4 3.4-3.8 3.4-4.2.2-3.9-2 .21-2.3-.01-1.5-1 .8-.96.68-1.4-.44-1.9-.93-.36-1.5-.03-1.5.82 0 .78-.52 1.7-1.2 2.1-.78.48-.98.06-.63-1.3.79-3-2.8-5-5.2-2.8-1.7 1.5-1.9 1.5-2.8-.18-.97-1.7-1.1-1.7-1.7-.07-.37.96-1.1 1.8-1.6 1.8-.52 0-.7-.4-.39-.9.3-.49-.23-1.2-1.2-1.6-.95-.37-1.9-.19-2.1.4-.19.58-.77.81-1.3.49-.51-.31-1.2.14-1.5 1-.86 2.2-2.4 1.9-2.4-.44 0-1.1.52-2 1.2-2 .64 0 .88-.28.54-.62-.34-.35-1.4-.28-2.4.14-.98.42-3.5.84-5.6.93s-4.1.59-4.5 1.1-1.9 1.6-3.4 2.3c-2.4 1.2-2.7 1.9-2.4 5.5.15 2.2-.29 5.7-.99 7.6s-1.3 3.1-1.3 2.6c-.03-.49-1.2.39-2.5 2-1.4 1.6-2.3 3.1-2 3.3.25.25.02.97-.5 1.6-.58.7-.63 4.1-.13 8.6.46 4.1.61 7.8.34 8.3-.26.47.47.34 1.6-.29 1.2-.62 2.2-1.4 2.2-1.8.64-4.4.56-8.2-.18-8.2-.51 0-.92-.48-.92-1.1s.45-.78 1-.44 1-.11 1-1-.47-1.3-1-.98c-1.1.68-.52-2.7 1.3-7.5.84-2.3 1-2.4 1.9-.69 1.5 2.6 3.8.3 3.8-3.8 0-4.3 1.8-9.2 3.6-9.9 1.9-.72 1.8.81-.05 2.4-.81.68-1.5 2.2-1.5 3.4-.14 6.3-.59 8.3-2.2 9.8-1.1 1-1.6 2.3-1.1 3.4.46 1.2.31 1.6-.49 1.1-.64-.4-1.2-.36-1.3.08-.46 2.9-.46 7 .02 7.8.88 1.6 1.2 3.7 1.2 8.2 0 3.1.41 4.2 1.5 4.2.8 0 1.5-.48 1.5-1.1s.45-.78 1-.44c.67.41.67 1.2.01 2.5-1.2 2.2-.29 5.3 1.2 4.4.62-.38.5-.93-.31-1.4-1.1-.66-1-1.2.24-2.6 2.6-3.1 3.1-4.4 1.4-3.7-.86.33-1.6.07-1.6-.58 0-2.1 2-5 3.5-5 1.8 0 1.9 1.2.21 3-1 1.1-1 1.2 0 .64.69-.39 1.2-.27 1.2.27s.28 1.7.61 2.6c.45 1.2.18 1.4-1 .97-.88-.34-1.6-.14-1.6.44 0 .57.9.87 2 .66 1.2-.23 2.4.34 3 1.4 1.2 2.2 2.2 10 2.4 19 .12 4.6.64 6.6 2.3 8.3 1.4 1.4 2.4 1.9 2.8 1.2.37-.6.16-1.1-.46-1.1-.67 0-.87-.81-.49-2 .36-1.2.18-2-.43-2-.59 0-1.1-.45-1.1-1s.64-1 1.4-1 1.7-.8 2-1.8 2-2.3 3.7-3c2.7-1 3-1.4 1.9-2.7-.69-.83-1.7-1.3-2.1-.97-.49.3-.89.1-.89-.45 0-2 1.8-2 3.5-.17 2.3 2.5 1.2 5.6-2.5 7.6-3.6 1.9-3.9 3.9-.37 3.2 1.9-.36 2.4-.12 2 .89-.7 1.8.85 1.8 2.4-.13s3.1-1.9 5.6-.07c2.8 2.1.73 3.6-5.4 3.9-5.4.25-6.8.86-5.7 2.5.41.67 1.8.46 4.1-.61 1.9-.91 3.8-1.3 4.2-.91.88.88-1.8 2.7-2.9 2-.44-.28-.8-.07-.8.46s-1.4.87-3 .75c-2.2-.15-2.9.16-2.5 1.2.29.77.53 1.9.53 2.4 0 1.5 11 .08 12-1.5zm-118-3.4c0-2.2-.76-1.4-1.9 1.9-.99 3-.96 3.1.4 1.3.82-1.1 1.5-2.5 1.5-3.2zm-9.4 1.3c-.33-1.3-.84-3.2-1.1-4.2-.29-1 .1-.54.85 1l1.4 2.9 2.6-5.6c1.4-3.1 3.1-6.8 3.6-8.2.89-2.3.8-2.5-.87-1.6-1 .54-2.1.71-2.5.38-.33-.34-1.5 1.4-2.6 3.8-1.8 4-2 3.3-.48-2 .59-2.1-1-3.7-2-2.1-.35.56-.17 1 .39 1 .6 0 .39 1.7-.52 4.2-2.4 6.6-2.6 8.7-.9 9.4.83.32 1.5 1.2 1.5 2 0 .76.27 1.4.61 1.4.33 0 .33-1.1 0-2.4zm5.9-2.3c-.44-1.8-.28-2.3.57-1.7.67.41.94.32.61-.21-.32-.53-.13-1.6.44-2.4.84-1.2.92-1.1.47.3-.84 2.6.09 2.1 1.9-1 1.3-2.3 1.5-2.4 1.1-.56-.25 1.2.09 2.4.76 2.6 2 .76 1.3-3.6-.93-5.9l-2-2.1-2.8 5.4c-2.7 5.4-3.7 9.2-1.6 6.2.86-1.2.98-1.1.58.75-.29 1.3-.09 2 .49 1.6.55-.33.71-1.7.37-3.1zm196-.02c-.96-1.6-1-1.6-1.1.29-.03 2.3 1.2 4.1 1.8 2.5.19-.56-.13-1.8-.7-2.8zm14 .46c-.36-1.8-1.2-3.8-2-4.6-1.6-1.6-1.7-1.1-.41 2 .5 1.3 1.2 3.1 1.5 4 .94 3 1.6 1.9.91-1.5zm-244 2c0-1.4 7.8-16 9.9-19 3.2-3.9 2.4-1.6-1.5 4.5-2 3-3.8 6.3-4.2 7.3-.91 2.4-4.3 7.9-4.3 7zm119-5.1c-.05-.73-.26-.69-.58.12-.28.69-.95.98-1.5.65-.54-.34-.84 0-.67.74s-.14 1.6-.69 1.8c-.57.29-1.1-1.5-1.3-4.2-.39-6.1-1.8-6.2-1.7-.21.08 5.6 2.2 7.5 4.8 4.3.96-1.2 1.7-2.6 1.7-3.2zm60 4.1c-.12-1.2-1.5-.97-1.9.32-.22.66.14 1 .8.8s1.2-.73 1.1-1.1zm36-5.2v-2l-.86 2c-.47 1.1-.86 2.9-.86 4v2l.86-2c.47-1.1.86-2.9.86-4zm-91 .77c-.25-.97-.47-.42-.5 1.2-.02 1.6.19 2.4.47 1.8.27-.68.29-2 .03-3zm7.3 1.8c0-1.1.38-2.2.86-2.5.47-.29.64.58.38 1.9-.57 3-1.2 3.2-1.2.53zm-102-.56c.1-1.9 1.8-5.1 1.8-3.5.03.82-.38 2.2-.91 3s-.94 1-.91.5zm69-4.6c.43-2.7.91-3.6 1.5-2.7.46.73.84.88.84.33 0-1.6-1.7-3.8-2.2-2.9-.26.47-.79 2.2-1.2 3.9s-.94 3.8-1.2 4.9c-.37 1.2-.18 1.6.54 1.2.61-.38 1.4-2.5 1.8-4.7zm31 1.4c-.33-2-.18-2.9.37-2.4.51.51.75 2 .55 3.3-.32 2-.46 1.9-.92-.91zm108-.58c-1.4-3.7-2.2-3.3-.88.41.58 1.7 1.2 2.9 1.5 2.6.23-.23-.04-1.6-.59-3zm-54 .82c-1.1-1.2-1-1.5.25-1.5.85 0 1.5.68 1.5 1.5 0 1.8-.15 1.8-1.8-.04zm16-.95c-.08-1.4-.68-2.7-1.3-3-.69-.26-1 .16-.75.99.25.8.66 2.1.92 3 .72 2.3 1.3 1.8 1.2-.99zm27-.8c-.81-.81-1.1-.7-1.1.42 0 2 1.3 3.3 1.8 1.8.21-.64-.12-1.7-.73-2.3zm-118-.96c.39-1.6.24-2.8-.36-2.8-.56 0-1 1.4-1 3.2 0 3.6.44 3.5 1.4-.42zm95 1.8c0-.82-.45-1.5-1-1.5s-1 .68-1 1.5.45 1.5 1 1.5 1-.68 1-1.5zm-70-3.4c-.57-1.1-1-2.5-.97-3.2.04-.73.48-.42.97.68.69 1.6.85 1.1.68-1.9-.15-2.7-.83-4.2-2.2-5-1.1-.6-2.3-1.5-2.7-2-1-1.4.15-2.8 1.8-2.2.9.34 1.4-.15 1.4-1.4 0-2.7-1.6-3.3-3.5-1.4-2 2-1.3 9.2 1 11 .81.61 1.5 2 1.5 3s.54 2.5 1.2 3.1c1.7 1.7 2 1.5.84-.73zm81-1.8c-.25-.97-.47-.42-.5 1.2-.02 1.6.19 2.4.47 1.8.27-.68.29-2 .03-3zm5-3c-.23-1.5-.43-.51-.43 2.2-.01 2.8.18 4 .41 2.8.24-1.2.25-3.5.02-5zm-27 2.5c-.01-1.5.43-2.8.98-2.8 1.3 0 1.3 2 0 4-.76 1.2-.97.89-.98-1.2zm20 .78c-.31-.81-.13-1.7.39-2.1.53-.32.95-1.1.94-1.8 0-.71-.4-.59-.98.31-.75 1.2-.97.86-.98-1.3-.02-2 .57-3 2-3.4 2.1-.56 2.1-.72-.56-8.3l-1.2-3.5.17 4c.1 2.2.52 4.6.95 5.2.55.89-.1 1.2-2.3 1.2-2.4 0-3.2.52-3.7 2.4-1 4.2.78 5.4 2.2 1.5l1.3-3.4-.3 4.7c-.27 4.1.18 5.2 2.2 5.7.19.04.1-.58-.21-1.4zm11-1.6c.16-1.1-.15-2-.7-2-.54 0-.99 1.2-.99 2.7 0 2.9 1.2 2.4 1.7-.7zm-119-2c.84-3.2-1-2.2-2.2 1.1-.91 2.6-.86 2.9.3 2 .75-.63 1.6-2 1.9-3.1zm24 3.3c-.03-1.8-1.7-3.4-2.4-2.4-.38.61-.18 1.1.43 1.1s.84.45.5 1-.14 1 .44 1 1-.34 1-.75zm98-2.8c-.26-1.4-.65-2.5-.86-2.5s-.38 1.1-.38 2.5.39 2.5.86 2.5c.48 0 .65-1.1.38-2.5zm-124-2.8c.01-.99-.43-1.5-.98-1.2s-.99 1.8-.98 3.3c.01 2.1.22 2.4.98 1.2.53-.82.98-2.3.98-3.3zm100 2.1c-.01-1.8-.21-1.9-.93-.8-.5.8-.7 1.8-.43 2.2.87 1.4 1.4.86 1.4-1.4zm-62-2.9c-.28-1.9.02-2.8.91-2.8.73 0 1.3.7 1.3 1.6s.4 1.3.9 1c.49-.3 1.1.08 1.4.84.34.89-.31 1.6-1.8 1.8-1.9.37-2.4-.03-2.8-2.4zm65 0c-.88-1.3-1.6-4-1.6-6.1s-.44-3.8-.99-3.8c-1.6 0-.24 9.1 1.6 11 2.3 2.5 3 1.5.96-1.3zm13-3.3-.08-4-.77 3.2c-.43 1.8-1.3 3.9-1.9 4.7-.9 1.1-.88 1.5.12 1.8 1.9.66 2.8-1.2 2.7-5.8zm-103 3.9c0-.86-.45-1.3-1-.94s-1 1-1 1.6.45.94 1 .94 1-.7 1-1.6zm52-5.6c-.67-7.1-1.5-7.4-1.5-.5 0 3.1.44 5.7.99 5.7.58 0 .79-2.1.49-5.2zm53 2.5c-.87-1.5-1.1-1.6-1.1-.25-.03 1.7 1 3.2 1.7 2.5.23-.24-.05-1.2-.64-2.2zm16 .88c.4-.72.02-2.4-.84-3.7-.96-1.5-1.2-2.6-.6-3 .58-.36-.04-2.6-1.5-5.6-1.4-2.7-2.3-5-2-5 .88 0 8.7 16 8.1 17-.31.31-.56.12-.56-.41 0-.54-.7-1.8-1.6-2.9-1.5-1.8-1.5-1.8-.4.42.88 1.8.86 2.6-.09 3.5-.95.87-1.1.83-.51-.15zm-213-1.5c0-2.2 15-25 18-27 1.2-.97 1.4-.79 1.2 1-.11 1.2-.74 2.1-1.4 2-.69-.16-.89.22-.47.9.49.79.3.91-.58.37-.89-.55-1.1-.42-.56.41.46.74-1.1 3.4-4.1 6.9-2.7 3.1-6.1 7.8-7.6 10-2.3 4.1-4.7 6.8-4.7 5.5zm124-1.8c-1.6-1-2.6-1.9-2.1-1.9.48-.01.31-.69-.37-1.5-1.5-1.8-1-1.8 2.4-.52 2.8 1.1 3 .78 1.6-1.8-.75-1.4-.48-1.7 1.5-1.6 1.4.06 3 .63 3.6 1.3.64.64 1.9 1.2 2.7 1.2 2.2.03-2.9 3.9-5.2 4-1.1.01-1.5.55-1.1 1.5.71 1.8.59 1.8-3.1-.57zm63-1.7c-.69-.7-2.6.71-2.6 1.9 0 .66.57.59 1.5-.2.84-.7 1.3-1.5 1.1-1.7zm-87 .69c.36.58 1.2 1 1.8 1 1.7-.04-2.4-2.3-4.5-2.5-1-.08-1.4.4-1.1 1.2.37.98.86 1.1 1.8.28.9-.75 1.5-.76 1.9-.03zm84-2.1c0-.55-.52-.68-1.1-.29-.8.49-.99-.11-.64-1.9.47-2.5-.16-3.4-1.5-2.1-.91.9 1.3 6.5 2.4 5.8.49-.31.9-1 .9-1.6zm-37-6.6c-.42-4-1.2-6.3-2.1-6.7-1-.4-1.3-.09-.86 1 .33.88.61 3.2.61 5.1 0 2.1.41 3.2 1 2.9.55-.34 1 .11 1 1s-.45 1.3-1 1c-1.2-.72-1.2-.29-.37 2 1.3 3.4 2.4-.32 1.7-6.2zm-33 4.2c.03-1.6.25-2.2.5-1.2.26.97.24 2.3-.03 3-.28.68-.49-.12-.47-1.8zm5.3-2.6c.47-1.7.38-2-.27-1-.71 1-1.4 1.1-2.8.28-1-.6-1.5-1.1-1-1.1s.31-.72-.39-1.6c-.7-.84-.99-1.8-.66-2.1.34-.33.16-1.4-.39-2.5-1-1.9.39-2.8 1.5-.93.32.52 2.8.79 5.6.61 3.8-.26 5-.01 5 1.1 0 .79-.65 1.3-1.4 1.1-.79-.16-1.4.16-1.2.71.1.55.63.82 1.2.61.55-.22 2-.34 3.2-.26 1.2.07 2.2-.32 2.2-.86 0-.55.5-.99 1.1-.99s.84.68.53 1.5c-.51 1.3-.21 1.6 1.9 1.5 1-.04 3.2 2.4 3.2 3.6 0 .66-.6.97-1.3.69s-1-.98-.68-1.6c.38-.62.17-.75-.52-.33-.65.4-.87 1.3-.51 1.9.45.8.22.77-.68-.07-.74-.69-2.4-1.2-3.7-1.2-1.5 0-2.1-.41-1.7-1.1.39-.62-1.4.13-4.1 1.7l-4.8 2.8.69-2.4zm87 .27c0-.44-.71-1.7-1.6-2.8-1.4-1.8-1.5-1.8-1-.11.32 1 .58 2.2.58 2.8 0 .51.45.92 1 .92s1-.36 1-.81zm-190-6.7c1.2-2 2.3-3.3 2.6-3.1.62.61-2.9 6.6-3.9 6.6-.41 0 .19-1.6 1.3-3.5zm106 2.4c-.6-1.8-2.4-2.1-2.4-.34 0 .84.64 1.5 1.4 1.5s1.2-.53 1-1.2zm69-4.3c1.3-1.3 1.3-1.6-.07-2.1-.86-.33-1.3-.97-1.1-1.4.28-.45.06-1.1-.5-1.4s-1-1.1-1-1.6.56-.66 1.2-.25c.85.51.81.21-.12-.94-1.5-1.8-2.6-2.3-1.6-.69.34.55.09 1-.56 1-.8 0-.87.41-.22 1.2 1.2 1.5 2.4 4.8 1.8 4.8-1.2 0-3.2-5.8-2.8-8 .37-1.9-.5-3.5-3.8-7-2.3-2.5-4.4-5.2-4.5-6-.37-2.1-6.3-7.2-7.4-6.5-1.4.9.96 4.7 2.6 4.1.83-.32 1.2-.02.87.76-.27.71.2 1.9 1 2.6.85.7 1.3 1.7 1 2.2-.3.48.05.65.78.37 2-.75 9.2 7 8.2 8.7-1.6 2.5-.97 6 1.6 8.9 3 3.4 2.8 3.3 4.7 1.4zm-86-5c1.1-.81 2.6-1.4 3.5-1.4 1 .02.66.54-.94 1.5-3.3 1.9-5 1.8-2.6-.03zm29-2c.07-1.9-.21-3.5-.62-3.5-.63 0-.72 2.1-.27 6.2.22 2 .77.34.89-2.8zm-22-.19c.97-.26 2.3-.24 3 .03.68.28-.12.49-1.8.47-1.6-.03-2.2-.25-1.2-.5zm28-2.2c.13-.66.01-.75-.27-.18s-.92.78-1.4.47c-.5-.31-.91-.05-.91.57 0 1.5 2.3.73 2.6-.86zm-29-3.4c-.04-.42.44-1.6 1.1-2.6 1.3-2.1.41-5.6-1.2-4.6-.56.34-1 .14-1-.44 0-1.3.62-1.3 3.2.06 1.8.95 2 .87 1.4-.56-.37-.98-.23-1.4.35-1 .55.33.99.45.99.26s.88-2.8 2-5.8c1.5-4.1 2-4.8 2-2.8.02 1.5.56 3 1.2 3.4.69.42.89.27.49-.37-.36-.59.29-2.7 1.4-4.6 2.2-3.7 3.6-4.8 2.5-2-.33.86-.18 1.3.32.99 1.6-1 2.1 1.2.88 4-.98 2.2-.94 2.8.2 3.5.85.53 1.9.45 2.7-.19 2-1.7.38 5.3-1.8 7.7-1 1.1-1.9 2.9-1.9 4 0 1.4-.27 1.6-1.2.71-.9-.9-.76-1.6.61-3.1.97-1.1 1.5-2.6 1.2-3.3-.39-.99-.54-1-.6-.06-.04.69-.52 1.2-1 1.2-.55 0-.72-1.3-.38-3 .37-1.9.19-3-.49-3-.61 0-.81.74-.46 1.7.44 1.1.26 1.4-.55.93-.73-.45-1.1-.22-.92.59.15.72-.29 1.2-.98 1.1s-1.2.38-1.2 1.1c0 .77-.68 1.7-1.5 2-1.8.69-2-.49-.3-2.2.66-.66.77-1.2.24-1.2s-1.5.87-2.2 1.9c-.94 1.5-.94 2 .01 2.4.68.28.44.53-.54.57-.96.04-1.8.56-1.8 1.1s-.41.8-.91.49c-.51-.31-1.2 0-1.4.69-.27.69-.54.92-.58.5zm-85-1.6c-1-.66-.98-1.1.25-2.1 1.1-.94 1.6-.97 1.6-.1 0 .65.52.86 1.2.46.73-.44.89-.27.44.46-.4.65-1.2.87-1.8.5-.65-.4-.8-.2-.38.49.84 1.4.57 1.4-1.2.3zm76-1.2c-.29-1.1-.17-2 .27-2 .43 0 1 .9 1.3 2s.17 2-.27 2c-.43 0-1-.9-1.3-2zm54-5.5c0-1.4.39-2.2.87-1.9.49.29.88 1.2.88 1.9s-.39 1.6-.88 1.9c-.48.3-.87-.57-.87-1.9zm-117-11c-.32-.84.65-3 2.2-4.8 1.5-1.8 3.6-4.5 4.6-6 1.5-2.1 2.1-2.4 2.8-1.3.68.98.78.78.37-.7-.4-1.4.67-3.7 3.5-7.5 2.3-3 4.5-6.5 5-7.8 1.3-3.4 1.9-9.3.84-8.6-1.5.94-1-1.2.57-2.6 1.6-1.4 2.1-4.5.5-3.5-1.5.92-1.2-1.1.33-2.4.75-.62 1.3-2.8 1.2-4.9-.09-2.1.25-4.3.76-5 .51-.66.69-1.6.41-2-.28-.46.15-3.7.96-7.3.8-3.6 1.6-9.6 1.8-13 .19-3.8.48-7.4.65-8s-.08-3-.56-5.5c-.85-4.4-.89-4.4-1.6-1.5-.67 2.9-.7 2.9-.81-.81-.07-2.1.28-3.6.77-3.3 1.2.75 1.9-3.6 1-6-.66-1.7-.77-1.6-.83.62-.04 1.4-.49 3-1 3.5-.83.85-1.8 13-2.6 33-.16 3.8-1.2 9.8-2.3 13s-1.8 7.1-1.5 8.2c.27 1-.33 3.2-1.3 4.7-1.6 2.6-1.7 2.7-.09 1.5 2.1-1.7 2.3.12.24 1.9-.82.68-1.2 1.7-.86 2.2.37.61 1 .35 1.6-.63 1.6-3 2.9-.63 1.3 2.4-1.7 3.2-3 4-2.1 1.2.41-1.2-.06-.95-1.4.66-1.1 1.3-1.8 3-1.6 3.7.26.7-.21 1.8-1.1 2.6-.85.7-2 2.4-2.5 3.8-.72 1.9-1.2 2.2-1.8 1.2-.65-1.1-1.1-.9-1.9.72-1.4 2.6-1.5 5.4-.11 3.2.85-1.3.97-1.3.98.07.01.87-2.2 4.8-4.9 8.8-2.7 4-4.5 7.2-3.9 7.2s-1 2.4-3.6 5.2c-6.4 7.4-5.6 8.5 1 1.4 3.5-3.7 5.3-6.4 5-7.4zm58 9.5c-.32-1.2-.15-2.7.38-3.2.63-.63.97.17.97 2.2 0 3.7-.53 4.1-1.4.97zm23-.75c.86-1.6.78-1.9-.47-1.4-.83.32-1.5 1.2-1.5 2 0 2 .75 1.7 2-.59zm46 .15c-.91-1-1.4-2-1.2-2.3s-.42-.45-1.5-.45c-1.1 0-2 .2-2 .46 0 1.2 3.5 4.1 4.8 4.1 1.3 0 1.2-.27-.16-1.8zm-38-13c.31-.82 1-1.5 1.5-1.5.52 0 .63-.52.23-1.2-.45-.74-.27-.89.51-.41.92.57.79 1.2-.5 2.7-2.1 2.3-2.5 2.4-1.8.4zm32-6.1c-1.5-2-4.7-6.6-7.1-10-2.4-3.7-4.4-6-4.4-5.2s-2-2.7-4.5-7.9c-2.7-5.7-4.3-10-3.9-11 .38-1.2.14-1.8-.64-1.6-1.2.28-4.7-7.5-5.5-12-.22-1.4.31-.56 1.2 1.8 2.3 6.2 2.8 4.4.99-3.5-.88-3.8-2.2-9.8-3-13-1.1-5.1-1.4-5.8-1.5-3-.05 1.9.51 6.1 1.2 9.2.75 3.2 1 5.8.61 5.8-1.6 0-2.3-5.1-2.6-20-.38-18-.99-23-3.1-23-1.3 0-1.4 2.5-1 20 .43 17 .85 21 2.6 26 1.1 3.2 1.9 5.8 1.7 5.8-1 0 2.2 6.9 4.7 10 1.6 2 3.1 4.9 3.4 6.4.27 1.5 1.5 4.5 2.8 6.8 1.3 2.3 2.1 4.8 1.9 5.6-.36 1.2-.26 1.2.46.19.71-1 1.4-.66 2.7 1.5 1 1.5 1.8 3.3 1.8 4 0 .68.45.95 1 .61.62-.38.72.1.28 1.3-.4 1-.42 1.6-.05 1.2s1.5.32 2.5 1.5c1.2 1.5 1.8 1.8 1.9.78.02-.79 1.6.45 3.6 2.8 4.4 5.1 5.7 5.5 1.9.58zm-10-.9c-1.3-1.4-2.6-2.3-2.8-2-.28.27.55 1.6 1.8 3s2.6 2.3 2.8 2c.28-.27-.55-1.6-1.8-3zm-3.7.03c-.99-1.4-2.2-2.5-2.6-2.5-.43-.02.02 1.1 1 2.4.99 1.4 2.2 2.5 2.6 2.5.43.02-.02-1.1-1-2.4zm-12 .47c-.34-.55-1-1-1.6-1s-.94.45-.94 1 .7 1 1.6 1 1.3-.45.94-1zm-1.8-4.8c-2-2.3-2.1-3.8-.16-4.5.99-.38 2 .51 3.1 2.6l1.6 3.2-5.6-5 1.7 2.8c2 3.2 1.7 3.6-.67.92zm19-2.8c-1.2-2-2-3.9-1.7-4.1.23-.23 1.4 1.2 2.6 3.2s2 3.8 1.7 4.1c-.27.26-1.5-1.2-2.7-3.2zm-110-1c0-.76.4-1.4.89-1.4.95 0 2.4-3 1.8-3.7-.42-.42-5.7 7.2-5.7 8.3 0 .36.68.08 1.5-.6s1.5-1.9 1.5-2.6zm102-.6c-.74-1.8-1.9-3.4-2.5-3.6-.62-.2-.17 1.2 1 3.2 2.6 4.4 3.2 4.6 1.5.37zm-14-2.8c-.67-1.1-.81-2-.32-2 .9 0 2.4 3 1.9 3.6-.18.17-.86-.57-1.5-1.6zm9.8-4.2c.01.69.48 1.2 1 1.2.58 0 .35-1.3-.53-3-1.9-3.7-2.2-3.7-2.2.04 0 2 .29 2.6.82 1.8.64-1 .82-1 .83-.04zm-72-4.4c-.36-.93-.41-1.9-.12-2.2.28-.29.52.11.52.88 0 .76 1.2-.32 2.6-2.4 1.4-2.1 2.8-3.6 3-3.4.36.37-3.6 7-5.1 8.5-.18.17-.61-.44-.97-1.4zm64-6.2c-.94-3.9-2-7.2-2.5-7.2s.13 3.1 1.2 7c1.1 3.8 1.9 7.3 1.9 7.7 0 .38.23.45.52.16.29-.28-.25-3.7-1.2-7.7zm3.3.25c-.36-.93-.87-1.5-1.2-1.2-.27.28-.21 1.3.15 2.2s.87 1.5 1.2 1.2c.27-.28.21-1.3-.15-2.2zm-66-2.4c0-.82.44-2.2.97-3 .86-1.3.97-1.3.97 0 0 .82-.44 2.2-.97 3-.86 1.3-.97 1.3-.97 0zm59-2.8c-.26-.96-.76-3-1.1-4.6-.35-1.6-.87-2.6-1.2-2.4-.62.61 1.4 8.7 2.2 8.7.29 0 .31-.79.05-1.8zm4.9-1.6c-.69-4.4-1.6-6.7-2.6-6.7-.46 0-.2 2.1.6 4.8.79 2.6 1.4 4.9 1.4 5s.26.25.57.25.32-1.5.03-3.3zm-58 .16c-.04-.93.39-2.9.96-4.4 1.5-3.9.7-3.9-2.9-.28-4.5 4.6-5.2 2.7-.79-2.1 2-2.2 3.7-4.8 3.7-5.8.4-8.1 1.1-13 2.2-15 .69-1.2 1.8-4 2.4-6.2l1.2-4-.37 6c-.23 3.8-.91 6.4-1.9 7.1-1 .73-1.4 2.6-1.3 5.6l.18 4.6 2.4-1.6c1.3-.86 3-3.1 3.8-5 .78-1.9 1.6-3.2 1.9-3 .94.94-3.9 10-6.4 12-2.4 2-2.4 2.2-.63 2.3 1.5.04 1.7.25.62.92-.82.53-1.1 1.4-.59 2.2.46.79.41 1-.11.54-.5-.46-1.6.86-2.6 3-.93 2.1-1.7 3.1-1.8 2.1zm-17-2.5c0-.45.45-1.5.98-2.3.84-1.3.97-1.3.98.19.01.93-.43 2-.98 2.3s-.99.25-.98-.19zm70-5.5c-1-3.6-1.3-4-2-2.3-1.1 2.7-1.1 4.3-.05 2.6.59-.94 1.1-.18 1.6 2.5.42 2.1.95 3.3 1.2 2.7.23-.64-.11-3.1-.76-5.5zm-70-4.2c.36-2.3.25-3.5-.26-3-.49.5-1.2 3.2-1.5 5.9-.69 5.8.77 3.3 1.7-2.9zm81-4c-.37-.98-.65-2.5-.62-3.4.05-1.1.39-.85 1 .74.53 1.3.81 2.9.62 3.4s-.65.24-1-.74zm-61-3.9c-.04-.96.4-1.8.98-1.8s.74-.52.34-1.2c-.42-.69-.27-.89.37-.49.63.39 1.3-.29 1.5-1.6.32-1.6.47-1.4.57.99.1 2.2-.32 3.2-1.3 3.2-.78 0-1.6.56-1.9 1.2-.3.75-.53.55-.58-.5zm43-10c-.24-1.2-.44-.22-.44 2.2s.2 3.5.44 2.2c.23-1.2.23-3.3 0-4.5zm-51-7c-.24-1.2-.45-.46-.46 1.7s.19 3.2.44 2.3c.25-.95.26-2.8.02-4zm2.3-21c-.01-2.2-.28-2.8-.89-1.9-.48.77-.73 2.1-.56 3 .42 2.2.4 2.1.97 2.1.28 0 .49-1.5.48-3.2zm49-1.5c-.25-.96-.46-.18-.46 1.8s.21 2.7.46 1.8.25-2.5 0-3.5zm115-11c.73-2 2.3-3.5 4.2-4.2l3.1-1.2v-38-38l-3.1-1.2c-2-.73-3.5-2.3-4.2-4.2l-1.2-3.1h-134-134l-1.2 2.5c-.63 1.4-2.7 3.5-4.7 4.6l-3.5 2.1v37 37l3.4 1.6c1.9.93 3.9 2.9 4.6 4.6l1.2 2.9h134 134l1.2-3.1zm-268-1.2c-.55-1.2-2.4-3.2-4.2-4.2l-3.2-2-.04-36-.04-36 2.5-.96c1.4-.53 3.4-2.4 4.5-4.2l1.9-3.3 264 .51 1.4 2.6c.76 1.4 2.6 3.2 4.2 4l2.8 1.4v36 36l-3 1.6c-1.7.87-3.6 2.7-4.2 4l-1.1 2.4h-132-132l-.98-2.2zm63-14c2.1-2.1.7-3.1-4.6-3.1-2.8 0-4.7-.49-5-1.2-.3-.91 1.2-1.2 5.7-1.2 5.7 0 6.1-.16 6.1-2.3 0-5.6-5.9-9.6-12-7.7-7.8 2.6-8.8 12-1.6 16 3.2 1.8 8.8 1.3 11-.93zm35 .75c.96-.37 1.4-2.4 1.4-6.9v-6.4h-5c-4.7 0-5 .17-5 2.5 0 1.8.53 2.5 2 2.5 1.3 0 2 .67 2 2 0 1.6-.67 2-3.4 2-5.6 0-8.7-4.8-6.6-10 1.5-3.8 5.3-5.4 9.4-3.9 2.7 1 3.4.96 4.4-.5 1.8-2.5 1.6-3-1.9-4.2-7-2.4-15 .14-18 5.9-3.2 6.4.18 15 6.8 18 3.2 1.1 10 .91 14-.42zm18 .18c11-5.6 2.8-21-8.4-16-7 2.9-7.3 12-.58 16 4.3 2.1 5.3 2.2 9 .24zm56-1c1.3-1.3 1.3-1.6.1-2.4-.78-.48-2.8-.64-4.6-.36-2.1.34-3.6 0-4.5-1.1-1.2-1.4-.7-1.6 4.8-1.6 5.9 0 6.1-.09 6.1-2.6 0-3.9-1.6-6.2-5.3-7.4-11-3.7-17 13-5.7 17 2.2.88 7.3-.17 9-1.9zm68 1.4c3.1-1.1 6.1-5.2 6.1-8.4 0-5.6-6.1-10-12-8.8-8.2 1.6-9.3 14-1.6 17 2.9 1.2 3.8 1.2 7.5-.12zm-222-9.4v-9.5h3.5c3.1 0 3.5-.31 3.5-2.5v-2.5h-10c-9.9 0-10 .04-9.8 2.2.25 1.7 1.1 2.3 3.6 2.6l3.2.32v9.4 9.4h3 3v-9.5zm15 3.6c0-3.8.44-6.1 1.2-6.4 2.8-.99 3.8.54 3.8 6.4 0 5.9.01 5.9 3 5.9h3v-6.6c0-5.6-.35-6.9-2.4-9-2.7-2.7-3.8-2.9-6.6-1.4-1.8.95-1.9.66-1.9-4 0-4.9-.06-5-3-5h-3v13 13h3c3 0 3-.01 3-5.9zm98-7.1v-13h-3-3v13 13h3 3v-13zm16 12c.93-.93 1.2-.93 1.2 0 0 .66 1.1 1.2 2.5 1.2h2.5v-13-13h-3c-2.9 0-3 .11-3 5 0 4.7-.14 5-1.9 4-3.1-1.7-5-1.2-8.2 1.9-5.7 5.7-2.6 15 5 15 2 0 4.3-.54 4.9-1.2zm37-5c.26-5.5.55-6.2 2.3-6.2s2 .77 2.3 6.2c.29 6.2.32 6.2 3.2 6.2h3v-6.6c0-5.7-.34-6.9-2.6-9.1-1.9-1.9-3.1-2.4-4.8-1.8-1.2.4-3.9.66-5.9.58l-3.8-.14v8.5 8.5h3c2.9 0 3-.06 3.2-6.2zm30 1.9c0-4.4.01-4.4 4.1-4.9 5.3-.72 7.9-3.1 7.9-7.4 0-5.5-2.8-7.4-11-7.4h-7v12 12h3c2.9 0 3-.18 3-4.4zm45 2.5c0-1-.89-2.1-2-2.4-1.5-.4-2-1.4-2-4.2s.46-3.8 2-4.2c1.1-.29 2-1.3 2-2.3s-.9-2-2-2.3c-1.2-.31-2-1.4-2-2.6 0-1.6-.63-2.1-2.5-2.1-2 0-2.5.5-2.5 2.5 0 1.6-.57 2.5-1.5 2.5-.83 0-1.5.89-1.5 2s.67 2 1.5 2c1.1 0 1.5 1.3 1.5 5.3 0 6.2 1.1 7.7 5.7 7.7 2.6 0 3.3-.42 3.3-1.9zm-149-3.2c-2.5-1.4-2.2-5.6.43-7 1.9-.99 2.5-.83 4 1.1 1.6 2 1.7 2.6.48 4.3-1.7 2.6-2.7 2.9-4.9 1.6zm124-.75c-2.1-2.4-2.1-3.5.27-5.6 1.5-1.4 2.3-1.5 4-.62 2.6 1.4 2.7 5.6.15 7-2.5 1.4-2.5 1.4-4.4-.79zm-94-1c-1.5-2.9 2-7.1 4.6-5.5 1.1.66 1.8 2.3 1.8 4 0 2.4-.46 2.9-2.7 3.2-1.9.21-3-.3-3.7-1.7zm-87-5.1c0-1.8 4.2-2.3 5.8-.67 1.5 1.5 1.3 1.6-2.1 1.6-2 0-3.7-.42-3.7-.93zm110-.6c2.4-1.8 3-1.8 4.6.03 1.1 1.3.7 1.5-2.6 1.5-3.6-.03-3.7-.13-1.9-1.5zm51-4c0-2.3.37-2.6 2.8-2.3 2 .23 2.8.88 2.8 2.3s-.77 2.1-2.8 2.3c-2.4.27-2.8-.04-2.8-2.3zm-73-24c2.5-2.2 2.3-7.7-.44-10-4.8-4.5-13-1.2-13 5.3 0 6.6 8 9.6 13 4.9zm59 1.7c2.6-.01 2.8-.25 2.8-4.8 0-6.2-2.1-9.2-6.3-9.2-4 .01-6.2 1.3-5.4 3.2.37.97 1.7 1.3 3.9 1.1 3.2-.34 3.2-.31.84.76-5 2.2-5.5 2.6-5.8 5-.42 2.8 2.5 5.3 5.3 4.5 1.1-.29 3.2-.54 4.8-.55zm-157-1.8c-.25-1.3-1.5-1.8-5.1-2.1-3.9-.25-4.7-.63-4.5-2 .23-1.2 1.5-1.8 4.6-2 3.4-.25 4.2-.66 4-2-.23-1.2-1.5-1.8-4.6-2-2.9-.21-4.2-.77-4.2-1.8 0-1 1.2-1.4 4.5-1.4 4.1 0 4.5-.2 4.5-2.5 0-2.4-.23-2.5-6.5-2.5h-6.5v10 10h7.1c6.2 0 7-.22 6.7-1.8zm7.2-.28c0-2.4-2.6-3.7-4.2-2.2s-.19 4.2 2.2 4.2c1.4 0 2-.66 2-2zm10-5.5c0-7.3.06-7.5 2.5-7.5 2 0 2.5-.5 2.5-2.5 0-2.5-.04-2.5-7.8-2.2-7 .26-7.8.49-7.8 2.3 0 1.4.77 2.1 2.8 2.3 2.7.31 2.8.38 2.8 7.8 0 7.3.06 7.4 2.5 7.4s2.5-.17 2.5-7.5zm9.5 5c0-2.5-4-3.3-4.9-.96-.89 2.3.2 3.6 2.7 3.3 1.4-.2 2.2-1 2.2-2.3zm7.1 1c.37-.98 1.9-1.5 4.5-1.5 2.6 0 4.1.52 4.5 1.5.32.85 1.8 1.5 3.4 1.5h2.8l-3.6-8.8c-4.2-10-4.9-11-7.3-11-1.7 0-2.8 2.1-8.1 15l-1.9 4.8h2.5c1.4 0 2.8-.67 3.1-1.5zm21-.75c-.21-1.5-1-2.2-2.3-2.2s-2.1.77-2.3 2.2c-.26 1.8.16 2.2 2.3 2.2s2.6-.4 2.3-2.2zm15-1.5c-.32-3.7-.26-3.8 3.4-4.1l3.8-.31v4.1c0 3.7.24 4.1 2.5 4.1h2.5l-.28-9.8c-.28-9.2-.41-9.8-2.5-10-2-.29-2.2.1-2.2 3.8v4.1l-3.7-.31c-3.5-.29-3.7-.51-3.8-3.8-.04-2.8-.47-3.6-2.3-3.8-2.2-.31-2.2-.12-2.2 9.8v10h2.6c2.4 0 2.6-.3 2.2-3.8zm38-1.2c0-4.7.17-5 2.5-5s2.5.33 2.5 5c0 4.7.15 5 2.6 5 2.5 0 2.6-.2 2.2-5-.29-4-.03-5 1.4-5.4 2.4-.63 2.2-2.5-.44-3.5l-2.2-.81 2.2-1.9c3-2.6 2.8-4.4-.61-4.4-3.4 0-5.2 1.6-5.2 4.7 0 1.8-.56 2.3-2.5 2.3-3 0-3.3-1.5-.5-3 3-1.6 2.5-4-.8-4-3.4 0-5.2 1.6-5.2 4.7 0 1.4-.6 2.3-1.5 2.3-.83 0-1.5.89-1.5 2s.67 2 1.5 2c1.1 0 1.5 1.2 1.5 5 0 4.3.27 5 2 5s2-.67 2-5zm19 .25c.21-3.4.72-4.8 1.8-4.8s1.6 1.3 1.8 4.8c.26 3.9.64 4.8 2.2 4.8 1.6 0 2-.7 2-3.4 0-4.3.86-6.6 2.5-6.6s2.5 2.3 2.5 6.6c0 2.8.38 3.4 2 3.4 1.9 0 2-.52 1.8-6.2-.36-7.3-2-9-6.8-7.2-1.7.63-3.2.77-3.5.31-.29-.45-3-.8-6-.78l-5.5.05v6.9c0 6.6.09 6.9 2.4 6.9 2.2 0 2.5-.46 2.8-4.8zm41 .01c.22-3.6.73-4.8 2-5.1 1.5-.29 1.8.45 1.8 4.7 0 4.7.16 5.1 2.5 5.1 2.4 0 2.5-.31 2.5-5.4 0-6.9-1.6-8.5-8.8-8.4l-5.2.01v6.9c0 6.6.09 6.9 2.4 6.9 2.2 0 2.5-.46 2.8-4.7zm17-.01c.21-3.4.72-4.8 1.8-4.8s1.6 1.3 1.8 4.8c.28 4.3.55 4.8 2.8 4.8 2.3 0 2.4-.38 2.4-4.8 0-7.2-1.8-9.1-8.5-9l-5.5.05v6.9c0 6.6.09 6.9 2.4 6.9 2.2 0 2.5-.46 2.8-4.8zm-34 1.8c-.92-1.5.36-3 2.6-3 2.5 0 2.5 1.6 0 3-1.3.69-2.2.7-2.6.03zm-62-2.6c-.7-1.8 1-4.4 2.9-4.4s3.6 2.6 2.9 4.4c-.34.9-1.6 1.6-2.9 1.6s-2.6-.73-2.9-1.6zm-52-2.3c-1.3-.48-1.4-1.1-.68-3.1.85-2.3 1-2.3 1.9-.72 1.4 2.5.72 4.6-1.3 3.8z"/></svg>
