<?xml version="1.0" encoding="UTF-8"?>
<svg fill="currentColor" fill-rule="evenodd" aria-hidden="true" viewBox="0 0 391 573" xmlns="http://www.w3.org/2000/svg"><path d="m.49 286c0-158 .12-222 .26-143s.14 208 0 286-.26 14-.26-143zm81 272c.49-2.3.44-2.3-1.4-.6-1.3 1.2-1.9 1.4-1.9.47 0-1-.36-.98-1.7.1-1.2.99-1.8 1-2.1.21-.27-.82-1.3-.9-3.5-.26-4 1.2-5.8-.3-3.4-2.9.92-1 1.4-2.2 1-2.5-.77-.76 3.5-5.7 5-5.7.58 0 .58.48-.02 1.2-.53.69-1.3 2.1-1.6 3.1-.54 1.5-.28 1.8 1.3 1.4 1.4-.37 1.8-.11 1.4 1-.42 1.1-.21 1.3.68.75 2.1-1.3 10-1.4 10-.13-.01.6-.95 2.2-2.1 3.6l-2.1 2.5.52-2.3zm23 1c0-1.5 8-2.6 9.3-1.3.8.8.12 1.1-2.5 1.1-2 0-4.3.27-5.2.61-.87.33-1.6.15-1.6-.42zm-15-1.4c.02-.69.74-2.2 1.6-3.2 1.5-2 1.6-2 .9.25-.37 1.2-.38 2.2-.02 2.2s1.5-1 2.6-2.2c1.8-2 1.9-2.1 1.3-.25-.51 1.7-.33 1.7 1.4-.39 1.1-1.3 2.4-2.1 3-1.7.59.37 1.4.21 1.7-.35s1.1-1 1.6-1 .72.45.38 1-.14 1 .44 1c1.6 0 1.3 1.2-.98 4-1.6 2-1.8 2.1-1.3.5.64-1.8.54-1.9-1.1-.56-2.4 2-5.6 2.1-5.6.24 0-1.3-.28-1.2-1.8.17-2.2 2-4.2 2.2-4.1.4zm179-4c-1.1-2.9-2.2-6.3-2.5-7.7-.41-1.9-1.1-2.4-3-2.3-4.7.39-9 1.5-9 2.4 0 .49-.82.89-1.8.89-1.1 0-1.8-.69-1.8-1.8.12-2.6-1.8-2.7-2.5-.07-.37 1.6-.79 1.9-1.3 1.1-.97-1.6.82-4.9 3.4-6.3 1.6-.84 2-.74 2 .47 0 .85.66 1.5 1.5 1.5.97 0 1.2-.59.83-1.8-.6-1.6-.52-1.6 1.4.03 1.6 1.4 2.2 1.5 3 .5 1.9-2.5 3.1-8.7 2.3-12-.43-1.8-.83-2.6-.89-1.6-.13 2.2-1.3 2.9-3.1 1.8-1.2-.72-1.2-1.2-.2-2.1 1.7-1.7 1.6-3.4-.14-1.9-.94.78-2.2.84-3.9.19-3.7-1.4-6.8-.32-11 3.8-2 2-5.1 4.4-7 5.4-3 1.5-3.5 2.3-3.5 5.3 0 3.8 1.9 4.2 2.4.58.18-1.2 1.3-2.8 2.5-3.6 2.7-1.7 9.7-2.8 9.7-1.5 0 .52-.47.94-1 .94s-2 .93-3.2 2.1c-1.7 1.6-1.8 1.9-.46 1.4 1.4-.52 1.8-.13 1.8 1.8 0 2.4-1.6 3.7-4.6 3.7-.83 0-1.4-.94-1.3-2.2.04-1.2.31-1.7.58-.99.56 1.4 2.3.71 2.3-.88 0-.55-.44-.72-.99-.39-.55.34-.74-.02-.44-.81.3-.78-.08-1.7-.85-2-.91-.34-1.8.65-2.6 2.9-1.3 3.6-4.2 4.5-8.2 2.4-3-1.6-2.3-3.4 2.8-8 2.6-2.3 3.8-3.8 2.8-3.2s-3.4.82-5 .58c-2.5-.36-3.2.02-4.2 2.3-.68 1.5-.89 3-.45 3.3 1 .73 1.3 5.1.31 5.1-.43 0-2.2-2-3.9-4.4-2.8-3.9-3-4.7-2.1-7.5 1.1-3.2 4.1-4.2 5.5-2 1 1.7 6.8.37 11-2.7 3.4-2.3 4.1-3.2 4.1-6.1 0-1.8.45-3.4 1-3.4s1 1.3 1 2.9c0 2.3.41 2.8 2.2 2.8 1.9-.09 2.3-.81 2.8-5.1.32-2.8.96-5.8 1.4-6.9.61-1.4.46-1.8-.59-1.4-.78.27-1.3 1.2-1.1 2.1.17.91-.16 1.6-.71 1.6-1.6 0-3-3.5-2.4-5.9.34-1.3.08-2.6-.59-3-.86-.53-.9-1.5-.14-3.5 1.4-3.6 1.3-5.6-.21-5.4-.79.16-1.2-.76-1.1-2.5.1-1.5-.27-2.8-.82-2.8s-.73-.85-.4-1.9c.33-1 .64-4 .69-6.5s.44-4.4.86-4.1 1.5-1.4 2.4-3.7c1.7-4.4 1.8-4.4-2.6-6.9-3.4-2-20 .69-20 3.2 0 1.6-1.7-.04-2.3-2.2-.78-3 1.8-5 5.3-4.3 1.7.34 3 .16 3-.41 0-.55 1.3-1.3 3-1.6 3.4-.68 5.2-3.4 4.4-6.5-.54-2.1-.67-2.1-2.4-.5-1 .93-1.9 2.3-1.9 3 0 .74-.81 1.4-1.8 1.4s-2.3.54-3 1.2c-.93.93-1.2.82-1.2-.5 0-.93-.45-1.7-1-1.7s-1 .45-1 1-.53 1-1.2 1c-.65 0-1.9.62-2.8 1.4-1.4 1.2-10 3.4-15 3.9-.96.09-1.8.5-1.8.92s-1.7 1.6-3.8 2.7c-2.1 1.1-4.6 3.4-5.7 5.2-1.1 1.8-2.1 2.8-2.3 2.2-.44-1.3-11 9.2-11 11 0 .68-.67 2.5-1.5 4.1-1.4 2.6-1.3 3.2.87 7.6 1.3 2.6 4.7 7 7.6 9.9 2.8 2.8 4.5 5.2 3.7 5.2-1.9 0-10-9-13-15-1.5-2.5-3-4.8-3.3-5.1-1.1-.85.86-4.8 3-6 1.3-.71 2.1-2.1 2.1-3.9 0-1.6.86-3.6 1.9-4.5s2.2-2.9 2.6-4.4c.43-1.7.92-2.2 1.4-1.4.49.79 1.5-.14 2.9-2.7 1.2-2.1 2.9-4.2 3.8-4.5 2.6-1 2.9-.69.85.93-1.9 1.5-1.9 1.5.06 1.2 2.2-.32 3.6-5.8 1.5-5.8-.63 0 .26-1.2 2-2.6 4.3-3.6 3.1-4.1-2-.89-2.3 1.4-4.6 2.5-5.2 2.3-.55-.19 1.7-1.9 5.1-3.8 6-3.4 10-4.5 10-2.9 0 1.4 2.7.93 4-.69.7-.84 1.5-1.3 1.8-1 .28.28-.57 1.4-1.9 2.5-2.2 1.9-2.3 2-.39 2 2.2.02 4.6-1.2 4.8-2.5.25-1.3 7-7.2 10-8.9 1.6-.83 2.3-1.5 1.6-1.5-.71-.01-3 .89-5.2 2-4.6 2.4-5.7 2.5-4.1.57 1.1-1.3 9.2-4.6 11-4.6.45 0 .82.87.82 1.9s.45 2.2 1 2.6.99 1.4.97 2.3c-.03 1.5-.22 1.4-1.5-.25-.81-1.1-1.5-1.4-1.5-.83s-.27 1.8-.61 2.7c-.49 1.3-.05 1.5 2.5.96 2-.4 3.1-.22 3.1.51 0 .61-.52 1.1-1.2 1.1-.64 0-.86.3-.49.68.79.79 4-2.4 4.9-4.9.38-1 .2-1.8-.42-1.8-.71 0-.64-.55.19-1.6.7-.85 1.9-1.3 2.6-1s1.5.17 1.8-.25c.25-.41-.51-.82-1.7-.91-2.4-.18-6 2.5-5.1 3.9.29.47-.15.6-.96.29-.82-.32-1.2-1.2-.95-2 .3-.79-.06-1.4-.81-1.4-1.1-.01-1-.21.11-.94.93-.59 1.9-.54 2.8.14.97.81 1.3.58 1.3-.94 0-1.6.58-2 3.2-1.8 1.8.14 3.4.77 3.6 1.4.59 1.8 2.2 1.3 2.2-.62.01-.96-1.2-5.8-2.6-11-1.4-5-3.6-13-4.9-17s-2.6-10-3-13c-.71-5.3-1.9-6.1-3-2-.41 1.5-.94 2.2-1.2 1.6-.24-.66.04-2.1.62-3.2 1.6-3.1-.72-16-3.5-20l-2.2-2.8-2.7 2.5c-1.5 1.4-3.3 3.9-4 5.6-.97 2.3-2.1 3.2-4.4 3.6-3 .44-3.1.37-3.7-4.7-.36-2.9-.13-7.7.52-11 .64-3.1.87-6.6.49-7.8-.48-1.5-.3-2 .69-1.7 1.5.5 1.5 2.7.32 15-.71 7.2-.64 7.7 1.1 7.2 2.1-.54 7-7.2 6.6-9-.42-2 4.5-2.2 5.9-.21 2.3 3.2 2.7 2 1.3-3.9-1.6-6.8-1.7-8.3-.38-6.2.78 1.2.97 1.1.98-.75.01-1.3-.59-2.2-1.5-2.2-1.8 0-2-2.7-.32-3.2.7-.23.85-.92.35-1.7-.62-1-1.2-.68-2.2 1.3-1.6 3-2.6 3.3-4.3 1.2-1.3-1.6-.5-8 1.3-9.9 1.5-1.6 2.1-6.7.77-6.7-.55 0-1.1-.98-1.3-2.2-.18-1.2-.77-2.3-1.3-2.5-1.5-.48-4.5 5.4-4.5 8.7 0 1.6-.26 2.9-.57 2.9-.93 0-3.4-2.7-2.9-3.2 1-1 1.3-10 .28-11-.81-.98-.66-1.3.57-1.3 1.5 0 1.5-.24-.01-3.2-.92-1.8-3-4.9-4.6-6.9-1.7-2.2-2.5-3.9-1.9-4.3.57-.35 1-.25 1 .23s.64 1.7 1.4 2.8c1.4 1.9 1.5 1.9 2.5-.56.9-2.1.97-1.9.43 1.4-.53 3.3-.38 3.8.97 3.3 1.2-.45 1.4-.18.97 1-.47 1.2-.21 1.5 1 .98 2-.74 2.2.37.47 2.1-.66.66-1 1.2-.75 1.3 4.7.85 6 .38 6-2.2 0-6.4-2.2-18-3.6-19-.78-.44-1.4-2.2-1.4-3.8 0-1.8-.49-2.9-1.2-2.8-2.6.35-3.8-.11-3.2-1.2.45-.75.27-.89-.52-.4-.91.56-.68 1.4.9 3 1.7 1.8 1.9 2.4.67 2.8-.92.36-1.7-.24-2.1-1.6-.62-2.2-.63-2.2-2.2.32-1.5 2.4-1.5 2.4-1.1.25.3-1.4-.15-2.7-1.2-3.3-1.5-.99-1.5-1 .02-.55.92.28 2.2-.15 2.9-.95 1.4-1.7 1.5-1.7-3.3-3.9-2.8-1.3-3.8-2.4-3.8-4.1 0-2.1-.36-2.3-2.9-1.8-2.6.53-3 .24-4.2-3.3-1.6-4.7-1.4-6.4 1.3-8.6 2.2-1.9 7.8-2.4 7.8-.75 0 .55-.4 1-.89 1s-1.2.79-1.6 1.8c-.51 1.3-.39 1.5.51.58.65-.65 1.9-.94 2.8-.66 1.4.45 1.4.37.13-.67-1.3-1-1.3-1.1.23-.64 2.4.77 8.8-2.1 8.8-3.9 0-.86.92-1.5 2.2-1.5 1.2 0 5-.96 8.5-2.1 6-2 6.3-2.3 6.2-5.2-.06-1.7.21-4.9.58-7.1.48-2.8.26-4.6-.72-5.9-1.1-1.4-1.2-2.8-.49-5.3.52-1.9.76-3.9.54-4.6-.21-.65.63-3.8 1.9-7 2.2-5.7 2.2-5.9.47-9-1-1.8-2.5-3.1-3.3-2.9-1.3.23-1.4-.47-.62-4.5.49-2.6.61-6 .26-7.6-.34-1.6-.76-5.7-.94-9.2-.18-3.7-.97-7.3-1.9-8.6-.87-1.2-1.6-3.9-1.6-5.9 0-2.2-.55-3.9-1.4-4.2-.87-.34-1.2-1.4-.89-2.6.3-1.1.07-2.1-.51-2.1s-1.1-.79-1.1-1.8c-.01-.96-.3-3.1-.64-4.8-.63-3-1.7-24-1.6-30 .07-3.4.01-3.4-1.5-1.5-1.6 2-1.6 1.6.26-3 .33-.82.11-1.5-.5-1.5s-1.1-1.3-1.1-2.9c0-1.6-.49-3.1-1.1-3.3-.59-.2-1.2-1.8-1.2-3.5-.13-2.4-1-3.7-3.7-5.5-3.9-2.6-4.9-5.7-2.6-8.1.85-.86 1.5-2.2 1.5-2.9-.02-.86-.53-.67-1.4.53-.77 1-1.9 1.6-2.5 1.2-1.3-.78-1.4-7.2-.21-8 .47-.3.76-2.7.63-5.3-.12-2.6.2-5.3.73-6 .52-.66.62-1.8.21-2.5-.41-.71-.42-.99-.01-.62.41.36 1.7-.25 2.8-1.4 1.5-1.5 1.9-2.8 1.4-5.2l-.59-3.2 1.4 2.5c.79 1.4 1.5 3.5 1.5 4.6.02 1.2.64 2.4 1.4 2.7 2 .78 4-.88 3.3-2.8-.37-.97-.23-1.4.35-1 .55.33.99-.09.99-.95 0-.89.85-1.6 2-1.6 1.3 0 1.8.48 1.4 1.5-1.1 2.9 6.9 1.2 8.8-1.9.5-.77 1.1-.73 2 .15.98.98.98 1.2.01 1.2-.68 0-2.6 1.4-4.4 3.2-1.9 2-3.3 2.7-3.6 2-.22-.67-1-1.2-1.8-1.2-.84 0-1.2.61-.79 1.6.47 1.2.08 1.4-2 .91-2.1-.53-2.8-.15-4 2.2-.87 1.7-1.2 3.8-.73 5.3.38 1.4.81 5.9.94 10 .4 12 .53 13 1.6 14 .53.38.97 2.5.97 4.7 0 2.2.42 3.7.95 3.4.53-.32.66.15.3 1.1-.35.91-.15 1.7.44 1.7s.81.68.5 1.5c-.32.82-.17 1.5.32 1.5 1.3 0 2.2-3.4 1.5-5.6-.38-1.2-.02-1 1 .61 1.1 1.7 1.4 1.9.91.5-.41-1.1-.78-3-.82-4.2-.12-3-.96-2.8-2.4.5-.63 1.5-.96 1.8-.73.75.6-2.8.63-9.4.07-14-.46-3.3-.44-3.4.36-.5.46 1.6.89 2.2.95 1.3.07-.92.42-2.4.79-3.4.46-1.2.3-1.5-.5-1-.66.42-1.2.16-1.2-.58-.02-2.4-1.9 1.5-2.1 4.2-.18 3.5-1.8-4.4-1.8-9.2-.07-4.1 1.3-5.6 3.5-3.8 1.6 1.3 1.7.94 1.6-4-.04-1.6.12-1.9.46-.75.28.96.89 1.8 1.4 1.8 1.9 0 6-2 6-3 0-1.4 4.7-6.1 8.3-8.4 2.6-1.6 2.8-2.1 2.1-6-.38-2.3-.99-4.3-1.4-4.4-.37-.14-.6-1.9-.53-4 .12-3.3.08-3.3-.28-.49-.51 4-2 4.3-2.6.5-.3-1.9-.49-1.4-.66 1.8l-.24 4.5-.95-3.3c-.74-2.6-.57-3.9.78-6.2 1.6-2.8 1.6-3-.09-5-2.6-2.9-3.7-1.6-3 3.8.56 4.2.33 5.1-2 7.7-1.8 2-2.8 2.5-3.2 1.7-.28-.69-1.4-1.2-2.4-1.2-1 0-2.2-.48-2.5-1.1-.37-.59-1.2-.85-1.9-.58s-1.8-.03-2.5-.68c-.68-.64-.5.29.4 2.1s1.4 3.3 1.1 3.4c-.29.07-1.4.19-2.4.26-1 .06-2.3.53-2.8 1-.48.52-.33.62.35.23.81-.46 1.2.3 1.1 2.4-.1 3.6-.88 2.9-2.7-2.3-1.1-3.3-1-4.5.46-8.7 1.1-3.1 2.2-4.7 3-4.4.77.29 1.6-.52 1.9-2 .9-3.6 3.8-5.9 8.1-6.3 4.6-.42 5-.85 3.4-3.9-1.7-3.3-2.7-3.2-6.7.7-4.7 4.5-4 2.1.72-2.7 3.8-3.9 4-3.9 5.5-2 .88 1.1 1.3 1.4.98.75-.34-.68.15-2.9 1.1-4.9l1.7-3.6 1.9 2.4c3.3 4.2 5.8 8.3 5.7 9.9-.01 1-.63.7-1.9-.94-1-1.3-1.7-3-1.4-3.7s-.57-1.8-1.8-2.5c-2.2-1.2-2.3-1.1-.71.67 2.1 2.5 1.4 5.1-.88 3.2-1.4-1.1-1.4-1-.4.9.64 1.2 1.6 2.5 2.2 2.8.54.34.99 1.1.99 1.6s-.56.65-1.2.22c-2.2-1.4-3.6-1.2-3 .34.39 1 .79 1.1 1.3.37.45-.73 1.4-.23 2.6 1.4 2 2.7 4.4 3.4 4.4 1.3.01-.69 1 .55 2.3 2.8l2.3 4-2.1 3.5c-1.2 1.9-1.9 4.5-1.8 5.8.42 2.7 2.2 2 2.2-.88 0-1.3.43-1.7 1.2-1.3.82.5.95.14.44-1.2-.59-1.6-.49-1.7.56-.63 1.1 1 .86 2.1-1.1 5.8-2.8 5.2-2.3 6.8.8 2.8 1.2-1.5 2.6-3.3 3.1-4 1.6-1.9 1.2-3.9-1.2-5.6-1.9-1.3-2-1.6-.5-1.6.96-.03 1.8-.67 1.8-1.4s.64-1.9 1.4-2.6c1.2-1 1.1-1.9-.66-6.2-1.2-3-2.4-4.5-2.8-3.8-.41.66-1.9-2-3.5-6.2-4.3-11-5.5-13-12-14-3.2-.63-6.5-1.6-7.4-2-2-1-5-.17-4.2 1.2.31.5 1.4.9 2.5.9s1.9.46 1.9 1c0 .57-1 .76-2.4.42-1.3-.33-2.7-.12-3.1.48-.84 1.4-6.6 1.4-6.6.08 0-.55.53-1 1.2-1s.88-.29.53-.63c-1.1-1.1-6.4 1.7-7.6 4-2.5 4.9-3 7.6-2.2 11 .66 2.3.58 3-.3 2.7-.66-.22-1.3-1.6-1.5-3.1-.17-1.5-.73-2.7-1.2-2.7-.51 0-.93-1.3-.93-2.9 0-2.1 1.3-4.2 4.8-7.8 2.6-2.7 6.1-6.9 7.8-9.3 1.6-2.4 4.1-5.4 5.5-6.6 2.9-2.6 10-6.3 13-6.3.87 0 2.2-.63 3-1.4.96-.96 3.1-1.3 6.9-1.1 3 .18 5.8-.07 6.1-.56.32-.5 1.7-.45 3.2.14 3.8 1.4 12 8 12 9.6 0 .68 1.2 1.8 2.7 2.6 3.1 1.5 3.9 4.5 4.7 19 .37 6.6.04 10-1.4 15-1 3.7-2.2 7.2-2.5 7.7-.34.56.54 1.5 2 2.2 1.5.68 2.4 1.8 2.1 2.5-.27.72.03 1.2.68 1.1s1.6.77 2.2 2 1.6 2.2 2.4 2.2c.72 0 1 .45.7 1s-.2 1 .32 1 1.5 1.3 2.2 3 2.3 3.6 3.6 4.5c2.8 1.8 6.9 2.1 5.9.44-.38-.61-.13-1.5.55-1.9.82-.5 1-1.8.53-4-.73-3.3-2-3.3-2 .02 0 3.3-2 2.3-3.3-1.7-1.5-4.2-.96-13 .89-15 .7-.84.87-2.9.46-5.3-.64-3.8.13-6.5 2.9-9.9 4.7-5.8 6.8-6.4 5.8-1.6-.35 1.8-.16 2.5.64 2 .62-.39 1.1-1.6 1.1-2.6s.45-2.2 1-2.5 1-1.1 1-1.7c0-.67-.55-.61-1.5.18-1.9 1.6-1.9.98-.01-2.6.83-1.6 1.5-2.3 1.5-1.6.01.72.46 1 1 .69s1 .42 1.1 1.7c.09 1.8.22 1.9.58.51.37-1.4.76-1.6 1.9-.64 1.1.91 1.6.8 2.1-.55.39-.99.09-2.1-.71-2.6-.75-.46-1-1.2-.65-1.6.4-.39 1.6.11 2.7 1.1 1.8 1.6 2 1.6 2 .16 0-2.1 1.6-2.2 2.4-.09.33.86 1.1 1.3 1.6.92.57-.36 2.3.13 3.8 1.1 3.2 2 9.2 8.5 9.2 9.8 0 .51.77 1.8 1.7 2.8 1.5 1.6 1.5 2 .25 2.9-1.2.84-1.2.93.28.47 1.2-.4 2.2.34 3.4 2.5 1.4 2.6 1.4 3.8.38 7.4-.66 2.4-.93 5.1-.58 6 .61 1.6-.77 16-2.4 24-.95 5.2-.7 5.8 7.5 18 3.1 4.6 5.4 8.9 5.2 9.5-.23.62.16 4 .87 7.4.71 3.4 1.2 8.3.99 11-.2 2.8.61 7.5 2.1 12 1.3 4.2 2.6 10 2.9 13 1.7 19 4.3 31 7.2 34 1.2 1.3 2.2 2.7 2.2 3.2 0 .42.9 1.9 2 3.3s2 3.6 2 4.9c0 1.3.45 2.4 1 2.4s1 .46 1 1c0 .61-1.5.78-3.8.43l-3.8-.58-3 6.2c-1.7 3.5-4 6.6-5.2 7.2-2.2 1-2.1 1.2 2.7 6 2.8 2.7 5 5.4 5 5.9 0 1.1-5.5 6.7-9 9.1-2.3 1.6-2.5 2.4-2.9 11-.25 6.4.11 12 1 15 .78 3 1.2 7.3 1 9.5-.67 6.6-.29 14 .79 15 .73.88-.15 2.3-3.2 5-4.2 3.8-4.8 5.3-6.3 17-.25 2-.86 4.6-1.4 6s-.6 3.6-.25 5c.61 2.4.67 2.4 1.8.5l1.2-2 .13 2c.12 1.8 1.9-3.9 2.3-7.5.34-2.8 6.8-13 9.1-15 3.4-2.5 4.8 2.4 2 7.2-1.7 2.9-1.8 4-.61 4 .49 0 1.2-1 1.5-2.2.76-2.9 5.3-5.2 6.1-3 .73 1.9-.27 3.5-1.7 2.6-.63-.38-.8-.21-.42.42.37.6-.79 3.9-2.6 7.4-4.2 8.1-5.8 13-4.6 13 .5.16.22 2-.63 4-1.8 4.4-2 6.2-.39 5.2.84-.52.96.35.46 3.2-.38 2.2-.97 9-1.3 15-.49 9-.36 11 .64 11 .94-.58 1.1-.21.55 1.5-.49 1.5-.36 2 .39 1.6.61-.38 1.1-.24 1.1.31s-.46 1.3-1 1.6-.75 1-.43 1.6c.32.52 1.1.65 1.6.3.66-.41.79.13.36 1.5-.74 2.3.39 2.8 2.3.93 1.6-1.6 1.6.49.13 3.3-1.3 2.4 1.1 10 3.7 12 1 .76 1.8 3.2 2.1 6.6.27 3 1.1 6.1 1.8 7 .75.85 1.1 2.5.77 3.8-.32 1.2-.13 2.2.43 2.2 1.4 0 .85 24-.88 38-2.1 17-1.7 27 1.4 34 2.5 6.1 2.5 6.3.56 5.6-1.8-.56-2-.34-1.3 1.6.4 1.2 1.6 3.2 2.6 4.3 2.3 2.5 2 5.1-.67 5.2-1.1.02-2.5.36-3.2.76s-1.5.27-1.8-.3-1-.78-1.5-.48c-.5.31-.84-.99-.77-2.9.09-2.4-.93-5-3.4-8.8l-3.5-5.3.28-13c.15-7.4-.02-14-.39-14-.72-1.1-.8-1.7-1-8.5-.14-4.1-.25-4.3-1.6-2.5-1.7 2.3-2 13-.5 17 .83 2.4.63 3.9-1 7.6-1.1 2.6-2.4 4.9-2.9 5.2-.46.28-.85 3.6-.86 7.3-.02 3.7.18 6 .44 5 .83-3.1 2.1-1.9 2.8 2.8l.68 4.6 2.6-1.7c2.5-1.7 2.6-1.6 2 .69-.33 1.3-1.1 4.7-1.7 7.6-1.1 5.3-3.6 7.9-6.5 6.8-2.8-1.1-1.2 4.5 3.4 12 2.2 3.4 2.3 4.1 1.1 6.2-1.5 2.8-6.3 3.4-9.5 1.1-1-.76-2.5-1.2-3.2-.89-.85.33-1.3-.39-1.3-2.1 0-3.3-.68-3.3-3.2-.13-1.1 1.4-2.3 2.4-2.6 2.3-.38-.1-2.4.65-4.5 1.7-3.2 1.6-4 1.6-4.8.46-1.7-2.6-.6-6.4 1.8-6.7 2.1-.3 2.7-1.5 2.5-5.1-.04-.8.35-2.3.88-3.2.7-1.3.6-1.8-.37-1.8-1.8 0-3.7 2-3.2 3.4.41 1.1-8.6 4.6-12 4.6-.87 0-1.7.34-1.9.75-.18.41-1.8 1.6-3.6 2.6-2.8 1.6-3.2 1.6-3.2.25 0-.86-.56-1.6-1.2-1.6-.69-.04-2-.22-3-.41-1-.19-1.5.1-1.1.68.4.65-.16.77-1.5.35-1.2-.37-2.1-.24-2.1.28 0 .53-1.6 1.2-3.5 1.6-1.9.35-3.7 1.1-4.1 1.6-.32.52.16 3.6 1.1 6.9 1.8 6.6 2.2 6.8 11 6.6 2.9-.09 5.2.16 5.2.56 0 .39-4.3.9-9.6 1.1-5.7.25-9.8.88-10 1.6-.42.68-1.5-1-2.7-4zm-171-5.2c.29-.76 1.4-1.7 2.5-2 3.1-.98 3-.08-.17 1.7-2.2 1.3-2.8 1.3-2.3.27zm221-3c0-.87.6-1.2 1.5-.86.82.31 1.5.7 1.5.86s-.68.55-1.5.86c-.9.35-1.5.01-1.5-.86zm-132-4.6c-.36-.58-.41-1.3-.1-1.6.3-.31-.44-1.4-1.6-2.4-1.2-.98-1.9-2-1.6-2.4.76-.76 4.9 2.8 4.9 4.2 0 1.8 2.2 2.5 3.1 1.1.69-1.1.87-1 .88.37.02 2-4.4 2.5-5.5.68zm126-1.1c3.2-3 2.9-4-.69-2.2-1.6.82-3 2.1-3 2.9 0 2 .99 1.8 3.7-.74zm23 1.3c.3-.49-.12-1.2-.95-1.5-.9-.35-1.5 0-1.5.89 0 1.6 1.6 2 2.4.57zm-142-5.7c0-.52.43-1.6.95-2.4.65-1 .39-2.1-.89-3.5-2-2.2-3.8-12-1.9-9.7.59.59 1.2 2.5 1.3 4.2s.97 3.9 1.9 4.9c.88.98 1.6 2.2 1.6 2.7-.04 1.2-3 5.1-3 3.9zm63-2.4c.34-.55 1-1 1.6-1s.94.45.94 1-.7 1-1.6 1-1.3-.45-.94-1zm36 0c0-.55-.42-1-.94-1s-1.2.45-1.6 1 .08 1 .94 1 1.6-.45 1.6-1zm-142-1.2c-.03-.94.54-2.3 1.3-3 .73-.68 1.1-2.3.88-3.6-.26-1.4.29-3.2 1.3-4.3 1.9-2.1 6.9-2.6 8-.85.46.75-.02.88-1.5.41-1.4-.42-3.1-.08-4.6.9-2 1.3-2.3 2.2-1.8 4.6.39 1.9.19 3-.56 3-.63 0-1.6 1-2.1 2.2-.67 1.7-.92 1.8-.97.54zm35-5.5c-.32-2.1-.89-4.8-1.2-6-.39-1.3-.24-2.2.33-2.2.55 0 1.3 2.5 1.7 5.6.78 6.3.12 8.6-.78 2.7zm-24 1.2c1.5-1.9 9.8-6 11-5.2.56.56-7 5.4-9.8 6.3-2.1.66-2.2.58-.77-1.1zm146 .52c.34-.55.03-1-.69-1-.95-.01-.9-.28.19-.98 2.1-1.3.62-1.2-2.5.17-1.9.85-2.2 1.4-1.3 2 1.8 1.1 3.5 1 4.3-.16zm-133-5.9c-.5-.81 5.4-2.4 6.2-1.7.22.21-.97.86-2.6 1.4-1.7.59-3.2.69-3.5.24zm-9.5-1.1c-2.4-.81-2.4-.83.5-.65 1.7.11 3.5-.46 4.2-1.3.64-.82 1.5-1.2 1.9-.74.41.42-.11 1.4-1.2 2.2-2.2 1.6-2 1.6-5.4.47zm171-1.4c.41-.6.74-2 .75-3.1.01-1.7-.28-1.6-1.9.86-1.8 2.7-2 2.7-3 1-.59-1-1.1-1.3-1.1-.69s-.28 1.8-.59 2.6c-.43 1.1.08 1.3 2.2.93 1.6-.28 3.1-1 3.5-1.6zm-133-.08c-2.6-.7-5.6-.89-7.2-.44-2.9.83-4.8-.46-2.2-1.5 2.6-1 6.6-.57 12 1.4 6.1 2 4 2.4-3 .56zm10 .68c0-.44.5-1.3 1.1-1.9 1.4-1.4-1.4-4.7-4.9-5.7-1.9-.58-2.3-.3-2.4 1.6-.08 1.8-.22 1.9-.58.52-.6-2.3 1.6-5 3.1-3.8.62.48 2.4 1.2 3.9 1.5s2.8 1.3 2.8 2.1c0 .79.59 1.2 1.3.94.73-.27 2.2.42 3.2 1.5 1.6 1.8 1.6 2 .24 2-.87 0-1.9-.45-2.2-1-.99-1.6-2.3-1.2-3 1-.61 1.9-2.5 2.8-2.5 1.2zm43-2.1c.18-1.2 0-3-.41-3.9-.41-.93-.65-2-.55-2.5.1-.46-.28-.54-.85-.2-1.4.88-1.3 3.2.23 3.9.84.35.44 1.2-1.2 2.7-1.4 1.2-1.9 1.9-1.2 1.5.69-.36 1.2-.13 1.2.49 0 2.1 2.5.37 2.8-1.9zm9.9-.14c.12-1.7-.2-2.8-.75-2.4-1.4.88-1 5.5.46 5.5.04 0 .18-1.4.29-3zm26-2.7c-.25-.96-.46-.17-.46 1.8s.21 2.7.46 1.8.25-2.5 0-3.5zm-117 .64c-.38-.61-.2-1.4.39-1.8.64-.39-1.6-3.3-5.4-7.1-7.2-7.2-8.3-9.3-11-20-2-8.4-3.2-11-3.3-6-.05 1.7.33 3 .85 3 .51 0 .93 1.4.93 3s-.45 3-1 3-1-.68-1-1.5-.68-1.5-1.5-1.5-1.5-.68-1.5-1.5c0-2.5-2-1.7-3.1 1.2-1.2 3.1-3.8 5.3-5.6 4.6-.9-.34-.7-1.1.7-2.6 2.3-2.4 2.6-5.7.55-5.7-.77 0-3.8 1.2-6.7 2.8-3.6 1.9-6.8 2.8-10 2.8-2.6 0-4.2.33-3.5.73 1.9 1.2-.91.93-3.8-.39-4.4-2-2.8-2.8 4.7-2.2 6.4.45 7.8.21 12-2 2.8-1.4 6-2.6 7.2-2.6 1.2 0 2.3-.44 2.5-.99.19-.58 1.5-.38 3.2.5 3.7 1.9 3.5 2 3.4-1.3-.05-1.5.43-3.8 1.1-4.9.63-1.2 1.2-2.6 1.2-3.2 0-1.8-1.8-1.2-2.3.68-.32 1.2-.49 1-.57-.66-.07-1.3 1-3.9 2.4-5.7s2.5-3.9 2.5-4.6.9-3.8 2-6.8c2.3-6.2 2.6-12 .76-14-.98-.98-.98-1.4-.02-2 .92-.57.98-2.2.26-6.6-.53-3.2-.74-6.1-.48-6.4.26-.26.48.26.48 1.2 0 .9.94 2.5 2.1 3.6 2 1.8 2.1 2.7 1.6 14-.34 9-.82 12-1.8 13-1.1.7-.99.89.5.9 1.8.02 1.8.12.2 1.9-.94 1-1.7 2.7-1.7 3.8.01 5.6 1.5 20 2.1 20 .39.27.36 1.4-.08 2.5-.43 1.1-.82 1.4-.86.68s-.75-2-1.6-2.8c-1.3-1.3-1.5-1.3-1.5.57 0 1.1.45 2.1 1 2.1s1 .93 1 2.1.45 1.8 1 1.4 1 .2 1 1.2c.01 2.7 5.2 11 9.9 16 3.1 3.3 3.8 4.6 2.9 5.2-1 .67-1 .82.02.83.72.01 1 .47.69 1-.82 1.3-2.2 1.3-3.1-.11zm161-1c.31-1.2-.07-3.3-.84-4.8-1.4-2.5-1.4-2.5-1.4 2.2-.04 4.9 1.3 6.4 2.3 2.6zm-140 .04c-1.8-.51-3.2-1.4-3.2-1.9 0-1.3 1.7-1.2 2.5.03.34.55 1.7 1 3.1 1s2.4.45 2.4 1c0 1.2-.36 1.2-4.8-.12zm132-2.6c-.25-.97-.47-.42-.5 1.2-.02 1.6.19 2.4.47 1.8.27-.68.29-2 .03-3zm25-.08c-1.4-1.4-1.6-1.4-1.6-.1 0 2 2.3 4.4 2.8 2.8.21-.63-.35-1.9-1.2-2.8zm-57-1.4c.35-1.5.24-2.9-.25-3.2-.94-.58-2.1 2.6-2.1 5.9-.01 2.6 1.6.84 2.4-2.6zm15 2.8c0-.79-.45-1.7-1-2.1s-1 .31-1 1.4.45 2.1 1 2.1 1-.65 1-1.4zm-39-3.5c1.3-1.3 1.3-1.5-.12-2-1.1-.4-1.3-.99-.64-2.1 1.2-1.9 1.2-3 .02-3-1.6 0-3.6 4.3-2.2 4.8 1.7.56 1.4 3.2-.4 3.2-1.3 0-1.3.25-.25 1.4.89.97 1.4 1 1.7.27.23-.62 1.1-1.8 1.9-2.6zm34-.93c-.41-1.1-.67-1.1-1.4.16-.47.84-.55 2.3-.18 3.3.63 1.6.73 1.6 1.4-.16.37-1.1.45-2.5.17-3.3zm44 2.9c.33-1.2.03-2-.79-2s-1.1.75-.79 2c.29 1.1.64 2 .79 2s.5-.9.79-2zm-265 .31c-1.2-1.2-.65-3.3.86-3.3.83 0 1.5.65 1.5 1.4 0 1.7-1.4 2.8-2.4 1.9zm4.5-.98c-1.9-2-.48-3.1 1.5-1.1.86.87 1.2 1.8.73 2.1-.47.28-1.5-.15-2.2-.95zm164-5.3c0-1.7-.48-3-1.1-3-.58 0-.83-.79-.55-1.8s-.04-3-.71-4.6c-1.2-2.8-1.2-2.7-1.5 2.8-.13 3.1.29 6.6.93 7.8.86 1.6.87 2.3.01 2.6-.63.21-1.1 1.1-1.1 2 0 1.3.39 1.2 2-.54 1.1-1.2 2-3.5 2-5.2zm46 4c.31-1.1.83-2.9 1.1-4 .31-1.1.09-2-.5-2s-1.1.68-1.1 1.5-.45 1.5-1 1.5-1 1.1-1 2.5c0 3 1.6 3.3 2.4.5zm-112-.52c.7-.84 1.5-1.3 1.7-1.1.7.69-.71 2.6-1.9 2.6-.66 0-.59-.57.2-1.5zm9 .52c0-.55.45-1 1-1s1-.68 1-1.5c0-.93-.94-1.5-2.5-1.5-1.4 0-2.5-.42-2.5-.93 0-1.4 11-.78 11 .69.35.91-.24 1.1-2.1.61-2-.49-2.5-.31-2.1.74.25.76-.25 1.9-1.1 2.6-2 1.5-3.1 1.6-3.1.28zm87-5.7-.76-2.8-.65 3.2c-.35 1.8-.36 4 0 4.9 1.1 2.8 2.3-1.9 1.4-5.3zm-187 4.1c0-.82 1.8-3.5 4.1-6 4.5-4.8 8.4-6.2 13-4.6 2.8.89 2.9.94.5 1-3.9.16-11 2.8-10 4.1.17.67-.34.94-1.2.63-1.7-.64-5.1 2.7-4.2 4.1.32.53-.08 1.2-.91 1.5-.91.35-1.5 0-1.5-.91zm234-4c-.85-2.2-2.3-.02-2.3 3.5l-.02 2.5 1.5-2.2c.82-1.2 1.2-2.9.86-3.8zm-40 .9c-.36-.93-.87-1.5-1.2-1.2-.27.28-.21 1.3.15 2.2s.87 1.5 1.2 1.2c.27-.28.21-1.3-.15-2.2zm-43-1.2c-.29-1.5-.72-2.2-.96-1.5-.43 1.3.34 4.2 1.1 4.2.22 0 .16-1.2-.13-2.8zm50-3.5c-.75-1.7-.93-1.4-1 1.8-.08 3.1.09 3.5.91 2 .63-1.1.67-2.6.11-3.8zm-213 3.5c0-1.8 2.7-3.3 6.6-3.6 2.1-.18 4.6-.39 5.5-.46.9-.08 3.3-2.2 5.3-4.6l3.7-4.5-2.2-2.7c-1.2-1.5-2.3-2.5-2.5-2.2-.18.27-2.1-1.5-4.3-4s-6.3-6.8-9.1-9.7c-2.8-2.9-5.1-5.7-5.1-6.2s-.4-1.1-.89-1.1-1.2-.74-1.5-1.6c-.52-1.4-.37-1.4.85-.42 1.7 1.4 3.6.62 3.6-1.5 0-.82-.96-1.4-2.2-1.5-3.8-.02-5.2-1.4-3.6-3.8.91-1.5 1.6-1.8 2.5-1.1s2.4-.14 5.3-2.9c2.2-2.1 4.1-3.6 4-3.3-.11 1.5-3.6 7-4.5 7.1-3.1.44-3.5 1.7-1.2 3.4 2.1 1.6 2.2 2 1.1 3.2-1.7 1.7-.99 3.7 2.9 8.6 3.1 3.9 4.6 4.4 2.7.84-.62-1.2-.77-2.1-.34-2.1.44.01 1.6 2 2.6 4.5 1.9 4.7 5.6 8.8 9.7 11 1.3.67 2.9 2.4 3.4 3.9.85 2.4.41 3.2-5 8.3-3.2 3.1-6 5.2-6.2 4.7-.41-1.2-7.7.1-9.7 1.8-.84.7-1.5.82-1.5.26zm204-3c-.25-.97-.47-.42-.5 1.2-.02 1.6.19 2.4.47 1.8.27-.68.29-2 .03-3zm5.3 1.3c0-.79-.45-1.7-1-2.1s-1 .31-1 1.4.45 2.1 1 2.1 1-.65 1-1.4zm-160-1.7c-2.2-2.4-1.8-2.9 2.2-3 3.3-.09 4.5-2.8 1.2-2.8-1 0-2.2-.68-2.5-1.5-.32-.82-1.6-1.5-2.9-1.5-1.2 0-2.9-.43-3.8-.94-1-.64.51-.93 4.7-.91 3.4.02 6.7-.26 7.2-.61.57-.35 1-.21 1 .3 0 .52-1 1.2-2.2 1.5l-2.2.58 2.3 2.1c1.6 1.5 2.1 2.7 1.6 4.3-1.5 5-3.8 5.8-6.8 2.5zm-6.6-.94c-.09-1.8-7.8-5.1-11-4.8-4.6.37-5.8-.04-5.8-2 0-1.6.67-2 3.6-2 3.8 0 9.4 2.4 9.4 4 0 .53.62.97 1.4.97 1.9 0 3.9 2.6 3.3 4.2-.34.86-.54.75-.59-.33zm177-2.6c.41-1.4.26-2.2-.38-2.2-.59 0-1.1.64-1.1 1.4s-.29 2.2-.65 3.2c-.44 1.2-.32 1.5.39.83.57-.55 1.3-2 1.7-3.2zm-34-8.2c.09-4.3-.94-3.4-1.9 1.6-.4 2.1-1 5.1-1.4 6.8-.56 2.6-.38 2.4 1.3-1 1.1-2.2 2-5.5 2-7.4zm30 5c-.52-1.3-.81-1.1-1.5.68-.48 1.2-.58 3-.23 3.9.53 1.4.78 1.3 1.5-.68.48-1.3.59-3 .24-3.9zm29 2.2c-.25-.97-.47-.42-.5 1.2-.02 1.6.19 2.4.47 1.8.27-.68.29-2 .03-3zm-49-.83c.58-3.1-.72-2-1.8 1.4-.45 1.5-.35 2.1.26 1.8.55-.34 1.2-1.8 1.5-3.2zm53 1.6c0-1.1.17-2 .38-2s.62.9.91 2 .11 2-.38 2c-.5 0-.91-.9-.91-2zm-71-2c0-1-.49-2.2-1.1-2.6-.69-.43-.86-2.4-.47-5.3.49-3.6.38-4.2-.5-2.8-1.3 2.1-.25 14 1.2 13 .49-.31.9-1.4.9-2.4zm33 .27c-1-1-1.8.51-1 1.9.63 1 .87 1 1.2.01.23-.7.15-1.5-.19-1.9zm-48-2.6c.01-.44-.43-.53-.98-.19s-.99 1.4-.98 2.3c.01 1.5.14 1.5.98.19.53-.82.98-1.9.98-2.3zm-128 .31c-.83-.53-2.8-.93-4.5-.89-2.9.09-3 .11-.5.89 1.4.44 3.4.84 4.5.89 1.6.06 1.7-.09.5-.89zm48-.45c0-1.1 5.2-11 5.6-10 .31.32-4.2 9.6-5.1 11-.27.28-.5.15-.5-.28zm77-2.7c.86-1.7 1.5-4.1 1.5-5.2-.07-1.7-.24-1.6-.9.63-.46 1.5-1.5 3.4-2.4 4.3-1.8 1.8-2.1 3.4-.66 3.4.51 0 1.6-1.4 2.5-3.2zm36-6.7c.39-5.3.24-6.4-.76-5.4-.68.65-1.4 4.5-1.7 8.5-.35 5.9-.2 7 .75 5.4.65-1 1.4-4.9 1.7-8.5zm18 6.6c1.5-4.2 1.6-8.9.2-6.7-.53.82-.98 2.5-.98 3.8-.01 1.3-.46 2-1 1.7-.57-.35-1 .49-1 1.9 0 3.6 1.4 3.2 2.8-.76zm-14-2.2-.05-2-.86 2c-.47 1.1-.88 2.7-.91 3.5-.05 1.3.05 1.3.91 0 .53-.82.94-2.4.91-3.5zm-172-4.4c-2.4-2.1-5.7-4.5-7.4-5.4-2.6-1.4-6.4-5.5-6.4-7.1 0-1.3 3.3.35 4.7 2.4.92 1.3 2.4 3 3.2 3.7 3.3 2.6 2.8 1-1.4-4.8-2.5-3.4-4.5-6.6-4.5-7.2s1.5 1.2 3.4 4c1.9 2.8 6.1 7.5 9.4 10 4.9 4.4 5.8 5.6 4.7 6.6-1.1.96-2.2.44-5.7-2.6zm162-.26c.57-2.8.18-4.8-.74-3.8-.87 1-1.5 6.9-.74 6.9.47 0 1.1-1.4 1.5-3.2zm-157 1.4c-.52-.41-2.3-1.9-4-3.2-2.9-2.4-2.9-2.3.24.76 1.8 1.8 3.6 3.2 4 3.2.39 0 .28-.34-.24-.76zm125-.76c-.7-.84-1.5-1.3-1.7-1.1-.7.69.71 2.6 1.9 2.6.66 0 .59-.57-.2-1.5zm17-1.2c.9-3.6 5.6-13 7.1-15 .69-.7 1.5-5.6 1.9-11 .39-5.5 1-10 1.4-10 .4-.25.57 1.2.37 3.3-1.8 19-2.3 21-3.7 23-1.5 1.2-2 2.8-1.8 5.5.21 2.3 2.1.15 2.1-2.4 0-1.4.39-2.3.87-2 2 1.3 4.3-3.3 4.3-8.8 0-3.1.31-5.6.68-5.6s.62-3.3.55-7.2c-.19-11-.1-10-2-8.7-1.4 1.2-1.6 1-1.2-1.1.19-1.4.69-2.2 1.1-2s1.5-.85 2.4-2.5c1.8-3.4 2.8-10 1.4-10-1.4 0-1.9 2.4-1.4 5.6.42 2.4.28 2.7-.79 1.7-1.1-1-1.1-2.4.01-8 .72-3.7 1.7-7.6 2.3-8.6 1.6-3 .07-3-1.7 0-.9 1.6-1.4 2-1.1 1s.56-2.5.56-3.3.4-1.2.89-.93c1.3.78 2.3-4.2 1.3-6-.63-1.1-1.3-.2-2.5 3.6-.92 2.8-1.7 5.8-1.7 6.6 0 .8-.44 1.2-.99.84-.56-.35-.73.05-.39.93.32.85.99 1.3 1.5 1 .5-.31.9.12.9.94 0 .83-.39 1.7-.87 2-.47.29-.76 1.6-.63 2.8.12 1.2.03 1.5-.21.51-.24-.98-.82-1.5-1.3-1.2-1.2.72-.39-7.9.93-10 .58-1.1.81-2.6.5-3.5s-.07-1.8.54-2.2c.61-.38.87-1.7.58-2.8-.29-1.2-.27-1.6.06-.87.83 1.8 3.3-1.6 3.4-4.6.02-1.3.72-3.6 1.6-5.2.83-1.6 1.1-3 .62-3-.98 0-2.6 3.7-3.7 8.5-.6 2.6-.8 2.7-1.4 1-.52-1.4-1-.36-1.9 4-1.3 6.4-3.1 11-3.1 7-.04-4-1.9.07-2.7 5.9-.8 5.8-.86 5.9-2.7 4-1.6-1.6-1.8-2.8-1.2-8.4.34-3.6.68-8.6.76-11 .1-3 .31-3.7.66-2l.52 2.5.83-2.5c.82-2.5.56 1.3-.55 8-.23 1.4-.67 4.8-.98 7.5l-.57 5 1.5-4c2.1-5.5 2.9-15 1.6-20-.58-2.1-.67-3.5-.2-3.2.93.57.65-4.5-.49-8.8-.47-1.8-.34-2.8.38-2.8.61 0 1.1.79 1.2 1.8.02 1.3.35 1.2 1.4-.71.86-1.6 1.1-3.2.55-4.6-.44-1.2-.66-4.6-.48-7.5.27-4.5.15-5-.73-2.9-.57 1.4-1.7 4-2.5 5.9s-1.7 6.9-2 11c-.33 4.8-.93 7.6-1.5 7.2-.57-.35-.74-2.7-.4-5.6.33-2.8.14-5.8-.42-6.9-.76-1.4-.62-2.3.53-3.4 1.9-1.9 2-3.5.14-2.8-1.5.59-3 5-2.1 6.3.29.47.07 3.3-.49 6.2-1.1 5.9-.39 12 1.1 9.7.63-.98.92-.51 1 1.6.16 3.7.11 10-.09 14-.13 2.2-.24 2.3-.9.58-.79-2-4.1-3.1-4.1-1.4 0 .56.63.77 1.4.48 1.7-.64 2.4 2.8 2.1 9.6-.12 2.6.17 4.8.66 4.8.48 0 .88-.97.88-2.2 0-1.2.27-1.9.61-1.6.95.96-.7 13-1.7 12-.49-.31-.9-.08-.9.5s.45 1.1 1 1.1 1 .5 1 1.1c0 .62-.77.84-1.8.49-1.4-.49-1.4-.3.25.96 1.8 1.4 1.8 1.6.33 2.5-1.5.87-1.5 1.2-.12 4 1.2 2.5 1.3 3.8.42 6.9-1.5 4.9-1.4 7.1.42 9.5 1.4 1.8 1.4 1.8.84-1.3-.45-2.2-.18-3.8.86-5 1.6-1.8 3.3-6.2 2.9-7.5-.12-.46.2-.57.72-.25s1.2.02 1.5-.67c.33-.69.33.09.01 1.7s-1.4 3.9-2.4 5-2.1 3.4-2.5 5c-.59 2.8-.5 2.8 1.5-.84 2.5-4.6 3.3-4.4 2 .4-1.2 4.3-1.2 5.2.02 4.4.55-.34 1-1.6 1.1-2.8.05-1.3.3-1.6.63-.81.3.77-.94 4.5-2.8 8.2-3.5 7.2-5.2 8.8-2.5 2.4 2-4.8 2-8 .06-4.5-.79 1.4-1.5 3.2-1.5 4-.03.82-.78 2.4-1.7 3.5l-1.6 2 .71-2c.38-1.1.92-3.4 1.2-5 .45-2.7.32-2.6-1.4 1-1.1 2.3-1.6 4.4-1.1 5 .48.52.89 2.1.91 3.5l.03 2.6 1.5-2.5c1.1-1.8 1.4-1.9.9-.5-1.4 4.4-1.7 7.5-.73 7.5.56 0 1.3-1.2 1.7-2.7zm-14-.64c.58.36.22-.77-.81-2.5-1.8-3-1.9-3.1-2.7-1-.49 1.3-.33 2.7.44 3.6.8.96 1.4 1.1 1.6.36.2-.61.85-.82 1.4-.46zm44-2.9c.01-.96-.43-1.8-.98-1.8s-.99 1.5-.98 3.2c.01 2.5.24 2.9.98 1.8.53-.82.98-2.3.98-3.2zm-6.3-.48c-.25-.97-.47-.42-.5 1.2-.02 1.6.19 2.4.47 1.8.27-.68.29-2 .03-3zm-6-1c-.25-.97-.47-.42-.5 1.2-.02 1.6.19 2.4.47 1.8.27-.68.29-2 .03-3zm-115-7.1c.02-2.4-.37-4-.89-3.7-.51.31-.72 1.7-.46 3.2s.08 3.1-.4 3.7c-.47.63-.91 2.3-.97 3.6l-.12 2.5 1.4-2.5c.78-1.4 1.4-4.4 1.4-6.8zm110 5.3c0-3-1.6-3.3-2.3-.55-.42 1.6.06 2.4 2 3 .14.04.25-1 .25-2.4zm-27-2.2c-.25-.97-.47-.42-.5 1.2-.02 1.6.19 2.4.47 1.8.27-.68.29-2 .03-3zm40-1c-1.2-1.2-1.7.65-.96 2.9l.81 2.3.36-2.3c.21-1.3.11-2.6-.21-2.9zm-9.7-.56c-.09-3-.14-3.1-.9-.69-1.2 3.6-1.2 5.2 0 4.5.55-.34.96-2 .9-3.8zm22 .24c-.94-1.5-2.4-1.1-1.8.56.31.83.98 1.2 1.5.94s.65-.99.34-1.5zm-15-3.8c0-2.1-.66-5.4-1.5-7.2-1.5-3.4-1.5-3.4-1.5 3.9-.03 5.8.26 7.2 1.5 7.2 1.1 0 1.5-1.1 1.5-3.9zm-204 .64c-3.4-2.8-5.1-10-3.8-16 1.2-5.2-.16-9.3-3-9.3-1.3 0-2-.63-1.9-1.8.05-1 .28-1.2.58-.5.59 1.5 3.3 1.7 3.3.3 0-.52-.71-1.4-1.6-1.8-2.2-1.2-1.5-6.6.83-7 1.1-.21 1.8.28 1.8 1.2 0 .86.47 1.6 1 1.6s2.7 1.2 4.8 2.6c3.8 2.7 3.6 2.8-.99.49-3.6-1.8-5.8-.88-5.2 2.1.85 3.9 2.6 6.8 3.6 6.1.64-.4.77.6.35 2.8-.41 2.1-.32 2.9.23 2 .72-1.1 1.1-.97 2 .69.93 1.7.78 2.2-.89 2.7-1.6.5-2 1.5-2 4.8 0 5.2 2.5 9.3 4.6 7.6 1.5-1.3 1.8-.24.8 2.5-.8 2.1-1.4 2-4.6-.67zm208 1.2c0-.55-.42-1-.94-1s-1.2.45-1.6 1 .08 1 .94 1 1.6-.45 1.6-1zm-189-3.4c-.89-1.9-1.9-5-2.3-7.1l-.68-3.7-2.4 2.2c-1.4 1.3-2.4 1.7-2.4 1 0-.68-.45-.96-1-.62s-.99.25-.98-.19c.01-.45 1.5-1.5 3.2-2.3 2.8-1.3 3.2-2 3.2-5.2 0-2 .28-3.5.63-3.3.34.21.89-.92 1.2-2.5.34-1.7 1.4-3.2 2.6-3.6 1.1-.36 1.8-1.1 1.5-1.6-.38-.61-1.1-.54-2 .19-1 .87-1.4.88-1.4.03 0-.63 1.1-1.6 2.4-2.1 1.3-.51 2.7-1.4 3.1-2 .83-1.3 0-1.3-2.8 0-1.9.91-1.8.77.32-1 1.4-1.1 3.7-3.3 5.2-4.7 2.2-2.1 2.8-2.3 2.8-.94 0 1.4.36 1.5 2.1.6 2.2-1.2 3.6-3.7 2.6-4.7-.34-.34-1.5.2-2.6 1.2-1.4 1.3-2 1.4-2 .49 0-.84-1-.45-2.8 1.1-1.5 1.3-2.2 1.8-1.5.98 1.9-2.2 1.5-3-1.5-3.1l-2.8-.08 3-1.3c1.7-.74 3.6-2.6 4.3-4s1.5-2.5 1.7-2.2c.27.28-.48 2.2-1.7 4.2l-2.2 3.7 2.9-.68c1.6-.37 3.3-1.1 3.8-1.6 1.3-1.2 2.8-1.1 2 .13-.34.55-.4 1-.12 1 .27 0 1.5-1.8 2.7-4s2.8-4 3.5-4c.71 0 2-1.2 2.8-2.8s1.5-2.4 1.5-1.9c.02.44-.43 1.7-1 2.8-.59 1.1-.64 1.9-.1 1.9 1 0 2.2-2.4 2.8-5.4.41-2.1 1.1-3.1 1.7-2.5.23.23-.19 2.2-.93 4.3-1.2 3.6-1.2 3.8.29 2.3 1.2-1.2 1.7-3.7 1.8-8.8.16-5.9.57-7.5 2.4-9.3 1.2-1.2 2-1.6 1.6-.97-.35.65-.08 1.4.61 1.7.88.35.93.76.19 1.3-1 .8-3 7.2-3.8 12-.22 1.4-1.2 4.3-2.2 6.5-3.7 8.3-5.1 20-2.3 20 1.4 0 2.6-3.9 3.3-11 .97-8.7 1.6-11 2.6-11 .51 0 .92.72.92 1.6 0 1.1.54 1.4 1.6.99 1.3-.5 1.5-.15 1 1.7-.69 2.7 1 9.7 2.4 9.7.52 0 .95.71.95 1.6 0 2.3-2.4 1.2-2.8-1.3-.16-1.1-1.2-2.8-2.2-3.8-1.8-1.6-1.9-1.6-2.4.65-1.4 6.6-1.4 8.8-.44 9.1.6.2 1.2 1.9 1.2 3.8.12 3.6 2.2 6.2 4.3 5.5.67-.24 1.5 0 1.8.52.32.53 2.2.96 4.2.96 3.4 0 3.5.09 1.7 1.5-1.1.81-1.5 1.5-.88 1.5 2 .06 4.8-2.6 3.6-3.4-.63-.39-1.2-1.4-1.2-2.2 0-.82.45-1.2 1-.88.59.36 1-.71 1-2.6v-3.2l2.3 2.2c1.7 1.6 2.2 3 1.9 5-.23 1.6.07 3.2.67 3.6.61.37 1.1 1.2 1.1 1.7 0 .68-.54.61-1.5-.17-1.2-.99-2.2-.93-5.3.29-4.9 2-8.9 1.1-14-3-2.7-2.3-3.6-3.8-3.2-5.2.58-2.2.07-2.4-5.5-2.1-3.1.18-3.7-.11-3.7-1.6.11-3.1 2.4-13 3.2-14 .4-.4.73-1.4.73-2.2 0-.98-.78-.58-2.3 1.2-2.1 2.5-5.6 3.8-4.2 1.7.35-.56-.05-.73-.93-.39-.85.32-1.3.93-1.1 1.4 1 1.6-7.4 6.8-10 6.1-.55-.14-.66.09-.25.5.41.42-.67 3.3-2.4 6.3-2.3 4-3.2 6.9-3.2 10-.04 2.6-.42 4.8-.83 4.8s.19 2.4 1.3 5.2c3.4 8.7 3.2 9.7-.54 2.2-1.9-3.8-3.5-6.2-3.5-5.3 0 .93.84 3.2 1.9 5 2.4 4.2 3.5 7.8 2.4 7.8-.48 0-1.6-1.5-2.5-3.4zm125-2.2c-.99-.98-2.8.53-2.8 2.4 0 1.5.13 1.5 1.7-.03.93-.93 1.4-2 1.1-2.3zm-22-1.4c1.2-1.9-1.2-.99-3.1 1.2-1.9 2.1-1.9 2.1.29.99 1.2-.63 2.5-1.6 2.8-2.2zm9.8-1c1.2-.02 3.1-.72 4.2-1.6 1.9-1.4 1.7-1.5-2.3-1-2.4.26-4.9.97-5.6 1.6-.73.6-2.1.81-3 .47-.9-.34-1.6-.2-1.6.32 0 1.8 1.2 2.2 3.7 1.2 1.4-.52 3.4-.95 4.6-.97zm-109-2.2c-.32-1.2-.15-2.7.38-3.2.63-.63.97.17.97 2.2 0 3.7-.53 4.1-1.4.97zm63 1.4c.27-.44.13-1.4-.31-2.1-.58-.94-.94-.72-1.3.8-.52 2 .64 2.9 1.6 1.3zm38-3.5c.05-1.3-3.7 1.1-4.3 2.8-.5 1.3-.19 1.3 1.8-.22 1.3-.98 2.5-2.1 2.5-2.6zm42-2.2c-.34-1.4-1.3-2.5-2.1-2.5-2.1 0-1.9 4.7.27 5.9 2.1 1.2 2.7.06 1.8-3.4zm-22 1.2c.89-1.1.47-1.2-2.1-.85-2.8.4-2.9.58-1.2 1.2 1.1.43 2.1.81 2.1.85s.62-.53 1.2-1.2zm-39-.7c.33-.54 2.4-.98 4.7-.98 5.1 0 4.2 1.1-1.2 1.6-2.5.21-3.8-.04-3.5-.63zm35-1.5c1.6-.85 3.5-1.2 4.1-.85.71.44.85.25.39-.5-.41-.66-.02-2.3.87-3.6 1.4-2.2 1.4-2.5.08-2.5-.83 0-1.5.62-1.5 1.4s-.76 2-1.7 2.8c-1.5 1.2-1.6 1.2-1-.47.51-1.3-.38-.98-3.3 1.3-2.2 1.7-4 3.4-4 3.6 0 .93 3.3.33 6.1-1.1zm42-2.8c.04-.44-.38-.53-.93-.19s-.97 1.6-.93 2.8c.07 2.1.1 2.1.93.19.47-1.1.89-2.4.93-2.8zm37 .61c-1.1-1.7-2-2.3-2.2-1.5-.44 1.3 2.7 5.5 3.6 4.7.26-.26-.34-1.7-1.3-3.2zm-12 1.1c1.3-1.3 1.4-1.9.41-3-.96-1.2-1.4-1.2-2-.15-.86 1.4-1.2 4.8-.42 4.8.23 0 1.2-.72 2-1.6zm17-2.3c-.62-1.2-1.6-2.1-2.1-2.1-1.4 0-1.2 3.4.24 4.8 1.8 1.8 3.2-.2 1.9-2.7zm-97 1.1c0-1.6-.6-2.2-2.5-2.2-1.4 0-2.5-.44-2.5-.98s2-.89 4.4-.79l4.4.19-1.6 2.5c-.87 1.4-1.7 2.7-1.9 3-.16.23-.3-.56-.3-1.8zm-48-.37c-.66-.66-1.2-2.1-1.2-3.1 0-1.6.24-1.7 1.5-.64 2 1.7 3.2.46 4.3-4.6.78-3.3.95-3.5 1-1.2.08 2.3-3.2 11-4.2 11-.15 0-.82-.54-1.5-1.2zm123-5.5c-.23-1.5-.43-.51-.43 2.2-.01 2.8.18 4 .41 2.8.24-1.2.25-3.5.02-5zm-38 1.7c.35 0 .42.58.14 1.3-.3.79.37 1.3 1.8 1.4 1.2.07 1.7-.1 1-.37-.69-.26-1.2-1.5-1.2-2.8 0-1.5-.53-2.3-1.5-2.1-.84.12-1.5.61-1.4 1.1.07.47-.6 1.2-1.5 1.7s-1.6 1.4-1.6 2c0 .61.82.37 1.8-.55 1-.91 2.1-1.6 2.5-1.6zm20-.51c0-.82-.45-1.5-1-1.5s-1.1-1.9-1.1-4.2l-.14-4.2-.64 4.5c-.35 2.5-.94 5-1.3 5.5-.38.59.38 1.1 1.8 1.2 1.6.13 2.4-.33 2.4-1.3zm-5.9-2.1c.65-1.7.67-3.6.05-5.2-.67-1.8-.98-2.1-1-.79-.04.99-.54 1.5-1.1 1.2s-.75-1-.44-1.6c.32-.51.1-.93-.48-.93-1.4 0-1.3.7.69 4.2 1.3 2.3 1.4 3.2.5 3.5-1.5.53-1.7 2.3-.23 2.3.57 0 1.5-1.2 2-2.6zm-103-1.3c0-.52-.45-1.2-1-1.6s-1 .08-1 .94.45 1.6 1 1.6 1-.42 1-.94zm-7.4-2.6c-.34-.89-.62-3-.62-4.6 0-2.1-.41-2.9-1.3-2.5-.82.32-1.4-.43-1.5-2-.12-1.4-1.1-4-2.2-5.8-2.4-3.8-2.6-5.7-.44-2.9 1.5 1.8 1.5 1.7.99-2.1l-.57-4 1.4 3.1c.76 1.7 1.7 4.6 2.1 6.3s1.3 3.5 2.1 3.8c.78.3 1.4 1.4 1.4 2.5 0 1.1.4 1.7.89 1.4 1-.62 2.2 4.1 1.2 5-.34.33-.61 1.1-.61 1.7 0 1.8-2.2 2-2.9.21zm-49-.16c-1.4-.37-1.6-.76-.63-1.9 1.6-2 2.5-1.8 2.5.58 0 1.1-.01 2-.03 1.9-.02-.06-.85-.32-1.8-.58zm51-1.8c.11-1.4-.24-2.7-.79-3.1-1.1-.67-1.4 3.8-.31 4.8.91.91.87.97 1.1-1.8zm22-2.3c-.25-.97-.47-.42-.5 1.2-.02 1.6.19 2.4.47 1.8.27-.68.29-2 .03-3zm-106-.98c-.89-1.5-2.2-4.5-2.9-6.7-.68-2.1-1.5-3.4-1.9-2.8-.37.58-2 1.3-3.7 1.6-3 .52-3.1.39-4.2-4.5-.64-2.8-1.2-7.1-1.2-9.5v-4.5l-5.8 6.2c-3.2 3.4-5.9 6.5-6.1 7-.48 1.2 6.9 5.9 8.4 5.3.76-.3 2.2-.2 3.1.21 1.4.6 1 .94-1.8 1.7-5.2 1.4-6.7 1.2-10-1.4-4-3.2-3.8-5.8.6-8.8 2-1.4 5.3-4.7 7.4-7.5 3.2-4.3 3.9-6.3 5-14 .68-4.8 1.6-8.5 2.1-8.2s1.1-.51 1.5-1.8c.39-1.2 1.2-2.5 1.7-2.9.61-.39.55-.89-.14-1.3-.64-.4-1.5.29-2 1.6-.68 1.8-.85 1.2-.75-2.7.12-4.7-.85-7.6-4.4-13-1-1.7-1.1-2.5-.29-3 .71-.45 1.2-4.4 1.2-10 .07-8-.18-9.8-1.4-9.8-.81 0-1.5-.4-1.5-.89s.79-.83 1.8-.75c1.3.11 2-1 2.7-4.6.5-2.6 1.3-4.8 1.8-4.8s.66.37.38.82c-1.6 2.6-2.5 18-1.6 27 .9 8.7 1.5 11 6.1 20 2.8 5.4 4.8 10 4.5 10s-.58-.03-.58-.78c0-.91-.33-1-1-.37-1.2 1.2 2.2 12 3.5 11 .45-.41.48.37.08 1.8-1.1 3.7-1.5 10-.54 9.4.46-.47 1-2 1.3-3.4s.3-.25.11 2.5c-.26 3.6-.08 4.6.65 3.5s.84-.5.4 2.1c-.81 4.7 1.1 15 3.2 17 .91 1 1.4 2.1 1.1 2.4-1.2 1.2-3.9-4.6-5.2-11l-1.4-6.9-.1 6.3c-.05 3.5.39 7.2.97 8.3 1.7 3.2.59 4.2-1.2 1.2zm192-3c-.25-.97-.47-.42-.5 1.2-.02 1.6.19 2.4.47 1.8.27-.68.29-2 .03-3zm36-7.8c.29-6.2.16-10-.3-9-.8 1.9-1.4 21-.6 20 .21-.23.61-5.4.9-11zm-6.3 8.2c-.01-1.8-.2-2-.98-.75-.8 1.2-.97 1.2-1-.5-.02-1.6-.23-1.7-.92-.6-.54.86-.44 1.9.27 2.7 1.7 2 2.6 1.7 2.6-.86zm2.9-2-.1-4.2-.82 3.5c-.75 3.2-.54 5 .58 5 .24 0 .39-1.9.34-4.2zm-34-2.6c.02-1.3-.41-2-.97-1.7-.58.36-1-.67-1-2.5 0-1.7-.61-4.3-1.4-5.8-.74-1.5-1.3-5-1.1-7.7.11-2.7-.15-5.7-.57-6.5-3.7-7.1-4.6-10-4.6-14 0-2.6-.29-5.1-.65-5.4-1.1-1.1-.69-2.3.86-2.3.82 0 1.5-.34 1.6-.75.05-.41.2-1.8.35-3.2.14-1.3 1-3 2-3.7 1.1-.79 1.4-1.8.97-2.6-.43-.7-.69-2.8-.57-4.6.26-3.8-.79-4.1-6.8-1.7-2.2.89-4.9 1.4-6 1.1-1.1-.29-2-.23-2 .13-.02.64 1.5 7.1 6 25 1.2 4.7 2.9 12 3.9 17s2.5 10 3.3 12c.81 1.9 1.8 5.3 2.2 7.5.42 2.2.98 4.4 1.3 4.8.79 1.3 3.2-2.5 3.3-5.1zm7 3.1c0-1.2-.28-1.3-1.5-.27-.82.68-1.5 1.6-1.5 2.1 0 .47.68.59 1.5.27.82-.31 1.5-1.3 1.5-2.1zm-162-.27c0-.82.39-2.4.86-3.5.54-1.3.86-1.4.86-.5 0 .82-.39 2.4-.86 3.5-.54 1.3-.86 1.4-.86.5zm196-3.1c0-1.6-.45-2.9-1-2.9s-1 1.6-1 3.6c0 2.1.4 3.3 1 2.9.55-.34 1-1.9 1-3.6zm-28 .56c.03-1.6.25-2.2.5-1.2.26.97.24 2.3-.03 3-.28.68-.49-.12-.47-1.8zm18-2.8c.16-4 .1-4-.85-1.5-.84 2.3-.61 5.7.4 5.7.15 0 .36-1.9.45-4.2zm-223-6.5c-.23-1.5-.42-.27-.42 2.8s.19 4.3.42 2.8.23-4 0-5.5zm-4 4.9c3.1-1.9 3.8-23 1-29-.76-1.6-1.2-3.6-.99-4.5.22-.94-.07-2.5-.64-3.5-.93-1.6-1-1.6-1.1-.11-.02.91-.49 1.8-1.1 2-.56.18-1.3 2.4-1.6 4.8-.29 2.5-.97 6.5-1.5 8.9-1.3 5.7-.12 18 1.9 20 1.7 2 2.2 2.1 3.9.94zm239-5.9c.35-3.8.2-6.2-.38-6.2-.53 0-.96 3-.96 6.7 0 8.1.55 8 1.3-.42zm3.2 1c-1.1-1.1-1.8.64-1.1 2.4.74 1.7.8 1.7 1.2-.04.24-1 .17-2.1-.15-2.4zm-31 .99c.04-.96.41-2.6.83-3.7.72-1.8.8-1.8 1.4.35.67 2.6-.01 5.1-1.4 5.1-.49 0-.86-.79-.82-1.8zm17-3.1c-.06-2.4-.16-2.5-.93-.69-1.2 2.8-1.2 4.7 0 4 .55-.34.97-1.8.93-3.3zm20 .08c-.25-.97-.47-.42-.5 1.2-.02 1.6.19 2.4.47 1.8.27-.68.29-2 .03-3zm5.4 1.1c-.87-1.5-1.1-1.6-1.1-.25-.03 1.7 1 3.2 1.7 2.5.23-.24-.05-1.2-.64-2.2zm-187 .61c0-.58-.45-.78-1-.44s-1 .11-1-.5-.5-.81-1.1-.43c-.77.47-.69.94.25 1.5 1.8 1.2 2.9 1.1 2.9-.17zm160-5.8c-.04-1.1-.4-.91-1.2.65-.6 1.2-1.5 2.2-1.9 2.2-.47 0-.85.52-.85 1.2 0 .66.87.38 2-.65 1.1-1 2-2.5 1.9-3.4zm-148 .15c.81-5.2 1.3-5.4 1.3-.42 0 2.3-.42 4.2-.94 4.2s-.68-1.7-.36-3.8zm116 .55c-.93-.93-1.2-.67-1.2 1.2s.27 2.1 1.2 1.2.93-1.5 0-2.4zm39-7.6c.25-2.4.09-4-.35-3.5-.45.46-1.1 3.8-1.4 7.3-.63 7.3.9 3.9 1.7-3.8zm-34 6.8c1.1-3.5 1.4-12 .44-13-.54-.33-.94 1.6-.94 4.5 0 2.9-.4 4.9-.93 4.5-.52-.32-.9.78-.85 2.4.1 3.4 1.3 4 2.3 1zm52-2.4c1.2-4.9 1.4-7.2.56-6.3-1 1-3.3 11-2.5 11 .44 0 1.3-2 1.9-4.4zm-22-.29c-.25-.97-.47-.42-.5 1.2-.02 1.6.19 2.4.47 1.8.27-.68.29-2 .03-3zm7-6.2c-.24-1.3-.05-3.8.43-5.4.64-2.2.58-2.7-.23-1.9-.6.6-1.2 4.8-1.4 9.4-.27 7.1-.17 7.7.67 4.3.54-2.2.79-5.1.54-6.4zm7.3.44c.16-4-1.8.09-2.3 5l-.55 5 1.4-4c.77-2.2 1.4-4.9 1.5-6zm-167 2.4c1.1-5.2 2.5-7.2 1.8-2.5-.33 2.2-1 4.4-1.6 5-.63.65-.72-.22-.25-2.5zm163-5.5c-.04-4.3-.15-4.6-.81-2-1.1 4.4-1.1 12 0 9 .47-1.1.84-4.2.81-7zm-23 .25c.92-3.8-.2-3.4-1.9.72-1.9 4.5-1.9 8.1-.05 4.5.73-1.4 1.6-3.7 2-5.2zm-11 4.2c0-1.1-.17-2-.38-2s-.62.9-.91 2-.11 2 .38 2c.5 0 .91-.9.91-2zm19-1.1c-.61-1.1-1.3-1.9-1.6-1.6-.7.7.71 3.7 1.7 3.7.51 0 .43-.94-.19-2.1zm41-5.6c0-3-2.9.82-3.6 4.8l-.62 3.5 2.1-3.3c1.2-1.8 2.1-4 2.1-5zm-67 2.2c0-3-.43-4.5-1.3-4.5-1.9 0-3.7 3.4-2.7 5.1.7 1.1.89 1 .9-.51.03-3.3 1.5-.47 1.9 3.7.05.41.3.75.58.75s.5-2 .5-4.5zm-5.9-1.2c-.48-1.7-.72-5.2-.54-7.9.18-2.7.09-3.8-.2-2.5-.41 1.9-.73 2.1-1.4 1-1.5-2.4-1.1 2.7.71 8.2 1.7 5.3 2.9 6.3 1.5 1.2zm58 .81c-.32-1-.14-3 .41-4.5s.71-3.4.35-4.3c-.53-1.4-.8-1.3-1.6.74-.55 1.3-.91 3.1-.81 3.9.39 3.2 1.2 6 1.7 6 .3 0 .28-.84-.05-1.9zm9.2-1.9c-.25-.97-.47-.42-.5 1.2-.02 1.6.19 2.4.47 1.8.27-.68.29-2 .03-3zm-34-.85c-.99-.98-2.8.53-2.8 2.4 0 1.5.13 1.5 1.7-.03.93-.93 1.4-2 1.1-2.3zm-10-4.9c.53-1.7.99-5.9 1-9.5l.05-6.5-.72 5c-.39 2.8-.83 4.1-.97 3-.5-3.8-1.9 2.6-1.9 9-.03 6 .31 5.9 2.5-1zm46-.12c-.21-5.5-1.2-5.4-1.2.14 0 2.7.3 4.5.66 4.2.37-.36.6-2.3.53-4.3zm10 1.1c-.52-4.5-1.9-5.4-2.8-1.8-.38 1.5-1.2 3.1-1.8 3.5-.69.46-.46.75.58.75 1.1.01 1.8-.98 2.1-2.7.39-2.6.43-2.5.57.5.08 1.8.51 3.2.95 3.2s.61-1.6.39-3.5zm-132-.99c.03-1.6.25-2.2.5-1.2.26.97.24 2.3-.03 3-.28.68-.49-.12-.47-1.8zm3 1.5c0-.82.39-2.4.86-3.5.54-1.3.86-1.4.86-.5 0 .82-.39 2.4-.86 3.5-.54 1.3-.86 1.4-.86.5zm56-.57c.52 1.4.81 1.6 1.2.5.28-.79-.32-2.2-1.3-3.2-1.8-1.7-1.8-1.6-1.7 1.5.07 2.2.28 2.6.63 1.2.51-2 .54-2 1.2-.07zm46 .8c-.63-.4-1.3-1.6-1.5-2.6-.21-1-1.1-2-2-2.2-1.1-.15-1.5.26-1.2 1.2.3.77.94 1.2 1.4.85.5-.31.9.37.9 1.5 0 1.3.64 2 1.8 2s1.3-.28.62-.75zm20-4c-.25-.96-.46-.18-.46 1.8s.21 2.7.46 1.8.25-2.5 0-3.5zm10 .31c0-.58-.48-1.7-1.1-2.6-.83-1.2-.92-1-.43.71.34 1.2.12 3.2-.49 4.5-1.1 2.2-1 2.2.44.35.86-1.1 1.6-2.4 1.5-3zm-201 2.1c0-.72.68-2.2 1.5-3.2 1.2-1.6 1.4-1.6.9-.19-.36 1-.12 1.8.56 1.8.77 0 .65.53-.32 1.5-1.8 1.8-2.6 1.9-2.6.19zm122-4.8c.64-2.8 1.1-6.5 1.1-8.2-.06-2.8-.19-2.9-1-1.2-.78 1.6-.87 1.5-.51-1 .25-1.6-.22-4.1-1-5.5-1.4-2.3-1.4-2-.98 5 .27 4.1.26 6.9-.03 6.2s-.94-1-1.4-.68-.26 1.5.59 2.7c.83 1.2 1.5 3.1 1.4 4.2-.07 2-.08 2-.93.03-.72-1.7-.87-1.5-.93 1.2-.11 5 2.4 3.1 3.8-2.8zm33 2.8c.01-.44-.43-.53-.98-.19s-.99 1.4-.98 2.3c.01 1.5.14 1.5.98.19.53-.82.98-1.9.98-2.3zm-10-2.4c-.25-.96-.46-.18-.46 1.8s.21 2.7.46 1.8.25-2.5 0-3.5zm21-4.7c.56-.59.91-.2.92 1 0 1.5.32 1.3 1.5-.91 1.8-3.6 1.8-3.7-.01-3-.87.33-1.5 0-1.6-.78-.18-3-3.9 6.9-3.8 10 .08 3.4.11 3.4 1.1-1 .54-2.5 1.4-4.9 1.9-5.4zm-51-3.3c-1.2-1.2-2.4 1.3-3 6.2l-.62 5 2.1-5.3c1.2-2.9 1.8-5.6 1.5-5.9zm44 5.9c.05-2.8.26-3.2.83-1.7.71 1.8.81 1.8 1.4-.5.94-3.5.85-4-.77-4-1.5 0-3.9 6.6-3 8.2.28.46.01.84-.6.84s-.84.46-.49 1c1.2 1.9 2.5-.11 2.6-3.8zm-96 2.1c-.04-.64-.34-2-.66-3-.54-1.7-.51-1.7.58-.04.63.98.92 2.3.65 3-.36.87-.51.88-.57.04zm63-4.1c.36-2.3.25-4.2-.25-4.2-1.1 0-2.4 6.7-1.6 8.1.89 1.4 1.1 1 1.8-3.8zm20-2.8c0-3.1-.19-3.6-.86-2-.47 1.1-.86 3.8-.86 6 0 3.1.19 3.6.86 2 .47-1.1.86-3.8.86-6zm23 2.8c-.83-1.4-1-1.1-1 1.8s.19 3.2 1 1.8c.69-1.2.69-2.3 0-3.5zm23 0c-.4-1.7-.46-1.7-1.2 0-.42.96-.42 2.5 0 3.5.72 1.7.78 1.7 1.2 0 .23-.96.23-2.5 0-3.5zm-189 .92c0-1.7.64-3.2 1.5-3.5.82-.32 1.5-.14 1.5.39s-.5.97-1.1.97-.88.88-.59 2c.29 1.1.11 2.2-.38 2.6-.5.31-.91-.77-.91-2.4zm150 .77c0-1.1-.45-1.8-1-1.4s-1 1.3-1 2.1.45 1.4 1 1.4 1-.93 1-2.1zm36-6.2c-.24-1.2-.44-.23-.44 2.2s.2 3.5.44 2.2c.23-1.2.23-3.3 0-4.5zm-36-2.4c0-2.7-1.8-1.2-3.4 2.7-2.2 5.5-2 5.9.89 2 1.4-1.9 2.5-4 2.5-4.7zm-9.3 1.9c1.5-4 3.1-12 3.8-19l.49-4.5-2 5c-1.1 2.8-2 5.6-2 6.4 0 1.1-.3 1.2-1.1.34-.79-.79-.81-2.1-.07-4.4 1.2-3.8 1.2-18 .04-15-.41 1.1-.56 3.9-.35 6.3.22 2.4.01 4.8-.46 5.3-1.2 1.4-2.1 7.5-1.1 7.5.4 0 .53 3.9.29 8.8-.45 9 .19 9.9 2.5 3.5zm-86-1.1c-1.3-2.8-3.3-5.6-4.6-6.2s-2.1-1.4-1.9-1.6c.22-.23 1.4.09 2.5.7 1.8.96 2.1.84 2.1-.86 0-1.1-1-2.7-2.2-3.5-1.2-.86-1.7-1.6-1-1.6s1.6.56 2.2 1.2c3.9 4.7 5.9 7.6 7 9.8 1.1 2.2.93 2.1-1.3-.5-2.4-2.9-2.6-2.9-2.6-.71-.02 1.2.7 3.4 1.6 4.8.89 1.4 1.4 2.7 1.1 3s-1.6-1.7-2.8-4.5zm98 1.5c.45-1.9.32-2.6-.36-2.2-.57.35-1 1.8-1 3.2 0 3.1.48 2.8 1.4-1.1zm-87 .58c-.84-.96-2.1-2.9-2.8-4.2-.95-1.9-.53-1.7 1.8 1 2.7 3.1 3.8 5 2.8 5-.18 0-1-.79-1.9-1.8zm114-2.8c0-1.7-.17-1.7-.97-.5-.53.82-.97 2.4-.97 3.5 0 1.7.17 1.7.97.5.53-.82.97-2.4.97-3.5zm-106 1c.08-5.1 1.2-8 3.3-8.3 1.6-.29 1.8-.11.65 1.2-.71.86-1.9 3.5-2.6 5.8-1.2 3.8-1.3 3.9-1.3 1.3zm94 0c0-1.4-.17-2.5-.38-2.5s-.6 1.1-.86 2.5c-.27 1.4-.1 2.5.38 2.5.47 0 .86-1.1.86-2.5zm20-1.7c-1-2.1-1.1-2.1-1.2 1.2-.05 2.6.21 3.2 1.1 2.3.86-.86.88-1.8.07-3.4zm-11-2.1c.29-2.7.18-4.5-.23-4-1 1.1-2 8-1.3 8.8.86.85.94.59 1.5-4.8zm-173 3.4c-.02-.78 1.1-3.3 2.4-5.6s2.7-5.3 2.9-6.6c1.1-5.6 2.8-8.8 4.6-8.6 2 .15 2.1-.2-2.7 8.1-1.6 2.8-1.6 6.3-.01 6.9.81.3.56.75-.71 1.3-1.1.44-3 2-4.2 3.4-1.4 1.6-2.3 2-2.3 1.2zm152-3.6c.08.55.63.18 1.2-.83.59-1 .8-2.1.47-2.4-.32-.33-.59-.07-.59.57 0 .65-.68 1.2-1.5 1.2-1 0-1.5.98-1.4 3.2l.12 3.2.76-3c.42-1.6.83-2.6.91-2zm9.7-2.8c-.26-.64-.51-.12-.55 1.2s-.46 2.1-.94 1.8c-.47-.29-.61.69-.32 2.2l.53 2.7.88-3.3c.48-1.8.66-3.9.4-4.5zm-43 5.3c0-.58-.45-.78-1-.44-1.5.93-1.2-4.7.36-7 .75-1.1 1.6-3.8 2-6l.65-4-1.5 3.4c-.82 1.8-1.3 3.7-1 4.2.28.44.01.97-.6 1.2-.61.2-1.4 2.5-1.6 5.1-.44 3.9-.25 4.7 1.1 4.7.9 0 1.6-.48 1.6-1.1zm39-2.7c-.25-.97-.47-.42-.5 1.2-.02 1.6.19 2.4.47 1.8.27-.68.29-2 .03-3zm12-1.1c.04-.72-.38-1-.93-.69s-.97 1.8-.93 3.3c.06 2.4.16 2.5.93.69.47-1.1.89-2.6.93-3.3zm-26 0c.01-.72-.43-1-.98-.69s-.99 1.6-.98 2.8c.01 1.8.19 1.9.98.69.53-.82.98-2.1.98-2.8zm37 1.6c-.01-1.8-.2-2-.98-.75-1.2 1.9-1.2 3 0 3 .55 0 .99-1 .98-2.2zm4.7-5c-.24-1.2-.44-.23-.44 2.2s.2 3.5.44 2.2c.23-1.2.23-3.3 0-4.5zm-54-1.5c-.83-1.4-1-.87-.99 2.7.04 4.2.12 4.3 1 1.8.67-1.8.65-3.3-.05-4.5zm-78-.97c-2.7-3-5-6.2-5.1-7.1-.1-.94-.75-3-1.5-4.7-.7-1.6-1.3-4-1.4-5.2-.08-1.2-.71-2.2-1.4-2.2-1.5 0-1.7-2.6-.25-3.5.66-.41.6-1.4-.16-2.8-1.1-2-1-2.1.67-.69 1.7 1.4 1.8 1.3 1.3-.75-.42-1.6-.14-2.2.94-2.2 1 0 1.4-.65 1-2-.28-1.1-.2-2.1.18-2.2 1.5-.65 5-10 4-11-1.5-1.5-1.1-2.9.44-1.6 1.1.89 1.5.78 2-.52.35-.92.84-1.5 1.1-1.2s-.44 2.8-1.5 5.6c-1.1 2.9-2 6.3-2 7.6 0 1.3-.42 2.6-.94 2.7-.51.18-1.1 1.7-1.4 3.3-.25 1.7-.96 2.9-1.7 2.7-.82-.19-1 .31-.54 1.5.38.98.92 4.7 1.2 8.3.4 5.2.99 7 3.1 9.2 2.5 2.6 2 4.1-.56 1.6-.66-.66-1.2-.79-1.2-.28 0 .5 2.1 3 4.7 5.7s4.5 4.9 4.2 5.2-2.6-2-5.3-5zm95 2.1c0-.82-.45-1.2-1-.88s-1 1.3-1 2.1c0 .82.45 1.2 1 .88s1-1.3 1-2.1zm11 .1c.26-1.4.09-2.8-.38-3.1-.48-.3-.87.84-.87 2.5 0 3.7.59 4 1.2.54zm4 .05c.26-1.4.09-2.2-.38-1.9-.83.51-1.2 4.4-.48 4.4.21 0 .6-1.1.86-2.5zm-18-2.9c0-.62-.39-.51-.86.24-.46.73-1.2 1.3-1.7 1.2-.49-.07-1 .68-1.3 1.7-.34 1.7-.23 1.7 1.8-.1 1.2-1 2.1-2.4 2.1-3zm35-.35c-.25-.96-.46-.18-.46 1.8s.21 2.7.46 1.8.25-2.5 0-3.5zm-141 1.8c-4.6-2.7-4.5-4.8.21-4.2 3.3.45 3.4.57 1.1.86l-2.7.35 2.7 2.4c3.2 2.8 2.9 3-1.3.57zm118-2.4c.04-.44-.38-.53-.93-.19s-.97 1.6-.93 2.8c.07 2.1.1 2.1.93.19.47-1.1.89-2.4.93-2.8zm20-3c-.04-2.6-.35-3.4-.92-2.6-.48.76-.87 3.2-.87 5.4 0 2.8.27 3.6.92 2.6.51-.8.89-3.2.87-5.4zm-66 .47c-1.3-2.5-1.4-3.4-.17-2.7.5.31.66-.38.36-1.5-.42-1.6-.75-1.8-1.4-.75-1.2 1.9-1.1 4.7.37 6.3 1.7 1.8 2.2 1.2.83-1.3zm15-.9c-.06-3-.24-3.4-.93-1.8-1.2 2.8-1.2 5.5 0 5.5.55 0 .97-1.7.93-3.8zm-24-.3c.28-.33 1.3-.89 2.2-1.2 3-1.1 2.1-2.8-1-1.7-2.3.8-2.5.76-.91-.27 4.6-3.1 4.6-3 4-9l-.62-5.8-2.8 2.7c-1.6 1.5-2.9 2.2-2.9 1.5s.66-1.5 1.5-1.8c.81-.31 1.7-1.4 2.1-2.4s1.1-1.8 1.8-1.7c.82.16 1.2-2 1.3-6.8.08-3.8.22-7.8.3-8.9.22-2.6-.63-3.2-2.4-1.7-1.2 1-1.5.99-1.5-.25 0-1.8-4-3-6.7-2.1-1.5.53-1.6.4-.58-.7 2-2.2 1.4-3.1-.75-1.2-1.1.94-2 2.2-2 2.9 0 .64-.7 1.4-1.6 1.8-1.2.45-1.1-.1.52-2.3 2.9-4.1.89-4.8-3.9-1.4-3.1 2.2-3.8 3.3-3.5 5.3.22 1.4.91 6.6 1.6 12 .63 5 1.6 9.6 2.2 10 .55.69.76 2.2.47 3.3-.47 1.8.34 6.4 1.9 11 .36 1 .95.48 1.9-1.8 1.1-2.6 1.9-3.2 4.3-3.2 3.9 0 4.4 1.9 1.2 4.7l-2.6 2.3 3-1.2c1.6-.69 3.2-1.5 3.5-1.8zm27-5.2c.17-2.6.02-4.8-.32-4.8-1.1 0-2 7.9-1.2 11 .82 3 .97 2.4 1.5-6zm30 6c.03-1.2.41-3.8.85-5.6.53-2.2.46-3.2-.22-2.7-1.3.78-2.6 8.2-1.7 9.6.9 1.5 1 1.3 1.1-1.2zm14-1.6c.01-.72-.43-1-.98-.69s-.99 1.6-.98 2.8c.01 1.8.19 1.9.98.69.53-.82.98-2.1.98-2.8zm-30-2c1.7-4.8 1.7-6-.1-4.2-1.5 1.5-3.5 10-2 8.7.45-.42 1.4-2.4 2.1-4.5zm19 .77c.46-2.5.36-3.1-.34-2-.54.82-.99 2.6-.99 3.9-.03 3.2.54 2.4 1.3-1.9zm25-7.8c.55-2.2.49-2.2-1.2-.52-1.4 1.4-1.7 3-1.4 7.3l.42 5.5.78-5c.43-2.7 1-6 1.4-7.3zm-285 9.8c0-.55.67-1 1.5-1s1.5.45 1.5 1-.67 1-1.5 1-1.5-.45-1.5-1zm195-.39c2.4-1.8 2.2-2.8-.49-2.4-1.2.18-2.4 1.1-2.6 2.1-.4 2.1.65 2.2 3.1.36zm74-1.4c-.06-2.4-.17-2.5-.88-.75-.44 1.1-.6 2.3-.37 2.8.85 1.5 1.3.71 1.2-2zm-24-2.2c-.72-2.8-1.3-2.5-1.3.56 0 1.4.41 2.3.91 2 .49-.31.67-1.5.38-2.6zm9.6-.31c-.07-2.1-.1-2.1-.93-.19-1.2 2.8-1.2 3.7 0 3 .55-.34.97-1.6.93-2.8zm-254 1.1c-.02-.92-.72-2.4-1.6-3.2-.93-.94-1.1-1.8-.5-2.1.56-.34 1-.35 1-.02 0 .32.9.11 2-.48 2.4-1.3 2.5-.38.54 4.1-.8 1.8-1.5 2.6-1.5 1.7zm152-2c-.59-2-.57-4.8.07-7.5 1.1-4.6 2-5.4 2.9-2.6.32.96 1.6 3 2.8 4.6 2.1 2.6 2.2 3 .76 5.5-2.3 4-5.4 4.1-6.6.05zm-25-.6c-2-3.1-2.4-11-.98-18 .83-4.2.77-4.4-.84-3.1-1.1.87-1.5 2.2-1.2 3.5.59 2.4-6.5 12-8.9 12-.77 0-3 1.4-5 3.1-2 1.7-3.8 2.9-4.2 2.5-.67-.67 7.1-8.5 13-13 1.9-1.5 2.7-2.4 1.8-2.1-2 .69-2.4-1.2-.41-2.3.74-.44 1.9-2.4 2.6-4.3 1.6-4.5 2.4-24 1.1-26-.62-1.2-.63-2.1-.03-2.4 1.5-.91 2.5 6 2.5 17 0 6.9.28 9.2.99 8 .54-.95.99-6 1-11 .02-10-1.7-17-4-17-.91.35-1.4-.15-1.4-1.4 0-3 1.4-2.4 3.8 1.8 1.2 2.2 2.4 6.7 2.8 11l.69 6.8 4.3-4.2c2.4-2.3 4.1-4.6 3.8-5-.25-.41.01-1.8.58-3.1 1-2.3 1-2.3.59-.09-.24 1.2-.02 2.5.49 2.8.5.31-.89 2.4-3.1 4.8s-4 5-4 6-.74 3.2-1.6 5c-1.1 2.2-1.3 3.3-.5 3.5.62.21 1.1 1.4 1.1 2.5-.07 2.1-.1 2.1-.89.17-.71-1.7-.92-1.8-1.5-.4-.87 2.1-.2 24 .79 26 1.6 2.6-1.2 1.1-2.9-1.5zm121-2c.01-1.2-.42-2.2-.95-2.2s-.91 1.6-.84 3.5c.15 3.8 1.8 2.7 1.8-1.3zm-193 2c.35-.68.83-2.2 1.1-3.4.53-2.8 1.1-3.3 1.7-1.6.29.74-.37 2.4-1.5 3.8s-1.7 1.9-1.3 1.2zm109-2.2c0-1.6.38-3 .83-3 .46 0 .84 1.4.84 3s-.38 3-.84 3c-.45 0-.83-1.4-.83-3zm49 0c0-1.6-.17-3-.39-3-.21 0-.58 1.4-.82 3-.25 1.6-.07 3 .38 3 .46 0 .83-1.4.83-3zm10-4.5c.4-4.6.29-6.3-.3-5-.87 1.9-1.5 13-.68 12 .2-.23.65-3.6.98-7.4zm43 4.3c0-1.6-.3-1.9-1.1-1.1-.61.61-.81 1.6-.44 2.2 1 1.7 1.6 1.3 1.6-1.1zm-59-4.2c-.78-5.2-2.6-6.1-2.5-1.3.01 2.5.24 2.9.98 1.8.73-1.1.97-.66.98 1.9.01 1.9.3 3.1.64 2.8s.31-2.7-.06-5.2zm30 4c0-.78.23-2.2.52-3.2.28-1-.15-.48-.96 1.2s-1.5 2.4-1.5 1.6c-.03-.78-.32-1.1-.65-.81-.77.77.42 2.7 1.7 2.7.52 0 .94-.64.94-1.4zm-61-1.7c-1.5-.55-2-1.4-1.6-2.6.47-1.4.38-1.5-.45-.34-1.4 2 .38 5.2 2.5 4.3 1.4-.53 1.3-.75-.5-1.4zm44-2.6c-.25-.96-.46-.18-.46 1.8s.21 2.7.46 1.8.25-2.5 0-3.5zm33 1c.41-1.4.26-2.2-.38-2.2-.59 0-1.1.64-1.1 1.4s-.29 2.2-.65 3.2c-.44 1.2-.32 1.5.39.83.57-.55 1.3-2 1.7-3.2zm-7.1-5.2c.39-3.4.29-4.9-.26-4-.49.82-1.2 4-1.6 7-.41 3.5-.31 4.9.26 4 .5-.82 1.2-4 1.6-7zm26 2.8c-.24-1.2-.45-.46-.46 1.7s.19 3.2.44 2.3c.25-.95.26-2.8.02-4zm-272 1.8c.18-1.4.78-2.6 1.3-2.6 1.5.04 1.2 4.3-.33 4.8-.92.31-1.2-.35-1-2.2zm236-3.1c.47.29 1.2.01 1.6-.64.45-.73.29-.9-.44-.46-.7.44-1.2.01-1.2-1.1-.06-1.6-.16-1.6-.93.19-.47 1.1-.82 3.1-.78 4.5.07 2.3.11 2.3.5-.27.23-1.5.8-2.5 1.3-2.2zm-181 1c0-.82.66-1.5 1.5-1.5.89 0 1.2.59.89 1.5-.31.82-.98 1.5-1.5 1.5s-.89-.68-.89-1.5zm187-6.5c.55 0 .72-.45.38-1-1.5-2.4-2.5-.6-2.3 4.2.17 5 .2 5.1.56 1 .21-2.3.84-4.2 1.4-4.2zm-15-.68c.65-6-.94-2.9-1.9 3.7-.46 3.2-.36 4 .36 2.8.56-.92 1.2-3.8 1.5-6.5zm28 1.2c-.09-2.9-.11-3-.89-.5-.44 1.4-.84 3.4-.89 4.5-.06 1.6.09 1.7.89.5.53-.82.93-2.8.89-4.5zm3.1 3c0-1.4-.17-2.5-.38-2.5s-.6 1.1-.86 2.5c-.27 1.4-.1 2.5.38 2.5.47 0 .86-1.1.86-2.5zm28 .15c-.17-.91.26-1.6.95-1.6.99 0 .99-.25 0-1.2s-1.4-.94-2.2.25c-1.4 2.2-1.2 5.2.28 4.7.69-.24 1.1-1.2.96-2.1zm-228-3.8-.15-5.3-1.4 10-.15-4.1c-.29-7.4-5.4-18-7.2-15-.41.66-1.3.08-2.4-1.5-.92-1.4-2.6-2.6-3.8-2.6-2.8 0-9.1 6.3-8.3 8.4.4 1 .07 1.6-.96 1.6-1.1 0-1.4-.52-.86-1.8 1.5-3.6 5.8-9.3 7.5-9.8 1.3-.42 1.8-1.6 1.8-4.5 0-2.5.46-3.9 1.3-3.9.71 0 1.8-1.4 2.5-3.2.66-1.8 1.4-3 1.7-2.7.29.29-.18 2.2-1 4.3-1 2.5-1.4 5.1-.94 7.6.56 3.3 1.2 4 4.8 5.5 6.5 2.7 8.8 6.3 9.4 14 .28 4.3.05 7.1-.63 7.5-.7.44-1.1-1.1-1.2-4.6zm158 1.9c-.01-1.8-.19-1.9-.98-.69-1.3 2-1.3 4.3 0 3.5.55-.34.99-1.6.98-2.8zm2.7-2.4c-.25-.96-.46-.18-.46 1.8s.21 2.7.46 1.8.25-2.5 0-3.5zm-9.2-.22c.13-1.6-.16-2.8-.65-2.5-.48.3-.88 2-.88 3.7 0 3.8 1.2 2.9 1.5-1.2zm27-2.8c-.41-1.5-.66-3.4-.55-4.2.18-1.3.09-1.3-.82 0-.57.82-1 2.8-.97 4.5.04 2.6.17 2.7.91 1 .75-1.7.88-1.6 1 1 .08 1.6.38 2.4.67 1.7.28-.71.17-2.5-.25-4zm11 3.3c.31-.81.13-1.7-.39-2.1-.53-.32-.96.34-.96 1.5 0 2.4.56 2.7 1.4.59zm21-.53c.29-1.1.11-2.2-.38-2.6-.5-.31-.91.59-.91 2 0 3.1.57 3.3 1.3.56zm-71-1c1-1.1 2-2 2.2-2 .2 0-.21.9-.89 2-.69 1.1-1.7 2-2.2 2-.5 0-.1-.9.9-2zm-167-.5c.1-1.9 1.8-5.1 1.8-3.5.03.82-.38 2.2-.91 3s-.94 1-.91.5zm174-4.7-1.6-2.2v2.2c0 1.2.45 2.2 1 2.2s1 .79 1.1 1.8c.1 1.6.14 1.6.57.02.25-.95-.26-2.7-1.1-4zm54-1.2c.03-5.4-1.4-3.5-1.6 2.1-.08 2.9.19 4 .74 3.2.47-.75.87-3.1.87-5.3zm-258 5.1c0-.41.71-2.1 1.6-3.8.87-1.7 1.4-3.6 1.1-4.3-.28-.72.34-2.2 1.4-3.3 1-1.1 1.6-2.3 1.3-2.6-.33-.34-.12-.61.47-.61s2.7-2.2 4.7-5c3.9-5.4 3.8-6.1-.14-3-1.4 1.1-2.8 1.7-3.2 1.4-.33-.35.27-1.1 1.3-1.8 1.1-.62 3.5-2.6 5.5-4.5 3.4-3.3 3.5-3.3.57-1.7l-3 1.7 3-2.5c1.6-1.4 4-3.4 5.1-4.6 1.2-1.1 2.9-2 3.8-2 .95 0 2-.88 2.2-2 .28-1.1 1.7-2.7 3.1-3.6 2.4-1.6 2.5-1.6 1.8.21-.46 1.2.38.75 2.4-1.3 3.2-3.2 7-3.6 7-.73 0 .76.45 1.4 1 1.4s1-1.4 1-3.1c0-1.8.42-2.8 1-2.4.55.34 1 1.4 1 2.4 0 3 7.7 18 8.1 16 .47-2.7.42-3.4-.41-5.1-.58-1.2-.55-2.1.08-2.5.55-.34 1.2-4.7 1.4-9.7.31-7.8.17-8.8-.98-7.2-.74 1-1.1 2.6-.79 3.3.3.79.17 1.6-.28 1.9-1.5.92-4-2.9-4.7-7.2-.61-3.8-.48-4.2 1.4-4 1.7.13 2 .65 1.5 3-.33 1.6-.13 2.8.5 2.8 1.1 0 2.4-3.1 2-4.6-.57-2.1 1.4-5.4 3.3-5.4 1.1 0 1.7-.45 1.4-1s.11-1 1-1 1.3.45 1 1-.19 1 .34 1c.83 0 2.8-6.3 3.5-11 .12-.88.5-1.9.84-2.2.91-.91 4.8 1.4 4.7 2.8-.06.91-.2.9-.58-.04-1.1-2.8-4-1-3.4 2.1.29 1.6-3.2 10-4.7 11-1.2.98-1.1 1.2.61 1.5l2 .33-4 5 .66-2.5c.63-2.4.6-2.4-.78-.5-1.7 2.3-3.4 7.4-3.2 9.2.1.69.24 2.4.31 3.8.06 1.4.56 2.3 1.1 2 .53-.33.78-2.5.54-4.8-.54-5.2.28-8.6 1.6-6.6.47.76.6 2.2.28 3.3-.38 1.2-.2 1.6.52 1.2 1.4-.85 1.4-.41.11 2.9-.55 1.4-.64 2.4-.21 2.1s.88 1.7.99 4.4c.19 4.4.03 4.8-1.8 4.3-1.1-.29-2-.03-2 .59s.67 1.1 1.5 1.1c1.8 0 1.8.7.39 4.9-.8 2.3-.81 4.4-.05 7.4.68 2.7.72 4.6.12 5.2-.61.61-.96.39-.96-.62 0-.87-.63-2.1-1.4-2.7s-1.7-2.4-2.1-3.9c-.37-1.5-1-2.9-1.4-3.2-.39-.28-1.8-2-3.1-3.9l-2.4-3.4-1.8 2.3c-.97 1.3-1.6 2.6-1.4 2.9.2.32-.06 1.2-.56 2-.74 1.2-.92 1-.93-.55-.01-1.1.84-3.4 1.9-5.1 1.6-2.6 1.7-3.5.72-5.5-1.6-3.2-6.1-3.7-9-1-1.2 1.1-4.1 2.6-6.4 3.3-2.3.72-4.2 1.8-4.2 2.4 0 1.6-3.5 4.5-5.1 4.2-.89-.19-1.3.65-1.3 2.4.06 1.9-1.2 4.1-4.3 7.4-2.6 2.8-4.4 5.6-4.4 7 0 1.5-1.2 3.3-3.5 5-1.9 1.5-3.5 3.2-3.5 3.8-.04 1.2-3 5.5-3 4.3zm216-.79c.42-.69.27-.89-.37-.49-.59.36-1.3-.13-1.5-1.1-.35-1.3-.49-1.2-.57.49-.13 2.4 1.3 3 2.5 1.1zm45-2.6c-.25-.97-.47-.42-.5 1.2-.02 1.6.19 2.4.47 1.8.27-.68.29-2 .03-3zm-39 .72c.47.09 1-.32 1.2-.92.2-.59-.04-1.1-.53-1.1-1.2 0-3.3 2.2-3.3 3.4 0 .58.39.45.86-.29.46-.73 1.2-1.3 1.7-1.2zm-26-.93c.29-1.1.93-2.1 1.4-2.1 1.4 0 1 1.6-.54 2.9-1.2.97-1.3.82-.88-.87zm51 1c0-.52-.45-1.2-1-1.6s-1 .08-1 .94.45 1.6 1 1.6 1-.42 1-.94zm-54-2.6c.74-3.3 1.2-4.1 2-3.3.28.29-.21 1.8-1.1 3.4l-1.6 2.9.66-3zm47-5.2c.03-1.2-.34-2.4-.82-2.7-.87-.54-2.2 5.1-2 8.9.06 1.6.37 1.4 1.4-1 .75-1.6 1.4-4 1.4-5.2zm-185 3.3c-.24-.61-1.2-1.6-2.2-2.2-1.7-1.1-1.7-.96-.28 2.3.94 2.1 1.8 2.9 2.2 2.2.39-.62.51-1.6.28-2.2zm173-1.3c.5-4.4.28-6.2-.69-5.2-.99 1-1.8 9.9-.83 9.9.54 0 1.2-2.1 1.5-4.8zm39 .02c0-4.4-.51-4-1.4 1.1-.48 2.6-.36 3.6.37 3.2.58-.36 1.1-2.3 1.1-4.3zm-78 3c.04-.45.46-1.7.93-2.8.83-1.9.86-1.9.93.19.04 1.2-.38 2.5-.93 2.8s-.97.25-.93-.19zm44-3.9 1.4-3.9.4 8 .65-3.5c.51-2.8.27-3.7-1.1-4.4-2.3-1.1-2.4-1-3.2 4.4-.79 5.2-.2 5 1.8-.54zm38 .77c.01-.72-.43-1-.98-.69s-.99 1.6-.98 2.8c.01 1.8.19 1.9.98.69.53-.82.98-2.1.98-2.8zm-27-.25c0-.52-.45-.94-1-.94s-1 .7-1 1.6.45 1.3 1 .94 1-1 1-1.6zm-60 .24c0-1.2 1.9-2.6 2.6-1.9.25.25-.23 1-1.1 1.7-.95.79-1.5.86-1.5.2zm76-1.2c0-1.1-.17-2-.38-2s-.62.9-.91 2-.11 2 .38 2c.5 0 .91-.9.91-2zm-144 0c0-.55.42-1 .93-1 .52 0 1.2-.93 1.6-2.1.37-1.1.86-1.9 1.1-1.6.74.74-1.5 5.7-2.6 5.7-.56 0-1-.45-1-1zm82-.86c1-1 2.1-1.4 2.3-.88.39 1-1.7 2.7-3.3 2.7-.51.01-.06-.81 1-1.8zm-69-5.1c-.01-1.2-.35-1.1-1.4.4-.79 1-1.2 2.3-.84 2.8.71 1.2 2.3-1.1 2.3-3.2zm-81-2.2c-2-2.1-2.4-2.7-.99-2 2.4 1.2 6.2 5.2 4.9 5.1-.49-.03-2.2-1.4-3.9-3.1zm68-.34c.01-2.2.22-3 .46-1.7.24 1.2.23 3-.02 4-.25.96-.45-.06-.44-2.3zm68-.54c0-.45-.79-1.6-1.8-2.6-1.3-1.3-1.7-3.3-1.6-7.5.07-3.5-.3-5.7-.94-5.6-.58.11-1.2-.7-1.5-1.8-.22-1.1-.87-2.4-1.4-3-.7-.68-.84-.05-.42 2 .34 1.6.87 5.9 1.2 9.5s.79 8 1.1 9.7c.48 3.2.53 3.2 2.9 1.6 1.4-.89 2.5-2 2.5-2.4zm114 2c-.35-.55.08-1.7.94-2.6 2-2 2-3.4.11-3.4-2.1 0-3.6 3.1-2.4 5.2.52.98 1.2 1.8 1.5 1.8.29 0 .25-.45-.09-1zm-178-5.2c-.79-6.4-4.5-15-6.2-14-.62.24-2-1.5-3.2-3.8-1.6-3.4-2.9-4.5-6.3-5.6-3.9-1.3-4.1-1.5-1.8-2.1 5.7-1.6 7.5-1 9.2 2.9.93 2.1 2.6 4.9 3.6 6.2l2 2.5-.63-2.5c-.34-1.4-1.6-4.1-2.8-6-2.2-3.6-4.6-11-2.5-8 .89 1.3 1 1.3 1-.13.01-.89-.99-2.4-2.2-3.3-1.5-1.1-1.9-1.8-1-2.2 1.8-.78 1.5-4.4-.6-8.4-1-1.9-1.6-4.1-1.4-4.9s.04-1.1-.5-.78c-1.6.96-5.4-3.3-4.8-5.2.3-.98-.23-2.5-1.2-3.4-3.4-3.2-8.1-6.7-9-6.7-.54 0-.98-1.1-.98-2.4 0-2.1.75-1.7 6.6 4 3.6 3.5 7 6.4 7.4 6.4 1.2 0 .88-1.4-.85-3.8-.88-1.3-1.4-2.5-1.2-2.7.45-.46 6.8 11 6.8 12 0 .37-.45.39-1 .05-1.5-.93-1.2.85.5 3.1 1.5 1.9 1.5 1.9.98-.06-.64-2.4 2.9 5.1 3.9 8.2.56 1.8.39 2.1-.85 1.6-.87-.34-1.6-.09-1.6.56 0 .64.44.9.97.57 1.6-1 2.3 4.1 1 7.9-1 3.1-.91 3.9.77 6.3 2.8 4 6.5 12 5.3 11-1.5-.91-1.4-.4.96 5.5 1.6 4 1.9 6 1.2 9.3l-.85 4.1-.69-5.7zm94 1.7c-.86-2.9-.88-2.9-.96-.37-.05 1.4.21 2.9.58 3.2 1.2 1.2 1.3.16.38-2.9zm-171-3.2c-.25-.96-.46-.18-.46 1.8s.21 2.7.46 1.8.25-2.5 0-3.5zm158-.06c-.12-2.6-.69-5.9-1.3-7.2-.91-2.1-1-1.8-.62 2 .25 2.4-.08 5.2-.73 6.3-.93 1.5-.87 2.1.33 2.8 2.4 1.5 2.5 1.3 2.3-3.8zm22 2.6c-.48-3.2-2.6-3.5-2.6-.38 0 1.6.55 2.6 1.5 2.6.98 0 1.4-.77 1.2-2.2zm8.2-6.2c.47-2.5.51-4.6.09-4.6-1.2 0-2.1 3.1-1.4 5.3.42 1.3.26 1.8-.47 1.3s-1.1.45-1.1 2.6c.02 2.7.22 3 1 1.6.55-.93 1.4-3.7 1.8-6.2zm-91 4.4c1.4-1.1 2.8-2 3.2-2 .38-.01.99-.97 1.4-2.1.45-1.4 1-1.8 1.7-1.1 1.2 1.2-1.3 4.2-4.9 6-3.4 1.8-4.1 1.3-1.3-.86zm56-1.2c.01-.41-.43-.75-.98-.75s-.99 1-.98 2.2c.01 1.8.2 2 .98.75.53-.82.98-1.8.98-2.2zm21 1.2c0-.52-.45-.94-1-.94s-1 .7-1 1.6.45 1.3 1 .94 1-1 1-1.6zm9-1.4c0-1.9-.45-3.5-1-3.5-1.1 0-1.3 3-.39 5.4.95 2.5 1.4 1.9 1.4-1.9zm12-7.8c-.34-3.2-1-5.8-1.5-5.8s-.87-.87-.87-1.9-.38-2.2-.84-2.5c-.45-.28-.21 2.5.56 6.2.76 3.7 1.4 8.7 1.4 11 0 4.3.05 4.4.95 1.5.52-1.6.66-5.6.31-8.8zm11 8.3c0-.52-.45-1.2-1-1.6s-1 .08-1 .94.45 1.6 1 1.6 1-.42 1-.94zm-187-.72c-2.8-1.2-1.1-2.5 2.5-2 2.1.31 3.2.33 2.5.02-.69-.3-1.2-.99-1.2-1.5 0-.54.38-.74.84-.46.47.29 2.5.06 4.6-.51 3-.82 4.1-1.8 5.6-5.1 1.6-3.6 1.9-3.8 2.2-1.7.31 2.2.54 2 2.5-1.7 1.2-2.3 1.9-4.5 1.5-4.9-.37-.42.11-.48 1.1-.13 1.2.44 1.8.11 1.8-1.1.06-1.5.17-1.5.81.17.69 1.8.97 1.7 4.2-1 7-5.9 12-9.6 13-9.1.27.26-1.4 1.9-3.8 3.6s-3.9 3.1-3.4 3.1c.47 0-.68 1.1-2.6 2.4s-3.3 2.9-3.2 3.5c.14.63-.22 1.2-.79 1.2-1.9 0-6.9 4.3-9.6 8.1-4 5.8-13 9.3-18 7.2zm77-.34c0-.55.44-1 .97-1s.69-.79.35-1.8c-.49-1.4-.35-1.5.67-.57.7.65 1 1.9.67 2.8-.66 1.7-2.7 2.2-2.7.57zm49-6.1-.91-5.4-.24 4.5-.25 4.5-1.5-7-.13 3.2c-.08 1.9.6 4 1.6 5 2.3 2.3 2.5 1.7 1.4-4.8zm6.8-.19c-.01-2.4-.25-2.9-.95-1.8-.77 1.2-.92 1.1-.83-.5.05-1.1-.45-4-1.1-6.4-1.1-4-1-4.6.78-6.5 1.1-1.2 2.5-3.4 3-4.9s1.7-2.8 2.5-2.8 1.7-.86 2.1-1.9 1.4-2.5 2.3-3.2c1.5-1.2 1.5-1.1-.06 1.4-2.6 4.1.17 3.5 3.6-.77 1.6-1.9 3.2-3.3 3.8-2.9s.94.08.94-.52c0-1 .79-2.2 3.8-5.6 1.9-2.1-1.1-3.1-4.6-1.6l-2.7 1.2 2.4-1.9c4.6-3.6-1.8-3.8-8.8-.21-4 2-7.3 2-4.1.04.79-.49 1.1-1.2.64-1.7-.44-.45-1.4-.03-2.1.92-1.1 1.5-1.2 3.6-.67 8 .2 1.5 2.2.68 4.9-2.1 1.5-1.5 2.2-2.1 1.5-1.2s-1.2 2.1-1.2 2.6c0 .99-4.2 3.3-6 3.3-.5 0-.68-.63-.38-1.4.29-.77.04-1.7-.57-2.1-.61-.38-.84-1.6-.5-2.6.33-1.1.37-1.9.09-1.9-1.4 0-6.2 5.5-7.7 8.8-.96 2-1.8 3.1-1.8 2.4-.09-1.5-2.1-.6-2.1.93 0 .55.45.72 1 .38s1-.17 1 .38-.48 1.3-1.1 1.7c-.59.36-1.5 1.8-2 3.1-.51 1.4-1.3 2.2-1.7 2-1.4-.87-3.1.82-3.6 3.6-.36 2-.02 2.8 1.3 3.2.98.31 2.3 1.7 2.9 3 .62 1.4 1.6 2.5 2.3 2.5.77 0 .69-.55-.23-1.7-1.2-1.5-1.2-1.6.63-.88 4 1.6 5.5 1.8 5.5.69 0-.62-.87-1.1-1.9-1.1s-2.2-.42-2.5-.94.44-.87 1.7-.79c3.1.2 5.2 3.4 5.1 7.7-.04 3.5-.04 3.5.36.3.23-1.8.77-3.2 1.2-3.2s.68 1.1.53 2.5c-.18 1.6.23 2.5 1.1 2.5.77 0 1.4.68 1.4 1.5s.22 1.5.5 1.5.49-1.5.48-3.2zm40-1c-.19-2.3-.79-5.7-1.3-7.4-.54-1.8-.72-3.4-.4-3.8.31-.32.11-.58-.46-.58-.56 0-.9-1.2-.74-2.6.16-1.4.01-2.3-.33-2-.97.97-1 4.9-.14 6.7.53 1 .28 2.3-.71 3.5-1.4 1.7-1.5 1.7-.99.14.3-.96.08-1.8-.48-1.8-.57 0-.75-.45-.41-1s.09-1-.56-1c-.76 0-.92.79-.47 2.2.39 1.2.68 3.4.65 4.8l-.06 2.5 1.9-2.2c2.6-3 2.9-2.9 2.9 1.5-.02 5 .04 5.2 1.1 5.2.51 0 .76-1.9.57-4.2zm-82 2.8c-.12-.55-.41-2.4-.64-4-.35-2.5-.24-2.7.65-1.2.59.98.88 2.8.64 4-.23 1.2-.53 1.8-.65 1.2zm-4-1.6c0-.58-.45-.78-1-.44-.57.35-1-.49-1-1.9 0-3.5 1.6-3.2 2.8.44.64 1.8.67 3 .1 3-.52 0-.95-.48-.95-1.1zm72-.87c1.4-2.6 1.3-3.1-.36-2.5-1.6.6-2.9 4.4-1.5 4.4.48 0 1.3-.87 1.9-1.9zm-18-1.8c-.01-2-.25-2.4-.9-1.3-.49.77-.66 2-.38 2.8.81 2.1 1.3 1.6 1.3-1.4zm25 .99c0-.42-.9-1.3-2-2-1.7-1-2-1-2 .32 0 .86.42 1.3.93.99.51-.31 1.2-.12 1.6.44.74 1.2 1.5 1.3 1.5.26zm15-3.7c.03-.55-.38-.32-.91.5s-.94 2.2-.91 3c.05 1.6 1.7-1.6 1.8-3.5zm3.1 3.3c0-.45-.68-.83-1.5-.83s-1.5.38-1.5.83c0 .46.68.84 1.5.84s1.5-.38 1.5-.84zm6-4.9c0-1.1-.45-1.8-1-1.4s-1 1.3-1 2.1.45 1.4 1 1.4 1-.93 1-2.1zm-39-6.7c.24 4 1.6 3.4 1.9-.95.14-2 .82-4 1.5-4.5.88-.56.78-.78-.39-.79-.9-.01-3-.3-4.8-.64-3-.61-3.1-.51-3.1 2.7.03 3.2.12 3.3 1.5 1.4 1.4-1.8 1.5-1.4 1.6 4.5l.17 6.4.67-5.5c.37-3 .75-4.3.84-2.8zm28 5.8c-.36-1.2-.18-2 .43-2 .59 0 1.1-.45 1.1-1 0-1.5-1.7-1.2-2.4.5-.32.82-.32 2.2 0 3 .86 2.2 1.6 1.8.86-.5zm-77-4.2c-.5-1.3-.39-2.7.28-3.5 3.1-3.6 6.7-7.3 7.2-7.3.3 0 2-1.4 3.7-3 3.1-2.9 5.7-3.9 5.7-2.1 0 1.1 4.8.22 5.6-.98.3-.49-.61-1.3-2-1.9-1.4-.54-2.8-1.6-3.1-2.4s-1.5-1.3-2.7-1.1c-4.6.61-12 3-13 4.1-.4.62-3.2 2.6-6.2 4.4-5.5 3.3-5.5 3.3-5.4 8.2.06 2.7.71 5.3 1.4 6 1 .87 1.3.59 1.3-1.3.01-2.8 3.4-8.7 5.5-9.5.82-.32 1.5-1.3 1.6-2.2.05-1 .26-1.2.58-.39.28.69-.81 2.9-2.4 5s-3.3 4.3-3.7 5.1c-.97 1.7 2.1 5.2 4.6 5.2 1.4 0 1.6-.44 1-2.2zm-62-.33c1.9-.8 3.9-1.4 4.5-1.4 1.6.11-4.5 2.8-6.4 2.8-.82 0 .01-.66 1.9-1.5zm82-.92c-.62-3.2 3-6.8 5.4-5.5 1.2.71 2 .49 2.7-.81.54-.96 1.2-1.5 1.6-1.2.99.98-.56 3.9-2.1 3.9-.78 0-1.9 1.1-2.6 2.5-.63 1.4-1.6 2.5-2 2.5s-.58-.52-.18-1.2c.44-.73.27-.89-.46-.44-.65.4-.91 1.2-.6 1.7.32.51.15.93-.36.93-.52 0-1.2-1.1-1.4-2.5zm37-4.3c-.8-.8-1.2-.26-2.1 2.7l-.72 2.5 1.7-2.3c.93-1.3 1.4-2.6 1.1-2.9zm16 2.2c-.62-.75-.84-1.8-.49-2.4.36-.57.16-1-.45-1-.87 0-.92 2.8-.1 5.8.04.17.55.02 1.1-.34.72-.45.69-1.1-.09-2zm-151 .11c0-.79.45-1.7 1-2.1s1 .31 1 1.4-.45 2.1-1 2.1-1-.65-1-1.4zm3.2.44c2.4-6.9 3.3-9 3.9-9 .41 0-.19 2.1-1.3 4.8-2 4.6-3.7 7.3-2.6 4.2zm141-1.5c0-.76-.34-1.6-.75-1.8-.41-.25-.75.58-.75 1.8s.34 2.1.75 1.8c.41-.26.75-1.1.75-1.8zm-23-2.2c.18-3.4.07-3.6-1.2-2-1 1.4-1.5 1.5-1.9.5-.34-.84-.55-.68-.6.45-.04.96.37 1.8.92 1.8s.95.34.88.75c-.22 1.4.12 2.2.92 2.2.43 0 .88-1.7.99-3.8zm-161-2.4c-1.2-4.6-.67-19 .98-24 .5-1.6.94-2.4.98-1.8.05.67.76.96 1.6.64.83-.31 1.5-.08 1.5.53s-.43 1.1-.95 1.1c-1.4 0-3 6.8-2.4 10 .31 1.5.06 3.1-.55 3.4-1.4.88-1.4 6.4.02 10 .61 1.8.86 3.4.56 3.8s-1.1-1.4-1.7-3.8zm190-1.4c-.08-1.4-.48-2.5-.89-2.5-.91 0-.96 1.3-.14 3.4.86 2.3 1.2 2 1-.92zm-150 .12c0-.99.83-1.6 2.2-1.6 1.2 0 2 .13 1.8.28-.23.16-1.2.89-2.2 1.6-1.5 1.1-1.8 1.1-1.8-.29zm-17-.36c-.99-.24-2.2-1.6-2.8-2.9-1.3-3.4-.06-10 2.1-11 3.6-1.9 9.7 7 7.3 11-1.4 2.3-4.6 3.9-6.6 3.4zm123-2.2c0-1.6.44-3.2.99-3.6.57-.35.73.05.39.95-.33.86-.11 2.2.5 2.9.61.74.81 1.6.44 2-1.4 1.4-2.3.53-2.3-2.3zm21-.24c-.29-1.5-1.1-2.9-1.7-3.2-1.8-.68-1.4 3.6.42 5 1.9 1.5 1.9 1.4 1.3-1.8zm7.7-1c1.4-2.2 2.4-4.5 2.2-5-.16-.56.4-.74 1.2-.41 1.2.45 1.5-.12 1.5-2.4 0-1.6-.45-3-1-3s-1-.48-1-1.1c0-.59-1.4-2.2-3.1-3.6-1.7-1.4-2.8-3.2-2.5-3.9.77-2-.94-2.6-3.8-1.2-3.4 1.6-3.2 2.2.98 4.2 2.2 1 3.3 2.1 2.8 2.8-.44.71-.27.88.45.44.69-.43 1.2-.07 1.2.9 0 1 .47 1.4 1.2.91 1-.56 1-.43 0 .64-.69.74-1.3 2.5-1.3 3.9-.01 1.4-.29 3.6-.63 4.8-.51 1.9-.85 2.1-2.2 1-1.3-1.1-1.5-1-.91.48.36.96.22 1.8-.31 1.8-1.8 0-1 2.6.78 2.7 1 .07 2.8-1.5 4.2-3.9zm12 3c.4-.66.27-1.4-.3-1.5s-.81-1.6-.54-3c.27-1.5.17-2.4-.22-2.1s-.84 2.3-1 4.2c-.28 3.6.66 4.7 2.1 2.4zm-52-2.5c-1.4-1.4-4.8-.9-4.8.74 0 .47.63.62 1.4.32.77-.29 1.7-.05 2.1.55.37.59 1.1.8 1.7.45.65-.41.51-1.1-.4-2.1zm-93-2c0-2.6-.01-2.6-2.2-.75-2.1 1.9-2.1 1.9-1-.22.61-1.2.8-2.4.43-2.8-.38-.38.04-.4.94-.06 1.1.42 1.8-.05 2.3-1.4.36-1.1 1.1-2.1 1.6-2.1.55 0 .44.98-.26 2.2-.67 1.2-1.1 3.5-.96 5s.01 2.8-.3 2.8c-.32 0-.58-1.2-.58-2.6zm6 2.2c0-1.3 3.8-5.7 4.2-4.8.22.43-.65 1.9-1.9 3.2-1.3 1.3-2.3 2.1-2.3 1.7zm141-3.6c-.12-1.6-.55-3-.96-3-.9 0-.92.76-.12 3.8.84 3.1 1.3 2.8 1.1-.75zm4.7.65c-.64-1.7-2.4-1.3-2.4.47 0 .55.45.72 1 .38s1-.07 1 .61c0 .67.24.99.52.7.29-.29.24-1.3-.1-2.2zm-164-1.1c0-.75-1.2-2.8-2.6-4.5-2.1-2.5-2.9-2.9-4-2-1.9 1.6-1.7 2.7.69 3.4 1.1.37 1.8.88 1.6 1.2-.76.75 2.6 4.3 3.5 3.7.45-.28.82-1.1.82-1.9zm112-3.4c-.29-.48-1.4-1.1-2.5-1.4-1.4-.35-1.8-.09-1.4.88.29.77 1.4 1.4 2.5 1.4 1.1 0 1.7-.4 1.4-.88zm-.17-3.7c.34-.88.08-3.5-.58-5.8-.93-3.2-1.3-3.6-1.6-1.9-.2 1.2.13 3.1.73 4.2.74 1.4.76 2 .07 2-.57 0-1 .68-1 1.5 0 2 1.6 1.9 2.4-.11zm4.1.84c-1.1-.81-1.4-2.4-1.8-9.9-.24-5-1.3-6-1.8-1.8-.27 2.1.99 10 1.8 12 .25.41.98.74 1.6.73.75 0 .82-.28.19-.75zm42-3.7c.02-1.4.27-1.6.83-.74 1.3 2 5.2-6.8 5.3-12 .2-9 1.5-9.2 1.5-.18-.02 5.1-.32 8.7-.68 8.2-.36-.57-.89-.11-1.2 1-.3 1.1-.14 1.8.36 1.5s.94.03.98.75c.03.72.59.19 1.2-1.2 1.7-3.7 3.4-5.3 4-3.7.29.68.34-.45.13-2.5-.29-2.8-.01-3.8 1-3.8.86 0 1.2.6.85 1.5-.44 1.1-.12 1.3 1.3.81 1.6-.62 1.7-.5.47 1-1.2 1.5-1.2 1.6.25 1.1 2.1-.8 2.2-4.4.1-4.4-1.1 0-1.3-.45-.62-1.8.5-.96 1.7-5.5 2.6-10 .91-4.5 1.9-8.9 2.2-9.8.31-.83.19-1.5-.28-1.5-1.4.04-4.3 7.4-3.8 9.6.38 1.4.07 2.1-1 2.1-1.1 0-1.4-.58-1-1.8.32-1 .25-2.4-.16-3-.98-1.6-2.2 1.6-2.3 6-.04 1.9-.48 3-1.1 2.7-.56-.34-.73-1.7-.4-3.1.38-1.5.18-2.4-.49-2.4-.61 0-1.1.35-1.1.79 0 .43-.79.86-1.8.96-4.3.44-6.3.93-7 1.7-.42.47-.21.53.48.13 1.5-.85 1.7.99.25 1.9-.55.34-1 3.4-1.1 6.8-.04 3.4-.45 7.1-.9 8.2-.55 1.3-.75-.17-.57-4.2.23-5.5.06-6.2-1.6-6-1.2.09-1.9.91-1.9 2.4 0 1.6-.44 2.1-1.5 1.7-.99-.38-1.5.06-1.6 1.3-.04 1.1-.3 1.3-.58.61-.28-.69-.95-1.2-1.5-1.2-.54 0-.7.45-.36 1s.16 1-.41 1c-.56 0-.74.75-.39 1.7.46 1.2.28 1.4-.68.85-.89-.55-1.1-.43-.61.35.4.65 1.1.93 1.6.63.48-.29 1.6 1 2.6 3 1.8 3.9 3.9 4.9 2.5 1.2-.67-1.8-.54-2.3.53-2.3.77 0 1.5.94 1.5 2.1.09 1.7.2 1.8.57.32.78-3 2.2-.92 1.7 2.5-.34 2.4-.2 2.9.57 1.8.57-.82 1-2.4 1.1-3.5zm-177 1.2c-.59-1.2-1.3-3.2-1.6-4.2s-.8-2.8-1.2-3.8c-.55-1.4-.35-1.6.89-1.1.88.34 1.6 1.7 1.6 2.9s.46 3.6 1 5c1.3 3.4.7 4.2-.78 1.2zm180 1.2c0-.55.73-1 1.6-1 1.3 0 1.4-.27.37-1.5-1.1-1.3-1.4-1.3-2.6.25-1.6 2.1-1.8 3.3-.4 3.3.55 0 1-.45 1-1zm-154-2.2c-1.2-1.4-2.3-3.8-2.5-5.4l-.29-2.9 1.9 3.5c1 1.9 1.9 3 2 2.5s.54.08 1.1 1.4c1.4 3.4.38 3.8-2.2.9zm123-1.8c0-.55-.68-1-1.5-1s-1.5.45-1.5 1 .68 1 1.5 1 1.5-.45 1.5-1zm-132-3.5c-.63-1.4-.75-2.2-.25-1.9 1.3.82 3.1 4.4 2.2 4.4-.44 0-1.3-1.1-2-2.5zm2.5-1.5c-.94-1.6-1.4-3-1-3 .38 0 1.5 1.4 2.4 3 .94 1.6 1.4 3 1 3-.38 0-1.5-1.4-2.4-3zm118 2.1c-.3-.48.12-1.4.94-2.1s1.5-2 1.4-2.9c-.05-1.2-.27-1.2-.93.37-.6 1.4-.9 1.5-.99.5-.08-.89-.52-.54-1.1.84-.86 2.2-.53 4.2.69 4.2.27 0 .25-.4-.05-.89zm15-.05c0-.52-.45-1.2-1-1.6s-1 .08-1 .94.45 1.6 1 1.6 1-.42 1-.94zm-150-2.6c.1-1.9 1.8-5.1 1.8-3.5.03.82-.38 2.2-.91 3s-.94 1-.91.5zm150-5.9c.09-2 .06-3.6-.07-3.6-.99 0-2.3 4.5-1.8 6.1.88 2.8 1.6 1.7 1.8-2.5zm32 3.5c0-.52.45-1.2 1-1.6s1 .08 1 .94-.45 1.6-1 1.6-1-.42-1-.94zm-42-1.4c0-.74-.56-1.3-1.2-1.3s-1 .6-.73 1.3c.28.73.84 1.3 1.2 1.3s.73-.6.73-1.3zm14 .33c0-.55.65-1 1.4-1s1.8-.5 2.1-1.1c.46-.74-.01-.88-1.4-.43-1.8.57-2.1.27-2.1-1.9 0-1.4-.46-2.6-1-2.6-.59 0-.75 1.1-.39 2.5.36 1.4.11 3.2-.6 4-1 1.2-.93 1.5.39 1.5.89 0 1.6-.45 1.6-1zm23 .25c-.23-.41-.09-3 .31-5.8l.72-5 .14 5.8c.12 5.4-.19 6.8-1.2 5zm-176-6.7c.99-2.2 2.4-4.2 3.2-4.4.86-.18 1.2-1 .97-2.1-.27-1-.01-2.1.56-2.5.68-.42.86.5.52 2.6-.28 1.8-.56 3.9-.62 4.6-.06.73-1.2 2-2.5 2.9-1.8 1.2-2.1 1.8-1.1 2.4.88.55.63.75-.8.64-2.1-.15-2.1-.19-.29-4.2zm128 1.4c.51-3.4-.69-4.1-1.6-.83-.5 1.9-.12 3.8.79 3.8.18 0 .52-1.4.76-3zm67 .95c1-1.9.93-1.9-.9-.8-1.1.69-1.8 1.6-1.5 2 .76 1.2 1.2.98 2.4-1.2zm-190-1.6c.17-2 1.4-4.2 3.6-6.2 3.5-3.3 5.2-4.2 3.1-1.6-1 1.2-.97 1.5.18 1.5.78 0 2-.54 2.6-1.2.93-.93 1.2-.93 1.2 0 0 .66.45 1.2 1 1.2s1-.71 1-1.6c0-1 .6-1.4 1.8-1 4.9 1.5 7.3 1.4 8.2-.2.53-.94 1.3-1.3 1.8-.79.46.48.26 1.1-.43 1.3-.69.25-1 .81-.76 1.2.28.44-.82 1-2.4 1.2-1.6.23-2.7.06-2.4-.39s-.76-.81-2.3-.79c-2.7.03-2.7.1-.87 1.5 1.1.81 3.8 1.5 6.2 1.5s4.5.44 4.9.98c.38.63-2.2.9-6.8.75-5.8-.18-7.2-.5-6.4-1.5.78-.96.2-1.2-2.5-1.2-4.5 0-6.7.85-6.7 2.6 0 .76-.46 1.4-1 1.4s-1.5 1-2 2.2c-.85 2-.92 1.9-.7-.89zm159-.4c0-.54-.89-.42-2 .27-1.1.69-2 1.6-2 2 0 .43.9.31 2-.28s2-1.5 2-2zm18 .1c0-1.1.45-2.1 1-2.1s1 .65 1 1.4-.45 1.7-1 2.1-1-.31-1-1.4zm14-3.5c0-1.2.39-2.6.88-3.1 1.3-1.4 5.4-14 4.9-16-.83-2.5-6.8 13-6.8 18 0 1.2-.38 1.9-.83 1.6-.46-.28-.84.1-.84.85s.6 1.1 1.3.85c.73-.28 1.3-1.5 1.3-2.7zm-10-.26c.01-1.4.2-1.5.89-.43.73 1.2.97 1.1 1.4-.27.45-1.5.48-1.5.35.02-.21 2.3-2.6 3-2.6.68zm15-2.7c.02-.64.62-1 1.3-.9.7.16.98-.2.62-.79s-.23-1.6.3-2.3c.53-.67 2-4.1 3.3-7.7s2.6-7 3-7.5c.38-.55.95-2 1.3-3.3.43-1.7.21-2.2-.83-1.8-.77.3-1.8-.15-2.2-.98-.75-1.3-1-1.3-2.3.22-1.3 1.6-1.2 1.7.33 1.1 2.1-.79 2.2-.05.25 3.3l-1.4 2.5-.07-2.5c-.06-2.4-.14-2.4-1.5-.65-1.5 2-.98 5 .72 4 .69-.43.82.18.37 1.8-.37 1.3-1.3 4.8-2.1 7.8s-2 6-2.6 6.8c-.86 1-.86 1.4.04 1.4.66 0 .86.55.46 1.2-.42.73-.34.9.19.42.5-.46.93-1.4.96-2zm-64 .39c0-.52-.45-1.2-1-1.6s-1 .08-1 .94.45 1.6 1 1.6 1-.42 1-.94zm59-7c2.2-7.6 2.5-9 1.1-7.6-.75.79-5.1 14-5.1 15 0 .25.44.19.97-.14s1.9-3.7 3-7.4zm-53 3.1c.01-.72-.43-1-.98-.69s-.99 1.6-.98 2.8c.01 1.8.19 1.9.98.69.53-.82.98-2.1.98-2.8zm64-.22c.17-2.4-1.3-2.6-2.1-.39-.95 2.5-.73 3.4.68 2.9.71-.27 1.4-1.4 1.4-2.5zm-52-.87c-.06-1.6-.44-2.7-.84-2.4-.89.54-.61 5.4.3 5.4.36 0 .6-1.3.54-2.9zm3.3-1.9c-.06-3-.24-3.3-.93-1.7-1.2 2.8-1.2 6.8 0 6 .55-.34.97-2.3.93-4.3zm56 .81c-1.1-2.8-2.3-1.2-1.5 1.9.35 1.3.96 1.9 1.5 1.4s.53-1.9.04-3.2zm-55-1.7c-.25-.97-.47-.42-.5 1.2-.02 1.6.19 2.4.47 1.8.27-.68.29-2 .03-3zm-17-4.3c.59-2 .48-2.3-.54-1.3-.7.67-1.4 2.5-1.6 4-.31 3.1.83 1.6 2.1-2.7zm79-2.9c.01-.19-.66-.09-1.5.22-.82.32-1.5.43-1.5.25 0-2.6 2.3-11 3.1-12 .61-.38.8-1.2.42-1.8s-1.1-.87-1.6-.55c-.52.32-.68 1-.37 1.5.32.51.2.93-.26.93-1.6 0-3.5 8.7-2.4 11 .59 1.1 1.1 3.5 1.1 5.3l.05 3.3 1.4-4c.79-2.2 1.4-4.2 1.4-4.4zm4 4.6c.01-.44-.43-.53-.98-.19s-.99 1.4-.98 2.3c.01 1.5.14 1.5.98.19.53-.82.98-1.9.98-2.3zm-79-4.7c-.69-6.8-1.1-7.3-1.2-1.7-.08 3.2 1.1 9.3 1.6 8.6.15-.2-.03-3.3-.39-6.9zm64 4.4c-.65-1.7-2.3-.89-2.3 1.1 0 .81.61 1.2 1.4.86.79-.31 1.2-1.2.89-2zm-39 .08c0-.82-.38-1.5-.83-1.5-.46 0-.84.68-.84 1.5s.38 1.5.84 1.5c.45 0 .83-.68.83-1.5zm-3-1.5c0-.55-.42-1-.94-1s-1.2.45-1.6 1 .08 1 .94 1 1.6-.45 1.6-1zm56-.31c.73-.71 2.2-1.6 3.2-2 1.5-.55 1.7-1.3 1.2-3.4-.37-1.5-.67-3.6-.67-4.6 0-1-.27-1.6-.6-1.3s-1.2.15-1.8-.41c-2-1.6-4.2-.06-4.8 3.4-.65 4.3.22 5.4 2.2 2.8 1.1-1.4 2.2-2 3.4-1.5 2.4.93 2.1 3.3-.58 4.4-2.6.98-5.6 4.1-3.9 4.1.57 0 1.6-.59 2.4-1.3zm-15-.73c0-.67.74-.63 2.2.12 1.8.98 2.1.91 1.5-.46-.34-.89-.22-1.6.27-1.6.48 0 1.1.54 1.3 1.2.31.93.57.93 1.2-.01.43-.7.1-1.4-.79-1.8-1.4-.53-1.4-.9-.04-3.5 1.1-2 1.2-2.9.32-2.9-.7 0-.44-.82.63-2 1-1.1 1.4-2 .96-2-.46 0 .03-.64 1.1-1.4 1.5-1.1 1.7-1.7.78-2.6-1.3-1.3-3.5-.39-3.2 1.4.4 2-3.4 8.9-4.2 7.7-.46-.75-.91-.42-1.3.93-.3 1.1-.14 1.8.36 1.5s.91.42.91 1.6c0 1.8-.28 2-1.4 1-1.1-.89-1.5-.79-2 .46-.89 2.3-.76 3.4.38 3.4.55 0 1-.47 1-1zm-54-1.2c0-.48.79-.75 1.8-.58 1.3.21 1.7-.35 1.6-2.2-.06-1.4.26-2.7.72-3 1.1-.72-.09-5.1-1.2-4.4-.49.3-.89-1.7-.89-4.4 0-3.3-.53-5.4-1.6-6.3-1.4-1.2-1.6-.7-1.4 5.1.28 8.2.18 9.2-.88 8.5-.9-.56-2.4 6.2-1.6 7.4.62.99 3.5.83 3.5-.2zm13-.85c0-.58-.53-.73-1.2-.33-.79.48-.96.17-.52-.97.54-1.4.33-1.5-1.3-.63-2.7 1.5-2.5 3 .52 3 1.4 0 2.5-.48 2.5-1.1zm-27-5.4c-.9-2.3-2.7-1.9-2.6.69.01 1.9.19 2 1.1.75.81-1.2.93-.8.51 1.5-.5 2.7-.45 2.8.54.81.61-1.2.84-2.9.51-3.8zm9.6-3.3c.39-9.6-.25-18-1.4-18-.61 0-.84.68-.53 1.5.32.82.14 1.5-.39 1.5s-.97-.68-.97-1.5-.48-1.5-1.1-1.5-.78-.45-.44-1-.07-1-.91-1c-.95 0-1.3.57-.95 1.5.31.82.98 1.5 1.5 1.5s.85 1.2.79 2.8l-.1 2.8-.72-2.5c-.41-1.4-.63 1.2-.51 6 .28 11 .17 10 2 9.6.9-.34 1.5-.08 1.4.65-.09.67-.09 2.4-.01 3.7.26 4.3 2.1-.22 2.4-5.7zm6 4.7c0-1.9.21-2.7.46-1.8s.25 2.5 0 3.5-.46.18-.46-1.8zm32-1c0-.44-.89-.57-2-.28-1.1.28-1.8.9-1.5 1.4.61.98 3.5.09 3.5-1.1zm-24-.93c0-1.1-.45-2.2-1-2.6-.57-.35-1 .49-1 1.9 0 1.4.45 2.6 1 2.6s1-.87 1-1.9zm68-1.8c1.8-2.4 1.8-4.6-.18-3.9-1.2.47-1.4.13-.88-1.6.56-1.8.44-2-.66-.97-1.1 1-1.1 1.7-.14 3.2.76 1.2.85 2.2.23 2.5-1.1.68-1.3 2.5-.34 2.5.35 0 1.2-.79 2-1.8zm-104-4c-.25-.96-.46-.18-.46 1.8s.21 2.7.46 1.8.25-2.5 0-3.5zm110 2.8c-.33-1.1.06-3.5.88-5.5.87-2.1 1.1-3.8.54-4.1-.52-.32-.94.08-.94.87 0 .8-.6 1.7-1.3 2-.97.37-1.2-.22-.95-2.1l.4-2.7-1.5 2.5c-.82 1.4-1.1 2.6-.56 2.8.51.19.93.94.93 1.7 0 1.8 1.8 6.5 2.5 6.5.33 0 .32-.87-.02-1.9zm-85-2.8c-.25-.97-.47-.42-.5 1.2-.02 1.6.19 2.4.47 1.8.27-.68.29-2 .03-3zm39 2.7c0-1.2-1.1-1.2-3 0-1.2.78-1.1.97.75.98 1.2.01 2.2-.43 2.2-.98zm-58-8.1c0-3.2.45-5.9 1-5.9s.96-1.2.9-2.8c-.09-2.6-.14-2.6-.75-.44-.79 2.8-1.5 2.8-4.4.17-1.2-1.1-2.4-1.6-2.6-1s-.83.76-1.4.39c-.68-.42-.77-.18-.24.68.45.73 1.4 4.1 2 7.4l1.2 6.1.52-12 .74 7c.4 3.8.47 7.4.16 8s.2.38 1.1-.37c1.2-1 1.7-2.9 1.7-7.2zm2.4 5.6c-.79-2.1-1.4-1.8-1.4.59 0 1.1.43 1.8.96 1.5.52-.33.7-1.2.39-2.1zm6.2-5.1c-.05-4.4-.51-6.8-1.3-7.1-1.4-.46-1.7 6.1-.63 12 1 5.1 2 2.7 2-4.5zm41 4.1c-1.4-1.5-2.1-.08-1.2 2.3.53 1.4.81 1.4 1.5.32.51-.81.38-1.9-.3-2.6zm18 .37c0-1.7-.17-1.8-1.5-.46-.82.82-1.5 2-1.5 2.5s.68.78 1.5.46c.82-.31 1.5-1.5 1.5-2.5zm-21-1.4c.12-1.6-.15-3.3-.6-3.9s-.91-4.4-1-8.5c-.22-7.9-.61-9.4-2.1-8.5-1.2.77-1.2 4.9.25 16 1.2 8.6 3 12 3.5 5.3zm11 .53c0-2.4-1.3-2.6-3.1-.31-.93 1.2-.97 1.4-.12.94.69-.41 1.2-.27 1.2.31s.45 1.1 1 1.1 1-.9 1-2zm35 .72c-.04-.39-.08-1.3-.1-2s-1-2-2.2-2.9c-2.1-1.5-2.2-1.5-2.2.67 0 1.8.29 2 1.3 1.2 1-.85 1.3-.77 1.1.33-.39 2.7.03 4.1 1.1 3.8.6-.2 1-.69 1-1.1zm-81-3.2c.03-1.6.25-2.2.5-1.2.26.97.24 2.3-.03 3-.28.68-.49-.12-.47-1.8zm30-3.5c-.44-3-.84-7.6-.88-10-.06-4.2-.27-4.6-2.2-4.1-1.2.3-2.3 1.1-2.6 1.8-.29.74-1.5 1.1-2.9.84-1.9-.34-2.4 0-2.4 1.5 0 1 .68 2.5 1.5 3.1 1.3 1 1.5.89 1.5-.94 0-1.2.45-1.9 1-1.6s1 2.1 1 3.9c0 2.1.87 4.2 2.4 5.8 1.3 1.4 2.6 3.3 3 4.3 1.2 3 1.4 1.2.58-4.5zm24 2.9c0-.52-.45-.94-1-.94s-1 .7-1 1.6.45 1.3 1 .94 1-1 1-1.6zm12 .11c-.37-.6-1.1-.79-1.7-.44-.67.41-.57.93.29 1.5 1.6.99 2.3.47 1.4-1zm-75-1.7c-.87-1.5-1.1-1.6-1.1-.25-.03 1.7 1 3.2 1.7 2.5.23-.24-.05-1.2-.64-2.2zm46-3.1c-1.5-.52-1.4-2.7.34-4.1 1.2-.96 1.2-1.8.28-4.4-1.1-3.2-1.2-3.2-1.9 2.8-.5 3.8-.42 6.1.21 6.3.55.19 1.1 1.5 1.2 3 .14 2.6.17 2.6.59-.3.24-1.6-.05-3.1-.65-3.3zm11 1.9c-.98-1.6-2.6-.29-1.9 1.5.38 1 .93 1.2 1.6.55.53-.53.67-1.5.29-2.1zm15 1.9c.34-.55.03-1.1-.69-1.1s-2.4-.24-3.8-.37c-2.3-.23-2.3-.17-.55 1.1 2.2 1.6 4.1 1.8 5 .37zm36-3c0-1-1.2-3.2-2.6-4.7-1.4-1.6-2.3-2.1-2-1.3s.85 2.3 1.2 3.2.97 1.8 1.4 1.8c.44 0 .54.97.23 2.2-.39 1.5-.2 1.9.59 1.4.64-.4 1.2-1.6 1.2-2.6zm-55 1c1.3-.84 1.3-.97-.19-.98-.93-.01-2 .43-2.3.98-.78 1.3.54 1.3 2.5 0zm-36-5.2c-.24-1.2-.45-.46-.46 1.7s.19 3.2.44 2.3c.25-.95.26-2.8.02-4zm47 .7c-.34-1.4-.99-2.5-1.4-2.5s-.34 1.6.27 3.5c1.2 3.8 2.2 2.9 1.2-1zm22 .57c-.55-.55-2.3 2-2.3 3.4-.01.52.62.07 1.4-1 .78-1.1 1.2-2.2.94-2.4zm13-.33c-.8-.8-1.1-.3-1.1 1.8.03 2.6.16 2.7 1.1 1.1.77-1.3.76-2.2-.03-3zm-39-.44c-1.1-1.1-1.8.64-1.1 2.4.74 1.7.8 1.7 1.2-.04.24-1 .17-2.1-.15-2.4zm14 2.7c-.34-.55-1.6-.99-2.8-.98-1.8.01-1.9.19-.69.98 2 1.3 4.3 1.3 3.5 0zm7.9-1.3c.39.38.41-.07.05-1-.83-2.2-2-2.2-2.8-.14-1 2.7-.6 4 .77 2.2.73-.96 1.6-1.4 2-1zm20 1.6c-.37-.36-.16-1.3.45-2 .7-.84.74-1.3.1-1.3-1.2 0-2.3 2.6-1.5 3.4.32.33.82.6 1.1.6.28 0 .21-.3-.15-.66zm-48-7.3c-1-2.2-2.1-3.8-2.4-3.5-.32.31-.87-1-1.2-3-.36-2-1-3.6-1.5-3.6-1.2 0-.53 7.8.89 11 1 2.3 1.1 2.3.6-.87-.46-2.9-.32-3.2.97-2.1.83.68 1.5 1.9 1.5 2.7 0 2.2 2.3 6 2.7 4.6.21-.65-.45-3-1.5-5.3zm15 5c0-.55 1.1-1 2.4-1s2.8-.52 3.2-1.2c.44-.72.27-.89-.45-.45-.67.42-1.2.11-1.2-.73 0-.8-.59-1.7-1.3-2-1.7-.66-5.3 1.5-5.1 3 .09.69.22 1.7.29 2.2.06.55.57 1 1.1 1s1-.45 1-1zm28-2c1.2-2.2.44-4.4-1.2-3.4-.56.34-.8 1.4-.53 2.5.26 1-.04 2.1-.67 2.3-.81.34-.79.5.07.55.67.04 1.7-.83 2.3-1.9zm-59-3c0-2.5.2-3.5.44-2.2.23 1.2.23 3.3 0 4.5-.24 1.2-.44.22-.44-2.2zm64 1.6c.5.31.92-.13.92-.99s-.4-1.6-.89-1.6c-1 0-2.2 2.5-2 4.3.06.64.32.38.57-.59s.88-1.5 1.4-1.2zm-232 .27c-1.5-.62-2-1.2-1.2-1.5.95-.36.86-1.1-.42-3.3-1.6-2.7-1.6-3.1.77-8.7 1.3-3.2 2.4-7.4 2.4-9.3-.03-3.4 2.4-7.4 3.6-5.8.33.47 1.8.31 3.2-.36 3.2-1.5 3.7-5.4.66-6.2-2-.53-2.8-4.1-1.1-5.2 1.3-.81 4.1.44 4.1 1.8 0 1.6 5 8.9 5.7 8.3.27-.28-.5-1.8-1.7-3.5-1.8-2.4-2.1-3.8-1.5-6.6.37-2 1.1-3.6 1.6-3.6.52 0 .95-1.3.95-2.9 0-1.7.64-3.1 1.6-3.5 2.3-.87 2.2-.9 3.9 2.4.85 1.6 2.2 3 2.9 3 1.6 0 4.2-3.8 5.2-7.4.63-2.5 2.4-3.7 2.4-1.6 0 1.9 4.7.97 7.6-1.5 1.8-1.6 3.8-2.4 5.2-2.1 1.2.22 2.8-.21 3.4-.95.61-.74 1.5-1.1 2-.81.48.29 1.7.08 2.8-.48 1.6-.83 2.4-.35 5 2.9 1.7 2.2 3.1 4.4 3.1 5 0 .61-2.2 1.1-5 1.1-2.9 0-5 .45-5 1.1 0 .59-.84.8-1.9.47-1.3-.4-3.5.62-6.8 3.1-5.7 4.4-6.3 5.1-6.4 8.2-.02 1.8-.43 2.2-1.6 1.7-1.1-.43-1.4-.19-1.1.79.3.78-.54 2.9-1.8 4.6-1.8 2.4-2.2 3.7-1.4 5 1.6 3-.67 3.2-2.9.33-1.8-2.3-1.9-2.8-.57-4.1 1.9-1.9.9-3.6-1.5-2.4-.99.53-3.1.75-4.7.49-2.6-.42-2.7-.32-1.1.9.96.76 1.8 1.6 1.8 1.9 0 .61-4.8-.07-6.1-.85-.41-.25-.93-.11-1.2.3-.23.42-.29.21-.13-.46s-.14-1.5-.66-1.8c-1.1-.66-1.3 1.6-.36 3.9.34.87 1 1.3 1.5 1 .5-.31.91.03.92.75.01.95.28.9.98-.19.76-1.2.97-1.2.98-.13.02 1.1.34 1.1 1.4.22 1.1-.94 1.3-.56 1.1 2.1-.23 2.9-.63 3.3-3 3.3-1.5 0-3 .56-3.2 1.2-.23.69-1.3 1.2-2.3 1.2-1 0-2.4.87-2.9 1.9-1.5 2.8-1.3 3.3.96 2.6 1.1-.35 2-.19 2 .35 0 .55-1.3 1.3-2.8 1.6-4 .87-7.5 5.9-6.8 9.6.32 1.6.48 2.9.35 2.8-.12-.04-1.3-.54-2.7-1.1zm190 .01c0-.64-.31-.85-.69-.47s-1.2-.56-1.9-2.1c-1-2.3-1.2-2.4-1.3-.72-.08 2 1.6 4.4 3.1 4.4.44 0 .8-.53.8-1.2zm35-8.8c-.94-2.8-1.7-3.7-2.9-3.2-1.4.53-1.4.4-.18-1.2.9-1.1 1.1-2 .43-2.4-.54-.37-1.8-3.7-2.8-7.4-1.3-4.7-2.4-6.9-3.7-7.3-1.5-.49-1.9-1.6-1.9-5.8-.01-2.8-.35-6.3-.75-7.7-.6-2-.85-1.5-1.3 3-.51 4.8-.62 4.4-.88-4-.22-7.1-.48-8.6-1-6-.6 2.8-.76 2.1-.87-3.6-.07-3.9-.45-8.6-.84-10l-.71-3.4-1.3 6-.12-2.8c-.07-1.5-.53-2.6-1-2.2-.5.31-1.1-.67-1.4-2.2-.75-4.3-.64-7.3.26-7.3 1.1 0 2-3.9 1-4.5-.44-.27-1.3.94-1.9 2.7-1.4 4.1-3.4 2.5-2.1-1.7.49-1.6.93-2.3.97-1.6.05.78.36 1.1.69.81.51-.51-.03-2.9-2.2-9.6-.34-1.1-.74-1.1-1.6-.27s-.72 1.6.53 3c2.1 2.3 2.1 3.6.18 5.2-1.8 1.5-2 3.4-.33 2.4.76-.46.97-.2.61.75-.72 1.9 1.6 11 2.5 10 .95-.94.76 1.7-.3 4.1-.76 1.8-.87 1.7-.93-.75-.07-2.6-2.1-4.1-2.1-1.6 0 .64-.26.9-.58.58s-.14-1.4.41-2.4c.72-1.3.57-2.4-.56-3.8-1.3-1.7-1.5-1.8-.91-.17.73 2.1-1 6-2.3 5.2-.49-.3-1.2-.09-1.5.47s-.14 1 .45 1c1.2 0 1 5.9-.18 6.6-1.1.69-.96 2.4.22 2.4.55 0 1-.7 1-1.6s.46-1.3 1-.93.79 1 .51 1.4c-.65 1 1.9 3.2 2.8 2.4.36-.36.66-1.7.66-2.9s.5-2.6 1.1-3c.75-.46.89.08.42 1.7-.38 1.3-.92 3.2-1.2 4.2s-.17 3 .24 4.5l.75 2.7.72-3c.63-2.6.75-2.4.94 2 .18 4.1.37 4.5 1 2.5.44-1.4.85-5.2.9-8.4.13-7.5.83-6.9 1.5 1.2.27 3.4.76 6.6 1.1 7.2s.13 1.2-.43 1.6c-1.4.83-1.3 6.2.04 7 .73.45.84-.54.37-3.1-.48-2.5-.36-3.5.35-3.1.58.36 1.2.09 1.5-.6.24-.69.42 1.1.39 3.9s.43 5.8 1 6.5c.59.73 1.4 3.5 1.8 6.2 1 7.1 1.8 8.7 2.6 5.6.54-1.9.75-1.3.92 2.5.12 2.8.59 6.4 1 8 .63 2.3.73 1.6.44-2.5l-.39-5.5 1.4 6.9c.79 3.8 1.9 7.2 2.5 7.6s1.1 1.1 1 1.6.19 1.7.51 2.7c.54 1.7.69 1.7 2.1-.35 1.3-1.9 1.3-2.8.27-6zm-104 4.2c-1.6-.52-1.5-3.2.1-3.2.85-.01.77-.35-.25-1.1-1.3-.94-1.3-1 0-.63.82.23 1.4 1.1 1.2 2-.32 1.8 3.8 2 5 .26.49-.69.74-.64.75.17.01.67-1.2 1.9-2.7 2.8s-1.8 1.3-.75.91c1.1-.37 2.6-.7 3.2-.73 1.4-.05 1.7-5.4.38-5.9-.48-.18-1.1-3.9-1.4-8.3-.34-4.9-.24-6.8.26-5 .74 2.7.83 2.5 1-2 .17-3.8.38-4.4.92-2.5.56 2 .82 2.2 1.3.84.38-1-.12-2.3-1.3-3.4-1.1-.96-1.9-2.9-1.9-4.3 0-4.7-1.4-1.1-2.7 6.6-.98 6-1.2 6.5-.83 2.2.23-3 .74-7.7 1.1-10 .53-3.6.41-4.7-.44-4.2-.64.4-1.2 1.8-1.2 3.2 0 2.2-.94 2.9-3.2 2.6-.41-.06-1.6.66-2.8 1.6-2.2 1.9-2.8 6.5-.76 5.7.93-.36 1.2.85.9 4.6-.25 3.6-.02 4.9.75 4.4.64-.39 1.1.07 1.2 1.1.05 1.3.33 1.2 1.1-.69.55-1.4.86-5.3.69-8.7-.18-3.6.11-6.4.68-6.6.63-.23 1 4 1.1 11 .07 7.8-.13 10-.6 7.1-.48-3-.76-3.6-.86-1.8-.08 1.5-.55 2.8-1 2.8s-1.2 1.6-1.5 3.5c-.49 2.6-.19 4.1 1.1 5.9.99 1.3 2 1.9 2.2 1.3s-.12-1.3-.75-1.5zm16-4.7c0-9.1-1.6-10-2.2-1.2-.41 5.3.32 8.8 1.9 8.8.21 0 .38-3.4.38-7.5zm7.4 6c-.31-.82-.96-1.5-1.4-1.5-.47 0-.6.68-.28 1.5.31.82.96 1.5 1.4 1.5.47 0 .6-.68.28-1.5zm45-2.8c-.38-3.7-.43-3.8-2-3.8-.82 0-1.5.48-1.5 1.1s.45.78 1 .44c.57-.35 1 .49 1 1.9 0 1.4.39 2.6.86 2.6.48 0 .76-1 .63-2.2zm14-1.4c.52-2.7.31-4-.79-4.8-.82-.6-1.7-2.2-2-3.6-.29-1.4-.32-.66-.07 1.5.24 2.2.49 5.5.55 7.2.13 4.4 1.5 4.1 2.3-.45zm4.6-1-.4-4.8-1.3 3c-.83 2-.93 3.6-.32 4.8 1.6 3 2.4 1.9 2-3zm10 2c-.32-1.2-.98-2-1.5-1.6-.49.3-.89-.75-.89-2.3 0-3.7-2.9-12-4-12-.75.46.92 9 2.5 13 .72 1.8 3.7 5.4 4.1 5.1.12-.07-.05-1.1-.36-2.3zm13-.93c-3.1-1.6-3.8-1.1-2.3 1.6.93 1.7 1.4 1.9 3 .9 1.8-1.1 1.8-1.2-.68-2.5zm-90 .79c0-2.6-1-5.1-2.1-5.1-1 0-1.2 5.3-.22 6.3 1.2 1.2 2.3.67 2.3-1.2zm-140-2.7c.37-2 .46-3.8.19-4.1-.78-.77-3.4 5.1-2.9 6.4.83 2.3 2 1.3 2.7-2.4zm132-6.9c-.04-4.4-.29-7.5-.55-6.8-.27.66-1 1.1-1.7.92-.66-.16-.85-.09-.44.14s.76 4.1.77 8.6c.01 5.6.31 7.7.98 6.7.53-.82.94-5.1.91-9.5zm28-5c-.01-9.3-.4-16-.98-16-.53 0-.83 1.2-.67 2.8s.04 3.2-.26 3.8c-1.1 2-.83 14 .32 13 .78-.48.9.83.41 4.5-.6 4.5-.29 7.1.85 7.1.19 0 .34-7 .33-16zm50 8.9c-.17-3.1-.85-6.1-1.5-6.8-.93-.86-1 .08-.54 4.1.62 5 1.4 8.2 2.1 8.2.15 0 .14-2.5-.04-5.6zm-52 .88c-.01-2.1-.35-4.9-.75-6.2-.64-2.2-.81-2-1.4 2-.44 2.9-.58 1.3-.39-4.6.17-5-.04-9.7-.46-10-.84-1.4-2.2 7-2.2 13 0 4-.03 4-.91 1.1-.5-1.6-.61-4.6-.26-6.5 1.1-5.7 1.4-19 .47-19-.47-.28-.91 3.8-.99 9-.14 9.8-1.9 18-2 9.8-.03-2.3-.51-4.2-1.1-4.2-1.8 0-1.2 7.8.67 8.8 1 .57 1.7 2.2 1.7 4.1 0 1.7.29 2.7.64 2.1.37-.6 1.7.22 3.1 1.9 3.2 3.9 4 3.8 3.9-.72zm24 .04c-1.1-1.7-1.1-1.7-.58.04.32 1 .62 2.4.66 3 .06.84.21.83.57-.04.27-.67-.02-2-.65-3zm-15-2.1c.19-2.6-.28-5-1.2-6.4-.86-1.2-1.6-1.8-1.6-1.2-.04.53-.46.07-.93-1-.7-1.6-.87-1.7-.93-.31-.04.93.38 2 .93 2.3s.97 2.7.93 5.3c-.05 3.5-.28 4.2-.93 2.7-.78-1.8-.87-1.8-.93.58-.06 2.1.37 2.6 2.2 2.4 1.9-.14 2.3-.83 2.6-4.3zm30 1.1c0-2.3-.35-3.3-.92-2.8-.84.86-.37 6.4.54 6.4.21 0 .38-1.7.38-3.7zm-73-1.3c0-2.5.2-3.5.44-2.2.23 1.2.23 3.3 0 4.5-.24 1.2-.44.22-.44-2.2zm106 2.4c0-.86-.45-1.3-1-.94s-1 1-1 1.6.45.94 1 .94 1-.7 1-1.6zm-23-6.4c.05-2.2-.24-3.7-.64-3.5-.41.25-.92-1-1.2-2.8-.22-1.8-.47.31-.56 4.7-.12 6.2.11 7.7 1 6.8.67-.67 1.2-3 1.3-5.1zm-21 4.3c-.69-.28-1.2-1.3-1.2-2.2s-.66-2.6-1.5-3.7c-1.4-1.8-1.5-1.8-1.5 1.3-.03 3 1.9 5.3 4.5 5.2.55-.03.44-.27-.25-.55zm3.8-.9c0-.93-.47-1.3-1.2-.83-.78.48-.96.18-.54-.91.34-.9.19-1.9-.33-2.2-1.1-.66-1.3 1.6-.35 4 .78 2 2.4 2 2.4.02zm-17-3.9c0-1.9-.47-3.7-1-4-.68-.42-.94.91-.75 3.8.34 5.1 1.8 5.3 1.8.18zm31 .5c0-2.2-.45-4-1-4s-1 1.8-1 4 .45 4 1 4 1-1.8 1-4zm-26 2.2c0-.41-.45-1.4-.98-2.2-.78-1.2-.97-1.1-.98.75-.01 1.2.43 2.2.98 2.2s.99-.34.98-.75zm-172-8c.36-1.9.22-3.2-.35-3.2-.53 0-.98 1.2-.98 2.8-.01 1.5-.25 3.9-.53 5.2-.43 2.1-.38 2.2.36.5.48-1.1 1.2-3.5 1.5-5.2zm223 2.9c-.01-.93-.72-2.8-1.6-4.2l-1.5-2.5.68 2.5c.37 1.4.67 3.5.67 4.7 0 1.2.39 2 .89 1.7.49-.3.87-1.3.85-2.2zm-213-2.9c.07-2.8-3-.69-4.3 3-.61 1.7-.53 1.7 1.8 0 1.3-.98 2.5-2.3 2.5-3zm164-2c-.98-1.5-1.1-1.4-.58.72.3 1.4.62 3.2.7 4s.35.5.58-.72c.24-1.2-.08-3-.7-4zm4 .73c-1.8-1.1-2.2-.75-1.4 1.4.48 1.3.95 1.4 1.8.61.82-.82.72-1.4-.35-2zm19-13c-.49-3.3-.9-4.1-1.6-3-.7 1-.85.41-.54-2.1.41-3.3-.84-8.8-1.8-7.9-.23.23-.84 2.3-1.4 4.6-.76 3.4-.68 4 .44 3.6 1.7-.66 1.9 2.8.2 4.5-.65.65-.82 1.5-.37 2 .45.43 1 .21 1.3-.48s.87-1.2 1.4-1.2.19 1.5-.74 3.2c-1.6 3.1-1.6 3.2.16 1.8 1.7-1.4 1.8-1.3 1.2.13-.33.9-.08 3.6.57 6l1.2 4.4.32-5.5c.17-3 .02-7.5-.34-9.9zm3.7 6.9c-.84-4.4-1.7-7.8-1.9-7.6-.65.65 2 16 2.7 16 .38 0 .01-3.6-.82-8zm3.8 3.8c0-3.1-.3-3.9-1.1-3.1-.65.65-.83 2.4-.42 4.2.94 4.3 1.5 3.9 1.5-1.1zm-200-.11c.01-.44-.43-.53-.98-.19s-.99 1.4-.98 2.3c.01 1.5.14 1.5.98.19.53-.82.98-1.9.98-2.3zm108-.19c.01-2.2.22-3 .46-1.7.24 1.2.23 3-.02 4-.25.96-.45-.06-.44-2.3zm48 1.1c.33-1.3.4-3.4.16-4.8-.3-1.6-.49-1.1-.58 1.5-.08 2.3-.55 3.6-1.1 3.2-.55-.34-1 .08-1 .94 0 2.4 1.9 1.8 2.6-.84zm-21-6.4c-.59-.2-1.1-.8-1.1-1.3 0-.54.45-.7 1-.36.81.5 1.4-4.6.91-8.1-.04-.35.34-.91.85-1.2.54-.36.3-2.1-.57-4.1l-1.5-3.5-.92 4c-.97 4.2-.25 20 1 22 .4.62.88-.66 1-2.8.19-2.2-.14-4.1-.75-4.3zm26 3.1c-.91-1.6-1-1.5-1.1.8-.02 1.4.31 2.9.72 3.3 1.2 1.2 1.5-2.2.35-4.1zm58-2.5c-.6-3-.54-3.1.78-1.3 1.3 1.8 1.3 1.6.58-2-.46-2.2-1.5-6.5-2.4-9.5l-1.5-5.5.69 5.5c.37 3 .59 7.3.49 9.5-.2 4.3.25 6.5 1.3 6.5.36 0 .37-1.4.02-3.2zm-120-5c-.24-1.2-.44-.22-.44 2.2s.2 3.5.44 2.2c.23-1.2.23-3.3 0-4.5zm-78 3.8c0-.79-.42-1.7-.93-2-1.2-.73-2.4 1.1-1.6 2.5.92 1.5 2.5 1.2 2.5-.44zm-7.6-.33c-.59-.4-1.6-1.6-2.2-2.7-.84-1.5-1.1-1.6-1.2-.45-.03 1.8 1.9 4 3.4 3.9.7-.01.69-.25-.04-.75zm119-8c.97-16 2-22 3.7-19 .6.97 1.2.54 2.1-1.6.72-1.6 1.6-3.2 2-3.5.4-.3.88-4.8 1.1-10 .31-8.7.35-8.5.54 3.3.12 7 .61 13 1.1 13 .53 0 .54 1.6.03 3.8-1.2 5-1.2 11 .01 9.8.51-.31.73-1.7.49-3-.49-2.7 1.1-4.4 1.9-2 .76 2 2.6 1.9 2.6-.07 0-.86-.45-1.3-1-.94-.61.38-.94-.87-.85-3.2.11-2.9.25-3.2.56-1.1.22 1.5 1.1 2.9 1.8 3.2 1.2.47 1.4-1.8 1.4-14 0-9.5.39-15 1.1-16 1.6-.96 2.4.28 1.2 1.8-.57.71-1.1 7.2-1.1 15-.05 7.3-.3 14-.56 14-.78 1.3 3.3 9.4 4.4 8.7.56-.35 1-.15 1 .43s.45 1.1 1 1.1 1-1.6 1-3.5v-3.5l2.2 2.2c1.7 1.7 2.3 1.9 2.6.75.25-.79.95-2.1 1.6-2.9.84-1.1.82-1.3-.07-.73-.69.41-2.3-.45-3.8-2-2.6-2.8-3.5-5-1.6-3.8 1.4.88 1.2-.86-.24-2.3-.88-.88-.92-1.4-.15-2 .6-.39 1.4-1.4 1.7-2.2.32-.82.61.24.65 2.4.06 3.1.4 3.7 1.6 3.2 1.2-.45 1.4-.13.95 1.3-.33 1-.13 2.2.44 2.6.57.36 1.1-.17 1.1-1.2.16-4.1.88-7.7 1.8-8.5.57-.57.74.06.44 1.6-.3 1.6-.04 2.6.68 2.6.65 0 .86.52.46 1.2-.45.74-.27.89.51.4.78-.48 1.4.01 1.8 1.4.31 1.2.95 2.1 1.4 2.1 1.4 0 1-3-.62-4.6-.82-.83-1.5-2.4-1.5-3.4 0-1-.56-2.2-1.2-2.7-1.8-1.2-4.8-6.8-4.8-9.2 0-1.1-.45-2.3-1-2.6s-1-1.1-1-1.8.71-.26 1.6.81c.87 1.1 1.4 1.5 1.1.92-.27-.57-.12-2.6.33-4.5.77-3.3.82-3.2.92 1.8.05 2.9.5 6 1 7 .49.96 1.4 2.9 2 4.2l1.1 2.5-.37-2.5c-.2-1.4-.67-3.8-1-5.5l-.67-3 3 3.5c2.2 2.5 3 3 3.1 1.8.02-.92-.58-2.3-1.3-3-2-2-2.4-7-1.1-14 .64-3.2.96-6.6.71-7.5-1-3.9-2-1.2-3 8l-1 9.8.48-11c.31-7.1.12-11-.5-11-.54 0-1.3-.91-1.6-2-1.2-3.8-2.5-.91-2.7 5.8-.16 6-.22 6.2-.56 1.7-.52-6.9-2.2-8.3-2.4-2-.08 4-.26 4.5-.9 2.4-.55-1.7-.87.31-1 6.5-.19 7.8-.32 8.4-.97 4.5-1.1-6.6-.28-17 1.5-19 1.8-1.9 1.9-2 .07-2-2.4 0-3.3 4.2-4.4 21l-.82 12-.19-8.5c-.16-7.3-.37-8.3-1.5-6.7-1.2 1.6-1.4 1.2-2.2-3.5l-.84-5.3-.56 7c-.35 4.3-.77 6-1.1 4.5l-.55-2.5-.81 2.9c-.57 2-.43 3.1.45 3.6.99.61.92 1.3-.37 3.1-.9 1.3-1.6 1.8-1.6 1 0-.7-.45-1-1-.66-.63.39-1-2.2-1-6.9 0-6.5-.23-7.4-1.6-6.9-.87.33-2 1.6-2.4 2.7-.77 1.9-.86 1.8-.92-.7-.03-1.5.35-2.6.85-2.2s.65-.39.35-1.6c-.51-2-.63-2-1.5-.36-.59 1.1-.7 4.6-.27 8.9.97 9.6.8 17-.43 19-.7 1.2-.82-.81-.37-6.6.46-5.9.31-8.2-.51-8.2-.63 0-1.2 1.5-1.2 3.2-.01 2.2-.29 2.8-.86 1.9-.67-1.1-.97-1-1.5.33-.35.91-.61 2.4-.57 3.3.06 1.3.24 1.3.93-.33.76-1.8.87-1.7.93.75.04 1.5-.41 2.8-1 2.8-.63 0-.96 1.6-.79 4 .16 2.2-.02 4.3-.41 4.6-.38.38-.98 2.9-1.3 5.5-.36 2.7-1 4.8-1.4 4.8-.9 0-.52-4 .92-9.7.54-2.1.92-6.3.86-9.3-.1-5.2 2.3-13 4.6-14 .52-.36.66-1.4.29-2.4-.53-1.4-.93-1.5-2.1-.48-1.2 1-1.5.9-1.5-.67 0-1 .9-2.7 2-3.6s2-2.5 2-3.5c-.03-1.6-.17-1.6-1.5.18-1.3 1.7-1.5 1.8-1.5.22 0-2.4 2.9-6.7 4.6-6.7 1.5 0 2.9-1.8 2.1-2.7-.31-.31-2.1 1-4.1 2.9-4.4 4.4-5.6 9.4-6.1 25-.19 6.5-.76 12-1.3 13-.51.66-.88 3.3-.84 6 .05 2.6-.2 4.8-.56 4.8-1 0-.84 9.9.21 11 .52.32.94-.38.94-1.5 0-1.2.44-1.8 1.1-1.5.6.37.79 1.9.42 3.5-.34 1.6-.34 3.3 0 3.9 1.6 2.6 2.4.37 2.9-7.7zm7.2.5c-.27-1.5-.05-2.8.51-2.8.64 0 .59-.78-.13-2.1-.88-1.6-.84-2.3.22-3.1 1-.72.89-.82-.48-.37-1 .32-2 .59-2.2.59-.21 0 0 1 .48 2.3.52 1.4.5 3-.06 4-.51.92-.73 2.9-.48 4.4.25 1.5.53 3.4.62 4.3.1.82.6.15 1.1-1.5.52-1.6.72-4.2.44-5.8zm6.4 6.3c0-1.1-.45-2.2-1-2.6-.57-.35-1 .49-1 1.9 0 1.4.45 2.6 1 2.6s1-.87 1-1.9zm51-2.4c-1.3-1.3-1.5.15-.37 3 .7 1.8.73 1.8 1.1-.03.21-1-.11-2.3-.72-3zm18-.44c-1.2-1.2-1.7.65-.96 2.9l.81 2.3.36-2.3c.21-1.3.11-2.6-.21-2.9zm-62 .5c-.06-2.6-.22-2.9-.86-1.2-.44 1.1-.58 2.6-.32 3.2.8 2.2 1.2 1.4 1.2-2zm7.8-1.5c.11-5.1-1.6-10-1.9-5.2-.26 5.3.44 10 1.5 10 .15 0 .32-2.2.38-4.8zm2.4 2.1c-.87-1.5-1.1-1.6-1.1-.25-.03 1.7 1 3.2 1.7 2.5.23-.24-.05-1.2-.64-2.2zm-58-.45c0-.55-.45-.72-1-.38s-1 .17-1-.38c0-1.6 1.8-2.3 2.3-.88.31.79.53.64.58-.41.12-2.5-1-4.9-2-4.3-.49.3-.6-.19-.26-1.1.49-1.3.8-1.4 1.4-.34.58.93 1.1.51 1.9-1.5.81-2.1.73-3.3-.34-4.8-1.3-1.9-1.5-1.8-2.6 1.8-.68 2.1-1.6 4.4-2.2 5-1.2 1.5.9 9.6 2.2 8.8.52-.32.95-1 .95-1.6zm51-2.2c-.79-.79-1.1-.53-1.1.94 0 2.6 1.4 4 1.8 1.8.19-.93-.14-2.2-.75-2.8zm10-2.8-.73-3.4-.54 3.4c-.29 1.9-.3 4.3-.01 5.4.51 2 .52 2 1.3-.03.41-1.1.42-3.6.02-5.4zm-20 .52c-.5-2.2-.96-3.1-1-2.2-.05.96-.62 1.8-1.2 1.8-.7 0-.5.73.5 1.8.91 1 1.7 2.5 1.7 3.2s.28.94.52.35c.25-.58.03-2.8-.48-5zm59-1.7c-.24-1.2-.44-.22-.44 2.2s.2 3.5.44 2.2c.23-1.2.23-3.3 0-4.5zm-187 2.2c.38-2.6.24-2.8-.92-1.7-.76.76-1.1 2.1-.73 3 .89 2.3 1.1 2.1 1.6-1.4zm134-1c.51-.32.07-2.5-.98-4.8-1.7-3.9-2-4-2.5-1.9-.34 1.3-.62 3-.62 3.8 0 1.3.11 1.3.97 0 .71-1.1 1-.3 1.1 3 .07 2.5.36 3.6.63 2.5.28-1.1.91-2.3 1.4-2.6zm57-1.4c-1.6-4.2-2.4-2.3-.91 2.2.73 2.2 1.4 3.1 1.6 2.2.19-.87-.14-2.8-.73-4.4zm-112 1.8c-.28-.73-.91-1.1-1.4-.78-1.4.85-1.1 2.1.5 2.1.78 0 1.2-.6.9-1.3zm80-1.4c0-.52-.45-.94-1-.94s-1 .7-1 1.6.45 1.3 1 .94 1-1 1-1.6zm-66-.74c.29.71.55.85.59.3.08-1.3-1.7-4.1-2.2-3.5-.24.26-.74 1.6-1.1 3-.62 2.3-.57 2.4.78.7 1.1-1.4 1.6-1.5 2-.5zm54-1.4c-.06-3-.13-3.1-1-.91-.51 1.3-.68 2.8-.37 3.2 1 1.7 1.4.95 1.4-2.3zm47-3.8c-1.4-4.3-1.4-4.4-1.5-1.3-.06 1.8.42 4.5 1.1 6 1.8 4.3 2.1.61.46-4.7zm-186-1.2c.02-.41-.86-.75-2-.75s-2 .19-2 .42-.29 1.2-.63 2.2c-.56 1.6-.45 1.6 1-.17 1.6-1.9 1.6-1.9 1.1 1l-.57 3 1.5-2.5c.83-1.4 1.5-2.8 1.6-3.2zm78-1.8c1.3-3 2.2-6.8 2-8.3-.32-2.7-.42-2.7-1.8-1-1.4 1.7-1.4 1.7-.34-.5.63-1.3.89-3.3.59-4.5-.67-2.6-4.6-3.4-4.6-.81.01 1.5.14 1.5.98.19 1.2-1.9 1.3-.4.06 3.8-.51 1.8-.59 3-.16 2.8.42-.26.77.84.77 2.4s-.38 2.7-.84 2.4c-.45-.29-.83.23-.83 1.2 0 1.1.54 1.5 1.5 1.1 1.8-.71 1.8.12 0 3.4-1.6 2.8-2 5.9-.58 4.4.51-.52 2-3.4 3.3-6.4zm83 .06c0-1.6-.75-3.4-1.7-4.2-1.5-1.2-1.6-1.1-1 2 .37 1.8.67 4 .67 4.8 0 .79.45 1.2 1 .82s1-1.9 1-3.4zm27 .21c-.25-.97-.47-.42-.5 1.2-.02 1.6.19 2.4.47 1.8.27-.68.29-2 .03-3zm-36-.1c-.12-1.6-.73-2.8-1.4-2.8-.64 0-.98.6-.75 1.3 1.1 3.8 1.4 4.3 1.8 4.3.27 0 .4-1.3.28-2.8zm24-2.7-.92-3.9-.1 4.1c-.05 2.2.23 4.4.63 4.8 1.2 1.2 1.4-.81.39-5zm-77-.99c0-1.9-.34-3.4-.75-3.4s-.77 1.8-.8 3.9c-.02 2.2.32 3.7.75 3.4.44-.27.8-2 .8-3.9zm-93 2.5c1.2-1.9-.54-2.4-2.3-.62-1.6 1.6-1.6 1.7-.03 1.7.91 0 2-.48 2.3-1.1zm109-5.7c-.07-5.5-.11-5.6-1.2-2.5-.64 1.8-1.4 3.5-1.8 3.8-.86.84 1.4 5.5 2.4 4.9.43-.26.74-3 .69-6.2zm27 4.6c-.01-1.8-.21-1.9-.93-.8-.5.8-.7 1.8-.43 2.2.87 1.4 1.4.86 1.4-1.4zm41-4.4c-.35-1.9-1-3.4-1.5-3.4s-.45 1.9 0 4.2.89 4.7.98 5.2.38.17.64-.85.19-3.4-.16-5.2zm-172 4.1c.32-.82.19-1.5-.28-1.5-.48 0-1.1.68-1.4 1.5-.32.82-.19 1.5.28 1.5.48 0 1.1-.68 1.4-1.5zm3.4-.65c.11-1.5-.15-1.8-.9-1.1-.59.59-.76 1.6-.39 2.2.94 1.5 1.1 1.4 1.3-1.1zm96-1c-.93-.93-1.2-.67-1.2 1.2s.27 2.1 1.2 1.2.93-1.5 0-2.4zm-91 1.2c0-.55-.5-1-1.1-1s-.84-.7-.51-1.6c.34-.89.18-1.3-.39-.94-1.6.96-1.2 4.5.51 4.5.82 0 1.5-.45 1.5-1zm166-7.9c-.55-4.3-.91-5.1-1.5-3.6-.62 1.5-.83 1.1-.9-2-.04-2.2-.55-4.7-1.1-5.5-.77-1.1-.91-.02-.54 4 .29 3 .99 5.6 1.6 5.8.58.19 1.1 1.6 1.1 3 .01 1.5.33 3.8.71 5.2 1.1 4 1.6-.28.75-6.9zm-91 3.9c-.85-1.6-1.7-3-2-3-.24 0 .04 1.4.62 3s1.5 3 2 3 .23-1.4-.62-3zm58 .5c-.63-1.4-1.6-2.5-2-2.5-.89 0-.35 1.4 1.5 3.8 1.5 2 1.8 1.5.54-1.2zm26-.81c-.07-2.1-.1-2.1-.93-.19-1.2 2.8-1.2 3.7 0 3 .55-.34.97-1.6.93-2.8zm-53-.19c.03-1.6.25-2.2.5-1.2.26.97.24 2.3-.03 3-.28.68-.49-.12-.47-1.8zm-55-1.8c-.07-2.1-.1-2.1-.93-.19-1.2 2.8-1.2 3.7 0 3 .55-.34.97-1.6.93-2.8zm95-.69c0-2.5.2-3.5.44-2.2.23 1.2.23 3.3 0 4.5-.24 1.2-.44.22-.44-2.2zm11-2c-.06-2.8-.47-5-.91-5s-1-1-1.3-2.2-.23.68.06 4.2.72 6.8.96 7.2c.95 1.7 1.3.51 1.2-4.2zm-76-.37c-.01-1.8-.19-1.9-1.1-.63-.9 1.2-.98 1.2-.48-.34 1.7-5.3 1.9-7 .58-6.2-.86.53-1.1.41-.58-.37.4-.65 1.2-.91 1.7-.6.53.33.93-1.7.92-4.7v-5.3l-2 3c-1.1 1.6-2 4.6-2 6.6-.01 2-.57 4.2-1.3 4.9-.95 1-.97 1.4-.06 1.8.66.24.95 1.1.65 1.9-.31.79-.28 2.2.06 3 .86 2.2 3.6-.06 3.6-3zm73-.38c-.25-.96-.46-.18-.46 1.8s.21 2.7.46 1.8.25-2.5 0-3.5zm-42 1.2c-.65-5.4-.56-13 .15-13 .44.44.64 3.9.44 7.7-.19 3.8-.46 6-.59 4.9zm-3.9-3.5c0-2.5.2-3.5.44-2.2.23 1.2.23 3.3 0 4.5-.24 1.2-.44.22-.44-2.2zm51-4.3c-.08-2.4.28-5.2.82-6.2.54-1.1 1-3.6 1.1-5.5.12-3.4.05-3.3-2 1.7-1.2 2.9-2.5 5-3 4.7-.82-.51-.21 2 1 4.1.64 1.1.8 1.8.99 4 .06.82.35 1.5.63 1.5s.43-1.9.34-4.3zm-83-1c-.01-1.8-.19-1.9-.98-.69-1.3 2-1.3 4.3 0 3.5.55-.34.99-1.6.98-2.8zm40-.19c.03-1.6.25-2.2.5-1.2.26.97.24 2.3-.03 3-.28.68-.49-.12-.47-1.8zm22 .08c-.11-1.1-.68-2-1.3-1.8-.64.14-.83-.46-.46-1.4.44-1.2.26-1.4-.64-.86-1 .62-1 .33-.12-1.4 1.2-2.3 3.6-1.8 2.6.51-.64 1.7.98 1.9 2 .27.39-.62-.04-1.6-.94-2-.9-.51-1.6-1.4-1.6-1.9 0-.55.44-.73.99-.4.56.35.73-.05.39-.93-.73-1.9-2.4-1.1-2.4 1.2-.03 1.6-.14 1.6-1.4-.07-1.2-1.5-1.3-1.1-1.3 3.2 0 2.8.39 5 .86 5 .48 0 .82.34.75.75-.23 1.4.13 1.9 1.4 1.9.73 0 1.2-.93 1.1-2.1zm27-2.2c-.32-2.8-.19-4.1.35-3.2.67 1 .88.88.89-.7.01-1.2-.62-2.1-1.5-2.1-1.6 0-1.9 2.4-.88 7.6.96 4.8 1.7 3.7 1.1-1.5zm-109 1.3c0-.74-.63-1.3-1.4-1.3-.78 0-1.2.6-.9 1.3.28.73.92 1.3 1.4 1.3s.89-.6.89-1.3zm10-6.3-.92-3.9-.1 3.6c-.05 2 .2 3.9.57 4.2 1.2 1.2 1.4 0 .45-3.9zm64-1.5c-1.2-2.7-1.5-3-1.6-1.2-.04 1.2.37 2.5.92 2.8s1 1.6 1.1 2.8c.08 1.5.25 1.7.55.56.24-.9-.23-3.2-1-5zm23 3.1c.29-1.1.11-2-.38-2-.5 0-.91.9-.91 2s.17 2 .38 2 .62-.9.91-2zm-79-3.7c.42-2.3.21-3.9-.6-4.6-1-.94-1.1-.59-.59 1.6.44 1.9.31 2.6-.37 2.2-.57-.35-1-1.9-1-3.4 0-1.5-.34-3.1-.75-3.5-.41-.4-1.3-2.2-1.9-3.9-.65-1.8-1.2-2.4-1.2-1.5-.05.93.4 3 .98 4.5.75 2 .75 2.9 0 3.2-1.4.46-1.4 5.2 0 5.2.58 0 .86-.34.62-.75-.23-.41-.07-1.6.37-2.8.57-1.4.83-.46.88 3.2.06 4.2.37 5.1 1.5 4.6.81-.31 1.8-2.1 2.1-4zm5.4-.52c0-.45-.9-.81-2-.81-2.1 0-2.4.77-1.3 3.6.62 1.6.75 1.6 2-.11.74-1 1.3-2.2 1.3-2.6zm5 2.1c0-1.1.43-1.8.96-1.5.52.33.7 1.2.39 2.1-.79 2.1-1.4 1.8-1.4-.59zm42-2.2c-1.3-1.3-1.5.15-.37 3 .7 1.8.73 1.8 1.1-.03.21-1-.11-2.3-.72-3zm-27-6.7c-.04-1.6-.36-1.1-.89 1.5-.45 2.2-.8 5.1-.77 6.5.04 1.6.36 1.1.89-1.5.45-2.2.8-5.1.77-6.5zm52 5.9c0-1.1-.45-1.7-1-1.4s-1 1.5-1 2.6.45 1.7 1 1.4 1-1.5 1-2.6zm6-.91c2.5-5 1.5-7.7-1.1-2.9-1.7 3.2-2.5 6.9-1.4 6.9.26 0 1.4-1.8 2.5-4zm-114-.72c-.81-5.2-1.3-5.4-1.3-.42 0 2.3.42 4.2.94 4.2s.68-1.7.36-3.8zm9.4-.98c-.25-.97-.47-.42-.5 1.2-.02 1.6.19 2.4.47 1.8.27-.68.29-2 .03-3zm-15-.52c-1.4-2.6-1.8-2.9-2.1-1.4-.4 1.9 1.4 4.7 2.9 4.7.49 0 .12-1.5-.82-3.2zm125-1.1c-1.3-1.3-1.5.15-.37 3 .7 1.8.73 1.8 1.1-.03.21-1-.11-2.3-.72-3zm-25 .36c-.08-1-.58-1.6-1.1-1.3-.56.35-.67-.14-.27-1.2.6-1.6.48-1.6-.89-.49-1.4 1.2-1.4 1.4-.06 2.2.89.5 1.3 1.5.89 2.5-.41 1-.23 1.4.48.95.6-.37 1-1.5.96-2.6zm18-1.4c.01-.44-.43-.53-.98-.19s-1 .07-1-.61c0-.67-.21-1-.46-.76-.25.25-.19 1.5.14 2.8.45 1.7.81 2 1.4.95.47-.73.86-1.7.86-2.1zm-114-7.6c-.85-2.3-.96-2.1-1.1 1.9-.18 4.2-.25 4.3-.96 1.5l-.76-3-.12 3.2c-.14 3.8.11 4.8 1.1 4.5.41-.14.8.31.85 1 .06.69.52-.52 1-2.7.57-2.4.56-4.9-.02-6.5zm41 6.8c0-1-.45-1.9-1-1.9s-1 .41-1 .92c0 .5-.28 1.6-.61 2.5-.45 1.2-.18 1.4 1 .97.88-.34 1.6-1.5 1.6-2.5zm64-.7c-1-1-1.6-1.2-1.6-.4 0 .66.45 1.2 1 1.2s1 .79 1.1 1.8c.05 1.2.25 1.3.62.4.29-.74-.2-2.1-1.1-3zm-26 .31c.03-1.6.25-2.2.5-1.2.26.97.24 2.3-.03 3-.28.68-.49-.12-.47-1.8zm11-1.8c0-.74-.68-1.3-1.5-1.3s-1.5.6-1.5 1.3c0 .73.68 1.3 1.5 1.3s1.5-.6 1.5-1.3zm3.5-4.7c-.48-.78-1.1-.84-1.7-.17-.55.55-.67 1.5-.27 2.2.48.78 1.1.84 1.7.17.55-.55.67-1.5.27-2.2zm-33-4c.41 0 .74-.67.74-1.5s-.14-1.5-.3-1.5c-.63 0-5.4 7.5-5.4 8.5.01.56.95-.44 2.1-2.2 1.1-1.8 2.4-3.2 2.8-3.2zm-24 2.6c0-.67-1.1-2.3-2.5-3.6s-2.5-1.9-2.5-1.4c0 .5-.48.25-1.1-.58-1.6-2.3-.05 3 1.7 5.7 1.4 2.3 4.4 2.2 4.4-.15zm75 .43c-.53-2-1.4-2.5-2.6-1.4-.48.49 1.8 3.1 3 3.3.08.02-.08-.87-.37-2zm-116 .03c0-.53.68-.71 1.5-.39 1.9.73 1.9-.64.01-4.3l-1.5-2.9v2.8c-.01 1.5-.46 2.8-1 2.8s-1 .67-1 1.5.45 1.5 1 1.5 1-.44 1-.97zm46-2c-.34-.55-.14-1 .44-1s1.1-1.7 1.2-3.8c.06-2.1.32-2.9.59-1.8.75 3.1 2.1 4.1 2.9 2 .39-1 2.4-3.5 4.5-5.6 3.7-3.6 5.1-5.8 2.7-4.3-.79.48-.96.17-.53-.95.35-.91.15-1.7-.44-1.7-.67 0-.82-1-.4-2.8.45-1.8.35-2.4-.31-1.8-.55.55-1.2 2.1-1.4 3.5s-.3.64-.11-1.6c.25-3-.15-4.6-1.5-5.8-.98-.89-2.1-1.3-2.5-.96-.37.37-.67-.11-.67-1.1 0-2.2-1.6-.7-4.9 4.7-1.9 3.1-2.2 4.7-1.7 8.2.56 4.1.43 4.4-1.6 4.6-1.2.06-2.6.05-3.1-.03-.45-.08-.54.88-.19 2.1.61 2.2.58 2.2-.93.34-.85-1.1-1.5-1.5-1.5-1 .03 2.1 1.6 3.2 4.2 2.9 1.5-.17 2.8.11 2.8.61s-.45.91-1 .91-1 .5-1 1.1.67.85 1.5.53c.82-.31 1.4-.25 1.4.15-.28 1.8.23 3.2 1.2 3.2.58 0 .78-.45.44-1zm56-1.6c-1.5-1.8-2.2-1.2-1.3.96.35.9 1 1.4 1.6 1.1.57-.35.47-1.2-.24-2zm-11-.14c.84-.96 2-2.9 2.7-4.2 1.2-2.4 1.1-2.4-1.2.25-2.1 2.4-5.7 4-4.4 2 .27-.44-.37-.86-1.4-.94-1.8-.13-1.8 0-.32 2.3 1.9 2.9 2.6 3 4.6.69zm19 .25c0-.83-.45-1.5-1-1.5s-1 .67-1 1.5.45 1.5 1 1.5 1-.67 1-1.5zm-41-3.5c-.55-.55-2.3 2-2.3 3.4-.01.52.62.07 1.4-1 .78-1.1 1.2-2.2.94-2.4zm38 1.7c1.1-2 1-2.1-.47-.88-.91.76-1.7 1.8-1.7 2.2 0 1.5.89.96 2.1-1.4zm-97-4.1c.54-1 1.1-1.7 1.2-1.5.12.19.77 1.1 1.5 2 1.1 1.4.93 1.6-1.2 1.5-2-.13-2.3-.45-1.5-2zm88-.66c0-1.1-.17-2-.38-2s-.62.9-.91 2-.11 2 .38 2c.5 0 .91-.9.91-2zm-66 .06c0-.52-.45-1.2-1-1.6s-1 .08-1 .94.45 1.6 1 1.6 1-.42 1-.94zm30-1.9c-.01-1.5-.14-1.5-.98-.19-1.3 2-1.3 3.3 0 2.5.55-.34.99-1.4.98-2.3zm45-3c0-.95-.71-.57-2 1.1-1.1 1.4-2 2.9-2 3.3s.9-.06 2-1.1 2-2.5 2-3.3zm-60 2.1c-1-1-.77-9.6.33-11 .53-.83 1-1 1.1-.5.07.55.48-.12.92-1.5.54-1.7.78-.1.74 5-.05 6.7-.12 7-.65 2.5-.73-6.2-2.1-4.7-1.7 1.8.33 4.9.3 5.1-.76 4zm-6.1-4.6c-1.4-.91-2 .76-1.1 3 .64 1.6.78 1.5 1.5-.28.45-1.2.3-2.3-.36-2.7zm55-3.3c.59.37.98-.53.93-2.2-.04-1.6-.31-2.2-.58-1.6-.28.69-.99.96-1.6.59-.61-.37-.78-.19-.4.43.37.59.22 1.4-.34 1.7s-.99 1.6-.96 2.8c.07 2.2.07 2.2.99-.12.52-1.3 1.4-2 1.9-1.7zm9.5 2.5c.34-.55-.08-1-.94-1s-1.6.45-1.6 1 .42 1 .94 1 1.2-.45 1.6-1zm-17-4.7c-.9-1.5-1-1.4-.64.71.58 3.5.66 3.6 1.2 2.3.27-.67.02-2-.57-3zm-59-1.5c-.26-.69-.12-2.2.32-3.2.64-1.6.8-1.4.86 1.2.07 3.4-.38 4.2-1.2 2zm29-2.8c-.41-1.6-.76-1.8-1.4-.78-.63 1 .41 2.7 1.8 2.8.08.01-.09-.92-.39-2.1zm31 .67c.69-.83.78-1.6.23-2-.51-.32-1.2.32-1.4 1.4-.62 2.4-.36 2.5 1.2.58zm6.4-1.6c-.72-2.8-1.3-2.5-1.3.56 0 1.4.41 2.3.91 2 .49-.31.67-1.5.38-2.6zm14-2.1c-1.4-4.1-2.9-6-2.9-3.7 0 1.6 3.2 7.9 3.7 7.4.15-.15-.24-1.8-.87-3.7zm-105-.91c.43-1.9.77-5.4.76-7.8-.02-3.8.13-4.1 1.3-2.5 1.4 2 .94 5.6-1.4 11l-1.4 3.1.77-3.5zm52-.75c-.01-2.8-.26-3.4-.98-2.2-.53.83-.98 1.1-.98.69-.01-.44-.46-.53-1-.2-.61.38-.37 1.6.62 3.1 2.1 3.2 2.4 3.1 2.4-1.3zm41 .75c-.72-2.8-1.3-2.5-1.3.56 0 1.4.41 2.3.91 2 .49-.31.67-1.5.38-2.6zm-16-.06c0-.52-.45-.94-1-.94s-1 .7-1 1.6.45 1.3 1 .94 1-1 1-1.6zm-84-1.2c-.86-1.2-1.6-3-1.6-3.8 0-1.9 3.1-4.9 5-4.9.84 0 .51.62-.83 1.6-3 2.1-2.8 4.8.53 7.3 2.6 2 2.6 2.1.56 2.1-1.2.02-2.9-.97-3.8-2.2zm27-1.5c-1.4-7.5-7.9-11-9.8-4.9-.74 2.2-.55 3.2.92 4.9 2 2.3 4.9 3.7 7.7 3.8 1.6.05 1.8-.44 1.2-3.7zm54-2.2c0-.95-.32-.76-.86.5-.47 1.1-.86 2.7-.86 3.5 0 .95.32.76.86-.5.47-1.1.86-2.7.86-3.5zm-42-.25c-.49-1.8-.4-1.9.42-.75.58.83 1 1 1 .5s-.67-1.9-1.5-2.9c-1.4-1.8-1.5-1.8-1.5 1.1 0 2.7.65 4.4 1.7 4.4.22 0 .12-1-.23-2.2zm56-.61c.68 1.1.86 1 .87-.28.01-.91-.72-1.9-1.6-2.3-2.1-.81-2.6-.3-1.7 2 .49 1.3.84 1.4 1.1.53.36-1.1.6-1.1 1.3.05zm-4.5-3.9c-.34-.34-1.2-.02-1.9.71-.98 1.1-.97 1.2.02.63.72-.41 1.3-.15 1.3.6.06 1.1.17 1.1.6 0 .29-.72.25-1.6-.09-1.9zm6.6-4.4c.2-2 .06-3.5-.31-3.3-1 .62-1.8 5.6-1.1 7.3.67 1.8.93 1 1.4-4.1zm2.3 3.2c-.32-.52.32-2.4 1.4-4.2 2.2-3.6 2.5-4.8 1.1-4.8-.88 0-4.1 7.1-4.1 9 0 .54.48.98 1.1.98s.8-.42.48-.94zm9.7-3.3c-.36-1.4-.16-1.8.62-1.3 1.3.83 1.4-.05.16-2.9-.61-1.4-.91-1.6-1-.5-.09.83-.56.38-1-1-.68-1.9-.76-1.6-.35 1.5l.52 4-2-3c-1.1-1.6-2-2.7-2-2.3-.01.37-.31 1.4-.68 2.4-.47 1.2-.3 1.5.54 1 .89-.55 1-.01.5 2.1-.61 2.5-.51 2.7.84 1.6 1.3-1.1 1.6-.91 2.2 1 .48 1.7.82 2 1.5.91.48-.75.63-2.3.34-3.4zm17 2.2c0-.52-.45-.94-1-.94s-1 .7-1 1.6.45 1.3 1 .94 1-1 1-1.6zm-125-2.4c.64-1.4 1.8-2.5 2.7-2.5 2.1.04 6.9 2.9 5 2.9-.85.02-2.1-.52-2.8-1.2-1-1-1.6-.8-3.1 1-2.4 3-3.1 2.9-1.7-.24zm84-1.3c-.01-1.5-.14-1.5-.98-.19-1.3 2-1.3 3.3 0 2.5.55-.34.99-1.4.98-2.3zm4-1.4c0-.48.45-.59 1-.25 1.5.94 1.2-1.1-.39-2.4-1.1-.93-1.6-.53-2.5 2-.61 1.8-1.1 3.7-1.1 4.3.04 1.3 3-2.3 3-3.6zm24 2.8c0-.89.59-1.2 1.5-.89 2.2.84 1.8-.95-.5-2.4-1.6-1-2-1-2 .18 0 .78-.27 2.1-.61 3-.33.87-.11 1.6.5 1.6s1.1-.66 1.1-1.5zm-78-.93c.29-.77.06-1.7-.53-2.1-.59-.36-1.1-1.1-1.1-1.7 0-.67.55-.61 1.5.18 1.7 1.4 2 5 .53 5-.53 0-.73-.63-.43-1.4zm59-1.4c.37-2.5-1.3-3-2.2-.59-.95 2.5-.72 3.6.64 3.2.69-.23 1.4-1.4 1.6-2.6zm-81-1.6c0-.31 1.4-1.3 3-2.1s3-1.1 3-.64-.79 1.2-1.8 1.5-2.3.88-3 1.2-1.2.34-1.2.03zm73-3.3c-.41-.41-1.2-.08-1.7.73-1.5 2.4-1.1 3.5.73 1.7.93-.93 1.4-2 .95-2.4zm34-.61c-1.3-4.6-3-4.8-2.9-.44.06 2.7.21 2.9.93 1.2.85-2 .86-2 .93.08.07 2 1 3.8 1.7 3.1.17-.16-.15-2-.71-4zm-24-.08c0-.77-.68-1.7-1.5-2-1.7-.65-1.8-.48-.89 1.8.75 2 2.4 2.1 2.4.19zm19-2.5c-1.5-.57-2.1.62-1.3 2.6.69 1.7.79 1.7 1.5-.21.42-1.1.34-2.2-.17-2.4zm-15-2.9c.05-1.8-1.8-1.5-2.8.5-1.4 2.7-.28 4.8 1.4 2.6.75-.99 1.4-2.4 1.4-3zm10 .05c.54-3.4.22-5.3-.7-4.2-.82.96-1.4 7.9-.71 7.9.45 0 1.1-1.7 1.4-3.7zm-69-4.5c-.39-.4-.8.94-.89 3-.18 3.7-.17 3.7.72.72.49-1.6.57-3.3.17-3.7zm75 3.9c-1.3-1.3-2.6-.29-1.6 1.2.37.6 1.1.8 1.7.45.68-.42.66-.98-.06-1.7zm-12-5.4c-.98-.97-1.4-.28-2.1 3.7l-.62 3.5 1.7-3.2c.93-1.8 1.4-3.5 1-3.9zm-59-5.9c0-1.3-.46-2.4-1-2.4-.59 0-.77 1.2-.42 2.8.46 2.1.36 2.4-.46 1.2-.59-.83-1.1-1-1.1-.42-.01.6.27 1.4.62 1.7 1.1 1.1 2.4-.36 2.4-2.9zm-13 .56c0-.55-1.2-1-2.6-1-1.4 0-2.3.43-1.9 1 .34.55 1.5 1 2.6 1s1.9-.45 1.9-1zm19-5.6c-1.3-3.4-2.4-1.6-1.5 2.3.42 1.7.99 2.3 1.6 1.6s.58-2-.17-3.9zm-20 2.6c1.2-.78 1.1-.97-.75-.98-1.2-.01-2.2.43-2.2.98 0 1.2 1.1 1.2 3 0zm-4.5-1c.79-1.3-1.5-1.3-3.5 0-1.2.79-1.1.97.69.98 1.2.01 2.5-.43 2.8-.98zm20-3.5c-.34-2.1-.19-3.3.37-2.9.52.32.94.13.94-.42s-.48-1.3-1.1-1.7c-.59-.37-.83-1.3-.55-2 .54-1.4-5-5.5-7.5-5.4-.76.01.11.97 1.9 2.1 2 1.3 3.1 2.7 2.8 3.5-.35.89-.12 1.2.61.7.79-.49.94-.15.46 1.1-.68 1.8.96 8.5 2.1 8.5.3 0 .29-1.6-.02-3.5zm-8.8-1.5c.04-.29-.8-.53-1.9-.53s-1.8.24-1.6.53c.15.3.61 1.4 1 2.5l.76 2 .83-2c.45-1.1.85-2.2.89-2.5zm4.1 2.2c0-.49-.92-2-2-3.2l-2-2.4 1.6 3.2c1.6 3.2 2.5 4.1 2.5 2.4zm20-.61c0-.82-.45-1.5-1-1.5s-1 .68-1 1.5c0 .83.45 1.5 1 1.5s1-.67 1-1.5zm-6-2.5c.43.7 1.3.95 2 .56 1.4-.87-.44-3.5-2.5-3.5-.69 0-1.5-.7-1.9-1.6s-1-1.3-1.6-.97c-.59.36-.29 2 .74 4 1.1 2.2 1.8 2.8 2.1 1.8.27-1.2.54-1.2 1.1-.28zm-34-2.6c1.2-1.5 1.2-1.6-.88-.47-2.3 1.2-2.9 2.1-1.4 2.1.48 0 1.5-.75 2.2-1.7zm29 .41c-.02-1.8-1.8-4.3-2.5-3.6-.35.35-.13 1.6.48 2.7 1.3 2.4 2.1 2.7 2 .84zm-9.7-1.8c-.29-1.1-.94-2-1.4-2-.51 0-.44.9.15 2s1.2 2 1.4 2c.21 0 .14-.9-.15-2zm6.2-5.9c-.36-.59-1.1-1.1-1.7-1.1-.66 0-.59.57.2 1.5 1.4 1.7 2.6 1.3 1.5-.45z"/></svg>
