<?xml version="1.0" encoding="UTF-8"?>
<svg fill="currentColor" fill-rule="evenodd" aria-hidden="true" viewBox="0 0 369 575" xmlns="http://www.w3.org/2000/svg"><path d="m139 557c-18-2.2-25-4-38-10-2.9-1.4-5.2-3.1-5.2-3.8 0-1.1-5-4.8-8.7-6.5-.64-.29-3.8-2.9-7-5.8-17-15-22-19-22-19-.46 0-.84-.64-.84-1.4 0-.78-.73-2.2-1.6-3s-1.3-1.9-1-2.2 1.6.38 2.9 1.6c1.2 1.2 4.7 4.7 7.7 7.7 3 3 6 5.4 6.6 5.4.63 0 1.4.67 1.7 1.5.32.83 1.2 1.5 2 1.5.77 0 2 .72 2.7 1.6 1.2 1.4 1.4 1.4 2.6-.16 1.1-1.6 1.8-1.6 5.3-.55 2.2.67 3.8 1.6 3.4 2.2-1.1 1.8.7 5.1 3.9 7.1 1.7 1.1 2.3 1.8 1.2 1.4-2-.6-2-.58-.06.9 1.5 1.2 2.1 1.2 2.7.26.6-.97 1-.94 2.1.15.96 1 .97 1.2.04.68-.69-.39-1.2-.27-1.2.27 0 1.4 5.2 2.4 8.2 1.6 1.4-.34 3-1.8 3.7-3.2l1.2-2.6 2.4 2.2c1.3 1.2 2.9 1.9 3.5 1.6.59-.37 1.1-.27 1.1.22s-1.1 1.5-2.5 2.2c-3.1 1.7-3.2 2.8-.1 4 1.3.5 2.6 1.4 2.8 2s2.8 1.5 5.8 2c3 .51 7 1.2 8.8 1.6 2.8.58 3.2.4 3.2-1.3 0-1.1-.56-2-1.2-2.1s-4.8-.81-9.1-1.6c-8.8-1.7-12-3.3-4.1-2 2.8.42 7.9.82 12 .88 3.6.05 6.7.42 7 .81.29.39 4.1 1.1 8.5 1.6l8 .91-12 .39 4.5 1.4c2.5.78 5.8 1.4 7.3 1.4 1.6.01 2.6.45 2.2 1-.34.55-.14 1 .44 1s1.1-.45 1.1-1 .68-1 1.5-1c2.6 0 1.6-1.8-1.2-2.3-2.2-.34-2-.45 1-.57 2.1-.08 3.8-.57 3.8-1.1 0-.57 1.2-.57 3.2 0 2 .58 6.2.56 11-.07 5.7-.71 8.1-.68 8.6.12.49.78.8.79 1.1.02.2-.59 1.3-1.2 2.4-1.4 2.6-.4 4.5-1.6 4.5-2.8 0-.6-5.7-.83-15-.6-17 .42-38-.49-34-1.4 1.5-.33 4.3-.56 6.2-.5 2 .05 3.6-.26 3.6-.69 0-.44-1.7-.77-3.8-.73-4.7.07-8-.41-8.9-1.3-.92-.93-3.4-.88-3.2.06.35 2.2-.34 3.2-2.2 3.2-1.4 0-1.9-.46-1.5-1.5.67-1.7-3.4-3.1-6.1-2.1-1.5.56-1.5.79-.25 1.6 4.6 2.9-12-2-21-6.6-4.2-1.9-8.3-3.5-9-3.5-.76 0-1.7-.5-2.1-1.1-.47-.77.35-.91 2.7-.45 3.2.62 3.3.56 1.4-.89-2.1-1.7-7-2.2-6.1-.55 1.2 1.9-1.3 1-4.3-1.5-1.6-1.4-3.5-2.5-4.1-2.5-.61 0-1.1-.45-1.1-1s-1.1-1-2.4-1c-4.8 0-30-21-36-30-1.9-2.9-4.3-6.6-5.2-8.1-.94-1.6-1.9-2.6-2.2-2.4-.57.57 7.9 15 12 20 3.5 4.6 3.6 6 .23 2.8-5.6-5.2-24-41-24-46 0-1.6-.51-4.2-1.1-5.8-.62-1.5-1.5-3.7-1.9-4.8-.44-1.1-2-7-3.4-13-1.9-8.1-2.4-12-1.7-14 1.1-3.6 1.4-2.7 3.1 7.5 2 12 2.7 16 2.9 14 .07-.72.65-.99 1.3-.59.83.51.95-.23.43-2.7-1.1-5.2-1.4-6.2-2.1-8.4-.55-1.6-.47-1.7.4-.5.64.89 1.1 1 1.1.33.03-2.1-1.2-4.3-2.1-3.8-.5.31-.9-.37-.9-1.5s.45-2.1 1-2.1c1.3 0 1.3-4.7 0-5.5-.55-.34-.99-1.4-.98-2.3.01-1.3.19-1.4.87-.33.73 1.2.94 1.2 1.3 0 .25-.75.95 2.2 1.6 6.6 1.8 13 4.2 23 4.9 21 .24-.66 1.1-.95 1.9-.65.79.31 1.4.06 1.4-.54s2.1-3.3 4.7-6.1c3.2-3.4 5.8-5.2 8-5.6 1.8-.34 3.3-1.1 3.3-1.6 0-.55 1.2-.78 2.6-.51 2.2.41 2.5.18 2.1-1.4-.62-2.4.2-2.4 1.9-.13.89 1.2 1.3 1.3 1.4.43.02-.99 1.3-1.2 5.1-.76 7.9.89 11-2.1 7.4-7.3-.88-1.3-1.8-3.9-1.9-5.9-.18-2-.83-3.9-1.4-4.3-1.1-.68-6.2-18-5.5-19 .19-.2 1.2.13 2.3.71 1.2.66 2.4 3 3.2 6.1 1.4 5.6 2.9 6.8 2.3 1.8-.31-2.5-.16-2.9.65-1.8.58.82 1.1 1.2 1.1.73.01-.43 1.2-.02 2.6.89 1.6 1.1 2.3 2.2 2 3.2-.33.86-.28 1.2.13.84.4-.41 2 4.1 3.5 10s2.6 11 2.4 11c-.18.18-1.5-3.2-2.9-7.5-1.6-4.9-2.4-6.5-2.2-4.3.2 1.9.61 4.2.91 5 .31.82 1.1 4.1 1.7 7.2s1.5 5.8 1.9 5.8c1 0 4.5-10 3.8-11-.34-.34-.62-.01-.62.72 0 2.9-1.1-.09-2.5-6.8-.8-3.9-1.7-7.8-2.1-8.6s-.12-1.6.49-1.6 1.2 1 1.2 2.2.3 1.7.58 1c1-2.6 2.3-1.1 2.3 2.7 0 2.2.4 4.2.9 4.5 1 .63 2.1-1.7 2.1-4.6 0-1.1.45-1.7 1-1.4s1-.08 1-.94.65-1.6 1.4-1.6c2.4 0 4.6-4.2 4.7-9l.14-4.5.68 4 .67 4 .57-3.5c.32-2 .47-.63.33 3-.13 3.6-.58 7.5-1 8.8-.63 1.8-.47 2.2.85 1.6 1.3-.5 1.6.12 1.8 3.2.08 2.4.29 3 .57 1.6.25-1.3 1-2.5 1.8-2.8.74-.28 1.6-2.7 2-5.5.38-2.7 1.3-5.6 2.1-6.4 1.9-1.9 1.8-2.6-.24-1.9-1.4.54-1.5.11-.95-3 .37-2 .88-5.1 1.1-6.9.23-1.8.89-4.8 1.4-6.7 1.6-5.5 1.4-6.6-.98-4.5-1.3 1.2-2 3.2-2.1 5.9l-.1 4.1-.82-3.5c-.92-3.9-.32-5.4 3.4-9 3.9-3.6 3.4-5.3-1.2-4.5-2.1.36-4.8 1.3-6 2.1-3.2 2-6 8-6.7 14-.54 4.9-1.6 8.2-1.6 5.2 0-.68-.49-.93-1.1-.56s-.86 1.5-.59 2.6c.27 1 .09 1.6-.41 1.3-1.4-.86-1.1 1.7.61 5 1.8 3.4 1.1 4.8-.95 2-1.7-2.4-2.7-6.9-1.9-8.9.32-.83.05-4.5-.59-8.2s-1.2-12-1.2-18c.01-11-.11-11-2.6-14-1.4-1.5-2.1-2.8-1.5-2.8s1.4.43 1.7.96c.33.52 1.2.72 1.9.44.74-.28 1.6.19 1.9 1 .33.86.97 1.6 1.4 1.6 1.4 0-1.3-21-3.2-25-1.8-3.5-2.7-3.3-4.9.8-2.7 5.1-14 27-16 33l-2.8 6-1.3-4c-1.6-5.1-1.8-3.1-.23 3.4.86 3.7.88 5.4.07 6.2s-1.3.07-1.7-2.8c-.33-2.1-1.7-7.8-3-13-1.3-4.8-2.1-9.7-1.8-11 .38-1.4.2-2-.51-1.5-1.3.78-4.2-3-4.2-5.4 0-.91 1.4-4.9 3-8.9s3-7.9 3-8.7c0-.81.69-3.8 1.5-6.8 1.2-4.3 2.1-5.5 4.5-6.5 4.2-1.7 4.6-.62.72 1.9-4.5 2.9-2.3 2.6 2.7-.39 2.2-1.3 5-2.8 6.2-3.4 2.8-1.3 9.3-.25 9.3 1.5 0 .84.62 1.1 1.7.7 1.3-.49 1.5-.24 1 .98-.39 1-.17 1.5.58 1.2 1.5-.53 7 4.2 6.3 5.4-.3.49.09 1.4.87 2.1.78.64 2.1 3.7 3 6.9s2.6 7.5 3.7 9.7c6.6 13 11 22 11 24 .96 3.8 3.3 4.1 7.3.85 2.7-2.2 4-4.4 5.4-9.3 2.2-7.4 2.4-7.8 3.8-5.9.74 1.1.85.45.41-2.2-.34-2.1-.16-3.9.43-4.3.57-.35 1-1.5 1-2.6 0-1.1 1.1-4.2 2.5-6.9s2.5-5.8 2.5-6.9c0-2.6 3.4-10 6.1-14 2.4-3.2 4.5-4.1 3.5-1.4-.46 1.2-.2 1.4.97 1 .88-.33 2-.61 2.5-.61.51 0 .92-1.1.92-2.5 0-2 1-3 5-5 2.7-1.4 6.3-2.5 8-2.5 2.4 0 3-.44 3-2 0-1.1-.67-2-1.5-2-.82 0-1.5-.79-1.5-1.8-.01-1.2-.25-1.4-.78-.53-.43.67-2.3 1.3-4.2 1.4s-4.2.59-5.2 1.1c-2.4 1.2-2.4-1.7-.06-3.1 1.5-.81 1.5-1.5.54-4.8-1.4-4.6-.34-10 3.5-18 1.4-3.1 2.7-7.6 2.8-10 .13-3 1.1-5.8 2.8-8.4 1.4-2.1 2.6-3.6 2.6-3.2 0 .36 1.4-.04 3-.89 3.8-2 4-.55.15 1.6-2.7 1.5-2.9 2.1-3.5 10-.51 6.6-.34 8.7.82 9.8 2.2 2.2 2.9.67 1.5-3.4-.88-2.7-.91-4-.1-4.8s1.1-.24 1.1 2.2c0 1.8.42 3 .93 2.7.52-.32.9-1.8.86-3.3-.12-4.1 1.1-7.1 3.4-8.3 2.1-1.2 2-.3-.58 3-.6.77-1.2 2.6-1.2 4-.09 1.4-.26 3.1-.38 3.6-.61 2.7.16 5.5 1.5 5.5.98 0 1.5.95 1.5 2.8l-.04 2.8-1.6-3c-.92-1.7-1.8-2.4-2-1.8-.23.69-1.1 1.2-1.9 1.2-1 0-1.3.62-.89 1.9.38 1.2.04 2.1-.93 2.5-1.9.72-1.9 4.4-.12 11 .73 2.8 1.1 6.2.91 7.7-.46 3 1.4 4.9 2.3 2.4.33-.86 1-1.3 1.5-1 .5.31.9-.16.9-1 0-.87.71-2.7 1.6-4 1.8-2.8 4.4-2.3 4.4.83 0 1.2.87 3.9 1.9 6.1 2.4 5 5 20 4.4 25-.38 2.8.06 4.4 1.8 6.7 1.2 1.7 2.7 2.8 3.2 2.5.5-.31.43-1.1-.15-1.8-.57-.69-.72-1.6-.33-2 .39-.39.05-1.2-.76-1.7-1.2-.83-1.1-1.2.78-2.6 1.2-.86 2.2-2.1 2.2-2.8s1.6-1.8 3.5-2.4c1.9-.7 3.5-1.6 3.5-2.1 0-1.3-2.6-3.1-3.3-2.4-.36.36-.66.18-.66-.41 0-2.1 3-2.2 4.1-.14 1.6 3 .3 6.6-3.1 8.4-3.8 2-3.8 3.5.07 3.5 2 0 2.8.39 2.4 1.1-.38.61.51.32 2-.64 2.3-1.5 3-1.6 5.2-.42 4.5 2.4 2.6 4.4-4.5 4.7-3.8.14-6.7.75-7.2 1.5-1.4 2.2.84 3 4 1.4 3.4-1.8 6.2-2.1 6.2-.69 0 1.1-5.5 3.1-8.6 3.1-2.7 0-2.9.83-1 3.4 1.1 1.5 2.2 1.7 6.9 1.1 4.6-.57 5.7-1.1 6.2-2.8.45-1.6.8-1.8 1.4-.82.69 1.1.99 1 1.5-.33.92-2.4.84-2.5-1.1-1.8-1.6.58-1.6.46-.32-1.1.8-.98 2.2-1.6 3.3-1.3 1.1.29 2.2-.24 2.8-1.3 1.2-2.3.85-10-.5-11-.58-.5-.27-.61.75-.29 2 .64 2.1-.13 1.8-7.9-.13-2.8-.62-5.2-1.1-5.5-1.3-.83-.69-4.6.76-4.6.92 0 1.3 1.7 1.3 5.8 0 3.2.45 6 1 6.4 1.5.9 1.2-5.1-.42-12-.98-3.8-1.1-5.8-.39-6.7.57-.69.69-2 .26-3-1.6-3.7-1-4.8 2.8-5.1 3.8-.32 6.9-3.4 4.8-4.7-.55-.34-1-1.6-1-2.9 0-3.2-1.9-4.8-4.2-3.6-1 .55-1.8 1.6-1.8 2.3s-.69 1.9-1.5 2.6c-.95.78-1.3 2-.88 3.3.61 1.9.52 1.9-2.2-.24-2.4-1.9-2.9-2-3.2-.67-.18.88-.7 1.6-1.2 1.6-1 0-.13 4 1.2 5.8 1.4 1.8-1.7 1.6-3.2-.15-.84-1-.86-1.5-.05-1.8 1.3-.44.24-5.8-1.2-5.8-.54 0-.49.82.1 1.9 1.6 3.1 1.2 3.8-.69 1-1.9-2.7-2.6-9-.99-9 .53 0 .42-.66-.24-1.5-1.5-1.8-.56-3.5 1.8-3.5.96 0 3.5-1.7 5.7-3.7 2.2-2 4.4-3.6 5-3.5s1.9-.7 2.9-1.8c1.8-2 1.8-2-.84-2-1.5 0-2.7-.56-2.7-1.2s-.64-2.1-1.4-3c-1.3-1.7-1.5-1.7-3-.13-.91.91-1.9 1.5-2.1 1.2-.25-.25.67-1.5 2-2.8 3.2-3 3.2-3.9 0-3.6-2.5.28-3.5-.95-1.3-1.7.74-.25.52-.66-.55-1.1-.98-.37-1.5-.26-1.2.25.32.51.08 1.2-.51 1.6-.6.37-.84 1.3-.53 2.1.34.88.13 1.2-.53.78-.59-.37-.89-2-.66-3.6.41-2.8.37-2.8-1.9-1.4-1.3.84-2.3 1.1-2.3.5 0-.56.44-1 .97-1s.7-.69.38-1.5c-.53-1.4-.81-1.4-2.4.13-1.6 1.4-2.1 1.5-3.5.36-1.3-1.1-1.8-1.1-2.5.11-.79 1.2-1 1.2-1.9-.06-.66-1-.99-1.1-1-.25-.01.69-.52 1.2-1.1 1.2-.62 0-.84-.77-.49-1.8.5-1.5.35-1.4-.9.19-1.1 1.4-1.5 1.6-1.5.5-.03-1.1-.34-1-1.4.31-.73.96-1.6 1.8-2 1.8-1.2 0-.65-3.8.61-4.3.8-.32.66-.53-.38-.58-.89-.04-2.2.6-2.9 1.4-.93 1.1-1.6 1.2-2.6.41-.79-.65-2.7-.82-4.6-.4-4.7.98-2.3-1.3 2.8-2.7 4.5-1.2 27-1.7 27-.56 0 .43.48.78 1.1.78s.78-.45.44-1-.11-1 .51-1 .15-1.4-1-3c-2.1-2.9-2.1-6-.06-6 1.3 0 4.1 4.1 4.1 6-.01 1.4-.12 1.4-.98.03-.53-.82-.97-1-.96-.5 0 .55 2.1 3.2 4.6 6 4.2 4.6 4.5 5.3 4 8.8-.36 2.3-.2 3.8.41 3.8.55 0 1 .68 1 1.5s.42 1.5.94 1.5c1.7 0 2-1.7.56-3.6-1.3-1.8-2-5.4-1-5.4.25 0 1.7 1.1 3.1 2.5 1.5 1.4 2.1 2.5 1.4 2.5-1 0-1.1.27-.15 1.2.66.66 1.2 2.4 1.2 3.8.01 2 .21 2.2 1 1 .7-1.1.94.56.84 5.5-.27 12 .02 15 1.2 14 .88-1.2 1-1.1.64.53-.56 2.6 1.9 5.3 2.5 2.7.28-1.2.64-.78 1.1 1.3.4 1.6 1.6 6.4 2.7 10 1.1 4.1 2.1 8.7 2.3 10s.33 3.6.42 4.8c.1 1.1.54 2 .98 2 .93 0 3.2-5.9 3.2-8.3 0-.9.84-2.1 1.9-2.6 2.5-1.3 3.5-9.7 1.5-13-.78-1.1-1.4-4.4-1.4-7.5 0-3-.41-6.2-.9-6.9-.49-.77-.66-2-.38-2.8 1.1-2.8 2.2-1.1 2.8 4.4.38 3.2 1.1 6.3 1.6 6.9.58.73.53 1.4-.12 1.8-2 1.2-1.1 2.5 1.7 2.5 2.1-.01 2.4-.22 1.2-.98-1.2-.79-1.1-.97.69-.98 1.2-.01 2.5.44 2.8 1s1 .75 1.6.44c.51-.32.93.17.93 1.1 0 1.3.41 1.2 2-.69l2-2.4-1.5 3.8c-.83 2.1-1.1 3.8-.6 3.8s1.2-.68 1.5-1.5c.32-.82 1.3-1.5 2.1-1.5s1.5-.45 1.5-1-.44-1-.97-1-.71-.68-.38-1.5c.66-1.7-1.5-7.5-2.8-7.5-.48 0-.88-1.1-.88-2.5 0-1.5-.84-2.9-2.1-3.6-1.7-.9-2-.87-1.4.11.51.82.37 1-.38.55-.63-.4-1.2-1.4-1.2-2.2 0-.82-.39-1.3-.86-.97s-1.7-1-2.7-2.9c-1-1.9-2.3-3.5-2.8-3.5s-.33.68.35 1.5c.9 1.1.93 1.5.09 1.5-.85 0-.87.54-.09 2 1.5 2.8-.02 2.5-4-.96-1.9-1.6-4-3-4.6-3s-1.4-.72-1.7-1.5c-1.2-3-2.9-1.6-2.3 2 .31 1.9.15 3.7-.37 4.1-.52.33-.93-1.4-.93-3.8 0-2.9-.68-5.3-2-7-1.2-1.6-1.6-2.8-1-3.2.56-.35 1-.98 1-1.4 0-.98-5.1-3.4-5.8-2.7-.96.96-11-10-15-17-2.5-4-4.9-7-5.2-6.6s-1.1-1.4-1.8-3.8c-1.5-5.8-2.2-6.6-3.1-4.3-.7 1.8-.77 1.8-.83-.32-.09-2.8-3.8-22-5.6-29l-1.4-5.5.52 7c.29 3.8.78 8.4 1.1 10 .41 2.1.26 2.7-.52 2-.63-.61-1.5-9.3-2.2-21-.59-11-1.4-26-1.8-33-.39-7.2-.56-15-.39-17 .29-3.5.64-3.8 5.2-5.5 2.8-1 4.9-2.4 4.9-3.2 0-.79.23-1.2.51-.92.29.28.65 13 .82 28 .31 28 .37 29 5.3 46 .87 3 3.2 7.7 5.1 10 3.2 4.5 4 6.2 4.2 9.2.14 2.1 15 24 16 24 .71.01 2.8 1.6 4.6 3.5 2.7 2.8 3 3 2 .98-.67-1.4-2.5-4.1-4.1-6-1.6-1.9-2.8-4-2.8-4.5 0-.57-.9-1.8-2-2.8-2.7-2.3-2.5-1.5.65 3.3 1.4 2.2 2.4 4.2 2.2 4.5-.9.91-5.9-7.8-5.4-9.4.28-.89.07-2.3-.46-3.1-.85-1.3-.97-1.3-1 0-.07 1.5-9.6-17-10-20-.19-.82-1.3-3.6-2.5-6.3-3.8-8.5-7-23-7.6-34-.32-5.8-.83-22-1.1-35-.36-16-.92-25-1.6-25-1-.65-.7-7.9.75-15 .53-2.8.46-2.8-.88-1.2-1.1 1.4-1.6 1.5-2 .5-.31-.71-.35.5-.09 2.7.36 3 .24 3.5-.46 2-.52-1.1-.97-3-1-4.2s-.52-2.2-1.1-2.2-1 1-1.1 2.2c-.07 1.5-.26 1.7-.55.63-.64-2.4-7.7-3.1-13-1.2-3.4 1.2-6.3 1.4-12 .82-3.8-.4-9.2-.57-12-.38s-9.8.23-16 .1c-9.8-.21-11-.09-10 1.5.5 1.4.12 1.3-1.8-.5-1.4-1.2-3.1-2.2-3.9-2.2-.82.04-.46.54.81 1.2 1.2.6 2.2 2 2.2 3.1 0 2-.04 2-1.4.16-1.3-1.8-1.4-1.7-2 1.1-.98 4.5.05 30 1.3 32 1.4 2.7 2.4 16 1.2 18-.48.6-1.1 5.6-1.5 11-.38 6.2-.26 9.2.3 8 .8-1.8.91-1.7.97.81.04 1.5-.32 2.6-.8 2.3-1.3-.79-2.3 8.3-1.1 10 .68 1.3.63 2-.14 2.2-.63.21-1.1 2.4-1 5 .05 2.6-1 7.9-2.3 12-2.3 6.6-2.3 7.4-.92 10 1.4 2.7 1.4 3.2-.53 5.8-1.1 1.6-2 3.4-2 4.1 0 .69 1.4-.61 3-2.9 3-4.1 3.9-6.9 2-5.7-1.5.93-1.2-.76.57-3.3.86-1.2 1.7-4.8 1.9-8 .21-3.2 1.1-9.3 1.9-14 2.6-14 3.6-30 2-31-.29-.28-.94.15-1.4.96-.66 1-.9.3-.85-2.5.08-3.3.21-3.6.81-1.5l.71 2.5.5-2.5c.27-1.4.47-8 .43-15-.03-6.7.28-12 .69-12 .41.26.75 1.2.75 2.1 0 .88.27 1.3.61 1 .33-.34 1.6.28 2.7 1.4 1.2 1.1 2.3 1.5 2.5.94.19-.57.72-1 1.2-1 .45 0 .6 6 .32 13s-.43 15-.33 17c.65 13-1.1 36-2.8 35-.79-.16-1.2.98-1.2 3.1 0 1.9-.68 3.9-1.5 4.6-.83.68-1.5 2-1.5 2.9.07 2.9 10-8.7 10-12 .09-12 1.7-26 3.1-26 .47 0 .68.56.47 1.2s-.61 3.3-.89 5.8l-.51 4.5 1.8-5.5 1.8-5.5.03 5c.03 4.4-1.6 11-1.8 7.6-.04-.78-.3-1.2-.59-.89-.29.28-.11 1.6.39 2.9l.91 2.4.72-2.7c1.2-4.6 2.3-2.1 1.2 2.8l-1 4.6-1.8-3.8-1.7-3.8-.7 2.8c-.39 1.5-.42 3.1-.08 3.4s.62-.15.62-1.1.47-1.4 1-1.1c.57.35.74 1.6.36 2.8-1.5 4.9-1.6 5.2-.43 3.4.62-.96 1.8-1.8 2.6-1.8.78 0 2.3-1.7 3.4-3.8 2.9-5.5 2.5-2.2-.55 4.2-1.4 3-3.2 5.5-3.9 5.5s-1.5.67-1.8 1.5c-.31.82-.08 1.4.52 1.2s1.3.34 1.6 1c.26.71-.06 1.2-.71 1-.64-.15-1.9 1.6-2.8 3.9-1.9 4.8-3.8 7-2.8 3.3 2.4-8.9 2.3-8.9-3.7-3.1-3.1 3-5.3 5.8-5 6.3.3.48 0 3.1-.66 5.9-1.7 7.1.01 8.5 3.6 2.7 3.3-5.3 3.3-5.3 4-4.6.3.3-.75 2.5-2.3 4.9-3.2 4.9-5.8 11-5 11 .28.28 2.9-2.5 5.8-6.3 5.3-6.9 12-14 12-12 0 .68-5.5 8.3-12 17-1.4 1.8-4.7 5.2-7.4 7.7-2.7 2.5-6.7 7-9 10-4.6 6.2-19 20-20 20-.6 0-2.1 1.4-3.4 3.1-1.5 2-2.6 2.7-3 2-.44-.71-1.9.22-3.9 2.5-1.8 2-2.8 3.9-2.3 4.3.52.32-.76 2.3-2.9 4.4-2.1 2.1-4 3.3-4.2 2.6-.47-1.4-13 14-17 20-1.3 2.3-3.2 5-4.4 6.1l-2.1 2 .69-2c2.2-6.2 18-28 20-27 .51.32.68-.08.37-.88-.31-.79-.08-1.7.51-2.1.59-.36 1.1-1.2 1.1-1.8 0-1.1-3.5 2-12 11-2.3 2.3-4.8 4.2-5.5 4.2-.78 0 2.8-4 7.9-9 5.1-5 9.9-8.8 11-8.5.67.25 1.5.03 1.8-.49.32-.53.02-.96-.67-.96-.7 0 1.5-2.6 4.9-5.9 3.4-3.2 6.2-6.6 6.2-7.4s.89-2.3 2-3.3c2.7-2.5 8.4-11 7.7-12-.32-.32.31-2.3 1.4-4.5 2-3.8 1.3-5.3-1-2.4-.67.81-1.6 1.4-2 1.2-.42-.12-3.4 3.7-6.7 8.4-3.2 4.8-7.7 11-10 13-2.2 2.4-4.4 5.1-4.7 6.1-.37.96-1.2 1.8-1.7 1.8-.74 0-.76-.59-.07-1.9.55-1 .72-2.2.37-2.5s-.11-.63.53-.63c.65 0 1.2-.61 1.2-1.4s2.6-4.2 5.8-7.6c7.2-7.9 20-27 24-35 1.5-3.3 3-6 3.5-6 .68 0 1.8-3.2 2.5-7 .16-.82 1-4.4 1.9-7.9.89-3.5 1.9-9.6 2.2-14 .33-3.9 1.4-14 2.3-23 .98-9.5 1.3-17 .88-20-.43-1.9-.52-5-.2-6.9.96-5.7.57-31-.49-32-.55-.66-1.3-2.8-1.6-4.7-1-6-2.6-10-4-10-.76 0-4.7-1.8-8.8-3.9s-8.3-3.8-9.3-3.8c-1.5.13-1.9-.65-2.2-4.2-.27-3.7.14-4.9 2.5-7.4 2.9-3.1 6.4-4.9 9.8-5.2 11-.94 13-1.7 15-5.1.99-1.8 2.8-3.9 4.1-4.6 1.3-.67 3.3-3.3 4.6-5.8 1.9-3.8 2.3-6.3 2.3-14 .01-5.3.35-9.4.76-9.2.41.25.76 1.7.77 3.2 0 1.5.39 3.3.86 4 1 1.7 2.1-1.7 2.1-6.7.01-3.2.1-3.3 1.8-1.8 1 .91 2.8 1.6 4 1.6 1.2 0 2.2.56 2.2 1.2.01.83.33.75.98-.25.76-1.2.97-.92.98 1.2.01 1.5.48 2.8 1 3 .67.23.49 3.4-.52 9.2-.84 4.8-1.3 9.2-.96 9.8.32.51-.81.93-2.5.93-2 0-3.3-.6-3.7-1.8-.35-.96-.95-2-1.3-2.2s-1.4-2.5-2.2-5c-1.5-4.2-1.6-4.3-1.7-1.5-.06 1.6-.72 4.4-1.4 6-1.3 2.9-1.2 3.2 2.1 6.2l3.4 3.2 20-.3c11-.17 21-.51 23-.75 4.7-.64 2.6.77-3.3 2.3-5.1 1.3-40 2-39 .76.22-.35-.31-.91-1.2-1.2-2.2-.86-2.4-.79-2.4.99 0 .88-.87 1.8-1.9 2.1s-2.2 1.1-2.5 1.9c-.3.77-1.2 1.1-2.1.8-.85-.33-1.5-.13-1.5.45 0 .57.9 1.3 2 1.7s2 1 2 1.6c0 1.3-1.2 1.1-3.4-.6-4.4-3.3-5.9-1.1-4.1 6 1.5 5.8 2.3 6.2 14 6.9 4.6.28 12 .82 16 1.2 10 .84 25-.3 25-1.9-.12-.62.34-1.2 1-1.3s1.6-.23 2.1-.29c.86-.14 7.8-6.1 7.1-6.1-.24 0-2.2.66-4.4 1.4-5.4 1.9-7.9 1.9-7.1.03.32-.83.14-1.5-.39-1.5s-.97.44-.97.97-.56.83-1.2.66-.91-.11-.5.12c2.5 1.4-.26 2.2-7 2.1-6.5-.13-7.1-.27-3.8-.88 3.6-.67 3.5-.71-1.2-.43-2.9.18-5.2-.1-5.2-.61s-2.2-.93-5-.93c-8.5 0-5.5-1.7 4.2-2.4 5.1-.37 12-.95 14-1.3 2.8-.34 4.7-.26 4.3.16-.4.43-3.6.99-7 1.2-3.5.25-6.5.7-6.8.99-1.2 1.3 16-.69 19-2.2 1.7-.9 3.2-1.3 3.2-.91 0 .39.56 0 1.2-.88.69-.87 2.4-1.9 3.8-2.3 2.4-.69 2.4-.66.5.86-2.5 2-.56 2.2 2.1.17 1.2-.9 1.4-1.5.63-1.5-.72-.02-1-.48-.69-1 .79-1.3-.12-1.3-2.5 0-1.1.57-2.1.62-2.4.12-.3-.49.35-1.1 1.4-1.4 2-.54 2.9-5 1.1-6.1-1.4-.86-4.5-13-4.3-17 .15-3.3.1-3.4-.9-1-1 2.4-.81 5.5.7 9.5.65 1.7.54 1.8-.83.72-1.3-1.1-1.9-1-3.2.32-.89.88-1.6 1.9-1.6 2.4s-1.5.76-3.2.78c-1.8.01-5.6.38-8.5.81-3.1.46-5.2.4-5.2-.14 0-.5 1-.99 2.2-1.1 7.8-.56 11-2.8 7.4-5-.77-.44-1.8-2.4-2.4-4.4-1-3.8-.31-11 1.1-11 .46.06 1.4-.66 2.1-1.6.69-.94 1.7-1.4 2.3-1.1.58.35 1.3-.26 1.6-1.4.35-1.3 1.1-1.8 2.1-1.4 1.1.42 1.6.03 1.7-1.2.07-1.7.14-1.7.93.14.47 1.1.89 3.4.93 5.1s.72 3.7 1.5 4.3c1.2 1 1.5.45 1.8-3.6.17-2.7.76-4.7 1.3-4.5s.91.68.8 1.1c-.3 1.2-.22 9.2.14 13 .18 1.9.38 4.5.44 5.7.07 1.2 1.4 3.6 2.9 5.4 2.3 2.7 2.4 3.2.77 2.5-1.7-.65-1.6-.39.5 2 1.4 1.5 3 3.2 3.7 3.6s1.2 1.4 1.2 2.2.79 1.5 1.8 1.5c1 .05 1.2.28.5.58-1.6.66-1.6 2.5 0 2.2.69-.11 2.6.38 4.2 1.1s3.9 1.4 5 1.5 2.8.56 3.7.97c1.2.51 1.9.24 2.4-.85.34-.88 1.2-1.6 2-1.6.8 0 1.1.62.77 1.5-.48 1.3-.14 1.4 2.1.5 3.4-1.3 3.6-1.3 3.6.15 0 .65.73 2 1.6 3 1.5 1.6 1.5 2-.25 5-1 1.8-2.8 3.7-3.9 4.3-1.1.61-3.1 1.9-4.4 2.9-1.3.96-3.6 1.8-5 1.8-5.2.05-6.9 2.7-8.1 12-1.4 12-.32 42 2.2 60 .04.28-.27 1.3-.68 2.2-.41.93-.03 4.2.84 7.2.88 3 1.6 7.6 1.6 10 0 2.7.4 4.4.94 4.1.52-.32 1.7 2 2.6 5.2 5.6 19 18 41 32 58 1.9 2.2 5 5.8 6.9 8 1.8 2.2 8 8.9 14 15 7.4 7.7 10 11 9.1 12-.78.49-1.8.14-2.6-.93-6.2-8.4-11-13-12-14-1.9-.72-7.2-6.4-7.3-7.7-.02-.5-2.4-3.2-5.3-6-2.9-2.8-7.3-7.5-9.9-10-3.6-4.2-4.8-5-5.2-3.7-.35.89-.25 1.4.2 1.1.91-.56 5.2 4.7 5.2 6.4 0 .57.45 1 1 1s1 .56 1 1.2c.05 1.7 3.5 5.8 4.9 5.8.6 0 1.9 1.7 2.8 3.7.97 2 3.1 4.4 4.7 5.3s3.8 3.2 4.8 5.1c1 1.9 2.9 4.6 4.2 6 5 5.4 12 16 12 17-.35.57-.16.73.44.36.61-.37 1.4.28 1.8 1.5.54 1.7.87 1.9 1.6.76.75-1.1 1.2-1.1 2.3.43.98 1.3 1.6 1.5 2.1.65.39-.64-.67-3.1-2.4-5.5-1.7-2.4-2.7-4.6-2.2-4.9.71-.45 6 7.7 6 9.2 0 .25.9 1.6 2 3 2.4 3 2.6 2.3.43-1.9-1.9-3.6-1.2-6.8.91-4.7.74.74 1.9 2.5 2.6 3.8l1.2 2.5-4.3-5 .67 2.5c.37 1.4 1.5 4 2.5 5.8s1.6 3.9 1.3 4.7c-.3.77.49 3.4 1.7 5.7 1.3 2.4 2.4 5.4 2.5 6.6.31 3 3 6.7 3.8 5.3.37-.59.14-1.1-.5-1.1s-.91-.66-.6-1.5-.52-3.4-1.8-5.7c-1.4-2.5-2.1-4.7-1.6-5.3.49-.6-.16-3.1-1.6-6-1.3-2.7-2.2-5.1-2-5.3.85-.85 7.5 14 7 16-.47 1.4-.39 1.5.53.21.96-1.3 1.1-1.3 1.1 0 .01.82.71 2.8 1.6 4.4.84 1.6 1.3 3.6 1 4.3-.29.75-.08 1.1.46.75.55-.33.99-.09.99.55s.65 2.6 1.4 4.3c3.4 7.6 4.6 11 4.1 13-.28 1.2-.23 1.5.11.7.91-2 2.9 3.4 6.4 17 2.4 9.7 2.8 12 1.8 14-.92 1.5-.94 2.5-.07 4.3 1.9 3.8 3.7 32 2.4 37-.6 2.3-1.2 5.8-1.4 7.7-.28 3.3-.35 3.2-1.2-1.5-.52-3-.46-8.2.15-13 .56-4.4.7-12 .32-16-.69-8-.69-8-.95 4.5-.29 13-1.7 22-2.1 12l-.22-5-1.3 7.5c-.72 4.1-1.3 9.4-1.4 12-.03 2.5-.54 4.2-1.2 4.2-.78 0-.92-1.5-.42-4.8 2.4-16 2.6-32 .36-32-.54 0-.6.95-.14 2.2 1 2.9.94 6.2-.49 18-1.5 12-4.2 25-5.2 24-.42-.26-.13-3.2.64-6.5 1.2-5.2 1.2-6.3.03-7.4-.91-.91-1.3-3-1-6.2l.32-4.8-1 5.5c-1.4 7.6-2.2 9.1-2.6 5.6-.51-3.7 1.7-12 3.2-12 .69 0 1.7-3 2.4-7.2 1.7-10 2.3-23 1.2-23-.53 0-.93 1-.91 2.2.1 4.2-1.3 15-2 14-.33-.21-.46 1.8-.27 4.4s-.08 5.6-.59 6.5c-.62 1.1-.77-.22-.45-4.1.34-4.1.15-5.5-.66-5-.79.48-1.1-.66-1.1-3.6 0-4.7-4.5-19-8.6-27-1.5-3-2.8-8-3.3-12-.42-3.9-1.3-7.7-2-8.4-.92-.92-1.2-.68-1.2 1.1 0 1.5-.41 2-1.2 1.5-.8-.49-.96-.16-.5 1 1.6 4.2 2 6.9.82 6.2-1.4-.89-1.6 2.6-.14 4 1.5 1.5 3.9 11 2.7 11-.54 0-.43.66.23 1.5.67.8.92 1.9.57 2.5-.36.57-.13 1 .51 1 .83 0 1 3.3.7 12-.38 10-.77 12-2.4 14-1.6 1.8-1.9 3.7-1.9 14 0 12 .72 14 4.1 13 .82-.32 1.7 1.1 2.5 3.8.77 2.6 2.9 5.9 5.3 8.3 5.1 5 7.5 8.2 7.6 9.8.04.68.94-.56 2-2.8 3-6.2 1.1.04-2.7 9-1.9 4.4-3.4 8.4-3.4 8.7s-1.7 4.2-3.9 8.6c-2.1 4.4-4.2 9.6-4.6 12-.46 2.5-.99 3.4-1.5 2.5-.54-.87-1.8.41-3.9 4.1-4.8 8.3-22 28-30 34-7.2 5.4-17 12-18 12-.69 0-1.5.59-1.8 1.3-.28.72-3.1 1.9-6.4 2.6s-7.8 2.2-10 3.3c-2.4 1.1-5.4 2.1-6.6 2.1s-2 .49-1.7.92-.68.5-2.1.14c-1.6-.4-2.6-.23-2.6.46 0 .61-.79 1.1-1.8 1.2-.96.01-2.9.68-4.2 1.5-2.4 1.4-2.3 1.4 2.7 1.2 2.9-.12 5.2-.61 5.2-1.1.01-.47.69-.59 1.5-.28.82.32 1.5.16 1.5-.36s.75-.65 1.7-.3c1.1.41 1.4.25.98-.47-.41-.66.03-1.1 1.1-1 2.5.11 18-5.8 23-8.9 2.5-1.4 6.6-3.6 9.2-5 2.6-1.3 5.6-3.2 6.7-4.3 1-1 2.7-2.2 3.7-2.5s3.2-1.8 4.8-3.2 2.3-2.3 1.5-1.9c-.82.36-.38-.32 1-1.5 12-10 18-17 22-23 2.2-3.7 4.4-6.6 4.8-6.4.41.18.9-.27 1.1-1 .23-.87-.01-.81-.71.18-.58.82-1.1 1-1.1.5-.02-1.3 3.8-7.5 4.6-7.5.35 0-.13 1.2-1.1 2.6-.94 1.4-1.5 2.8-1.2 3.1.28.28 1.2-.62 2.1-2 1.4-2.2 1.9-4 2.4-9.4.06-.65.87-1.9 1.8-2.9.98-.97 1.7-3.1 1.6-5-.05-1.8.37-3.2.93-3.1.57.12 1.3-.41 1.5-1.2.34-.93.05-1.2-.87-.68-.76.4-.6.08.35-.7.96-.79 1.5-1.7 1.2-2-.28-.29.4-2.1 1.5-4 3.7-6.3 7.8-20 6.8-23-.49-1.3-.7-3.1-.47-4 .24-.91.47-.59.53.77.2 4 2.5 1.9 4.2-3.9 1.2-4.1 1.7-4.7 1.8-2.7.06 1.5-.56 4.4-1.4 6.5s-1.7 4.9-2 6.3-1.3 5.9-2.2 10c-.89 4.1-1.7 8.4-1.8 9.6-.1 1.1-.55 2.6-.99 3.4-.65 1-.37 1.1 1.4.09 1.5-.78 1.9-1.4 1.1-1.9-.75-.46-.11-1.7 1.9-3.6 1.8-1.7 2.8-3.5 2.5-4.5-.3-.94.53-2.6 2-4 1.4-1.3 2.2-2.7 2-3.2s.38-.85 1.5-.85c1.5 0 1.9.49 1.5 1.8-.37 1.2-.03 1.1 1.2-.5 1.6-2.1 4.2-3.3 3-1.4-.3.49.15 1.2 1 1.5.85.33 1.3.2 1-.28-.68-1.1 1.2-2.7 4.8-4l2.8-1.1-3.1 3.8c-1.7 2.1-2.6 3.9-2 4.1.59.19.27.98-.74 1.8-1.6 1.2-1.5 1.3.95.23 1.5-.64 3-.88 3.4-.52.89.88-2.6 4.7-4.3 4.7-1.6 0-1.8 1.6-.2 2.6.72.44.89.27.45-.45-.42-.67-.1-1.2.79-1.2 1.4 0 9.9-9.6 11-12 .25-.7.75-1 1.1-.66.36.33-1.4 3.5-4 7-3.1 4.2-3.7 5.6-1.9 3.9 1.5-1.4 4.3-4.6 6.2-7.2 1.9-2.6 4-4.8 4.6-4.8s.17 1-.95 2.2c-1.1 1.2-2.9 3.6-3.9 5.2-1.7 2.7-1.8 2.9-.14 2.3 2.8-1.1 2.1 1.6-1.2 4.8-1.6 1.6-3 2.4-3 1.8s.56-1.3 1.2-1.6.99-.73.67-1.1-1.7.52-3 1.9c-1.7 1.9-1.9 2.4-.67 1.9 2.6-1 2.1-.16-2.8 4.9-4.2 4.4-6.4 5.9-5 3.6.34-.55.17-1-.38-1-1.5 0-2.4 2-.93 2 .72.02-.04 1.2-1.7 2.6-2.7 2.3-2.8 2.5-.75 2.1 1.2-.28 2.2-.37 2.2-.2s-4.2 2.4-9.2 4.9-11 5.5-12 6.6c-3.1 2.1-5.5 2.6-5.5 1.2 0-.46 3.7-2.5 8.2-4.6 4.5-2 9.3-4.6 11-5.7 1.3-1.1 3-1.6 3.6-1.3.62.35.56.02-.14-.74-1-1.1-1.6-1.1-3.3-.1-5.8 3.6-15 8.3-16 7.8-.78-.78-.89-.7 9.2-6.5 5.1-2.9 9.6-4.9 10-4.6.83.32 1.2.26.79-.14s.25-1.8 1.5-3.1c1.2-1.3 1.8-2.3 1.4-2.3s.03-.96 1.1-2.1c1.9-2.1 1.9-2.1-.55-1.4-2.3.72-2.4.66-.75-.94 3.2-3.2 1.3-3.1-2.6.25-3.2 2.7-3.1.31.12-2.7 1.7-1.6 3.1-3.2 3.1-3.6 0-.89-3.4 1-4.8 2.8-.7.85-2.4 1.3-4.3 1.1-3-.36-7.6 1.3-6.5 2.3.31.31 1.2.01 2-.67s2-1 2.7-.83c.69.23-1.3 1.9-4.4 3.8-5.1 3.1-5.9 4-8.9 11-5 11-11 22-17 30-3 4.2-5.4 8.1-5.4 8.6 0 1.1-18 17-21 19-.69.41-2.2 2.6-3.3 4.8s-4 6.1-6.5 8.6l-4.4 4.5 3.6.07c2 .04 3-.14 2.4-.39-2.3-.83-1.3-2.3 2.6-3.8 2.1-.85 4.4-2.7 5.2-4s2.5-2.7 3.9-3c1.4-.31 3.4-.78 4.3-1 2.3-.61 2.3 1.2.03 2.1-1.5.56-1.5.79-.25 1.6.81.51 1.1.99.72 1.1s-1.2.25-1.8.39-1.6.33-2.2.44c-.69.1-.23.6 1 1.1 1.4.56 3.2.54 4.8-.03 4.2-1.6 2.7-.21-2 1.9-2.5 1.1-4.5 2.4-4.5 3 0 1.1-5.2 4.1-7.1 4.1-.68 0-.37-.66.7-1.5 2.5-1.9.71-1.9-2.6-.03-1.4.79-3.5 1.4-4.7 1.5-1.2.02-2.8.97-3.6 2.1-.86 1.2-1.6 1.6-1.8.91-.26-.77-1.6-.92-4.1-.45-3 .57-3.5.96-2.6 2.1.84 1 .84 1.4.02 1.5-.61.07-1.5.21-1.9.3s-2.6.51-4.8.94c-4 .76-4.8.99-16 4.6-3.4 1.1-10 2.5-16 3.1-13 1.5-50 1.7-62 .37zm49-1.3c.29-.47-.58-.64-1.9-.38s-2.5.65-2.5.86c0 .77 3.9.35 4.4-.48zm14-1.2c3.8-.59 9.2-1.9 12-3 2.8-1 5.6-1.9 6.3-1.9.68 0 4-1.4 7.4-3 3.4-1.6 6.8-3 7.5-3 .72 0 1.3-.41 1.3-.92 0-1.5 6.9-5.3 8.1-4.5.68.43.9.3.53-.3-.34-.56.73-2.4 2.4-4.2l3-3.2-2.8.64c-1.5.36-3.5 1.6-4.3 2.7-.82 1.1-2 2.4-2.5 2.9-5.6 4.4-7.6 5.8-12 7.8-2.6 1.2-5.4 2-6.2 1.7-.81-.31-1.4-.07-1.2.53.29 1.3-20 6.6-28 7.4-1.6.15-3.3.31-3.8.35-.41.05-.75.58-.75 1.2 0 .7 1 .88 2.8.48 1.5-.34 5.9-1.1 9.7-1.7zm-59 .09c0-.55-1-1-2.2-1s-4-.23-6.2-.49l-4-.48 4.5 1.4c5.6 1.7 8 1.9 8 .59zm5.3.34c-.68-.27-2-.29-3-.03-.97.25-.42.47 1.2.5 1.6.02 2.4-.19 1.8-.47zm20-.27c-.52-.5-3.2-.99-6-1.1-6.5-.22-7.6.03-4.5 1 3.6 1.2 12 1.2 10 .07zm16-2.2c3.6-.63 7.9-1.7 9.6-2.5 2.9-1.3 2.8-1.3-2-.78-2.8.31-7.4.97-10 1.5-3 .51-7.3.96-9.5 1-3.5.09-3.7.21-1.6.9 3.6 1.2 6.6 1.1 14-.14zm-63-.95c-.97-.57-6.2-2.5-12-4.4-5.4-1.8-9.7-3.9-9.7-4.6 0-.7-.53-1.4-1.2-1.6-.64-.22-1.1.35-.93 1.3.28 1.9 6.3 5.2 15 8.2 6.7 2.3 11 3 8.2 1.2zm27-2.9c-1.6-.45-4-1.1-5.2-1.5-1.3-.41-2.2-.27-2.2.34 0 1.5 1.9 2 6.5 2 3.9-.02 3.9-.05 1-.85zm39-2c-.34-.55-2-.97-3.8-.93-2.7.06-2.9.21-1.2.93 2.8 1.2 5.7 1.2 5 0zm15-2c1.6-.69.84-.78-2.7-.32-7.3.93-11 2.5-4.8 1.8 2.9-.29 6.3-.96 7.5-1.5zm15-.16c2.7.1 3.2-.11 2-.93-1.2-.8-.85-.91 1.2-.45 1.5.33 2.8.2 2.8-.28 0-.49 1.1-.68 2.4-.43s2.7-.03 3-.62c.42-.68.09-.86-.88-.49-.85.33-1.6.1-1.6-.51s1.1-1.1 2.4-1.1 3.7-1.2 5.2-2.6l2.8-2.6-3 .68c-1.6.38-4.8 1.5-7 2.4-2.2.95-6.1 2.2-8.7 2.9-2.6.64-5.7 2.1-6.8 3.3l-2.1 2.1 2.4-.75c1.3-.41 3.9-.69 5.8-.63zm-38-8c0-.39 2.1-1 4.8-1.4 9.3-1.3 33-8.1 32-9.2-.24-.23-2.5.28-5.1 1.2-5.6 1.9-7.6 2-7.6.25 0-1-1.3-1.2-5.8-.63-3.2.38-6.8 1-8 1.4-1.3.42-2.8.22-3.7-.49-1.1-.95-1.8-.91-3.1.17-1.5 1.2-1.6 1.2-1-.38.44-1.2.17-1.8-.81-1.8-.81 0-1.5.79-1.6 1.8-.05 1.1-.28 1.2-.58.49-.28-.69-1-.93-1.7-.54s-1.8.76-2.7.83c-.84.07-3.2.45-5.2.84-3.3.63-3.7.51-3.2-1.1.48-1.5.4-1.5-.48-.29-.58.83-1.9 1.6-3 1.6-1.7.09-1.9-.42-1.5-3.5l.42-3.6-4 8 .4-4.6c.22-2.5 0-5.2-.49-6-.5-.78-.91-.97-.93-.42s-.49.33-1-.5c-.76-1.1-.94-.63-.73 2 .19 2.3.73 3.4 1.6 3.2.9-.19 1.2.27.75 1.3-.34.89-.62 2.3-.62 3.2 0 1.3-.28 1.3-1.5.3-.82-.68-1.5-2.2-1.5-3.3 0-2-.03-2-1.4-.14-1.1 1.4-1.1 2.1-.25 2.7 3.2 2.1-7.2.17-17-3-8.3-2.8-11-4.1-11-5.5-.29-2.2.22-1.9-6.1-3.9-2.9-.91-5.2-1.2-5.2-.65 0 .53-.45.69-1 .35-.55-.35-1.3.1-1.6.99-.5 1.3-1 .93-2.7-1.7-1.1-1.8-2-3.7-1.9-4.1.12-.44-.26-1.7-.85-2.8-1.3-2.4-3-1.7-2.3 1 .41 1.6.1 1.8-1.6 1.4-1.2-.31-2.1-.9-2.1-1.3 0-.67-2.9-2-5.3-2.4-.43-.07-1.2-.73-1.6-1.5-.6-.97-.97-.64-1.3 1.2-.27 1.4-.11 2.3.36 2 .48-.29.86.2.86 1.1 0 .97-.46 1.3-1.2.9-.72-.44-.89-.27-.45.45.4.63 1.4 1.2 2.2 1.2.82 0 2.4.9 3.6 2s2.7 2 3.5 2 1.3.4 1.3.88c0 .49.93 1.1 2.1 1.4 1.2.3 2.3 1.5 2.6 2.7s.86 1.7 1.2 1.1c.41-.66 2.9.05 6.9 1.9 3.4 1.6 8.5 3.5 11 4.1 2.7.62 4.7 1.5 4.4 2-.29.46 1.6.88 4.3.94 3.7.08 4.2.27 2.3.81l-2.5.7 2.5.67c1.4.37 2.6.23 2.8-.31.42-1.2 3.4-1.2 8-.04 9.2 2.4 16 3.4 22 3.4 3.6.03 6.6.41 6.6.84 0 .44 1.1.69 2.5.58s2.5-.53 2.5-.93zm80 .16c1.8-1.2.25-1.2-2.5 0-1.3.57-1.5.88-.5.91.82.03 2.2-.38 3-.91zm-64-1c1.9-.83 1.9-.86-.19-.93-1.2-.04-2.5.38-2.8.93-.73 1.2.25 1.2 3 0zm68-2c.51 0 .92-.51.92-1.1s.79-1.7 1.8-2.5 1.5-1.3 1.1-1.4c-.34-.02-2.4 1.4-4.5 3.1-2.1 1.7-3.1 2.9-2.1 2.5s2.2-.66 2.8-.66zm-44-1c1.8-1.2.25-1.2-2.5 0-1.3.57-1.5.88-.5.91.82.03 2.2-.38 3-.91zm27-1.6c7.2-2.4 13-5.6 11-6.8-.24-.24-3.9 1.3-8.2 3.5-4.3 2.2-8.5 3.9-9.5 3.9-.95 0-2.4.45-3.2.98-2.8 1.8 1.1 1.1 9.4-1.6zm-21-.64c.66-.02.97-.42.69-.88-.29-.46-1.5-.32-2.7.3-3 1.5-3.7 2.4-1.2 1.4 1.1-.43 2.5-.8 3.2-.83zm51 .81c0-.74 7.8-4.5 9.2-4.5.71.01-.88 1.1-3.5 2.5-5 2.6-5.7 2.8-5.7 2zm21-1.3c.01-.41.67-1.9 1.5-3.2 2.4-4.2 1.9-5.3-1.4-3.5-1.6.84-3.5 1.5-4.2 1.4-.72-.05-.16-.61 1.2-1.2 1.4-.64 3.9-2.2 5.7-3.4 1.8-1.3 3.8-2 4.7-1.6 1.7.65 2.2 2.4.71 2.4-.49 0-1.6 1-2.4 2.3-1.2 1.9-1.3 2.3-.17 2.3.75 0 1.3-.27 1.3-.59-.22-2 .36-3.1 1.6-3.1.81 0 2-.9 2.5-2s1.5-2 2.1-2c.57 0 .02 1.5-1.2 3.2-1.9 2.7-2 3-.32 1.6 2.1-1.8 5.4-2.1 5.4-.59 0 .52.68.39 1.5-.29 2.1-1.7 2 .32-.08 3.9-1.3 2.2-2.3 2.7-5.4 2.7-2.1 0-3.6-.35-3.4-.78.78-1.3-.99-.82-3.1.76-2.7 2-3.4 1.8-2.9-.78.4-1.9.25-1.9-1.1.5-1.6 2.7-2.6 3.5-2.5 2zm-63-4.6c0-.47-.71-.59-1.6-.26-.87.34-1.8.61-2 .61s-.42.68-.42 1.5c0 1.3.33 1.3 2 .26 1.1-.69 2-1.6 2-2.1zm54 .35c.34-.55 1.3-1 2.1-1 .82 0 1.2.45.88 1s-1.3 1-2.1 1c-.82 0-1.2-.45-.88-1zm32 .15c0-1.7 3.4-7.7 6.2-11 1.6-1.8 2.8-3.9 2.8-4.6 0-1.3 3.1-4.6 4.3-4.6.37 0 .67.68.67 1.5s-.63 1.5-1.4 1.5-2.4 1.6-3.5 3.6c-2.5 4.2-2.6 5.1-.6 3.4.84-.69 1.5-.8 1.5-.24 0 .55-.68 1.6-1.5 2.2-1.2 1-1.5.98-1.5-.13-.01-.75-1.4.99-3.1 3.9-3 5.1-3.9 6.1-3.9 4.4zm-94-1.6c1.1-.81 1.5-1.5.94-1.5s-1.9.66-2.9 1.5-1.5 1.5-.94 1.5 1.9-.66 2.9-1.5zm-42-.69c0-.63 1.1-2.6 2.5-4.4s2.5-3.7 2.5-4.3.64-1.4 1.4-1.8 1.6-1.5 1.8-2.3.57-1.7.85-2c.91-.87 4-5.9 4-6.5 0-.33-.56-.26-1.2.15-.83.5-.78.17.14-.96.77-.95 1.6-1.5 1.9-1.2.81.81 3.2-1.6 2.6-2.6-.31-.49.14-1.2 1-1.5s1.3-1 1-1.5c-.31-.5.14-.9 1-.9s1.6-.41 1.6-.92c0-1.5 9.7-15 10-15 .35.26.43.19.18-.16-.73-.99 5.5-9.5 6.5-8.9.5.31 1.8-1.3 3-3.5 1.1-2.2 2.5-4 2.9-4 .49 0 1.4-1.2 2-2.8 2.2-5.3 3.5-7.1 5.2-7.6 1.2-.31 1.9-2 2.4-5.3.38-2.7 1.1-5.5 1.6-6.4.6-1 .72-.52.37 1.5-.29 1.6-.26 2.4.07 1.7.32-.69 1-1 1.5-.69.5.31.97.09 1-.49.24-2 .45-2.6 1.8-5 .75-1.4 1.4-3.2 1.5-4 .2-1.8 2.3-6.4 9.5-21 3.3-6.7 5.3-12 5.5-15 .14-2.3.63-5.6 1.1-7.2.64-2.3.54-2.7-.47-2.1-1 .62-1.1.13-.58-2.1.5-2 .4-2.6-.31-1.9-1 1-4.1 12-4.4 15-.09 1.1-1.1 2.1-2.4 2.3-1.2.24-2.1.16-1.9-.17 1.3-2.4 1.9-5.3 2.2-9.5.17-2.7.82-5.4 1.4-6 .86-.84 1-.12.56 2.9-.44 3.1-.16 2.6 1.3-2 1-3.3 2.1-7.6 2.4-9.6.52-3.3.38-3.6-1.4-3.1-1.7.44-2 .07-1.8-2.4.31-4.6.08-5.4-1.5-5.4-3 0-1.6-4 2-5.7 6-2.9 3.4-4.6-3.4-2.2-4.6 1.6-4.8.5-.42-2.1 2.3-1.4 3.9-1.8 4.1-1.1.44 1.3 3.2 1.5 3.2.22 0-1.4-4-2.1-6.9-1-2.9 1-2.7.89 3.4-3.6 2-1.4 1.9-1.5-.18-.46-3.2 1.5-4.2 1.2-1.3-.47 3.4-2 5.9-1.9 5.8.25-.1 2.5 2 7.2 3.2 7.2 1.4 0 1.3-.57-.51-4-.83-1.6-1.1-3-.68-3s1.6 1.6 2.5 3.5 2.1 3.5 2.7 3.5c1.8 0 1.1-3.6-1.2-6.6-1.5-1.9-1.6-2.4-.48-1.5.96.77 2.1 1.1 2.5.67s-.17-1.4-1.3-2.2c-1.1-.82-2.1-1-2.3-.47-.36 1.1-3.3.27-4.3-1.2-.34-.5-3 .27-6 1.7-3 1.4-4.5 1.9-3.4 1.1 1.1-.87 3.7-2.4 5.7-3.3 3.8-1.7 4.9-3.2 2.5-3.2-.7 0-2.3.72-3.5 1.6-1.2.87-3 1.3-3.8 1s-1.2-.17-.95.32c.31.5-.68 1.9-2.2 3.1-1.5 1.2-2.1 1.8-1.3 1.4 1.1-.55 1.2-.29.74 1-.52 1.3-.3 1.6.89 1.2 1.2-.47 1.4-.15.92 1.5-1.1 3.4-6.6 11-7.5 10-.98-.61-1.8 2.2-2.3 7.5-.5 5.6-1.8 11-2.7 12-.46.29-.61 1.1-.33 1.9.95 2.5-4.5 17-9.5 25-3.6 5.8-4.9 9-4.9 12v3.7l2-2.2c2-2.2 2-2.2.24 1.3-.94 1.9-1.9 2.9-2.1 2.2-.23-.69-.79-1-1.2-.74-.45.27-.59-.4-.3-1.5s.26-2-.06-2c-1.6 0-3.9 7.2-5 16-.14 1.1-.81 3-1.5 4.2-1.2 2.3-8.2 18-8.2 19 0 .19.45.06 1-.28s1-.14 1 .44-.68 1.1-1.5 1.1c-1.4 0-2 1.2-1.6 3.4.09.48-.48 1.6-1.3 2.5-.78.89-2.2 3.2-3.2 5.1s-2 3.7-2.4 4c-.33.27-1.9 2.2-3.5 4.3s-4.2 5.2-5.7 6.8c-2.4 2.5-2.9 3.8-2.9 8.2-.03 2.9-.69 7.9-1.5 11l-1.4 6 .66-5.5c1.7-14 .39-20-1.6-8.2-.62 3.7-1.4 8-1.7 9.6-.4 2-.23 2.6.52 2.2 1.2-.77 1.4.43.47 2.9-.52 1.4-.82 1.4-1.6.33-.73-1-.83-.92-.42.36.3.93.15 3.1-.34 4.8-.54 1.9-.52 2.9.05 2.5.52-.32.94.12.94.98s.68 1.6 1.5 1.6 1.5-.52 1.5-1.2zm10-.93c2.1-.81 1.7-.94-3.5-1.3-1.5-.09-2.4-.68-2.2-1.5.16-.73-.19-1-.76-.69-.57.36-.77 1.1-.44 1.6.33.54.06 1.6-.61 2.4-1 1.2-.71 1.4 2.2.81 1.8-.36 4.3-1 5.4-1.4zm51-3.1c5.6-4.1 7.2-6 2.5-3.1-1.5.97-3 2-3.2 2.3-2 2.2-6.4 4.8-7.3 4.3-.61-.37-.74-.15-.32.53.83 1.3 1.2 1.2 8.3-4.1zm78 4.2c0-.55.48-1 1.1-1s.84-.36.56-.8c-.27-.44-.07-1.4.43-2.2.8-1.3.93-1.2.97.05.03.89 1.5-.14 3.5-2.5 1.9-2.2 3.5-3.5 3.5-2.8 0 .66-.44 1.5-.99 1.8s-1 1.1-1 1.6.45.72 1 .38c1.3-.78 1.2-.51-.1 3.4-1 3-2.9 4.3-2.9 2.1 0-.71-.6-.71-1.9 0-2.4 1.3-4.1 1.3-4.1.04zm-179-.88c.92-.58.45-.86-1.5-.91-1.6-.03-4.4-.33-6.3-.66l-3.5-.59 3.5 1.4c4.2 1.7 6.1 1.9 7.8.76zm20-1.4c.02-.69.76-2.8 1.6-4.8 1.4-3.2 1.6-3.3 1.7-1 .08 2.4.11 2.4 1.4-.5 1.8-3.9 1.9-1.1.11 3.8-1.5 4.3-.14 5.1 1.7 1 .67-1.5 1.4-3 1.7-3.2s.56-1.1.62-1.8c.31-3.8.49-4.3 1.4-3.8.55.34 1 .25 1-.19 0-.45.85-4.9 1.9-9.8 3-14 3.4-20 2-27-1.2-6.1-1.5-6.6-5.1-8-2.2-.86-3.5-2-3.2-2.6.37-.61.17-.75-.48-.35-.63.39-2 .24-3.1-.34-1.2-.64-2.1-.67-2.3-.07-.18.53-.91.59-1.6.13-1.1-.66-1-1.1.32-2.5 1.5-1.5 1.5-1.6-.06-1.6-2.1 0-6.3 4.7-7.1 8-.35 1.4-1.6 4.3-2.8 6.5-2.8 5.2-4.1 9-2.6 8.1.61-.38 1.1-.1 1.1.62-.01 1.6-2.9 9.7-2.9 8.4-.02-.52-.53-.46-1.1.14-.78.78-.64 1.9.5 4.1.87 1.7 1.3 3.8.98 4.6s-.13 1.6.46 1.6c.58 0 1.4-1.6 1.7-3.5.36-1.9.98-3.5 1.4-3.5.4 0 .11 3-.63 6.6-2.2 11-2.1 12 .69 13 1.1.29 2 1.3 2.1 2.2.05 1.3.27 1.2.93-.37.73-1.7.87-1.8.93-.25.13 3.4 1.9 1.7 2.7-2.5.42-2.3.94-3.5 1.2-2.5.21.97-.14 3.4-.78 5.3-.65 2-.89 3.8-.54 4.2s.9-.35 1.2-1.6c.31-1.2 1-2.2 1.6-2.2.56 0 .71 1.1.35 2.6-.35 1.4-.38 3-.05 3.5.79 1.3 1.1 1.2 1.2-.3zm3.2-2.8c-.03-.99-.34-.82-.91.5-1.2 2.8-1.2 4.3 0 2.5.53-.83.94-2.2.91-3zm-88 2c-.34-.55.08-1 .94-1s1.6.45 1.6 1-.42 1-.94 1-1.2-.45-1.6-1zm102-1c.37-1.4 1.1-3.2 1.6-4 .64-1 .72-.74.26 1-.37 1.4-1.1 3.2-1.6 4-.64 1-.72.74-.26-1zm11-.5c-.36-.95.02-1.5 1-1.5.89 0 1.6-.39 1.6-.86 0-.48 1-.67 2.3-.43 1.4.26 3.2-.39 4.7-1.6 1.3-1.1 2.7-2.1 3.2-2.1.42 0 1.1-.9 1.4-2s1.3-2 2.1-2c.83 0 2.5-.52 3.7-1.2 2.7-1.5 9.9-2.2 7.7-.83-.82.53-2.3.97-3.2.97-.93.01-1.9.38-2.2.83-.82 1.3 15-.87 16-2.3.82-.74 3.9-2.3 6.9-3.5 4.3-1.7 5.6-1.9 6.2-.84.63 1 1 1 2 .05.68-.68 2-1.2 3-1.2 1 0 1.6-.54 1.3-1.3-.31-.79 1.6-2.4 5-4.1 6.2-3.1 7.2-4.2 5-5-.85-.33-1.3-.2-1 .29.3.48-2.3 2-5.7 3.4-4.5 1.8-6.2 3-6.2 4.3 0 1.1-.84 2-2 2.2-1.6.26-1.7.14-.5-.72 2.1-1.4.97-1.3-4 .43-5.1 1.8-6.4 1.9-5.4.39.44-.71.01-.92-1.2-.58-5.9 1.6-12 2.8-14 2.4-.7-.24 1.9-1 5.7-1.8 7.1-1.3 13-4.5 12-6.3-.34-.55-.2-.74.32-.42 1 .63 17-6.7 17-7.8 0-.36-.7-.4-1.6-.07-.95.36-1.3.18-.9-.46.36-.58 1.3-.8 2.1-.49 1.4.55 11-5.1 13-7.9 1.5-1.8-.61-3.3-2.2-1.7-.61.61-1.8 1.1-2.7 1.1-1.3-.03-1.3-.24.2-1.4.96-.73 1.8-1.8 1.8-2.4s1-1.7 2.2-2.5 2-1.8 1.7-2.1c-.93-.97-5 2.4-6 5-.5 1.3-1.4 2.4-2 2.4-.6 0-.79-.48-.42-1.1.36-.59-1.2-.11-3.5 1.1-2.3 1.2-4 2.4-3.7 2.6.28.28 1.8-.14 3.4-.93 3.9-2 6-1.2 3.8 1.4-.95 1-2.2 1.9-2.7 1.9s-2.6 1.2-4.4 2.6c-2.5 1.9-3.1 2.8-2.1 3.4.83.51.18.78-1.8.72-1.7-.05-4.5.9-6.2 2.1-3 2.1-3.2 2.1-4.9.46-1.6-1.7-1.6-1.7-.02-1.1 1.8.67 7.3-1.8 12-5.3 2-1.6 2.1-1.8.5-1.3-1.1.38-2.9 1.3-4.1 2s-2.3 1.1-2.6.8-2.5.33-5 1.4c-3.4 1.4-4.5 1.6-4.5.62 0-.72.6-1.1 1.3-.79.73.28 1.3-.01 1.3-.65s.45-.89 1-.55 1 .19 1-.33 1.5-1.2 3.4-1.6c1.9-.35 5.6-2.4 8.2-4.5 2.7-2.1 6.3-4.6 8.1-5.5 3.5-1.8 7.6-5.7 6.8-6.5-.28-.28-1.9.81-3.7 2.4s-2.6 2.1-1.8 1.1c1.1-1.4 1.1-2 .19-2.6-.87-.54-.63-1.3.88-2.6 1.8-1.6 2.2-1.7 3-.43.5.8.98 1.2 1.1.96.43-1.5.56-5 .18-5-.24 0-3.3 2.1-6.9 4.6-3.5 2.5-6.4 4.1-6.4 3.6s1.9-2.4 4.2-4.1l4.2-3.1-3.1.4c-1.7.22-3.6.68-4.2 1-.57.35-1 .16-1-.42s-1.1-1.1-2.5-1.1-2.5.39-2.5.86c0 .48-2 1.6-4.5 2.6s-5 2.6-5.5 3.6c-.94 1.8-.58 1.7 4.5-.52 3-1.3 5.8-2 6-1.6.3.48-.4 1.2-1.6 1.5-1.2.36-1.8.91-1.6 1.2s1.7-.21 3.1-1.1c3.1-2 3.3-.72.25 1.4-3 2.1-16 7.9-22 9.6-2.7.82-5.2 2.3-5.8 3.5-1 1.9-.89 2 1.2 1.3 1.3-.41 3.7-1.1 5.3-1.5s3.7-1 4.6-1.4c.91-.38 1.9-.25 2.2.29.34.55-1.3 1.3-3.6 1.7-3.7.62-7.4 1.8-15 5-1.1.44-2.8.89-3.8 1s-2.2.83-2.7 1.6c-3 4.9-8.5 12-9.1 11-.4-.24-1 .08-1.4.73-.45.73-.29.9.44.46.63-.4 1.2-.29 1.2.22 0 .52-.95 1.2-2.1 1.5-1.2.3-1.8 1-1.4 1.6s.11 1.1-.57 1.1c-.67 0-.92.3-.55.67.36.37-.12 1.6-1.1 2.7-1.7 1.9-1.7 2 .09 1.3 1-.37 3.7-.96 6-1.3 5.5-.83 3.8.91-2.6 2.6-4.6 1.2-8.2 4.4-7.1 6.2.9 1.5 2.4.91 1.8-.66zm-56-.51c-.81-1.3-6.6-4.3-7.1-3.7-.5.5 5.7 4.7 6.9 4.7.44.01.53-.43.19-.99zm85-.52c1.4-1 1.5-1.5.5-1.4-.79.02-2.3.69-3.4 1.5-1.4 1-1.5 1.5-.5 1.4.79-.02 2.3-.69 3.4-1.5zm5.7-.44c1.9-1.6 2-2 .68-2-1.5-.03-4.8 2.4-4.8 3.5 0 1 2 .29 4.1-1.5zm-101-1.9c-.52-.48-2.6-1.4-4.7-2.1-4.1-1.3-9.8-5.8-9.8-7.8 0-.71-.67-1.3-1.5-1.3s-1.5-.48-1.5-1.1-.54-.72-1.2-.32c-.88.55-.89.85-.06 1.1.63.21.92.97.65 1.7-.29.74.39 1.5 1.6 1.8 1.1.3 2.1 1.1 2.1 1.7 0 .63-.45.87-1 .53s-1-.15-1 .43c0 1.2 6.8 4.3 7.9 3.6.39-.24 2.5.19 4.6.96 4.7 1.7 5.1 1.8 3.9.61zm22-4.1c-.98-2.3-1.8-3.3-2-2.4-.56 2.6.79 6.4 2.3 6.4 1.2 0 1.1-.69-.26-4zm-3.6-8.1c-.09-8.7.2-11 1.4-12 1.3-.78 1.2-1-.25-1.6-2.2-.86-2.2-2.4.03-2.5 1.7-.03 1.7-.1.02-1.4-.96-.73-1.5-1.6-1.2-1.8.29-.29-1.3-4-3.5-8.3s-4-8-4-8.2.85.1 1.9.65c1 .56 3.1 3.1 4.6 5.6 4.5 7.6 4 4.2-.64-4.7-2.4-4.6-4.9-8.5-5.7-8.7-1-.31-.92.38.33 2.8.92 1.8 1.3 3 .76 2.7s-1.7-2.4-2.7-4.6c-1-2.2-2.2-4-2.7-4-.47 0-.85-.93-.85-2.1s-.4-1.8-.9-1.5c-.49.3-1.2-.19-1.5-1.1-.34-.9-.85-1.4-1.1-1.1s-.03 1.8.55 3.3c1.5 4.1.3 4.4-1.5.4-1.2-2.7-1.5-2.8-1-.82.38 1.8.1 2.6-.95 2.6-.91 0-2.1-2-3.2-5.3-.92-2.9-2-5.1-2.5-4.8-1.4.87-.92 6.2.62 7.1.8.45 2.1 2.4 3 4.4 1.3 3.1 1.3 3.8.11 4.8-1.2.97-1.6.41-2.6-3.2l-1.2-4.3-.71 3-.7 3-.14-3c-.1-2.3-.35-2.7-1.1-1.5-.78 1.2-.97 1.1-.98-.75-.01-1.2.43-2.2.98-2.2s1-.45 1-1c0-2.6-2-.55-3 3-1.2 4.6-.46 8.8 1.3 7 1.7-1.7 3.7-1.3 3.7.65.01.96.92 3.2 2 5.1s1.8 3.7 1.5 4.2c-.29.48.57 3.4 1.9 6.4 1.4 3.1 2 5.6 1.5 5.6-.51 0-.94-.44-.94-.98 0-1.9-8.1-18-9.1-18-.58 0-.47.94.26 2.2.68 1.2 1.1 2.6 1 3-.13.44.19 1.6.7 2.5.61 1.1.48 2.6-.39 4.2-1.2 2.2-1 3 1.1 7.3 1.3 2.6 2.8 4.6 3.3 4.3s1.1.37 1.4 1.5c1.3 5.1-2.9.49-7.4-8-2.2-4.2-2.4-4.3-2.7-1.9-.18 1.5.97 5.1 2.7 8.5 1.7 3.2 3.1 5.2 3.1 4.4.11-1.7 2.8 3.8 2.9 5.8.08 2.2-1.9.27-4.1-4.1-3.3-6.4-4.6-7.3-5.4-3.7-1.2 5.6 4 11 18 18 13 6.4 13 6.5 13-6.7zm8.9 3.2c.26-3.5.94-7.1 1.5-8 1.2-1.9.5 4.7-1.1 11-.72 2.8-.81 2.2-.43-2.8zm2.5 1.3c0-1.9.36-3.5.8-3.5s.61 1.6.39 3.5-.58 3.5-.8 3.5c-.21 0-.39-1.6-.39-3.5zm162 1.6c2.4-2 4-2.6 4-1.6 0 .27-1.5 1.2-3.2 2.1l-3.2 1.6 2.5-2zm-160-.08c0-.82.39-2.4.86-3.5.54-1.3.86-1.4.86-.5 0 .82-.39 2.4-.86 3.5-.54 1.3-.86 1.4-.86.5zm-31-.36c-.23-.21-1.5-.95-2.9-1.7-2.3-1.2-2.4-1.2-1.1.37.76.91 2.1 1.7 2.9 1.7s1.4-.16 1.1-.36zm-41-1.4c0-.44-.68-1.7-1.5-2.8-1.4-1.8-1.4-1.7-.34.81 1.2 2.8 1.9 3.5 1.9 1.9zm-3.5-2.1c-.36-.59-1.1-1.1-1.7-1.1-.66 0-.59.57.2 1.5 1.4 1.7 2.6 1.3 1.5-.45zm125 .93c-2-1.2-1.2-1.7 4-2.3 2.5-.31 3.6-.32 2.5-.01-1.1.3-2.7 1.2-3.5 1.9-.98.87-2 1-3 .45zm-91-2c-1.8-3.4-6-4.7-6-1.9 0 .81 4.8 3.8 6.3 3.8.43.02.3-.85-.28-1.9zm19 .15c-1.6-2.9-1.3-4 .44-1.7 1.9 2.5 1.9 1.2-.06-2.5-1.7-3.2-3.1-4-2.1-1.2.49 1.4.31 1.4-.93-.24-.85-1.1-1.1-2.1-.58-2.3.91-.3-2.3-8.7-5.5-14-.84-1.5-1.1-2.8-.56-2.8.53 0 2.2 3.2 3.7 7s3.1 7.3 3.6 7.6c1.2.76.93-.79-.68-3.6-1.6-2.8-2-5.4-.59-4.6.51.31 1.1 0 1.3-.69.26-.78.87-.4 1.6.99.77 1.4.83 2.2.17 2.2-.57 0-1-.53-1-1.2s-.29-.88-.64-.53.35 2.9 1.5 5.7c1.2 2.8 1.9 5.4 1.6 5.9-.3.48.16 1.1 1 1.5 1.1.42 1.4 1.3.89 2.9-1.1 3.5-2.2 4.2-3.4 1.9zm68 .39c-.46-1.2.33-2 2.3-2.4.28-.05 2.7-.77 5.4-1.6 6.6-2 7.1-1.2.6.92-2.8.93-5.7 2.3-6.5 3.1-1.2 1.2-1.5 1.2-1.9 0zm-128-1.1c-.31-.82-1.2-1.5-1.9-1.5s-1.8-.79-2.4-1.8-1-1.3-1-.81c-.04 1.2 4 5.6 5.1 5.6.44 0 .54-.68.22-1.5zm148 1.1c0-.22 1.5-.57 3.4-.79s3.2-.05 2.9.39c-.48.78-6.4 1.2-6.4.4zm-66-4.1c.03-1.6.25-2.2.5-1.2.26.97.24 2.3-.03 3-.28.68-.49-.12-.47-1.8zm-66-2.2c-.25-.97-.47-.42-.5 1.2-.02 1.6.19 2.4.47 1.8.27-.68.29-2 .03-3zm-15-.77c-.9-1.4-2.1-2.5-2.7-2.5s0 1.1 1.3 2.5 2.5 2.5 2.7 2.5-.39-1.1-1.3-2.5zm34-2.8c.17-1.4-.37-3.8-1.2-5.4-1.5-2.8-1.5-2.8-1.6 2.7-.03 3.9-.33 5.1-1 4-.75-1.2-.97-.85-.98 1.4-.02 2.8.07 2.8 2.2 1.4 1.2-.82 2.4-2.6 2.6-4.1zm99 1.7c1.9-3.8 3.9-6.4 3.9-5 0 .4-.73 1.8-1.6 3.2-2 3-1.8 3 4.2.42 2.6-1.1 5.5-1.9 6.3-1.7.86.18-1.6 1.4-5.4 2.6s-7.5 2.7-8.2 3.3c-.65.53-.31-.72.74-2.8zm-139-2.4c-1.7-2.8-3.5-4.8-3.9-4.5-1.2.75-2.3-1.4-2.5-5-.09-1.7-.51-4-.91-5.1-.41-1.1.86.75 2.8 4.1 3.5 6 6.6 9.6 6.6 7.6 0-.55-.83-2.1-1.8-3.4-2.2-2.8-4.6-9.7-3.8-11 .33-.33.6.12.6 1 0 .89.52 1.9 1.2 2.3.81.5.95-.14.49-2.2l-.66-2.9 1.4 2.5c.85 1.5 1 2.7.47 3.1-2.5 1.5 5.1 12 8.6 12 .69 0 1.5.68 1.8 1.5.32.82 1.3 1.5 2.2 1.5 1.4 0 1.6-.68 1.1-3.6-.32-2-1.4-4.5-2.3-5.5-.94-1-1.4-1.9-1-1.9s.2-1-.4-2.2c-1-2.2-1-2.2.41-.25.82 1.1 2.2 2.9 3.1 4s2.2 2.9 3 4c1.4 1.9 1.5 1.9 1.5-.69.02-1.5.43-2.9.91-3.2 1.4-.85-.32-14-1.8-14-1.1 0-3-7-2.4-8.6.29-.76-1.6-5.3-4.3-10-2.7-4.7-6.1-11-7.6-14-4.2-7.8-5.2-8.6-9.6-7.8-8.6 1.8-10 2.3-11 3.7-1.5 1.8-1.8 23-.36 26 .51 1.1.96 2.2 1 2.5s.74 2.5 1.5 4.9c1.2 3.5 1.6 4 2.2 2.5.67-1.7.74-1.7.8.24.09 2.6 2.6 7.8 4.6 9.4 1.6 1.4 2 3.4.49 2.5-1.2-.76-.26 2 2.1 5.8 1.1 1.9 1.9 2.4 2.2 1.5.35-.92.73-.72 1.3.67.7 1.8 4.4 6.5 5.1 6.5.17 0-1.1-2.2-2.8-5zm10 3.1c0-.49-1.6-2.1-3.5-3.6-3.5-2.6-3.5-2.6-2.4-.33.9 2 1.9 2.8 5.7 4.6.14.06.25-.28.25-.76zm169-3.2c10-5.6 12-6.8 16-11 4.6-4.3 2.8-4.2-3.5.28-2.8 2-6.6 4.3-8.5 5.2s-4.4 2.4-5.5 3.3c-1.1.94-3.1 2-4.5 2.3-1.4.32-3.4 1.3-4.5 2.1-2 1.5-2 1.5.37 1.6 1.3.02 5.8-1.8 10-4.1zm-122-1.1c-1.1-1.2-2.3-3-2.6-4s-1.1-1.5-1.6-1.2c-.61.38-.85.07-.57-.73.27-.76-.15-2.7-.94-4.2-.79-1.6-1.2-3.1-.81-3.5.81-.81 2.6 2 1.9 3-.28.44-.02.8.56.8s1.1.68 1.1 1.5.42 1.5.93 1.5c.52 0 1.2.9 1.6 2s1 2 1.5 2c.49 0 .66-.79.36-1.8s.15-.63 1 .75c1.7 2.8 2.1 6 .64 6-.53 0-1.9-.98-3-2.2zm24 .68c0-1.1.36-3.1.8-4.5.63-2 .8-2.1.8-.5 0 1.1-.36 3.1-.8 4.5-.63 2-.8 2.1-.8.5zm-70-.31c0-.44-.68-1.7-1.5-2.8-1.5-1.9-1.5-1.9-.9.06.34 1.1-.36.49-1.5-1.4s-2.4-4.8-2.7-6.5c-.33-1.7-1.2-4.3-1.9-5.6-1.5-2.9-4.4-18-3.4-18 .35 0 1.4 2.1 2.3 4.8l1.7 4.8-.47-4c-.26-2.2-.73-5.4-1-7-.45-2.3-.35-2.6.47-1.4.58.91 1.2 2.5 1.3 3.5s.63 2.4 1 3.1c.41.67.45 2.4.07 3.9-.45 1.8-.32 2.5.41 2 .59-.36 1.4-.13 1.8.51.5.81.06 1-1.4.61-1.2-.31-2.2-.4-2.2-.19 0 1.1 4.6 12 6.3 15 2.5 4.5 3.8 9 2.6 9-.51 0-.93-.36-.93-.81zm143-.83c0-.45 5.8-3.4 6.6-3.4.41 0-.13.67-1.2 1.5-1.7 1.3-1.4 1.3 2.5-.01 2.4-.83 4.6-1.3 4.8-1.1.57.57-8.8 3.4-11 3.4-.96-.04-1.8-.21-1.8-.38zm.5-4.8c12-4.8 14-5.4 9.5-3.1-1.6.91-2 1.5-1 1.5.82.06-2.3 1.2-7 2.6-13 3.8-13 3.8-1.5-1zm-119-.3c-1.1-1.1-1.8.64-1.1 2.4.74 1.7.8 1.7 1.2-.04.24-1 .17-2.1-.15-2.4zm6-3.2c-.37-4-1.5-8.4-2.6-10-1.9-3.3-3.1-17-3.5-41-.16-9.5-2-12-8.6-11-1.6.17-5 5.4-5 7.5 0 1.4-2.3 4.7-6.2 8.9-4.3 4.5-4.4 7-.85 12 1.7 2.6 3.1 5.3 3.1 6 0 3.3 3.6 7.7 7 8.6 2.4.6 2.4.56.56-.82-1.1-.8-2.4-1.4-2.9-1.4-.53 0-.5-.54.08-1.2.56-.69 1.2-2.2 1.5-3.2.32-1.3.53-.88.6 1.2.07 1.8.46 3.2.87 3.2 1.5-.01 2.9-4.7 2.1-6.8-.44-1.2-.42-2.2.05-2.2.89 0 2.1 4.8 2.1 8.4 0 1.2.72 3.5 1.6 5.1 1 1.9 1.6 5.8 1.7 11 .13 6.8.34 7.6 2.2 7.7 1.1.07 2.9 1.3 4 2.7s2.1 2.6 2.4 2.6.16-3.1-.2-7zm76 2.9c-.35-.55.33-2.4 1.5-4 1.2-1.6 1.9-3 1.6-3-1.1 0-4.7 6.1-4.1 7 .34.56.84 1 1.1 1 .27 0 .22-.45-.12-1zm28-.97c1.4-.55 2.6-1.7 2.5-2.8-.03-1.6-.19-1.6-1.2-.27-.67.82-1.9 1.5-2.6 1.5s-1.6.56-1.8 1.2c-.5 1.5-.14 1.5 3.2.27zm-110-2.2c0-1.1 3.8-.96 4.5.21.35.58-.46.91-2 .79-1.4-.12-2.6-.57-2.6-1zm32-1c-1.1-2-1-2.1.42-.91.89.73 2.1 1 2.6.69.62-.38.8-.01.44.92-.84 2.2-2.1 1.9-3.5-.7zm192 .73c1.1-.8 2.2-1.2 2.5-.92.63.63-1.9 2.4-3.4 2.4-.55-.01-.13-.67.93-1.5zm-43 .18c0-.34.9-2.1 2-3.9 1.1-1.8 2-2.7 2-1.9 0 .74-.9 2.5-2 3.9s-2 2.3-2 1.9zm-140-4.7c-.64-1.2-1.4-2-1.6-1.7s.09 1.4.79 2.5c1.7 2.7 2.4 2 .86-.86zm189 1.6c1.1-.78 2.2-1.2 2.4-.94.55.55-2 2.3-3.4 2.3-.52.01-.07-.62 1-1.4zm-91-1.5c2.9-2.2 1.9-4.1-1.1-2.2-1.1.69-3.1 1.7-4.4 2.1-1.9.74-2.2.6-1.9-.86.31-1.2 2.3-2.2 6.4-3 3.3-.72 5.7-1.7 5.4-2.2-.29-.48.12-.62.93-.31.8.31 3.2-.51 5.3-1.8 6.1-3.8 6.3-3.9 6.3-3.1-.02.45-2.7 2.6-6 4.8s-6 4.3-6 4.7c-.02.79-5.4 3.8-6.7 3.8-.44-.01.32-.88 1.7-1.9zm-109-1.6c-1.7-3.7-1.4-4.5.46-1.1.84 1.6 1.4 3 1.1 3.2s-.94-.73-1.6-2.1zm94-.55 4.5-1.8-6 .51c-5.4.47-7.5 1.5-7.5 3.7-.02.92 2.4.27 9-2.4zm73 2.2c0-.94 2.4-2.1 4.3-2.1.61 0 .24.66-.83 1.5-2.2 1.7-3.4 1.9-3.4.64zm37-.6c.32-.83 1.4-1.5 2.3-1.5s2.3-.56 3-1.2c1.1-1 1.2-1 .63.01-.39.69-2 1.9-3.6 2.8-2.6 1.3-2.8 1.3-2.3-.01zm-257-2.5c-.59-1.7-.69-3-.23-3 .92 0 2.4 5 1.7 5.7-.23.24-.91-.94-1.5-2.6zm19-3.3c-.24-1.2-.44-.23-.44 2.2s.2 3.5.44 2.2c.23-1.2.23-3.3 0-4.5zm-53 2.5c-1.7-1.6-1.8-1.6-.61.61.66 1.3 1.5 2.1 1.8 1.7.34-.33-.2-1.4-1.2-2.3zm146-.6c2.4-2.1 3-3.6 1.4-3.6-.88 0-7.1 5.7-7.1 6.6 0 .79 3.5-.99 5.7-2.9zm6.7-2c2.7-4 3.2-5.2 1.6-4.2-.56.34-2 2.5-3.1 4.8-2.4 4.8-2 4.7 1.6-.64zm151 2.8c.95-1 2-1.5 2.3-1.2.34.33-.44 1.2-1.7 1.8-2.2 1.1-2.3 1.1-.61-.61zm-253-4.7c-.24-1.2-.45-.46-.46 1.7s.19 3.2.44 2.3c.25-.95.26-2.8.02-4zm49-2.2c-4.4-7.3-4.9-6.3-.76 1.5 1.8 3.4 3.5 5.7 3.7 5.1.2-.61-1.1-3.6-2.9-6.6zm23 5.8c-.97-.96-.82-7.1.18-7.7.46-.29.8 1.5.75 3.9-.06 2.4-.14 4.5-.18 4.5-.05 0-.39-.3-.75-.67zm54-2.4c1.5-2.8.48-2.4-1.5.68-.94 1.4-1.2 2.3-.62 2 .6-.38 1.6-1.6 2.1-2.6zm-33-.39c2.4-1.7 2.8-2.4 1.4-2.3-1.9.19-7.4 4.7-5.7 4.7.53 0 2.4-1.1 4.3-2.4zm-35-6.3c0-1.2.53-2.2 1.2-2.2s.86-.3.49-.68c-.37-.37.3-1.7 1.5-3 1.2-1.3 1.7-2.3 1.1-2.3s-1.3-.67-1.6-1.5c-.31-.82-.18-1.4.3-1.2.47.13.9-.21.96-.76.05-.55-.33-1-.86-1-.52 0-1.6-.9-2.5-2-1.5-1.9-1.5-1.9-.71.5.69 2 .84 8 .29 11-.25 1.5-3.1-.48-3.7-2.6-.38-1.2-1.7-3.7-3-5.5-1.3-1.8-2.1-3.9-1.8-4.6s-.22-1.8-1.1-2.5c-.85-.71-1.6-1.8-1.6-2.3s.92-.2 2 .82c2.1 1.9 5 2.8 5 1.6 0-1.6-5.9-5.8-6.8-4.9-.62.62-1.4.12-2.2-1.4-.69-1.3-2-2.9-2.8-3.6-1.4-1.1-1.4-1.2.16-.65 1.1.39 1.8.11 1.8-.74s.44-.66 1.1.51c1.3 2.2 7 7.6 8.1 7.6 1.5.06.64-1.6-3.2-6-2.2-2.5-4-4.1-4-3.6s-.85-.19-1.9-1.5c-1.6-1.9-2.1-2.1-3.4-1.1-1.2.98-1.7.99-2.3.06-.46-.75-.32-.94.4-.49.74.45.94.16.55-.84-.32-.85-.97-1.3-1.4-1-.47.29-1.3-.39-1.9-1.5-.59-1.1-1.6-2-2.1-2s.33 2.5 2 5.5c1.8 3.2 2.8 6.1 2.4 7.1-.57 1.5-.73 1.5-1.5.08-.48-.86-1.5-1.3-2.3-1s-1.2 1-.85 1.6c.4.65.87.6 1.3-.13.42-.68 1.6.68 3 3.4 1.3 2.5 2.9 4.5 3.7 4.5 1.5 0 1.6-.2.7-2.5-.51-1.3-.82-1.4-1.5-.33-.72 1.1-.87 1-.74-.17.3-2.8-.08-4.1-1.1-3.5-.57.36-.73-.06-.37-1 .73-1.9.76-1.9 6.2 6.3 4.9 7.4 5.3 8.5 1.2 4-1.6-1.8-3-2.8-3-2.2-.02.57 2.2 3.5 5 6.5 5.1 5.6 6.8 8.8 2.8 5.4-2.2-1.9-2.2-1.9.07 1.4 2.5 3.6 3.4 4.2 2.4 1.5-.57-1.5-.44-1.6 1-.38 1.8 1.4 2.4 6.1.78 6.1-.5 0-2-1.4-3.4-3-1.4-1.6-2.8-3-3-3-1.1 0 .59 5.5 2.5 8.2l2 2.9 2.4-2.8c1.3-1.5 2.4-3.8 2.4-5zm21 6.8c-.31-.5-.14-2 .37-3.2.88-2.2.95-2.1 1 .91.06 3.3-.36 4-1.4 2.3zm68-2.8c-.62-.63-5.6 1.8-5.6 2.7 0 .54 1.3.22 2.9-.71 1.6-.92 2.8-1.8 2.6-2zm-212 1.5c-2-2.5-2.6-4.1-1.4-3.4s3.6 4.6 2.8 4.6c-.23 0-.85-.56-1.4-1.2zm134 .65c-.33-.33-.36-1.2-.06-2 .29-.77.04-1.4-.57-1.4s-1.1.52-1.1 1.2c0 .64-.19.97-.42.74-.24-.23-.06-2 .39-3.9.67-2.8.85-3 .94-.99.1 2 .32 2.2 1.1 1 .72-1.1.97-.54.98 2.2.02 3.8-.16 4.2-1.2 3.2zm-128-3.5c-.88-1.7-1.8-2.9-2.1-2.6-.5.5 2.5 5.7 3.3 5.7.23 0-.31-1.4-1.2-3.1zm.59-6c-2-4.2-3-5.6-3-4.1 0 3 5.3 14 5.8 12 .17-.86-1-4.5-2.7-8zm14 5c-.92-2.1-1.5-2.7-1.6-1.6-.09 2 1.8 6.1 2.6 5.4.26-.26-.19-2-1-3.8zm121 2.8c-.43-.99-.5-2.1-.15-2.4 1-1 1.8.41 1.4 2.4-.41 1.8-.47 1.8-1.2.04zm17-1.5c.92-.8 2.2-1.1 2.9-.69.73.45.96.33.58-.29-.36-.57.02-1.6.83-2.3s1.2-1.6.96-2.1c-.28-.46.4-1.3 1.5-1.9 1.1-.59 2-1.6 2-2.3-.06-.91-.2-.9-.58.04-.28.69-.95 1.2-1.5 1.2-.54 0-.65-.53-.25-1.2.49-.79.17-.96-1-.51-1.1.41-1.5.27-1.1-.4.36-.59-1.6.58-4.4 2.6-6.5 4.6-7 5.6-2.9 4.9 3.3-.53 3.3-.53 1 1.1-1.2.92-2.2 2.3-2.2 3.1 0 1.5 1.2 1.1 4.2-1.4zm-142-3.3c-.95-2.4-1.9-3.8-2.1-3.2-.42 1.2 2.8 8.6 3.4 7.9.23-.23-.36-2.4-1.3-4.7zm7.1 3c-.97-3 .01-3.3 1.3-.42.62 1.4.73 2.5.23 2.5-.51 0-1.2-.93-1.6-2.1zm75-1.7c-1.5-3.4-2.8-9-1.9-8.1.64.65 4.4 12 4 12-.23 0-1.2-1.7-2-3.8zm31 .88c-.57-2.4-.42-3.6.53-4.2 1.8-1.1 1.8-1 .97 3.6l-.71 4-.79-3.4zm80-2.6c4.6-2.3 5.8-3.2 4.5-3.7-1.9-.68-4-.17-6.2 1.6-.82.63-2.8 1.7-4.3 2.4-2.6 1.1-2.8 1-2.2-.81.35-1.1.19-2-.35-2-1.9 0-4.2 1.2-4.2 2.2 0 .58.64.49 1.5-.23.84-.69 1.5-.8 1.5-.24 0 .55-.68 1.6-1.5 2.2s-1.5 1.8-1.5 2.5c0 1.6 3.8.42 13-4zm-127 1.2c-.33-1.8-1-3.7-1.6-4.2-.65-.66-.75-.14-.29 1.5.38 1.4.91 3.3 1.2 4.2.83 3 1.3 1.9.69-1.5zm234 2.2c0-.55 1-1 2.2-1 1.8-.01 2-.2.75-.98-.9-.58-1-.98-.31-.98 2.2-.03 2.4 1.9.4 2.9-2.4 1.3-3.1 1.3-3.1.05zm-269-.93c-.36-.59-.42-1.1-.12-1.1.29 0 .1-1.1-.42-2.5-.54-1.4-.57-2.5-.05-2.5.49 0 1.2 1.4 1.6 3.1.7 3.2.16 4.8-.98 3zm126-5.4c1.6-2.8 3.2-6.3 3.6-7.7.65-2.3.53-2.2-1.2.5-1 1.6-2.7 3.6-3.6 4.4-.91.76-1.7 2.3-1.7 3.4 0 2-.02 2-1.6.13-1.5-1.8-1.5-1.8-.43.37.85 1.8.83 2.7-.08 3.8-.99 1.2-.92 1.3.38.84.88-.33 2.9-2.9 4.5-5.8zm140 4.6c-.34-.33 1.5-1.9 4-3.5 2.5-1.6 4.7-2.7 4.9-2.6.51.64-8.3 6.6-8.9 6zm-317-4.5c-.96-2.5-2-6.3-2.2-8.4-.33-2.7.25-1.7 2 3.7 2.8 8.4 2.9 12 .18 4.8zm54 3.7c-.41-.41-.75-1.7-.75-2.8 0-1.5.3-1.7 1.1-.94.61.61.94 1.9.75 2.8-.19.94-.68 1.4-1.1.94zm111-8.9c0-.88-4.7.96-7.7 3-1.8 1.2-3.8 2.4-4.5 2.6s-.81.91-.41 1.6c.52.83 2.5-.02 6.7-2.8 3.3-2.2 5.9-4.2 5.9-4.4zm-1.6 6.7c.13-.93.88-1.9 1.7-2.1 1.1-.3 1.1-.15-.09.68-1.1.78-1.2 1.1-.19 1.1.72.01 1 .47.69 1-.99 1.6-2.4 1.2-2.1-.7zm119-1.3c1.4-1.1 3.8-2.4 5.4-3 3.4-1.2 3.3-.98-1.8 2.4-4.4 3-7.4 3.4-3.7.57zm-71-.51c.94-1.1.95-1.5.05-1.5-.66 0-1.9.68-2.7 1.5-1.3 1.3-1.3 1.5-.05 1.5.79 0 2-.68 2.7-1.5zm94-2c1.4-.79 4.3-2.4 6.5-3.5 5.2-2.6 9.9-6.3 7-5.5-1.5.45-1.6.37-.5-.35.82-.51 3-1.2 5-1.6l3.4-.65-3.4 3c-1.9 1.6-4.3 3-5.4 3-1.6.01-1.7.22-.69.88 1.6 1 .81 2.7-2.2 4.2-2.2 1.1-2.2 1.1-.29-.99 2.4-2.7 1.9-2.7-5 .35-6.2 2.8-8.3 3.2-4.4.99zm-147-2.6c2.5-1.7 4.9-2.9 5.3-2.6 1 .61 7.7-2.2 7-2.9-.3-.31-2.1.2-3.9 1.1-2 1-2.9 1.2-2.1.37 3-3.2.69-2.8-6.5 1.1-9.4 5-11 6-7 6 1.5 0 4.7-1.4 7.2-3.1zm75-1.1c0-.43-1.6.15-3.5 1.3-1.9 1.1-3.5 2.2-3.5 2.4s1.6-.36 3.5-1.3 3.5-2 3.5-2.4zm5.4 1.7c1.6-1.3 2.7-2.8 2.5-3.5-.53-1.6-6.9 2.5-6.9 4.4 0 2.1.99 1.8 4.4-.91zm43 1.4c.48-1.4 12-9.8 13-9.9 1.2-.07-3.2 3.7-9.4 8.1-2.4 1.7-4.2 2.5-3.9 1.8zm-124-6c3.8-2.2 6.9-4.2 6.9-4.3 0-.88-4.2.23-5.7 1.5-.99.84-3.9 2.7-6.5 4.2s-4.8 3-4.8 3.3c0 .89 2.6-.31 10-4.7zm16 .5.04-2.4-2.8 2.7c-3 2.8-3.1 4.6-.15 2.2 1.5-1.2 1.6-1.2.97.61-.62 1.6-.52 1.8.56.7.72-.71 1.3-2.4 1.4-3.7zm148 3.3c1.2-.6 2.2-1.5 2.2-1.9 0-.47.45-.85 1-.85 1.9 0 .99 1.7-1.6 2.8-3.2 1.5-4.7 1.4-1.7-.06zm-315-.81c0-.57-.64-2.6-1.4-4.4-.79-1.9-1.2-4.2-.95-5.2.26-1-.25-3.4-1.1-5.3-1.6-3.4-1.5-2.4.15 3.9.48 1.8.32 2.2-.63 1.6-.87-.53-1.1-.34-.7.6.33.76 1.2 3.3 1.8 5.6 1.1 3.8 2.8 5.8 2.8 3.2zm131 .03c0-.55-.65-1-1.4-1s-1.7.45-2.1 1 .31 1 1.4 1 2.1-.45 2.1-1zm10-3.6c0-2.3-1.5-.7-2.5 2.6-.69 2.3-.62 2.3.89.82.9-.89 1.6-2.4 1.6-3.4zm64-1.7c0-.54.66-1.5 1.5-2.1s1.7-2.4 2-4c.28-1.6.26-2.6-.04-2.3-.29.3-.55.92-.56 1.4-.02.45-.88 2-1.9 3.5s-1.9 2.9-1.9 3.2c0 .33-.9 1.5-2 2.6s-2 2.6-2 3.2 1.1-.06 2.5-1.7c1.4-1.6 2.5-3.3 2.5-3.9zm-101 3.1c-2-2.8-2.1-4.8-.09-2.2 2.5 3.4 1.6.4-1.6-5.2-3.6-6.2-5.1-6.6-1.9-.41 1.2 2.3 1.9 4.1 1.6 4.1-.28 0-1.6-2.2-3-5-2.8-5.5-3-5.7-3.9-3.4-.33.86-.2 1.3.28 1 .48-.29 1.4.92 2.2 2.7 1.9 4.8 5.8 11 7 11 .57 0 .34-1-.51-2.2zm32 1.3c-.31-.51-.12-1.2.44-1.6 1.3-.81 1.3-2.5.02-2.5-.55 0-1 .66-1 1.5 0 1.2-.52 1.3-2.7.43-3-1.2-2.5-.29.96 1.6 2.9 1.6 3 1.6 2.3.52zm90-1.7c2.1-.92 4.1-1.6 4.6-1.5.46.1.56-.25.24-.78-.33-.52-.07-1.3.58-1.7.73-.45.9-.29.46.44-.4.63-.49 1.2-.21 1.2.29 0 1.3-1.7 2.2-3.8s1.9-4.1 2.1-4.5c1.1-2.1-3 .86-5.2 3.8-2.8 3.7-8.2 6.9-9.1 5.4-.31-.51-.11-.92.44-.92 1.4 0 11-9.1 11-10-.02-.6-.58-.42-1.2.4-3.6 4.4-12 10-10 7 .34-.55.03-1-.69-1-.95-.01-.9-.28.19-.98 1.3-.84 1.3-.97.03-.98-1.1-.02-.92-.41.5-1.4 1.1-.76 2.3-1.4 2.8-1.5 1.4-.18 7.2-6 6.5-6.7-.36-.36-2.1.45-4 1.8-5 3.7-5.9 4.1-5.2 2.2.47-1.2-.89-.86-5.5 1.6-3.4 1.8-6.2 3.7-6.3 4.3-.17 1.3-.5 2.8-.86 3.9-.13.41-.3 1.2-.37 1.8-.06.57-.78 1.4-1.6 1.9-2.6 1.6-.32 2.2 3.9.94 2.2-.68 4.8-2.1 5.8-3.1.92-1 2.1-1.8 2.6-1.8.5 0-.81 1.6-2.9 3.5l-3.8 3.5 4.8-.48c2.6-.26 6.4-1.2 8.5-2.1zm-168-.54c-.01-1.5.46-3.9 1-5.5.84-2.2 1.2-2.5 2-1.3.51.81.88 3 .83 5l-.11 3.5-.76-3c-.52-2-.81-2.4-.9-1-.07 1.1-.57 2.7-1.1 3.5-.76 1.2-.97.92-.98-1.2zm62-.12c0-.72-1-1.8-2.3-2.4-2.3-1.1-2.3-1-.58 1.3 1.9 2.7 2.9 3 2.9 1.1zm27-3.5c-.8-.81-1.2-2.1-.94-2.8.7-1.8-.85-1.8-2.4.13-1 1.2-.95 1.5.38 1.5 2.1 0 2.1 1.8-.13 4.3-1.7 2-1.7 2 1.4.16 2.8-1.6 3-2 1.7-3.3zm27-.6c1.6.63 3-1.2 1.6-2.1-.56-.35-1-.04-1 .68-.01 1-.18 1-.81.06-.57-.91-1.4-.49-2.8 1.5-3.2 4.4-3.8 6-.94 2.6 1.5-1.8 3.2-3 4-2.7zm4.6 4.1c-.01-.42 1.6-3.8 3.6-7.5 2-3.7 3.2-5.6 2.9-4.2-.74 2.7-6.4 13-6.4 12zm129-1.6c-.29-.46 1.8-2.6 4.7-4.8 2.9-2.2 5.8-4.6 6.4-5.4 1.1-1.3 1.2-1.3 1.2 0 .01.82-2.5 3.2-5.5 5.3-3 2.1-5.2 4.2-4.9 4.8.32.51.13.93-.42.93s-1.2-.37-1.5-.83zm-214-2.2c.49.8 1.2 1.2 1.5.86.7-.7-2.5-7.8-3.6-7.8-1.4 0-2.8 2.6-2.5 4.5.2 1.1.42 2.6.48 3.5.08 1.2.46 1 1.6-.5 1.3-1.7 1.6-1.8 2.4-.52zm36 .09c-.36-.59-1.1-1.1-1.7-1.1-.66 0-.59.57.2 1.5 1.4 1.7 2.6 1.3 1.5-.45zm84 .07c2-.94 4.3-2.3 5.1-3 1.2-1 1.6-.96 2 .19.39 1-.87 1.9-4.3 3-6.2 2-7.5 1.9-2.9-.27zm-223-.36c0-.31-1.2-5-2.6-10-1.4-5.4-2.4-11-2.2-12 .3-1.7.5-1.5 1.1.94.39 1.6 1.7 7 2.8 12 1.2 4.8 1.8 9.1 1.5 9.4-.35.36-.64.39-.64.09zm23-3.5c-.25-.97-.47-.42-.5 1.2-.02 1.6.19 2.4.47 1.8.27-.68.29-2 .03-3zm144 1.2c.5.31 1.1.2 1.4-.25.28-.44-.36-.87-1.4-.95s-2.2.28-2.5.79c-.32.52-1.3.94-2.2.94-2.4 0 3.2-4 6.4-4.6 1.5-.27 3.5-1.2 4.5-2.1 1.1-.96 1.8-1.1 1.8-.44 0 1.3 3.5 1 4.7-.31.43-.47.17-.5-.58-.07-1 .59-1.2.3-.74-1.2.89-2.8-3.5-6.7-6.4-5.8-2.3.72-15 12-14 12 .45 0 2.8-1.4 5.2-3.2 2.4-1.7 4.7-2.9 5.1-2.5.37.36 2.2-.49 4-1.9 2.2-1.7 3.3-2.1 3.3-1.2 0 1.8-5.5 4.9-7.4 4.2-.87-.34-1.6-.12-1.6.49s-.56 1.1-1.2 1.2-2.8 1.4-4.8 3.1c-1.9 1.7-2.7 2.8-1.8 2.5.96-.34 1.8-.12 1.8.48 0 .62 1.1.38 2.5-.58 1.4-.91 2.9-1.4 3.4-1.1zm84-.71c0-.56-.66-.45-1.5.24-.82.68-1.5 1.7-1.5 2.2 0 .56.66.45 1.5-.24.82-.68 1.5-1.7 1.5-2.2zm-30 1.9c0-.28 2.2-1.9 5-3.6 5.5-3.4 6.9-2.9 1.7.6-3.5 2.4-6.7 3.8-6.7 3zm-46-4.2c0-.79-.45-1.4-1-1.4s-1 .93-1 2.1.45 1.8 1 1.4 1-1.3 1-2.1zm64-.61c1.3-1.7 3.3-4 4.3-5s1.7-2 1.5-2.2c-.24-.23-2.9 2-5.9 5-3.4 3.3-4.9 5.4-3.9 5.4.88.01 2.7-1.4 4-3.2zm-85-.69c1.4-1.2 2-1.3 2.6-.3.6.97 1.1.91 2.1-.29.94-1.1.97-1.6.1-1.6-.65 0-.9-.45-.56-1s.22-1-.27-1c-.5 0-.9-.66-.9-1.5s.35-1.2.77-.98.99.11 1.3-.34c.28-.44-.37-.87-1.4-.95s-1.9.45-1.9 1.2c0 .72-1.2 2.1-2.6 3s-2.4 2.3-2.1 3c.28.72-.02 1.9-.67 2.6-.92 1-.84 1.1.33.47.82-.43 2.3-1.5 3.3-2.4zm-21 .44c-.01-1.2-10-13-11-13-.4 0 1.5 2.9 4.3 6.4 2.8 3.5 4.8 6.6 4.6 6.8s.21.48 1 .48 1.5-.49 1.5-1.1zm51-.97c0-.7-.68-1.3-1.5-1.3-1.7 0-1.7-.02-.9 2.1.68 1.8 2.4 1.2 2.4-.8zm-38-2.7 3.4-3.1-3.5 1.8c-1.9 1-4.2 1.7-5.2 1.6-.92-.13-2 .27-2.4.91-.5.81-.04.94 1.5.44 1.5-.49 2-.36 1.6.39-1.3 2.2 1.1 1.1 4.5-2zm5.9 2.5c0-.83 3.2-3.3 4.3-3.4.44-.02.53.42.19.96-.8 1.3-4.5 3.3-4.5 2.4zm76-2.7c5.2-3.2 11-8.1 11-9.2 0-.52-.54-.41-1.2.25-2.1 2.1-3.2 1.3-1.2-.99 1.9-2.2 1.9-2.2-1.4.07-3.6 2.5-4.1 3.4-1.5 2.4.96-.33.2.59-1.7 2-4.1 3.1-5.7 3.5-2.1.52l2.5-2.1-4.9 1.1 2.5-2.2c1.4-1.2 1.9-1.8 1.2-1.4-.71.48-2 .6-2.8.29-.82-.32-1.4-.26-1.4.14.47 2.3-3.6 9.8-5.1 9.4-.67-.16-.94.18-.6.75.97 1.6 2.7 1.2 6.6-1.2zm-90-1.5c.32.92 1.2.59 3.1-1.1 1.4-1.3 2.6-2.9 2.6-3.4s-1-.02-2.3 1.2c-2.4 2.2-4.3 2.9-3.2 1.2.87-1.4-.85-1.2-2.3.2-1.7 1.7-1.5 3.3.2 1.9 1.1-.89 1.5-.86 1.9.13zm24-.71c.69-.84.8-1.5.24-1.5-.55 0-1.6.68-2.2 1.5-.69.84-.8 1.5-.24 1.5.55 0 1.6-.68 2.2-1.5zm6 .53c0-1.1 5.9-4.4 6.6-3.7.47.47-5 4.7-6 4.7-.33 0-.6-.44-.6-.97zm71-2.4c1.7-1.6 2.5-1.8 3.1-.83.57.93 1.2.73 2.6-.78 1-1.1 1.5-2.3 1.2-2.7-.36-.37-.66-.19-.66.4 0 .58-.69 1.3-1.5 1.6-1.2.48-1.3.22-.47-1.4.58-1.1.75-2 .38-2-1.2 0-9.4 7.1-9.4 8.1 0 1.2 1.7.31 4.8-2.5zm75 1.9c.41-.53.74-1.7.73-2.5-.02-1.1-.6-.8-1.9.94-1 1.4-2.2 2.2-2.6 1.8-.36-.37.85-2.2 2.7-4 1.8-1.9 3-2.9 2.6-2.4-1.1 1.4-.92 2.8.25 2.1 1.6-1 1.1 1.1-.75 3.2-.96 1-1.4 1.4-1 .91zm-165-4.5c1.5-2.1 1.8-3.1.91-3.6-.69-.43-.9-.3-.52.32.35.57-1 2.7-3.1 4.8-2.4 2.3-2.9 3.3-1.6 2.6 1.2-.61 3.1-2.4 4.3-4zm40 3.9c1.3-.84 1.3-.97-.19-.98-.93-.01-2 .43-2.3.98-.78 1.3.54 1.3 2.5 0zm-126-4.1 2.3-3.1-2-1.9c-2-1.9-2-1.9-1.5 1.6.43 2.6.17 3.6-1.1 4.1-.9.34-1.6 1-1.6 1.5 0 1.8 1.7.83 3.9-2.2zm31-.41c0-1.9-.45-3.5-1-3.5s-1 1.6-1 3.5.45 3.5 1 3.5 1-1.6 1-3.5zm14 1.4c-.61-1.1-1.4-1.8-1.7-1.5s0 1.2.7 2.1c1.8 2.2 2.3 1.9.97-.57zm87 1.6c0-1 4-7.5 4.7-7.5.28 0-.51 1.7-1.8 3.8-2.8 4.6-2.9 4.8-2.9 3.8zm-58-3.7c0-1.5-1.6-.91-3.6 1.2-1.9 2.1-1.9 2.1.85.84 1.5-.68 2.7-1.6 2.7-2.1zm56-1.6c-.42-.42-1.4.12-2.2 1.2-2.2 2.9-1.7 3.9.76 1.6 1.2-1.1 1.8-2.4 1.4-2.8zm-20 .99c-.71-.71-4.6.81-4.6 1.8 0 .5 1.1.39 2.5-.23 1.4-.63 2.3-1.3 2.1-1.6zm12 .17c-.95-.96-2.9.59-2.2 1.7.42.68.98.66 1.7-.06.58-.58.79-1.3.45-1.7zm-24 .36c.88 1.4 6.3.17 6.9-1.6.3-.91-.3-.95-2.4-.19-2.6.94-2.7.91-.9-.49 1.9-1.5 1.9-1.5 0-1.5-1.1.01-3.1 1-4.5 2.2-1.4 1.2-1.9 1.8-1.2 1.3.89-.61 1.6-.53 2.1.22zm118-1.2c0-2.5 2.9-10 3-7.8.02.72-.44 2.2-1 3.3-.59 1.1-.88 2.8-.64 3.7.3 1.2.77.78 1.7-1.6.68-1.8 1.6-3 2.1-2.7.49.31.9-.4.9-1.6s-.44-1.8-.99-1.5c-.56.35-.73-.05-.39-.93.32-.85.93-1.3 1.4-1.1.41.26 1.3-3 2-7.3 1.7-11 2.1-12 1.6-4.5-.54 7.5-3.6 21-4.3 19-.3-.87-.98-.22-1.8 1.8-1.6 3.7-3.4 4.1-3.4.75zm40-.61c.97-1.6 2.2-3 2.6-3s-.11 1.4-1.3 3-2.4 3-2.6 3c-.27 0 .3-1.4 1.3-3zm-128-2.3c.58-.97.42-.98-.73-.05-1.4 1.1-4.2.38-4-1 .25-1.8-.04-2.3-1.4-2.3-.82 0-1.3.23-1 .5.28.27-.4 1.1-1.5 1.9-1.1.77-2 1.9-2 2.5 0 .62 1 .14 2.3-1.1 2.4-2.2 3.8-2.8 3.6-1.4-.06.41-.06 1.6 0 2.5.1 1.4.48 1.6 2.1.74 1.1-.57 2.3-1.6 2.7-2.3zm-100-1.1c-.21-1.9.09-3.7.67-4 .97-.6.86-2.8-.45-9.3-.67-3.3-2.4-2.8-2.4.75 0 1.6.45 3 1 3s1 .44 1 .97-.67.71-1.5.39c-1.2-.46-1.5.3-1.4 3.8.08 3.7.23 4 .9 1.9.68-2.1.82-1.9.9 1.8.06 2.3.46 4.2.9 4.2s.62-1.5.4-3.4zm58-9c3.5-2.6 2.7-3.5-.96-1.1-6 3.9-16 12-16 13 0 .7 6.8-3.9 17-12zm-9.8 11c1-.79 2.3-1.2 2.8-.89.48.29.82.17.74-.29-.35-2 .2-2.7 1.1-1.3.82 1.3.97 1.2.98-.31.01-1.1.47-1.5 1.2-1.1.69.42.89.27.49-.38-.37-.59-.15-1.4.5-1.8.67-.41.9-.29.54.29-.37.61.69.97 2.7.91 5.1-.17 14-5.6 9.3-5.6-.76 0-1.9.68-2.6 1.5-1.4 1.7-3.5 2.1-2.5.5.87-1.4-.83-1.2-2.5.25-1.2 1.1-1.2.99-.1-.47.71-.95 2.3-1.6 3.4-1.5 1.2.13 2-.29 1.9-.99-.14-.75.4-.98 1.4-.59 1.1.41 1.5.17 1.2-.73-.24-.74-.91-1.5-1.5-1.7-1.1-.38-14 7.9-19 13-3.5 3-3.2 4.3.4 1.6zm95-2.4c-.23-.25-1.4.6-2.6 1.9l-2.2 2.3 2.6-1.9c1.5-1 2.5-2.1 2.2-2.3zm-55 .38c.86-.86 2.1-1.2 2.7-.85.67.42.89.28.52-.32-.95-1.5 1.8-3.4 4-2.7 1.1.35.86-.04-.62-.95-1.4-.84-1.9-1.6-1.1-1.6.78-.02 1.1-.32.8-.65-.34-.34-1.8.33-3.3 1.5-1.5 1.2-3.4 2.1-4.2 2.1-.84 0-1.2.59-.95 1.4.3.76.03 1.9-.59 2.5-.83.83-.83 1.1.01 1.1.62 0 1.8-.7 2.7-1.6zm68-1.1c1.5-4-.41-5.3-3.5-2.4-2.8 2.7-2.7 3.7.3 2.1 1.7-.92 1.9-.79 1.5.92-.77 2.9.6 2.4 1.8-.68zm7.9-.58c0-.56-.66-.45-1.5.24-.82.68-1.5 1.7-1.5 2.2 0 .56.66.45 1.5-.24.82-.68 1.5-1.7 1.5-2.2zm-20-1.3c0-.28-1.4.2-3 1s-3 1.8-3 2c0 .28 1.4-.2 3-1s3-1.8 3-2zm-93-4 2.9-2.4-2.8 1c-4.2 1.5-6.7 3-6.7 3.9 0 1.4 3.4.11 6.6-2.5zm39 .86c2.2-1.5 4.2-2.8 4.4-2.9s.06-.69-.3-1.3c-.46-.74-1-.74-1.8-.02-.66.58-2.8 1.8-4.6 2.7-3.5 1.7-5.2 4.2-3 4.2.71 0 3.1-1.2 5.3-2.7zm16-.24c-.37-.6-1.1-.79-1.7-.44-.67.41-.57.93.29 1.5 1.6.99 2.3.47 1.4-1zm40 .53c.97-1.2.82-1.3-.86-.89-1.1.3-1.8.94-1.5 1.4.73 1.2.98 1.1 2.4-.53zm-153-3.8c-.74-2.8-1.2-3.5-1.5-2.2-.38 1.9-.42 1.8-1.2-.08-.71-1.8-.81-1.8-.87-.19-.04.99-.5 1.5-1 1.2-.52-.33-.67-1.3-.33-2.2.42-1.1.24-1.4-.54-.91-1.8 1.1-1.5 5.7.28 5 .79-.3 2.4.38 3.7 1.5 1.2 1.2 2.3 2.1 2.4 2.1.09 0-.33-1.9-.94-4.2zm12-1.6c.06-.69-.26-1.2-.7-1.2-.43 0-.85 1.7-.92 3.8-.11 3.2-.02 3.4.7 1.2.45-1.4.87-3.1.92-3.8zm85-.43c.98-1 1.6-1.8 1.3-1.8-1.3 0-5.6 2.4-5.6 3.2 0 .46-1 .83-2.2.81-2.2-.03-2.2-.07-.31-1.5 1.9-1.4 1.8-1.5-.75-1.5-2.7 0-3.6 1.3-1.7 2.5 1.1.71.37 2.5-1.1 2.5-.52 0-.94-.67-.94-1.5 0-2.4-4.9-3.1-6.8-1-1.6 1.7-1.6 1.7.08 1.2.96-.33 1.8-.12 1.8.47s.71.8 1.6.47c.87-.34 2.5.03 3.6.8 1.8 1.2 2.4 1.2 5.7-.68 2-1.2 4.5-2.9 5.4-3.9zm-186 2.2c0-1.9.21-2.7.46-1.8s.25 2.5 0 3.5-.46.18-.46-1.8zm81 .33c0-3-.85-2.7-1.5.53-.23 1.2.01 2.1.53 2.1s.94-1.2.94-2.7zm215 1.9c-.27-.43-.23-2.8.1-5.2.46-3.4.76-4 1.4-2.5 1.2 3 1.1 5.7-.2 4.9-.74-.46-.88.01-.43 1.4.66 2.1.14 2.9-.83 1.3zm-86-1.3c0-.58-.42-.8-.93-.48-.51.31.44-2.2 2.1-5.5 1.7-3.3 3.2-5.9 3.5-5.6.26.25-.63 2.6-2 5.3-1.3 2.7-2.2 5.4-2 6.1.25.69.18 1.2-.14 1.2s-.58-.48-.58-1.1zm80 .19c-.43-.69-.51-1.5-.18-1.9.89-.9 1.9.42 1.4 1.9-.34 1-.58 1-1.2-.01zm-42-1.8c0-1.3-.27-1.4-1.5-.38-.82.68-1.5 1.4-1.5 1.6s.68.38 1.5.38 1.5-.73 1.5-1.6zm-4.7-2.6c2-1 2-.99.77.54-.77.93-1.2 1.9-.91 2.2.63.63 2.9-2.1 5.8-7 2-3.3 2.1-3.8.61-3.3-1.6.63-1.6.5-.08-2.1 2.7-4.6 5.4-7.8 5.4-6.4.01.72.47 1 1 .69s1-1.1 1-1.6-.45-.72-1-.38c-1.6 1-1.1-1 .86-3.6 1-1.3 2.2-3.4 2.5-4.6.83-2.6-1.2-4.2-2.1-1.6-.36.99-1.8 3.8-3.2 6.2-2 3.5-2.7 4-3.4 2.8-1-1.9 5.7-16 7.5-15 .62.12 1.2-.68 1.4-1.8.13-1.1.42-3.2.65-4.8.22-1.5-.01-2.8-.52-2.8s-.79.8-.62 1.8c.16.98-1.1 4-2.8 6.8-4.2 6.7-13 24-13 26 0 .63 1.4-1.3 3.1-4.2 2.1-3.6 3.4-5 4.1-4.4s.34 2-1.1 4.1c-1.2 1.7-3 4.4-4.1 6.1s-2 3.4-2 4-.68 1-1.5 1c-.99 0-1.5.94-1.4 2.8.04 1.5.31 2.2.59 1.5.28-.7 1.5-1.8 2.7-2.4zm-104 1.5c.37-.36.22-1.2-.32-1.8-.7-.84-.22-1.5 1.6-2.4 1.4-.66 2.4-1.4 2-1.8-.98-.99-5 2.5-5.4 4.6-.3 2 .7 2.7 2 1.4zm4.7-1.8c0-.82-.45-1.5-1-1.5s-1 .68-1 1.5.45 1.5 1 1.5 1-.68 1-1.5zm-142-2.5c-.35-1.1-.33-4.5.04-7.5.48-3.8.34-5.5-.42-5.5-1.3 0-1.4-12-.23-21 .41-2.9.35-5.9-.13-6.8-.59-1-.41-1.7.57-2.1.9-.35 1.2-1.4.9-2.6-.37-1.4-.18-1.9.61-1.4.64.4 1.2.24 1.2-.34s-.44-1.1-.98-1.1c-.62 0-.6-.96.05-2.7.55-1.5.75-3.4.44-4.2-.32-.83-.07-1.8.56-2.2.62-.39 1.1-2.3 1.1-4.3 0-2 .37-3.9.83-4.2s.67-2.3.47-4.5c-.21-2.3.16-4.5.9-5.2.69-.7 1.1-1.8.89-2.4-.2-.6 1.6-5.2 4-10 2.4-5 4.9-10 5.5-12 2.4-6 7.9-15 14-22 3.6-4.3 9-11 12-14 3-3.7 5.9-6.8 6.5-6.7.6 0 2.4-1.5 3.9-3.2 1.6-1.8 2.5-2.6 2.1-1.8s-4.3 5.7-8.6 11c-4.3 5.1-8.4 10-9 12-.6 1.3-1.5 2.4-2 2.4s-2.5 2.6-4.5 5.8-5 7.4-6.7 9.4c-1.7 2-4.2 5.8-5.6 8.5s-3 5.5-3.6 6.3c-1.7 2.4-4.6 10-3.4 9.5 1.5-.95 1.2.81-1 6.1-3.1 7.2-5.9 18-4.7 19 1 .33.83 1.4-2.8 18-1.6 7-2 27-.9 37 .47 4.2.36 6.2-.35 6.2-.59 0-1.4-.9-1.7-2zm80-.8c-.01-1.5-.14-1.5-.98-.19-.77 1.2-.97 1-.98-.92-.01-1.3-.3-2.1-.64-1.8s-.33 1.8.03 3.2c.69 2.8 2.6 2.5 2.6-.3zm118 1.5c.82.31 1.4-.13 1.4-1.1 0-.89-.25-1.6-.57-1.6-1.4 0-4.4 2.2-4.4 3.2 0 .86.29.87 1.1.04.62-.62 1.7-.89 2.5-.59zm8.4-.25c0-.86-.45-1.3-1-.94s-1 1-1 1.6.45.94 1 .94 1-.7 1-1.6zm93-2.7c.75-5.8 1.3-6 1.3-.42 0 2.6-.41 4.7-.9 4.7-.5 0-.67-1.9-.37-4.2zm-190-.45c-.41-.41-1.2-.08-1.7.73-1.5 2.4-1.1 3.5.73 1.7.93-.93 1.4-2 .95-2.4zm-51-3.4c-.86-2.7-1.4-3.6-1.5-2.2-.11 2.5 1.7 7.8 2.4 7.1.25-.26-.17-2.5-.93-4.9zm100 3.4c.55-.64 1.9-1.3 3-1.5 2.5-.44 3.4-5.3 1-6.2-.85-.33-1.6-.13-1.6.43 0 .57-.45.75-1 .41s-1-.19-1 .32c0 .52-.9 1.2-2 1.5-3 .79-2.4 2.5.75 2l2.8-.41-2.8 1.6c-1.5.87-2.8 2-2.8 2.6 0 1.2 2.2.81 3.5-.7zm39 .05c2-.7 2.4-2.4.5-2.4-1.5.04-4.8 2.4-4.8 3.4 0 .4.56.46 1.2.14s2-.86 3-1.2zm61-.63c1.1-2 1-2.1-.47-.88-.91.76-1.7 1.8-1.7 2.2 0 1.5.89.96 2.1-1.4zm-251-.25c-1.5-1.7-1.6-2.9-.25-2 .55.34 1-.29 1-1.4 0-1.4-.47-1.8-1.5-1.4-.82.31-1.5.05-1.5-.59s.45-.89 1-.55c.64.39.94-2.2.84-7.2-.09-4.3-.34-6.4-.56-4.6-.23 1.8-.86 3.2-1.4 3.2-.62 0-.74-1.7-.33-4.5.38-2.5.74-7.4.81-11 .08-3.6.45-6.5.83-6.5s.42-1.6.09-3.7c-.45-2.8-.29-3.5.67-2.9.96.59 1.1.04.59-2.3-.38-1.7-.21-3.9.36-4.9.57-.99 1-1.4 1.1-.85.04 1.3 4.8-5.3 5.6-7.6.31-1 .98-1.8 1.5-1.8s-.18 2.1-1.5 4.8c-4.3 8.7-6.1 20-6.1 40v18c0-.02-.56-.67-1.2-1.5zm60-3.2c-.25-.96-.46-.18-.46 1.8s.21 2.7.46 1.8.25-2.5 0-3.5zm38 1.5c-.01-2.5-.24-2.9-.98-1.8-1.3 2-1.3 5 0 5 .55 0 .99-1.5.98-3.2zm-108-1.2c.01-2.2.22-3 .46-1.7.24 1.2.23 3-.02 4-.25.96-.45-.06-.44-2.3zm195 2c1.1-.8 1.7-1.7 1.3-2-.59-.6-6.8 2.2-6.8 3.1 0 1 3.6.33 5.4-1zm-6.2-3.2c.66-.84.34-1-1.1-.63-2.1.53-2.7 2.3-1.3 3.7.4.4.91.13 1.1-.59.23-.72.82-1.8 1.3-2.5zm-58 .94c-.38-1-.83-1-1.9-.17-1.8 1.5-1.7 1.8.51 1.6 1.1-.08 1.7-.67 1.4-1.5zm-19-9.8c-.06-4.4-.31-7.2-.56-6.2s-.87 1.8-1.4 1.8c-1.1 0-1.2 7.2-.29 12 1.1 5.4 2.3 1.3 2.2-7.5zm24 6c-.31-.31-1.4.69-2.3 2.2l-1.8 2.8 2.3-2.2c1.3-1.2 2.1-2.5 1.8-2.8zm33 2c-.79-2.1-1.4-1.8-1.4.59 0 1.1.43 1.8.96 1.5.52-.33.7-1.2.39-2.1zm7.4-.47c.24-2 .09-2.2-.82-1-.84 1.1-1.2 1.2-1.6.26-.38-.95-.83-.91-1.9.18-2.2 2.2-1.7 3.3 1.3 3.2 2.2-.08 2.8-.64 3-2.6zm80-2.5c0-.55-.88.12-2 1.5s-2 3-2 3.5.88-.12 2-1.5 2-3 2-3.5zm-173-1.3c-.3-1.5-.55-1.4-1.6.55-.69 1.2-.94 2.8-.57 3.4.92 1.5 2.7-1.6 2.2-3.9zm98 3.8c1.2-.74 1-.91-.75-.77-1.2.09-2.2.52-2.2.95 0 1 1.2.97 3-.18zm107-3.8c-.25-.96-.46-.18-.46 1.8s.21 2.7.46 1.8.25-2.5 0-3.5zm-185 2.2c0-.86-.41-1.3-.91-.99-.51.31-1.1 0-1.4-.69-.24-.69-.78-.95-1.2-.58-.77.71 1.4 3.7 2.7 3.8.41.02.75-.66.75-1.5zm5-2.5c0-3.4-1-3.8-2.7-.98-1 1.7-.99 1.9.37 1.4 1.3-.49 1.5-.17.88 1.7-.5 1.6-.37 2.1.38 1.6.61-.38 1.1-2 1.1-3.6zm43 3.4c2-.75 2.1-2.4.19-2.4-.77 0-1.7.68-2 1.5-.65 1.7-.48 1.8 1.8.89zm43-1.9c.68-.82 1.6-1.2 2.1-.94.49.3.89.32.89.05 0-1.5-2-1.3-4 .4-1.3 1.1-1.8 2-1.3 2 .57 0 1.6-.67 2.3-1.5zm-79-6.6c-.2-8.8-1.1-8.7-1.1.14 0 4 .28 7 .63 6.7s.57-3.4.49-6.8zm44 5.1c-.59-1.1-1.3-2-1.5-2-.25 0-.46.9-.46 2 0 1.1.67 2 1.5 2 1.2 0 1.3-.4.46-2zm28 .96c-1.3-.85-1.2-1.3.89-3 1.3-1.1 2.1-2.3 1.7-2.7-.93-.94-4.2 1.3-3.8 2.6.14.6-.19 1.1-.72 1.1s-.71.68-.39 1.5c.31.82 1.3 1.5 2.2 1.5 1.4-.01 1.4-.14.14-1zm17-1.5c-.52 1.4.27 1 2.8-1.4 2-1.9 3.4-3.6 3.2-3.8-.61-.61-3.6.9-3.6 1.8 0 .49-.93.89-2.1.89s-1.8-.45-1.4-1 .11-1-.5-1-.82-.48-.46-1.1c.41-.67 1.1-.43 1.9.67 1.1 1.6 1.6 1.1 4.9-4 2-3.1 4.1-5.5 4.6-5.2.49.31 2.1-.86 3.5-2.6 2-2.4 2.4-3.3 1.3-4-.87-.54-1.4-.24-1.7.91-.19.94-.82 2.2-1.4 2.7-.73.69-.84.38-.35-1 .87-2.5.08-1.6-4.8 5.2-2.1 2.9-4.2 5.2-4.7 5.2-.54 0-.7-.45-.36-1 1.1-1.8-1.2-1-3 1-1 1.1-2.3 2-2.8 2s.51-1.6 2.4-3.6c4.7-5 2.4-3.9-4.4 2-3.1 2.7-6.4 5.5-7.4 6.2-1.6 1.2-1.6 1.4-.12 1.4.92.02 2.3-.53 3-1.2s2.4-2.2 3.7-3.2c2.1-1.8 2.3-1.8 1.8-.25-.71 2 .33 2.3 2 .68.75-.75 1.2-.61 1.7.5.37.99.05 1.6-.87 1.6-.84 0-1.5.93-1.5 2.2 0 2.2.01 2.2 2.7-.25 2.4-2.2 2.6-2.2 1.9-.42zm-42-2.1c-.29-1.4-.54-1.1-.97.97-.37 1.8-.23 2.5.4 1.8.53-.53.79-1.8.57-2.8zm128-1.1c-.25-.96-.46-.18-.46 1.8s.21 2.7.46 1.8.25-2.5 0-3.5zm-142-2.1c.51-1.3.67-2.6.38-2.9-.98-.97-5 4.2-5.1 6.5-.04 2.1.04 2.2 1.9.52 1-.95 2.3-2.8 2.8-4.1zm33 4.8c-.29-.49-1.4-.88-2.5-.88s-1.9.39-1.9.88c0 .48 1.1.87 2.5.87 1.4 0 2.2-.39 1.9-.87zm28-.88c.68-1.1 1.1-2 .89-2-.19 0-1.2.9-2.2 2s-1.4 2-.9 2c.51 0 1.5-.9 2.2-2zm7.1-5.2c.5-.19 1.2-1.9 1.6-3.8.67-3.3.62-3.4-.79-1.5-.83 1.1-1.3 2.3-1 2.8.26.43-.9 2.4-2.6 4.3-1.7 1.9-3.1 4-3.1 4.7s1.1-.44 2.5-2.4c1.4-2 2.9-3.8 3.4-4zm-52 3.9c.08-1.7.23-1.8.57-.5.84 3.2 1.8 1.8 2-3 .12-3.2-.11-4.2-.73-3.2-.76 1.2-.92 1.2-.93-.3-.01-.96-.7-1.8-1.5-1.8-1.8 0-1.9-1.1-.11-9.7 1.9-9.5 2.8-17 1.7-15-1.1 2.4-1.2.15-.13-3.5.68-2.4.75-2.3 1.4 1.1.62 3.2-1.3 18-2.9 22-.41 1.1-.1 1.6.91 1.6 2.5 0 5.6-12 3.9-16-.62-1.1-.52-3 .27-5.3.67-2 1.5-6.4 1.8-9.6l.61-6-1.5 4c-.8 2.2-1.5 4.1-1.5 4.2-.01.14-.47.25-1 .25s-1-1-1-2.2c-.03-1.8-.2-2-.94-.69-1.3 2.3-5.1 17-5.6 22-.24 2.3-.95 6.4-1.6 9-.64 2.6-.87 5-.5 5.4 1.1 1.1 1.7-.12 2.2-4.3 1-9.2 2.2-9.9 2.1-1.4-.01 5.2-.28 7.3-.69 5.5-.65-2.9-.68-2.9-.79-.37-.07 1.4.59 3.2 1.4 3.9.86.71 1.4 2.1 1.1 3.1s-.06 1.8.43 1.8c.5 0 .96-1 1-2.2zm6.7-4.5c-.14-5.5-.17-5.6-.86-1.8-.45 2.5-.77 3.1-.86 1.6-.08-1.3-.39-2.2-.7-1.8-.85.85.64 7.8 1.7 7.8.49 0 .83-2.6.75-5.8zm89 2.2c-.33-.34-1.2.44-1.8 1.7-1.1 2.2-1.1 2.3.61.61 1-.95 1.5-2 1.2-2.3zm-153 1.2c1 1 .73-9-.34-11-.66-1-.82-.07-.5 3.2.32 3.3.03 5-1 5.9-.82.67-1.5 1.7-1.5 2.2 0 .62.52.57 1.3-.11.74-.61 1.6-.82 2-.45zm67-4.9c-.24-1.2-.44-.23-.44 2.2s.2 3.5.44 2.2c.23-1.2.23-3.3 0-4.5zm5.4 4.8c.5.31.95-.25 1-1.2.07-1.3.29-1.1.77.57.6 2.1.8 2.2 2 .78 1.2-1.4.99-1.8-1.2-2.8-1.4-.63-2.8-1.9-3.1-2.8-.3-.9-1.1-2.4-1.7-3.2-1.3-1.8-.56-6.1 1.5-8.2 1.2-1.2 1.2-1.9.07-4.5-1.7-3.9-5.2-4.1-6.1-.27-.95 4.4-1.4 4.7-1.1.78.16-2.1-.01-3.8-.39-3.8-.89 0-2 5.4-1.8 9.4.1 3 .13 3 .9.62l.8-2.5.22 2.5c.15 1.8.34 2 .67.75.81-3.1 2.5-1.9 1.8 1.2-.41 1.9-.26 3 .42 3 .63 0 1.1 2.1 1.1 4.9 0 3 .48 5.1 1.2 5.4.69.23 1.4.04 1.6-.43.18-.47.74-.6 1.2-.29zm18-7.9c0-.55-1.6.52-3.5 2.4s-3.5 3.8-3.5 4.4 1.6-.52 3.5-2.4 3.5-3.8 3.5-4.4zm-133 4.5c-.28-1.1-.15-3.4.28-5.2.72-3 .79-2.9.89 1.9.1 5.5-.31 6.6-1.2 3.3zm186-6c.1-4.8-.56-3.5-1.3 2.4-.41 3.4-.31 4.4.3 3 .5-1.1.94-3.5.98-5.4zm40-.33c-.24-1.2-.44-.23-.44 2.2s.2 3.5.44 2.2c.23-1.2.23-3.3 0-4.5zm-100 3.7c1.1-1.4.82-1.5-2.4-1.3-2.2.15-3.7.76-3.7 1.5 0 1.8 4.5 1.6 6-.24zm-80-4.3c-.81-.98-.79-1.5.07-2 .84-.53.9-2 .21-5.2l-.95-4.4.37 4.2c.21 2.3-.03 4.2-.53 4.2-.49 0-.9 1.9-.9 4.2 0 3.9.11 4 1.4 2.2 1-1.4 1.1-2.3.31-3.3zm38 1.6c-.25-.69-.97-1.1-1.6-1-.61.14-1.1-.62-1.1-1.7s-.45-2.2-1-2.6c-.58-.36-1 .68-1 2.5 0 1.7.42 2.9.93 2.5.51-.31 1.2-.12 1.6.44.9 1.5 2.8 1.3 2.2-.23zm37-9.5c.03-4.3.71-6.3 3.7-11 2.4-3.7 3.2-5.9 2.5-6.1-.88-.3-.91-.76-.1-1.7.6-.73.94-3.5.76-6.2-.32-4.5-.42-4.6-1.4-2.3l-1.1 2.5-.72-2.8c-.4-1.5-.48-3.7-.19-4.8.44-1.7.28-1.8-.89-.86-1.7 1.4-1.9-.18-.22-1.9.66-.66.77-1.2.25-1.2-.52.01-2 1.6-3.2 3.5s-2.9 3.5-3.7 3.5c-1.3 0-4.8 9.3-5.7 16-.18 1.1-.98 2-1.8 2s-1.6.79-1.8 1.8c-.27 1.4.38 1.8 3.3 1.8 4.5 0 7 2.3 6.6 6.2-.2 1.8.17 2.9 1 2.9 1.1.01 1.1.18.06.81-.69.45-1.5 2.8-1.7 5.2l-.44 4.4 2.4-3c1.9-2.3 2.4-4.2 2.4-8.2zm-44 8.4c.36.36.66-.55.66-2 0-1.7-.54-2.7-1.5-2.7-.82 0-1.5.34-1.5.75-.01.41-.31 1.9-.68 3.2-.56 2.2-.44 2.3.86 1.3.83-.68 1.8-.95 2.2-.58zm47-4.9c.57-2.9.94-6.5.82-8-.31-4-2-1.6-2.4 3.4-.18 2.4-.53 5.5-.8 7-.88 5.1 1.3 2.8 2.4-2.5zm11 1.8c1.9-1.9 3.5-4.5 3.6-5.8.06-1.3.45-3.6.86-5.1.47-1.7.37-2.8-.28-2.8-.58 0-1.3 1-1.7 2.2-1.9 6.9-5.4 12-5.6 8.5-.04-.69-.39-4.7-.78-9-.54-6-.41-7.8.57-7.8.87 0 1.3-1.6 1.3-5 0-2.8-.45-5-.99-5-.55 0-.93 1.8-.84 4 .08 2.2-.43 4.6-1.1 5.5-.92 1.1-1.1 3.5-.68 8.3.34 3.7.62 8.6.63 11s.38 4.2.82 4.2 2.4-1.5 4.2-3.4zm65 1.1c-.1-.64.17-2 .6-3 .82-1.9.02-3.5-1.2-2.4-1.1 1.1-1.4 7.8-.25 7.1.54-.34.9-1.1.8-1.8zm-71-.5c-.06-.65-.18-4.7-.28-8.9-.22-9.6-1.9-7.8-2.1 2.3-.19 8.9-.22 8.7 1.2 8.2.69-.23 1.2-.94 1.2-1.6zm-118-6.9c-.86-3.3-1.5-7.5-1.4-9.4.09-2.7.3-2.3 1.1 2 1.2 6.9 2.2 6 1.3-1.2-.55-4.4-1-5.4-2.2-4.9-1.3.49-1.4 2.1-.82 10 .75 10 1.2 12 2.7 10 .6-.6.37-3.2-.62-7zm133 5.8c.77-1.1 1.6-1.8 1.9-1.5.27.27.52-.07.54-.76.03-.69.41-2.2.84-3.2.76-1.9.71-1.9-1.2-.25-1.1.97-2.4 1.4-2.8 1-.46-.41-.51-.2-.13.47.39.67-.04 2.4-.95 3.8-2 3-.21 3.5 1.8.54zm47-1.3c.01-.44-.43-.53-.98-.19s-.99 1.4-.98 2.3c.01 1.5.14 1.5.98.19.53-.82.98-1.9.98-2.3zm-32-4.7c0-.86-.6-.43-1.4 1-.79 1.4-1.4 3.4-1.4 4.5.03 1.6.35 1.3 1.4-1 .75-1.6 1.4-3.7 1.4-4.5zm23 2.7c-.01-2.4-.24-2.8-.98-1.7-1.3 2-1.3 6.3 0 5.5.55-.34.99-2 .98-3.8zm40-8.4c-.83-1.4-.98-1.2-.87 1.2.07 1.6 0 3.4-.16 4-.17.55-.19 2.6-.06 4.5.2 2.9.39 2.6 1.2-2.2.6-3.8.57-6.4-.08-7.5zm-220 11c-.03-.82.38-2.2.91-3 1.2-1.8 1.2-.25 0 2.5-.57 1.3-.88 1.5-.91.5zm-20-3.4c0-2.2 2.6-9.6 3.4-9.6.2 0 .25 1.8.13 4-.13 2.2.16 4.3.63 4.6 1.8 1.1.78 3-1.6 3.2-2 .17-2.5-.25-2.5-2.2zm90 .64c-.45-1.2-.7-1.2-1.4-.08-.69 1.1-.85 1.1-.86-.09-.01-.78-.29-1.1-.62-.81-.9.9.32 2.4 2 2.4.84 0 1.2-.6.91-1.4zm-137-1.2c-.03-.82.38-2.2.91-3 1.2-1.8 1.2-.25 0 2.5-.57 1.3-.88 1.5-.91.5zm40-.75c-.84-.96-2.1-2.9-2.7-4.2l-1.2-2.5 2.1 2.5c2.3 2.8 4.3 6 3.7 6-.21 0-1.1-.79-1.9-1.8zm107-.2c-.68-1.1-1.4-1.8-1.5-1.6-.59.6.96 3.6 1.9 3.6.49 0 .35-.88-.32-2zm28-.55c.03-1.6.25-2.2.5-1.2.26.97.24 2.3-.03 3-.28.68-.49-.12-.47-1.8zm76-3.2c-.25-.97-.47-.42-.5 1.2-.02 1.6.19 2.4.47 1.8.27-.68.29-2 .03-3zm17-.27c0-1.3-.11-1.3-.97 0-.53.82-.97 2.2-.97 3 0 1.3.11 1.3.97 0 .53-.82.97-2.2.97-3zm-158-.5c0-1.9-.36-3.5-.8-3.5s-.85 1.6-.9 3.5c-.06 1.9.3 3.5.8 3.5.49 0 .9-1.6.9-3.5zm4.4 1.2c-1.5-4.7-2.5-7-3-6.6-.25.26.28 2.3 1.2 4.6 1.7 4.4 3 5.8 1.8 1.9zm15 .19c0-1.1-.45-1.8-1-1.4s-1 1.3-1 2.1.45 1.4 1 1.4 1-.93 1-2.1zm79-1.9c0-1.3-.11-1.3-.97 0-.53.82-.97 2.2-.97 3 0 1.3.11 1.3.97 0 .53-.82.97-2.2.97-3zm3 1.2c-.01-1.5-.14-1.5-.98-.19-1.3 2-1.3 3.3 0 2.5.55-.34.99-1.4.98-2.3zm-128-3.4c1.1-1.6 2.5-2.5 3.4-2.2 1.8.68 1.9-.79.26-2.4-.93-.93-.93-1.2 0-1.2.67 0 1.2-1.4 1.2-3.1 0-2-.39-2.8-1.1-2.4-.75.46-.88-.04-.39-1.6.44-1.4.34-2-.28-1.6-.55.34-1.6-1.5-2.3-4.1l-1.3-4.7-.33 5.9c-.2 3.7.11 6.2.84 6.6 1.5.95.31 6.6-2.2 10-1.1 1.6-1.6 3.4-1.2 4.4.54 1.4.78 1.5 1.2.34.25-.8 1.3-2.7 2.4-4.2zm78 1.9c-.03-2.1-.08-2.1-1.5-.29-.79 1-1.2 2.3-.9 2.8.89 1.4 2.4-.13 2.4-2.5zm84 .5c-.01-1.5-.14-1.5-.98-.19-1.3 2-1.3 3.3 0 2.5.55-.34.99-1.4.98-2.3zm10 .13c-.86-.86-1.8-1.3-2.1-1-.76.76 2 3.6 2.9 3 .41-.25.06-1.2-.8-2zm-91 .68c.02-.82.39-2.6.83-4 .64-2 .81-2.1.83-.5.02 1.1-.36 2.9-.83 4-.53 1.2-.85 1.4-.83.5zm-40-3.7c-.29-.75.13-1.3.95-1.3.81 0 1.5-.79 1.4-1.8-.01-1.5-.15-1.5-1-.25-.87 1.3-1.1 1.3-2 0-.55-.82-1-.99-1-.38-.01.62-.32 2.6-.69 4.5-.61 3.1-.53 3.3 1 2 .94-.78 1.5-2 1.2-2.8zm77-8.1c-.27-5.9-.7-11-.97-11-.26-.27-.32 4.7-.13 11s.62 11 .97 11c.34-.21.4-5.2.13-11zm97 3c-.08-6.3-.92-12-3-19-3.7-13-4.6-9.3-1.4 5.6 1.2 5.4 2.4 12 2.6 15 .43 5 .96 7.5 1.6 7.5.18 0 .27-3.9.2-8.8zm-35 2.2c.69-5-.12-12-1.5-13-.48-.3-.92.73-.99 2.3l-.12 2.8-1.5-6-.12 3.1c-.09 2.4.38 3.3 1.9 3.7 1.8.46 2 1 1.4 4.4-.35 2.1-.86 4.6-1.1 5.6-.27.96-.07 1.8.45 1.8.51 0 1.2-2.1 1.6-4.6zm-8.2-.94c-.23-1.9-.87-3.8-1.4-4.1-.65-.4-.86.53-.56 2.6.35 2.4.13 3.1-.89 2.7-1.1-.41-1.1-.1-.32 1.4 1.6 3.1 3.7 1.5 3.2-2.5zm-174-3.8c.07-.99-.33-1.5-.88-1.2s-.95 2.5-.88 4.8c.11 4 .16 4 .88 1.2.42-1.6.82-3.8.88-4.8zm167 3.8c1.8-2.7 1.2-4.6-.83-2.6-.65.65-2.3 1.2-3.6 1.2-2.4 0-2.5.02-.55 1.9 2.5 2.6 3.1 2.5 5-.47zm13 .03c0-1.4-.45-2.5-1-2.5s-1 1.1-1 2.5.45 2.5 1 2.5 1-1.1 1-2.5zm7-1.1c.01-.6-.58-1.1-1.3-1.1-.87 0-1.2.85-.87 2.4.35 1.8.69 2.1 1.3 1.1.47-.74.86-1.8.86-2.4zm-155-2.3c-.37-2.3-1.1-4.1-1.5-4.1-1.2 0-1.1 2.1.25 5.9 1.5 4.2 2.1 3.4 1.3-1.8zm49 2.8c0-1.1-.45-1.8-1-1.4s-1 1.3-1 2.1.45 1.4 1 1.4 1-.93 1-2.1zm61-.19c.46-1.2 1.2-3.8 1.5-5.8.54-2.7.44-3.2-.46-2-.94 1.2-1.1 1.1-.65-.75.74-3.4-1.1-2.7-2.7 1-.78 1.8-1.4 2.7-1.5 1.9-.09-1.5-2.1-.6-2.1.93 0 .55.45.72 1 .38s1 .08 1 .94.51 1.4 1.1 1.3c.62-.14 1.4.38 1.6 1.1.31.85.07 1.1-.62.69-1.2-.75-1.6.64-.46 1.8 1 1 1.3.84 2.2-1.6zm-210-3.7c-.92-1.1-2.3 1.8-1.6 3.5.67 1.7.8 1.7 1.4-.58.35-1.4.47-2.7.28-2.9zm104 2.5c.33-1.7.08-2.3-.89-1.9-1.5.59-1.5.61-.73 2.7.82 2.1 1.1 2 1.6-.83zm88-8.3c-.22-2.1-.39-.37-.39 3.8s.17 5.8.39 3.8c.21-2.1.21-5.4 0-7.5zm-114 6c-.96-1.6-1-1.6-1.1.29-.03 2.3 1.2 4.1 1.8 2.5.19-.56-.13-1.8-.7-2.8zm119-.39c-.52-1.3-.98-1.9-1-1.2-.08 1.6 1.1 4.5 1.6 4 .21-.22-.04-1.5-.57-2.8zm73-1.6c-.25-.96-.46-.18-.46 1.8s.21 2.7.46 1.8.25-2.5 0-3.5zm-165-2.4c-.65-2.4-1.4-3.7-1.7-3-.27.75.11 3.2.84 5.4 1.7 5.2 2.4 3.2.84-2.4zm5.8 3.2c-.29-1.1-.12-1.8.38-1.4s.91-.14.91-1-.42-1.6-.93-1.6-1.4-2.5-2.1-5.5c-.63-3-1.5-5.3-2-5-.82.5 2.8 17 3.7 17 .27 0 .26-.9-.03-2zm26-3.2c1.2-2.9 2.2-5.8 2-6.4-.14-.62.43-1.4 1.3-1.7.84-.33 1.5-1.4 1.4-2.4-.05-1-.29-1.3-.58-.53-.28.69-1.1 1.2-1.8 1.2s-1.8 1.2-2.4 2.8c-1.2 2.9-3.1 12-2.5 12 .19 0 1.4-2.4 2.6-5.2zm129-8.1c-.88-7-1.5-9.4-1.9-7.6-.6 2.2-.78 2-1.7-2-1-4.4-1-4.4-1.1-1-.14 4.9 1 14 1.8 14 .35 0 .46-1.9.24-4.1-.26-2.7-.03-3.9.63-3.5.57.35 1.4 4.6 1.8 9.4.42 4.8.96 7.9 1.2 6.9.23-1-.16-6.4-.86-12zm10 9.1c-.8-.8-1.1-.3-1.1 1.8.03 2.6.16 2.7 1.1 1.1.77-1.3.76-2.2-.03-3zm-199-.43c-.25-.97-.47-.42-.5 1.2-.02 1.6.19 2.4.47 1.8.27-.68.29-2 .03-3zm74 1.6c0-1.8-.25-1.9-1.5-.88-.82.68-1.5 1.6-1.5 2.1 0 .49.68.88 1.5.88.86 0 1.5-.9 1.5-2.1zm131 .87c-.02-1.7-1.2-3.2-2.7-3.5-1.6-.31-1.6.26-.01 2.8 1.4 2.2 2.8 2.6 2.7.74zm-165-9.4c-2.3-12-2.6-14-3.1-13-.41.41 2.3 19 3.1 22 .25.77.72 1.1 1 .8.33-.32-.15-4.6-1.1-9.4zm74 1.4-.14-7.2-.68 6c-.62 5.5-.42 8.5.58 8.5.21 0 .32-3.3.24-7.2zm12 5.5c-.4-3 3.5-11 5.9-12 2.6-1.2 3.3.35 1.1 2.5-.93.93-.74 1.2.88 1.2 2.7 0 7.5-6.1 6.3-8-1.1-1.8-2.4-11-2.1-15 .18-2.4-.09-3.2-.94-2.6-.83.52-1 3-.65 8.4.34 4.8.24 6.5-.28 4.6-.45-1.6-.87-4.9-.93-7.3-.07-2.4-.62-5.2-1.2-6.4-.84-1.6-.8-3.4.19-7.6.95-4 1.5-5 2-3.6.59 1.7.74 1.6 1.4-.62 1-3.4 3.6-9 4.1-9 .26 0 .19 1.1-.16 2.5-.34 1.4-.3 3.3.09 4.2.66 1.6.78 1.6 1.6-.25.55-1.3.7.34.43 4.5-.38 5.6-.31 6 .48 2.5.5-2.2.65-7.2.33-11-.34-4.2-.14-8.4.46-10 .58-1.5 1.3-4.4 1.6-6.3.53-3.3.48-3.4-.97-1.5-.85 1.1-2.2 1.9-3.1 1.7-.91-.19-1.3.13-.86.79 1.4 2.2-.73 9.1-4.6 15-2.2 3.3-3.9 6.6-3.9 7.3s-.88 3.1-1.9 5.4c-1.8 4-2 4.1-4.5 3-1.4-.65-2.6-1.5-2.6-1.9-.01-.41-.69-.75-1.5-.75-1.9 0-1.9.22.66-5.1 2-4.1 3.8-14 2.5-14-.31 0-1.1 2.5-1.7 5.6-.65 3.1-2 7.2-3.1 9-3 5.4-2.5 7.8 3.1 14 3.2 3.4 5.2 6.5 5.6 8.7.33 1.9 1.1 4.4 1.7 5.7.93 1.9.77 2.5-.94 3.7-2.5 1.8-6.5 11-5.7 13 .8 2.1 1.4 2 1.1-.18zm42-2.6c.04-.44-.38-.53-.93-.19s-.97 1.6-.93 2.8c.07 2.1.1 2.1.93.19.47-1.1.89-2.4.93-2.8zm-157 1.3c.42-1.6-.3-4-2.2-7.4-7.5-13-8-14-6.1-13 .54.34 2.2 3.2 3.6 6.3s3.4 6.9 4.5 8.4c2.2 3 2.5 6.4.76 7.5-.8.5-.97 0-.54-1.6zm-22-1.3c-.35-.9-1-1.4-1.5-1.1-.49.3-.33 1.2.35 1.9 1.5 1.7 2 1.4 1.2-.8zm35-3.4c-.94-5.2-1.4-5.4-1.2-.42.09 2.3.56 4.2 1 4.2.48 0 .58-1.7.2-3.8zm176-1c-.39-2.6-1.1-5.4-1.7-6.2-.75-1.2-.85-1.1-.48.5.26 1.1.77 3.9 1.1 6.2.37 2.3.9 4.2 1.2 4.2s.21-2.1-.18-4.8zm-281 2.5c0-.43.48-.78 1.1-.78 1.7 0 4.1-2.8 3.9-4.7-.33-3.3.04-4.4 1.2-3.6.77.47.97.19.57-.85-.54-1.4 10-24 12-26 2.2-2.3 1.7.46-.88 4.5-5 8-7 12-10 23-2.9 9.4-3.4 10-5.6 10-1.3-.11-2.4-.55-2.4-.98zm121-10c-.74-5.6-1.5-9.4-1.8-8.3-.51 2.4 1.9 20 2.6 19 .28-.28-.09-5.1-.84-11zm-5.3 5.8c-.84-.61-1.7-2.2-2-3.6-.44-2.4-.46-2.3-.59.32-.08 1.6.47 3 1.4 3.4.82.31 1.6 1.5 1.6 2.7.1 1.9.16 2 .6.21.28-1.1-.18-2.4-1-3zm8.7-3.3c-.78-8.8-2.2-14-2.3-8.3-.07 3.8 1.9 16 2.6 16 .25 0 .13-3.5-.24-7.8zm124 4.3c0-2.6-.57-3.8-2.2-4.6-1.9-.95-2-.92-1 .17.69.72 1.2 2.8 1.2 4.6 0 1.8.45 3.3 1 3.3s1-1.6 1-3.5zm27-1.3c-.25-.97-.47-.42-.5 1.2-.02 1.6.19 2.4.47 1.8.27-.68.29-2 .03-3zm-71-.87c.43-2.3.96-3.1 1.4-2.4.5.8.76.39.74-1.2-.03-1.3.3-3.9.72-5.6.51-2.2.39-3.2-.37-3.2-.61 0-1.1 1.2-1.1 2.8s-.91 4.7-2 7.1c-2.2 4.9-2.4 6.1-1 6.1.53 0 1.3-1.6 1.6-3.6zm68 .6c1.4 0 .3-10-1.4-14-.87-1.6-1.6-3.6-1.6-4.3-.02-3.6-9.3-21-15-28-.66-.84-2.6-3.4-4.2-5.8s-3.5-4.2-4.1-4.2c-1.2 0-.65 1.1 2.7 5.7 1.4 1.9 2.1 3.9 1.8 5-.43 1.3-.33 1.5.36.49.73-1 1.8-.17 4.5 3.5 4.9 6.8 5.8 8.7 5.8 13 .04 2.1.46 4.7.93 5.8.71 1.7.89 1.4 1-1.5.15-3.3.24-3.2 1.6 1.8.8 2.9 2.1 6.3 2.8 7.5.75 1.2 1.7 5.8 2.1 10 .43 4.4.95 7.2 1.2 6.2s.76-1.8 1.2-1.8zm-166-3.9c-.3-2-.96-4.3-1.5-5.1-.68-1.1-.78-.8-.38 1 .3 1.4.57 4.3.58 6.5.02 2.8.31 3.6.93 2.6.49-.78.65-3 .34-5zm91 3.4c0-1.4-.45-2.5-1-2.5-1.1 0-1.4 3.3-.33 4.3 1.1 1.1 1.3.79 1.3-1.8zm-128-3.6c0-3.1-.37-3.9-1.8-3.9-.96.04-1.3.27-.72.51.56.23.84 2.3.63 4.6-.27 2.9-.05 3.9.72 3.4.62-.38 1.1-2.5 1.1-4.6zm61-5.3c-1.2-4.6-1.3-4.8-3-3.2-.94.94-1.7 2.9-1.6 4.4.12 2.7.12 2.7.88-.32.42-1.6.82-2.2.88-1.2.07 1 .58 1.5 1.2 1.1.77-.47.9.27.42 2.4-.37 1.7-.35 4.1.06 5.4 1.5 4.5 2.5-3.2 1.1-8.6zm60 7.7c0-2-.29-2.4-1.1-1.6-.63.63-.86 1.8-.53 2.7.91 2.4 1.7 1.9 1.7-1.1zm-113-3c-1.8-3.3-2.1-2.7-.59 1.2.56 1.5 1.3 2.5 1.6 2.2.3-.31-.15-1.8-.99-3.4zm125-.18c.22-1.7.67-3.6 1-4.1.34-.54-.3-1.9-1.4-3-1.6-1.6-2-1.7-2-.54 0 .82.38 1.5.85 1.5s.64 2.4.37 5.2c-.5 5.5.55 6.3 1.2.91zm-44-5.2c.04-2.3-.03-2.3-.81-.5-.47 1.1-.84 3.6-.81 5.5l.05 3.5.76-3c.42-1.6.78-4.1.81-5.5zm72 5.5 2.8-2.5-3.2 1.6c-3.3 1.6-5.1 3.4-3.4 3.4.55 0 2.3-1.1 3.8-2.5zm-88-.58c.4-1.2 1.2-1.9 2.1-1.5 1 .39 1.4-.33 1.4-2.7.02-7.2 1.3-14 2.6-14 .9 0 1.3-1 1.2-2.9-.27-3.6-2.6-3.1-3.4.75-.29 1.4-1.2 4.9-2 7.7-.8 2.8-1.5 5.9-1.5 6.8s-.69 3-1.5 4.7c-.83 1.6-1.1 3-.56 3 .52 0 1.2-.93 1.6-2.1zm67-3.4c.94-4-.37-2.7-1.6 1.6-.55 1.9-.57 2.9-.04 2.4.5-.51 1.2-2.3 1.6-3.9zm-57-3.5c.1-3.6.27-4 .83-2 .61 2.1.82 1.8 1.4-2.4 1.1-7.6.73-9.7-.81-5.1l-1.3 4 .55-4.2c.36-2.8.16-4.2-.58-4.2-.62 0-1.2 1-1.2 2.2s-.27 6.1-.51 11c-.31 5.8-.13 8 .55 7 .55-.82 1-3.5 1.1-6zm-122 1.7c-.79-.79-1.1-.53-1.1.94 0 2.6 1.4 4 1.8 1.8.19-.93-.14-2.2-.75-2.8zm80-1.4c-.25-.96-.46-.18-.46 1.8s.21 2.7.46 1.8.25-2.5 0-3.5zm-77-2c-.25-.96-.46-.18-.46 1.8s.21 2.7.46 1.8.25-2.5 0-3.5zm80-1.1c.54-1.9.53-3.4-.03-3.7-.51-.31-.93-.15-.93.37 0 .51-.29 2.4-.64 4.3-.78 4.1.35 3.4 1.6-.97zm162-4c-3.2-8.8-4.4-8.8-1.4 0 2.4 6.8 3 8.2 3.6 7.6.22-.22-.79-3.6-2.2-7.6zm-199 4.2c-.37-.36-.66-1.4-.64-2.2.03-1.3.22-1.2 1.1.25 1.1 1.8.77 3.2-.45 2zm2.7-2.6c-.01-1.8-1.4-6.8-3.1-11-1.7-4.3-3.3-11-3.6-14-.29-3.4-.3-5.2-.03-4 .62 2.8 1.1 2.8 4 .08 1.3-1.2 2.3-1.7 2.3-1 0 .64-1.1 1.9-2.5 2.8-2.3 1.5-3.4 3.6-1.8 3.3 1.9-.3 2.6.24 1.3 1.1-1.2.78-1.2 1.7.48 6.7 1 3.2 2.5 6.8 3.2 7.9s1 2.8.67 3.8c-.9 2.3.41 2 2.8-.61 1.8-2 1.9-2.1 1.3-.25-.4 1.1-1 3.6-1.4 5.5-.45 2.5-.89 3.1-1.5 2.1-.61-.97-1-1-1.6-.22-.39.63-.71-.34-.71-2.1zm70 .22c0-1.6-.17-3-.39-3-.21 0-.58 1.4-.82 3-.25 1.6-.07 3 .38 3 .46 0 .83-1.4.83-3zm-80-3.1c-.28-4.6-2-9.9-3.2-9.9-.39 0-1.3 1.1-2 2.5-1.2 2.2-1 3.1 1.1 7.5 2.8 6 4.5 6 4.1-.08zm195 4.3c0-.44-.66-1.7-1.5-2.8-1.5-2-2-.87-.92 2 .62 1.6 2.4 2.2 2.4.77zm14-2.7c-.86-2.9-.88-2.9-.96-.37-.05 1.4.21 2.9.58 3.2 1.2 1.2 1.3.16.38-2.9zm-145 1.3c-.04-.4-.07-3.7-.07-7.2s-.39-6.5-.86-6.5-.85 3.4-.84 7.5.43 7.4.93 7.2c.51-.17.89-.64.84-1zm-95-.98c.04 2.6 1.8 1.1 3.5-3 1-2.3 2.6-6.2 3.6-8.5 1.6-3.8 1.4-5.4-.55-3.5-.41.4-1.5.74-2.3.75-1 .01-2.2 1.9-3.4 5-.97 2.8-1.8 4.1-1.9 3-.1-1.9-.18-1.9-1.2-.21-1.3 2.2-.13 8.7 1.2 6.6.64-.99.88-1 .89-.13zm36-2.2c-.06-2.9.22-3.6 1-2.8.79.79.81 1.9.08 4-1 2.8-1 2.8-1.1-1.1zm171-1.8c-.24-1.2-.45-.46-.46 1.7s.19 3.2.44 2.3c.25-.95.26-2.8.02-4zm-238 4c0-.79 5.8-12 8.9-17 1.2-2.1 2.7-3.8 3.3-3.8s.31 1-.57 2.2c-.87 1.2-3.2 5.2-5.3 8.8-4.2 7.4-6.4 11-6.4 9.8zm31-1.8c0-.82.39-2.4.86-3.5.54-1.3.86-1.4.86-.5 0 .82-.39 2.4-.86 3.5-.54 1.3-.86 1.4-.86.5zm184-4.1c-.72-1.2-.82-1.8-.23-1.4.67.42 1.1-.48 1.1-2.4 0-1.8-.42-2.9-1-2.5-1.2.77-1.2.33.01-3.2.93-2.6.9-2.7-.5-.88-1 1.3-1.5 4.2-1.5 9 0 6.6.09 6.9 1.7 5.3 1.5-1.5 1.5-2 .43-3.8zm-175-.91c-.62 4.1.99 3 2.1-1.4.51-2.1.38-2.7-.43-2.2-.7.43-1.2 0-1.2-1.1-.01-1-.91.15-2 2.5-1.1 2.4-1.6 4.9-1.3 5.5.42.68 1.2-.5 2-2.8 1.2-3.9 1.3-3.9.76-.53zm67-1.4c.57-3.1.54-4.4-.08-3.8-1.1 1.1-2.5 10-1.4 9.1.35-.32 1-2.7 1.5-5.3zm96 2.8c-.83-2.2.28-3.2 1.5-1.3s1.2 3 .07 3c-.49 0-1.2-.74-1.5-1.6zm-55-6.1c-.46-2.1-.36-2.4.46-1.2.84 1.2 1.1.75 1-2-.02-3.9-1.9-7-4.2-7-1.7 0-3.1-2.6-2.2-4.2.33-.54 1.2-.75 1.9-.47 1.4.52 2.8-1.7 1.7-2.8-1.5-1.5-4.3-.43-4.8 1.9-.87 3.5.4 9.5 2.2 10 .79.3 1.4 1.2 1.4 1.9 0 1.4 2.1 6.4 2.7 6.4.2 0 .09-1.2-.24-2.8zm90-.98c-.25-.97-.47-.42-.5 1.2-.02 1.6.19 2.4.47 1.8.27-.68.29-2 .03-3zm5 0c-.25-.97-.47-.42-.5 1.2-.02 1.6.19 2.4.47 1.8.27-.68.29-2 .03-3zm21 2.4c-.3-.76-.12-1.9.38-2.5.51-.62.2-.49-.69.28s-1.3 1.9-.94 2.5c.97 1.6 1.9 1.4 1.2-.28zm-17-4.4c-.25-.97-.47-.42-.5 1.2-.02 1.6.19 2.4.47 1.8.27-.68.29-2 .03-3zm-12-3.6c.05-2 .69-3 2.1-3.4 1.3-.33 1.9-1.1 1.6-2.2-1.5-5.4-1.8-6.1-2.8-5.5-.57.35-.79 1.9-.49 3.4.49 2.4.3 2.7-1.9 2.3-1.8-.36-2.7.13-3.6 2.1-.64 1.4-.82 3.4-.41 4.4.65 1.6.93 1.4 2.1-1.2l1.3-3 .12 5c.08 3.7.33 4.5.97 3 .47-1.1.89-3.3.93-4.8zm-121 .84c.03-.55-.38-.32-.91.5s-.94 2.2-.91 3c.05 1.6 1.7-1.6 1.8-3.5zm-2.9 1.6c0-.5.27-1.6.61-2.5.33-.87.16-1.6-.39-1.6-.54 0-1.2 1.1-1.5 2.5-.27 1.4-.1 2.5.38 2.5.47 0 .86-.41.86-.92zm43-3.7c-.8-3.2-.08-3.8 2.6-2.2 2.5 1.5 2.4 4-.18 4.4-1.1.16-2-.6-2.4-2.2zm86-2.4c.38-2.8.42-5.3.09-5.7s-.61.71-.63 2.3c-.02 1.6-.69 3.8-1.5 4.9-1.8 2.4-1.9 3.6-.06 3.6.93 0 1.6-1.7 2.1-5.1zm-16-3.2c-.53-2.9-1.1-5.5-1.4-5.7-.65-.66-.48 8.6.19 10 1.3 3.4 2.1.35 1.2-4.6zm-61-.27c-1-.79-2.3-1.2-2.8-.91s-.85.09-.85-.45-.27-1.7-.61-2.6c-.49-1.3-.06-1.5 2.4-.97 2.7.54 3 .38 2.5-1.5-.45-1.7-.11-2.1 1.9-2.1 1.4 0 3.1.68 3.7 1.5s2 1.5 2.8 1.5c2 0-2.2 4.1-4.6 4.5-.93.16-1.6.79-1.4 1.4.34 1.5-.85 1.4-3.2-.38zm-28-1.3c1.3.98 1.4.94.34-.21-1.7-1.9-5.2-2.1-4.5-.28.37.97.85 1.1 1.6.35.72-.72 1.5-.68 2.6.14zm120-3.3c-1.6-3-2.3-1.8-.81 1.5.69 1.5 1.4 2.3 1.6 1.7.19-.58-.17-2-.8-3.2zm-69-13c-.28-.74-1.1-1.4-1.8-1.4-.96 0-.96.27-.03 1.2.66.66 1.3 4.4 1.4 8.2l.19 7 .35-6.9c.2-3.8.13-7.5-.16-8.2zm2.1 9.9c-.25-.96-.46-.18-.46 1.8s.21 2.7.46 1.8.25-2.5 0-3.5zm-37-2.2c-.02-3.6-.39-7.6-.84-9-.72-2.2-.63-2.4.87-1.1.93.77 4.1 1.4 7.1 1.5 4.5.06 5.6.43 6.1 2 .49 1.5.78 1.6 1.5.53.74-1.2.88-1.2.89.07.02 1.1.29 1.2 1.2.25 1.8-1.8 2.5-1.5 3.3 1.6.41 1.5.95 2.2 1.2 1.5.36-.99.8-1 1.9-.13 3.4 2.8.28 4.2-6.6 2.9-4.3-.81-5.5-.66-8.4 1.1-2.9 1.7-3.5 1.8-4 .47-1.1-2.8-3.5-1.7-3.9 1.7-.2 1.8-.39.32-.41-3.2zm101-1.7c-1.1-1.7-1.1-1.7-.58.04.32 1 .62 2.4.66 3 .06.84.21.83.57-.04.27-.67-.02-2-.65-3zm-110-1.4c0-.47-.68-.59-1.5-.27-.82.31-1.5 1.3-1.5 2.1 0 1.2.28 1.3 1.5.27.82-.68 1.5-1.6 1.5-2.1zm-102-.6c-.02-.66 1.1-2.5 2.4-4 1.4-1.6 2.5-2.3 2.5-1.6.02.66-1.1 2.5-2.4 4-1.4 1.6-2.5 2.3-2.5 1.6zm88-6.8c0-.57-.45-.35-.98.47-.59.92-.98 1-.98.3-.01-.66.54-1.6 1.2-2 .87-.55 1.1-2.3.66-5.8-.33-2.8-.7-3.9-.83-2.5s-.47 1.9-.75 1.2c-.28-.69.27-3.7 1.2-6.8.95-3 1.4-5.8.99-6.2-1.1-1.1-5.4 4.8-5 6.9.2 1-.05 1.8-.54 1.8-.83 0-.57 6 .6 14 .47 3.1.56 3.1 2.4 1.5 1.1-.93 2-2.2 1.9-2.7zm107 1.8c-.43-1.1-.26-1.4.53-.95.7.44 1.2.1 1.2-.83 0-.86-.38-1.6-.84-1.6s-1.4-1.1-2-2.5c-.76-1.7-.79-2.5-.1-2.5.57 0 .73-.5.35-1.1-1-1.7-2.5 1.2-1.9 3.6.52 2 .52 2-.71 0-.68-1.1-1.1-3.4-1-5 .17-2.6-.9-4.1-6.8-10-3.8-3.8-6.5-7.2-6-7.5 1.1-.71-1.5-3.2-3.7-3.6-3.1-.46-.98 2.7 6.6 9.6 8.4 7.7 9.8 9.6 8.1 11-2 2-1 5.9 2.2 9.3 3.6 3.7 5 4.3 4 1.7zm-95-5.9c1.1-.81 2.4-1.5 3-1.4s.19.69-.88 1.5-2.4 1.5-3 1.4-.19-.69.88-1.5zm32-5.1c-.36-.93-.87-1.5-1.2-1.2-.27.28-.21 1.3.15 2.2s.87 1.5 1.2 1.2c.27-.28.21-1.3-.15-2.2zm-8.5-5.1c-.07-1.2.47-2.8 1.2-3.5.72-.73 1.6-2.4 2-3.8l.64-2.5-3.9 5-.15-3.5c-.12-2.7-.27-2.9-.62-1.1-.35 1.9-.65 2.1-1.4 1-.66-1-.89-.8-.9 1-.01 1.3-.3 2.1-.64 1.8s-1.3.04-2.1.84c-2 2-3.9 1.9-2.3-.07.7-.84 1.1-1.7.82-2-.24-.24-1.6 1.2-2.9 3.3-2.7 4.1-5.9 5.8-3.9 2.2.61-1.1.8-3 .43-4.2-.52-1.6-.32-2 .84-1.5 1.1.42 2.1-.79 3.6-4.4 1.1-2.7 2.6-4.9 3.2-4.9 1.3 0 3-1.7 4.6-4.5.61-1.1 1.7-2 2.5-2 1.7 0 2.4 4.3.97 5.8-.59.59-1.1 2-1.1 3 0 1.6.5 1.8 3 1.3 2.9-.58 3-.51 2.4 2.6-.33 1.8-1.6 4.3-2.9 5.7-1.2 1.4-2.5 3.4-2.8 4.5-.44 1.9-.49 1.8-.59-.18zm-108-.84c.7-.84 1.5-1.3 1.7-1.1.7.69-.71 2.6-1.9 2.6-.66 0-.59-.57.2-1.5zm8.2-13c2.9-3.5 3.8-5.2 2.9-5.7-.89-.55-.46-1.7 1.6-4.2 3.3-4 3.2-3.9 7.8-10 1.9-2.6 3.5-4.9 3.5-5.2s1.6-2.7 3.6-5.3c3.7-4.9 4.6-6.7 5.8-12l.67-3-2 2.5c-1.3 1.6-2 2-2 1-.03-2.4-3.2 1.3-3.5 4.1-.14 1.3-1.9 4.8-4 7.8-2.5 3.7-3.5 4.7-3.2 3 .53-2.4.49-2.4-.89-.56-1.7 2.2-1.9 4-.45 3.1 2.4-1.5.63 2.6-4.4 10-3 4.5-5 8.2-4.4 8.2s-1.3 2.6-4 5.7c-2.8 3.1-4.8 6.1-4.5 6.6.68 1.1 2.5-.47 7.5-6.5zm144 2.7c-3-2.6-4.6-3.2-4.6-1.6 0 1.2 4.2 4 6 4.1.93.03.39-.9-1.4-2.4zm-7.2-6c-.31-.8-.96-1.2-1.4-.91-.5.31-.9-.14-.9-1s-.45-1.6-1-1.6c-1.4 0-1.2.79.75 3.5 1.8 2.5 3.6 2.5 2.6.01zm-11-15c-.99-1.1-2-1.8-2.3-1.5-.67.67 1.8 3.5 3.1 3.5.57 0 .21-.9-.79-2zm-121-7c1-1.1 1.3-2 .69-2s-1.6.9-2.2 2-.9 2-.69 2 1.2-.9 2.2-2zm3.6-5.1c1.6-3 .5-3.4-1.4-.44-.91 1.4-1.2 2.5-.67 2.5.55 0 1.5-.94 2.1-2.1zm124 .63c-.67-.8-.91-1.9-.54-2.5s.25-1.6-.27-2.3c-2.4-3.1-14-27-16-31-.39-1.3-.93-2.1-1.2-1.8-.68.69 7.5 20 10 25 1.3 2.2 2.6 5 2.7 6.3.15 1.3 1.3 3.5 2.6 4.8 2.5 2.6 4 3.4 2 1zm-29-1.1c-.36-.93-.42-1.9-.15-2.2.28-.27.79.26 1.2 1.2s.42 1.9.15 2.2c-.28.27-.79-.26-1.2-1.2zm26-2.9c-.7-.84-1-1.8-.7-2.1s1.1.38 1.7 1.5c1.3 2.4.83 2.7-.97.57zm-15-4.5c-1.6-3-2.3-1.8-.89 1.6.63 1.6 1.4 2.4 1.6 1.7.25-.66-.07-2.2-.7-3.3zm-10-9.3c-1.2-4.7-2.4-8.4-2.7-8.2s.6 4.3 1.8 9c1.2 4.7 2.4 8.4 2.7 8.2s-.61-4.3-1.8-9zm-83-1.9c1.1-2 1-2.1-.47-.88-.91.76-1.7 1.8-1.7 2.2 0 1.5.89.96 2.1-1.4zm14-.75c0-.82.39-2.4.86-3.5.54-1.3.86-1.4.86-.5 0 .82-.39 2.4-.86 3.5-.54 1.3-.86 1.4-.86.5zm70-5.6c-1.5-5.7-1.9-6.8-2.4-6.3-.39.4.77 5.8 2.1 9.7 1 3 1.3.25.34-3.4zm-83-.94c0-1.8 2.9-6.1 2.9-4.4.02.86-.62 2.4-1.4 3.5s-1.5 1.5-1.5.94zm78-4.9c-.37-2-.91-3.4-1.2-3.2-.28.27-.19 2.1.18 4.2.38 2 .91 3.4 1.2 3.1.27-.27.19-2.1-.19-4.1zm-78-6.6c.39-2.7.3-3.9-.22-3-.47.82-1.1 3.8-1.4 6.5-.69 6 .73 3 1.7-3.5zm89-1.6c-.83-3.2-2.4-10-3.5-16-1.4-7.3-2-8.9-2-5.9-.1 5.1 1.3 13 4 22 2.5 8.3 3.6 8.4 1.5.13zm1.2-5.1c-.56-2.1-1.2-4-1.5-4.2-.57-.56.7 6.1 1.4 7.2 1 1.8 1.1.49.13-3zm-19-12c-.24-1.2-.44-.22-.44 2.2s.2 3.5.44 2.2c.23-1.2.23-3.3 0-4.5zm-44 .81c0-.86.45-1.6 1-1.6s1 .42 1 .94-.45 1.2-1 1.6-1-.08-1-.94zm-13-8.3c-.25-.96-.46-.18-.46 1.8s.21 2.7.46 1.8.25-2.5 0-3.5zm31-35c-.25-.41.96-.79 2.7-.83 1.7-.05 4.7-.41 6.6-.81l3.5-.72-3.4 1.6c-3.6 1.6-8.7 2.1-9.5.8zm-44-39c0-1.1-.41-2-.91-2-.49 0-.67.9-.38 2s.7 2 .91 2 .38-.9.38-2zm28-5c0-.46 3.5-.6 7.8-.31 6.7.46 17-.19 35-2.3 2.5-.28 6.2-1.2 8.3-2 2.1-.8 5.1-1.5 6.8-1.5 3.6 0 7.7-2 10-4.9 1-1.2 2.5-2.1 3.2-2.1.74 0 1.4-.45 1.4-1 0-1.5-.68-1.3-5.3 1.4-4.3 2.5-18 5.8-18 4.4 0-.46-.79-.82-1.8-.81-1.5.01-1.5.15-.25.98 1.2.77.98.97-1 .99-11 .09-34 1.1-35 1.5-.43.26-4.5.05-9.1-.47-4.9-.56-8.8-.59-9.4-.06-1.5 1.3-25 .23-29-1.3-1.2-.43-3-.34-4 .19-1.5.83-1.2 1.2 1.8 2.4 3.7 1.5 11 2.9 18 3.2 2.2.1 4.7.47 5.5.81s3.5.74 6 .9c2.5.15 5.3.36 6.2.47.96.1 1.8-.19 1.8-.66zm55-12c4.9-1.1 7.4-2.3 8.3-3.7 1.5-2.4 1.8-2.5-9.9 1.8-7.1 2.6-12 5.3-7.5 4.1 1.1-.28 5.2-1.3 9-2.2zm-96-.67c-1.8-1.2-3.5-1.9-3.8-1.6s.73 1.2 2.3 2.1c4.2 2.3 5.3 1.9 1.6-.52zm14-.42c.19-1.4-.85-3.8-1.9-4.6-1.2-.82-8.9 2.4-8.8 3.7.07 2.1 10 3 11 .91zm-13-2.7c-.46-1.2 1.1-2.1 9-5.4 2.9-1.2 2.9-1.2.5-1.3-4.4-.06-10 1.7-12 3.6-1.4 1.7-1.5 1.7-.93.04.33-1.1.16-1.6-.42-1.2-1.4.87-1.2 2.1.58 3.9 1.9 1.9 3.6 2.1 2.9.3zm92-2.7c-.34-.55-1-1-1.6-1s-.94.45-.94 1 .7 1 1.6 1 1.3-.45.94-1zm3.8-5.7c.97-.26 2.3-.24 3 .03.68.28-.12.49-1.8.47-1.6-.03-2.2-.25-1.2-.5zm-58-21c-.32-2-.46-1.9-.92.91-.33 2-.18 2.9.37 2.4.51-.51.75-2 .55-3.3z"/></svg>
