<?xml version="1.0" encoding="UTF-8"?>
<svg fill="currentColor" fill-rule="evenodd" aria-hidden="true" viewBox="0 0 401 597" xmlns="http://www.w3.org/2000/svg"><path d="m338 585c.46-1.3.21-1.5-.99-1.1-1.1.44-1.4.24-.83-.65.5-.82-.08-.71-1.6.28-1.5.98-2.9 1.2-3.8.7-1.2-.71-1-1.5.67-4.4 1.9-3.2 1.9-3.5.4-3.9-3-.67-315-.14-316 .53-3.2 3.2-3.2 1.6-3.3-85-.03-47-.27-115-.53-150-.91-123-.69-323 .36-324 .77-.94 42-1.2 185-1.2 101 .01 184 .23 184 .5.87.88 1.7 176 1.8 370 .04 183-.02 189-1.8 189-1-.14-6.7-.26-13-.26-8 0-12 .4-13 1.5-1.3.82-2.6 1.5-3.1 1.5-.44 0-.13-.43.68-.94 2.5-1.6.7-2-7.9-2.1-8.4-.09-12 1-9.4 3.2.77.77 1.3.78 1.8.01.44-.71 1.4-.43 2.7.8 1.2 1.2 2.8 1.7 4.1 1.3 1.4-.37 1.8-.18 1.4.61-1 1.6.03 1.4 3-.48 3.5-2.3 4.4-.77 1.2 2.2-3 2.7-4.8 3.2-4.8 1.1 0-1.9-3.1-1.7-5.4.21-1.8 1.5-1.9 1.5-1.3-.08zm17 .08c0-.62-.88-.88-2-.59-3.9 1-1.3-2.8 3.7-5.4 2.9-1.6 3.2-1.5 3.6.06.24.95-.59 2.9-1.9 4.4-2.5 2.9-3.4 3.3-3.4 1.6zm-302-12c-.34-.55-1-1-1.6-1s-.94.45-.94 1 .7 1 1.6 1 1.3-.45.94-1zm34 0c-.34-.55-2.5-.97-4.8-.93-3.3.05-3.7.26-2.2.93 2.8 1.2 7.8 1.2 7 0zm7 0c-2.8-1.2-4.7-1.2-4 0 .34.55 1.8.97 3.3.93 2.4-.06 2.5-.16.69-.93zm22-.12c0-.49-2.6-.91-5.8-.95-4.4-.05-5.3-.3-3.8-1 1.4-.68.9-.78-2-.34-5.6.85-6.6 1.8-2.5 2.5 5.6.89 14 .78 14-.17zm30-.88c0-1.1-.11-2-.25-2-.14.03-2.7.7-5.8 1.5l-5.5 1.4 4.8-.55c3-.35 4.8-.17 4.8.51 0 .58.45 1.1 1 1.1s1-.9 1-2zm30 1c-.34-.55-2.3-.96-4.3-.9-3.3.09-3.4.18-1.2.9 3.6 1.2 6.2 1.2 5.5 0zm56-.35c.36-.36-6.1-.59-14-.51-8.2.08-13 .42-11 .75 5.2.79 24 .61 25-.24zm42-.29c1.7-1 1.7-1.1-.8-1.8-1.5-.39-2.4-1.1-2-1.8.42-.68-.02-.88-1.2-.55-1 .29-3 .79-4.4 1.1-2.3.52-2.2.46.32-.75 2.8-1.3 2.7-1.3-2.5-1.4-3.1-.07-4.7.22-4 .69.95.59.68.99-1 1.5-2.2.62-2.2.73-.53 2 1.4 1 1.5 1.5.5 1.9-.71.27 2.1.41 6.2.32 4.1-.1 8.3-.66 9.4-1.3zm32 .23c.99-1-6.2-.62-7.8.41-1.1.69-.22.86 2.8.57 2.4-.22 4.6-.66 4.9-.98zm12 .75c-.69-.28-1-.92-.69-1.4.66-1.1-1.1-1.2-5.4-.29-4.9.99-3.6 2.4 2.1 2.3 2.9-.04 4.7-.31 4-.58zm10-.34c1.9-.83 1.9-.86-.19-.93-1.2-.04-2.5.38-2.8.93-.73 1.2.25 1.2 3 0zm9.9.09c.31-.49 1.5-.67 2.6-.38 1.2.32 2 .03 2-.72 0-.86-.98-1-3.2-.6-3.6.73-6.2 2.6-3.5 2.6.9 0 1.9-.41 2.2-.91zm-206-1.1c.78-1.3-.54-1.3-2.5 0-1.3.84-1.3.97.19.98.93.01 2-.43 2.3-.98zm156 0c1.1-.7.21-.97-3.2-.98-2.6-.01-5 .43-5.3.98-.8 1.3 6.5 1.3 8.5 0zm91-.23c-1.1-.64-2.1-.64-2.7 0s-.03.98 1.8.98c2.3 0 2.4-.15.98-.98zm-112-.77c0-1.3 2-1.3 4 0 1.2.76.89.97-1.2.98-1.5.01-2.8-.43-2.8-.98zm-175-.79c.27-.44-1.2-.63-3.2-.43-5.5.55-6.2 1-1.5 1.1 2.3.04 4.4-.28 4.7-.71zm89-.87c3.8-.41 5.5-.99 5.2-1.8-.31-.81-2.5-1.1-6.7-.91-8.4.4-17 1.4-18 2.2-1.5.98 5.5 2 10 1.6 2.2-.25 6.6-.72 9.7-1zm30 1.2c0-.8-7.3-2.4-13-2.9-4.5-.37-5.6-.16-5.6 1 0 1.2.97 1.4 4.6.93 2.5-.3 6.4-.16 8.6.31 5.3 1.1 5.5 1.2 5.5.63zm13-.24c-1.2-.24-3.5-.25-5-.02s-.51.43 2.2.43c2.8.01 4-.18 2.8-.41zm-55-1.3c-1.1-.7-.26-.95 3-.91 3.4.04 4 .26 2.5.91-2.7 1.2-3.7 1.2-5.5 0zm116 0c-.82-.53-2.2-.94-3-.91-.99.03-.82.34.5.91 2.8 1.2 4.3 1.2 2.5 0zm13 .44c-3.5-.78-9.8-.92-9.4-.21.26.42 2.8.72 5.7.65 2.8-.06 4.5-.26 3.7-.44zm-188-1.8c1.2-1.2 1-1.5-1.1-2-1.6-.4-3-.1-4 .83-1.3 1.3-1.2 1.5.29 1.9 3 .78 3.4.73 4.8-.71zm15 .4c0-.55-.41-1-.92-1-.5 0-1.7-.29-2.8-.63-1.6-.56-1.6-.44.17.96 2.3 1.9 3.5 2.1 3.5.67zm-35-.94c0-.52-.45-1.2-1-1.6s-1 .08-1 .94.45 1.6 1 1.6 1-.42 1-.94zm132-.06c-5.3-.58-5.3-1.5 0-1.1 2 .14 2 .12.06-1-2.8-1.7-17-1.3-20 .53-2 1.4-1.6 1.5 5.8 1.8 4.4.19 11 .36 14 .38l6 .03-6-.66zm24 .32c-.99-.39-1-.84-.13-1.9.98-1.2-.05-1.4-6.6-1.4-4.3 0-7.6.2-7.4.43.5.5 5 1.3 9.4 1.6 2 .16 1.1.48-2.5.92l-5.5.67 7 .09c3.8.04 6.4-.15 5.7-.44zm-91-1.3c0-.55-1.4-1-3-1-3.2 0-4-1.4-1.4-2.4.86-.33 1.3-1 .94-1.6-.93-1.5-2.5-1.2-2.5.49 0 .83-.44 1.5-.97 1.5-1.9 0 .16 2.9 2.3 3.3 3.9.75 4.7.7 4.7-.31zm130-.53c13-1.4 15-1.7 13-3.1-.33-.33-3.8-.06-7.7.6s-8.3.91-9.8.57c-2.1-.5-2.4-.4-1.2.48 1.2.86.58.99-2.5.56-3-.41-3.6-.28-2.5.5 1.1.79.62.91-2 .48-2.6-.43-3.1-.31-2 .43.82.56 3.5.76 6 .45 2.5-.32 6.3-.76 8.5-1zm44-.11c.23-.2-1.7-.36-4.2-.36-2.6 0-4.7.41-4.7.9 0 .82 7.9.34 8.9-.54zm-157-.36c.38-.61-1-.95-3.7-.87l-4.3.13 3.5.74c1.9.41 3.6.8 3.7.87.11.07.47-.32.81-.87zm5.8.34c-.68-.27-2-.29-3-.03-.97.25-.42.47 1.2.5 1.6.02 2.4-.19 1.8-.47zm30-.03c.96-.25 2.5-.25 3.5 0s.18.46-1.8.46-2.7-.21-1.8-.46zm55 .03c-.68-.27-2-.29-3-.03-.97.25-.42.47 1.2.5 1.6.02 2.4-.19 1.8-.47zm39-.54c1.5-.66 4-2 5.4-3 1.4-.97 2.9-1.5 3.2-1.2.31.32 1.6-.15 2.9-1 2.4-1.7 5.4-2.1 6-.84.18.42 1.9.51 3.8.21 3.4-.52 3.3-.57-1.8-1.3-3.3-.47-6-.35-7.2.32-1.1.59-2 .7-2 .24s4.1-2.6 9-4.7c5-2.1 9.2-4.1 9.4-4.5.54-.88-4.8-.66-6.2.25-.69.44-2.1.53-3.2.19-1-.33-2.2-.14-2.6.43-.39.63.03.77 1.1.37 1.2-.46 1.5-.29.95.58-.42.68-1.4.99-2.2.7-.77-.3-1.4-.05-1.4.54s-.74.79-1.6.44c-1.9-.73-8.3 3.3-8.3 5.2-.01.69.47 1.2 1 1.2s.78-.44.45-.99c-.36-.57.06-.73 1-.37 1.2.48.65 1.2-2.5 3.1-2.3 1.4-4.7 2.2-5.4 2-.72-.28-2 .36-2.9 1.4-1.9 2.2-.94 2.4 3 .71zm-247-.71c-.31-.51-.03-1.1.62-1.3.72-.24.86-.93.35-1.7-.66-1.1-1.1-.97-2.2.5-1.8 2.4-1.7 3.5.21 3.5.86 0 1.3-.41.99-.91zm14 .23c-.95-.38-.77-.97.67-2.2 1.9-1.6 1.9-1.7-1.4-1.7-2.9 0-3.1.16-1.7 1.3 1.1.8 1.2 1.3.42 1.3-.69.02-1.2.48-1.2 1s1 .96 2.2.92 1.7-.31.96-.6zm8.4-.93c-.45-1.2-.19-1.4.89-1 .92.35 1.5.01 1.5-.89 0-.81-.64-1.5-1.4-1.5s-2.2-.26-3.2-.58c-1.7-.54-1.7-.51-.06.57.98.62 1.5 1.6 1.2 2.1-.32.52-.3 1.4.04 1.9.99 1.6 1.8 1.2 1.1-.61zm16-.45c0-.52-.45-.94-1-.94s-1 .7-1 1.6.45 1.3 1 .94 1-1 1-1.6zm49-.4c.12-.83-.37-1.2-1.2-.86-1.5.58-1.8 1.6-.73 2.6.82.83 1.7.06 1.9-1.8zm16 1.5c-.34-.55-1.4-.99-2.3-.98-1.5.01-1.5.14-.19.98 2 1.3 3.3 1.3 2.5 0zm36-.64c.23-.2-2-.32-5-.26-4.2.08-4.8.28-2.9.88 2.2.69 6.8.33 7.9-.62zm82-.83c2.1-.36 3.6-.89 3.4-1.2-.7-.71-13 1.7-13 2.7-.26.43.99.41 2.8-.05 1.8-.45 5-1.1 7.1-1.5zm35 1.5c0-.55-.7-1-1.6-1s-1.3.45-.94 1 1 1 1.6 1 .94-.45.94-1zm-43-2c.82-.41 4-1.1 7-1.4s6.4-.95 7.5-1.3c1.7-.52 1.6-.7-.96-1.4-2-.55-3.2-.42-3.8.41-.67.96-.97.95-1.4-.03-.63-1.6-4.4-1.7-4.1-.12.28 1.3-2.6 2-9.2 2.2-3.3.14-4.6.64-4.8 1.8-.26 1.4.38 1.5 4 1.1 2.4-.3 5-.89 5.8-1.3zm68 1.3c-1.2-.23-3.3-.23-4.5 0-1.2.24-.23.44 2.2.44s3.5-.2 2.2-.44zm-311-1.1c0-.43-.9-.78-2-.78s-2 .35-2 .78c0 .44.9.79 2 .79s2-.35 2-.79zm24-.21c-.34-.55-1-1-1.6-1s-.94.45-.94 1 .7 1 1.6 1 1.3-.45.94-1zm87-.4c-.71-.76-1.7-1.2-2.2-.87s-.24.91.5 1.4c2.1 1.3 3.1 1 1.6-.51zm9.8-.07c1.2-.92 1.4-1.5.62-1.5-.73-.02-2 .64-2.8 1.5-1.9 1.9-.34 2 2.2.03zm26 .07c-.71-.76-1.6-1.2-2-.96s-3.7-.08-7.3-.72c-5.8-1-8.7-.81-7.4.53.47.48 12 2.2 16 2.4 1.9.1 2.1-.11 1-1.3zm10 1c-.23-.19-2-.64-3.9-.99-2.5-.46-3.1-.36-2 .34 1.4.88 6.9 1.5 5.9.65zm48-1c1.7-.9.96-1.1-4.1-1.1-3.4-.01-12-.32-18-.67s-11-.28-9 .17c2.7.73 2.5.82-2 1-4 .18-4.5.37-2.5 1 3.9 1.2 33 .89 36-.38zm16 .24c-.57-1.7-3.6-1.9-4.2-.24-.37.97.24 1.4 2 1.4 1.5 0 2.4-.48 2.2-1.2zm-150-.84c-1.1-.47-2.7-.86-3.5-.86-.95 0-.76.32.5.86 1.1.47 2.7.86 3.5.86.95 0 .76-.32-.5-.86zm109 .29c1.2-.24 3-.23 4 .02.96.25-.06.45-2.3.44s-3-.22-1.7-.46zm100-3.8c-.32-1.7.11-2.5 1.6-3 1.1-.35 2.6-1.3 3.3-2.2 1.3-1.6-1.5-.76-11 3.3-4 1.6-4.9 3.2-2 3.3 1.5.01 1.5.15.25.98-1.3.86-1.3.97.03.98.84.01 2.5-.68 3.8-1.5 2.4-1.7 3-.68.97 1.4-1 1-.76 1 1.3.11 2-.89 2.5-1.7 2.2-3.5zm-255 2.5c-.34-.55-1.4-.99-2.3-.98-1.5.01-1.5.14-.19.98 2 1.3 3.3 1.3 2.5 0zm71 0c-.34-.55-1.3-1-2.1-1-.82 0-1.2.45-.88 1s1.3 1 2.1 1c.82 0 1.2-.45.88-1zm11-.89c1.2-1.9.8-3.1-.93-3.1-.49 0-.6.47-.24 1 .35.58.1 1.7-.57 2.5-.66.8-.81 1.5-.32 1.5.48 0 1.4-.85 2.1-1.9zm54 .45c-2.2-.68-3.5-1.5-3-1.7.55-.28.39-.35-.34-.17-.73.19-2.5.39-4 .45-1.7.07-.66.58 2.8 1.4 7 1.6 9.7 1.7 4.5.06zm157 .38c.45-.73-.57-.85-3.2-.37-5.1.92-5.5 1.4-1.1 1.4 2 0 3.9-.48 4.3-1.1zm-254-.94c0-.55-.7-1-1.6-1s-1.3.45-.94 1 1 1 1.6 1 .94-.45.94-1zm64 0c0-.55-.93-1-2.1-1s-1.8.45-1.4 1 1.3 1 2.1 1 1.4-.45 1.4-1zm71 0c-1.2-.76-.89-.97 1.2-.98 1.5-.01 2.8-.47 2.8-1s-.79-1-1.8-1c-2.8-.02-23-1.8-28-2.4-3.2-.42-3.9-.31-2.5.36 1.1.52 3.7.98 5.8 1s3.8.52 3.8 1.1 1.6 1 3.5 1 3.5.45 3.5 1 .93 1 2.1 1 1.8-.45 1.4-1 .31-1 1.4-1c1.2 0 2.1.65 2.1 1.5 0 1 1 1.5 3.2 1.5 2.5-.01 2.9-.24 1.8-.98zm138 0c1.3-.84 1.3-.97-.19-.98-.93-.01-2 .43-2.3.98-.78 1.3.54 1.3 2.5 0zm-190-1c-.82-.53-2.8-1-4.5-1.1l-3-.14 3-.69c2.7-.62 2.3-.86-4.1-2.4-8.5-2-13-3.6-10-3.6 1.1-.04 1.5-.51 1.1-1.2-.49-.81-.15-.95 1.1-.47 1 .39 3.4.91 5.4 1.2 3 .38 2.8.17-1.7-1.4-5.1-1.8-8.8-4-4.7-2.8 5.4 1.6 26 6.7 27 6.7.54 0 .81-.49.61-1.1s-2.6-1.2-5.3-1.4c-2.7-.17-5.1-.81-5.3-1.4-.2-.61-1.3-1.1-2.4-1.1-3.1 0-15-3.3-15-4.2 0-.43 1.2-.79 2.6-.79 1.6 0 2.3-.41 1.9-1.1-.47-.76.29-.92 2.4-.5 7.6 1.5 9.6 1.7 8.4.9-1.4-1 13-.8 17 .23 1.5.39 2.8.31 2.8-.18 0-.87-17-5.4-18-4.7-.22.19 1.1 1 3 1.8 3.3 1.4 3.3 1.5.72 1.5-1.5.02-3.4-.63-4.2-1.5-.87-.87-2.2-1.2-3.2-.83-1.1.43-1.5.28-1.1-.4.36-.58-.04-1.3-.9-1.7s-1.3-1-.98-1.5c.64-1-6.2-3.6-7.2-2.7-.33.33.03.64.81.7.78.05.33.4-.99.77-2.2.61-1.8 1 4 4 5.2 2.7 5.8 3.2 3.1 2.7-1.8-.31-4.6-1.5-6.2-2.6-1.6-1.1-3.5-2-4.3-2-2.4 0-4.7-1.1-4.2-2 .27-.44-.5-.54-1.7-.23l-2.2.58 2.2.98c1.2.54 2.2 1.4 2.2 1.9s1.5 1.6 3.2 2.4c3.4 1.6 3.3 1.6-5.2-.06-2.9-.55-3.2-.47-1.7.48 1.8 1.1 1.8 1.2 0 2.5-1.7 1.3-1.7 1.4.51.95 1.3-.23 3.2-.69 4.2-1 3.2-1 2.2.52-1.3 2l-3.2 1.4 6.9 2.8-5.1-.24c-6.1-.28-10-2.1-8.2-3.5.93-.61.39-.72-1.6-.31-2 .41-2.6.3-1.7-.33 1-.72.8-1.1-1-1.6-1.3-.33-2.5-.16-2.7.38-.19.55-.95 1.6-1.7 2.4-1.1 1.1-.95 1.5 1.1 2.5 3 1.4 5.7 1.5 5 .22-.31-.5.38-.66 1.5-.36 1.4.37 1.7.79.9 1.3-.86.53-.88.93-.09 1.4.61.38 1.1.24 1.1-.31 0-.88 1.5-.91 9-.18.82.08.15.77-1.5 1.5-2.4 1.1-2.6 1.4-1 1.5 1.9.15 1.9.17.07.91-1.7.65-1.7.83-.3 1.4 1.1.42 1.8-.03 2.2-1.3.61-1.9 2.5-2.8 2.5-1.1 0 .48 2.7 1.4 6 2.2 3.3.7 5.9 1.4 5.8 1.5-.15.12-1.6.52-3.3.89-2.3.52-2.7.42-1.5-.43 1.2-.89 1.1-.99-.52-.53-1.1.31-3.5.14-5.2-.36-1.8-.51-3.2-.55-3.2-.08 0 .98 9.8 3.3 11 2.6.43-.27 2.8-.1 5.2.38 2.4.47 5.1.9 5.9.96 1.3.08 1.3-.02 0-.88zm72-.5c.4-1-.06-1.5-1.4-1.5-1.1 0-1.8.42-1.4.94.32.51-.89 1.1-2.7 1.3-2.9.36-2.8.42.87.56 2.9.11 4.3-.3 4.7-1.3zm-139-.5c-1.1-.47-2.7-.86-3.5-.86-.95 0-.76.32.5.86 1.1.47 2.7.86 3.5.86.95 0 .76-.32-.5-.86zm150-.32c-.39-1 .82-1.2 5.5-.88 3.3.24 7.2.14 8.6-.22 2.2-.55 2.4-.92 1.4-2.1-.67-.8-1.7-1.4-2.3-1.4-.62 0-.45.45.37.98 1 .67-1 .97-6.8.98-7.6.02-8.2.18-8.2 2 0 1.1.44 2 .97 2s.74-.59.46-1.3zm5.8.66c-.68-.27-2-.29-3-.03-.97.25-.42.47 1.2.5 1.6.02 2.4-.19 1.8-.47zm-234-2.4c-.83-1.4-3.2-1.1-3.7.45-.37.97.16 1.2 1.9.89 1.3-.25 2.2-.86 1.8-1.3zm91 1.3c0-.46-1.6-1.3-3.5-1.9-2-.6-3.5-.68-3.5-.17 0 .5.87.91 1.9.91s2.2.45 2.6 1c.75 1.2 2.5 1.3 2.5.17zm20-.17c-.34-.55-.11-1 .5-1s.83-.47.47-1c-.44-.72-1.1-.68-2 .11-1.4 1.2-1 2.9.7 2.9.55 0 .72-.45.38-1zm151-.42c2.1-.73 3.5-.94 3.2-.46-.29.49.15.88.99.88 1.7 0 11-4.2 11-5.1.16-.36 1.3-.46 2.5-.23l2.2.42-2.2-1.2c-1.7-.9-2.9-.87-5.4.14-1.7.71-4.3 1.4-5.8 1.5-4.1.32-6.5 1.1-10 3.4-3.9 2.4-2.3 2.7 3.3.67zm-203-1.1c-.38-.99.17-1.8 1.6-2.3 1.6-.6 1.8-1 .84-1.6-.85-.53-1.9.02-3.1 1.6-1.3 1.7-1.5 2.6-.61 3.1 1.7 1.1 2 .96 1.3-.76zm5.4.54c0-.55-.42-1-.94-1s-1.2.45-1.6 1 .08 1 .94 1 1.6-.45 1.6-1zm43-2.3c-.31-.5-.92-.31-1.4.41-.44.72-.56 1.7-.25 2.2s.92.31 1.4-.41c.44-.72.56-1.7.25-2.2zm150 .71c1.2-.79 2.2-1.9 2.2-2.5 0-.62.91-.76 2.2-.35 1.2.38 1.9.35 1.6-.05-.89-.94 2.1-4 3-3.1.37.37.01 1.1-.8 1.6-2.7 1.7.15 1 3.1-.76 3.3-2 4-3.9.75-2.2-1.8.96-2.1.9-1.6-.37.91-2.4-.4-2.9-3-1.1-1.3.87-3.3 1.4-4.4 1.1-1.1-.28-3.6.14-5.6.94-3.3 1.3-3.5 1.3-1.8-.08 1.1-.84 2.3-1.5 2.8-1.5.45 0 .81-.34.81-.76 0-2.3-18 .39-21 3.1-1.4 1.4 7.8.64 11-.87l3.2-1.6-2.5 2c-1.4 1.1-3 2.1-3.5 2.1s.08.52 1.4 1c1.3.53 2.6.73 2.9.44.29-.29-.11-.53-.89-.54-1.2-.01-1.2-.18.08-.98 2-1.3 3.3-1.3 2.5 0-.9 1.5 1.2 1.2 4.6-.53 1.6-.83 3-1.1 3-.56 0 .52-1 1.3-2.2 1.6-3.9 1.2-8.8 4.6-8.1 5.6.79 1.3 7.1.16 10-1.8zm40 .94c.68-.64 2-.97 3-.73s3.6-.72 5.8-2.1c2.9-1.9 3.3-2.4 1.5-1.9-1.4.37-2.9 1.1-3.4 1.6s-1.9.89-3.1.89c-2.4 0-9.4 2.7-9.4 3.6 0 .94 4.4-.02 5.7-1.2zm11 .73c.33-.52-.98-.78-3-.59-4.8.45-5.7 1.5-1.2 1.5 2 0 3.9-.42 4.2-.93zm6-.07c.78-1.3-.54-1.3-2.5 0-1.3.84-1.3.97.19.98.93.01 2-.43 2.3-.98zm-97-1c.37-.6-.82-1-2.9-1-2 0-3.6.45-3.6 1s1.3 1 2.9 1 3.2-.45 3.6-1zm-136-2.6c-2.3-1.7-4.8-1.8-4.2-.1.23.69.9 1.2 1.5 1.2s1.4.33 1.8.72c.39.4 1.2.44 1.7.1.6-.37.26-1.2-.83-2zm12 .71c.74-1.4.7-2.1-.12-2.6-.68-.42-.89-.28-.51.33.36.58-.05 1.3-.91 1.6s-1.3 1-.93 1.6c.88 1.4 1.3 1.3 2.5-.93zm60 .94c-1.1-.47-2.7-.86-3.5-.86-.95 0-.76.32.5.86 1.1.47 2.7.86 3.5.86.95 0 .76-.32-.5-.86zm38 0-8-.63 18-.44-4.7-3.9 3.9-.02c2.9-.01 3.5-.26 2.4-.98-.82-.53-3.5-.98-5.9-.98-4.1-.02-4.3-.13-2.5-1.5 1.7-1.3 1.7-1.5.24-1.5-2.5-.04-6.8-2.2-6.2-3.1.27-.43 2.5-.1 5 .74 2.5.83 5 1.4 5.6 1.1s-2.4-1.6-6.7-3.1c-9.2-3.2-16-4.4-15-2.8.37.59 2.4 1.4 4.6 1.7s4.2 1.1 4.6 1.7c.4.65-.24.78-1.8.36-6.5-1.8-6.6-1.8-6.6-.22 0 .87.72 1.6 1.6 1.6 1.4.01 1.4.13.08.98-1.2.75-.82.99 1.5 1 4.6.13 8.7.77 9.4 1.5.35.36-2.1.5-5.5.31s-6.5-.01-6.9.4c-.42.41-.02.75.88.75 1 0 1.4.54 1.1 1.5-.42 1.1.18 1.5 2.3 1.6 1.7.07 2.2.3 1.1.57-.97.25-1.5.88-1.2 1.4.31.5-.7.96-2.2 1l-2.8.1 2.5.8c1.4.44 6.3.76 11 .72l8.5-.09-8-.63zm161-.52c1.9-2.3.55-2.8-1.5-.49-1 1.1-1.4 2-.79 2s1.6-.69 2.3-1.5zm-113-1.5c2.1-1.4 2.5-2 1.2-2-.96-.01-1.8.44-1.8.99s-.68 1-1.5 1-1.5-.54-1.5-1.2c0-.93-.27-.93-1.2 0-1.5 1.5-8.9 1.6-8.6.08.14-.62-.43-1.3-1.2-1.6-1.2-.37-1.2-.27-.14.5 1.1.77 1.1 1.1.06 1.8-1.9 1.2 1.5 2.3 7.1 2.4 2.9.04 5.6-.64 7.5-1.9zm-96 0c-.82-.53-2.2-.94-3-.91-.99.03-.82.34.5.91 2.8 1.2 4.3 1.2 2.5 0zm78 .14c0-.48-1.1-.65-2.5-.38-1.4.26-2.5.65-2.5.86s1.1.38 2.5.38 2.5-.39 2.5-.86zm-226-1.1c-.33-.55-1.6-1.5-2.8-2.1-2.1-1-2.1-.95.17.99 2.6 2.2 3.6 2.7 2.6 1.1zm60-2.3c1.1-2.2 1.1-2.2-.99-.29-1.2 1-2.2 2.3-2.2 2.8 0 1.4 1.9-.08 3.1-2.5zm33 1.8c.36-.93.18-1.3-.44-.92-.56.36-1.7.1-2.5-.57-1.2-.97-1.5-.9-1.5.34 0 .86.79 1.8 1.8 2s1.8.51 1.9.57c.08.07.41-.58.74-1.4zm89 .69c0-.48-1.1-.65-2.5-.38-1.4.26-2.5.65-2.5.86s1.1.38 2.5.38 2.5-.39 2.5-.86zm171-1.2c1.8-1.2 3.4-1.6 3.4-1 0 .59.5 1.1 1.1 1.1s.83-.71.5-1.6c-.33-.87-.14-2.4.43-3.5 1.6-2.9.53-2.4-5 2.6-5.5 4.9-5.6 5.7-.37 2.4zm-180 .39c-1.1-.26-4.4-1.1-7.2-1.8s-5.2-.95-5.2-.48c0 1 7.3 2.8 12 2.7 1.9-.01 2.3-.18 1-.47zm110-2.5c0-1.2-.68-1-4 .7-3.9 2-3.7 2.5.55 1.2 1.9-.59 3.5-1.4 3.5-1.9zm12 .57c-.7-.7-3.7.71-3.7 1.7 0 .51.94.43 2.1-.19 1.1-.61 1.9-1.3 1.6-1.6zm39 1.3c.46-.46.38-.75-.17-.63-2.2.44-2.7-.13-1.4-1.7 1.2-1.4.87-1.4-1.9.22-1.8 1-3.2 2.2-3.2 2.5 0 .9 5.7.59 6.7-.36zm7.8-.67c2.3-2.6.76-2.6-2.5 0-1.8 1.4-2.1 2-.9 2 .87.01 2.4-.88 3.4-2zm-240 0c0-.55-.7-1-1.6-1s-1.3.45-.94 1 1 1 1.6 1 .94-.45.94-1zm122 0c-3.6-1.2-7-1.2-7 0 0 .55 2.1.96 4.8.9 3.9-.08 4.3-.25 2.2-.9zm-183-.86c.3-.47.28-1.1-.03-1.4-.79-.78-3.4.29-3.4 1.4 0 1.1 2.7 1.2 3.4.03zm200-.76c0-.21-1.1-.38-2.5-.38s-2.5.39-2.5.86c0 .48 1.1.65 2.5.38 1.4-.26 2.5-.65 2.5-.86zm86-.25c1.4-.11 1.6-3 .22-3.8-.64-.36-.83-.3-.43.15.4.44-.5 1.9-2 3.2-1.8 1.6-2.1 2.1-.73 1.4 1.1-.54 2.4-1 2.9-1.1zm-290-.98c0-.4-.93-.79-2.1-.88-1.7-.13-1.8.11-.88 1.3 1.1 1.4 3 1.1 3-.4zm70 1.2c-.35-.35.23-1.7 1.3-3.1 1.6-2 1.7-2.8.77-4.3-.64-1-1.4-1.8-1.7-1.8-.3.03-.77-.03-1-.13-1.8-.66-6-.79-6.4-.19-.25.4.46.79 1.6.88 1.1.08 3.1.87 4.5 1.8l2.4 1.6-2.1 3c-1.9 2.7-1.9 3-.37 3 .95 0 1.4-.29 1.1-.63zm60-.54c-2.4-1-2.4-1.1-.5-2 1.7-.78 1.6-.84-.5-.4-1.4.27-3.6.56-5 .62-2 .1-1.8.36 1.5 1.4 4.8 1.6 8.1 1.8 4.5.3zm60 .17c0-.55-1.5-.99-3.2-.98-2.5.01-2.9.24-1.8.98 2 1.3 5 1.3 5 0zm-123-2.6c1.4-3.5 1.2-4.3-.47-2.1-1.2 1.5-1.8 1.6-3.6.67-1.2-.64-2.4-.94-2.7-.67s.44.78 1.6 1.2c1.2.36 2.1 1.3 2.1 2.1 0 2.4 2 1.6 3-1.1zm113 1.6c-.82-.53-2.2-.94-3-.91-.99.03-.82.34.5.91 2.8 1.2 4.3 1.2 2.5 0zm98-1.5 3-2.5-2.6-.03c-1.4-.02-3.4.61-4.5 1.4-1.8 1.4-1.8 1.4.56.88 2.4-.57 2.4-.54.5 1-1.1.88-1.6 1.6-1 1.6.55.02 2.4-1.1 4-2.4zm5.1-.53c.36 0 .38.67.07 1.5-.8 2.1.71 1.9 2.8-.39 1.6-1.8 1.6-1.9-1.2-1.7-1.6.08-4 .97-5.3 2l-2.4 1.8 2.7-1.6c1.5-.87 3-1.6 3.4-1.6zm-278 0c-.79-.49-1.7-.67-1.9-.39-.28.27.15.9.94 1.4s1.7.67 1.9.39c.28-.27-.15-.9-.94-1.4zm162 1c-.34-.55-1.3-1-2.1-1s-1.4.45-1.4 1 .93 1 2.1 1 1.8-.45 1.4-1zm44-1.5 4.9-2.5-6 .63c-6.2.66-8.6 1.4-4.6 1.4 1.2 0 2 .45 1.6 1-.4.64-1.3.67-2.4.07-1.9-1-11-.2-9.3.82.55.34 3.2.73 6 .88 3.7.21 6.2-.35 9.8-2.2zm-108 .47c0-.55-1-.99-2.2-.98-1.8.01-2 .2-.75.98 1.9 1.2 3 1.2 3 0zm12 0c0-.55-1-.97-2.2-.93-2.2.07-2.2.11-.25.93 1.1.47 2.1.89 2.2.93s.25-.38.25-.93zm-67-1.5c-2.2-1.7-3.6-1.9-3.6-.54 0 .51.79 1.1 1.8 1.4 3.3.86 3.8.63 1.8-.84zm75 .53c-1.1-.47-2.7-.88-3.5-.91-1.3-.05-1.3.05 0 .91.82.53 2.4.94 3.5.91l2-.05-2-.86zm48-.38c.92-1.1.62-1.5-1.5-2-1.5-.37-2.4-.87-2.2-1.1s1.8-.01 3.4.54c4.6 1.6 12 2.8 12 2 0-.43-1.9-1.1-4.2-1.5-3.4-.59-3.9-.88-2.2-1.5 1.1-.43 1.4-.82.75-.86s-1.2-.93-1.2-2c0-1.5-1-2-5.1-2.6-3.7-.51-4.8-.97-3.8-1.7 1.1-.79 1.1-.89-.12-.56-.82.22-1.6 1.3-1.8 2.5-.23 1.5.4 2.2 2.5 2.7 1.7.43 2.9.28 3.1-.37.2-.6.82-1.1 1.4-1.1.65 0 .6.52-.14 1.4-.94 1.1-.81 1.5.63 1.8.99.21-.56.38-3.4.39-2.9.02-4.8-.28-4.2-.64.69-.43.51-.89-.51-1.3-.87-.33-1.6-.17-1.6.36s-.66.97-1.5.97c-.89 0-1.2-.59-.89-1.5.31-.83.11-1.5-.45-1.5s-1.2.51-1.4 1.1c-.25.75-.94.58-2-.49-1.2-1.2-1.7-1.3-2-.38-.33.97-.75.96-2-.06-.86-.71-1.8-.92-2.1-.45-.52.84 13 6.3 18 7.2.28.05-.18.53-1 1.1-1.3.84-1.3.97.13.98.89.01 2.1-.6 2.8-1.4zm58-.14c.48-1.2.22-1.3-1.4-.47-2.3 1.2-2.5 2-.59 2 .77 0 1.7-.69 2-1.5zm19 .48c1.1-.56 1.9-1.5 1.9-2.2 0-.63-.8-.4-1.8.54-1 .91-2.2 1.6-2.8 1.6-.51-.01.43-1.1 2.1-2.5 2.4-2 2.6-2.5 1.2-2.5-.99-.02-1.5-.49-1.2-1 .99-1.6-.73-1.2-4.5 1.2-2 1.2-3 2.3-2.2 2.6.69.24.94.95.55 1.6-.44.74-.12.7.88-.12 1.3-1 1.7-1 2.2.25.69 1.8 1.2 1.9 3.7.49zm9.5-.71c1.7-1.7 1.7-1.8-.06-2.1-1-.19-2.2.26-2.7 1-2 3.2-.1 3.9 2.7 1.1zm11 .01c.52-1.3.37-1.4-1.1-.15-1.3 1.1-1.8 1.1-2.1.14-.55-1.7-4.2-1.6-4.2.05 0 1.9 6.7 1.9 7.4-.04zm-68-.8c.49.3 3.1-.44 5.7-1.6s5.5-2.3 6.3-2.4 3.1-.7 5-1.3c3.2-.95 3.3-.91 1.6.42-1.1.81-2.3 1.5-2.8 1.5-.45 0-.81.42-.81.94s1.2.3 2.8-.49c4.4-2.3 9.3-2.9 10-1.3.58.9.88.97.89.19.01-.66-.43-1.5-.98-1.8s-1-1.5-1-2.6c0-1.9-.13-1.9-2.8-.33-2.7 1.6-2.7 1.6-.75-.24 1.1-1 2.7-2.8 3.5-3.8 1.8-2.3 1.1-2-5.8 2.7-2.4 1.6-4.5 2.7-4.8 2.5-.25-.24 1.3-1.6 3.4-3 2.1-1.4 4.1-3.5 4.4-4.7.49-1.9.36-2-1.1-.83-.92.72-3.9 3.4-6.6 6.1s-5.5 4.8-6.2 4.8c-.71 0-1.3.39-1.3.86 0 .48-1.1.65-2.5.38-1.4-.26-2.5-.07-2.5.43s-1 .95-2.2 1c-1.6.07-1.2-.36 1.5-1.5 2.7-1.2 3.8-2.3 3.8-3.8.01-1.9-.33-2.1-3.2-1.3-7.5 1.9-8 1.9-4 .23 5.2-2.2 7.7-4.4 4.2-3.6-2.2.49-2.3.43-.58-.96 2.4-2 .63-3-3.6-2.2-2.4.47-2.8.36-1.7-.41.82-.58 2.3-1.1 3.2-1.1.93-.01 1.9-.42 2.2-.91.51-.83-2.4-.31-8.1 1.4-1.2.37-2.4 1.6-2.7 2.8-.93 3.5-.7 9.7.36 9.7.53 0 .71-.67.39-1.5-.31-.83-.05-1.5.59-1.5s.89.45.55 1-.09 1 .55 1c.65 0 .11.86-1.2 1.9-3 2.4-1.8 3.8 1.9 2.2 2.4-1 2.5-1 1 .19-2.4 1.9-2.2 3 .27 1.6 1.1-.6 2.4-.84 2.9-.53zm35-1c1.3.79 8.1-5.2 8.1-7 0-.79-.65-1.7-1.4-2-.85-.33-1.2-1.2-.81-2.2.52-1.4.37-1.5-.9-.43-.85.68-1.8 1-2.1.72s-.41.54-.26 1.8c.17 1.6-1 3.8-3.6 6.7-4.2 4.6-5.2 6.4-2 3.6 1.1-.97 2.4-1.5 2.9-1.1zm-266-.56c-.59-.95-1.5-1.4-2.1-1.1-.6.37-.48.79.31 1 1.1.36 1.1.6-.03 1.3-.97.59-.75.79.76.67 1.8-.13 1.9-.46 1-1.9zm80 .61c-1.1-.81-2.4-1.5-3-1.4s-.19.69.88 1.5 2.4 1.5 3 1.4.19-.69-.88-1.5zm31 .36c-.49-.81-.13-.96 1.2-.5 1.8.65 1.8.63.05-.77-1.4-1.1-2.1-1.2-3.1-.25-.94.87-.98 1.4-.14 1.9 1.7 1.1 2.8.91 2-.4zm146 .1c1.1-1.7-.15-2.1-1.5-.45-.79.95-.86 1.5-.2 1.5.58 0 1.4-.48 1.7-1.1zm72-4c-.61-.99-5.1 1.9-5.8 3.8-.27.65 1.1.27 3-.85 1.9-1.1 3.2-2.4 2.9-2.9zm-9.1 2.9c-.23-.38.37-1.1 1.3-1.7.97-.55 1.5-1.3 1.1-1.7-.38-.38-2.1.29-3.7 1.5-3 2.1-3.1 2.1-3.1.17 0-1.1.45-2.3 1-2.6 1.3-.82 1.3-3.5-.06-3.5-.58 0-.81.4-.51.88.3.49-.51 2.4-1.8 4.3l-2.3 3.4 4.3-.08c2.3-.04 4.1-.39 3.8-.77zm21-1.3c.7-.84 1-1.8.72-2.1-.66-.67-4.7 1.8-4.7 2.8 0 1.3 2.7.82 4-.76zm-180-.7c0-.4-1.6-.66-3.5-.59-2 .08-3 .46-2.4.86 1.5.9 5.9.7 5.9-.27zm-72-.78c-.34-.55-1-1-1.6-1s-.94.45-.94 1 .7 1 1.6 1 1.3-.45.94-1zm60 0c-.82-.53-2.2-.94-3-.91-.99.03-.82.34.5.91 2.8 1.2 4.3 1.2 2.5 0zm68-1.2c-.34-.55-1.2-.46-2 .23-1.9 1.6-1.8 1.8.58 1.2 1.1-.28 1.7-.94 1.4-1.4zm83 .02c1.9-2.1 1.9-2.1-.35-.76-1.2.76-2.2 1.7-2.2 2.1 0 1.2.56.91 2.6-1.4zm-87 .34c.63-1-3.9-.96-5 .05-.42.41.42.75 1.8.75 1.4 0 2.8-.36 3.1-.8zm15 0c0-1.2 6.8-3.7 7.7-2.8.3.3-.74.86-2.3 1.2s-3.4 1.1-4.1 1.7c-.83.65-1.2.63-1.2-.06zm-157-1.7c-2.3-1.8-3.2-1.8-4.2-.32-.39.64-.28.89.24.57.53-.32 1.6-.17 2.4.33 2.4 1.5 3.6 1 1.5-.58zm33 .53c-1.3-.82-1.3-.97-.05-.98 2.1-.03.1-1.6-3-2.4l-2.5-.65 2.5 1.5c2.3 1.4 2.3 1.5.5 1.6l-2 .11 2 .86c2.8 1.2 4.3 1.2 2.5 0zm234-1.2c1.9-2.1 1.9-2.1-.1-1-1.1.61-2.7 1.6-3.5 2.1-1.3.89-1.3 1 .1 1 .87.01 2.4-.95 3.5-2.1zm-345-.35c-.31-.83-.96-1.5-1.4-1.5-.47 0-.6.67-.28 1.5.31.83.96 1.5 1.4 1.5.47 0 .6-.67.28-1.5zm104-.5c-.79-.49-1.7-.67-1.9-.39-.28.27.15.9.94 1.4s1.7.67 1.9.39c.28-.27-.15-.9-.94-1.4zm64 1.5c0-.26-1.2-1.2-2.8-2.1s-2.1-1.4-1.2-1.2c6.4 1.8 6.5 1.8 5 .73-.82-.61-2.8-1.8-4.4-2.7-2.6-1.4-2.8-1.4-2.3-.04.46 1.2-.02 1.4-2.1 1.2-1.5-.19-3-.38-3.4-.42-.39-.04-.48-.69-.19-1.4s-.24-1.7-1.2-2c-1.5-.58-1.5-.45-.31 1 1.2 1.5 1.2 1.6-.86 1.1-1.2-.32-2.5-.16-2.8.35-.32.51-.21.82.25.69.45-.13 1.8.32 3 .99 1.2.68 3.6 1.4 5.3 1.6s3.6.87 4.2 1.5c1.1 1.1 3.7 1.6 3.7.65zm170-.78c.03-.69.36-2.2.74-3.2.45-1.3.17-1.1-.79.49-.82 1.4-1.3 2.8-1 3.2.67 1.1 1 .94 1.1-.49zm-238-1.2c1-1.2.96-1.5-.27-1.5-.83 0-1.8.67-2.1 1.5-.32.83-.2 1.5.27 1.5.46 0 1.4-.67 2.1-1.5zm90 .05c.51.31.92.06.92-.56 0-.69.82-.87 2.1-.45 1.4.45 1.9.31 1.4-.43-.42-.68.12-1.1 1.4-1.1 2 0 2.4 1.8.77 3.1-.43.32.58.59 2.2.59 1.9 0 3-.51 3-1.4 0-.79-.49-1.1-1.2-.67-.74.45-.89.27-.4-.51.47-.78.01-1.4-1.3-1.8-1.1-.29-2.3-1.2-2.6-1.9s-1.7-1.4-3.1-1.4c-1.7 0-2.3-.4-1.9-1.2.44-.72.27-.89-.45-.45-1.8 1.1-1.4 2.6.68 2.6 1 0 1.8.67 1.8 1.5s-.85 1.5-1.9 1.5c-1 0-1.6-.4-1.3-.9.3-.49-.13-1.2-.97-1.5-1.2-.47-1.3-.21-.51 1.3.85 1.6.54 2-2 2.9-1.6.57-3 1.3-3 1.6s1.2.09 2.6-.45c1.4-.54 3-.73 3.5-.42zm29-.3c2.1-1.1 3.1-2.4 2.9-3.5-.24-1.2.34-1.8 2-1.8 1.3-.06-.79-.72-4.6-1.5-3.8-.76-7.4-1.8-8-2.4-1.6-1.6-2.6-1.2-2.6.77 0 .99-.47 2.3-1 2.8-.73.73-.59 1.4.44 2.3.81.67 1.2 1.8.96 2.6-.34.89.44 1.5 2.3 1.8 1.6.23 3.2.49 3.6.57.42.08 2.2-.64 4-1.6zm6.7.16c0-2.2-1.4-2.3-4-.39l-2.5 1.9 3.2-.09c1.9-.06 3.2-.62 3.2-1.4zm28-2c2.3-2 4.2-4.2 4.2-5s.48-1.4 1.1-1.4.78-.45.44-1-1.1-1-1.7-1c-.6 0-.81.29-.46.64.36.36-1.7 1.9-4.6 3.4-4.2 2.2-5.2 3.3-5.3 5.4-.14 3.5 1.5 3.3 6.4-.99zm76-.57c0-1.8-1.7-.71-2.9 1.9-1.2 2.7-1.2 2.7.84.85 1.1-1 2.1-2.3 2.1-2.7zm5.7-.46c-.37-.37-1.4-.11-2.2.59-.83.7-1.5.91-1.5.48 0-.44-.24-.56-.52-.27-.29.29-.23 1.3.14 2.2.6 1.6.82 1.6 2.7-.33 1.1-1.1 1.8-2.4 1.4-2.7zm-332 2.7c0-1.7-1.8-2.1-2.4-.55-.35.9 0 1.5.89 1.5.81 0 1.5-.42 1.5-.94zm128-.55c.1-.52-1.3-1-3.1-1.1-3.8-.19-4.1.31-1 1.6 2.6 1 3.8.89 4.1-.46zm187-.74c1.1-1.7.98-1.8-.81-.82-2.6 1.4-3.4 2.7-1.7 2.7.72 0 1.8-.86 2.5-1.9zm-250-.21c-.31-.79-1.2-1.2-2-.89-1.7.65-.89 2.3 1.1 2.3.81 0 1.2-.61.86-1.4zm179 1.1c0-.77 8.2-5.8 8.7-5.3.27.28-1.3 1.7-3.6 3.1-3.9 2.5-5.1 3-5.1 2.2zm51-4.7c0-.98-.47-2.1-1-2.4-.65-.4-.7-1.1-.13-1.8.89-1.1 2.3-9.7 1.6-9.7-.98 0-3.8 7.6-3.9 11-.06 1.8-.44 3.7-.83 4.1-.4.4-.71 1.2-.7 1.8 0 .59.49.41 1.1-.42.86-1.2.97-1 .56.84-.5 2.3-.45 2.3 1.4.6 1.1-.96 1.9-2.6 1.9-3.5zm-153 3.7c0-.46-11-6.6-11-6.6-.29 0-.52.48-.52 1.1s2.4 2.1 5.2 3.4c5.3 2.4 6.8 2.8 6.8 2.1zm68-.32c4.7-.85 4.5-2.3-.3-2.3-4.3 0-5.6-.73-4.2-2.2.31-.3 2.6.07 5.1.82 2.5.76 5 1.1 5.4.83.48-.3.88.11.88.9 0 1.8-2.2 2.7-6.3 2.5-2.7-.11-2.8-.2-.67-.58zm131-2.5c1.6-1.8 2.9-4.1 2.9-5.2-.01-1.8-.32-1.7-2.5.97-1.4 1.6-2.5 2.5-2.5 2s.46-1.6 1.1-2.2.92-1.7.68-2.4c-.29-.85-1.1-.32-2.3 1.5-1.6 2.4-1.6 3-.43 3.7 1.1.7 1.2 1.1.17 2.1-1.3 1.3-1.7 2.8-.68 2.8.3 0 1.9-1.4 3.5-3.2zm4.8.96c.23-1.2-.13-1.6-1.2-1.2-2.3.87-3 3.6-.91 3.2.96-.18 1.9-1.1 2.1-2.1zm-145-.84c-.85-1.4-2.1-1.1-2.1.5 0 .78.6 1.2 1.3.9s1.1-.91.78-1.4zm71-2.9c3.1-6 3.2-6.9.6-4.5-2.6 2.3-2.6.48 0-3.7 2.9-4.7 2.5-5.9-.5-1.6-1.4 2-2.5 4.1-2.5 4.6s-.62 1.2-1.4 1.5c-.97.37-1.2-.04-.88-1.4.28-1.1.9-1.9 1.4-1.9.48 0 .88-.9.88-2s.48-2 1.1-2 .78-.45.44-1c-.93-1.5-2.5-1.2-2.5.47 0 .81-.58 1.2-1.3.97-.76-.29-1.7.65-2.3 2.3-.91 2.4-.99 2.1-.65-2.2.35-4.4.25-4.8-.91-2.8-1.1 1.8-1.5 1.9-2.5.8-.68-.74-.97-2-.64-2.9.9-2.3-.37-1.9-2.1.81-1.2 1.8-1.3 2.9-.49 4.8.99 2.3 1 2.3.61.14-.27-1.4.06-2.2.86-2.2.83 0 1.2 1.2 1.1 3.2-.31 4.8.31 6.1 2.2 4.5 1.4-1.1 1.5-1 .88.72-.62 1.8-.56 1.8.64.31s1.5-1.4 3.2 1.5c1 1.8 1.8 4 1.6 4.9-.48 3 .52 2 3.2-3.2zm12 2.2c-.32-.84-.07-2.1.56-2.9 1.5-1.8.13-1.8-1.8.13-1.6 1.6-.93 6 .78 4.9.55-.34.73-1.3.41-2.1zm30 .69c2.6-2.6 1.5-4.8-1.1-2.4-1.7 1.6-2.6 4.4-1.4 4.4.27 0 1.4-.92 2.5-2zm-199 .32c0-.7-6.2-3.3-7.7-3.2-1.2.05-.87.42.96 1.1 1.5.56 2.6 1.3 2.3 1.7-.22.36.67.66 2 .66 1.3 0 2.4-.1 2.4-.22zm-58-2.8c-1.1-.81-2.4-1.5-2.9-1.5s-.13.66.94 1.5 2.4 1.5 2.9 1.5.13-.66-.94-1.5zm90 1c0-.26-1-1-2.2-1.7-2-1.1-2.1-1-.88.47 1.3 1.6 3.1 2.2 3.1 1.2zm36-.94c-.33-.86.29-1.6 1.6-2 2.8-.73 1.3-2.2-3.3-3.2-3.4-.71-3.5-.69-1.8 1.2.97 1.1 1.4 2.3 1 2.7-.4.39-.06 1.1.75 1.6 2 1.3 2.3 1.2 1.6-.44zm64-.13c2.9-1.5 4-3.5 1.9-3.5-.58 0-.75-.49-.38-1.1.49-.78.15-.81-1.2-.07-3.9 2.1-5.6 3.9-5 5 .91 1.5 1.1 1.4 4.6-.38zm29 .2c1.2.38 1.3.28.35-.41-.73-.52-1-1.8-.66-2.8.48-1.5.16-1.4-1.4.58-2.2 2.6-3 5.2-1 3.3.62-.62 1.9-.89 2.8-.61zm-159-1.2c-1.1-.81-2.6-1.4-3.5-1.4-1 .02-.66.54.94 1.5 3.3 1.9 5 1.8 2.6-.03zm79 .49c0-.71.6-.71 1.9 0 1.1.57 2.7 1 3.6 1 1.4 0 1.5-.27.44-1.5-1-1.2-.92-1.5.63-1.6 1.7-.07 1.7-.13-.13-.93-2.8-1.2-4.3-1.2-2.5 0 1.2.78 1.1.97-.75.98-1.2.01-2.2-.42-2.2-.95 0-.54-1.4-1.7-3-2.5-1.8-.91-3-1.1-3-.5 0 .57 1.1 1.6 2.5 2.2 1.4.63 2.5 1.5 2.5 2 0 1.2-1.4 1-2.8-.34-.65-.65-1.5-.87-1.9-.49s.17 1.4 1.2 2.2c2.3 1.7 3.4 1.9 3.4.48zm-44-4.8c-4.7-4.5-7.5-5.3-6.2-1.8.48 1.3 9 6.5 11 6.5.28.02-1.8-2.1-4.5-4.8zm-26 1.9c-.96-1.1-2.4-1.7-3.2-1.4-.78.3-1.4 0-1.4-.67s-.62-.98-1.4-.69c-.76.3-2 .01-2.6-.64-.98-.9-1.1-.89-.58.05.62 1.1 4.6 3.3 8.6 4.6 2.4.81 2.4.77.56-1.3zm12 .55c1.4-1.4 1-2.6-.75-2.6-.49 0-.61.45-.27 1s.14 1-.44 1-1.1.45-1.1 1c0 1.4.89 1.2 2.5-.38zm83-2c0-.63-2.1-2.2-4.8-3.4l-4.8-2.2 4.8.62c3.2.42 4.8.26 4.8-.51 0-.63-.16-1.1-.36-1.1-1 0-10-2-12-2.5-1.6-.55-1.6-.3.5 1.4 1.4 1.1 1.9 2.1 1.2 2.1-2 .03-1.5 2 .5 2 .96 0 3.1 1.3 4.8 2.9 2.9 2.8 5.5 3.1 5.5.78zm13 1.3c5.7-2 3.4-3.2-2.6-1.3-2 .61-2.8.33-2.4-.91.21-.74-.15-.69-.99.14-1.1 1.1-1 1.5.18 2.2 1.9 1.2 2.1 1.2 5.8-.13zm-68-1.4c-.7-.84-1.5-1.3-1.7-1.1-.7.69.71 2.6 1.9 2.6.66 0 .59-.57-.2-1.5zm119-5.2c.03-3.5-1.6-2.6-2.8 1.6-1.6 5.4-1.4 6 .84 3.1 1.1-1.4 2-3.5 2-4.8zm-124 3.8c-.36-.59-1.1-1.1-1.7-1.1-.66 0-.59.57.2 1.5 1.4 1.7 2.6 1.3 1.5-.45zm50-.58c-1.8-1.3-3.3-1.1-3.3.5 0 .98 3.1 1.9 4.3 1.2.45-.23 0-1-.99-1.7zm46-.21c.23-.15-.29-.28-1.2-.28-.85 0-1.8.74-2.2 1.6-.54 1.4-.4 1.5 1.2.28.97-.74 2-1.5 2.2-1.6zm-70 .08c-1.2-1.5-1.1-1.6 1.1-.95 2.4.67 2.4.63.55-.86-2.2-1.7-4-2.1-3.1-.55.34.55.12 1-.48 1-.71 0-.64.52.19 1.5 1.8 2 3.4 1.9 1.7-.1zm-48-.83c-1.1-.81-2.4-1.5-2.9-1.5s-.13.66.94 1.5 2.4 1.5 2.9 1.5.13-.66-.94-1.5zm45-2c-1.3-1.3-2.2-.2-1.4 1.9.52 1.4.83 1.4 1.5.4.45-.73.39-1.8-.12-2.3zm106 1.6c.6-1.8-1.5-1.4-2.2.39-.38.98-.15 1.4.58 1.2.65-.22 1.4-.93 1.6-1.6zm-110-1.5 2.5-2.4-2.5-1.2c-3-1.4-3.7-1.4-3-.24.31.51.22 1.1-.19 1.3-.42.23-.17.28.54.1.76-.19 1 .15.6.82-.47.76-.24.87.7.34 1.1-.64 1.2-.53.19.5-.98 1.1-1.5 1.1-2.7.03-.84-.69-1.2-1.8-.88-2.4.36-.63.29-.82-.14-.43-.44.4-1.6.27-2.7-.28-3-1.6-2.2.6 1.2 3.5 1.7 1.4 3.2 2.6 3.4 2.6.2 0 1.5-1.1 2.9-2.4zm25 1.5c.92-.29-.83-1.2-3.9-2.1-2.6-.74-3-.67-2.1.38.59.71.87 1.5.62 1.8-.39.38 4.1.38 5.4-.01zm127-1.9c-.69-.7-2.6.71-2.6 1.9 0 .66.57.59 1.5-.2.84-.7 1.3-1.5 1.1-1.7zm-187-.99c-1-1-1.8.51-1 1.9.63 1 .87 1 1.2.01.23-.7.15-1.5-.19-1.9zm90-2.4c.99-1.7 1.5-3.3 1.1-3.7-.4-.37-.93-.12-1.2.57s-1.3 1.2-2.3 1.2c-2.4 0-3.6 2-1.3 2.1 1.6.1 1.6.16.12.56-.95.25-1.5 1-1.2 1.8.75 2 2.7.91 4.8-2.6zm-83-.84c-1.5-1.8-2.7-2.5-2.9-1.8-.38 1.2 4.4 6 5.1 5.2.21-.21-.77-1.7-2.2-3.4zm6.3 3c-.08-1.5-2.8-4.1-3.4-3.2-.34.55-.15 1.3.42 1.6s.82.98.56 1.4.18.77.98.77 1.4-.27 1.4-.59zm37-1.1c0-.61-2.3-2-3.4-2-.11 0-.2.83-.2 1.8 0 1.3.55 1.7 1.8 1.4.99-.25 1.8-.81 1.8-1.2zm13 1c-2-1.3-3.3-1.3-2.5 0 .34.55 1.4.99 2.3.98 1.5-.01 1.5-.14.19-.98zm-46-1.9c-.36-.58-1.6-1.6-2.8-2.2-2.1-1.1-2.1-1-.69.75 1.8 2.3 3.3 3.4 3.8 2.9.21-.21.09-.85-.28-1.4zm151 1c-.8-1.3.47-4.2 1.5-3.5 1.1.71 1.2-1.6.01-3.4-.6-.96-1.3-.01-2.4 3.2-1.4 4.1-1.4 4.6-.07 4.6.82 0 1.2-.41.94-.91zm-198-2c-.36-.59-1.1-1.1-1.7-1.1-.66 0-.59.57.2 1.5 1.4 1.7 2.6 1.3 1.5-.45zm53-1.3c-2.6-4.1-4.4-4.8-3.9-1.4.19 1.4.73 2.9 1.2 3.4.47.44.54.23.14-.46-1-1.8.9-1.6 2.4.25 2.2 2.6 2.3 1.6.15-1.7zm34 2.3c-.52-.51-2.3-1.2-4-1.5l-3-.58 3 1.5c3.5 1.7 5.4 2 4 .62zm22-.53c0-1-.94-1.4-3-1.2-2.7.19-2.8.35-1.3 1.5 2.3 1.7 4.3 1.6 4.3-.21zm81-5.2c1.5-6.7 2.2-19 .8-15-.46 1.2-.99 4.8-1.2 7.9-.19 3.1-.85 6.6-1.5 7.8-.62 1.2-1.1 3-1.1 4.2 0 3.8 1.6 1.2 3-4.7zm-96 4.7c0-.55-1-.99-2.2-.98-1.8.01-2 .2-.75.98 1.9 1.2 3 1.2 3 0zm45-.07c-.2-.6-.79-1.1-1.3-1.1s-1.1.48-1.3 1.1c-.2.59.39 1.1 1.3 1.1s1.5-.48 1.3-1.1zm55-6.1c.89-3.1 1.6-6.3 1.5-7-.09-1.7-2.7 5.4-3.9 11-1.3 5.7.48 3 2.4-3.5zm30 4.9c.9-2.4-.46-5.2-2-4.2-1.2.77-1.1 6.4.14 6.4.57 0 1.4-1 1.9-2.2zm-26-3.1c.78-.45 1.1-1.3.8-1.8-.87-1.4-3.4 2.2-3.3 4.6l.08 2 .5-2c.27-1.1 1.1-2.4 1.9-2.8zm12 0c0-.52-.68-.37-1.5.31s-1.5 2-1.5 2.9c.03 1.4.27 1.3 1.5-.31.81-1.1 1.5-2.4 1.5-2.9zm10-.18c.21-1.8-.19-4.2-.9-5.1-1.1-1.6-1.3-1.3-1.4 2.2-.09 3.4-.2 3.6-.9 1.4-.98-3.1-1.2-1.4-.39 2.8.8 4 3.1 3.2 3.6-1.3zm-219-.32c-1.4-1.4-1.6-1.4-1.6-.1 0 2 2.3 4.4 2.8 2.8.21-.63-.35-1.9-1.2-2.8zm177-.32c-.32-2-.46-1.9-.92.91-.33 2-.18 2.9.37 2.4.51-.51.75-2 .55-3.3zm28-.87c0-.95-.32-.76-.86.5-.47 1.1-.86 2.7-.86 3.5 0 .95.32.76.86-.5.47-1.1.86-2.7.86-3.5zm20 1.5c-.22-1.9-.72-3.5-1.1-3.5s-.69 1.6-.69 3.5.49 3.5 1.1 3.5c.67 0 .94-1.4.69-3.5zm7.3 1.8c1.3-1.8.86-4.6-.63-3.7-.5.31-.9-.14-.9-1s.4-1.6.89-1.6 1.1-.6 1.4-1.3c.34-.87-.22-1.3-1.6-1.2-1.6.12-2.3 1-2.7 3.6l-.58 3.4-1.1-2.5c-1.1-2.5-1.1-2.4-1.2.86-.04 2.5.3 3.2 1.4 2.8.78-.3 1.7.1 2 .89.72 1.9 1.6 1.8 3.1-.27zm6.5-2.4c0-1 .03-2.2.07-2.6.05-.39-.33-.86-.83-1-.5-.17-.91.27-.92.97 0 .71-.33 2.3-.73 3.5-.57 1.8-.4 2.1.84 1.6.87-.33 1.6-1.5 1.6-2.5zm-149 .53c.34-.87.61-1.7.61-1.9 0-.68-5.2-1.6-6-1-1.3.81-.12 3.3 1.8 3.8 2.8.74 2.9.72 3.6-.91zm13 .58c.35-.57-.51-1-2-1s-2.4.43-2 1c.34.55 1.2 1 2 1s1.7-.45 2-1zm4 0c.34-.55-.08-1-.94-1s-1.6.45-1.6 1 .42 1 .94 1 1.2-.45 1.6-1zm68-6.2c0-3.4-.16-6-.36-5.8-.89 1-1.4 12-.57 12 .51 0 .93-2.8.93-6.2zm-88 4.2c-1.3-.57-1.5-.88-.5-.91.82-.03 2.2.38 3 .91 1.8 1.2.25 1.2-2.5 0zm99-4c0-.95-.32-.76-.86.5-.47 1.1-.86 2.7-.86 3.5 0 .95.32.76.86-.5.47-1.1.86-2.7.86-3.5zm-151-.25c.04-.41-.38-.75-.93-.75s-.97 1.2-.93 2.8c.06 2.4.17 2.5.93.75.47-1.1.89-2.3.93-2.8zm41 3.4c0-.49-.68-1.2-1.5-1.5-1.5-.59-2 .48-.83 1.7.95.96 2.3.83 2.3-.22zm32-1.6c0-1.4-.45-2.5-1-2.5s-.89.56-.75 1.2-.38 1.1-1.2.95c-.77-.17-1.8.28-2.2 1-.64 1-.83 1-.84.05-.01-.69-.78-1.2-1.7-1.2-1.5 0-1.4.19.25 1.5 1.1.81 3.2 1.5 4.7 1.5 2.3.02 2.8-.4 2.8-2.5zm96-.57c.95-4.3.03-4.6-1.3-.43-.59 1.9-.7 3.5-.25 3.5.46 0 1.1-1.4 1.5-3.1zm-204-2.1c.09-2.3-.14-3.9-.51-3.5-1.2 1.2-1.1 7.7.07 7.7.15 0 .35-1.9.44-4.2zm24-11c-.3-.78-1-1.1-1.6-.79-1.4.88-1.2 11 .24 14 1.1 1.8 1.3 1.2 1.6-4.7.16-3.7.05-7.3-.24-8.1zm72 13c0-.86-.45-1.3-1-.94s-1 1-1 1.6.45.94 1 .94 1-.7 1-1.6zm29 .6c-.33-.52-1.2-.7-2.1-.39-2.1.79-1.8 1.4.59 1.4 1.1 0 1.8-.43 1.5-.96zm-245-1.7c-.28-.73-.91-1.1-1.4-.78-1.4.85-1.1 2.1.5 2.1.78 0 1.2-.6.9-1.3zm253 .68c0-.54-1.1-1.3-2.5-1.6-3.6-.89-3-2.6 1.4-4.7 4.6-2.1 5.2-2.2 4.6-.38-.31.82.34 1.6 1.6 1.9 1.2.31 1.9.3 1.6-.03-.33-.32-.03-1.3.65-2.1 1-1.2.99-1.4-.05-.76-.72.43-1.9.27-2.7-.36-.84-.71-2.8-.89-5-.48-5.1.96-4.4-.11 1.3-2 2.7-.88 5.8-2.7 7-4.1 3.3-3.8 8.1-2.6 5 1.3-1.2 1.5-1.2 1.6.41.34 1.4-1.1 2.1-1.1 3.2-.18 1.2.97 1.4.86 1.4-.62-.04-1 .27-2.7.7-3.8.65-1.6.55-1.8-.56-.75-1.9 1.8-2.7 1.6-4-.88-.88-1.6-.84-2.3.15-2.9.7-.43 1.4-1.4 1.5-2.1.13-.73.54-2.1.93-3.1.81-2-.53-2.3-2.3-.55-2 2-1.4-.66 1.3-5.4 2.8-5 3.4-9.1 1-8.2-2.1.81-1.9-1.4.25-2.5.96-.5 3-.83 4.5-.75 2.4.13 2.9-.35 3.8-3.7 1.3-5 .48-5.9-1.1-1.2-.84 2.6-1.6 3.5-2.7 3.1-.82-.31-2-.57-2.5-.57-.65 0-.87-2.1-.58-5.5.25-3 .12-5-.31-4.3-.53.87-1.1.43-2-1.4-.67-1.5-1.6-2.4-2-2.2s-.75-.86-.7-2.5c.04-1.6.46-2.8.93-2.5s.85-.02.85-.69c0-.75.76-.52 2 .6 2.1 1.9 2.6 1.1 1-1.5-.69-1.1-.28-2.1 1.6-3.7 1.6-1.4 2.1-2.4 1.4-2.8-.61-.37-1.8-.13-2.6.54-1.1.93-1.5.93-1.5.01 0-1.6-2.4.75-3.3 3.3-.38 1-1.2 1.5-1.8 1.2-.59-.36-.8-1.4-.46-2.3.35-.89.32-1.3-.06-.93-.38.37-1.5.22-2.6-.34-1.8-.98-1.8-1.1.63-4 3.1-3.7 3.9-6.6 2.7-9.9-.9-2.4-.93-2.4-1.7.99-.42 1.9-1.3 4.4-1.9 5.5-.61 1.1-1.2 2.2-1.2 2.3-.07.16-2.2-.85-4.7-2.2-3-1.7-4.8-2.2-5.2-1.5-.36.58.19 1.3 1.2 1.6 1 .27 2.5 1.4 3.2 2.6l1.3 2.1-2.8-2c-1.6-1.1-3.7-2.3-4.8-2.7-1.5-.55-1.7-.91-.65-1.5.93-.57 1-1 .23-1.5-.61-.38-1.6-.37-2.3.03-.77.47-.89.27-.34-.62.59-.96.36-1.1-.85-.68-.91.35-1.7.2-1.7-.33 0-.98 1.5-1.3 6-1.1 1.4.05 1.9-.16 1.2-.47-.77-.34-1-1.5-.64-3 .5-2 .23-2.4-1.5-2.4-1.2 0-2.4.67-2.7 1.5-.31.83-.96 1.3-1.4.97s-2.9-.57-5.4-.62c-3.4-.07-4.8-.58-5.6-2-.56-1-.79-2.2-.52-2.7s-.38-1.6-1.4-2.5-2-1.2-2-.68-.68.99-1.5.99c-.93 0-1.5.95-1.5 2.5 0 1.4-1.1 3.4-2.5 4.7-1.4 1.2-2.5 3-2.5 4s-.68 2.1-1.5 2.4c-.82.31-1.5 1.3-1.5 2.1 0 2.3-2.7-.25-3.4-3.3-.35-1.4-1.2-2.3-1.8-2.1-1.3.46-1.4 1.7-.18 6.1.52 2 .42 2.7-.31 2.2-.59-.37-1.4-2-1.7-3.5-.48-2.2-1.1-2.8-2.5-2.4-1.2.31-1.7 1-1.3 2 .4 1 .2 1.3-.57.85-.64-.4-1.2-.2-1.2.44s.68.9 1.5.59c.82-.32 1.5-.14 1.5.39s-.45.97-1 .97-1 .7-1 1.6-.44 1.3-.97.96-1.2.51-1.6 1.9c-.4 1.6-1.1 2.3-2 1.9-2-.76-1.8 1.4.23 2.5.9.5 1.3 1.4.93 2.1-.49.79-1.4.43-2.7-1.1-1.6-1.9-1.9-1.9-1.4-.41.43 1.3.19 1.7-.84 1.3-1.5-.59-3 1.9-2 3.5.35.58 1.2.45 2.1-.31 1.3-1.1 1.5-.96 1.2.69-.45 2.4-3.8 3.3-3.8 1.1 0-.85-1.8-2.5-4-3.6-4.8-2.4-5.4-2.5-4.6-.39.34.89.1 2.3-.55 3-.89 1.1-.89 1.7-.02 2.6.88.88 1.2.63 1.2-1 0-1.3.62-2.2 1.5-2.2 1.1 0 1.3.74.92 2.8-.48 2.4-.13 2.9 2.6 3.9l3.1 1.2-2.5 2.7c-2.5 2.7-3.3 5.4-1.6 5.4.51 0 1.1-.79 1.4-1.8.4-1.5.57-1.4 1.2.45.39 1.2 1.4 2.4 2.4 2.7.91.28-.04.33-2.1.11-4.2-.45-4.5-.03-2.1 2.6 1 1.2 1.4 2.4.85 3.6-.72 1.7-.81 1.6-1.2-.21-.71-3.2-2.2-4.2-2.3-1.4-.01 2-.2 2.2-1.1.95-.8-1.1-.93-.52-.52 2.4.72 5.2 2.3 6.7 3.5 3.5.82-2.1.97-1.7 1 2.5.05 4.4-.1 4.7-1.3 3.1-1-1.4-1.8-1.6-3.1-.86-1.5.85-1.6 1.1-.22 2.2.82.68 1.2 1.9.95 2.7-.41 1.1.07 1.3 1.8 1 1.3-.21 2.3-.85 2.1-1.4-.39-1.8 3.1-.59 3.8 1.4 1.2 3.1 1 3.5-1.7 3-2.2-.39-2.4-.23-1.4.98.93 1.1.93 1.4.01 1.4-1.9 0-4.3 2.9-3.7 4.5.62 1.6 2.6 2 2.6.57 0-.5 1.3-1.4 2.9-1.9 2.5-.88 3-.72 4.2 1.4 1.3 2.4 4 3.3 4 1.4 0-.55-.43-1-.96-1-.54 0-1.4-.89-2-2-.83-1.6-.77-1.9.33-1.4.76.29 2 1.6 2.7 3 .72 1.4 1.8 2.5 2.4 2.5.59 0 .4.45-.42.98-1.1.74-1.2.97-.16.98.74.01 1.6-.82 1.8-1.8.45-1.7.67-1.7 3 .62 1.8 1.8 2.2 2.8 1.4 3.6-.83.83-1.3.83-1.8 0-.39-.62-2-1.1-3.6-1.1-2.3.01-2.6.21-1.3.91 1.5.83 1.5 1.1-.07 2.9-.93 1.1-2.4 2-3.2 2-1.2 0-1.2.24-.21 1.2 1 1 1.8.63 4.1-1.9 2.1-2.4 3.1-2.9 4-2s1.4.72 2.2-.61 1.4-1.5 2.8-.78c1.2.63 3 .63 5.2.01 4.5-1.3 4.9-1.2 1.9.53-1.8 1-2 1.4-.86 1.5.91.02 1.9.72 2.2 1.5.32.82 1 1.5 1.6 1.5s.74-.68.42-1.5c-.51-1.3.61-2 2.9-1.6.4.06.75-.9.77-2.1.01-1.2.04-3.3.06-4.7s-.33-2.7-.77-3-.93-1.5-1.1-2.6-.54-3.6-.86-5.6c-.37-2.3-.15-3.9.59-4.4 1.7-1 2.1-.32 2.9 5.1.57 4 1.1 4.9 2.9 5.2 2.1.3 2.2-.01 2.1-5.7-.17-6.3.01-6.1-5.9-6.3-2.1-.05-2.5-.47-2.1-2 .27-1 .05-2.4-.5-3.1-.55-.68-1.3-3.9-1.7-7.2-.38-3.3-1.4-7-2.2-8.3-1.4-2.2-1.3-2.5 2.6-5.8 2.2-1.9 3.9-3.8 3.6-4.2-.83-1.3 2.5-5.1 4.5-5.1 1.4 0 1.9.69 1.9 2.7 0 1.7 1.2 3.9 3 5.8 1.7 1.7 3 4 3 5 0 3.6-3.1 20-4.1 22-.77 1.3-.67 1.8.39 1.8 1.4 0 1.5 4.6.12 9-.37 1.2-.2 2 .42 2 .59 0 1.1.68 1.1 1.5s-.68 1.5-1.5 1.5c-1.2 0-1.5 1.3-1.4 6.2.07 4.6.3 5.6.9 3.8.44-1.4.85-1.9.9-1.2.08.98.92.92 3.7-.25 5-2.1 6.8-1.8 1.9.38-2.2.96-3.5 2-2.9 2.4.56.34 2.2.02 3.6-.73 2.2-1.1 2.7-1.1 3.2.06.36.94-.2 1.4-1.7 1.4-1.9.03-1.8.22.78 1.4 3.6 1.6 7.5 1.9 7.5.56zm82-4.6c0-1.3.51-2.3 1.1-2.2.62.14 1.4-.38 1.6-1.1.33-.89.08-1.1-.68-.65-1.4.84-.79-3.7 1.4-12 .73-2.6 1.1-5.6.79-6.8-.3-1.2-.06-2.1.54-2.1.61 0 .8-.74.44-1.7-.5-1.3-.93-.91-1.9 1.8-.69 1.9-1.3 2.7-1.3 1.8-.05-.93.36-2.8.9-4.2.53-1.4.6-2.6.15-2.6-1.1 0-3.5 10-2.8 12 .31.76.59.07.63-1.5.04-1.6.35-2.6.68-2.3s.26 3-.16 5.9c-.62 4.3-.9 4.8-1.4 2.8-.58-2.3-.74-2.1-1.7 1.8-1.2 4.6-.82 5.6.75 2 .71-1.6.81-.64.37 3.7-.33 3.2-.86 6.6-1.2 7.4-.38.98-.17 1.3.59.79.64-.4 1.2-1.8 1.2-3.2zm26 .79c-.33-.34-1.4.2-2.3 1.2-1.6 1.7-1.6 1.8.61.61 1.3-.66 2.1-1.5 1.7-1.8zm-185-.23c-.29-1.1-1.3-2-2.2-2-1.4.01-1.4.14-.13.98.82.53 1.1.98.69.98-1.1.03.19 2 1.3 2 .46 0 .61-.9.32-2zm42-.04c-2.4-1.5-3.6-1.1-1.4.46 1.1.78 2.2 1.2 2.4.94s-.19-.89-1-1.4zm82 .04c0-1.1-.45-2-1-2s-1 .9-1 2 .45 2 1 2 1-.9 1-2zm-297-3.1c1.1-3.2 5-6.2 7.6-5.7 1.3.22 1.8-.53 2-3 .18-1.8.74-3.2 1.2-3.2.52 0 .94-.66.94-1.5 0-1.2-.53-1.3-2.5-.52-1.6.61-2.5.6-2.5-.02 0-.54.79-.98 1.8-.98 1.4 0 1.1-.6-1.2-2.7-1.6-1.5-2.2-2.4-1.2-2 1.2.42 1.8.13 1.8-.84 0-.82-.92-1.5-2.1-1.5-1.2 0-1.9-.52-1.7-1.2.63-1.9-1.8-3.8-5.7-4.4-3.8-.62-4.7.81-1.8 2.7 1.4.92 1.2 1-1.1.5l-2.9-.61.65 9.3c.36 5.1.71 12 .78 14 .12 4.8.25 5.1 2.6 4.6 1.6-.3 2.8-1.5 3.4-3.3zm131 .76c.01-.44-.43-.53-.98-.19s-.99 1.4-.98 2.3c.01 1.5.14 1.5.98.19.53-.82.98-1.9.98-2.3zm20 .24c-.94-1.5-2.4-1.1-1.8.56.31.83.98 1.2 1.5.94s.65-.99.34-1.5zm5.2-1.7c-.25-.97-.47-.42-.5 1.2-.02 1.6.19 2.4.47 1.8.27-.68.29-2 .03-3zm12 2c.36-.95.34-1.4-.06-1-.39.39-1.4.15-2.2-.53-1.3-1.1-1.3-.98-.1 1 1.7 2.7 1.6 2.7 2.4.53zm133-2.2c.47-1.8.68-4.3.47-5.4-.22-1.2-.76.29-1.2 3.3-.62 4.1-1 5-1.6 3.5-.71-1.8-.78-1.8-.84.36-.1 3.4 2.2 2.2 3.2-1.8zm5 .92c.25-1.6.07-3-.38-3-.46 0-.83 1.4-.83 3s.17 3 .39 3c.21 0 .58-1.4.82-3zm15-6.2-1-5.3-.06 7.5c-.05 6 .15 7.1 1 5.3.75-1.6.77-3.8.07-7.5zm30 8.5c.1-2.1.94-12 1.1-13 .44-2.6-.34-3.5-1.2-1.5-1.6 3.9-2.4 15-1.1 15 .61 0 1.1-.34 1.2-.75zm-345-3.2c.39.27.85-.62 1-2l.32-2.5-2.6 2.7c-1.4 1.5-2.6 3.3-2.5 4 .02.76.65.47 1.5-.71.84-1.1 1.8-1.8 2.2-1.5zm310-2.6-.34-3.9-.48 4.7c-.27 2.6-.12 4.3.33 3.9.46-.46.67-2.6.49-4.7zm-299 2.4c0-1.6-.3-1.9-1.1-1.1-.61.61-.81 1.6-.44 2.2 1 1.7 1.6 1.3 1.6-1.1zm143-2.3c-.68-1.8-.74-1.8-1.5.07-.42 1.1-.79 2.6-.83 3.4-.06 1.3.15 1.2 1.5-.07.95-.95 1.3-2.2.82-3.4zm29 3.1c.97-1.2.82-1.3-.86-.89-1.1.3-1.8.94-1.5 1.4.73 1.2.98 1.1 2.4-.53zm-59-2.2c.9-3.6-.14-4.3-1.4-.95-1.3 3.3-1.3 3.6-.14 3.6.49 0 1.2-1.2 1.6-2.6zm199 .62c0-1.1-.17-2-.38-2s-.62.9-.91 2-.11 2 .38 2c.5 0 .91-.9.91-2zm26-.27c1.2-1.6 1.2-1.7-.28-1.2-.9.35-1.6 1.3-1.6 2.2 0 .86.13 1.4.28 1.2.16-.23.9-1.2 1.6-2.2zm-171 .52c-.04-.41-.46-1.6-.93-2.8-.76-1.8-.87-1.7-.93.75-.04 1.5.38 2.8.93 2.8s.97-.34.93-.75zm116-6.2c-.02-2.2-.11-2.3-.81-.5-.44 1.1-1.1 3.4-1.4 5l-.66 3 1.5-2.5c.81-1.4 1.5-3.6 1.4-5zm-186 1.9c-.9-2.3-.97-2.2-1 1-.04 2.4.26 3.1.97 2.4.68-.68.7-1.8.06-3.4zm107 2.1c.68-1.1 1.4-1.8 1.5-1.6.59.6-.96 3.6-1.9 3.6-.49 0-.35-.88.32-2zm76-4c0-2.3-.08-2.3-.86-.5-.82 1.9-.86 1.9-.93.08-.04-1-.28-1.7-.54-1.4-.26.25-.18 2.2.17 4.4.51 3.1.78 3.5 1.4 2 .43-1.1.77-3.1.77-4.5zm-98 4c-.34-.55-1.4-.99-2.3-.98-1.5.01-1.5.14-.19.98 2 1.3 3.3 1.3 2.5 0zm-31-1.2c-.66-.66-1.2-2.1-1.2-3.2 0-1.4-.3-1.7-1.1-.91-1.3 1.3.46 5.3 2.3 5.3.86 0 .85-.31-.04-1.2zm123-4c-.45-2.3-.34-2.8.36-1.8.81 1.2.96 1.2.9-.5-.05-1.1-.45-3.1-.89-4.5l-.8-2.5-.22 2.5c-.15 1.8-.34 2-.67.75-.92-3.5-2.3-1.6-2.2 3 .08 3.8.25 4.3.89 2.2.77-2.5.79-2.5 1.5.75.41 1.8.97 3.2 1.2 3.2s.22-1.5-.12-3.2zm41-1.7c.31.78.55-.16.53-2.1-.03-3 .68-7.5 1.2-7.5.1 0 .29-1.1.42-2.5.14-1.4.96-5 1.8-8 1.1-3.8 1.3-6.7.77-9.5-.79-4-.8-3.9-.92 1.7-.06 3.1-.51 5.9-1 6.2-.49.3-1.4 2.8-2.1 5.6s-1.6 5-2 5c-.46 0-.37-1.4.22-3 .58-1.7.81-3.3.51-3.6-.31-.3-1.2 1.6-2 4.3-1.3 4.3-2.2 4.5-1.7.36.29-2.2-1.6-.03-2.4 2.8-.49 1.6-.31 2.2.63 2 .81-.17 1.3.6 1.2 2-.09 2.7 1.2 3 2 .5.3-.96.34.95.1 4.2-.4 5.6-.35 5.8.91 3.1.92-2 1.5-2.5 1.9-1.5zm-293-6.6c1.9-2.2 3.9-4.6 4.4-5.2.51-.66.67-2.5.35-4.1-.42-2.1-.15-3.1 1-3.5.87-.33 1.3-1.2 1-2-.49-1.3 1.7-3.4 6.5-6.2 1.1-.64 1.3-.39.7 1.1-.4 1 1.1-.1 3.3-2.6 3.2-3.6 4-5.2 4-8.2 0-2.9.33-3.6 1.5-3.2.87.33 1.8-.14 2.2-1.1 1.9-5 12-12 12-8.3 0 .9.3.92 1.1.11 1.3-1.3.25-3.6-1.2-2.8-1.5.95-1.1-.35 1.7-4.7 3-4.7 4.1-4.2 4.6 2.1.19 2.5.77 4.8 1.3 5.2s2.8.44 4.9.14c2.2-.31 6.9-.62 11-.7l6.6-.13.22-16c.12-9.1-.03-20-.33-24-.52-6.7-.79-7.4-3.5-9-3.8-2.2-3.7-3.7.58-7.9 3.5-3.4 3.5-3.4 3.5-12 0-5 .24-9 .54-9s1.5.88 2.6 2c1.4 1.3 2.3 3.6 2.6 7 .4 4.2.74 4.9 1.9 3.9.75-.62 1.4-2.4 1.4-4s.43-3.1.96-3.4c.52-.33.7-1.2.39-2.1-.32-.83 0-1.5.74-1.5 1.8 0-.09-1.7-2.6-2.3-1.3-.32-.97-.52 1.1-.59 3-.12 5.6-2 5.2-3.8-.11-.48.16-1.7.59-2.7.43-1 .57-5.2.31-9.3-.27-4.1-.09-7.7.38-8 .48-.3.63-.94.32-1.4-.3-.48 1.1-2.4 3.2-4.3 3.2-2.9 3.6-3.7 2.4-5-.72-.86-1-2-.63-2.6s.12-1.8-.56-2.6c-1-1.2-.88-1.8.66-2.9 1.8-1.4 1.8-1.4.02-1.5-1.6-.03-1.8-.6-1.3-4.1.3-2.2 1.2-4.6 2-5.2 3.2-2.5 5.5-8.6 4.9-13-.36-2.7-.2-3.9.47-3.5.56.35 1.2 2.6 1.5 4.9.29 2.4 1.1 5.6 1.7 7.3l1.2 3 1.4-2.5c.76-1.4 1.4-3.5 1.4-4.8.02-1.3.71-2.5 1.5-2.9 1.8-.67 1.1-4.9-1.2-7.6-2-2.2-.93-7.7 1.8-9.8 1.5-1.1 2.1-2.8 2.2-6.2.1-2.6.44-4.7.75-4.7.32 0 1.2-3 2-6.6 1.2-5.6 1.6-6.3 2.6-4.9 1.8 2.4 2.7.32 3.5-7.6.34-3.7 1.5-8.5 2.6-11 1.1-2.3 1.6-4.4 1.2-4.7-1.1-.66-1.1-6.5-.11-8.1.4-.63 2.2-1.4 3.9-1.6 4-.63 5.3-1.4 5.3-3.2 0-.76.83-2 1.8-2.7 6.4-4.5 9.4-8.1 9.4-11-.04-1.6-.79-3.8-1.6-4.7-2.1-2.4-2-3.4 1.1-7 2.2-2.6 2.5-3.8 2-7-.42-2.6-.19-4.2.69-4.9.99-.82 1.2-4 .88-13-.24-6.5-.81-12-1.3-13-.45-.57-.41-1.7.1-2.5.51-.81.94-2.4.94-3.6.01-1.2.54-2.3 1.2-2.6s1.3-2.7 1.4-5.6c.15-2.9.82-6 1.5-7 .67-.94-.91.45-3.5 3.1-3.8 3.8-5 4.6-6.1 3.6-.77-.64-1.1-1.6-.75-2.2.41-.66.14-.73-.75-.18-1.7 1.1-4.9 1.4-4.9.45 0-.86-3.2-.63-4.8.36-1.6.99-1.6-.55.02-2.4.69-.79.24-.58-1 .45-2.2 1.8-2.2 1.8-2.3-.03-.02-1.7-.26-1.6-2.1.6-1.6 1.9-1.9 2-1.4.61.49-1.5.34-1.7-.75-.76-.75.62-1.7.81-2.1.42-.4-.39-.42.06-.06 1 .44 1.1.17 1.7-.8 1.7-.8 0-2.7 1.2-4.2 2.6-2.6 2.4-2.8 2.4-2.2.44.46-1.8.31-1.9-.86-.95-1.1.92-1.4.87-1.4-.2-.02-.75-1 .2-2.2 2.1-2.5 4-18 20-19 20-.43 0-.5-.79-.16-1.8.37-1 .25-1.4-.28-.91-.5.46-.91 2-.91 3.5 0 1.7-.54 2.7-1.5 2.7-.83.01-1.5.9-1.5 2s-1.3 4.2-3 7c-2.8 4.7-3 4.8-3.6 2.5-.66-2.4-.68-2.4-.78-.21-.06 1.2-.6 2.2-1.2 2.2s-.82-.73-.47-1.6c.51-1.4.37-1.4-.85-.42-.85.71-2.4.93-3.6.53-1.3-.4-1.7-.96-1.1-1.4 1-.65-17-.52-21 .16-1.2.18-4 1.2-6.2 2.2-3.8 1.7-4.2 1.7-5.9.19-2.2-2-4.3-2.1-6-.45-.93.93-1.5.93-2.4 0-1.5-1.5-2.8-1.6-2.8-.14 0 .58.51.74 1.1.36.69-.42.95-.15.67.69-.26.76-1.4 1.4-2.6 1.5-2.1.11-2.1.08.35-4.8 3.1-6.2 2.3-6.3-1.6-.17-2 3.2-2.6 4.9-1.8 5.4.62.38.79 1.2.37 1.9-.59.96-.91.96-1.5-.01-.46-.75-1.3-.91-2.1-.41-.74.46-2 .95-2.9 1.1-5.4.88-8 2-12 5-2.4 1.8-4.8 3.1-5.3 2.8s-.77.02-.61.71c.15.69-1.1 1.9-2.7 2.7-1.6.81-3.4 2.1-3.8 2.8s-1.2 1.4-1.8 1.4c-.54 0-.24-1.1.66-2.5s1.4-2.5 1-2.5c-.34 0-2.2 2.5-4.2 5.6-2 3.1-3.8 5.4-4.1 5.1-.28-.27 0-1.4.61-2.6.62-1.2.92-2.1.68-2.1s-1.8 2.5-3.5 5.5c-2.9 5.1-5 7.4-3.7 4 1.1-2.9-.29-1.4-1.9 2-2 4.1-3 4.1-1.4-.05 2-5.2-1.7-.83-4.5 5.3-1.8 3.8-2.8 5.2-3.4 4.3-.57-.92-1.3-.34-2.4 2-4 8.4-4 9.7-3.9 95 .16 105 .25 110 2 111 1 .34 1.2-.13.85-1.7-.73-2.8.57-2.7 2.7.12l1.7 2.2-.59-3-.58-3 2 3c1.1 1.6 2 3.5 2 4.2.01.64 1.6 2.1 3.5 3.3 2.6 1.6 3.6 3.1 4.2 5.8.38 2 .88 3.1 1.1 2.4.23-.69.84-1.2 1.4-1.2.56 0 .51.82-.13 2-.91 1.7-.69 2.2 1.5 3 1.4.54 3 .99 3.5.99s1.6 1.4 2.5 3.1 3 4.7 4.7 6.5 3.2 4.2 3.4 5.1c.72 4.7 1.8 7.7 3.4 9.3 1.5 1.5 1.7 3.2 1.5 10-.17 4.6-.1 7 .16 5.3.26-1.6 2-4.8 3.9-7zm39 5.7c-.09-3.3-.19-3.4-.83-1.2-.4 1.4-.54 3.1-.3 3.8.8 2.3 1.2 1.3 1.1-2.5zm52 1.8c0-1.1-.17-2-.38-2s-.62.9-.91 2-.11 2 .38 2c.5 0 .91-.9.91-2zm181-9.4c.47-3.1.35-3.6-.63-2.5-.66.77-1.9 2-2.7 2.8-1.3 1.2-1.3 1.3.09.85 1.4-.46 1.6.25 1.3 4.6-.29 4.6-.23 4.8.53 1.7.47-1.9 1.1-5.3 1.4-7.4zm-160 2.1c.37-4.4.23-6.6-.41-6.2-.54.33-.99 3.6-.99 7.2 0 8.3.63 7.8 1.4-1zm169 3.3c.41 0 1.3-2.2 2-5s1.6-5.3 2.2-5.6c.54-.34.05-1.5-1.1-2.6-3.5-3.2-5.1-.47-5.6 9.4-.33 6.6-.19 7.8.71 6 .61-1.2 1.4-2.2 1.9-2.2zm30 2c.33-1.2.03-2-.79-2s-1.1.75-.79 2c.29 1.1.64 2 .79 2s.5-.9.79-2zm-281-2.4c0-.29-.67-.28-1.5.04-.83.31-1.5 1.2-1.5 2 0 1.3.2 1.3 1.5-.04.83-.82 1.5-1.7 1.5-2zm91-1c-.91-1.4-1.6-3.3-1.6-4.3.01-1.5.16-1.6.98-.29.78 1.2.97 1 .98-.81.01-1.5-.38-2.1-1.2-1.6-.8.49-.96.16-.5-1 .45-1.2.25-1.6-.58-1.3-.73.24-1.4 2.6-1.6 5.7-.21 3.7.03 5.1.82 4.6.66-.4 1.4.2 1.7 1.5.38 1.5.9 1.8 1.6 1.2.69-.69.48-1.8-.63-3.5zm114 1.6c-.79-.8-2.5 1-1.9 2 .41.67.93.57 1.5-.29.45-.73.65-1.5.44-1.7zm28-9.2c.15 1.9.68 4.6 1.2 6 .61 1.7.73.52.4-3.9-.27-3.5-.51-7.8-.53-9.5l-.03-3.1-1.4 2.5c-.97 1.7-1.4 5.2-1.3 11l.14 8.5.64-7.5c.37-4.3.76-6 .92-4zm3.8 1.8c-.22-1.8-.4-.32-.4 3.2s.18 5 .4 3.2c.23-1.8.23-4.7 0-6.5zm-46 7.8c-.01-1.4 2.8-5 3.4-4.3.3.3-.36 1.6-1.4 2.9-1.1 1.3-2 1.9-2 1.4zm-63-3.6c-.97-3 .01-3.3 1.3-.42.62 1.4.73 2.5.23 2.5-.51 0-1.2-.93-1.6-2.1zm145-1.8c.34-2.2.9-4.6 1.2-5.5.34-.88.19-1.6-.33-1.6-.51 0-1.4 2.5-1.9 5.5s-.68 5.5-.3 5.5c.39 0 .99-1.8 1.3-3.9zm7.1-5c1.8-8.8 1.6-12-.23-4.9-1.3 5.5-2.6 14-2 14 .28-.27 1.3-4.3 2.2-8.9zm-276 7.2c-.69-.28-1-.92-.69-1.4.31-.5-.13-.91-.99-.91s-1.6.41-1.6.92c0 .95 1.8 1.9 3.5 1.9.55 0 .43-.23-.26-.5zm76-2.4c0-1.1-.45-1.9-1-1.9s-1 1.2-1 2.6c0 1.4.43 2.3 1 1.9.55-.34 1-1.5 1-2.6zm197-2.5c1.4-6.7.59-8.5-1-2.3-.62 2.4-1.4 5.1-1.6 6.1s-.06 1.8.49 1.8 1.5-2.5 2.2-5.6zm-315 2.5c.57.91.92.82 1.4-.36.33-.87.17-1.6-.36-1.6s-1-1-1.1-2.2c-.1-2.2-.13-2.2-.9.25-.44 1.4-.79 3.4-.78 4.5.01 1.9.05 1.9.5.1.34-1.3.7-1.5 1.2-.66zm104-1.9c.21-2.2.03-4-.39-4-.43 0-.78 1.8-.78 4s.18 4 .39 4c.22 0 .57-1.8.78-4zm42-1.2c.11-2.9-.27-5.9-.86-6.8-.79-1.1-.95-.3-.61 3.2.27 2.9.02 4.8-.64 5.1-.92.31-.52 1.1 1.9 3.7.01.02.12-2.3.23-5.2zm179 .57c.25-1.6.53-3.8.62-5 .08-1.2.49-2 .9-1.7.41.26.75-.23.75-1.1s-.47-1.6-1-1.6c-.59 0-.94-1.7-.81-4 .21-3.5-.56-6.1-1.5-5-.9 1.1-4.3 18-3.8 18 .3.55 1.1-1.6 1.7-4.8 1.2-6.2 3-9.3 2.2-4-.25 1.8-.08 3 .37 2.7 1.3-.79.97.46-.8 3.2-1.2 1.9-1.3 2.5-.3 2.5 1 0 1 .27.12 1.2-.66.66-1.2 1.9-1.2 2.7 0 2.5 2.2-.38 2.7-3.6zm-83 2.3c.32.32 1.1.25 1.8-.17.87-.54.53-1-1.1-1.6-1.6-.59-2.6-.47-3.2.42-1.3 2-.98 3.1.5 1.9.74-.61 1.6-.85 1.9-.52zm-133-2.1c.31-.81.13-1.7-.39-2.1-.53-.32-.96.34-.96 1.5 0 2.4.56 2.7 1.4.59zm78-.45c0-.48.68-1.1 1.5-1.4.82-.32 1.5-.19 1.5.28 0 .48-.68 1.1-1.5 1.4-.82.32-1.5.19-1.5-.28zm59-1.6c0-.86-.45-1.3-1-.94s-1 1-1 1.6.45.94 1 .94 1-.7 1-1.6zm-92-1.7c.08-1.7.23-1.8.57-.5.55 2.1 2.3 2.3 2.3.3 0-.8-.74-1.9-1.6-2.4-1.3-.73-1.5-1.9-1.1-5.3.34-2.6.23-3.8-.26-2.9-1.5 2.6-2.4 13-1.2 13 .62 0 1.2-1 1.2-2.2zm7.9-1.2c0-1.8.42-2.3 1.5-1.9 1.1.43 1.2 1 .47 2.5-1.4 2.6-2 2.4-2-.57zm-118-.53c.34-.55-.08-1-.94-1s-1.6.45-1.6 1 .42 1 .94 1 1.2-.45 1.6-1zm156 .1c.86-.55 1.6-3.5 1.9-8 .28-3.9.87-7.1 1.3-7.1.75 0 .48 5.6-.59 12-.24 1.5-.05 2.8.42 2.8.48 0 1.4-3 2-6.8 1.9-11 1.9-11 .5-10-1.8 1-12 .22-11-.88.31-.49-.12-.9-.94-.9-.83 0-1.8.45-2.1 1s-.18 1 .36 1c.53 0 1.3 3.5 1.6 7.8s.84 8.3 1.1 9c.46 1.4 3.3 1.6 5.3.35zm-212-2.6c-.08-1.4-.51-2.1-1-1.6-.49.49-.61 1.6-.28 2.4.88 2.3 1.5 1.9 1.3-.88zm141-2.8c-.24-1.2-.45-.46-.46 1.7s.19 3.2.44 2.3c.25-.95.26-2.8.02-4zm136-1.5c-.25-.96-.46-.18-.46 1.8s.21 2.7.46 1.8.25-2.5 0-3.5zm2.3-.62c-.71-.71-1 .05-.97 2.4.06 3.2.13 3.3 1 1 .64-1.6.62-2.8-.06-3.4zm18-6.2c.38-3.6 1.3-7.1 2-7.8.76-.77 1-2.4.69-4.2l-.58-2.9-.74 3c-.4 1.6-1.4 5.5-2.3 8.5s-1.5 7.8-1.5 10c.06 4.3.19 4.6.91 2.2.46-1.5 1.2-5.7 1.5-9.3zm14 6.1v-2l-.86 2c-.47 1.1-.86 2.9-.86 4v2l.86-2c.47-1.1.86-2.9.86-4zm-18-5.5c.35-4.1.22-5.9-.35-4.9-.49.88-1.1 4.5-1.4 8-.26 3.5-.11 5.7.34 4.9.44-.82 1.1-4.4 1.4-8zm-38 6.1c.32-.52-.3-.87-1.4-.79s-1.7.5-1.5.94c.66 1.1 2.1 1 2.8-.15zm-187-1.1c0-.55-.42-1-.94-1s-1.2.45-1.6 1 .08 1 .94 1 1.6-.45 1.6-1zm263-1.8c-.01-1.5-.14-1.5-.98-.19-1.3 2-1.3 3.3 0 2.5.55-.34.99-1.4.98-2.3zm-184 .31c.32-.82.14-1.5-.39-1.5s-1-1.7-1-3.8c-.06-3-.24-3.4-.93-1.8-1.4 3.3-1.2 8.5.39 8.5.77 0 1.7-.68 2-1.5zm-147-1.6c0-1.1-.43-1.8-.96-1.5-.52.33-.7 1.2-.39 2.1.79 2.1 1.4 1.8 1.4-.59zm280-3.9c.02-.92-.3-.73-.83.5-.47 1.1-.85 2.9-.83 4 .02 1.6.19 1.5.83-.5.44-1.4.81-3.2.83-4zm8-1.5c.08-1.6-.07-1.7-.87-.5-.53.82-.92 3.1-.87 5l.11 3.5.76-3c.42-1.6.81-3.9.87-5zm-136 5.3c1.4-1.4 1.6-3.8.36-3.8-.46 0-1.4 1.1-2 2.5-1.2 2.6-.38 3.3 1.6 1.3zm111-.98c0-2-2.5-1.5-3.4.69-.33.88.17 1.3 1.4 1.2 1.1-.08 1.9-.88 1.9-1.9zm8.2-3c-.55-.55-.7.38-.37 2.4.46 2.8.6 2.9.92.91.2-1.3-.04-2.8-.55-3.3zm2.4 1.4c-.25-.97-.47-.42-.5 1.2-.02 1.6.19 2.4.47 1.8.27-.68.29-2 .03-3zm-110-.39v-1.6c0-1.1-2.4-.97-3.2.22-1.4 2-.79 3.4 1.2 2.8 1.1-.29 2-.92 2-1.4zm-7.6-3.2c.34-1.5 1.1-2.5 1.6-2.2s.97-.1.97-.96-.36-1.6-.8-1.6c-1.8 0-3.2 2.6-3.1 6 .08 3.7.32 3.5 1.4-1.2zm157-.44c-.25-.97-.47-.42-.5 1.2-.02 1.6.19 2.4.47 1.8.27-.68.29-2 .03-3zm-60-2.2c.03-3.2-.54-2.4-1.3 1.9-.46 2.5-.36 3.1.34 2 .54-.82.99-2.6.99-3.9zm15 1.2c-.25-.97-.47-.42-.5 1.2-.02 1.6.19 2.4.47 1.8.27-.68.29-2 .03-3zm17 .62c.27-1.3.88-4.2 1.3-6.4s1.2-4.9 1.6-5.9c.55-1.3.44-1.7-.35-1.2-1.5.9-4.2 10-4.2 14 0 3.4.81 3.1 1.6-.46zm-284-.56c-.87-1.5-1.1-1.6-1.1-.25-.03 1.7 1 3.2 1.7 2.5.23-.24-.05-1.2-.64-2.2zm168 1.8c0-.5.27-1.6.61-2.5.4-1 .05-1.6-1-1.6s-1.6.87-1.6 2.5c0 1.4.45 2.5 1 2.5s1-.41 1-.92zm143-16c-.2-3.2-.36-.84-.37 5.2 0 6 .16 8.6.37 5.8.2-2.9.2-7.8 0-11zm-96 14c-.82-.53-2.4-.93-3.5-.89-1.6.07-1.6.23.5.89 3.5 1.1 4.8 1.1 3 0zm92-2c-1.8-1.1-2.2-.75-1.4 1.4.48 1.3.95 1.4 1.8.61.82-.82.72-1.4-.35-2zm-51 .52c.31-.81.13-1.7-.39-2.1-.53-.32-.96.34-.96 1.5 0 2.4.56 2.7 1.4.59zm32-3c.03-.55-.38-.32-.91.5s-.94 2.2-.91 3c.05 1.6 1.7-1.6 1.8-3.5zm-8.6 1.5c.29-1.1.11-2-.38-2-.5 0-.91.9-.91 2s.17 2 .38 2 .62-.9.91-2zm15-4.8c.32.84.08 2-.54 2.6-.83.83-.68 1.1.58 1.1 2 0 2.4-4.6.45-5.3-.9-.37-.94-.74-.14-1.3.66-.49.81-1.6.36-2.8l-.76-2-.7 2c-.39 1.1-1.3 3.7-2.1 5.8-2 5.5-1.6 8 .49 2.8 1.2-3 2-3.9 2.4-2.9zm24-4.7c.67-6.4.55-8.4-.62-10-1-1.6-1.3-4-1-8.2.24-3.3.11-5.7-.28-5.5-1.1.7-2.6 5.7-2.4 8.4.61 11 .69 12 1.5 9 .53-1.7.88 1 1 8 .25 11 .5 11 1.8-1.5zm5-4c.03-3.1-.15-3.6-.82-2-.47 1.1-.82 5.6-.78 10l.07 8 .75-6c.41-3.3.76-7.8.78-10zm2 5.8c-.16-9.2-.21-9.4-.75-3.2-.32 3.6-.42 8-.22 9.8.69 6.2 1.1 3.2.97-6.5zm-17-1.8c-.2-5.1-.71-8.3-1.3-7.9-.53.32-.86 2.3-.74 4.3.12 2-.12 4.3-.53 4.9-.4.66-.24 1.2.38 1.2.61 0 .84.45.49 1-.34.55-.33 1.9.01 3 1.3 4.2 2 1.7 1.7-6.5zm-330 4.2c.01-.44-.43-.53-.98-.19s-.99 1.4-.98 2.3c.01 1.5.14 1.5.98.19.53-.82.98-1.9.98-2.3zm182 1.2c-.94-1.5-2.4-1.1-1.8.56.31.83.98 1.2 1.5.94s.65-.99.34-1.5zm159-4.2c-.24-1.2-.44-.23-.44 2.2s.2 3.5.44 2.2c.23-1.2.23-3.3 0-4.5zm-44 .89c.38.38.7.06.71-.72.01-1.2.19-1.2 1 .08.76 1.1.86.85.41-1.1-.34-1.5.08-4.2.97-6.4.92-2.2 1.5-6.3 1.4-9.9-.07-3.4-.33-5.1-.57-3.9-.23 1.2-.81 2.2-1.3 2.2-.87 0-4 5.6-4 7.2 0 .47.68.85 1.5.85.95 0 1.5-1 1.6-2.8l.1-2.8.69 2.5c.77 2.7-1.9 13-3.1 12-.42-.26-.77.03-.77.64s-.41.86-.91.55c-1.2-.74-1.9 1.4-1.2 3.9.46 1.8.64 1.7 1.6-.77.62-1.5 1.4-2.5 1.8-2.1zm28-3.6c.32-4.7.12-7.1-.61-7.1-.64 0-1.1 2.1-1.1 5 0 2.8-.45 5-1 5s-1 .7-1 1.6.45 1.3 1 .94 1 .16 1 1.1.27 1.4.61 1.1c.33-.34.82-3.8 1.1-7.7zm-22-.56c.73-2.8 1.6-5.2 1.9-5.5.31-.27.33-3.2.04-6.5l-.53-6-.73 6c-.39 3.3-1.4 8.8-2.2 12-.82 3.4-1.5 6.5-1.5 7 .06 1.6 1.7-2.2 3-7.2zm-13 3.7c-.01-1.5-.14-1.5-.98-.19-1.3 2-1.3 3.3 0 2.5.55-.34.99-1.4.98-2.3zm-131 .25c0-.86-.45-1.3-1-.94s-1 1-1 1.6.45.94 1 .94 1-.7 1-1.6zm152-5.4c-.7-6-.03-11 1.4-9.6 1.1.67 1.9-4 1-5.5-.44-.72-.96-.17-1.4 1.4-.36 1.4-1.1 2.6-1.6 2.6-1.1 0-1.3 7.5-.34 13 .99 6 1.6 4.4.87-2.2zm43-5.2c1.4-.76 1.7-.58 1.8.83.03 1.6.12 1.6 1 .14.61-1 .62-2.5.03-4-.63-1.6-.95-1.8-1-.68-.05 1.4-.83 1.6-4.1 1.2-4.3-.49-4.8.14-2.6 3.1.81 1.1 1.2 3.6 1 5.9l-.34 4.1 1.2-4.8c.68-2.7 2-5.3 3-5.8zm-93 7.1c-.32-.53.34-.96 1.5-.96 2.4 0 2.7.56.59 1.4-.81.31-1.7.13-2.1-.39zm35-3.3c-.07-2.1-.1-2.1-.93-.19-1.2 2.8-1.2 3.7 0 3 .55-.34.97-1.6.93-2.8zm-100-2.5c-1.1-1.1-2.7 1.8-2 3.5.66 1.6.82 1.6 1.6-.58.51-1.3.68-2.6.38-2.9zm82-.48c.01-.44-.43-.53-.98-.19s-.99 1.4-.98 2.3c.01 1.5.14 1.5.98.19.53-.82.98-1.9.98-2.3zm34 1.3c-.29-1.1-.7-2-.91-2s-.38.9-.38 2 .41 2 .91 2c.49 0 .67-.9.38-2zm-26-7.2c-.24-1.2-.44-.23-.44 2.2s.2 3.5.44 2.2c.23-1.2.23-3.3 0-4.5zm29-1.1c.03-.99.39-1.6.8-1.4s.78-1.8.82-4.5c.05-2.7-.26-4.6-.67-4.1-.71.73-4 15-3.8 17 .15 1.4 2.8-5.2 2.9-7zm-120 3.7c-.87-1-1.5-1.2-2.3-.37s-.68 1.3.36 2c2 1.2 3.4.13 1.9-1.6zm3.9-.31c.19-1.3-.2-2.8-.86-3.4-.93-.87-1.1-.39-.76 2.1.24 1.8.05 3.4-.41 3.7-.47.25-.28.34.42.2.71-.14 1.4-1.3 1.6-2.5zm78-.56c0-1.4-.17-2.5-.38-2.5s-.6 1.1-.86 2.5c-.27 1.4-.1 2.5.38 2.5.47 0 .86-1.1.86-2.5zm30-14c.32-6.2.27-6.3-.78-2.7-.62 2.1-1.5 3.4-2 3-.48-.44-.58.31-.23 1.7.35 1.4.7 5.2.78 8.5l.15 6 .86-5c.48-2.8 1-7.9 1.2-12zm24 12c-.03-.99-.34-.82-.91.5-1.2 2.8-1.2 4.3 0 2.5.53-.82.94-2.2.91-3zm-5.5-3c.28-2.5.26-3.6-.06-2.5-.31 1.1-1.2 2.8-2.1 3.7-.86.97-1.2 2.5-.87 3.4 1 2.6 2.4.44 3-4.6zm-130 2c.81-.51 1.1-1.3.61-1.7-.47-.44-1.1-.23-1.3.46-.25.69-.86 1-1.4.69-.5-.31-.91-.09-.91.49 0 1.3 1 1.3 3 .1zm41-.77c-1.7-.58-1.6-1.9.18-2.6.78-.3 1.9.04 2.5.77 1.2 1.5-.45 2.6-2.7 1.8zm22-4.7c-.38-2.5-1.2-4.6-1.7-4.6-.65 0-.84 1.5-.51 3.8.29 2.1.31 3 .03 2-.68-2.4-2.4-2.2-2.4.25 0 1.3.67 2 2 2 1.1 0 2 .52 2 1.2 0 .64.28.88.62.54s.31-2.7-.06-5.2zm97 .72c-.25-.97-.47-.42-.5 1.2-.02 1.6.19 2.4.47 1.8.27-.68.29-2 .03-3zm-166-1.2c-.94-1.8-.85-2.1.57-2.1.94 0 1.4-.27 1.1-.59-.32-.33-1.6-.28-2.8.1-1.6.5-1.9.99-1.1 1.8.6.6 1.1 2 1.1 3.1 0 1.4.3 1.7 1.1.91s.78-1.7-.03-3.2zm7.9.39c0-1.6-.57-2.5-1.5-2.5-1.8 0-1.9.45-.26 3 1.6 2.6 1.8 2.5 1.8-.51zm21 0c0-1.4-.45-2.5-1-2.5s-1 1.1-1 2.5.45 2.5 1 2.5 1-1.1 1-2.5zm3.6 1.1c.31-.79 1.2-1.2 2-.89 1.7.65.89 2.3-1.1 2.3-.81 0-1.2-.61-.86-1.4zm8.4.18c0-.82.68-2.1 1.5-2.7 1.1-.94 1.5-.95 1.5-.05 0 .69 1 1.1 2.4.87 1.4-.18 2.4.12 2.2.65-.11.54-1.2.84-2.5.67-1.3-.16-3 .24-3.8.9-1.2.96-1.4.9-1.4-.3zm22 .6c-.37-.36-.16-1.3.46-2 .62-.75 1.3-2.8 1.4-4.6l.31-3.2-1.6 3.5c-.86 1.9-2 4.3-2.4 5.2-.67 1.3-.48 1.8.79 1.8.92 0 1.4-.3 1-.66zm16-7.1c.06-.69-.35-1.2-.9-1.2s-.96 1.7-.9 3.8c.09 3.4.19 3.5.9 1.2.44-1.4.85-3.1.9-3.8zm77 3.7c0-1.1-.45-1.8-1-1.4s-1 1.3-1 2.1.45 1.4 1 1.4 1-.93 1-2.1zm-100-1.4c0-.86.45-1.6 1-1.6s1 .42 1 .94-.45 1.2-1 1.6-1-.08-1-.94zm-31-2.3c-.31-.8-.56-1.7-.56-1.9s-.45-.2-1 .14c-1.7 1.1-1.2 4.5.56 3.8.85-.33 1.3-1.2 1-2zm-16-1.9c-.7-.7-3.7.71-3.7 1.7 0 .51.94.43 2.1-.19 1.1-.61 1.9-1.3 1.6-1.6zm24 2.2c0-.23.27-1.1.61-2 .43-1.1.01-1.6-1.5-1.6-1.4 0-2.1.63-2.1 2 0 1.1.67 2 1.5 2 .82 0 1.5-.19 1.5-.42zm3.7-.18c-.72-.72.19-3.4 1.2-3.4.38 0 .75.9.84 2 .14 2-.79 2.6-2 1.4zm57-2.4c-1.5-2.4-2.2-1.9-1.3.94.37 1.2 1.1 1.8 1.6 1.5.52-.32.39-1.4-.28-2.5zm-93-2.2c-.01-3.1-.27-3.8-.98-2.8-1.3 2-1.3 7 0 7 .55 0 .99-1.9.98-4.2zm49 .94c-.07-2.1-.1-2.1-.93-.19-1.2 2.8-1.2 3.7 0 3 .55-.34.97-1.6.93-2.8zm7.2-2.8c-.79-4.4-.8-4.4-1.3-1.2-.28 1.8-.14 3.2.31 3.2.46 0 .83.75.83 1.7 0 .91.22 1.4.48 1.2.26-.26.12-2.5-.31-4.9zm5.4 1.6c1.7-4.1 1.8-4.5.52-4.5-.85 0-1.2.78-2.7 6.2-.86 3.1.7 1.9 2.2-1.7zm7.4 1.5c0-1.1-.45-2.2-1-2.6s-1-.11-1 .5-.45.84-1 .5c-1.4-.86-1.2.3.25 2 1.8 2 2.8 1.8 2.8-.44zm29-1.8c-1.1-1.1-1.6.43-.89 2.4.71 1.8.76 1.8 1.1.06.2-1 .1-2.1-.22-2.4zm6.4.43c.01-.44-.43-.53-.98-.19s-.99 1.4-.98 2.3c.01 1.5.14 1.5.98.19.53-.82.98-1.9.98-2.3zm22-4.7c.46-2.3.36-3.1-.32-2.5-.56.56-1.2 3.2-1.5 6-.54 5.2.52 3.2 1.8-3.5zm-118 4.6c1.7-2-.53-3.1-2.4-1.2-.82.83-1.5 1.8-1.5 2.1 0 1.1 2.8.54 3.9-.84zm46-6.3c.05-2.3-.32-3.1-1.2-2.7-1.1.41-1.5 6.2-.67 9.4.34 1.4 1.8-3.9 1.9-6.7zm31 4.8c-.36-.59-1.1-1.1-1.7-1.1-.66 0-.59.57.2 1.5 1.4 1.7 2.6 1.3 1.5-.45zm53-3.6v-2l-.86 2c-.47 1.1-.86 2.9-.86 4v2l.86-2c.47-1.1.86-2.9.86-4zm-106-3.4c-.65-.4-.9-1.6-.55-2.6.51-1.6.43-1.6-.42-.43-.58.82-.79 2.6-.46 3.9.33 1.3.09 2.7-.58 3.1-.66.41-.87 1.5-.48 2.5.57 1.5.97 1.1 2.2-1.9 1.1-2.8 1.2-3.9.31-4.5zm97 4.6c-.01-1.8-.19-1.9-.98-.69-1.3 2-1.3 4.3 0 3.5.55-.34.99-1.6.98-2.8zm21-3.2-1.1-3.6-.62 4.3c-.73 5-.08 6.8 1.6 4.5.9-1.2.92-2.5.09-5.2zm-57 4.1c0-.79-.45-1.7-1-2.1s-1 .31-1 1.4.45 2.1 1 2.1 1-.65 1-1.4zm40-2.6c0-1.3-.11-1.3-.97 0-.53.82-.97 2.2-.97 3 0 1.3.11 1.3.97 0 .53-.82.97-2.2.97-3zm22 1c0-1.6-.42-3-.93-3s-1.1-.56-1.4-1.2c-.24-.69-.28-.35-.09.75s.35 3 .36 4.2c0 1.2.46 2.2 1 2.2s1-1.4 1-3zm2.7-2.2c-.24-1.2-.45-.46-.46 1.7s.19 3.2.44 2.3c.25-.95.26-2.8.02-4zm-35-3.5c-.23-1.5-.42-.27-.42 2.8s.19 4.3.42 2.8.23-4 0-5.5zm-36 1.7c-1.8-1.6-3.6-2.9-4-2.9-1.4 0-2 2-1.4 4 .75 2.4 2.2 2.6 2.7.46.26-1.2.82-1 2.8.85 1.4 1.3 2.7 2 2.9 1.5.19-.51-1.1-2.2-2.9-3.9zm30-.68-.18-4.8-.38 4.3c-.25 2.8-.77 4-1.5 3.6-.66-.41-.81-.22-.39.48 1.5 2.5 2.6.93 2.4-3.6zm-144-.56c.01-.44-.43-.53-.98-.19s-.99 1.4-.98 2.3c.01 1.5.14 1.5.98.19.53-.82.98-1.9.98-2.3zm71-.44c-.39-.96-.85-2.4-1-3.2-.56-2.6-.66-2.6-1.4 0-.49 1.7-.23 2.9.85 3.7 2.1 1.7 2.4 1.6 1.6-.47zm97-3.2c-.35-2.6-.14-4 .6-4 .62 0 1.2-.79 1.2-1.8.06-1.5.19-1.4.9.25.78 1.9.87 1.9 1.9-.5s1-2.3 1.1 1.2c.09 5.3 2 5.9 2.2.62.08-2.7.3-3.4.58-1.8.67 3.7 1.9 4.5 1.7 1-.12-1.7.29-3 .94-3 .63-.03-.65-.7-2.8-1.5-2.2-.8-4.5-1.3-5.1-1s-1.5-1-1.8-2.8c-.42-1.9-.9-2.6-1.2-1.7-1.5 4.7-1.4 4.6-2.9 2.6-.79-1.1-1.5-3.5-1.5-5.5l-.08-3.6-.93 3c-.51 1.6-.75 3.8-.52 4.7.23.95-.22 2.2-.98 2.9-.77.63-1.4.82-1.4.41s-.68-.18-1.5.5c-.99.82-1.5.87-1.5.15 0-.6-.56-.88-1.2-.63-2.7.98-3.7-1.3-4.3-9.1-.71-10-2.5-18-3.6-16-1.2 2.1-2 19-.89 19 .48 0 1.1-1 1.3-2.2.32-1.6.48-1.4.57 1 .17 4-3 7.7-4.9 5.9-.95-.88-1.1-.85-.54.1.39.69.23 1.2-.35 1.2-.69 0-1.1-4.4-1.1-13-.02-17-.57-20-3.6-20-4.2 0-16 2.4-16 3.2 0 .44.88.8 2 .8s2.4.79 3 1.8c.9 1.5 1 1.6 1 .11.02-1 1.1-1.8 3-2.1 2.4-.36 3-.08 3 1.4 0 1-.45 1.6-1 1.3s-1-.14-1 .44.79 1.1 1.8 1.1c1.5.01 1.5.15.26.95-1.2.75-1.2 1.2-.25 2.2 1.4 1.4 1.7-.05 1.3-5.9-.19-2.7.14-3.2 1.8-3.2 2.8 0 3.2 2.1 3.7 18 .39 15 1.2 17 4.8 16 1.5-.39 1.8.01 1.7 1.9-.11 1.3-.14 3.5-.08 4.9.11 2 .33 2.2 1.1 1 .53-.82.98-2.7.98-4.2.01-1.5.47-2.8 1-2.8s1 1.3 1 2.9c0 1.6.76 3.5 1.7 4.2 1.4 1.2 1.6 1.2.85-.03-.46-.77-.98-2.9-1.1-4.8-.4-4.4 2-4.5 3.4-.1l1 3.2.13-3.5c.12-3.1.26-3.3 1.3-1.5 1.1 1.9 1.1 1.9 1.9 0 .6-1.5.79-1.2.84 1.5.04 1.9.39 3.1.79 2.7.4-.39.64-2.4.55-4.4-.12-2.7.02-3.1.53-1.5.53 1.7 1.1 2 2.2 1.3 2.7-1.7 3.2-1.1 2.5 3-.37 2.2-.38 4.9-.02 6 1 3.2 1.4 2.4.78-2zm-102-2.2c.02-.41-.86-.75-2-.75-2 0-2.5 1.5-1.4 4.5.57 1.5.83 1.4 2-.67.72-1.3 1.3-2.7 1.3-3.1zm118-6.8c.45 0 1.1.9 1.4 2 .54 2 2.9 2.9 2.5.88-.14-.62.31-1.3 1-1.6.83-.3 1.3.67 1.4 2.9l.13 3.3.74-3.5c.41-1.9.81-2.8.9-2 .13 1.1.64.93 2-.76 1.3-1.6 2-1.9 2.5-1 .32.69.37.14.09-1.2-.27-1.4-.5-3.3-.51-4.4-.01-1.6-.27-1.7-1.5-.63-.82.68-1.5 1.9-1.5 2.6 0 1.7-2.7 1.8-3.2.14-.23-.69.52-1.7 1.7-2.3 1.6-.84 2-1.9 1.8-4.9-.13-2.1-.63-4.1-1.1-4.4s-1.2-1.2-1.5-2.1-.41-.15-.12 1.5c.4 2.2.28 2.6-.47 1.5-.56-.82-1-2.6-1-3.9-.01-1.3-.35-2.1-.76-1.7s-.61 3.4-.44 6.8c.2 3.9-.05 5.8-.71 5.4-.56-.35-.76-1.4-.43-2.4.46-1.4.24-1.3-1 .28-.89 1.1-1.7 1.6-1.7 1s-.49.12-.93 1.5c-.58 1.8-.87.44-1.1-5l-.25-7.5-.68 8.5c-.38 4.7-.31 9.5.15 11 .46 1.3.92 4.2 1 6.5.17 3.8.23 3.7.56-1.1.2-2.9.74-5.2 1.2-5.2zm-187 4.9c-.9-2.3-.97-2.2-1 1-.04 2.4.26 3.1.97 2.4.68-.68.7-1.8.06-3.4zm135 .38c-.68-2.6-.81-2.6-1.6-.8-1.2 2.8-1.1 4.3.04 2.5.81-1.2.97-1.2.98.42.01 1 .3 1.6.64 1.3s.29-1.9-.11-3.4zm-102-3.3c-2-1.3-4.3-1.3-3.5 0 .34.55 1.6.99 2.8.98 1.8-.01 1.9-.19.69-.98zm108-2.5c-.22-.57-.9-.93-1.5-.79-.61.14-1.1-.43-1.1-1.2s-.45-1.5-1-1.5-1 .41-1 .92c0 2.2 1.2 3.6 3 3.6 1.1 0 1.8-.46 1.6-1zm-5.9-4.8c-.24-1.2-.45-.46-.46 1.7s.19 3.2.44 2.3c.25-.95.26-2.8.02-4zm-75-1.5c-.06-2.4-.17-2.5-.88-.75-.44 1.1-.6 2.3-.37 2.8.85 1.5 1.3.71 1.2-2zm78-5c-.05-8.4-.52-9.7-3.4-9.9-2.1-.12-2.4.19-1.8 2 .35 1.2 1.4 2.7 2.2 3.4.95.74 1.1 1.2.4 1.2-.65 0-1.2.65-1.2 1.4 0 .8-1 2.2-2.2 3.1-2.2 1.6-2.2 1.7-.13 1.2 1.4-.31 2.6.2 3.5 1.4 2.2 3 2.8 2.2 2.7-3.9zm-179 3.8c1.7-1.1.59-3.1-1.8-3.1-2.3 0-3.1.85-2.4 2.6.61 1.6 2.2 1.8 4.2.5zm181-6.2-.98-4.4-.1 5.4c-.08 3.9.2 5.1.97 4.4.75-.75.78-2.4.11-5.4zm31 3.1c-.29-1.1-.7-2-.91-2s-.38.9-.38 2 .41 2 .91 2c.49 0 .67-.9.38-2zm-105 0c.78-1.3-.54-1.3-2.5 0-1.3.84-1.3.97.19.98.93.01 2-.43 2.3-.98zm3.5-2.3c0-.73-1.6-2.1-3.6-3-2-.95-3.4-2-3.1-2.3.31-.31 2 .16 3.8 1 3.9 2 3.9 2 3.9.1 0-.82-.67-1.5-1.5-1.5s-2-.85-2.7-1.9c-.9-1.4-1.5-1.6-2.4-.73-3.3 3.3-4.7 9.3-2 8.3.82-.32 2.5-.17 3.8.33 3.2 1.3 3.8 1.2 3.8-.28zm80-5.4c.08-2.9.38-3.8.97-2.7.49.88.45 2.7-.11 4.2-.88 2.5-.96 2.4-.86-1.5zm-170 .89c.3-.47.28-1.1-.03-1.4-.79-.78-3.4.29-3.4 1.4 0 1.1 2.7 1.2 3.4.03zm192-10c-.52-2.3-.65-5.2-.29-6.3.62-2 .53-2-1.5.27-1.7 2-2.1 3.6-2 8.5.09 3.5.33 4.7.56 2.8.23-1.8.79-3.2 1.2-3.2s.64 1.9.39 4.2l-.46 4.2 1.5-3.2c1.1-2.4 1.2-4.2.52-7.4zm-177 5.8c0-1.3-2.3-.49-2.8 1-.24.73.21.96 1.2.58.87-.33 1.6-1 1.6-1.6zm161-5.6c-.11-2.4.28-4.7.85-5.3.73-.73.94.57.68 4.3-.25 3.6-.09 4.7.5 3.3.48-1.1.68-2.5.44-3.2-.23-.63.05-1.4.64-1.8.59-.36 1.1-.07 1.1.65.02.81.6.57 1.5-.63 1.4-1.9 1.5-1.9 1.5.5.07 2.3.13 2.3.93.44.79-1.8.87-1.8.96.5.09 2.3.2 2.3 1.2.65.77-1.3.76-2.2-.03-3-.6-.6-1.1-1.9-1.1-2.8s-.73-3.4-1.6-5.6-1.7-6.3-1.8-9.3c-.13-5.8-1.1-6.9-4-4.8-1.4 1.1-1.9 2.9-2.1 8.3-.33 9.9-.25 9.6-2.5 8.9-1.2-.36-2-.18-2 .43 0 .59.45 1.1 1 1.1.56 0 1 2.8 1 6.3 0 3.5.31 6.6.68 7 1.3 1.3 2.3-1.8 2.1-6.1zm23 2.3c.18-5.3 5.3-8.8 5.5-3.7.06 1.4.23 1.3.93-.31.64-1.5.92-.58 1.1 3.5l.22 5.5.7-4.5c.38-2.5.8-3.6.91-2.5.21 2 .22 2 1-.03.46-1.1 1.6-2.6 2.4-3.4 1.4-1.1 1.6-1.1 1.6.35 0 1 .45 1.4 1.2.95.8-.49.95-.15.48 1.1-.59 1.5-.46 1.6.83.54 1.6-1.4 2.1-3.5.59-2.6-.51.31-1.6-.33-2.3-1.4-.78-1.1-1.7-1.7-2.1-1.4-.36.37-.66.11-.66-.56 0-.68-.45-.95-1-.61s-1-.08-1-.94c0-2-.94-2-2.7.19-1.1 1.3-1.6 1.4-2 .45-.43-1-1-.97-2.9.27-2 1.3-2.4 1.4-2.4.15 0-1.2-.46-1.2-2.5-.28-2.6 1.2-2.9 2-1.5 5.2.81 1.9.86 1.9.93-.31.04-1.3.51-2 1.1-1.7.63.38.77 2.6.37 5.8-.36 2.9-.28 4.8.19 4.4s.91-2.3.98-4.2zm-98-2.1c-1.1-.81-2.4-1.4-3-1.4-.58.01.06.67 1.4 1.5 3.2 1.8 4 1.8 1.6-.03zm67-2.1c-.46-1.9-.32-2.4.48-1.9.63.39 1.2.23 1.2-.35s-.68-1.1-1.5-1.1c-1.6 0-1.9 1.7-.89 4.4.97 2.5 1.5 1.8.76-1.1zm-2.7-4.1c-.25-.96-.46-.18-.46 1.8s.21 2.7.46 1.8.25-2.5 0-3.5zm43 1.5c.04-1.2.31-1.7.58-.99.28.69 1 .94 1.7.55.64-.38.54.07-.21 1-1.8 2.2-2.2 2.1-2-.56zm-106-5.3c-.7-.84-1.5-1.3-1.7-1.1-.7.69.71 2.6 1.9 2.6.66 0 .59-.57-.2-1.5zm5 .63c0-.49-.68-1.2-1.5-1.5-1.5-.59-2 .48-.83 1.7.95.96 2.3.83 2.3-.22zm50-1.8c-.5-.5-5.7 1.4-5.7 2.1 0 .26 1.4 0 3-.59 1.7-.58 2.9-1.2 2.6-1.5zm12-.36c1.3-.86 1.3-.96 0-.89-.82.05-2.6.45-4 .89l-2.5.8 2.5.09c1.4.04 3.2-.36 4-.89zm25-1.5c.05 1.5 2-1.8 2-3.4.01-.79-.85-.29-2 1.2-1.1 1.4-2 2.9-2 3.4 0 .46.45.16.98-.66s.98-1 1-.5zm5-2.8c.01-.41-.43-.75-.98-.75s-.99 1-.98 2.2c.01 1.8.2 2 .98.75.53-.82.98-1.8.98-2.2zm-28 .67c.23.23.47-.68.55-2l.15-2.4-1.9 2.4c-2.2 2.8-2.5 4.4-.55 2.7.74-.61 1.5-.93 1.8-.71zm39-7.1c-.57-2.3-.39-2.5 1.4-2 2.2.56 6.1-2.6 4.8-3.9-.72-.73-11-.5-12 .25-.88.89-.88 10 .01 10 .49 0 .9.74.9 1.6 0 1.2.61.99 2.5-1.1 1.9-2 2.4-3.3 1.9-5.3zm-56 3.1c.9-.13 2.7-.94 4-1.8 1.8-1.2 2.5-1.2 2.8-.33.31.87.99.72 2.4-.53 1.1-.96 2.4-1.8 2.8-1.8.48 0 1.8-.84 2.9-1.9 1.1-1 4.5-3.2 7.6-4.7s5.8-3.4 6.2-4 2.1-1.7 3.7-2.4c3.7-1.5 4.2-3 4.3-13 .04-4.1.46-7.5.93-7.5.48 0 .88.79.89 1.8 0 .99.33 1.3.75.75 1.2-1.7 5.3-3.6 6.3-3 .53.32.96 3 .96 6 0 5.7 1.4 7.1 4 3.9 1.5-1.8 7.4-4.4 10-4.4 1.8 0 1.9-2.4 1.9-82-.01-45-.29-83-.63-85-.86-3.2-3.7-2.4-4.5 1.3-.48 2.2-.67 2.4-.76.79-.07-1.2-.68-2.6-1.4-3s-1.8-1.7-2.4-2.8c-.62-1.1-1.9-1.9-2.8-1.9-.88.08-1.6-.31-1.6-.86s-.59-.77-1.3-.49-1.8-.33-2.5-1.4c-.68-1.1-1.8-1.6-2.7-1.3-.83.32-1.5.06-1.5-.58s-.4-.92-.9-.61c-.49.3-2.4-.08-4.2-.85-2.2-.95-3.9-1.1-5.1-.46-1.3.7-1.8.57-1.8-.51 0-.8.56-1.7 1.2-2 .77-.31.6-.53-.44-.58-.93-.04-1.9.28-2.2.73-.27.44-4.2.27-8.7-.38-4.5-.66-9.4-.84-11-.42-2.1.61-3.3.26-5.4-1.6-1.5-1.3-3.4-2.1-4.1-1.8s-1.4.09-1.4-.46.75-1.3 1.7-1.6c.96-.36 1.3-.98.75-1.4-1.4-1.2-12-5.3-13-5-.5.14-2.5-.06-4.4-.45s-4.5-.9-5.7-1.1c-1.2-.24-2.5-.01-2.8.5-.32.52-1.2.94-2.1.94-.87 0-1.2-.48-.79-1.1.49-.8-.12-.99-2-.64-4.1.79-4.1-.9.09-3.5 4.3-2.7 10-5.7 12-6.1.73-.14 3-.95 4.9-1.8 2-.86 5.1-1.9 7-2.3 1.9-.4 4-1.2 4.6-1.7.69-.55 1.2-.66 1.2-.23s.87-.01 1.9-.97c1.1-.97 2.4-1.5 3-1.1.58.36 1.1.21 1.1-.34 0-1.6-1.7-2.2-6.8-2.3-2.7-.06-6.3.62-8.1 1.5-1.8.91-3.7 1.4-4.2 1.1-.84-.51-5.6 1.2-10 3.6-.94.52-3.6 1.2-5.9 1.5-4.2.53-9.8 3.4-13 6.7-.99.99-2.4 1.8-3.2 1.8-.78 0-2 1.6-2.7 3.5-1.4 3.9-3 4.8-2.1 1.2.45-1.8-.27-1.4-3.7 2-2.3 2.3-4.6 4-5 3.8-.44-.26-2 1.3-3.6 3.5-3.1 4.5-4.2 4.5-2.6.01 1.3-3.7.03-4-2.6-.55-2.4 3-3.7 3.3-2.2.52.83-1.6.77-1.9-.33-1.4-.76.29-1.9 1.6-2.5 3-.62 1.3-1.8 2.4-2.6 2.4-1.7 0-2-1.6-.52-2.5 2.1-1.3.88-2.3-1.5-1.2-1.4.64-2.5 1.5-2.5 1.9-.01.41-.72.75-1.6.75-1.1 0-1.4-.58-.89-2.1.45-1.4.31-1.9-.43-1.4-.61.38-1.1 1.3-1.1 2.1 0 1.4-2.1 2-3.3.81-.35-.35-.16-1.5.41-2.6.92-1.7.82-1.8-.91-.9-3.2 1.7-3.5 5-.55 6.2 2.3.86 2.5 1.4 2.3 6.2-.22 4.9.04 5.5 3.5 9 3.6 3.6 3.7 3.8 2.2 6.6-1.8 3.5-3.3 31-1.8 32 .54.34.75 1.5.46 2.6-.3 1.2-.03 2 .64 2 .65 0 1.8 1.6 2.7 3.6 1.2 2.8 1.3 4.6.53 8.2-1.4 6.5-.57 9.5 3 11 1.7.73 4.9 3.1 7.2 5.3 3.4 3.2 4.7 3.8 6.9 3.4 2-.4 3.4.02 4.8 1.5 2.4 2.4 1.7 4.4-1 2.9-2.7-1.4-4-1.2-3.4.5.31.82 1.4 1.5 2.4 1.5 1.3 0 2 1.1 2.5 4 .37 2.2 1.3 4.4 2.1 4.8.83.47 1.5 2.8 1.7 5.8.17 3 .89 5.4 1.8 6.1.82.64 1.2 1.5.83 1.8-.36.36-.04 2.1.71 4 2.4 5.8 4.5 17 4.8 26 .19 4.7.91 10 1.6 13 1 3.5 1 4.8.01 6.7-2.1 4-.48 11 3.5 15 2.6 2.6 3.4 4.3 3.4 6.9 0 2.8.46 3.6 2.2 4.1 3 .77 3.9-.91 3.6-6.4-.19-3.2-.9-5-2.5-6.3-2.2-1.8-2.2-1.8-.35-3.8 1-1.1 2.2-3.5 2.5-5.3s1.3-3.6 2.2-3.9c1.2-.44 1.4-1.4 1-3.4-.32-1.6-.14-3.3.4-3.8.62-.62.42-2.3-.58-4.7-1.7-4-1.3-5.5 2.7-11 1.3-1.7 1.8-3.7 1.6-6.5-.29-3.8-.16-4 2.7-4.3 2.9-.28 3-.14 3.2 4.2.21 4.8 2.4 10 4.5 11 .9.3 1.3 3 1.3 9.3 0 7.6.23 8.9 1.6 8.7 1.2-.2 1.5.34 1.2 2.2-.31 1.6.26 3.1 1.6 4.5 2.3 2.3 2.7 4.6 1.1 5.6-1.6 1-1.2 18 .47 20 .81 1.1 1.5 2.7 1.5 3.7s.67 1.8 1.4 1.8c2.2 0 3.1 5.8 1.2 7.9-.87.96-1.6 2.2-1.6 2.7 0 .51.42.28.92-.51.49-.79 1.6-1.5 2.5-1.7zm20-2.9c0-1.8-2.6-2-3.6-.35-.42.69-.27.89.38.49.59-.37 1.4-.22 1.7.34.9 1.5 1.5 1.3 1.5-.48zm27-8.9c.59-2.7.87-5.1.64-5.4-.24-.23-.73.93-1.1 2.6-.65 3-3.5 6.5-3.5 4.3 0-.58.45-1.3 1-1.7s1-1.1 1-1.8c0-.63-1.1.39-2.5 2.2-2.6 3.5-3.3 5.6-1.5 4.5.55-.34 1 .09 1 .95 0 1.3.33 1.4 2 .34 1.2-.74 2.4-3.2 3-6.2zm-104 .8c0-.86-.45-1.3-1-.94s-1 1-1 1.6.45.94 1 .94 1-.7 1-1.6zm91-4c-.97-.98-3.7 1.6-3.7 3.4 0 1.3.43 1.2 2.2-.59 1.2-1.2 1.9-2.5 1.5-2.9zm5.2.98c1.2-2 2.4-3.3 2.8-3 .36.35.11 1.2-.54 1.8s-1.2 1.6-1.2 2.2c0 2.7 2.3-1.7 2.6-4.9.23-3 .03-3.4-1.1-2.5-1.2 1-5.5 8.4-5.5 9.5 0 1.2.98.16 2.9-3.2zm24-4.5c-.32-2-.46-1.9-.92.91-.33 2-.18 2.9.37 2.4.51-.51.75-2 .55-3.3zm-22-6.2c-.01-1.8-.19-1.9-.98-.69-1.3 2-1.3 4.3 0 3.5.55-.34.99-1.6.98-2.8zm11-.28c0-.2-1.1.15-2.5.77-1.4.63-2.5 1.5-2.5 2 0 .48 1.1.13 2.5-.77s2.5-1.8 2.5-2zm-200-6.6c.99-.33 1.1-.7.33-1.2-1.3-.77-4.3 1.8-4.2 3.6.02.7.53.53 1.2-.41.67-.87 1.9-1.8 2.7-2.1zm8 1.2c0-.55-.7-1-1.6-1s-1.3.45-.94 1 1 1 1.6 1 .94-.45.94-1zm-2-2.4c0-.19-.9-1.4-2-2.6-2.2-2.6-2.7-2-.76 1 1.1 1.7 2.8 2.7 2.8 1.6zm96-4c0-.71-.4-.59-.98.31-.8 1.2-.97 1.2-.98.08-.01-.78-.29-1.1-.62-.81-.9.9.59 2.8 1.7 2.2.51-.32.92-1.1.91-1.8zm-102-10c0-.76-.45-1.7-1-2-.57-.35-1 .51-1 2s.43 2.4 1 2c.55-.34 1-1.2 1-2zm127-3.8c-.01-2.4-.24-2.8-.98-1.7-1.3 2-1.3 6.3 0 5.5.55-.34.99-2 .98-3.8zm5.1-12c1 .64 1.3-.87.27-1.9-.7-.7-5.4 4.2-5.4 5.7 0 .49.94-.3 2.1-1.8 1.1-1.5 2.5-2.4 3-2.1zm-31 2.4c-.34-.55-1-1-1.6-1s-.94.45-.94 1 .7 1 1.6 1 1.3-.45.94-1zm-215-13c.38-1.2 1.1-4 1.6-6.1 2.3-9 7.4-15 12-14 .96.22 1.8-.04 1.8-.57 0-.92 4.7-2.7 6.2-2.3.41.09.75-.5.75-1.3 0-.89.59-1.2 1.5-.89.83.31 1.5.08 1.5-.53s.48-1.1 1.1-1.1c1.2 0 3.9-2.5 3.9-3.5 0-1 2.7-3.5 3.8-3.5.54 0 1.2.56 1.5 1.2s.54.38.58-.69c.08-1.9.1-1.9 1.6 0 1.4 1.8 1.5 1.8.91-.71-.49-2.2-.25-2.6 1.2-2.5 1 .08 2.2.6 2.7 1.2.53.65 1 .54 1.3-.29.4-.99.85-1 1.9-.13 1.1.94 1.4.74 1.4-1.1 0-1.5.45-2.1 1.4-1.7.78.3 1.6.01 1.9-.65.26-.65.55.16.64 1.8l.16 3 1.2-2.6c1.5-3.4 3.7-5.4 6.2-5.7 5-.59 6.1-1.1 7.1-3.2.62-1.2 1.4-2.2 1.8-2.2 2.7.27 3.6-.18 3.7-1.7.03-1.6.09-1.6 1.1.02.57.98 1.4 1.6 1.8 1.3.44-.27 3.6-.77 7-1.1 6.2-.63 6.2-.61 5.6 1.7-.6 2.2-.54 2.2.76.6 1.6-2 3.7-2.3 3.7-.64 0 .61.68.84 1.5.53.82-.32 1.5-.22 1.5.22s1.3.6 2.9.37c1.6-.23 3.2.07 3.6.67.44.71-.42 1.1-2.4 1.1-1.7 0-3.1.51-3.1 1.1 0 .78-.46.74-1.5-.12-.82-.68-1.5-.81-1.5-.28 0 1.5-4.1 2.9-7.6 2.7-2.4-.15-3.4.37-4.4 2.1-.68 1.3-2.4 2.6-3.7 2.9-3.1.78-12-.41-12-1.7-.79-1.2-2.9-.05-2.9 1.6 0 1.3-5.4 4.9-6.1 4.2-.23-.24-3 1.8-6.3 4.6-4.7 4-6.1 4.8-7.3 3.8-1.1-.9-1.7-.9-2.6-.03-.64.64-1.9 1.2-2.8 1.2-1.8 0-12 9.4-12 11 0 .53-.9.97-2 .97s-2 .49-2 1.1c0 .6-.56.88-1.2.63-1.7-.62-7.2 1.7-9.9 4.2-1.2 1.1-2.5 1.8-2.9 1.6-.43-.26-1.7.88-2.9 2.5-2.6 3.6-4.5 4-3.6.76zm121-12c-1.1-1.7-1.1-1.7-.57.05.32 1 .64 2.8.72 4 .13 2.2.13 2.2.56-.05.24-1.2-.08-3-.71-4zm43 .32c-.09-3.7-1.6-3.9-1.6-.21 0 1.9.72 3.6 1.5 3.6.09 0 .13-1.5.09-3.4zm-117-17c.26-1.4.09-2.2-.38-1.9-.48.29-.86 1.2-.86 2.1 0 1.3-.28 1.3-1.5.32-1.4-1.2-2.2-.02-.83 1.3 1.4 1.4 3.1.56 3.6-1.8zm118-5.1c0-.86-.45-1.3-1-.94s-1 1-1 1.6.45.94 1 .94 1-.7 1-1.6zm-33-2.6c0-1.4-1.7-1-2.3.56-.37.97-.08 1.3.89.89.8-.3 1.4-.96 1.4-1.4zm-170-2.8c.09-1.6-.2-2.7-.66-2.4-.46.29-.84 1.9-.84 3.6 0 3.9 1.3 2.9 1.5-1.2zm3.5-.74c0-.45.45-1.5.98-2.3.84-1.3.97-1.3.98.19.01.93-.43 2-.98 2.3s-.99.25-.98-.19zm164-3.6c0-2-2.5.11-2.8 2.4-.27 2.3-.23 2.4 1.2.48.84-1.1 1.5-2.3 1.5-2.8zm-164-3.8c0-1.7-1.8-.83-2.3 1.2-.45 1.7-.29 1.8.88.87.78-.64 1.4-1.6 1.4-2zm2-3.9c0-.52-.45-.94-1-.94s-1 .7-1 1.6.45 1.3 1 .94 1-1 1-1.6zm9.9-8.4c.78 0 2-1.5 2.8-3.3.85-2.1.95-3.1.26-2.6-.6.37-1.5 1.8-2 3.1-.51 1.4-1.3 2.2-1.8 1.9-1.2-.71-5.3 2.9-4.4 3.8.4.39 1.4-.1 2.2-1.1.83-1 2.2-1.8 2.9-1.8zm187-1.3c-.67-.67-3.5 1.8-3.5 3.1 0 .57.9.21 2-.79 1.1-.99 1.8-2 1.5-2.3zm-202-5.7c0-1.4-.39-2.5-.88-2.5-.48 0-.87 1.1-.87 2.5s.39 2.5.87 2.5c.49 0 .88-1.1.88-2.5zm16-2.5c1-1.1 1.4-2 .9-2-.51 0-1.5.9-2.2 2-.68 1.1-1.1 2-.89 2 .19 0 1.2-.9 2.2-2zm4.8.01c-.28-1.1-.92-1.7-1.4-1.4-1.4.87-1 3.4.52 3.4.91 0 1.2-.7.88-2zm-13-2.3c.01-.41-.43-.75-.98-.75s-.99 1-.98 2.2c.01 1.8.2 2 .98.75.53-.82.98-1.8.98-2.2zm32-8.3c1.3-1.4 1.9-2.5 1.4-2.5s-2 1.1-3.3 2.5-1.9 2.5-1.4 2.5c.5-.01 2-1.1 3.3-2.5zm-41-6.7c-.24-1.2-.44-.22-.44 2.2s.2 3.5.44 2.2c.23-1.2.23-3.3 0-4.5zm49 2.6c.95-2.5-.1-2.8-1.4-.45-.62 1.2-.7 2.1-.19 2.1s1.2-.74 1.6-1.6zm9.5-5.9c-.02-.55-1.1.35-2.5 2s-2.4 3.4-2.4 4 1.1-.35 2.5-2 2.4-3.4 2.4-4zm5-1.9c-.01-.63-.9-.02-2 1.4-2.6 3.3-2.5 5.2.03 2.1 1.1-1.3 2-2.9 2-3.5zm144-5.4c-.67-6.5-2.6-11-4.5-11-1.7 0-3.2 4.2-2.6 7.1.41 2 .08 3.2-1.2 3.9-1.2.78-1.4 1.2-.47 1.6.69.29 1.2 1.6 1.2 2.9 0 2.2.43 2.4 4.1 2.4h4.1l-.7-6.8zm-105 5.4c0-.85-5.1-1.3-5.6-.49-.3.48.84.87 2.5.87s3.1-.17 3.1-.38zm-73-2.7c0-.52-.45-.94-1-.94s-1 .7-1 1.6.45 1.3 1 .94 1-1 1-1.6zm-3-.94c0-1.1-.17-2-.38-2s-.62.9-.91 2-.11 2 .38 2c.5 0 .91-.9.91-2zm98-1.7c-.41-.41-1.2-.08-1.7.73-1.5 2.4-1.1 3.5.73 1.7.93-.93 1.4-2 .95-2.4zm-123-1.6c.01-.99-.43-1.5-.98-1.2s-.99 1.8-.98 3.3c.01 2.1.22 2.4.98 1.2.53-.82.98-2.3.98-3.3zm111 .67c-.29-1.4-.54-1.1-.97.97-.37 1.8-.23 2.5.4 1.8.53-.53.79-1.8.57-2.8zm-82 0c.83-2.2-.28-3.2-1.5-1.3s-1.2 3-.07 3c.49 0 1.2-.74 1.5-1.6zm35-2.4c0-.52-.45-.94-1-.94s-1 .7-1 1.6.45 1.3 1 .94 1-1 1-1.6zm-50-5.3c.62-1.1.58-1.7-.11-1.7-.58 0-1 .45-1 1s-.51.89-1.1.75c-.62-.14-1.3.28-1.6.92-.66 1.8 2.8.91 3.8-1zm-13-6.2c-.02-1.6-.19-1.5-.83.5-1.1 3.4-1.1 6 0 3.5.47-1.1.85-2.9.83-4zm57 .75c-.25-.96-.46-.18-.46 1.8s.21 2.7.46 1.8.25-2.5 0-3.5zm-39 .01c-.69-.7-2.6.71-2.6 1.9 0 .66.57.59 1.5-.2.84-.7 1.3-1.5 1.1-1.7zm93 .24c.81-2.1 2.4-1.9 1.7.25-.48 1.4-.34 1.5.64.6 1.6-1.5.16-3.8-2.5-3.9-1.4-.04-2 .64-2.2 2.2-.16 2.6 1.4 3.1 2.3.8zm26-7.6c.28-1.1.1-1.7-.4-1.4s-.91 1.1-.91 1.7-.79 2-1.8 3.2c-1.7 2.1-1.7 2.1.4.27 1.2-1 2.4-2.7 2.7-3.8zm-8.1.87c-.93-.93-1.2-.67-1.2 1.2s.27 2.1 1.2 1.2.93-1.5 0-2.4zm-52-4.6c0-1.4-1.5-.83-1.5.62 0 .37-.43 1.4-.94 2.2-.8 1.3-.69 1.3.77.13.93-.76 1.7-2.1 1.7-2.9zm143 1.9c0-.48-.63-1.4-1.4-2-1.1-.88-1.6-.89-2.1-.01-.39.64-.1 1.6.66 2 1.8 1.1 2.9 1.1 2.9.02zm-209-3.2c1.1-1.7-.15-2.1-1.5-.45-.79.95-.86 1.5-.2 1.5.58 0 1.4-.48 1.7-1.1zm19-2.7c0-1.3-.29-1.2-1.5.37-1.9 2.5-1.9 4-.03 2.4.83-.68 1.5-2 1.5-2.8zm101 1c-.33-.34-1.4.2-2.3 1.2-1.6 1.7-1.6 1.8.61.61 1.3-.66 2.1-1.5 1.7-1.8zm-129 .19c.38-.98.15-1.4-.58-1.2-1.5.5-2.3 2.8-1 2.8.54 0 1.2-.71 1.6-1.6zm7.6-.92c1.1-1.3.72-1.5-2.4-1.5-2.4 0-3.4.38-3 1.1.37.59 1.3.82 2.1.53.77-.3 1.4-.1 1.4.43 0 1.4.56 1.2 2-.53zm21-2.8c1 1.4 4.4.91 9.3-1.4 2.6-1.2 5.1-2.2 5.5-2.2.45 0 1.4-.94 2.1-2.1.72-1.2 1.6-1.8 1.9-1.5.32.33 1.2.09 1.9-.52s1.3-.78 1.3-.37.75.13 1.7-.63c1.5-1.2 1.6-1.1 1 1.1-.59 2.4-.55 2.4.83.56.8-1.1 1.4-2.5 1.4-3.1s.75-1.8 1.7-2.6c1.3-1.1 1.8-1.1 2.1-.12.64 1.9 2 1.5 2.8-.83.37-1.1.92-1.8 1.2-1.5.31.31 1.2 0 2.1-.68 1.3-1.1 1.4-.95.72.76-.44 1.1-1 2.9-1.3 4-.45 2-.44 2 1.1.06.86-1.1 1.6-2.7 1.6-3.7s.45-2 1-2.4 1-.06 1 .63c0 .7.88.3 2-.9 1.1-1.2 2-2.4 2-2.6s-2.1-1.6-4.6-3c-3.5-2-4.5-2.2-4-.98.52 1.4.06 1.5-3.2.87-2.1-.41-6.8-.78-11-.83-5.5-.07-7.1.27-8.2 1.7-.71.98-1.5 1.4-1.8.93s-2.2-.71-4.4-.54-4.9.29-6.3.27c-4.7-.07-12 2.2-11 3.7.28.74.02 1.3-.59 1.3s-1.1-.41-1.1-.92c0-2.9-19 6.6-19 9.9-.5 2.6.41 9 1.2 8.6.42-.26 6.2-.68 13-.94 12-.46 12-.45 11 1.7-.52 2.2-.51 2.2 1.7-.16 1.2-1.3 2.6-2 2.9-1.5zm63 .54c.24-.73-.21-.96-1.2-.58-.87.33-1.6 1-1.6 1.6 0 1.3 2.3.49 2.8-1zm-18-9.4c0-.53-.67-.28-1.5.55-.83.82-1.5 1.8-1.5 2.2s.67.13 1.5-.55 1.5-1.7 1.5-2.2zm58 1.1c1.1-1.7-.15-2.1-1.5-.45-.79.95-.86 1.5-.2 1.5.58 0 1.4-.48 1.7-1.1zm-61-2.9c0-1.1-.17-2-.38-2s-.62.9-.91 2-.11 2 .38 2c.5 0 .91-.9.91-2zm96-1.4c0-.78.26-2.2.58-3.2.53-1.7.45-1.7-1 .11-1.8 2.2-2.1 4.6-.58 4.6.55 0 1-.64 1-1.4zm29-.08c0-.83-.45-1.5-1-1.5s-1 .67-1 1.5.45 1.5 1 1.5 1-.67 1-1.5zm-68-3.5c0-1.3-.11-1.3-.97 0-.53.83-.97 2.2-.97 3 0 1.3.11 1.3.97 0 .53-.83.97-2.2.97-3zm15 1.4c0-1.5-.36-2.2-.91-1.7-.5.5-.62 1.7-.27 2.6.89 2.3 1.2 2.1 1.2-.91zm-66-.42c.03.91.62.51 1.5-1 2.2-3.8 1.8-4.5-.98-1.8-1.4 1.3-2.5 2.8-2.5 3.4s.44.33.97-.5c.86-1.3.98-1.3 1 0zm101-3.1c-.52-1.3-.98-1.9-1-1.2-.08 1.6 1.1 4.5 1.6 4 .21-.22-.04-1.5-.57-2.8zm22-.63c.1-3.6.06-3.6-1.2-1.3-1.1 2.1-.81 3.7 1 5 .03.02.1-1.6.16-3.7zm106 1.6c-2.1-1.3-3.1-1-1.6.51.71.76 1.7 1.2 2.2.87s.24-.91-.5-1.4zm-125-2.6c-.25-.97-.47-.42-.5 1.2-.02 1.6.19 2.4.47 1.8.27-.68.29-2 .03-3zm6.8-4.9c.31-5-.48-3.5-1.9 3.6-.51 2.6-.4 3.2.44 2.3.62-.62 1.3-3.3 1.4-6zm-111 4.2c0-.83-.45-1.5-1-1.5s-1 .67-1 1.5.45 1.5 1 1.5 1-.67 1-1.5zm137-1.1c0-.86-.45-1.3-1-.94s-1 1-1 1.6.45.94 1 .94 1-.7 1-1.6zm10-2.6c0-1.1-4.9 2.3-5 3.4-.02.43 1.1.04 2.5-.86s2.5-2.1 2.5-2.6zm15 .34c-.79-.8-2.5 1-1.9 2 .41.67.93.57 1.5-.29.45-.73.65-1.5.44-1.7zm-109-4c0-.63.45-1.1 1-1.1s1-.48 1-1.1-.34-.85-.75-.59c-.41.25-.75-2.9-.75-6.9 0-6.9-.2-7.6-3-10-2.9-2.8-12-8.1-13-8.1-.49 0-1.2.93-1.6 2.1-.38 1.2-1.2 1.9-2 1.6-.93-.35-1.2 0-.74 1.1.49 1.3.21 1.5-1.3.89-1.5-.58-1.7-.48-.67.53 1.9 1.9 1.5 3.1-.69 1.9-1.1-.57-2.2-.65-2.5-.19-.92 1.5.11 15 1.2 16 .76.76.92.37.55-1.3-.49-2.2-.43-2.3.96-.57.82 1 1.8 1.8 2.3 1.7.44-.07 1.1.68 1.5 1.7.63 1.6.73 1.5.79-.43.04-1.3.7-2.2 1.6-2.2 1 0 1.5-1 1.5-3 0-1.6.2-3 .44-3 .25 0 2 .94 4 2.1 3.6 2.2 3.7 2.2 3.9 11 .03 1.1.45 2.3.94 2.6 1 .72 5.7-3.3 5.7-5zm51 4.5c-.29-.77-.06-1.7.53-2.1.59-.36 1.1-1.4 1.1-2.4 0-1.2-.62-.75-2 1.3-1.5 2.2-1.6 3.2-.74 3.7 1.6 1 1.7 1 1.1-.6zm68-6.8c-.02-.72-.47-.51-1 .49-.56.96-1.7 1.8-2.5 1.8s-1.3.4-.96.89c.3.48-.12 1.4-.94 2.1s-1.5 1.7-1.5 2.4c.01.62 1.6-.55 3.5-2.6 1.9-2 3.5-4.3 3.4-5zm-222 5.7c0-.86-.45-1.3-1-.94s-1 1-1 1.6.45.94 1 .94 1-.7 1-1.6zm60-2c0-2.8 2-3.4 2-.69.02 1.4.28 1.3 1.3-.53.69-1.3 1.5-2 1.8-1.7.76.76 6.4-9.2 7.2-13 .38-1.6.23-2.8-.37-2.8-.56 0-1 .5-1 1.1s-.7.84-1.6.51c-1.1-.43-2 .48-3.2 3.1-1.4 3.1-1.7 3.4-2 1.6-.32-1.9-.61-1.8-3.8 1.4-4.5 4.5-7.3 9.5-4.2 7.6.8-.49.96-.16.49 1.1-.52 1.4-.3 1.6.95 1.2 1.3-.5 1.5-.13 1.2 1.9-.26 1.4-.09 2.2.38 2 .48-.29.86-1.6.86-3zm74-.96c0-1.2-2 .65-3.1 2.8l-1.1 2.2 2.1-2.2c1.2-1.2 2.1-2.5 2.1-2.8zm-13-2.1c-.29-1.8-.09-3.6.46-4 .56-.34.76-1.3.46-2-.62-1.6 2.2-5.4 4.1-5.4.68 0 1.6.68 2.1 1.5.69 1.2 1.1 1.3 2.4.25 1.8-1.4 3.1-10 1.7-11-.48-.3-.88-1.2-.88-2 0-.82.45-1.2 1-.88s1 .14 1-.44-.42-1.1-.92-1.1c-.51 0-1.4-1.5-2-3.2-1.3-3.8-6-7.9-6-5.3 0 .85-.95 2.5-2.1 3.6-3.3 3.3-7.4 13-6 14 .63.63 1.1 4.6 1.1 9.3 0 9.4.53 12 2.7 11 1.1-.43 1.4-1.5.98-3.9zm62 .07c-.33-.34-1.2.44-1.8 1.7-1.1 2.2-1.1 2.3.61.61 1-.95 1.5-2 1.2-2.3zm-24-2.4c0-.95-.32-.76-.86.5-.47 1.1-.86 2.7-.86 3.5 0 .95.32.76.86-.5.47-1.1.86-2.7.86-3.5zm17-2c1.4-2.2 2.5-4.3 2.5-4.7 0-1.3-5.9 6.1-6 7.4-.07 2.1.83 1.4 3.4-2.7zm-12-3.8c-.89-.89-2.5 1.9-2.5 4.3.02 1.6.29 1.5 1.6-.84.84-1.6 1.2-3.1.9-3.5zm22 2.2c-.33-.34-1.2.44-1.8 1.7-1.1 2.2-1.1 2.3.61.61 1-.95 1.5-2 1.2-2.3zm-35-1.9c.03-.55-.38-.33-.91.5s-.94 2.2-.91 3c.05 1.6 1.7-1.6 1.8-3.5zm55 .8c-.41-.41-1.2-.08-1.7.73-1.5 2.4-1.1 3.5.73 1.7.93-.93 1.4-2 .95-2.4zm-90-3.6c-.24-1.2-.44-.22-.44 2.2s.2 3.5.44 2.2c.23-1.2.23-3.3 0-4.5zm57 3.5c1.9-2.4 4.5-7.2 3.9-7.2-.26 0-1.9 2-3.6 4.5-3 4.3-3.2 6.4-.34 2.8zm-29-1.8c-.87-1.6-.99-1.6-1.6-.03-.37.98-.23 1.4.35 1 .55-.33.99-.06.99.62 0 .67.27.96.59.63.33-.32.17-1.4-.35-2.3zm194-17v-16l-5.2.46c-9.4.8-14 1.6-14 2.5-.32.52-1.4.94-2.5.94s-3.1 1.1-4.6 2.5c-1.5 1.4-3.7 2.5-5 2.5-1.3 0-2.5.4-2.8.9-.3.49-2.5 1.9-4.8 3.1-5.3 2.8-7.9 5.4-7.1 7.4.37.98.04 1.6-.91 1.6-1.5 0-3.2 2.8-2.3 3.8.28.27 3.3.03 6.8-.54 3.4-.56 11-1 16-1 8 0 10 .33 12 1.9 1.3 1 3.1 1.6 4 1.3.88-.34 1.6-.15 1.6.41 0 .57 1.3 1.3 3 1.7 1.6.36 3.2 1.1 3.6 1.6 1.9 3 2.4-.58 2.4-15zm-173 3c-.3-.48.02-1.1.71-1.3.69-.24.92-.81.51-1.2-1-1.1-2 .02-2.3 2.8-.15 1.2-.99 4-1.9 6-.88 2-1.6 4.3-1.6 5 .02.7 1.2-1.3 2.5-4.5 1.4-3.2 2.2-6.2 2-6.7zm-19 6.6c.75-1.7 1.4-2.5 1.4-1.7.03 1.1.5.99 2-.4 1.4-1.3 2-1.4 2-.5s.61.76 2-.5c1.1-1 2-1.4 2-.9.02.49.69.03 1.5-1s1.5-1.6 1.5-1.1.66.01 1.5-1.1 1.5-1.5 1.5-.94c.04.55.69-.12 1.4-1.5s2-2.6 2.7-2.6c3.1-.27 5.6-1.7 7.1-4.2l1.6-2.7 1 2.5c.89 2.2 1 2.3 1.1.4.06-2 3.7-6.3 4.7-5.6.88.62 7.3-5.9 7.3-7.4 0-.82.55-1.4 1.2-1.2.7.14 1.2-.9 1.3-2.5.04-1.5 1.1-4.1 2.3-5.7 1.2-1.6 2.2-3.4 2.2-4s.9-.91 2-.83c1.1.09 2 .62 2 1.2.01.69.26.7.75.04.4-.55 1.4-1 2.2-1s1.8.45 2.3 1c.47.62 1.2.34 1.8-.73.69-1.2 2-1.6 4-1.4 1.7.2 3.4-.25 4.1-1.1.88-1.1 1.4-1.1 1.9-.23.52.85 1.4.56 3.1-.98 1.3-1.2 3-2 3.8-1.8.84.2 3.2-.47 5.2-1.5s5.1-1.8 6.9-1.8c2.7 0 3 .23 2 1.5-.67.8-.91 1.9-.54 2.5.98 1.6 3.7-.93 3-2.8-.37-.98-.07-1.3.91-.89.89.34 1.7-.21 2.1-1.4.34-1.1.96-1.8 1.4-1.5.41.25 3.6-.22 7.2-1 3.5-.83 8.7-1.7 11-2 2.7-.27 5.4-.83 6-1.2 1.6-1.2 5.6-.55 6.6.98.67 1.1 1.1 1.1 2.1.13s.94-1.2-.21-1.3c-1.1-.02-1.1-.25.23-1 1.7-1 6.8.58 6.8 2.1 0 1.4 5.2.23 6.2-1.4.71-1.3 1.5-1.4 3.4-.68 1.6.6 2.5.59 2.5-.03 0-.54.44-.98.97-.98s.67.79.31 1.8c-.57 1.5-.44 1.6 1 .38.93-.76 1.7-.93 1.7-.39s1.1.86 2.5.71 2.5.09 2.5.54.9.59 2 .3c1.2-.3 2-.03 2 .65 0 .65.43.91.95.59 1.3-.82 17 5.4 17 6.7 0 .6.28.81.63.47.34-.35 2 .06 3.6.9 1.6.85 2.7 1.8 2.4 2.2-.34.33-1.2.07-1.8-.58-1.4-1.4-3.8-1.6-3.8-.18 0 .55.65 1 1.4 1 .8 0 2.1.99 3 2.2l1.5 2.2 1.9-2.1c1.6-1.8 1.9-3.7 2-13 .08-7.4-.26-11-1-12-1.5-.91-126-.52-167 .53-.96.02-1.8.69-1.8 1.5s-.44 1.7-.99 2c-.58.36-.72-.07-.35-1 .56-1.4.35-1.5-1.6-.48-1.2.66-2 1.8-1.7 2.5s-.12 2.2-.89 3.2c-1.3 1.8-1.4 1.8-1.4.04-.05-2.7-1.8-1.1-2.6 2.4-.43 2-1.1 2.9-2 2.6-.81-.32-1.7.54-2.3 2.2l-.95 2.7-1-2.5c-.88-2.2-1.1-2.3-1.7-.75-.39.96-1.1 1.8-1.6 1.8s-.9-.79-.91-1.8c-.01-1.4-.19-1.5-.88-.37-.48.76-1.4 1.1-1.9.73-.57-.36-1.5.1-2 1-.73 1.3-1.8 1.5-5.1 1.1-3.6-.49-4.1-.34-3.6 1.2.45 1.4 0 1.7-2.2 1.7-2.8-.1-3.6.69-6.5 6.4-.7 1.4-1.8 3-2.4 3.5-2.6 2.3-2.4 4.4.66 5 3.7.82 3.7 2-.06 3.8-1.6.82-3 1.1-3 .56 0-.51-.96-.36-2.1.33-1.7 1-2.2 1-2.6 0-.25-.69-.97-.93-1.6-.54s-2.5.61-4.2.48c-2.3-.17-4 .72-7.3 3.7-3.9 3.5-4.2 4.2-3.3 6.5 1.4 3.6 2.4 3.3 1.6-.37-.41-1.9-.26-3 .42-3 .59 0 1.1.72 1.1 1.6 0 1 .55 1.4 1.5 1 .9-.34 1.8.07 2.1.99.43 1.1 1.4 1.4 3.3 1 1.5-.3 3.2-.03 3.8.6.87.87 1.2.85 1.2-.05 0-.66.68-1.2 1.5-1.2s1.5-.44 1.5-.97.64-.72 1.4-.42c.79.3 2.4-.39 3.5-1.5 1.2-1.2 2.1-1.7 2.1-1.3s1.2.82 2.7.91 3.2.91 3.8 1.8c.56.93 1.8 2.6 2.8 3.8s1.8 3.2 1.9 4.7c.25 4.4.45 5.5 1.3 7.4.56 1.2.37 2.1-.56 2.7-.91.57-.98.88-.21.89.66.01 1.5-.43 1.8-.98 1.1-1.8 2.2-1 2.9 2.1.73 3.6 2.2 3.1 4.2-1.4zm167 2.9c0 .41.69.18 1.5-.52.84-.7 1.4-1.4 1.1-1.7-.67-.67-5.6 1.9-5.6 3 0 .53.68.4 1.5-.28s1.5-.91 1.5-.5zm-108-4.5c1-1.1 1.4-2 .9-2-.51 0-1.5.9-2.2 2-.68 1.1-1.1 2-.89 2 .19 0 1.2-.9 2.2-2zm39-3.1c2.1-2.2 2.4-2.8.93-2.1-2.5 1.3-6.1 5.2-4.8 5.2.53 0 2.3-1.4 3.9-3.1zm51 2.4c-2-.72-1.4-3.3.75-3.3 1.1 0 2 .65 2 1.4 0 1.7-1.1 2.4-2.8 1.8zm-86-10c-.69-.7-2.6.71-2.6 1.9 0 .66.57.59 1.5-.2.84-.7 1.3-1.5 1.1-1.7zm-227-7.8c1.8-1.4 3.8-2.5 4.4-2.5.64 0 2-.41 2.9-.91.96-.5 3.9-1.7 6.5-2.6 5.1-1.8 5.9-3.6 3.3-7.1-1.4-1.8-1.5-1.8-1.5 1.1-.05 2.5-.22 2.7-1.1 1.2-.56-.96-1.6-1.8-2.4-1.8s-1.7-.9-2-2-1-2.1-1.6-2.1c-.51-.07-1.4-.19-1.9-.26-.52-.06-1.6-1-2.5-2.1-1.5-2-1.5-2-1.5-.01-.03 1.8-.28 1.7-2.6-.75-1.7-1.8-3.6-2.7-5.5-2.7h-3v12c0 6.5.3 12 .67 12 1.4 1.4 4.6.6 7.7-1.8zm11-2.4c.05-1.1-.42-.97-1.9.4-1.6 1.4-1.8 2.1-.79 3.2 1 1.2 1.3 1.2 1.9-.4.4-1 .76-2.5.8-3.2zm204-1.3c0-1.6-.3-1.9-1.1-1.1-.61.61-.81 1.6-.44 2.2 1 1.7 1.6 1.3 1.6-1.1zm141-9c-.63-2.8-.84-3-1.5-1.3-.4 1.1-.3 2.8.23 3.8 1.4 2.7 2.1 1.3 1.2-2.5zm-135-3.4c-.99-.98-2.8.53-2.8 2.4 0 1.5.13 1.5 1.7-.03.93-.93 1.4-2 1.1-2.3zm-79-5.2c3.2-5 3.4-7 .43-4-1.5 1.5-2.3 1.8-2.6.96-.32-.95-.74-.96-1.8-.06-1.2.95-1.2 1.5-.15 2.7 1.1 1.3.98 1.4-.74.75-4.1-1.6-5.1-1.6-8.2.34-2.4 1.5-3 2.5-2.6 4 .56 2.1 1.8 2.7 2.7 1.2.29-.48 1.6-.76 2.8-.63 1.2.13 2.9.29 3.6.36.74.07 1 .67.6 1.4-1.6 2.9 3.6-3.3 6-7.1zm188 4c-.67-.22-2 .36-2.9 1.3-1.5 1.6-1.5 1.6 1.2.4 1.6-.71 2.3-1.5 1.7-1.7zm-54-6.7c-.33-.34-1.2.44-1.8 1.7-1.1 2.2-1.1 2.3.61.61 1-.95 1.5-2 1.2-2.3zm66 .38c1.6-1.8 2.8-3.6 2.8-4.2 0-.89-2.6 1.6-5.9 5.6-2.5 3 .12 1.8 3-1.5zm-68-.92c1.9-3 .75-3.4-1.2-.43-.91 1.4-1.3 2.5-.87 2.5s1.4-.94 2.1-2.1zm18-1.1c0-.56-.66-.45-1.5.24-.82.68-1.5 1.7-1.5 2.2 0 .56.66.45 1.5-.24.82-.68 1.5-1.7 1.5-2.2zm-41-.5c-.69-.7-2.6.71-2.6 1.9 0 .66.57.59 1.5-.2.84-.7 1.3-1.5 1.1-1.7zm-203-3.6c.04-1.6-2.8 1.4-3.3 3.6-.54 2.1-.47 2.1 1.4-.28 1.1-1.4 2-2.9 2-3.4zm254 1.4c1-1.1 1.5-2 1.1-2-1.4 0-4.6 2.1-4.6 3 0 1.6 1.6 1.1 3.5-1zm-298-8.7c-1-1-1.8.51-1 1.9.63 1 .87 1 1.2.01.23-.7.15-1.5-.19-1.9zm297-.56c.01-.43-.61-.21-1.4.5-.76.71-1.2 1.7-.87 2.2.52.85 2.2-1.2 2.2-2.6zm-299-8.7c.29-1.1.17-2-.27-2-.43 0-1 1.1-1.3 2.5-.55 2.9.75 2.5 1.5-.45zm35-1.6c0-.21-.93-.39-2.1-.39s-1.8.43-1.5.96c.54.86 3.5.38 3.5-.57z"/></svg>
